<?xml version="1.0" encoding="UTF-8" standalone="no"?>
<!-- Created with Inkscape (http://www.inkscape.org/) -->

<svg
   width="1024"
   height="1024"
   viewBox="0 0 270.93332 270.93334"
   version="1.1"
   id="svg1"
   xml:space="preserve"
   xmlns="http://www.w3.org/2000/svg"
   xmlns:svg="http://www.w3.org/2000/svg"><defs
     id="defs1" /><g
     id="layer2"
     style="display:inline"><rect
       style="fill:#e23733;fill-opacity:1;stroke-width:0.260296"
       id="rect23"
       width="270.93332"
       height="270.93335"
       x="9.0734866e-06"
       y="1.4210855e-14" /></g><g
     id="layer1"><path
       style="fill:#363945;fill-opacity:1;stroke-width:0.264583"
       d="m 138.72693,184.41595 51.77307,-4.49928 29.63333,-6.35 -3.75649,20.73505 20.68982,-18.61838 v -21.16667 l -98.33973,0.24799 z m 0,0 -51.77307,-4.49928 -29.63333,-6.35 3.75649,20.73505 -20.68982,-18.61838 v -21.16667 l 98.33973,0.24799 z"
       id="path17"
       transform="matrix(0.88672176,0,0,0.85826753,12.454482,19.65419)" /><path
       style="fill:#e6e864;fill-opacity:1;stroke-width:0.264583"
       d="m 135.46666,179.91667 44.45,-4.23333 28.83231,-5.46644 -14.81667,14.81667 -16.93333,-5.29167 -20.10834,7.40834 -9.7536,22.59202 31.15289,-2.31569 -13.99095,17.82367 13.75833,1.05833 15.87233,-11.80445 7.91681,-18.93864 13.12023,-14.22285 7.54063,-16.41739 11.38436,-6.17524 2.52499,1.3834 -7.81665,55.76661 35.1095,-61.98543 -17.11784,-16.33124 6.35,-13.75834 -15.17272,-4.07031 -1.48454,-2.8952 4.90731,-15.61052 -15.76671,-0.7073 -1.94456,-3.043599 1.94456,-16.006403 -15.875,2.116667 -2.23291,-2.528821 -1.19049,-16.403542 -14.56827,5.17403 -3.17159,-1.608283 -4.76591,-15.854217 -13.1846,8.094353 -3.02436,-0.955776 -7.60354,-14.54691 -11.45812,10.616578 -3.10799,-0.3174 -9.77556,-12.945012 z m 0,0 -44.45,-4.23333 -28.83231,-5.46644 14.81667,14.81667 16.93333,-5.29167 20.10834,7.40834 9.7536,22.59202 -31.15289,-2.31569 13.99095,17.82367 -13.75833,1.05833 L 77.00369,214.50412 69.08688,195.56548 55.96665,181.34263 48.42602,164.92524 37.04166,158.75 l -2.52499,1.3834 7.81665,55.76661 -35.1095,-61.98543 17.11784,-16.33124 -6.35,-13.75834 15.17272,-4.07031 1.48454,-2.8952 -4.90731,-15.61052 15.76671,-0.7073 1.94456,-3.043599 -1.94456,-16.006403 15.875,2.116667 2.23291,-2.528821 1.19049,-16.403542 14.56827,5.17403 3.17159,-1.608283 4.76591,-15.854217 13.1846,8.094353 3.02436,-0.955776 7.60354,-14.54691 11.45812,10.616578 3.10799,-0.3174 9.77556,-12.945012 z"
       id="path16"
       transform="matrix(0.85826753,0,0,0.85826753,19.200031,19.65419)" /></g><g
     id="layer3"><path
       style="fill:#24262e;fill-opacity:1;stroke-width:0.227083"
       d="m 112.38959,128.65417 9.08333,3.63333 5.04179,14.60695 -6.85846,10.82638 -9.08333,1.81667 -9.0407,-6.05391 -2.734355,-9.39988 5.650945,-14.05205 z"
       id="path20" /><path
       style="fill:#d7d7d7;fill-opacity:1;stroke-width:0.227083"
       d="m 106.93959,129.56251 4.54167,2.72499 1.36249,4.54166 -1.36249,5.90417 -3.63333,2.27083 -4.99584,-2.725 -1.3625,-5.45 1.3625,-4.54166 z"
       id="path18" /><path
       style="fill:#24262e;fill-opacity:1;stroke-width:0.227083"
       d="m 158.01034,128.65417 9.08334,3.63333 5.04179,14.60695 -6.85846,10.82638 -9.08333,1.81667 -9.04071,-6.05391 -2.73435,-9.39988 5.65094,-14.05205 z"
       id="path21" /><path
       style="fill:#d7d7d7;fill-opacity:1;stroke-width:0.227083"
       d="m 152.51614,129.56251 4.54167,2.72499 1.3625,4.54166 -1.3625,5.90417 -3.63333,2.27083 -4.99584,-2.725 -1.3625,-5.45 1.3625,-4.54166 z"
       id="path19" /></g></svg>
