<svg width="665" height="345" viewBox="0 0 665 345" fill="none" xmlns="http://www.w3.org/2000/svg">
<path d="M533.208 0H652.059C662.745 0 668.101 12.9171 660.55 20.4792L531.926 149.288C527.248 153.973 527.248 161.561 531.926 166.246L660.55 295.055C668.101 302.617 662.745 315.534 652.059 315.534H533.208C530.023 315.534 526.968 314.268 524.717 312.013L455.567 242.764C450.879 238.069 443.272 238.069 438.584 242.764L340.991 340.496C336.304 345.191 328.696 345.191 324.009 340.496L4.44986 20.4792C-3.10137 12.9171 2.25452 0 12.9412 0H131.792C134.977 0 138.032 1.26666 140.283 3.52082L324.009 187.51C328.696 192.205 336.304 192.205 340.991 187.51L447.075 81.274L524.717 3.52081C526.968 1.26665 530.023 0 533.208 0Z" fill="#e6c85c"/>
<path d="M237.573 20.324L324.131 110.206C328.785 115.038 336.496 115.117 341.247 110.381L400.475 51.3386C405.179 46.6493 405.179 39.0307 400.475 34.3414L369.537 3.50138C367.288 1.2591 364.242 0 361.065 0H246.216C235.634 0 230.232 12.7016 237.573 20.324Z" fill="#D8DBE9"/>
</svg>