<svg width="738" height="541" viewBox="0 0 738 541" fill="none" xmlns="http://www.w3.org/2000/svg">
<g clip-path="url(#clip0_0_22)">
<rect x="1" y="1" width="736" height="539" rx="10" fill="#1F2128"/>
<path d="M737 28H1V30H737V28Z" fill="#9DA4BE" mask="url(#path-2-inside-1_0_22)"/>
<rect x="9.5" y="9.5" width="11" height="11" rx="5.5" stroke="#9DA4BE"/>
<rect x="29.5" y="9.5" width="11" height="11" rx="5.5" stroke="#9DA4BE"/>
<rect x="49.5" y="9.5" width="11" height="11" rx="5.5" stroke="#9DA4BE"/>
<path d="M313.265 20.195C312.593 20.195 312.03 20.0325 311.575 19.7075C311.12 19.3782 310.775 18.934 310.541 18.375C310.307 17.816 310.19 17.1855 310.19 16.4835C310.19 15.7815 310.305 15.151 310.535 14.592C310.769 14.033 311.111 13.5932 311.562 13.2725C312.017 12.9475 312.576 12.785 313.239 12.785C313.897 12.785 314.465 12.9475 314.942 13.2725C315.423 13.5932 315.793 14.033 316.053 14.592C316.313 15.1467 316.443 15.7772 316.443 16.4835C316.443 17.1855 316.313 17.8182 316.053 18.3815C315.797 18.9405 315.431 19.3825 314.955 19.7075C314.482 20.0325 313.919 20.195 313.265 20.195ZM309.963 23.12V12.98H311.172V18.0305H311.328V23.12H309.963ZM313.076 18.9665C313.509 18.9665 313.867 18.856 314.149 18.635C314.435 18.414 314.647 18.1172 314.786 17.7445C314.929 17.3675 315 16.9472 315 16.4835C315 16.0242 314.929 15.6082 314.786 15.2355C314.647 14.8628 314.432 14.566 314.142 14.345C313.852 14.124 313.481 14.0135 313.031 14.0135C312.606 14.0135 312.255 14.1175 311.978 14.3255C311.705 14.5335 311.501 14.8238 311.367 15.1965C311.237 15.5692 311.172 15.9982 311.172 16.4835C311.172 16.9688 311.237 17.3978 311.367 17.7705C311.497 18.1432 311.702 18.4357 311.984 18.648C312.266 18.8603 312.63 18.9665 313.076 18.9665ZM317.878 20V12.98H319.087V14.683L318.918 14.462C319.005 14.2367 319.118 14.0308 319.256 13.8445C319.395 13.6538 319.555 13.4978 319.737 13.3765C319.915 13.2465 320.112 13.1468 320.329 13.0775C320.55 13.0038 320.775 12.9605 321.005 12.9475C321.234 12.9302 321.455 12.941 321.668 12.98V14.254C321.438 14.1933 321.182 14.176 320.901 14.202C320.623 14.228 320.368 14.3168 320.134 14.4685C319.913 14.6115 319.737 14.7848 319.607 14.9885C319.482 15.1922 319.391 15.4197 319.334 15.671C319.278 15.918 319.25 16.1802 319.25 16.4575V20H317.878ZM325.827 20.195C325.125 20.195 324.516 20.0368 324.001 19.7205C323.485 19.4042 323.086 18.9687 322.805 18.414C322.527 17.855 322.389 17.2115 322.389 16.4835C322.389 15.7512 322.532 15.1077 322.818 14.553C323.104 13.994 323.504 13.5607 324.02 13.253C324.536 12.941 325.138 12.785 325.827 12.785C326.529 12.785 327.138 12.9432 327.654 13.2595C328.169 13.5758 328.568 14.0113 328.85 14.566C329.131 15.1207 329.272 15.7598 329.272 16.4835C329.272 17.2158 329.129 17.8615 328.843 18.4205C328.561 18.9752 328.163 19.4107 327.647 19.727C327.131 20.039 326.525 20.195 325.827 20.195ZM325.827 18.9145C326.499 18.9145 326.999 18.6892 327.329 18.2385C327.662 17.7835 327.829 17.1985 327.829 16.4835C327.829 15.7512 327.66 15.1662 327.322 14.7285C326.988 14.2865 326.49 14.0655 325.827 14.0655C325.372 14.0655 324.997 14.1695 324.703 14.3775C324.408 14.5812 324.189 14.865 324.046 15.229C323.903 15.5887 323.832 16.0068 323.832 16.4835C323.832 17.2202 324.001 17.8095 324.339 18.2515C324.677 18.6935 325.173 18.9145 325.827 18.9145ZM333.258 20.1885C332.404 20.1885 331.709 20 331.172 19.623C330.634 19.246 330.305 18.7152 330.184 18.0305L331.575 17.816C331.661 18.18 331.861 18.4682 332.173 18.6805C332.489 18.8885 332.881 18.9925 333.349 18.9925C333.774 18.9925 334.105 18.9058 334.344 18.7325C334.586 18.5592 334.708 18.3208 334.708 18.0175C334.708 17.8398 334.664 17.6968 334.578 17.5885C334.495 17.4758 334.32 17.3697 334.051 17.27C333.782 17.1703 333.373 17.0468 332.823 16.8995C332.22 16.7435 331.741 16.5767 331.386 16.399C331.035 16.217 330.784 16.0068 330.632 15.7685C330.485 15.5258 330.411 15.2333 330.411 14.891C330.411 14.4663 330.524 14.0958 330.749 13.7795C330.974 13.4632 331.291 13.2183 331.698 13.045C332.11 12.8717 332.591 12.785 333.141 12.785C333.678 12.785 334.157 12.8695 334.578 13.0385C334.998 13.2075 335.338 13.448 335.598 13.76C335.858 14.0677 336.014 14.4295 336.066 14.8455L334.675 15.099C334.627 14.761 334.469 14.4945 334.201 14.2995C333.932 14.1045 333.583 13.9983 333.154 13.981C332.742 13.9637 332.409 14.033 332.153 14.189C331.897 14.3407 331.77 14.5508 331.77 14.8195C331.77 14.9755 331.817 15.1077 331.913 15.216C332.012 15.3243 332.203 15.4283 332.485 15.528C332.766 15.6277 333.182 15.7468 333.733 15.8855C334.322 16.0372 334.79 16.2062 335.137 16.3925C335.483 16.5745 335.73 16.7933 335.878 17.049C336.029 17.3003 336.105 17.6058 336.105 17.9655C336.105 18.6588 335.852 19.2027 335.345 19.597C334.842 19.9913 334.146 20.1885 333.258 20.1885ZM337.413 16.4445V15.3525H341.313V16.4445H337.413ZM347.019 20C346.577 20.0867 346.144 20.1235 345.719 20.1105C345.295 20.0975 344.915 20.0152 344.582 19.8635C344.248 19.7118 343.997 19.4735 343.828 19.1485C343.676 18.8582 343.594 18.5635 343.581 18.2645C343.572 17.9612 343.568 17.6188 343.568 17.2375V11.03H344.933V17.1725C344.933 17.4542 344.935 17.699 344.939 17.907C344.948 18.115 344.993 18.2905 345.076 18.4335C345.232 18.7022 345.479 18.856 345.817 18.895C346.159 18.9297 346.56 18.9145 347.019 18.8495V20ZM342.222 14.072V12.98H347.019V14.072H342.222ZM351.295 20.195C350.598 20.195 349.985 20.0433 349.456 19.74C348.932 19.4323 348.522 19.0055 348.227 18.4595C347.937 17.9092 347.792 17.2722 347.792 16.5485C347.792 15.7815 347.935 15.1163 348.221 14.553C348.511 13.9897 348.914 13.5542 349.43 13.2465C349.946 12.9388 350.546 12.785 351.23 12.785C351.945 12.785 352.554 12.9518 353.057 13.2855C353.56 13.6148 353.934 14.085 354.181 14.696C354.433 15.307 354.532 16.0328 354.48 16.8735H353.122V16.3795C353.113 15.5648 352.957 14.9625 352.654 14.5725C352.355 14.1825 351.898 13.9875 351.282 13.9875C350.602 13.9875 350.091 14.202 349.748 14.631C349.406 15.06 349.235 15.6797 349.235 16.49C349.235 17.2613 349.406 17.8593 349.748 18.284C350.091 18.7043 350.585 18.9145 351.23 18.9145C351.655 18.9145 352.021 18.8192 352.329 18.6285C352.641 18.4335 352.884 18.1562 353.057 17.7965L354.389 18.219C354.116 18.8473 353.703 19.3348 353.148 19.6815C352.593 20.0238 351.976 20.195 351.295 20.195ZM348.793 16.8735V15.814H353.804V16.8735H348.793ZM364.159 20L364.166 15.6255C364.166 15.1185 364.036 14.7242 363.776 14.4425C363.516 14.1565 363.174 14.0135 362.749 14.0135C362.489 14.0135 362.251 14.0742 362.034 14.1955C361.822 14.3125 361.648 14.4902 361.514 14.7285C361.384 14.9625 361.319 15.2572 361.319 15.6125L360.662 15.281C360.654 14.787 360.758 14.3537 360.974 13.981C361.195 13.6083 361.494 13.3202 361.871 13.1165C362.248 12.9085 362.671 12.8045 363.139 12.8045C363.897 12.8045 364.484 13.032 364.9 13.487C365.316 13.942 365.524 14.5465 365.524 15.3005L365.518 20H364.159ZM355.742 20V12.98H356.951V15.008H357.107V20H355.742ZM359.954 20L359.96 15.6515C359.96 15.1402 359.83 14.7393 359.57 14.449C359.315 14.1587 358.97 14.0135 358.537 14.0135C358.108 14.0135 357.761 14.1608 357.497 14.4555C357.237 14.7502 357.107 15.1358 357.107 15.6125L356.457 15.1965C356.457 14.7372 356.567 14.3277 356.788 13.968C357.009 13.6083 357.308 13.3245 357.685 13.1165C358.062 12.9085 358.489 12.8045 358.966 12.8045C359.464 12.8045 359.889 12.9107 360.24 13.123C360.591 13.331 360.857 13.6235 361.039 14.0005C361.226 14.3775 361.319 14.8152 361.319 15.3135L361.312 20H359.954ZM370.508 20.195C369.836 20.195 369.273 20.0325 368.818 19.7075C368.363 19.3782 368.018 18.934 367.784 18.375C367.55 17.816 367.433 17.1855 367.433 16.4835C367.433 15.7815 367.548 15.151 367.778 14.592C368.012 14.033 368.354 13.5932 368.805 13.2725C369.26 12.9475 369.819 12.785 370.482 12.785C371.14 12.785 371.708 12.9475 372.185 13.2725C372.666 13.5932 373.036 14.033 373.296 14.592C373.556 15.1467 373.686 15.7772 373.686 16.4835C373.686 17.1855 373.556 17.8182 373.296 18.3815C373.041 18.9405 372.674 19.3825 372.198 19.7075C371.725 20.0325 371.162 20.195 370.508 20.195ZM367.206 23.12V12.98H368.415V18.0305H368.571V23.12H367.206ZM370.319 18.9665C370.753 18.9665 371.11 18.856 371.392 18.635C371.678 18.414 371.89 18.1172 372.029 17.7445C372.172 17.3675 372.243 16.9472 372.243 16.4835C372.243 16.0242 372.172 15.6082 372.029 15.2355C371.89 14.8628 371.676 14.566 371.385 14.345C371.095 14.124 370.724 14.0135 370.274 14.0135C369.849 14.0135 369.498 14.1175 369.221 14.3255C368.948 14.5335 368.744 14.8238 368.61 15.1965C368.48 15.5692 368.415 15.9982 368.415 16.4835C368.415 16.9688 368.48 17.3978 368.61 17.7705C368.74 18.1432 368.946 18.4357 369.227 18.648C369.509 18.8603 369.873 18.9665 370.319 18.9665ZM375.251 20V10.445H376.61V20H375.251ZM380.544 20.195C380.024 20.195 379.589 20.0997 379.238 19.909C378.887 19.714 378.62 19.4583 378.438 19.142C378.261 18.8213 378.172 18.4703 378.172 18.089C378.172 17.7337 378.235 17.4217 378.36 17.153C378.486 16.8843 378.672 16.6568 378.919 16.4705C379.166 16.2798 379.47 16.126 379.829 16.009C380.141 15.918 380.495 15.8378 380.889 15.7685C381.283 15.6992 381.697 15.6342 382.13 15.5735C382.568 15.5128 383.001 15.4522 383.43 15.3915L382.936 15.6645C382.945 15.1142 382.828 14.7068 382.585 14.4425C382.347 14.1738 381.935 14.0395 381.35 14.0395C380.982 14.0395 380.644 14.1262 380.336 14.2995C380.029 14.4685 379.814 14.7502 379.693 15.1445L378.425 14.7545C378.599 14.1522 378.928 13.6733 379.413 13.318C379.903 12.9627 380.553 12.785 381.363 12.785C381.992 12.785 382.538 12.8933 383.001 13.11C383.469 13.3223 383.812 13.6603 384.028 14.124C384.141 14.3537 384.21 14.5963 384.236 14.852C384.262 15.1077 384.275 15.3828 384.275 15.6775V20H383.073V18.3945L383.307 18.6025C383.017 19.1398 382.646 19.5407 382.195 19.805C381.749 20.065 381.199 20.195 380.544 20.195ZM380.785 19.0835C381.171 19.0835 381.502 19.0163 381.779 18.882C382.057 18.7433 382.28 18.5678 382.449 18.3555C382.618 18.1432 382.728 17.9222 382.78 17.6925C382.854 17.4845 382.895 17.2505 382.904 16.9905C382.917 16.7305 382.923 16.5225 382.923 16.3665L383.365 16.529C382.936 16.594 382.546 16.6525 382.195 16.7045C381.844 16.7565 381.526 16.8085 381.24 16.8605C380.958 16.9082 380.707 16.9667 380.486 17.036C380.3 17.101 380.133 17.179 379.985 17.27C379.842 17.361 379.728 17.4715 379.641 17.6015C379.559 17.7315 379.517 17.8897 379.517 18.076C379.517 18.258 379.563 18.427 379.654 18.583C379.745 18.7347 379.884 18.856 380.07 18.947C380.256 19.038 380.495 19.0835 380.785 19.0835ZM389.98 20C389.538 20.0867 389.105 20.1235 388.68 20.1105C388.256 20.0975 387.876 20.0152 387.543 19.8635C387.209 19.7118 386.958 19.4735 386.789 19.1485C386.637 18.8582 386.555 18.5635 386.542 18.2645C386.533 17.9612 386.529 17.6188 386.529 17.2375V11.03H387.894V17.1725C387.894 17.4542 387.896 17.699 387.9 17.907C387.909 18.115 387.954 18.2905 388.037 18.4335C388.193 18.7022 388.44 18.856 388.778 18.895C389.12 18.9297 389.521 18.9145 389.98 18.8495V20ZM385.183 14.072V12.98H389.98V14.072H385.183ZM394.256 20.195C393.559 20.195 392.946 20.0433 392.417 19.74C391.893 19.4323 391.483 19.0055 391.188 18.4595C390.898 17.9092 390.753 17.2722 390.753 16.5485C390.753 15.7815 390.896 15.1163 391.182 14.553C391.472 13.9897 391.875 13.5542 392.391 13.2465C392.907 12.9388 393.507 12.785 394.191 12.785C394.906 12.785 395.515 12.9518 396.018 13.2855C396.521 13.6148 396.895 14.085 397.142 14.696C397.394 15.307 397.493 16.0328 397.441 16.8735H396.083V16.3795C396.074 15.5648 395.918 14.9625 395.615 14.5725C395.316 14.1825 394.859 13.9875 394.243 13.9875C393.563 13.9875 393.052 14.202 392.709 14.631C392.367 15.06 392.196 15.6797 392.196 16.49C392.196 17.2613 392.367 17.8593 392.709 18.284C393.052 18.7043 393.546 18.9145 394.191 18.9145C394.616 18.9145 394.982 18.8192 395.29 18.6285C395.602 18.4335 395.845 18.1562 396.018 17.7965L397.35 18.219C397.077 18.8473 396.664 19.3348 396.109 19.6815C395.554 20.0238 394.937 20.195 394.256 20.195ZM391.754 16.8735V15.814H396.765V16.8735H391.754ZM398.77 16.4445V15.3525H402.67V16.4445H398.77ZM404.359 20V12.98H405.568V14.683L405.399 14.462C405.485 14.2367 405.598 14.0308 405.737 13.8445C405.875 13.6538 406.036 13.4978 406.218 13.3765C406.395 13.2465 406.593 13.1468 406.809 13.0775C407.03 13.0038 407.256 12.9605 407.485 12.9475C407.715 12.9302 407.936 12.941 408.148 12.98V14.254C407.919 14.1933 407.663 14.176 407.381 14.202C407.104 14.228 406.848 14.3168 406.614 14.4685C406.393 14.6115 406.218 14.7848 406.088 14.9885C405.962 15.1922 405.871 15.4197 405.815 15.671C405.758 15.918 405.73 16.1802 405.73 16.4575V20H404.359ZM412.032 20.1885C411.546 20.1885 411.139 20.1105 410.81 19.9545C410.48 19.7985 410.212 19.5948 410.004 19.3435C409.8 19.0878 409.644 18.8105 409.536 18.5115C409.427 18.2125 409.354 17.92 409.315 17.634C409.276 17.348 409.256 17.0967 409.256 16.88V12.98H410.634V16.4315C410.634 16.7045 410.656 16.9862 410.699 17.2765C410.747 17.5625 410.833 17.829 410.959 18.076C411.089 18.323 411.269 18.5223 411.499 18.674C411.733 18.8257 412.036 18.9015 412.409 18.9015C412.651 18.9015 412.881 18.8625 413.098 18.7845C413.314 18.7022 413.503 18.5722 413.663 18.3945C413.828 18.2168 413.956 17.9828 414.047 17.6925C414.142 17.4022 414.19 17.049 414.19 16.633L415.035 16.9515C415.035 17.5885 414.915 18.1518 414.677 18.6415C414.439 19.1268 414.096 19.506 413.65 19.779C413.204 20.052 412.664 20.1885 412.032 20.1885ZM414.352 20V17.972H414.19V12.98H415.561V20H414.352ZM420.069 20.1885C419.215 20.1885 418.519 20 417.982 19.623C417.445 19.246 417.115 18.7152 416.994 18.0305L418.385 17.816C418.472 18.18 418.671 18.4682 418.983 18.6805C419.299 18.8885 419.692 18.9925 420.16 18.9925C420.584 18.9925 420.916 18.9058 421.154 18.7325C421.397 18.5592 421.518 18.3208 421.518 18.0175C421.518 17.8398 421.475 17.6968 421.388 17.5885C421.306 17.4758 421.13 17.3697 420.862 17.27C420.593 17.1703 420.183 17.0468 419.633 16.8995C419.031 16.7435 418.552 16.5767 418.197 16.399C417.846 16.217 417.594 16.0068 417.443 15.7685C417.295 15.5258 417.222 15.2333 417.222 14.891C417.222 14.4663 417.334 14.0958 417.56 13.7795C417.785 13.4632 418.101 13.2183 418.509 13.045C418.92 12.8717 419.401 12.785 419.952 12.785C420.489 12.785 420.968 12.8695 421.388 13.0385C421.808 13.2075 422.149 13.448 422.409 13.76C422.669 14.0677 422.825 14.4295 422.877 14.8455L421.486 15.099C421.438 14.761 421.28 14.4945 421.011 14.2995C420.742 14.1045 420.394 13.9983 419.965 13.981C419.553 13.9637 419.219 14.033 418.964 14.189C418.708 14.3407 418.58 14.5508 418.58 14.8195C418.58 14.9755 418.628 15.1077 418.723 15.216C418.823 15.3243 419.013 15.4283 419.295 15.528C419.577 15.6277 419.993 15.7468 420.543 15.8855C421.132 16.0372 421.6 16.2062 421.947 16.3925C422.294 16.5745 422.541 16.7933 422.688 17.049C422.84 17.3003 422.916 17.6058 422.916 17.9655C422.916 18.6588 422.662 19.2027 422.155 19.597C421.652 19.9913 420.957 20.1885 420.069 20.1885ZM428.371 20C427.929 20.0867 427.496 20.1235 427.071 20.1105C426.646 20.0975 426.267 20.0152 425.933 19.8635C425.6 19.7118 425.348 19.4735 425.179 19.1485C425.028 18.8582 424.945 18.5635 424.932 18.2645C424.924 17.9612 424.919 17.6188 424.919 17.2375V11.03H426.284V17.1725C426.284 17.4542 426.287 17.699 426.291 17.907C426.3 18.115 426.345 18.2905 426.427 18.4335C426.583 18.7022 426.83 18.856 427.168 18.895C427.511 18.9297 427.912 18.9145 428.371 18.8495V20ZM423.574 14.072V12.98H428.371V14.072H423.574Z" fill="#9DA4BE"/>
<rect x="25.5" y="53.5" width="33" height="33" rx="5.5" stroke="#9DA4BE"/>
<rect x="25.5" y="103.5" width="303" height="215" rx="5.5" stroke="#9DA4BE"/>
<rect x="25.5" y="331.5" width="687" height="184" rx="5.5" stroke="#9DA4BE"/>
<rect x="341.5" y="103.5" width="371" height="215" rx="5.5" stroke="#9DA4BE"/>
<rect x="392.5" y="147.5" width="269.4" height="147" rx="5.5" stroke="#9DA4BE"/>
<rect x="71.5" y="53.5" width="33" height="33" rx="5.5" stroke="#9DA4BE"/>
<rect x="117.5" y="53.5" width="149" height="33" rx="5.5" stroke="#9DA4BE"/>
<g clip-path="url(#clip1_0_22)">
<path d="M140.5 70C140.5 68.2761 139.815 66.6228 138.596 65.4038C137.377 64.1848 135.724 63.5 134 63.5C132.276 63.5 130.623 64.1848 129.404 65.4038C128.185 66.6228 127.5 68.2761 127.5 70C127.5 71.7239 128.185 73.3772 129.404 74.5962C130.623 75.8152 132.276 76.5 134 76.5C135.724 76.5 137.377 75.8152 138.596 74.5962C139.815 73.3772 140.5 71.7239 140.5 70ZM126 70C126 67.8783 126.843 65.8434 128.343 64.3431C129.843 62.8429 131.878 62 134 62C136.122 62 138.157 62.8429 139.657 64.3431C141.157 65.8434 142 67.8783 142 70C142 72.1217 141.157 74.1566 139.657 75.6569C138.157 77.1571 136.122 78 134 78C131.878 78 129.843 77.1571 128.343 75.6569C126.843 74.1566 126 72.1217 126 70ZM131.884 66.5969C132.122 66.4656 132.409 66.4688 132.644 66.6125L137.144 69.3625C137.366 69.5 137.503 69.7406 137.503 70.0031C137.503 70.2656 137.366 70.5063 137.144 70.6438L132.644 73.3938C132.413 73.5344 132.122 73.5406 131.884 73.4094C131.647 73.2781 131.5 73.0281 131.5 72.7563V67.25C131.5 66.9781 131.647 66.7281 131.884 66.5969Z" fill="#9DA4BE"/>
</g>
<path d="M154.411 75.195C153.74 75.195 153.133 75.0802 152.591 74.8505C152.054 74.6165 151.61 74.285 151.259 73.856C150.912 73.4227 150.687 72.9092 150.583 72.3155L152 72.101C152.143 72.673 152.442 73.1193 152.897 73.44C153.352 73.7563 153.883 73.9145 154.489 73.9145C154.866 73.9145 155.213 73.856 155.529 73.739C155.846 73.6177 156.099 73.4465 156.29 73.2255C156.485 73.0002 156.582 72.7315 156.582 72.4195C156.582 72.2505 156.552 72.101 156.491 71.971C156.435 71.841 156.355 71.7283 156.251 71.633C156.151 71.5333 156.028 71.4488 155.88 71.3795C155.737 71.3058 155.579 71.243 155.406 71.191L153.007 70.4825C152.773 70.4132 152.535 70.3243 152.292 70.216C152.05 70.1033 151.827 69.9582 151.623 69.7805C151.424 69.5985 151.261 69.3753 151.135 69.111C151.01 68.8423 150.947 68.5173 150.947 68.136C150.947 67.5597 151.094 67.0722 151.389 66.6735C151.688 66.2705 152.091 65.9672 152.598 65.7635C153.105 65.5555 153.673 65.4515 154.301 65.4515C154.934 65.4602 155.499 65.5728 155.997 65.7895C156.5 66.0062 156.916 66.3182 157.245 66.7255C157.579 67.1285 157.809 67.6182 157.934 68.1945L156.478 68.4415C156.413 68.0905 156.275 67.7893 156.062 67.538C155.85 67.2823 155.59 67.0873 155.282 66.953C154.975 66.8143 154.641 66.7428 154.281 66.7385C153.935 66.7298 153.616 66.7818 153.326 66.8945C153.04 67.0072 152.81 67.1653 152.637 67.369C152.468 67.5727 152.383 67.8067 152.383 68.071C152.383 68.331 152.459 68.5412 152.611 68.7015C152.763 68.8618 152.949 68.9897 153.17 69.085C153.395 69.176 153.618 69.2518 153.839 69.3125L155.568 69.8C155.785 69.8607 156.03 69.943 156.303 70.047C156.58 70.1467 156.847 70.2875 157.102 70.4695C157.362 70.6515 157.577 70.8942 157.746 71.1975C157.915 71.4965 157.999 71.8735 157.999 72.3285C157.999 72.8008 157.904 73.2168 157.713 73.5765C157.523 73.9318 157.261 74.2308 156.927 74.4735C156.598 74.7118 156.216 74.8917 155.783 75.013C155.35 75.1343 154.892 75.195 154.411 75.195ZM163.402 75C162.96 75.0867 162.526 75.1235 162.102 75.1105C161.677 75.0975 161.298 75.0152 160.964 74.8635C160.63 74.7118 160.379 74.4735 160.21 74.1485C160.058 73.8582 159.976 73.5635 159.963 73.2645C159.954 72.9612 159.95 72.6188 159.95 72.2375V66.03H161.315V72.1725C161.315 72.4542 161.317 72.699 161.322 72.907C161.33 73.115 161.376 73.2905 161.458 73.4335C161.614 73.7022 161.861 73.856 162.199 73.895C162.541 73.9297 162.942 73.9145 163.402 73.8495V75ZM158.605 69.072V67.98H163.402V69.072H158.605ZM166.864 75.195C166.344 75.195 165.909 75.0997 165.558 74.909C165.207 74.714 164.94 74.4583 164.758 74.142C164.581 73.8213 164.492 73.4703 164.492 73.089C164.492 72.7337 164.555 72.4217 164.68 72.153C164.806 71.8843 164.992 71.6568 165.239 71.4705C165.486 71.2798 165.79 71.126 166.149 71.009C166.461 70.918 166.814 70.8378 167.209 70.7685C167.603 70.6992 168.017 70.6342 168.45 70.5735C168.888 70.5128 169.321 70.4522 169.75 70.3915L169.256 70.6645C169.265 70.1142 169.148 69.7068 168.905 69.4425C168.667 69.1738 168.255 69.0395 167.67 69.0395C167.302 69.0395 166.964 69.1262 166.656 69.2995C166.349 69.4685 166.134 69.7502 166.013 70.1445L164.745 69.7545C164.919 69.1522 165.248 68.6733 165.733 68.318C166.223 67.9627 166.873 67.785 167.683 67.785C168.312 67.785 168.858 67.8933 169.321 68.11C169.789 68.3223 170.132 68.6603 170.348 69.124C170.461 69.3537 170.53 69.5963 170.556 69.852C170.582 70.1077 170.595 70.3828 170.595 70.6775V75H169.393V73.3945L169.627 73.6025C169.336 74.1398 168.966 74.5407 168.515 74.805C168.069 75.065 167.519 75.195 166.864 75.195ZM167.105 74.0835C167.49 74.0835 167.822 74.0163 168.099 73.882C168.377 73.7433 168.6 73.5678 168.769 73.3555C168.938 73.1432 169.048 72.9222 169.1 72.6925C169.174 72.4845 169.215 72.2505 169.224 71.9905C169.237 71.7305 169.243 71.5225 169.243 71.3665L169.685 71.529C169.256 71.594 168.866 71.6525 168.515 71.7045C168.164 71.7565 167.846 71.8085 167.56 71.8605C167.278 71.9082 167.027 71.9667 166.806 72.036C166.619 72.101 166.453 72.179 166.305 72.27C166.162 72.361 166.047 72.4715 165.961 72.6015C165.878 72.7315 165.837 72.8897 165.837 73.076C165.837 73.258 165.883 73.427 165.974 73.583C166.065 73.7347 166.203 73.856 166.39 73.947C166.576 74.038 166.814 74.0835 167.105 74.0835ZM172.283 75V67.98H173.492V69.683L173.323 69.462C173.41 69.2367 173.522 69.0308 173.661 68.8445C173.8 68.6538 173.96 68.4978 174.142 68.3765C174.32 68.2465 174.517 68.1468 174.734 68.0775C174.955 68.0038 175.18 67.9605 175.41 67.9475C175.639 67.9302 175.86 67.941 176.073 67.98V69.254C175.843 69.1933 175.587 69.176 175.306 69.202C175.028 69.228 174.773 69.3168 174.539 69.4685C174.318 69.6115 174.142 69.7848 174.012 69.9885C173.886 70.1922 173.795 70.4197 173.739 70.671C173.683 70.918 173.655 71.1802 173.655 71.4575V75H172.283ZM181.327 75C180.885 75.0867 180.452 75.1235 180.027 75.1105C179.603 75.0975 179.224 75.0152 178.89 74.8635C178.556 74.7118 178.305 74.4735 178.136 74.1485C177.984 73.8582 177.902 73.5635 177.889 73.2645C177.88 72.9612 177.876 72.6188 177.876 72.2375V66.03H179.241V72.1725C179.241 72.4542 179.243 72.699 179.247 72.907C179.256 73.115 179.302 73.2905 179.384 73.4335C179.54 73.7022 179.787 73.856 180.125 73.895C180.467 73.9297 180.868 73.9145 181.327 73.8495V75ZM176.53 69.072V67.98H181.327V69.072H176.53ZM185.41 75V65.64H189.193C189.284 65.64 189.397 65.6443 189.531 65.653C189.665 65.6573 189.793 65.6703 189.915 65.692C190.435 65.7743 190.868 65.952 191.214 66.225C191.566 66.498 191.828 66.8425 192.001 67.2585C192.174 67.6745 192.261 68.1338 192.261 68.6365C192.261 69.3818 192.07 70.0253 191.689 70.567C191.308 71.1043 190.736 71.4402 189.973 71.5745L189.421 71.6395H186.769V75H185.41ZM190.883 75L189.037 71.191L190.409 70.84L192.437 75H190.883ZM186.769 70.3525H189.141C189.228 70.3525 189.323 70.3482 189.427 70.3395C189.535 70.3308 189.637 70.3157 189.733 70.294C190.01 70.229 190.233 70.1098 190.402 69.9365C190.571 69.7588 190.692 69.5552 190.766 69.3255C190.84 69.0958 190.877 68.8662 190.877 68.6365C190.877 68.4068 190.84 68.1793 190.766 67.954C190.692 67.7243 190.571 67.5228 190.402 67.3495C190.233 67.1718 190.01 67.0505 189.733 66.9855C189.637 66.9595 189.535 66.9422 189.427 66.9335C189.323 66.9248 189.228 66.9205 189.141 66.9205H186.769V70.3525ZM196.914 75.195C196.212 75.195 195.603 75.0368 195.087 74.7205C194.571 74.4042 194.173 73.9687 193.891 73.414C193.614 72.855 193.475 72.2115 193.475 71.4835C193.475 70.7512 193.618 70.1077 193.904 69.553C194.19 68.994 194.591 68.5607 195.107 68.253C195.622 67.941 196.225 67.785 196.914 67.785C197.616 67.785 198.224 67.9432 198.74 68.2595C199.256 68.5758 199.654 69.0113 199.936 69.566C200.218 70.1207 200.359 70.7598 200.359 71.4835C200.359 72.2158 200.216 72.8615 199.93 73.4205C199.648 73.9752 199.249 74.4107 198.734 74.727C198.218 75.039 197.611 75.195 196.914 75.195ZM196.914 73.9145C197.585 73.9145 198.086 73.6892 198.415 73.2385C198.749 72.7835 198.916 72.1985 198.916 71.4835C198.916 70.7512 198.747 70.1662 198.409 69.7285C198.075 69.2865 197.577 69.0655 196.914 69.0655C196.459 69.0655 196.084 69.1695 195.789 69.3775C195.494 69.5812 195.276 69.865 195.133 70.229C194.99 70.5887 194.918 71.0068 194.918 71.4835C194.918 72.2202 195.087 72.8095 195.425 73.2515C195.763 73.6935 196.259 73.9145 196.914 73.9145ZM205.082 75.195C204.411 75.195 203.847 75.0325 203.392 74.7075C202.937 74.3782 202.593 73.934 202.359 73.375C202.125 72.816 202.008 72.1855 202.008 71.4835C202.008 70.7815 202.123 70.151 202.352 69.592C202.586 69.033 202.929 68.5932 203.379 68.2725C203.834 67.9475 204.393 67.785 205.056 67.785C205.715 67.785 206.283 67.9475 206.759 68.2725C207.24 68.5932 207.611 69.033 207.871 69.592C208.131 70.1467 208.261 70.7772 208.261 71.4835C208.261 72.1855 208.131 72.8182 207.871 73.3815C207.615 73.9405 207.249 74.3825 206.772 74.7075C206.3 75.0325 205.737 75.195 205.082 75.195ZM201.78 75V65.64H203.145V69.9495H202.989V75H201.78ZM204.894 73.9665C205.327 73.9665 205.685 73.856 205.966 73.635C206.252 73.414 206.465 73.1172 206.603 72.7445C206.746 72.3675 206.818 71.9472 206.818 71.4835C206.818 71.0242 206.746 70.6082 206.603 70.2355C206.465 69.8628 206.25 69.566 205.96 69.345C205.67 69.124 205.299 69.0135 204.848 69.0135C204.424 69.0135 204.073 69.1175 203.795 69.3255C203.522 69.5335 203.319 69.8238 203.184 70.1965C203.054 70.5692 202.989 70.9982 202.989 71.4835C202.989 71.9688 203.054 72.3978 203.184 72.7705C203.314 73.1432 203.52 73.4357 203.802 73.648C204.084 73.8603 204.448 73.9665 204.894 73.9665ZM212.745 75.195C212.043 75.195 211.434 75.0368 210.918 74.7205C210.402 74.4042 210.004 73.9687 209.722 73.414C209.445 72.855 209.306 72.2115 209.306 71.4835C209.306 70.7512 209.449 70.1077 209.735 69.553C210.021 68.994 210.422 68.5607 210.938 68.253C211.453 67.941 212.056 67.785 212.745 67.785C213.447 67.785 214.055 67.9432 214.571 68.2595C215.087 68.5758 215.485 69.0113 215.767 69.566C216.049 70.1207 216.19 70.7598 216.19 71.4835C216.19 72.2158 216.047 72.8615 215.761 73.4205C215.479 73.9752 215.08 74.4107 214.565 74.727C214.049 75.039 213.442 75.195 212.745 75.195ZM212.745 73.9145C213.416 73.9145 213.917 73.6892 214.246 73.2385C214.58 72.7835 214.747 72.1985 214.747 71.4835C214.747 70.7512 214.578 70.1662 214.24 69.7285C213.906 69.2865 213.408 69.0655 212.745 69.0655C212.29 69.0655 211.915 69.1695 211.62 69.3775C211.325 69.5812 211.107 69.865 210.964 70.229C210.821 70.5887 210.749 71.0068 210.749 71.4835C210.749 72.2202 210.918 72.8095 211.256 73.2515C211.594 73.6935 212.09 73.9145 212.745 73.9145ZM221.635 75C221.193 75.0867 220.76 75.1235 220.335 75.1105C219.91 75.0975 219.531 75.0152 219.198 74.8635C218.864 74.7118 218.613 74.4735 218.444 74.1485C218.292 73.8582 218.21 73.5635 218.197 73.2645C218.188 72.9612 218.184 72.6188 218.184 72.2375V66.03H219.549V72.1725C219.549 72.4542 219.551 72.699 219.555 72.907C219.564 73.115 219.609 73.2905 219.692 73.4335C219.848 73.7022 220.095 73.856 220.433 73.895C220.775 73.9297 221.176 73.9145 221.635 73.8495V75ZM216.838 69.072V67.98H221.635V69.072H216.838ZM229.624 75.195C228.688 75.195 227.891 74.9913 227.232 74.584C226.573 74.1723 226.069 73.6003 225.718 72.868C225.371 72.1357 225.198 71.2863 225.198 70.32C225.198 69.3537 225.371 68.5043 225.718 67.772C226.069 67.0397 226.573 66.4698 227.232 66.0625C227.891 65.6508 228.688 65.445 229.624 65.445C230.703 65.445 231.596 65.718 232.302 66.264C233.013 66.81 233.507 67.5445 233.784 68.4675L232.406 68.838C232.224 68.1837 231.899 67.6702 231.431 67.2975C230.967 66.9248 230.365 66.7385 229.624 66.7385C228.961 66.7385 228.409 66.888 227.967 67.187C227.525 67.486 227.191 67.9042 226.966 68.4415C226.745 68.9788 226.634 69.605 226.634 70.32C226.63 71.035 226.738 71.6612 226.959 72.1985C227.184 72.7358 227.518 73.154 227.96 73.453C228.406 73.752 228.961 73.9015 229.624 73.9015C230.365 73.9015 230.967 73.7152 231.431 73.3425C231.899 72.9655 232.224 72.452 232.406 71.802L233.784 72.1725C233.507 73.0955 233.013 73.83 232.302 74.376C231.596 74.922 230.703 75.195 229.624 75.195ZM238.262 75.195C237.56 75.195 236.951 75.0368 236.436 74.7205C235.92 74.4042 235.521 73.9687 235.24 73.414C234.962 72.855 234.824 72.2115 234.824 71.4835C234.824 70.7512 234.967 70.1077 235.253 69.553C235.539 68.994 235.94 68.5607 236.455 68.253C236.971 67.941 237.573 67.785 238.262 67.785C238.964 67.785 239.573 67.9432 240.089 68.2595C240.604 68.5758 241.003 69.0113 241.285 69.566C241.566 70.1207 241.707 70.7598 241.707 71.4835C241.707 72.2158 241.564 72.8615 241.278 73.4205C240.997 73.9752 240.598 74.4107 240.082 74.727C239.567 75.039 238.96 75.195 238.262 75.195ZM238.262 73.9145C238.934 73.9145 239.434 73.6892 239.764 73.2385C240.097 72.7835 240.264 72.1985 240.264 71.4835C240.264 70.7512 240.095 70.1662 239.757 69.7285C239.424 69.2865 238.925 69.0655 238.262 69.0655C237.807 69.0655 237.432 69.1695 237.138 69.3775C236.843 69.5812 236.624 69.865 236.481 70.229C236.338 70.5887 236.267 71.0068 236.267 71.4835C236.267 72.2202 236.436 72.8095 236.774 73.2515C237.112 73.6935 237.608 73.9145 238.262 73.9145ZM245.924 75.195C245.27 75.195 244.704 75.0325 244.228 74.7075C243.755 74.3825 243.389 73.9405 243.129 73.3815C242.873 72.8182 242.746 72.1855 242.746 71.4835C242.746 70.7772 242.876 70.1467 243.136 69.592C243.396 69.033 243.764 68.5932 244.241 68.2725C244.722 67.9475 245.291 67.785 245.95 67.785C246.613 67.785 247.17 67.9475 247.621 68.2725C248.076 68.5932 248.418 69.033 248.648 69.592C248.882 70.151 248.999 70.7815 248.999 71.4835C248.999 72.1855 248.882 72.816 248.648 73.375C248.414 73.934 248.069 74.3782 247.614 74.7075C247.159 75.0325 246.596 75.195 245.924 75.195ZM246.113 73.9665C246.559 73.9665 246.923 73.8603 247.205 73.648C247.486 73.4357 247.692 73.1432 247.822 72.7705C247.952 72.3978 248.017 71.9688 248.017 71.4835C248.017 70.9982 247.95 70.5692 247.816 70.1965C247.686 69.8238 247.482 69.5335 247.205 69.3255C246.932 69.1175 246.583 69.0135 246.158 69.0135C245.707 69.0135 245.337 69.124 245.047 69.345C244.756 69.566 244.54 69.8628 244.397 70.2355C244.258 70.6082 244.189 71.0242 244.189 71.4835C244.189 71.9472 244.258 72.3675 244.397 72.7445C244.54 73.1172 244.752 73.414 245.034 73.635C245.32 73.856 245.679 73.9665 246.113 73.9665ZM248.017 75V69.9495H247.861V65.64H249.226V75H248.017ZM254.158 75.195C253.461 75.195 252.847 75.0433 252.319 74.74C251.794 74.4323 251.385 74.0055 251.09 73.4595C250.8 72.9092 250.655 72.2722 250.655 71.5485C250.655 70.7815 250.798 70.1163 251.084 69.553C251.374 68.9897 251.777 68.5542 252.293 68.2465C252.808 67.9388 253.409 67.785 254.093 67.785C254.808 67.785 255.417 67.9518 255.92 68.2855C256.422 68.6148 256.797 69.085 257.044 69.696C257.296 70.307 257.395 71.0328 257.343 71.8735H255.985V71.3795C255.976 70.5648 255.82 69.9625 255.517 69.5725C255.218 69.1825 254.761 68.9875 254.145 68.9875C253.465 68.9875 252.954 69.202 252.611 69.631C252.269 70.06 252.098 70.6797 252.098 71.49C252.098 72.2613 252.269 72.8593 252.611 73.284C252.954 73.7043 253.448 73.9145 254.093 73.9145C254.518 73.9145 254.884 73.8192 255.192 73.6285C255.504 73.4335 255.746 73.1562 255.92 72.7965L257.252 73.219C256.979 73.8473 256.565 74.3348 256.011 74.6815C255.456 75.0238 254.839 75.195 254.158 75.195ZM251.656 71.8735V70.814H256.667V71.8735H251.656Z" fill="#9DA4BE"/>
<path d="M41.9906 132V122.64H44.9221C45.0087 122.64 45.1691 122.642 45.4031 122.646C45.6414 122.651 45.8689 122.668 46.0856 122.698C46.8179 122.789 47.4332 123.052 47.9316 123.485C48.4342 123.918 48.8134 124.469 49.0691 125.136C49.3247 125.799 49.4526 126.527 49.4526 127.32C49.4526 128.117 49.3247 128.85 49.0691 129.517C48.8134 130.18 48.4342 130.728 47.9316 131.161C47.4332 131.59 46.8179 131.85 46.0856 131.941C45.8689 131.972 45.6414 131.989 45.4031 131.993C45.1691 131.998 45.0087 132 44.9221 132H41.9906ZM43.3816 130.706H44.9221C45.0694 130.706 45.2449 130.702 45.4486 130.693C45.6522 130.685 45.8321 130.667 45.9881 130.641C46.4647 130.55 46.8504 130.345 47.1451 130.024C47.4441 129.699 47.6629 129.3 47.8016 128.828C47.9402 128.356 48.0096 127.853 48.0096 127.32C48.0096 126.77 47.9381 126.26 47.7951 125.792C47.6521 125.32 47.4311 124.926 47.1321 124.609C46.8374 124.289 46.4561 124.085 45.9881 123.998C45.8321 123.968 45.6501 123.951 45.4421 123.946C45.2384 123.938 45.0651 123.933 44.9221 123.933H43.3816V130.706ZM54.0797 132.195C53.382 132.195 52.7688 132.043 52.2402 131.74C51.7158 131.432 51.3063 131.005 51.0117 130.459C50.7213 129.909 50.5762 129.272 50.5762 128.548C50.5762 127.781 50.7192 127.116 51.0052 126.553C51.2955 125.99 51.6985 125.554 52.2142 125.246C52.7298 124.939 53.33 124.785 54.0147 124.785C54.7297 124.785 55.3385 124.952 55.8412 125.286C56.3438 125.615 56.7187 126.085 56.9657 126.696C57.217 127.307 57.3167 128.033 57.2647 128.873H55.9062V128.379C55.8975 127.565 55.7415 126.962 55.4382 126.572C55.1392 126.182 54.682 125.987 54.0667 125.987C53.3863 125.987 52.875 126.202 52.5327 126.631C52.1903 127.06 52.0192 127.68 52.0192 128.49C52.0192 129.261 52.1903 129.859 52.5327 130.284C52.875 130.704 53.369 130.914 54.0147 130.914C54.4393 130.914 54.8055 130.819 55.1132 130.628C55.4252 130.433 55.6678 130.156 55.8412 129.796L57.1737 130.219C56.9007 130.847 56.4868 131.335 55.9322 131.681C55.3775 132.024 54.76 132.195 54.0797 132.195ZM51.5772 128.873V127.814H56.5887V128.873H51.5772ZM60.3671 132L57.8191 124.98H59.1906L61.0561 130.297L62.9216 124.98H64.2931L61.7451 132H60.3671ZM65.5942 123.829V122.51H66.9527V123.829H65.5942ZM65.5942 132V124.98H66.9527V132H65.5942ZM71.9076 132.195C71.1883 132.195 70.5773 132.035 70.0746 131.714C69.572 131.393 69.1863 130.953 68.9176 130.394C68.6533 129.835 68.519 129.201 68.5146 128.49C68.519 127.766 68.6576 127.127 68.9306 126.572C69.2036 126.013 69.5936 125.576 70.1006 125.259C70.6076 124.943 71.2165 124.785 71.9271 124.785C72.6941 124.785 73.3485 124.976 73.8901 125.357C74.4361 125.738 74.7958 126.26 74.9691 126.923L73.6171 127.313C73.4828 126.919 73.2618 126.614 72.9541 126.397C72.6508 126.176 72.302 126.065 71.9076 126.065C71.4613 126.065 71.0951 126.172 70.8091 126.384C70.5231 126.592 70.3108 126.878 70.1721 127.242C70.0335 127.606 69.962 128.022 69.9576 128.49C69.962 129.214 70.1266 129.799 70.4516 130.245C70.781 130.691 71.2663 130.914 71.9076 130.914C72.3453 130.914 72.6985 130.815 72.9671 130.615C73.2401 130.412 73.4481 130.121 73.5911 129.744L74.9691 130.069C74.7395 130.754 74.3603 131.281 73.8316 131.649C73.303 132.013 72.6616 132.195 71.9076 132.195ZM79.2164 132.195C78.5187 132.195 77.9055 132.043 77.3769 131.74C76.8525 131.432 76.443 131.005 76.1484 130.459C75.858 129.909 75.7129 129.272 75.7129 128.548C75.7129 127.781 75.8559 127.116 76.1419 126.553C76.4322 125.99 76.8352 125.554 77.3509 125.246C77.8665 124.939 78.4667 124.785 79.1514 124.785C79.8664 124.785 80.4752 124.952 80.9779 125.286C81.4805 125.615 81.8554 126.085 82.1024 126.696C82.3537 127.307 82.4534 128.033 82.4014 128.873H81.0429V128.379C81.0342 127.565 80.8782 126.962 80.5749 126.572C80.2759 126.182 79.8187 125.987 79.2034 125.987C78.523 125.987 78.0117 126.202 77.6694 126.631C77.327 127.06 77.1559 127.68 77.1559 128.49C77.1559 129.261 77.327 129.859 77.6694 130.284C78.0117 130.704 78.5057 130.914 79.1514 130.914C79.576 130.914 79.9422 130.819 80.2499 130.628C80.5619 130.433 80.8045 130.156 80.9779 129.796L82.3104 130.219C82.0374 130.847 81.6235 131.335 81.0689 131.681C80.5142 132.024 79.8967 132.195 79.2164 132.195ZM76.7139 128.873V127.814H81.7254V128.873H76.7139ZM86.5442 132.189C85.6905 132.189 84.995 132 84.4577 131.623C83.9204 131.246 83.591 130.715 83.4697 130.03L84.8607 129.816C84.9474 130.18 85.1467 130.468 85.4587 130.68C85.775 130.888 86.1672 130.992 86.6352 130.992C87.0599 130.992 87.3914 130.906 87.6297 130.732C87.8724 130.559 87.9937 130.321 87.9937 130.017C87.9937 129.84 87.9504 129.697 87.8637 129.588C87.7814 129.476 87.6059 129.37 87.3372 129.27C87.0685 129.17 86.659 129.047 86.1087 128.899C85.5064 128.743 85.0275 128.577 84.6722 128.399C84.3212 128.217 84.0699 128.007 83.9182 127.768C83.7709 127.526 83.6972 127.233 83.6972 126.891C83.6972 126.466 83.8099 126.096 84.0352 125.779C84.2605 125.463 84.5769 125.218 84.9842 125.045C85.3959 124.872 85.8769 124.785 86.4272 124.785C86.9645 124.785 87.4434 124.869 87.8637 125.038C88.284 125.207 88.6242 125.448 88.8842 125.76C89.1442 126.068 89.3002 126.429 89.3522 126.845L87.9612 127.099C87.9135 126.761 87.7554 126.494 87.4867 126.299C87.218 126.104 86.8692 125.998 86.4402 125.981C86.0285 125.964 85.6949 126.033 85.4392 126.189C85.1835 126.341 85.0557 126.551 85.0557 126.819C85.0557 126.975 85.1034 127.108 85.1987 127.216C85.2984 127.324 85.489 127.428 85.7707 127.528C86.0524 127.628 86.4684 127.747 87.0187 127.885C87.608 128.037 88.076 128.206 88.4227 128.392C88.7694 128.574 89.0164 128.793 89.1637 129.049C89.3154 129.3 89.3912 129.606 89.3912 129.965C89.3912 130.659 89.1377 131.203 88.6307 131.597C88.128 131.991 87.4325 132.189 86.5442 132.189Z" fill="#9DA4BE"/>
<path d="M363.649 132V122.64H365.007V130.719H369.245V132H363.649ZM374.255 132.195C373.319 132.195 372.522 131.991 371.863 131.584C371.205 131.172 370.7 130.6 370.349 129.868C370.002 129.136 369.829 128.286 369.829 127.32C369.829 126.354 370.002 125.504 370.349 124.772C370.7 124.04 371.205 123.47 371.863 123.062C372.522 122.651 373.319 122.445 374.255 122.445C375.334 122.445 376.227 122.718 376.933 123.264C377.644 123.81 378.138 124.544 378.415 125.468L377.037 125.838C376.855 125.184 376.53 124.67 376.062 124.297C375.599 123.925 374.996 123.738 374.255 123.738C373.592 123.738 373.04 123.888 372.598 124.187C372.156 124.486 371.822 124.904 371.597 125.441C371.376 125.979 371.265 126.605 371.265 127.32C371.261 128.035 371.369 128.661 371.59 129.198C371.816 129.736 372.149 130.154 372.591 130.453C373.038 130.752 373.592 130.901 374.255 130.901C374.996 130.901 375.599 130.715 376.062 130.342C376.53 129.965 376.855 129.452 377.037 128.802L378.415 129.172C378.138 130.095 377.644 130.83 376.933 131.376C376.227 131.922 375.334 132.195 374.255 132.195ZM379.845 132V122.64H382.777C382.863 122.64 383.024 122.642 383.258 122.646C383.496 122.651 383.723 122.668 383.94 122.698C384.672 122.789 385.288 123.052 385.786 123.485C386.289 123.918 386.668 124.469 386.924 125.136C387.179 125.799 387.307 126.527 387.307 127.32C387.307 128.117 387.179 128.85 386.924 129.517C386.668 130.18 386.289 130.728 385.786 131.161C385.288 131.59 384.672 131.85 383.94 131.941C383.723 131.972 383.496 131.989 383.258 131.993C383.024 131.998 382.863 132 382.777 132H379.845ZM381.236 130.706H382.777C382.924 130.706 383.099 130.702 383.303 130.693C383.507 130.685 383.687 130.667 383.843 130.641C384.319 130.55 384.705 130.345 385 130.024C385.299 129.699 385.517 129.3 385.656 128.828C385.795 128.356 385.864 127.853 385.864 127.32C385.864 126.77 385.793 126.26 385.65 125.792C385.507 125.32 385.286 124.926 384.987 124.609C384.692 124.289 384.311 124.085 383.843 123.998C383.687 123.968 383.505 123.951 383.297 123.946C383.093 123.938 382.92 123.933 382.777 123.933H381.236V130.706ZM391.423 132V122.64H394.355C394.441 122.64 394.602 122.642 394.836 122.646C395.074 122.651 395.302 122.668 395.518 122.698C396.251 122.789 396.866 123.052 397.364 123.485C397.867 123.918 398.246 124.469 398.502 125.136C398.757 125.799 398.885 126.527 398.885 127.32C398.885 128.117 398.757 128.85 398.502 129.517C398.246 130.18 397.867 130.728 397.364 131.161C396.866 131.59 396.251 131.85 395.518 131.941C395.302 131.972 395.074 131.989 394.836 131.993C394.602 131.998 394.441 132 394.355 132H391.423ZM392.814 130.706H394.355C394.502 130.706 394.678 130.702 394.881 130.693C395.085 130.685 395.265 130.667 395.421 130.641C395.897 130.55 396.283 130.345 396.578 130.024C396.877 129.699 397.096 129.3 397.234 128.828C397.373 128.356 397.442 127.853 397.442 127.32C397.442 126.77 397.371 126.26 397.228 125.792C397.085 125.32 396.864 124.926 396.565 124.609C396.27 124.289 395.889 124.085 395.421 123.998C395.265 123.968 395.083 123.951 394.875 123.946C394.671 123.938 394.498 123.933 394.355 123.933H392.814V130.706ZM400.529 123.829V122.51H401.887V123.829H400.529ZM400.529 132V124.98H401.887V132H400.529ZM406.524 132.189C405.67 132.189 404.975 132 404.437 131.623C403.9 131.246 403.571 130.715 403.449 130.03L404.84 129.816C404.927 130.18 405.126 130.468 405.438 130.68C405.755 130.888 406.147 130.992 406.615 130.992C407.039 130.992 407.371 130.906 407.609 130.732C407.852 130.559 407.973 130.321 407.973 130.017C407.973 129.84 407.93 129.697 407.843 129.588C407.761 129.476 407.585 129.37 407.317 129.27C407.048 129.17 406.639 129.047 406.088 128.899C405.486 128.743 405.007 128.577 404.652 128.399C404.301 128.217 404.049 128.007 403.898 127.768C403.75 127.526 403.677 127.233 403.677 126.891C403.677 126.466 403.789 126.096 404.015 125.779C404.24 125.463 404.556 125.218 404.964 125.045C405.375 124.872 405.856 124.785 406.407 124.785C406.944 124.785 407.423 124.869 407.843 125.038C408.264 125.207 408.604 125.448 408.864 125.76C409.124 126.068 409.28 126.429 409.332 126.845L407.941 127.099C407.893 126.761 407.735 126.494 407.466 126.299C407.198 126.104 406.849 125.998 406.42 125.981C406.008 125.964 405.674 126.033 405.419 126.189C405.163 126.341 405.035 126.551 405.035 126.819C405.035 126.975 405.083 127.108 405.178 127.216C405.278 127.324 405.469 127.428 405.75 127.528C406.032 127.628 406.448 127.747 406.998 127.885C407.588 128.037 408.056 128.206 408.402 128.392C408.749 128.574 408.996 128.793 409.143 129.049C409.295 129.3 409.371 129.606 409.371 129.965C409.371 130.659 409.117 131.203 408.61 131.597C408.108 131.991 407.412 132.189 406.524 132.189ZM414.104 132.195C413.433 132.195 412.869 132.033 412.414 131.707C411.959 131.378 411.615 130.934 411.381 130.375C411.147 129.816 411.03 129.185 411.03 128.483C411.03 127.781 411.145 127.151 411.374 126.592C411.608 126.033 411.951 125.593 412.401 125.272C412.856 124.947 413.415 124.785 414.078 124.785C414.737 124.785 415.305 124.947 415.781 125.272C416.262 125.593 416.633 126.033 416.893 126.592C417.153 127.147 417.283 127.777 417.283 128.483C417.283 129.185 417.153 129.818 416.893 130.381C416.637 130.94 416.271 131.382 415.794 131.707C415.322 132.033 414.759 132.195 414.104 132.195ZM410.802 135.12V124.98H412.011V130.03H412.167V135.12H410.802ZM413.916 130.966C414.349 130.966 414.707 130.856 414.988 130.635C415.274 130.414 415.487 130.117 415.625 129.744C415.768 129.367 415.84 128.947 415.84 128.483C415.84 128.024 415.768 127.608 415.625 127.235C415.487 126.863 415.272 126.566 414.982 126.345C414.692 126.124 414.321 126.013 413.87 126.013C413.446 126.013 413.095 126.117 412.817 126.325C412.544 126.533 412.341 126.824 412.206 127.196C412.076 127.569 412.011 127.998 412.011 128.483C412.011 128.969 412.076 129.398 412.206 129.77C412.336 130.143 412.542 130.436 412.824 130.648C413.106 130.86 413.47 130.966 413.916 130.966ZM418.848 132V122.445H420.207V132H418.848ZM424.141 132.195C423.621 132.195 423.186 132.1 422.835 131.909C422.484 131.714 422.217 131.458 422.035 131.142C421.857 130.821 421.769 130.47 421.769 130.089C421.769 129.734 421.831 129.422 421.957 129.153C422.083 128.884 422.269 128.657 422.516 128.47C422.763 128.28 423.066 128.126 423.426 128.009C423.738 127.918 424.091 127.838 424.486 127.768C424.88 127.699 425.294 127.634 425.727 127.573C426.165 127.513 426.598 127.452 427.027 127.391L426.533 127.664C426.542 127.114 426.425 126.707 426.182 126.442C425.944 126.174 425.532 126.039 424.947 126.039C424.579 126.039 424.241 126.126 423.933 126.299C423.625 126.468 423.411 126.75 423.29 127.144L422.022 126.754C422.195 126.152 422.525 125.673 423.01 125.318C423.5 124.963 424.15 124.785 424.96 124.785C425.588 124.785 426.134 124.893 426.598 125.11C427.066 125.322 427.408 125.66 427.625 126.124C427.738 126.354 427.807 126.596 427.833 126.852C427.859 127.108 427.872 127.383 427.872 127.677V132H426.67V130.394L426.904 130.602C426.613 131.14 426.243 131.541 425.792 131.805C425.346 132.065 424.795 132.195 424.141 132.195ZM424.382 131.083C424.767 131.083 425.099 131.016 425.376 130.882C425.653 130.743 425.877 130.568 426.046 130.355C426.215 130.143 426.325 129.922 426.377 129.692C426.451 129.484 426.492 129.25 426.501 128.99C426.514 128.73 426.52 128.522 426.52 128.366L426.962 128.529C426.533 128.594 426.143 128.652 425.792 128.704C425.441 128.756 425.123 128.808 424.837 128.86C424.555 128.908 424.304 128.967 424.083 129.036C423.896 129.101 423.729 129.179 423.582 129.27C423.439 129.361 423.324 129.471 423.238 129.601C423.155 129.731 423.114 129.89 423.114 130.076C423.114 130.258 423.16 130.427 423.251 130.583C423.342 130.735 423.48 130.856 423.667 130.947C423.853 131.038 424.091 131.083 424.382 131.083ZM430.115 135.12L431.474 131.421L431.493 132.514L428.432 124.98H429.849L432.137 130.797H431.721L433.905 124.98H435.283L431.409 135.12H430.115Z" fill="#9DA4BE"/>
<path d="M403.33 164.195C402.658 164.195 402.095 164.033 401.64 163.707C401.185 163.378 400.84 162.934 400.606 162.375C400.372 161.816 400.255 161.185 400.255 160.483C400.255 159.781 400.37 159.151 400.6 158.592C400.834 158.033 401.176 157.593 401.627 157.272C402.082 156.947 402.641 156.785 403.304 156.785C403.962 156.785 404.53 156.947 405.007 157.272C405.488 157.593 405.858 158.033 406.118 158.592C406.378 159.147 406.508 159.777 406.508 160.483C406.508 161.185 406.378 161.818 406.118 162.381C405.862 162.94 405.496 163.382 405.02 163.707C404.547 164.033 403.984 164.195 403.33 164.195ZM400.028 167.12V156.98H401.237V162.03H401.393V167.12H400.028ZM403.141 162.966C403.574 162.966 403.932 162.856 404.214 162.635C404.5 162.414 404.712 162.117 404.851 161.744C404.994 161.367 405.065 160.947 405.065 160.483C405.065 160.024 404.994 159.608 404.851 159.235C404.712 158.863 404.497 158.566 404.207 158.345C403.917 158.124 403.546 158.013 403.096 158.013C402.671 158.013 402.32 158.117 402.043 158.325C401.77 158.533 401.566 158.824 401.432 159.196C401.302 159.569 401.237 159.998 401.237 160.483C401.237 160.969 401.302 161.398 401.432 161.77C401.562 162.143 401.767 162.436 402.049 162.648C402.331 162.86 402.695 162.966 403.141 162.966ZM407.943 164V156.98H409.152V158.683L408.983 158.462C409.07 158.237 409.183 158.031 409.321 157.844C409.46 157.654 409.62 157.498 409.802 157.376C409.98 157.246 410.177 157.147 410.394 157.077C410.615 157.004 410.84 156.96 411.07 156.947C411.299 156.93 411.52 156.941 411.733 156.98V158.254C411.503 158.193 411.247 158.176 410.966 158.202C410.688 158.228 410.433 158.317 410.199 158.468C409.978 158.611 409.802 158.785 409.672 158.988C409.547 159.192 409.456 159.42 409.399 159.671C409.343 159.918 409.315 160.18 409.315 160.457V164H407.943ZM415.892 164.195C415.19 164.195 414.581 164.037 414.066 163.72C413.55 163.404 413.151 162.969 412.87 162.414C412.592 161.855 412.454 161.211 412.454 160.483C412.454 159.751 412.597 159.108 412.883 158.553C413.169 157.994 413.569 157.561 414.085 157.253C414.601 156.941 415.203 156.785 415.892 156.785C416.594 156.785 417.203 156.943 417.719 157.259C418.234 157.576 418.633 158.011 418.915 158.566C419.196 159.121 419.337 159.76 419.337 160.483C419.337 161.216 419.194 161.861 418.908 162.42C418.626 162.975 418.228 163.411 417.712 163.727C417.196 164.039 416.59 164.195 415.892 164.195ZM415.892 162.914C416.564 162.914 417.064 162.689 417.394 162.238C417.727 161.783 417.894 161.198 417.894 160.483C417.894 159.751 417.725 159.166 417.387 158.728C417.053 158.286 416.555 158.065 415.892 158.065C415.437 158.065 415.062 158.169 414.768 158.377C414.473 158.581 414.254 158.865 414.111 159.229C413.968 159.589 413.897 160.007 413.897 160.483C413.897 161.22 414.066 161.809 414.404 162.251C414.742 162.693 415.238 162.914 415.892 162.914ZM423.323 164.189C422.469 164.189 421.774 164 421.237 163.623C420.699 163.246 420.37 162.715 420.249 162.03L421.64 161.816C421.726 162.18 421.926 162.468 422.238 162.68C422.554 162.888 422.946 162.992 423.414 162.992C423.839 162.992 424.17 162.906 424.409 162.732C424.651 162.559 424.773 162.321 424.773 162.017C424.773 161.84 424.729 161.697 424.643 161.588C424.56 161.476 424.385 161.37 424.116 161.27C423.847 161.17 423.438 161.047 422.888 160.899C422.285 160.743 421.806 160.577 421.451 160.399C421.1 160.217 420.849 160.007 420.697 159.768C420.55 159.526 420.476 159.233 420.476 158.891C420.476 158.466 420.589 158.096 420.814 157.779C421.039 157.463 421.356 157.218 421.763 157.045C422.175 156.872 422.656 156.785 423.206 156.785C423.743 156.785 424.222 156.869 424.643 157.038C425.063 157.207 425.403 157.448 425.663 157.76C425.923 158.068 426.079 158.429 426.131 158.845L424.74 159.099C424.692 158.761 424.534 158.494 424.266 158.299C423.997 158.104 423.648 157.998 423.219 157.981C422.807 157.964 422.474 158.033 422.218 158.189C421.962 158.341 421.835 158.551 421.835 158.819C421.835 158.975 421.882 159.108 421.978 159.216C422.077 159.324 422.268 159.428 422.55 159.528C422.831 159.628 423.247 159.747 423.798 159.885C424.387 160.037 424.855 160.206 425.202 160.392C425.548 160.574 425.795 160.793 425.943 161.049C426.094 161.3 426.17 161.606 426.17 161.965C426.17 162.659 425.917 163.203 425.41 163.597C424.907 163.991 424.211 164.189 423.323 164.189ZM427.478 160.444V159.352H431.378V160.444H427.478ZM437.084 164C436.642 164.087 436.209 164.124 435.784 164.111C435.36 164.098 434.98 164.015 434.647 163.863C434.313 163.712 434.062 163.473 433.893 163.148C433.741 162.858 433.659 162.563 433.646 162.264C433.637 161.961 433.633 161.619 433.633 161.237V155.03H434.998V161.172C434.998 161.454 435 161.699 435.004 161.907C435.013 162.115 435.058 162.29 435.141 162.433C435.297 162.702 435.544 162.856 435.882 162.895C436.224 162.93 436.625 162.914 437.084 162.849V164ZM432.287 158.072V156.98H437.084V158.072H432.287ZM441.36 164.195C440.663 164.195 440.05 164.043 439.521 163.74C438.997 163.432 438.587 163.005 438.292 162.459C438.002 161.909 437.857 161.272 437.857 160.548C437.857 159.781 438 159.116 438.286 158.553C438.576 157.99 438.979 157.554 439.495 157.246C440.011 156.939 440.611 156.785 441.295 156.785C442.01 156.785 442.619 156.952 443.122 157.286C443.625 157.615 443.999 158.085 444.246 158.696C444.498 159.307 444.597 160.033 444.545 160.873H443.187V160.379C443.178 159.565 443.022 158.962 442.719 158.572C442.42 158.182 441.963 157.987 441.347 157.987C440.667 157.987 440.156 158.202 439.813 158.631C439.471 159.06 439.3 159.68 439.3 160.49C439.3 161.261 439.471 161.859 439.813 162.284C440.156 162.704 440.65 162.914 441.295 162.914C441.72 162.914 442.086 162.819 442.394 162.628C442.706 162.433 442.949 162.156 443.122 161.796L444.454 162.219C444.181 162.847 443.768 163.335 443.213 163.681C442.658 164.024 442.041 164.195 441.36 164.195ZM438.858 160.873V159.814H443.869V160.873H438.858ZM454.224 164L454.231 159.625C454.231 159.118 454.101 158.724 453.841 158.442C453.581 158.156 453.238 158.013 452.814 158.013C452.554 158.013 452.315 158.074 452.099 158.195C451.886 158.312 451.713 158.49 451.579 158.728C451.449 158.962 451.384 159.257 451.384 159.612L450.727 159.281C450.719 158.787 450.823 158.354 451.039 157.981C451.26 157.608 451.559 157.32 451.936 157.116C452.313 156.908 452.736 156.805 453.204 156.805C453.962 156.805 454.549 157.032 454.965 157.487C455.381 157.942 455.589 158.546 455.589 159.3L455.583 164H454.224ZM445.807 164V156.98H447.016V159.008H447.172V164H445.807ZM450.019 164L450.025 159.651C450.025 159.14 449.895 158.739 449.635 158.449C449.38 158.159 449.035 158.013 448.602 158.013C448.173 158.013 447.826 158.161 447.562 158.455C447.302 158.75 447.172 159.136 447.172 159.612L446.522 159.196C446.522 158.737 446.632 158.328 446.853 157.968C447.074 157.608 447.373 157.324 447.75 157.116C448.127 156.908 448.554 156.805 449.031 156.805C449.529 156.805 449.954 156.911 450.305 157.123C450.656 157.331 450.922 157.623 451.104 158C451.291 158.377 451.384 158.815 451.384 159.313L451.377 164H450.019ZM460.573 164.195C459.901 164.195 459.338 164.033 458.883 163.707C458.428 163.378 458.083 162.934 457.849 162.375C457.615 161.816 457.498 161.185 457.498 160.483C457.498 159.781 457.613 159.151 457.843 158.592C458.077 158.033 458.419 157.593 458.87 157.272C459.325 156.947 459.884 156.785 460.547 156.785C461.205 156.785 461.773 156.947 462.25 157.272C462.731 157.593 463.101 158.033 463.361 158.592C463.621 159.147 463.751 159.777 463.751 160.483C463.751 161.185 463.621 161.818 463.361 162.381C463.106 162.94 462.739 163.382 462.263 163.707C461.79 164.033 461.227 164.195 460.573 164.195ZM457.271 167.12V156.98H458.48V162.03H458.636V167.12H457.271ZM460.384 162.966C460.818 162.966 461.175 162.856 461.457 162.635C461.743 162.414 461.955 162.117 462.094 161.744C462.237 161.367 462.308 160.947 462.308 160.483C462.308 160.024 462.237 159.608 462.094 159.235C461.955 158.863 461.741 158.566 461.45 158.345C461.16 158.124 460.789 158.013 460.339 158.013C459.914 158.013 459.563 158.117 459.286 158.325C459.013 158.533 458.809 158.824 458.675 159.196C458.545 159.569 458.48 159.998 458.48 160.483C458.48 160.969 458.545 161.398 458.675 161.77C458.805 162.143 459.011 162.436 459.292 162.648C459.574 162.86 459.938 162.966 460.384 162.966ZM465.316 164V154.445H466.675V164H465.316ZM468.861 164V162.563H470.297V164H468.861ZM472.581 164V162.563H474.017V164H472.581ZM476.3 164V162.563H477.737V164H476.3Z" fill="#9DA4BE"/>
<path d="M520.529 164.195C519.892 164.195 519.329 164.056 518.839 163.779C518.349 163.497 517.964 163.112 517.682 162.622C517.405 162.132 517.266 161.569 517.266 160.932V157.708C517.266 157.071 517.405 156.508 517.682 156.018C517.964 155.528 518.349 155.145 518.839 154.867C519.329 154.586 519.892 154.445 520.529 154.445C521.166 154.445 521.729 154.586 522.219 154.867C522.709 155.145 523.092 155.528 523.369 156.018C523.651 156.508 523.792 157.071 523.792 157.708V160.932C523.792 161.569 523.651 162.132 523.369 162.622C523.092 163.112 522.709 163.497 522.219 163.779C521.729 164.056 521.166 164.195 520.529 164.195ZM520.529 162.895C520.876 162.895 521.19 162.813 521.471 162.648C521.757 162.479 521.985 162.254 522.154 161.972C522.323 161.686 522.407 161.367 522.407 161.016V157.61C522.407 157.264 522.323 156.95 522.154 156.668C521.985 156.382 521.757 156.157 521.471 155.992C521.19 155.823 520.876 155.738 520.529 155.738C520.182 155.738 519.866 155.823 519.58 155.992C519.298 156.157 519.073 156.382 518.904 156.668C518.735 156.95 518.65 157.264 518.65 157.61V161.016C518.65 161.367 518.735 161.686 518.904 161.972C519.073 162.254 519.298 162.479 519.58 162.648C519.866 162.813 520.182 162.895 520.529 162.895ZM526.127 163.09V161.653H527.563V163.09H526.127ZM526.133 159.326V157.89H527.57V159.326H526.133ZM533.135 164.195C532.498 164.195 531.935 164.056 531.445 163.779C530.956 163.497 530.57 163.112 530.288 162.622C530.011 162.132 529.872 161.569 529.872 160.932V157.708C529.872 157.071 530.011 156.508 530.288 156.018C530.57 155.528 530.956 155.145 531.445 154.867C531.935 154.586 532.498 154.445 533.135 154.445C533.772 154.445 534.336 154.586 534.825 154.867C535.315 155.145 535.699 155.528 535.976 156.018C536.258 156.508 536.398 157.071 536.398 157.708V160.932C536.398 161.569 536.258 162.132 535.976 162.622C535.699 163.112 535.315 163.497 534.825 163.779C534.336 164.056 533.772 164.195 533.135 164.195ZM533.135 162.895C533.482 162.895 533.796 162.813 534.078 162.648C534.364 162.479 534.591 162.254 534.76 161.972C534.929 161.686 535.014 161.367 535.014 161.016V157.61C535.014 157.264 534.929 156.95 534.76 156.668C534.591 156.382 534.364 156.157 534.078 155.992C533.796 155.823 533.482 155.738 533.135 155.738C532.789 155.738 532.472 155.823 532.186 155.992C531.905 156.157 531.679 156.382 531.51 156.668C531.341 156.95 531.257 157.264 531.257 157.61V161.016C531.257 161.367 531.341 161.686 531.51 161.972C531.679 162.254 531.905 162.479 532.186 162.648C532.472 162.813 532.789 162.895 533.135 162.895ZM541.476 164.195C540.839 164.195 540.276 164.056 539.786 163.779C539.297 163.497 538.911 163.112 538.629 162.622C538.352 162.132 538.213 161.569 538.213 160.932V157.708C538.213 157.071 538.352 156.508 538.629 156.018C538.911 155.528 539.297 155.145 539.786 154.867C540.276 154.586 540.839 154.445 541.476 154.445C542.113 154.445 542.677 154.586 543.166 154.867C543.656 155.145 544.039 155.528 544.317 156.018C544.598 156.508 544.739 157.071 544.739 157.708V160.932C544.739 161.569 544.598 162.132 544.317 162.622C544.039 163.112 543.656 163.497 543.166 163.779C542.677 164.056 542.113 164.195 541.476 164.195ZM541.476 162.895C541.823 162.895 542.137 162.813 542.419 162.648C542.705 162.479 542.932 162.254 543.101 161.972C543.27 161.686 543.355 161.367 543.355 161.016V157.61C543.355 157.264 543.27 156.95 543.101 156.668C542.932 156.382 542.705 156.157 542.419 155.992C542.137 155.823 541.823 155.738 541.476 155.738C541.13 155.738 540.813 155.823 540.527 155.992C540.246 156.157 540.02 156.382 539.851 156.668C539.682 156.95 539.598 157.264 539.598 157.61V161.016C539.598 161.367 539.682 161.686 539.851 161.972C540.02 162.254 540.246 162.479 540.527 162.648C540.813 162.813 541.13 162.895 541.476 162.895Z" fill="#9DA4BE"/>
<path d="M46.0641 354.195C45.1281 354.195 44.3307 353.991 43.6721 353.584C43.0134 353.172 42.5086 352.6 42.1576 351.868C41.8109 351.136 41.6376 350.286 41.6376 349.32C41.6376 348.354 41.8109 347.504 42.1576 346.772C42.5086 346.04 43.0134 345.47 43.6721 345.062C44.3307 344.651 45.1281 344.445 46.0641 344.445C47.1431 344.445 48.0357 344.718 48.7421 345.264C49.4527 345.81 49.9467 346.544 50.2241 347.468L48.8461 347.838C48.6641 347.184 48.3391 346.67 47.8711 346.297C47.4074 345.925 46.8051 345.738 46.0641 345.738C45.4011 345.738 44.8486 345.888 44.4066 346.187C43.9646 346.486 43.6309 346.904 43.4056 347.441C43.1846 347.979 43.0741 348.605 43.0741 349.32C43.0697 350.035 43.1781 350.661 43.3991 351.198C43.6244 351.736 43.9581 352.154 44.4001 352.453C44.8464 352.752 45.4011 352.901 46.0641 352.901C46.8051 352.901 47.4074 352.715 47.8711 352.342C48.3391 351.965 48.6641 351.452 48.8461 350.802L50.2241 351.172C49.9467 352.095 49.4527 352.83 48.7421 353.376C48.0357 353.922 47.1431 354.195 46.0641 354.195ZM54.7022 354.195C54.0002 354.195 53.3913 354.037 52.8757 353.72C52.36 353.404 51.9613 352.969 51.6797 352.414C51.4023 351.855 51.2637 351.211 51.2637 350.483C51.2637 349.751 51.4067 349.108 51.6927 348.553C51.9787 347.994 52.3795 347.561 52.8952 347.253C53.4108 346.941 54.0132 346.785 54.7022 346.785C55.4042 346.785 56.013 346.943 56.5287 347.259C57.0443 347.576 57.443 348.011 57.7247 348.566C58.0063 349.121 58.1472 349.76 58.1472 350.483C58.1472 351.216 58.0042 351.861 57.7182 352.42C57.4365 352.975 57.0378 353.411 56.5222 353.727C56.0065 354.039 55.3998 354.195 54.7022 354.195ZM54.7022 352.914C55.3738 352.914 55.8743 352.689 56.2037 352.238C56.5373 351.783 56.7042 351.198 56.7042 350.483C56.7042 349.751 56.5352 349.166 56.1972 348.728C55.8635 348.286 55.3652 348.065 54.7022 348.065C54.2472 348.065 53.8723 348.169 53.5777 348.377C53.283 348.581 53.0642 348.865 52.9212 349.229C52.7782 349.589 52.7067 350.007 52.7067 350.483C52.7067 351.22 52.8757 351.809 53.2137 352.251C53.5517 352.693 54.0478 352.914 54.7022 352.914ZM64.5025 354V350.548C64.5025 350.275 64.4787 349.996 64.431 349.71C64.3877 349.42 64.301 349.151 64.171 348.904C64.0454 348.657 63.8655 348.458 63.6315 348.306C63.4019 348.154 63.1007 348.078 62.728 348.078C62.4854 348.078 62.2557 348.12 62.039 348.202C61.8224 348.28 61.6317 348.408 61.467 348.585C61.3067 348.763 61.1789 348.997 61.0835 349.287C60.9925 349.578 60.947 349.931 60.947 350.347L60.102 350.028C60.102 349.391 60.2212 348.83 60.4595 348.345C60.6979 347.855 61.0402 347.474 61.4865 347.201C61.9329 346.928 62.4724 346.791 63.105 346.791C63.5904 346.791 63.9977 346.869 64.327 347.025C64.6564 347.181 64.9229 347.387 65.1265 347.643C65.3345 347.894 65.4927 348.169 65.601 348.468C65.7094 348.767 65.783 349.06 65.822 349.346C65.861 349.632 65.8805 349.883 65.8805 350.1V354H64.5025ZM59.569 354V346.98H60.7845V349.008H60.947V354H59.569ZM70.2581 354.189C69.4044 354.189 68.7089 354 68.1716 353.623C67.6342 353.246 67.3049 352.715 67.1836 352.03L68.5746 351.816C68.6612 352.18 68.8606 352.468 69.1726 352.68C69.4889 352.888 69.8811 352.992 70.3491 352.992C70.7737 352.992 71.1052 352.906 71.3436 352.732C71.5862 352.559 71.7076 352.321 71.7076 352.017C71.7076 351.84 71.6642 351.697 71.5776 351.588C71.4952 351.476 71.3197 351.37 71.0511 351.27C70.7824 351.17 70.3729 351.047 69.8226 350.899C69.2202 350.743 68.7414 350.577 68.3861 350.399C68.0351 350.217 67.7837 350.007 67.6321 349.768C67.4847 349.526 67.4111 349.233 67.4111 348.891C67.4111 348.466 67.5237 348.096 67.7491 347.779C67.9744 347.463 68.2907 347.218 68.6981 347.045C69.1097 346.872 69.5907 346.785 70.1411 346.785C70.6784 346.785 71.1572 346.869 71.5776 347.038C71.9979 347.207 72.3381 347.448 72.5981 347.76C72.8581 348.068 73.0141 348.429 73.0661 348.845L71.6751 349.099C71.6274 348.761 71.4692 348.494 71.2006 348.299C70.9319 348.104 70.5831 347.998 70.1541 347.981C69.7424 347.964 69.4087 348.033 69.1531 348.189C68.8974 348.341 68.7696 348.551 68.7696 348.819C68.7696 348.975 68.8172 349.108 68.9126 349.216C69.0122 349.324 69.2029 349.428 69.4846 349.528C69.7662 349.628 70.1822 349.747 70.7326 349.885C71.3219 350.037 71.7899 350.206 72.1366 350.392C72.4832 350.574 72.7302 350.793 72.8776 351.049C73.0292 351.3 73.1051 351.606 73.1051 351.965C73.1051 352.659 72.8516 353.203 72.3446 353.597C71.8419 353.991 71.1464 354.189 70.2581 354.189ZM77.5918 354.195C76.8898 354.195 76.281 354.037 75.7653 353.72C75.2496 353.404 74.851 352.969 74.5693 352.414C74.292 351.855 74.1533 351.211 74.1533 350.483C74.1533 349.751 74.2963 349.108 74.5823 348.553C74.8683 347.994 75.2691 347.561 75.7848 347.253C76.3005 346.941 76.9028 346.785 77.5918 346.785C78.2938 346.785 78.9026 346.943 79.4183 347.259C79.934 347.576 80.3326 348.011 80.6143 348.566C80.896 349.121 81.0368 349.76 81.0368 350.483C81.0368 351.216 80.8938 351.861 80.6078 352.42C80.3261 352.975 79.9275 353.411 79.4118 353.727C78.8961 354.039 78.2895 354.195 77.5918 354.195ZM77.5918 352.914C78.2635 352.914 78.764 352.689 79.0933 352.238C79.427 351.783 79.5938 351.198 79.5938 350.483C79.5938 349.751 79.4248 349.166 79.0868 348.728C78.7531 348.286 78.2548 348.065 77.5918 348.065C77.1368 348.065 76.762 348.169 76.4673 348.377C76.1726 348.581 75.9538 348.865 75.8108 349.229C75.6678 349.589 75.5963 350.007 75.5963 350.483C75.5963 351.22 75.7653 351.809 76.1033 352.251C76.4413 352.693 76.9375 352.914 77.5918 352.914ZM82.5952 354V344.445H83.9537V354H82.5952ZM89.0191 354.195C88.3214 354.195 87.7083 354.043 87.1796 353.74C86.6553 353.432 86.2458 353.005 85.9511 352.459C85.6608 351.909 85.5156 351.272 85.5156 350.548C85.5156 349.781 85.6586 349.116 85.9446 348.553C86.2349 347.99 86.6379 347.554 87.1536 347.246C87.6693 346.939 88.2694 346.785 88.9541 346.785C89.6691 346.785 90.2779 346.952 90.7806 347.286C91.2833 347.615 91.6581 348.085 91.9051 348.696C92.1564 349.307 92.2561 350.033 92.2041 350.873H90.8456V350.379C90.8369 349.565 90.6809 348.962 90.3776 348.572C90.0786 348.182 89.6214 347.987 89.0061 347.987C88.3258 347.987 87.8144 348.202 87.4721 348.631C87.1298 349.06 86.9586 349.68 86.9586 350.49C86.9586 351.261 87.1298 351.859 87.4721 352.284C87.8144 352.704 88.3084 352.914 88.9541 352.914C89.3788 352.914 89.7449 352.819 90.0526 352.628C90.3646 352.433 90.6073 352.156 90.7806 351.796L92.1131 352.219C91.8401 352.847 91.4263 353.335 90.8716 353.681C90.3169 354.024 89.6994 354.195 89.0191 354.195ZM86.5166 350.873V349.814H91.5281V350.873H86.5166Z" fill="#9DA4BE"/>
<rect x="279.5" y="53.5" width="148" height="33" rx="5.5" stroke="#9DA4BE"/>
<g clip-path="url(#clip2_0_22)">
<path d="M302.5 70C302.5 68.2761 301.815 66.6228 300.596 65.4038C299.377 64.1848 297.724 63.5 296 63.5C294.276 63.5 292.623 64.1848 291.404 65.4038C290.185 66.6228 289.5 68.2761 289.5 70C289.5 71.7239 290.185 73.3772 291.404 74.5962C292.623 75.8152 294.276 76.5 296 76.5C297.724 76.5 299.377 75.8152 300.596 74.5962C301.815 73.3772 302.5 71.7239 302.5 70ZM288 70C288 67.8783 288.843 65.8434 290.343 64.3431C291.843 62.8429 293.878 62 296 62C298.122 62 300.157 62.8429 301.657 64.3431C303.157 65.8434 304 67.8783 304 70C304 72.1217 303.157 74.1566 301.657 75.6569C300.157 77.1571 298.122 78 296 78C293.878 78 291.843 77.1571 290.343 75.6569C288.843 74.1566 288 72.1217 288 70ZM294 67H298C298.553 67 299 67.4469 299 68V72C299 72.5531 298.553 73 298 73H294C293.447 73 293 72.5531 293 72V68C293 67.4469 293.447 67 294 67Z" fill="#9DA4BE"/>
</g>
<path d="M317.617 75.195C316.946 75.195 316.339 75.0802 315.797 74.8505C315.26 74.6165 314.816 74.285 314.465 73.856C314.118 73.4227 313.893 72.9092 313.789 72.3155L315.206 72.101C315.349 72.673 315.648 73.1193 316.103 73.44C316.558 73.7563 317.089 73.9145 317.695 73.9145C318.072 73.9145 318.419 73.856 318.735 73.739C319.052 73.6177 319.305 73.4465 319.496 73.2255C319.691 73.0002 319.788 72.7315 319.788 72.4195C319.788 72.2505 319.758 72.101 319.697 71.971C319.641 71.841 319.561 71.7283 319.457 71.633C319.357 71.5333 319.234 71.4488 319.086 71.3795C318.943 71.3058 318.785 71.243 318.612 71.191L316.213 70.4825C315.979 70.4132 315.741 70.3243 315.498 70.216C315.256 70.1033 315.033 69.9582 314.829 69.7805C314.63 69.5985 314.467 69.3753 314.341 69.111C314.216 68.8423 314.153 68.5173 314.153 68.136C314.153 67.5597 314.3 67.0722 314.595 66.6735C314.894 66.2705 315.297 65.9672 315.804 65.7635C316.311 65.5555 316.879 65.4515 317.507 65.4515C318.14 65.4602 318.705 65.5728 319.203 65.7895C319.706 66.0062 320.122 66.3182 320.451 66.7255C320.785 67.1285 321.015 67.6182 321.14 68.1945L319.684 68.4415C319.619 68.0905 319.481 67.7893 319.268 67.538C319.056 67.2823 318.796 67.0873 318.488 66.953C318.181 66.8143 317.847 66.7428 317.487 66.7385C317.141 66.7298 316.822 66.7818 316.532 66.8945C316.246 67.0072 316.016 67.1653 315.843 67.369C315.674 67.5727 315.589 67.8067 315.589 68.071C315.589 68.331 315.665 68.5412 315.817 68.7015C315.969 68.8618 316.155 68.9897 316.376 69.085C316.601 69.176 316.824 69.2518 317.045 69.3125L318.774 69.8C318.991 69.8607 319.236 69.943 319.509 70.047C319.786 70.1467 320.053 70.2875 320.308 70.4695C320.568 70.6515 320.783 70.8942 320.952 71.1975C321.121 71.4965 321.205 71.8735 321.205 72.3285C321.205 72.8008 321.11 73.2168 320.919 73.5765C320.729 73.9318 320.467 74.2308 320.133 74.4735C319.804 74.7118 319.422 74.8917 318.989 75.013C318.556 75.1343 318.098 75.195 317.617 75.195ZM326.608 75C326.166 75.0867 325.732 75.1235 325.308 75.1105C324.883 75.0975 324.504 75.0152 324.17 74.8635C323.836 74.7118 323.585 74.4735 323.416 74.1485C323.264 73.8582 323.182 73.5635 323.169 73.2645C323.16 72.9612 323.156 72.6188 323.156 72.2375V66.03H324.521V72.1725C324.521 72.4542 324.523 72.699 324.528 72.907C324.536 73.115 324.582 73.2905 324.664 73.4335C324.82 73.7022 325.067 73.856 325.405 73.895C325.747 73.9297 326.148 73.9145 326.608 73.8495V75ZM321.811 69.072V67.98H326.608V69.072H321.811ZM330.819 75.195C330.117 75.195 329.508 75.0368 328.992 74.7205C328.477 74.4042 328.078 73.9687 327.796 73.414C327.519 72.855 327.38 72.2115 327.38 71.4835C327.38 70.7512 327.523 70.1077 327.809 69.553C328.095 68.994 328.496 68.5607 329.012 68.253C329.528 67.941 330.13 67.785 330.819 67.785C331.521 67.785 332.13 67.9432 332.645 68.2595C333.161 68.5758 333.56 69.0113 333.841 69.566C334.123 70.1207 334.264 70.7598 334.264 71.4835C334.264 72.2158 334.121 72.8615 333.835 73.4205C333.553 73.9752 333.155 74.4107 332.639 74.727C332.123 75.039 331.517 75.195 330.819 75.195ZM330.819 73.9145C331.491 73.9145 331.991 73.6892 332.32 73.2385C332.654 72.7835 332.821 72.1985 332.821 71.4835C332.821 70.7512 332.652 70.1662 332.314 69.7285C331.98 69.2865 331.482 69.0655 330.819 69.0655C330.364 69.0655 329.989 69.1695 329.694 69.3775C329.4 69.5812 329.181 69.865 329.038 70.229C328.895 70.5887 328.823 71.0068 328.823 71.4835C328.823 72.2202 328.992 72.8095 329.33 73.2515C329.668 73.6935 330.165 73.9145 330.819 73.9145ZM338.988 75.195C338.316 75.195 337.753 75.0325 337.298 74.7075C336.843 74.3782 336.498 73.934 336.264 73.375C336.03 72.816 335.913 72.1855 335.913 71.4835C335.913 70.7815 336.028 70.151 336.258 69.592C336.492 69.033 336.834 68.5932 337.285 68.2725C337.74 67.9475 338.299 67.785 338.962 67.785C339.62 67.785 340.188 67.9475 340.665 68.2725C341.146 68.5932 341.516 69.033 341.776 69.592C342.036 70.1467 342.166 70.7772 342.166 71.4835C342.166 72.1855 342.036 72.8182 341.776 73.3815C341.521 73.9405 341.154 74.3825 340.678 74.7075C340.205 75.0325 339.642 75.195 338.988 75.195ZM335.686 78.12V67.98H336.895V73.0305H337.051V78.12H335.686ZM338.799 73.9665C339.233 73.9665 339.59 73.856 339.872 73.635C340.158 73.414 340.37 73.1172 340.509 72.7445C340.652 72.3675 340.723 71.9472 340.723 71.4835C340.723 71.0242 340.652 70.6082 340.509 70.2355C340.37 69.8628 340.156 69.566 339.865 69.345C339.575 69.124 339.204 69.0135 338.754 69.0135C338.329 69.0135 337.978 69.1175 337.701 69.3255C337.428 69.5335 337.224 69.8238 337.09 70.1965C336.96 70.5692 336.895 70.9982 336.895 71.4835C336.895 71.9688 336.96 72.3978 337.09 72.7705C337.22 73.1432 337.426 73.4357 337.707 73.648C337.989 73.8603 338.353 73.9665 338.799 73.9665ZM346.204 75V65.64H349.987C350.078 65.64 350.191 65.6443 350.325 65.653C350.459 65.6573 350.587 65.6703 350.708 65.692C351.228 65.7743 351.662 65.952 352.008 66.225C352.359 66.498 352.622 66.8425 352.795 67.2585C352.968 67.6745 353.055 68.1338 353.055 68.6365C353.055 69.3818 352.864 70.0253 352.483 70.567C352.102 71.1043 351.53 71.4402 350.767 71.5745L350.214 71.6395H347.562V75H346.204ZM351.677 75L349.831 71.191L351.202 70.84L353.23 75H351.677ZM347.562 70.3525H349.935C350.022 70.3525 350.117 70.3482 350.221 70.3395C350.329 70.3308 350.431 70.3157 350.526 70.294C350.804 70.229 351.027 70.1098 351.196 69.9365C351.365 69.7588 351.486 69.5552 351.56 69.3255C351.634 69.0958 351.67 68.8662 351.67 68.6365C351.67 68.4068 351.634 68.1793 351.56 67.954C351.486 67.7243 351.365 67.5228 351.196 67.3495C351.027 67.1718 350.804 67.0505 350.526 66.9855C350.431 66.9595 350.329 66.9422 350.221 66.9335C350.117 66.9248 350.022 66.9205 349.935 66.9205H347.562V70.3525ZM357.708 75.195C357.006 75.195 356.397 75.0368 355.881 74.7205C355.365 74.4042 354.967 73.9687 354.685 73.414C354.408 72.855 354.269 72.2115 354.269 71.4835C354.269 70.7512 354.412 70.1077 354.698 69.553C354.984 68.994 355.385 68.5607 355.901 68.253C356.416 67.941 357.019 67.785 357.708 67.785C358.41 67.785 359.018 67.9432 359.534 68.2595C360.05 68.5758 360.448 69.0113 360.73 69.566C361.012 70.1207 361.153 70.7598 361.153 71.4835C361.153 72.2158 361.01 72.8615 360.724 73.4205C360.442 73.9752 360.043 74.4107 359.528 74.727C359.012 75.039 358.405 75.195 357.708 75.195ZM357.708 73.9145C358.379 73.9145 358.88 73.6892 359.209 73.2385C359.543 72.7835 359.71 72.1985 359.71 71.4835C359.71 70.7512 359.541 70.1662 359.203 69.7285C358.869 69.2865 358.371 69.0655 357.708 69.0655C357.253 69.0655 356.878 69.1695 356.583 69.3775C356.288 69.5812 356.07 69.865 355.927 70.229C355.784 70.5887 355.712 71.0068 355.712 71.4835C355.712 72.2202 355.881 72.8095 356.219 73.2515C356.557 73.6935 357.053 73.9145 357.708 73.9145ZM365.876 75.195C365.205 75.195 364.641 75.0325 364.186 74.7075C363.731 74.3782 363.387 73.934 363.153 73.375C362.919 72.816 362.802 72.1855 362.802 71.4835C362.802 70.7815 362.917 70.151 363.146 69.592C363.38 69.033 363.723 68.5932 364.173 68.2725C364.628 67.9475 365.187 67.785 365.85 67.785C366.509 67.785 367.077 67.9475 367.553 68.2725C368.034 68.5932 368.405 69.033 368.665 69.592C368.925 70.1467 369.055 70.7772 369.055 71.4835C369.055 72.1855 368.925 72.8182 368.665 73.3815C368.409 73.9405 368.043 74.3825 367.566 74.7075C367.094 75.0325 366.531 75.195 365.876 75.195ZM362.574 75V65.64H363.939V69.9495H363.783V75H362.574ZM365.688 73.9665C366.121 73.9665 366.479 73.856 366.76 73.635C367.046 73.414 367.259 73.1172 367.397 72.7445C367.54 72.3675 367.612 71.9472 367.612 71.4835C367.612 71.0242 367.54 70.6082 367.397 70.2355C367.259 69.8628 367.044 69.566 366.754 69.345C366.464 69.124 366.093 69.0135 365.642 69.0135C365.218 69.0135 364.867 69.1175 364.589 69.3255C364.316 69.5335 364.113 69.8238 363.978 70.1965C363.848 70.5692 363.783 70.9982 363.783 71.4835C363.783 71.9688 363.848 72.3978 363.978 72.7705C364.108 73.1432 364.314 73.4357 364.596 73.648C364.878 73.8603 365.242 73.9665 365.688 73.9665ZM373.539 75.195C372.837 75.195 372.228 75.0368 371.712 74.7205C371.196 74.4042 370.798 73.9687 370.516 73.414C370.239 72.855 370.1 72.2115 370.1 71.4835C370.1 70.7512 370.243 70.1077 370.529 69.553C370.815 68.994 371.216 68.5607 371.732 68.253C372.247 67.941 372.85 67.785 373.539 67.785C374.241 67.785 374.849 67.9432 375.365 68.2595C375.881 68.5758 376.279 69.0113 376.561 69.566C376.843 70.1207 376.984 70.7598 376.984 71.4835C376.984 72.2158 376.841 72.8615 376.555 73.4205C376.273 73.9752 375.874 74.4107 375.359 74.727C374.843 75.039 374.236 75.195 373.539 75.195ZM373.539 73.9145C374.21 73.9145 374.711 73.6892 375.04 73.2385C375.374 72.7835 375.541 72.1985 375.541 71.4835C375.541 70.7512 375.372 70.1662 375.034 69.7285C374.7 69.2865 374.202 69.0655 373.539 69.0655C373.084 69.0655 372.709 69.1695 372.414 69.3775C372.119 69.5812 371.901 69.865 371.758 70.229C371.615 70.5887 371.543 71.0068 371.543 71.4835C371.543 72.2202 371.712 72.8095 372.05 73.2515C372.388 73.6935 372.884 73.9145 373.539 73.9145ZM382.429 75C381.987 75.0867 381.554 75.1235 381.129 75.1105C380.704 75.0975 380.325 75.0152 379.991 74.8635C379.658 74.7118 379.406 74.4735 379.237 74.1485C379.086 73.8582 379.003 73.5635 378.99 73.2645C378.982 72.9612 378.977 72.6188 378.977 72.2375V66.03H380.342V72.1725C380.342 72.4542 380.345 72.699 380.349 72.907C380.358 73.115 380.403 73.2905 380.485 73.4335C380.641 73.7022 380.888 73.856 381.226 73.895C381.569 73.9297 381.97 73.9145 382.429 73.8495V75ZM377.632 69.072V67.98H382.429V69.072H377.632ZM390.418 75.195C389.482 75.195 388.685 74.9913 388.026 74.584C387.367 74.1723 386.863 73.6003 386.512 72.868C386.165 72.1357 385.992 71.2863 385.992 70.32C385.992 69.3537 386.165 68.5043 386.512 67.772C386.863 67.0397 387.367 66.4698 388.026 66.0625C388.685 65.6508 389.482 65.445 390.418 65.445C391.497 65.445 392.39 65.718 393.096 66.264C393.807 66.81 394.301 67.5445 394.578 68.4675L393.2 68.838C393.018 68.1837 392.693 67.6702 392.225 67.2975C391.761 66.9248 391.159 66.7385 390.418 66.7385C389.755 66.7385 389.203 66.888 388.761 67.187C388.319 67.486 387.985 67.9042 387.76 68.4415C387.539 68.9788 387.428 69.605 387.428 70.32C387.424 71.035 387.532 71.6612 387.753 72.1985C387.978 72.7358 388.312 73.154 388.754 73.453C389.2 73.752 389.755 73.9015 390.418 73.9015C391.159 73.9015 391.761 73.7152 392.225 73.3425C392.693 72.9655 393.018 72.452 393.2 71.802L394.578 72.1725C394.301 73.0955 393.807 73.83 393.096 74.376C392.39 74.922 391.497 75.195 390.418 75.195ZM399.056 75.195C398.354 75.195 397.745 75.0368 397.23 74.7205C396.714 74.4042 396.315 73.9687 396.034 73.414C395.756 72.855 395.618 72.2115 395.618 71.4835C395.618 70.7512 395.761 70.1077 396.047 69.553C396.333 68.994 396.733 68.5607 397.249 68.253C397.765 67.941 398.367 67.785 399.056 67.785C399.758 67.785 400.367 67.9432 400.883 68.2595C401.398 68.5758 401.797 69.0113 402.079 69.566C402.36 70.1207 402.501 70.7598 402.501 71.4835C402.501 72.2158 402.358 72.8615 402.072 73.4205C401.79 73.9752 401.392 74.4107 400.876 74.727C400.36 75.039 399.754 75.195 399.056 75.195ZM399.056 73.9145C399.728 73.9145 400.228 73.6892 400.558 73.2385C400.891 72.7835 401.058 72.1985 401.058 71.4835C401.058 70.7512 400.889 70.1662 400.551 69.7285C400.217 69.2865 399.719 69.0655 399.056 69.0655C398.601 69.0655 398.226 69.1695 397.932 69.3775C397.637 69.5812 397.418 69.865 397.275 70.229C397.132 70.5887 397.061 71.0068 397.061 71.4835C397.061 72.2202 397.23 72.8095 397.568 73.2515C397.906 73.6935 398.402 73.9145 399.056 73.9145ZM406.718 75.195C406.064 75.195 405.498 75.0325 405.022 74.7075C404.549 74.3825 404.183 73.9405 403.923 73.3815C403.667 72.8182 403.54 72.1855 403.54 71.4835C403.54 70.7772 403.67 70.1467 403.93 69.592C404.19 69.033 404.558 68.5932 405.035 68.2725C405.516 67.9475 406.085 67.785 406.744 67.785C407.407 67.785 407.964 67.9475 408.415 68.2725C408.87 68.5932 409.212 69.033 409.442 69.592C409.676 70.151 409.793 70.7815 409.793 71.4835C409.793 72.1855 409.676 72.816 409.442 73.375C409.208 73.934 408.863 74.3782 408.408 74.7075C407.953 75.0325 407.39 75.195 406.718 75.195ZM406.907 73.9665C407.353 73.9665 407.717 73.8603 407.999 73.648C408.28 73.4357 408.486 73.1432 408.616 72.7705C408.746 72.3978 408.811 71.9688 408.811 71.4835C408.811 70.9982 408.744 70.5692 408.61 70.1965C408.48 69.8238 408.276 69.5335 407.999 69.3255C407.726 69.1175 407.377 69.0135 406.952 69.0135C406.501 69.0135 406.131 69.124 405.841 69.345C405.55 69.566 405.334 69.8628 405.191 70.2355C405.052 70.6082 404.983 71.0242 404.983 71.4835C404.983 71.9472 405.052 72.3675 405.191 72.7445C405.334 73.1172 405.546 73.414 405.828 73.635C406.114 73.856 406.473 73.9665 406.907 73.9665ZM408.811 75V69.9495H408.655V65.64H410.02V75H408.811ZM414.952 75.195C414.255 75.195 413.641 75.0433 413.113 74.74C412.588 74.4323 412.179 74.0055 411.884 73.4595C411.594 72.9092 411.449 72.2722 411.449 71.5485C411.449 70.7815 411.592 70.1163 411.878 69.553C412.168 68.9897 412.571 68.5542 413.087 68.2465C413.602 67.9388 414.203 67.785 414.887 67.785C415.602 67.785 416.211 67.9518 416.714 68.2855C417.216 68.6148 417.591 69.085 417.838 69.696C418.09 70.307 418.189 71.0328 418.137 71.8735H416.779V71.3795C416.77 70.5648 416.614 69.9625 416.311 69.5725C416.012 69.1825 415.555 68.9875 414.939 68.9875C414.259 68.9875 413.748 69.202 413.405 69.631C413.063 70.06 412.892 70.6797 412.892 71.49C412.892 72.2613 413.063 72.8593 413.405 73.284C413.748 73.7043 414.242 73.9145 414.887 73.9145C415.312 73.9145 415.678 73.8192 415.986 73.6285C416.298 73.4335 416.54 73.1562 416.714 72.7965L418.046 73.219C417.773 73.8473 417.359 74.3348 416.805 74.6815C416.25 75.0238 415.633 75.195 414.952 75.195ZM412.45 71.8735V70.814H417.461V71.8735H412.45Z" fill="#9DA4BE"/>
<rect x="440.5" y="53.5" width="124" height="33" rx="5.5" stroke="#9DA4BE"/>
<path d="M460.487 69.5978C459.704 69.7311 458.87 69.4978 458.265 68.8922L457.206 67.8338C456.79 67.4171 456.556 66.8559 456.556 66.267V65.9308L454.342 64.7224C454.195 64.6418 454.103 64.4835 454.112 64.314C454.12 64.1445 454.22 63.9945 454.375 63.9251L455.687 63.3417C456.198 63.1167 456.751 63 457.312 63H457.815C458.834 63 459.815 63.3889 460.557 64.0862L461.796 65.253C462.468 65.8864 462.718 66.8003 462.535 67.6421L462.973 68.0838L463.196 67.8615C463.457 67.6004 463.879 67.6004 464.137 67.8615L464.804 68.5283C465.065 68.7894 465.065 69.2117 464.804 69.47L462.359 71.9147C462.098 72.1758 461.676 72.1758 461.418 71.9147L460.751 71.2479C460.49 70.9868 460.49 70.5645 460.751 70.3062L460.973 70.0839L460.487 69.5978ZM449.761 73.4759L456.248 68.0727C456.345 68.2088 456.456 68.3394 456.576 68.4616L457.634 69.52C457.801 69.6867 457.979 69.8311 458.167 69.9562L452.748 76.4623C452.345 76.9457 451.747 77.2235 451.12 77.2235C449.947 77.2235 449 76.2734 449 75.1038C449 74.476 449.281 73.8787 449.761 73.4759Z" fill="#9DA4BE"/>
<path d="M475.012 75V65.64H478.691C479.285 65.64 479.783 65.7613 480.186 66.004C480.589 66.2467 480.892 66.5608 481.096 66.9465C481.3 67.3278 481.402 67.7308 481.402 68.1555C481.402 68.6712 481.274 69.1132 481.018 69.4815C480.767 69.8498 480.427 70.1012 479.998 70.2355L479.985 69.917C480.583 70.0643 481.042 70.3525 481.363 70.7815C481.683 71.2062 481.844 71.7023 481.844 72.27C481.844 72.8203 481.733 73.2992 481.512 73.7065C481.295 74.1138 480.977 74.4323 480.557 74.662C480.141 74.8873 479.636 75 479.042 75H475.012ZM476.39 73.7065H478.834C479.142 73.7065 479.417 73.648 479.66 73.531C479.907 73.414 480.099 73.2472 480.238 73.0305C480.381 72.8095 480.453 72.5473 480.453 72.244C480.453 71.9623 480.39 71.7088 480.264 71.4835C480.143 71.2538 479.965 71.074 479.731 70.944C479.501 70.8097 479.231 70.7425 478.919 70.7425H476.39V73.7065ZM476.39 69.462H478.672C478.923 69.462 479.148 69.4122 479.348 69.3125C479.551 69.2085 479.712 69.0612 479.829 68.8705C479.95 68.6755 480.011 68.4415 480.011 68.1685C480.011 67.8045 479.889 67.5055 479.647 67.2715C479.404 67.0375 479.079 66.9205 478.672 66.9205H476.39V69.462ZM485.783 75.1885C485.297 75.1885 484.89 75.1105 484.561 74.9545C484.231 74.7985 483.963 74.5948 483.755 74.3435C483.551 74.0878 483.395 73.8105 483.287 73.5115C483.178 73.2125 483.105 72.92 483.066 72.634C483.027 72.348 483.007 72.0967 483.007 71.88V67.98H484.385V71.4315C484.385 71.7045 484.407 71.9862 484.45 72.2765C484.498 72.5625 484.584 72.829 484.71 73.076C484.84 73.323 485.02 73.5223 485.25 73.674C485.484 73.8257 485.787 73.9015 486.16 73.9015C486.402 73.9015 486.632 73.8625 486.849 73.7845C487.065 73.7022 487.254 73.5722 487.414 73.3945C487.579 73.2168 487.707 72.9828 487.798 72.6925C487.893 72.4022 487.941 72.049 487.941 71.633L488.786 71.9515C488.786 72.5885 488.666 73.1518 488.428 73.6415C488.19 74.1268 487.847 74.506 487.401 74.779C486.955 75.052 486.415 75.1885 485.783 75.1885ZM488.103 75V72.972H487.941V67.98H489.312V75H488.103ZM491.265 66.8295V65.51H492.624V66.8295H491.265ZM491.265 75V67.98H492.624V75H491.265ZM494.706 75V65.445H496.064V75H494.706ZM500.804 75.195C500.15 75.195 499.585 75.0325 499.108 74.7075C498.636 74.3825 498.269 73.9405 498.009 73.3815C497.754 72.8182 497.626 72.1855 497.626 71.4835C497.626 70.7772 497.756 70.1467 498.016 69.592C498.276 69.033 498.644 68.5932 499.121 68.2725C499.602 67.9475 500.172 67.785 500.83 67.785C501.493 67.785 502.05 67.9475 502.501 68.2725C502.956 68.5932 503.298 69.033 503.528 69.592C503.762 70.151 503.879 70.7815 503.879 71.4835C503.879 72.1855 503.762 72.816 503.528 73.375C503.294 73.934 502.949 74.3782 502.494 74.7075C502.039 75.0325 501.476 75.195 500.804 75.195ZM500.993 73.9665C501.439 73.9665 501.803 73.8603 502.085 73.648C502.367 73.4357 502.572 73.1432 502.702 72.7705C502.832 72.3978 502.897 71.9688 502.897 71.4835C502.897 70.9982 502.83 70.5692 502.696 70.1965C502.566 69.8238 502.362 69.5335 502.085 69.3255C501.812 69.1175 501.463 69.0135 501.038 69.0135C500.588 69.0135 500.217 69.124 499.927 69.345C499.637 69.566 499.42 69.8628 499.277 70.2355C499.138 70.6082 499.069 71.0242 499.069 71.4835C499.069 71.9472 499.138 72.3675 499.277 72.7445C499.42 73.1172 499.632 73.414 499.914 73.635C500.2 73.856 500.56 73.9665 500.993 73.9665ZM502.897 75V69.9495H502.741V65.64H504.106V75H502.897ZM511.836 77.4245C511.334 76.8395 510.9 76.1787 510.536 75.442C510.172 74.7097 509.895 73.9405 509.704 73.1345C509.514 72.3242 509.425 71.516 509.438 70.71C509.425 69.904 509.514 69.098 509.704 68.292C509.895 67.4817 510.172 66.7103 510.536 65.978C510.9 65.2413 511.334 64.5805 511.836 63.9955L512.85 64.7495C512.33 65.3648 511.912 65.9975 511.596 66.6475C511.279 67.2932 511.048 67.9562 510.9 68.6365C510.753 69.3125 510.679 70.0037 510.679 70.71C510.679 71.412 510.753 72.1032 510.9 72.7835C511.048 73.4638 511.279 74.129 511.596 74.779C511.916 75.429 512.335 76.0595 512.85 76.6705L511.836 77.4245ZM517.957 75.195C517.021 75.195 516.223 74.9913 515.565 74.584C514.906 74.1723 514.401 73.6003 514.05 72.868C513.703 72.1357 513.53 71.2863 513.53 70.32C513.53 69.3537 513.703 68.5043 514.05 67.772C514.401 67.0397 514.906 66.4698 515.565 66.0625C516.223 65.6508 517.021 65.445 517.957 65.445C519.036 65.445 519.928 65.718 520.635 66.264C521.345 66.81 521.839 67.5445 522.117 68.4675L520.739 68.838C520.557 68.1837 520.232 67.6702 519.764 67.2975C519.3 66.9248 518.698 66.7385 517.957 66.7385C517.294 66.7385 516.741 66.888 516.299 67.187C515.857 67.486 515.523 67.9042 515.298 68.4415C515.077 68.9788 514.967 69.605 514.967 70.32C514.962 71.035 515.071 71.6612 515.292 72.1985C515.517 72.7358 515.851 73.154 516.293 73.453C516.739 73.752 517.294 73.9015 517.957 73.9015C518.698 73.9015 519.3 73.7152 519.764 73.3425C520.232 72.9655 520.557 72.452 520.739 71.802L522.117 72.1725C521.839 73.0955 521.345 73.83 520.635 74.376C519.928 74.922 519.036 75.195 517.957 75.195ZM525.529 75.195C525.009 75.195 524.573 75.0997 524.222 74.909C523.871 74.714 523.605 74.4583 523.423 74.142C523.245 73.8213 523.156 73.4703 523.156 73.089C523.156 72.7337 523.219 72.4217 523.345 72.153C523.47 71.8843 523.657 71.6568 523.904 71.4705C524.151 71.2798 524.454 71.126 524.814 71.009C525.126 70.918 525.479 70.8378 525.873 70.7685C526.268 70.6992 526.681 70.6342 527.115 70.5735C527.552 70.5128 527.986 70.4522 528.415 70.3915L527.921 70.6645C527.929 70.1142 527.812 69.7068 527.57 69.4425C527.331 69.1738 526.92 69.0395 526.335 69.0395C525.966 69.0395 525.628 69.1262 525.321 69.2995C525.013 69.4685 524.799 69.7502 524.677 70.1445L523.41 69.7545C523.583 69.1522 523.912 68.6733 524.398 68.318C524.887 67.9627 525.537 67.785 526.348 67.785C526.976 67.785 527.522 67.8933 527.986 68.11C528.454 68.3223 528.796 68.6603 529.013 69.124C529.125 69.3537 529.195 69.5963 529.221 69.852C529.247 70.1077 529.26 70.3828 529.26 70.6775V75H528.057V73.3945L528.291 73.6025C528.001 74.1398 527.63 74.5407 527.18 74.805C526.733 75.065 526.183 75.195 525.529 75.195ZM525.769 74.0835C526.155 74.0835 526.486 74.0163 526.764 73.882C527.041 73.7433 527.264 73.5678 527.433 73.3555C527.602 73.1432 527.713 72.9222 527.765 72.6925C527.838 72.4845 527.88 72.2505 527.888 71.9905C527.901 71.7305 527.908 71.5225 527.908 71.3665L528.35 71.529C527.921 71.594 527.531 71.6525 527.18 71.7045C526.829 71.7565 526.51 71.8085 526.224 71.8605C525.943 71.9082 525.691 71.9667 525.47 72.036C525.284 72.101 525.117 72.179 524.97 72.27C524.827 72.361 524.712 72.4715 524.625 72.6015C524.543 72.7315 524.502 72.8897 524.502 73.076C524.502 73.258 524.547 73.427 524.638 73.583C524.729 73.7347 524.868 73.856 525.054 73.947C525.241 74.038 525.479 74.0835 525.769 74.0835ZM530.948 75V67.98H532.157V69.683L531.988 69.462C532.074 69.2367 532.187 69.0308 532.326 68.8445C532.464 68.6538 532.625 68.4978 532.807 68.3765C532.984 68.2465 533.181 68.1468 533.398 68.0775C533.619 68.0038 533.844 67.9605 534.074 67.9475C534.304 67.9302 534.525 67.941 534.737 67.98V69.254C534.507 69.1933 534.252 69.176 533.97 69.202C533.693 69.228 533.437 69.3168 533.203 69.4685C532.982 69.6115 532.807 69.7848 532.677 69.9885C532.551 70.1922 532.46 70.4197 532.404 70.671C532.347 70.918 532.319 71.1802 532.319 71.4575V75H530.948ZM538.614 78.315C538.237 78.315 537.87 78.2565 537.515 78.1395C537.164 78.0225 536.843 77.8492 536.553 77.6195C536.263 77.3942 536.022 77.1147 535.832 76.781L537.086 76.144C537.238 76.443 537.454 76.6618 537.736 76.8005C538.018 76.9392 538.315 77.0085 538.627 77.0085C539.012 77.0085 539.342 76.9392 539.615 76.8005C539.888 76.6662 540.093 76.4625 540.232 76.1895C540.375 75.9165 540.444 75.5785 540.44 75.1755V73.2125H540.603V67.98H541.805V75.1885C541.805 75.3748 541.799 75.5525 541.786 75.7215C541.773 75.8905 541.749 76.0595 541.714 76.2285C541.614 76.7008 541.424 77.0908 541.142 77.3985C540.865 77.7062 540.509 77.9358 540.076 78.0875C539.647 78.2392 539.16 78.315 538.614 78.315ZM538.51 75.195C537.855 75.195 537.29 75.0325 536.813 74.7075C536.341 74.3825 535.975 73.9405 535.715 73.3815C535.459 72.8182 535.331 72.1855 535.331 71.4835C535.331 70.7772 535.461 70.1467 535.721 69.592C535.981 69.033 536.349 68.5932 536.826 68.2725C537.307 67.9475 537.877 67.785 538.536 67.785C539.199 67.785 539.755 67.9475 540.206 68.2725C540.661 68.5932 541.003 69.033 541.233 69.592C541.467 70.151 541.584 70.7815 541.584 71.4835C541.584 72.1855 541.467 72.816 541.233 73.375C540.999 73.934 540.655 74.3782 540.2 74.7075C539.745 75.0325 539.181 75.195 538.51 75.195ZM538.698 73.9665C539.144 73.9665 539.508 73.8603 539.79 73.648C540.072 73.4357 540.278 73.1432 540.408 72.7705C540.538 72.3978 540.603 71.9688 540.603 71.4835C540.603 70.9982 540.535 70.5692 540.401 70.1965C540.271 69.8238 540.067 69.5335 539.79 69.3255C539.517 69.1175 539.168 69.0135 538.744 69.0135C538.293 69.0135 537.922 69.124 537.632 69.345C537.342 69.566 537.125 69.8628 536.982 70.2355C536.843 70.6082 536.774 71.0242 536.774 71.4835C536.774 71.9472 536.843 72.3675 536.982 72.7445C537.125 73.1172 537.337 73.414 537.619 73.635C537.905 73.856 538.265 73.9665 538.698 73.9665ZM546.679 75.195C545.977 75.195 545.368 75.0368 544.852 74.7205C544.337 74.4042 543.938 73.9687 543.656 73.414C543.379 72.855 543.24 72.2115 543.24 71.4835C543.24 70.7512 543.383 70.1077 543.669 69.553C543.955 68.994 544.356 68.5607 544.872 68.253C545.387 67.941 545.99 67.785 546.679 67.785C547.381 67.785 547.99 67.9432 548.505 68.2595C549.021 68.5758 549.42 69.0113 549.701 69.566C549.983 70.1207 550.124 70.7598 550.124 71.4835C550.124 72.2158 549.981 72.8615 549.695 73.4205C549.413 73.9752 549.014 74.4107 548.499 74.727C547.983 75.039 547.376 75.195 546.679 75.195ZM546.679 73.9145C547.35 73.9145 547.851 73.6892 548.18 73.2385C548.514 72.7835 548.681 72.1985 548.681 71.4835C548.681 70.7512 548.512 70.1662 548.174 69.7285C547.84 69.2865 547.342 69.0655 546.679 69.0655C546.224 69.0655 545.849 69.1695 545.554 69.3775C545.26 69.5812 545.041 69.865 544.898 70.229C544.755 70.5887 544.683 71.0068 544.683 71.4835C544.683 72.2202 544.852 72.8095 545.19 73.2515C545.528 73.6935 546.024 73.9145 546.679 73.9145ZM551.675 77.4245L550.661 76.6705C551.177 76.0595 551.593 75.429 551.909 74.779C552.23 74.129 552.464 73.4638 552.611 72.7835C552.758 72.1032 552.832 71.412 552.832 70.71C552.832 70.0037 552.758 69.3125 552.611 68.6365C552.464 67.9562 552.232 67.2932 551.916 66.6475C551.599 65.9975 551.181 65.3648 550.661 64.7495L551.675 63.9955C552.178 64.5805 552.611 65.2413 552.975 65.978C553.339 66.7103 553.616 67.4817 553.807 68.292C553.998 69.098 554.087 69.904 554.074 70.71C554.087 71.516 553.998 72.3242 553.807 73.1345C553.616 73.9405 553.339 74.7097 552.975 75.442C552.611 76.1787 552.178 76.8395 551.675 77.4245Z" fill="#9DA4BE"/>
<path d="M46.7062 66.7062C47.0969 66.3156 47.0969 65.6812 46.7062 65.2906C46.3156 64.9 45.6812 64.9 45.2906 65.2906L42 68.5844L38.7062 65.2937C38.3156 64.9031 37.6812 64.9031 37.2906 65.2937C36.9 65.6844 36.9 66.3187 37.2906 66.7094L40.5844 70L37.2937 73.2937C36.9031 73.6844 36.9031 74.3187 37.2937 74.7094C37.6844 75.1 38.3187 75.1 38.7094 74.7094L42 71.4156L45.2937 74.7062C45.6844 75.0969 46.3187 75.0969 46.7094 74.7062C47.1 74.3156 47.1 73.6812 46.7094 73.2906L43.4156 70L46.7062 66.7062Z" fill="#9DA4BE"/>
<g clip-path="url(#clip3_0_22)">
<path d="M95.4969 67.2063C95.5969 67.4781 95.5125 67.7812 95.2969 67.975L93.9437 69.2063C93.9781 69.4656 93.9969 69.7312 93.9969 70C93.9969 70.2688 93.9781 70.5344 93.9437 70.7937L95.2969 72.025C95.5125 72.2188 95.5969 72.5219 95.4969 72.7937C95.3594 73.1656 95.1937 73.5219 95.0031 73.8656L94.8562 74.1187C94.65 74.4625 94.4187 74.7875 94.1656 75.0938C93.9812 75.3188 93.675 75.3937 93.4 75.3062L91.6594 74.7531C91.2406 75.075 90.7781 75.3438 90.2844 75.5469L89.8937 77.3313C89.8312 77.6156 89.6125 77.8406 89.325 77.8875C88.8937 77.9594 88.45 77.9969 87.9969 77.9969C87.5437 77.9969 87.1 77.9594 86.6687 77.8875C86.3812 77.8406 86.1625 77.6156 86.1 77.3313L85.7094 75.5469C85.2156 75.3438 84.7531 75.075 84.3344 74.7531L82.5969 75.3094C82.3219 75.3969 82.0156 75.3188 81.8312 75.0969C81.5781 74.7906 81.3469 74.4656 81.1406 74.1219L80.9937 73.8687C80.8031 73.525 80.6375 73.1687 80.5 72.7969C80.4 72.525 80.4844 72.2219 80.7 72.0281L82.0531 70.7969C82.0187 70.5344 82 70.2688 82 70C82 69.7312 82.0187 69.4656 82.0531 69.2063L80.7 67.975C80.4844 67.7812 80.4 67.4781 80.5 67.2063C80.6375 66.8344 80.8031 66.4781 80.9937 66.1344L81.1406 65.8812C81.3469 65.5375 81.5781 65.2125 81.8312 64.9062C82.0156 64.6813 82.3219 64.6062 82.5969 64.6937L84.3375 65.2469C84.7562 64.925 85.2187 64.6562 85.7125 64.4531L86.1031 62.6687C86.1656 62.3844 86.3844 62.1594 86.6719 62.1125C87.1031 62.0375 87.5469 62 88 62C88.4531 62 88.8969 62.0375 89.3281 62.1094C89.6156 62.1562 89.8344 62.3812 89.8969 62.6656L90.2875 64.45C90.7812 64.6531 91.2437 64.9219 91.6625 65.2438L93.4031 64.6906C93.6781 64.6031 93.9844 64.6813 94.1687 64.9031C94.4219 65.2094 94.6531 65.5344 94.8594 65.8781L95.0062 66.1312C95.1969 66.475 95.3625 66.8313 95.5 67.2031L95.4969 67.2063ZM88 72.5C88.663 72.5 89.2989 72.2366 89.7678 71.7678C90.2366 71.2989 90.5 70.663 90.5 70C90.5 69.337 90.2366 68.7011 89.7678 68.2322C89.2989 67.7634 88.663 67.5 88 67.5C87.337 67.5 86.7011 67.7634 86.2322 68.2322C85.7634 68.7011 85.5 69.337 85.5 70C85.5 70.663 85.7634 71.2989 86.2322 71.7678C86.7011 72.2366 87.337 72.5 88 72.5Z" fill="#9DA4BE"/>
</g>
<mask id="path-30-inside-2_0_22" fill="white">
<path d="M392 147H662V171H392V147Z"/>
</mask>
<path d="M662 170H392V172H662V170Z" fill="#9DA4BE" mask="url(#path-30-inside-2_0_22)"/>
<path d="M644.4 155.5C644.4 154.728 645.028 154.1 645.8 154.1H654.2C654.972 154.1 655.6 154.728 655.6 155.5V161.1H654.2V155.5H645.8V161.1H644.4V155.5ZM643 162.22C643 161.988 643.188 161.8 643.42 161.8H656.58C656.812 161.8 657 161.988 657 162.22C657 163.147 656.248 163.9 655.32 163.9H644.68C643.752 163.9 643 163.147 643 162.22ZM649.147 157.972L648.469 158.65L649.147 159.328C649.352 159.534 649.352 159.866 649.147 160.07C648.941 160.273 648.609 160.275 648.405 160.07L647.355 159.02C647.15 158.814 647.15 158.482 647.355 158.278L648.405 157.228C648.611 157.022 648.943 157.022 649.147 157.228C649.35 157.434 649.352 157.766 649.147 157.97V157.972ZM651.597 157.228L652.647 158.278C652.852 158.484 652.852 158.816 652.647 159.02L651.597 160.07C651.391 160.275 651.059 160.275 650.855 160.07C650.652 159.864 650.65 159.532 650.855 159.328L651.533 158.65L650.855 157.972C650.65 157.766 650.65 157.434 650.855 157.23C651.061 157.027 651.393 157.025 651.597 157.23V157.228Z" fill="#9DA4BE"/>
</g>
<rect x="1" y="1" width="736" height="539" rx="10" stroke="#9DA4BE"/>
<defs>
<clipPath id="clip0_0_22">
<rect x="1" y="1" width="736" height="539" rx="10" fill="white"/>
</clipPath>
<clipPath id="clip1_0_22">
<rect width="16" height="16" fill="white" transform="translate(126 62)"/>
</clipPath>
<clipPath id="clip2_0_22">
<rect width="16" height="16" fill="white" transform="translate(288 62)"/>
</clipPath>
<clipPath id="clip3_0_22">
<rect width="16" height="16" fill="white" transform="translate(80 62)"/>
</clipPath>
</defs>
</svg>
