<svg version="1.1" xmlns="http://www.w3.org/2000/svg" viewBox="0 0 231.1826987119839 188.92989191164634" width="231.1826987119839" height="188.92989191164634" filter="invert(93%) hue-rotate(180deg)"><!-- svg-source:excalidraw --><metadata></metadata><defs><style class="style-fonts">
      </style></defs><g stroke-linecap="round"><g transform="translate(72.92266258767813 119.08395532502982) rotate(8.355435066471689 28.396861829955014 -28.397986561968537)"><path d="M0.29 0.48 C2.56 -3.49, 8.22 -15.13, 14.2 -22.79 C20.19 -30.46, 29.42 -40.22, 36.19 -45.5 C42.96 -50.78, 50.93 -52.88, 54.82 -54.47 M-3 -1.73 C-0.95 -5.54, 7.1 -12.57, 13.22 -20.55 C19.33 -28.53, 26.82 -43.14, 33.68 -49.59 C40.53 -56.04, 50.35 -58.65, 54.34 -59.24" stroke="#1e1e1e" stroke-width="2" fill="none"></path></g></g><mask></mask><g stroke-linecap="round"><g transform="translate(129.19889594415508 64.50923001315095) rotate(8.355435066471689 -22.01617574149168 33.18162898943501)"><path d="M-2.39 0.13 C-3.52 2.82, 0 9.56, -4.58 17.79 C-9.15 26.01, -23.34 41.86, -29.81 49.49 C-36.29 57.13, -40.75 60.7, -43.43 63.61 M1.51 -2.26 C-0.15 0.68, -0.87 11.84, -6.53 20.92 C-12.19 30, -26.44 44.92, -32.44 52.22 C-38.43 59.52, -40.97 62.06, -42.52 64.72" stroke="#1e1e1e" stroke-width="2" fill="none"></path></g></g><mask></mask><g stroke-linecap="round"><g transform="translate(110.18156849198567 98.92238083286065) rotate(8.355435066471689 -6.2209591237451605 15.926509571002498)"><path d="M-0.84 1.05 C0.72 2.82, 2.39 6.97, 2.47 11.56 M0.61 0.42 C1.42 3.95, 2.9 8.81, 3.11 11.81 M2.62 10.47 C-3.41 17.06, -7.84 24.98, -14.8 30.88 M3.05 11.99 C-0.91 17.16, -5.62 23.66, -13.67 30.93 M-12.94 31.85 C-13.59 29.21, -14.56 25.4, -16.83 17.87 M-13.34 31.99 C-14.01 27.98, -15.4 22.71, -15.28 18.44" stroke="#1e1e1e" stroke-width="2" fill="none"></path></g></g><mask></mask><g stroke-linecap="round"><g transform="translate(83.33516867920844 97.7172277475529) rotate(8.355435066471689 -2.1372618565001176 -5.7546538373726435)"><path d="M-0.74 0.45 C-3.71 -0.02, -6.77 2.09, -15.31 4.08 M0.3 0.59 C-3.71 0.88, -9.47 2.72, -15.27 2.83 M-13.67 3.59 C-8.4 -4.5, -3.19 -9.54, 0.39 -12.25 M-15.24 4.06 C-9.49 -2.52, -4.81 -8.77, -1.31 -14.95 M0.52 -13.13 C3.62 -15.14, 7.39 -15.03, 9.38 -14.24 M-0.55 -14.44 C2.87 -13.69, 5.48 -14.09, 10.66 -14.65" stroke="#1e1e1e" stroke-width="2" fill="none"></path></g></g><mask></mask><g stroke-linecap="round" transform="translate(113.48588412858044 77.50605995241312) rotate(8.355435066471689 3.3175584532018547 3.638379933464421)"><path d="M1.81 0.3 C2.38 0.24, 3.96 0.47, 4.66 0.88 C5.35 1.29, 5.56 2.18, 5.97 2.75 C6.39 3.32, 7.16 3.64, 7.14 4.3 C7.12 4.96, 6.62 6.25, 5.84 6.71 C5.05 7.18, 3.18 7.27, 2.43 7.1 C1.69 6.92, 1.82 6.2, 1.38 5.63 C0.93 5.06, -0.1 4.26, -0.23 3.67 C-0.37 3.09, 0.04 2.7, 0.55 2.14 C1.06 1.59, 2.54 0.58, 2.85 0.33 C3.16 0.08, 2.34 0.7, 2.41 0.65 M4.27 0.01 C4.84 0.17, 4.38 1.27, 4.62 1.7 C4.86 2.14, 5.49 1.8, 5.72 2.61 C5.94 3.42, 6.3 5.81, 5.99 6.57 C5.68 7.34, 4.59 6.97, 3.86 7.2 C3.12 7.43, 2.25 8.32, 1.57 7.96 C0.89 7.6, -0.13 5.89, -0.22 5.03 C-0.31 4.18, 0.94 3.64, 1.04 2.81 C1.14 1.98, 0.02 0.38, 0.38 0.07 C0.73 -0.23, 2.52 0.94, 3.2 0.98 C3.87 1.02, 4.24 0.41, 4.43 0.28" stroke="#1e1e1e" stroke-width="2" fill="none"></path></g><g stroke-linecap="round"><g transform="translate(100.54890072815579 82.56461290186417) rotate(8.355435066471689 8.620600926783482 6.714152125236069)"><path d="M-0.56 0.68 C0.31 2.19, 3.02 7.57, 6.14 9.49 C9.26 11.42, 16.34 11.63, 18.17 12.23 M1.35 -0.01 C2.03 1.08, 2.75 5.4, 5.51 7.56 C8.27 9.72, 15.92 11.83, 17.89 12.92" stroke="#1e1e1e" stroke-width="1" fill="none"></path></g></g><mask></mask><g stroke-linecap="round"><g transform="translate(77.91496734994689 100.20183528847338) rotate(8.355435066471689 8.620600926783482 6.714152125236069)"><path d="M-0.8 0.46 C0.34 1.95, 2.74 6.83, 5.81 9.04 C8.88 11.26, 15.64 12.87, 17.61 13.76 M0.98 -0.34 C2.07 1.33, 2.33 7.93, 5.01 10.53 C7.69 13.13, 14.85 14.95, 17.04 15.26" stroke="#1e1e1e" stroke-width="1" fill="none"></path></g></g><mask></mask><g stroke-linecap="round"><g transform="translate(133.86073026645863 67.94358182959331) rotate(8.355435066471689 5.932298964537949 -7.836438372227349)"><path d="M-0.93 -0.23 C1.32 -2.67, 10.69 -13.09, 12.78 -15.56 M0.78 -1.4 C3.01 -3.53, 10.65 -11.35, 12.31 -13.96" stroke="#1e1e1e" stroke-width="1" fill="none"></path></g></g><mask></mask><g stroke-linecap="round"><g transform="translate(75.03120941236011 123.62322382012462) rotate(8.355435066471689 -9.0703121821889 26.345737002374335)"><path d="M-0.24 -2.21 C-3.03 2.76, -16.39 21, -18.99 30.25 C-21.59 39.5, -16.15 49.24, -15.86 53.3 M-3.81 2.76 C-6.85 6.79, -19.53 16.64, -21.69 25.64 C-23.84 34.63, -17.63 52.74, -16.75 56.75" stroke="#e8590c" stroke-width="2" fill="none"></path></g></g><mask></mask><g stroke-linecap="round"><g transform="translate(66.29483105521467 112.14040272272359) rotate(8.355435066471689 -25.945154452877432 15.636328029299875)"><path d="M-0.85 0.73 C-2.31 6.41, -0.59 27.15, -9.04 31.88 C-17.49 36.62, -44.02 30.13, -51.55 29.13 M3.89 -1.35 C2.22 3.63, -0.85 22.87, -10.36 27.21 C-19.87 31.54, -45.75 24.56, -53.18 24.66" stroke="#e03131" stroke-width="2" fill="none"></path></g></g><mask></mask><g stroke-linecap="round"><g transform="translate(65.22995617269771 116.70702415167943) rotate(8.355435066471689 -25.469189295910837 16.69940775593841)"><path d="M1.68 0.61 C-2.03 4.96, -13.92 21.55, -23.08 26.8 C-32.24 32.04, -48.18 31.3, -53.29 32.1 M-0.85 -1.52 C-4.82 1.97, -17.33 16.84, -25.14 22.84 C-32.95 28.85, -42.81 32.78, -47.73 34.5" stroke="#e8590c" stroke-width="2" fill="none"></path></g></g><mask></mask><g stroke-linecap="round"><g transform="translate(68.11438126085886 122.87892067848043) rotate(8.355435066471689 -13.901343911025833 24.784386400237054)"><path d="M0.34 1.95 C-4.97 6.58, -25.74 20.76, -30.15 28.38 C-34.56 36.01, -26.93 44.65, -26.13 47.72 M-2.93 0.54 C-7.53 5.48, -22.04 23.09, -25.03 31.31 C-28.01 39.52, -20.67 47.06, -20.82 49.82" stroke="#e8590c" stroke-width="2" fill="none"></path></g></g><mask></mask><g stroke-linecap="round"><g transform="translate(63.58595657568367 127.50266572509281) rotate(8.355435066471689 -18.95025704503405 19.125957902267146)"><path d="M-2.35 -1.3 C-7.57 -0.11, -24.75 3, -31.01 9.13 C-37.28 15.27, -39.21 30.5, -39.94 35.49 M1.57 4.16 C-2.87 5.5, -20.16 6.27, -26.13 11.76 C-32.09 17.25, -31.56 32.04, -34.21 37.09" stroke="#674000" stroke-width="2" fill="none"></path></g></g><mask></mask><g stroke-linecap="round"><g transform="translate(69.98308218337479 130.72216670717899) rotate(8.355435066471689 -18.95025704503405 19.125957902267146)"><path d="M-2.79 -1.85 C-4.36 0.05, -6.36 3.28, -11.79 10.1 C-17.22 16.91, -31.07 34.7, -35.36 39.04 M0.89 3.32 C0.41 5.57, -0.38 7.12, -6.5 12.22 C-12.61 17.33, -30.75 29.72, -35.79 33.94" stroke="#e03131" stroke-width="2" fill="none"></path></g></g><mask></mask><g stroke-linecap="round"><g transform="translate(79.02603992639706 125.61164475760779) rotate(8.355435066471689 -16.311222343076224 22.310878341061652)"><path d="M-2.04 -2.77 C-1.9 0.88, 3.1 12.48, -1.94 20.02 C-6.98 27.56, -26.88 37.99, -32.27 42.48 M2.05 1.9 C2.3 4.83, 3.19 8.35, -2.8 15.44 C-8.79 22.53, -28.59 39.96, -33.89 44.43" stroke="#674000" stroke-width="2" fill="none"></path></g></g><mask></mask><g stroke-linecap="round"><g transform="translate(67.20669552961772 114.67228270699525) rotate(8.355435066471689 7.195200912651671 5.446163798333146)"><path d="M1.09 0.34 C2.18 1.63, 3.58 4.64, 5.68 6.57 C7.77 8.5, 12.33 11.09, 13.67 11.92 M0.2 -0.53 C1.22 0.99, 2.14 5.85, 4.81 7.63 C7.47 9.4, 14.73 9.83, 16.19 10.11" stroke="#1e1e1e" stroke-width="2" fill="none"></path></g></g><mask></mask><g stroke-linecap="round"><g transform="translate(80.13605824578008 125.89354048565838) rotate(8.355435066471689 -2.205255798429789 2.737312104666671)"><path d="M0.09 -0.58 C-0.83 0.41, -4.04 5.04, -4.86 6.12 M-0.77 0.76 C-1.51 1.53, -2.6 4.48, -3.4 5.12" stroke="#1e1e1e" stroke-width="2" fill="none"></path></g></g><mask></mask><g stroke-linecap="round"><g transform="translate(68.23147616993083 113.53904325192343) rotate(8.355435066471689 -2.5154231518417873 3.894304501539409)"><path d="M-0.45 0.64 C-1.38 2.1, -4.71 6.92, -5.46 8.19 M0.69 0.32 C0 1.61, -2.97 5.95, -3.99 7.06" stroke="#1e1e1e" stroke-width="2" fill="none"></path></g></g><mask></mask><g stroke-linecap="round"><g transform="translate(96.04327660173112 97.71313572962208) rotate(45.75876067760047 3.968377908693583 0.05257859775429097)"><path d="M-0.31 0.16 C-0.34 -0.05, -0.07 -0.98, 0.09 -1.06 C0.25 -1.15, 0.56 -0.27, 0.67 -0.33 C0.77 -0.39, 0.51 -1.39, 0.71 -1.43 C0.91 -1.47, 1.58 -0.5, 1.84 -0.55 C2.1 -0.6, 2.18 -1.59, 2.29 -1.72 C2.39 -1.86, 2.34 -1.39, 2.48 -1.35 C2.62 -1.32, 2.89 -1.62, 3.11 -1.53 C3.33 -1.44, 3.62 -0.77, 3.8 -0.83 C3.98 -0.9, 4.05 -1.88, 4.19 -1.92 C4.34 -1.95, 4.56 -1.15, 4.68 -1.05 C4.8 -0.95, 4.77 -1.33, 4.9 -1.3 C5.02 -1.26, 5.24 -0.93, 5.42 -0.83 C5.6 -0.74, 5.87 -0.85, 5.96 -0.72 C6.05 -0.6, 5.81 -0.21, 5.98 -0.09 C6.14 0.04, 6.87 -0.03, 6.96 0.03 C7.04 0.09, 6.47 0.1, 6.5 0.28 C6.53 0.45, 7.02 0.9, 7.14 1.08 C7.26 1.25, 7.1 1.29, 7.21 1.36 C7.33 1.42, 7.71 1.39, 7.84 1.46 M0.17 -0.07 C0.08 -0.26, -0.21 -0.78, -0.18 -0.75 C-0.15 -0.73, 0.21 0.19, 0.35 0.1 C0.49 0.02, 0.46 -1.02, 0.66 -1.26 C0.86 -1.5, 1.36 -1.38, 1.54 -1.35 C1.73 -1.32, 1.58 -1.15, 1.76 -1.07 C1.95 -0.98, 2.46 -0.76, 2.65 -0.84 C2.84 -0.93, 2.79 -1.53, 2.92 -1.57 C3.06 -1.61, 3.19 -1.17, 3.45 -1.1 C3.71 -1.03, 4.43 -1.2, 4.5 -1.15 C4.57 -1.1, 3.88 -0.74, 3.88 -0.79 C3.87 -0.84, 4.19 -1.53, 4.48 -1.43 C4.77 -1.32, 5.39 -0.27, 5.61 -0.16 C5.83 -0.04, 5.74 -0.72, 5.82 -0.75 C5.89 -0.78, 5.98 -0.52, 6.07 -0.32 C6.15 -0.13, 6.14 0.31, 6.32 0.42 C6.5 0.53, 6.88 0.36, 7.12 0.34 C7.36 0.32, 7.82 0.11, 7.76 0.28 C7.71 0.45, 6.76 1.11, 6.79 1.37 C6.82 1.63, 7.78 1.84, 7.94 1.86" stroke="#e8590c" stroke-width="1" fill="none"></path></g></g><mask></mask><g stroke-linecap="round"><g transform="translate(96.02907106299972 92.86680618522587) rotate(45.75876067760047 -1.8990182205016026 2.5917976797763913)"><path d="M0.01 -0.28 C-0.08 -0.31, -0.73 -0.13, -0.86 -0.03 C-0.99 0.06, -0.73 0.13, -0.76 0.3 C-0.79 0.46, -1.05 0.82, -1.05 0.96 C-1.06 1.11, -0.66 1.11, -0.78 1.17 C-0.89 1.22, -1.68 1.07, -1.76 1.28 C-1.84 1.49, -1.22 2.25, -1.25 2.43 C-1.29 2.61, -1.88 2.61, -1.97 2.36 C-2.06 2.11, -1.82 1.25, -1.78 0.94 C-1.74 0.63, -1.53 0.7, -1.72 0.51 C-1.9 0.33, -2.77 -0.26, -2.89 -0.18 C-3 -0.11, -2.39 0.8, -2.43 0.94 C-2.46 1.09, -2.92 0.83, -3.08 0.68 C-3.24 0.52, -3.3 0.04, -3.38 0.03 C-3.46 0.01, -3.45 0.46, -3.54 0.61 C-3.63 0.75, -4.03 0.62, -3.93 0.91 C-3.83 1.2, -3.24 2.05, -2.93 2.34 C-2.61 2.63, -2.13 2.53, -2.05 2.66 C-1.96 2.79, -2.67 2.67, -2.39 3.13 C-2.11 3.58, -0.42 5.37, -0.35 5.4 C-0.29 5.43, -1.76 3.68, -2.01 3.31 M-0.41 0.35 C-0.36 0.19, -0.22 -0.64, -0.16 -0.61 C-0.09 -0.58, 0.09 0.37, -0.03 0.53 C-0.14 0.7, -0.67 0.26, -0.85 0.36 C-1.02 0.47, -0.99 0.91, -1.07 1.17 C-1.16 1.42, -1.38 1.73, -1.36 1.88 C-1.34 2.04, -0.83 2.01, -0.95 2.09 C-1.08 2.18, -1.92 2.51, -2.13 2.4 C-2.33 2.29, -2.15 1.78, -2.2 1.43 C-2.24 1.09, -2.29 0.58, -2.39 0.35 C-2.49 0.13, -2.74 -0.13, -2.79 0.1 C-2.85 0.33, -2.69 1.68, -2.72 1.74 C-2.74 1.8, -2.8 0.77, -2.95 0.46 C-3.1 0.15, -3.53 -0.1, -3.59 -0.1 C-3.65 -0.1, -3.29 0.26, -3.31 0.47 C-3.33 0.67, -3.88 0.92, -3.71 1.12 C-3.54 1.32, -2.5 1.4, -2.29 1.66 C-2.08 1.92, -2.52 2.47, -2.44 2.7 C-2.35 2.93, -2.15 2.69, -1.77 3.05 C-1.39 3.42, -0.22 4.92, -0.16 4.9 C-0.11 4.88, -1.15 3.14, -1.43 2.95" stroke="#e8590c" stroke-width="1" fill="none"></path></g></g><mask></mask><g stroke-linecap="round"><g transform="translate(92.61674238137857 100.56206467814263) rotate(45.75876067760047 5.605923498102129 -0.9643721388483755)"><path d="M-0.28 0.14 C-0.28 0.08, -0.27 -0.88, 0.03 -0.8 C0.32 -0.72, 0.88 0.43, 1.49 0.63 C2.11 0.82, 3.19 0.42, 3.73 0.37 C4.26 0.31, 4.19 0.22, 4.69 0.3 C5.19 0.37, 6.13 0.74, 6.72 0.82 C7.32 0.89, 7.87 1.01, 8.27 0.74 C8.66 0.47, 8.82 -0.65, 9.09 -0.79 C9.35 -0.94, 9.92 -0.59, 9.85 -0.15 C9.79 0.29, 8.6 1.94, 8.69 1.85 C8.79 1.76, 10.28 -0.28, 10.44 -0.7 C10.6 -1.13, 9.72 -0.53, 9.67 -0.7 C9.62 -0.86, 9.84 -1.45, 10.14 -1.68 C10.44 -1.92, 11.33 -1.83, 11.47 -2.1 C11.61 -2.37, 11.06 -3.15, 10.97 -3.32 C10.88 -3.48, 10.99 -3.15, 10.92 -3.08 C10.85 -3, 10.7 -2.89, 10.56 -2.88 C10.41 -2.86, 10.08 -2.84, 10.07 -2.98 C10.06 -3.12, 10.66 -3.66, 10.5 -3.73 C10.35 -3.79, 9.4 -3.52, 9.16 -3.38 C8.92 -3.25, 9.03 -3.15, 9.07 -2.93 C9.12 -2.71, 9.39 -2.3, 9.43 -2.06 C9.48 -1.83, 9.44 -1.66, 9.33 -1.53 C9.22 -1.39, 8.86 -1.38, 8.76 -1.23 C8.66 -1.09, 8.73 -0.6, 8.75 -0.63 C8.77 -0.66, 8.84 -1.25, 8.89 -1.43 M0.58 -0.27 C0.76 -0.24, 0.94 -0.35, 1.07 -0.33 C1.2 -0.32, 0.86 -0.37, 1.35 -0.2 C1.85 -0.03, 3.61 0.63, 4.05 0.69 C4.49 0.76, 3.69 0.25, 3.99 0.21 C4.29 0.17, 5.35 0.41, 5.87 0.44 C6.39 0.46, 6.64 0.35, 7.12 0.35 C7.6 0.35, 8.36 0.64, 8.74 0.44 C9.11 0.25, 9.32 -1.02, 9.37 -0.82 C9.42 -0.62, 8.81 1.58, 9.04 1.63 C9.28 1.69, 10.77 -0.08, 10.78 -0.49 C10.79 -0.91, 9.22 -0.57, 9.13 -0.85 C9.04 -1.13, 9.86 -1.95, 10.24 -2.17 C10.61 -2.38, 11.23 -2.15, 11.36 -2.15 C11.48 -2.15, 11 -1.86, 10.99 -2.15 C10.98 -2.44, 11.46 -3.83, 11.29 -3.91 C11.12 -3.99, 10.28 -2.78, 9.96 -2.63 C9.65 -2.49, 9.41 -2.89, 9.41 -3.05 C9.41 -3.21, 10 -3.66, 9.95 -3.57 C9.9 -3.49, 9.08 -2.83, 9.11 -2.56 C9.14 -2.29, 10.05 -2.18, 10.11 -1.94 C10.18 -1.7, 9.64 -1.09, 9.48 -1.1 C9.32 -1.11, 9.19 -1.88, 9.16 -1.98 C9.12 -2.09, 9.24 -1.74, 9.26 -1.72 C9.29 -1.71, 9.33 -1.96, 9.32 -1.9 C9.3 -1.84, 9.1 -1.34, 9.15 -1.35" stroke="#e8590c" stroke-width="1" fill="none"></path></g></g><mask></mask><g stroke-linecap="round"><g transform="translate(98.48006196594724 24.838145038442235) rotate(8.355435066471689 -0.0011559803988347994 -6.307764249346292)"><path d="M-0.09 -0.72 C1.31 -4.95, 2.64 -8.66, 4.54 -10.79 M-0.2 0.42 C1.22 -3.22, 2.83 -7.82, 5.25 -10.88 M4.47 -11.22 C1.64 -9.56, -0.88 -8.97, -6.24 -7.27 M5.2 -10.93 C2.01 -10.4, 0.17 -8.96, -6.98 -6.18 M-5.1 -6.66 C-1.67 -4.12, 1.78 -3.56, 5.13 -0.35 M-5.76 -6.21 C-2.59 -4.6, 2.96 -2.59, 6.77 0.22 M7.26 0.5 C6.02 -3.69, 2.66 -5.51, -0.39 -13.51 M7.1 0.23 C4.97 -3.37, 3.84 -5.25, -1.52 -12.12 M-0.67 -11.58 C-1.16 -7.57, -1.14 -2.74, -0.44 -0.89 M-0.75 -12.56 C-0.6 -9.3, -0.39 -4.98, -0.01 0.37" stroke="#1e1e1e" stroke-width="1" fill="none"></path></g></g><mask></mask><g stroke-linecap="round"><g transform="translate(214.3999150250438 70.73459195651412) rotate(8.355435066471689 1.5737813972018557 -4.192998788659679)"><path d="M-0.23 -0.21 C1.25 -1.37, 3.1 -2.94, 5.33 -5.34 M-0.25 0.06 C1.21 -1.33, 2.41 -2.16, 5.05 -5.03 M5.52 -5.55 C3.51 -4.13, 1.11 -4.26, -3.5 -3.95 M5.05 -4.73 C2.08 -4.44, -2.1 -4.71, -3.34 -4.52 M-3.72 -4.36 C-0.03 -2.52, 2.38 -1.55, 6.08 0.9 M-3.03 -4.44 C-1.35 -2.93, 0.92 -2.34, 6.91 1.89 M7.51 0.35 C4.88 -2.99, 3.49 -5.35, -0.65 -9.93 M7.24 1.05 C3.99 -3.1, 1.63 -6.52, 0.42 -9.74 M1.53 -9.63 C1.29 -7.72, -0.16 -3.95, -0.22 1.62 M0.51 -9.9 C-0.37 -6.25, -0.76 -2.47, -0.91 1.75" stroke="#1e1e1e" stroke-width="1" fill="none"></path></g></g><mask></mask><g stroke-linecap="round"><g transform="translate(163.1119656214887 16.225786448369035) rotate(8.355435066471689 0.9797634288634072 -2.6103669021031237)"><path d="M0 0.21 C1.09 -0.95, 2.45 -2.04, 3.16 -3.08 M0.04 -0.05 C0.87 -0.55, 1.62 -1.29, 3.49 -3.09 M3.38 -2.94 C1.43 -3.26, 0.18 -2.95, -2.5 -2.88 M3.43 -3 C2.24 -3.09, 0.82 -3.07, -2.15 -2.81 M-2.26 -2.72 C-0.54 -2.61, 0.8 -1.19, 4.32 0.63 M-2.39 -3.05 C-0.52 -1.68, 1.49 -0.96, 4.17 0.99 M4.72 0.32 C3.59 -1.13, 1.98 -2.49, 0.55 -6 M4.38 1.05 C2.59 -1.59, 1.13 -4.34, 0.46 -6.18 M0.41 -6.12 C0.19 -3.54, 0.13 -1.46, -0.06 1.22 M0.25 -6.16 C-0.06 -3.98, -0.3 -1.8, -0.29 0.91" stroke="#1e1e1e" stroke-width="1" fill="none"></path></g></g><mask></mask><g stroke-linecap="round"><g transform="translate(109.57929615867397 54.62816778505112) rotate(8.355435066471689 1.1228631850835882 -2.6613923343302304)"><path d="M-0.3 0.24 C1.49 -0.98, 2.48 -2.25, 4.82 -3.82 M0.18 0.16 C0.99 -0.84, 2.23 -1.82, 4.62 -3.53 M4.13 -4 C1.6 -3.13, -0.73 -2.72, -2.54 -2.7 M4.68 -3.73 C2.1 -3.28, -0.53 -3.03, -2.19 -3 M-2.14 -2.66 C-0.57 -1.44, 2.16 -0.52, 4.59 0.56 M-2.22 -3.21 C-0.46 -1.81, 1.25 -1.07, 4.13 0.68 M4.02 0.98 C3.25 -0.54, 1.36 -2.66, -0.75 -5.82 M4.22 0.77 C2.38 -1.32, 0.96 -3.94, -0.73 -6.19 M-0.27 -6.44 C-0.08 -4.27, -0.31 -1.76, -0.09 1.3 M-0.69 -6.48 C-0.43 -3.26, -0.44 -0.46, -0.47 0.94" stroke="#1e1e1e" stroke-width="1" fill="none"></path></g></g><mask></mask><g stroke-linecap="round"><g transform="translate(166.73535502157574 89.00940388431627) rotate(8.355435066471689 0.5670664265917367 -2.457961113015699)"><path d="M0.19 -0.25 C1.25 -0.77, 2.12 -1.62, 3.21 -3.05 M-0.14 0 C1.11 -0.95, 1.97 -1.87, 3.28 -3.04 M3.47 -2.81 C2.36 -3.27, 0.84 -3.1, -1.92 -2.89 M3.34 -3.15 C1.81 -3.07, -0.06 -3.07, -2.16 -2.93 M-2.35 -2.59 C-1.69 -1.99, -0.76 -1.05, 2.02 1.62 M-2.38 -2.91 C-1.03 -1.82, 0.03 -0.73, 1.73 1.32 M1.76 0.84 C0.81 -1.04, 0.37 -2.99, -0.12 -5.85 M1.79 1.12 C1.46 -1.24, 0.74 -3.72, 0.31 -6.06 M0.63 -5.71 C-0.15 -4.22, 0.34 -3.17, -0.73 1.17 M0.35 -6.42 C0.24 -4.42, 0.13 -2.62, -0.39 1.01" stroke="#1e1e1e" stroke-width="1" fill="none"></path></g></g><mask></mask><g stroke-linecap="round" transform="translate(128.20674207264346 129.1137239665568) rotate(8.355435066471689 5.805504298413325 6.2479456547862355)"><path d="M4.58 0.7 C5.87 0.39, 7.34 -0.43, 8.4 0.2 C9.46 0.83, 10.49 3.23, 10.96 4.47 C11.42 5.72, 11.64 6.41, 11.18 7.66 C10.71 8.91, 9.33 11.05, 8.19 11.97 C7.04 12.88, 5.59 13.34, 4.33 13.14 C3.07 12.93, 1.2 11.78, 0.62 10.74 C0.04 9.7, 0.82 8.11, 0.85 6.89 C0.88 5.66, 0 4.66, 0.8 3.38 C1.6 2.09, 4.81 -0.13, 5.66 -0.81 C6.5 -1.48, 6.03 -0.97, 5.88 -0.68 M4.63 0.59 C5.72 -0.09, 8.17 -1.11, 9.33 -0.49 C10.48 0.13, 11.18 2.79, 11.56 4.31 C11.94 5.84, 12.33 7.52, 11.6 8.65 C10.87 9.79, 8.32 10.62, 7.19 11.12 C6.05 11.62, 5.69 11.98, 4.81 11.67 C3.93 11.36, 2.66 10.13, 1.92 9.25 C1.19 8.37, 0.62 7.48, 0.4 6.4 C0.17 5.31, -0.41 3.54, 0.56 2.71 C1.53 1.88, 5.66 1.58, 6.22 1.41 C6.79 1.23, 3.95 1.94, 3.93 1.66" stroke="#1e1e1e" stroke-width="2" fill="none"></path></g><g stroke-linecap="round"><g transform="translate(133.39832279499205 129.86741920401073) rotate(8.355435066471689 9.668450077799207 -2.428231073673487)"><path d="M0.73 0.51 C2.11 -1.66, 7.08 -11.41, 8.52 -12.5 C9.96 -13.6, 8.17 -5.62, 9.36 -6.05 C10.55 -6.48, 15.03 -15.16, 15.65 -15.08 C16.27 -15, 12.45 -6.03, 13.09 -5.58 C13.73 -5.13, 19.37 -13.05, 19.48 -12.37 C19.59 -11.69, 15.61 -5.04, 13.75 -1.51 C11.88 2.02, 8.98 7.21, 8.27 8.83 M-0.35 -0.27 C1.4 -2.27, 9.34 -9.63, 10.88 -10.93 C12.42 -12.22, 8.07 -7.42, 8.89 -8.03 C9.71 -8.64, 15.34 -15.04, 15.77 -14.57 C16.21 -14.1, 10.63 -5.98, 11.5 -5.22 C12.36 -4.47, 20.53 -11, 20.97 -10.04 C21.4 -9.08, 15.88 -2.53, 14.12 0.54 C12.36 3.6, 11.44 6.76, 10.42 8.35" stroke="#e8590c" stroke-width="2" fill="none"></path></g></g><mask></mask><g stroke-linecap="round"><g transform="translate(137.09165812014362 129.11818450343162) rotate(8.355435066471689 5.020898898529595 -0.9237230080334484)"><path d="M0.46 -0.54 C1.32 -1.36, 4.59 -4.66, 5.23 -5.03 C5.87 -5.39, 3.9 -2.67, 4.31 -2.73 C4.72 -2.79, 7.19 -5.59, 7.7 -5.4 C8.21 -5.22, 6.97 -1.76, 7.39 -1.63 C7.8 -1.49, 10.1 -4.84, 10.18 -4.6 C10.25 -4.36, 8.69 -1.56, 7.85 -0.19 C7.01 1.19, 5.72 3.02, 5.16 3.66 M0.03 0.38 C0.86 -0.36, 4.4 -4.02, 5.04 -4.46 C5.67 -4.89, 3.41 -2.13, 3.83 -2.21 C4.25 -2.3, 7.01 -4.84, 7.53 -4.95 C8.06 -5.06, 6.68 -2.84, 6.96 -2.87 C7.24 -2.9, 9.26 -5.49, 9.22 -5.13 C9.18 -4.76, 7.43 -2.15, 6.71 -0.7 C5.98 0.76, 5.14 2.97, 4.89 3.6" stroke="#e03131" stroke-width="1" fill="none"></path></g></g><mask></mask></svg>