<svg version="1.1" xmlns="http://www.w3.org/2000/svg" viewBox="0 0 125.43199870142416 193.67852012775984" width="125.43199870142416" height="193.67852012775984" filter="invert(93%) hue-rotate(180deg)">
  <!-- svg-source:excalidraw -->
  
  <defs>
    <style class="style-fonts">
      
    </style>
    
  </defs>
  <g stroke-linecap="round" transform="translate(16.27161851533856 10) rotate(0 46.43367597056249 86.83926006387992)"><path d="M23.22 0 C39.15 0.56, 55.37 -0.03, 69.65 0 M23.22 0 C33.47 -0.68, 43.79 0.82, 69.65 0 M69.65 0 C83.4 -0.72, 94.63 7.38, 92.87 23.22 M69.65 0 C84.08 -1.63, 93.09 7.66, 92.87 23.22 M92.87 23.22 C94.1 63.94, 92.06 104.07, 92.87 150.46 M92.87 23.22 C92.33 54.31, 91.4 85.35, 92.87 150.46 M92.87 150.46 C94.65 165.72, 86.58 172.13, 69.65 173.68 M92.87 150.46 C94.4 167.51, 83.85 175.25, 69.65 173.68 M69.65 173.68 C55.07 172.78, 40.84 174.89, 23.22 173.68 M69.65 173.68 C54.44 173.75, 38.53 172.67, 23.22 173.68 M23.22 173.68 C8.59 173.95, -0.49 165.1, 0 150.46 M23.22 173.68 C6.05 174.88, -1.52 167.06, 0 150.46 M0 150.46 C1.33 117.4, -0.67 88.81, 0 23.22 M0 150.46 C-0.7 123.17, -0.72 96.73, 0 23.22 M0 23.22 C0.1 9.25, 7.31 1.8, 23.22 0 M0 23.22 C1.42 7.73, 6.59 0.61, 23.22 0" stroke="#1e1e1e" stroke-width="4" fill="none"></path></g><g stroke-linecap="round" transform="translate(50.35620258562449 43.80899338048039) rotate(0 11.86281812700463 11.944209675046295)"><path d="M12.2 -0.04 C14.61 -0.04, 17.5 1.41, 19.46 3.08 C21.42 4.75, 23.57 7.36, 23.94 9.98 C24.31 12.61, 23.11 16.64, 21.67 18.83 C20.23 21.02, 17.77 22.42, 15.31 23.12 C12.86 23.82, 9.27 23.95, 6.94 23.02 C4.61 22.08, 2.42 19.86, 1.31 17.5 C0.19 15.15, -0.37 11.36, 0.24 8.88 C0.86 6.4, 2.93 4.07, 5 2.64 C7.08 1.2, 11.36 0.73, 12.68 0.27 C14.01 -0.19, 12.96 -0.33, 12.98 -0.12 M13.84 -0.01 C16.39 -0.09, 19.26 1.17, 20.99 3.12 C22.72 5.07, 24.2 8.96, 24.2 11.7 C24.2 14.43, 22.57 17.62, 21 19.54 C19.43 21.46, 17.12 22.72, 14.77 23.24 C12.41 23.76, 9.24 23.71, 6.88 22.65 C4.52 21.59, 1.59 19.18, 0.59 16.88 C-0.41 14.57, 0.13 11.32, 0.87 8.83 C1.61 6.34, 2.98 3.39, 5.06 1.94 C7.14 0.5, 12.05 0.55, 13.37 0.16 C14.7 -0.24, 13.02 -0.62, 13.01 -0.42" stroke="#1e1e1e" stroke-width="4" fill="none"></path></g><g stroke-linecap="round" transform="translate(49.98485364768749 78.07313944857742) rotate(0 11.86281812700463 11.944209675046295)"><path d="M9.37 0.1 C11.81 -0.53, 15.87 -0.19, 18.11 1.17 C20.36 2.54, 22.03 5.87, 22.83 8.31 C23.63 10.74, 23.82 13.47, 22.92 15.81 C22.02 18.15, 19.62 21.01, 17.43 22.34 C15.24 23.67, 12.23 24.3, 9.78 23.78 C7.33 23.25, 4.3 21.11, 2.72 19.17 C1.15 17.23, 0.36 14.57, 0.34 12.12 C0.32 9.68, 1.03 6.56, 2.61 4.49 C4.18 2.41, 8.49 0.34, 9.78 -0.31 C11.08 -0.95, 10.28 0.38, 10.39 0.63 M14.85 -0.32 C17.22 0.13, 20.29 2.89, 21.7 5.09 C23.11 7.28, 23.45 10.43, 23.3 12.85 C23.15 15.27, 22.38 17.79, 20.8 19.61 C19.22 21.43, 16.42 23.34, 13.82 23.78 C11.22 24.21, 7.33 23.54, 5.19 22.23 C3.05 20.92, 1.74 18.37, 0.98 15.9 C0.22 13.44, -0.29 9.83, 0.62 7.43 C1.54 5.03, 4.21 2.81, 6.47 1.49 C8.73 0.17, 12.82 -0.32, 14.17 -0.47 C15.52 -0.62, 14.63 0.33, 14.58 0.59" stroke="#1e1e1e" stroke-width="4" fill="none"></path></g><g stroke-linecap="round" transform="translate(58.64449596298982 66.89363036212308) rotate(0 2.9627984425210343 5.638062455240288)"><path d="M1.48 0 C2.36 -0.01, 3.24 -0.01, 4.44 0 M1.48 0 C2.62 -0.01, 3.6 -0.05, 4.44 0 M4.44 0 C5.53 -0.04, 6.07 0.4, 5.93 1.48 M4.44 0 C4.4 0.78, 6.36 0.1, 5.93 1.48 M5.93 1.48 C5.91 4.59, 6.09 7.08, 5.93 9.79 M5.93 1.48 C6.11 4.51, 6.1 7.99, 5.93 9.79 M5.93 9.79 C5.37 11.47, 5.58 10.86, 4.44 11.28 M5.93 9.79 C6.37 10.79, 4.81 11.5, 4.44 11.28 M4.44 11.28 C3.39 11.31, 2.38 11.24, 1.48 11.28 M4.44 11.28 C3.83 11.25, 3.19 11.32, 1.48 11.28 M1.48 11.28 C-0.17 11.76, -0.55 10.5, 0 9.79 M1.48 11.28 C-0.28 11.83, -1.07 10.19, 0 9.79 M0 9.79 C0.01 7.03, -0.04 4.21, 0 1.48 M0 9.79 C-0.05 7.09, 0.13 4, 0 1.48 M0 1.48 C-0.5 0.76, 0.69 0.41, 1.48 0 M0 1.48 C-0.66 0.48, 0.56 0.82, 1.48 0" stroke="#1e1e1e" stroke-width="4" fill="none"></path></g><g transform="translate(61.61890468304955 55.70224547199177) rotate(0 0.00005000000010113581 0.00004999999964638846)" stroke="none"><path fill="#1e1e1e" d="M 3.14,-3.14 Q 3.14,-3.14 3.55,-2.55 3.97,-1.97 4.18,-1.28 4.40,-0.59 4.38,0.11 4.36,0.83 4.11,1.51 3.86,2.18 3.41,2.74 2.96,3.30 2.36,3.69 1.75,4.07 1.05,4.25 0.36,4.42 -0.35,4.36 -1.07,4.30 -1.73,4.02 -2.39,3.74 -2.92,3.26 -3.46,2.78 -3.81,2.15 -4.16,1.53 -4.30,0.82 -4.43,0.11 -4.34,-0.59 -4.24,-1.30 -3.92,-1.94 -3.60,-2.59 -3.09,-3.09 -2.59,-3.60 -1.94,-3.92 -1.30,-4.24 -0.59,-4.34 0.12,-4.43 0.82,-4.30 1.53,-4.16 2.15,-3.81 2.78,-3.46 3.26,-2.92 3.74,-2.39 4.02,-1.73 4.31,-1.07 4.36,-0.35 4.42,0.36 4.25,1.05 4.07,1.75 3.69,2.36 3.30,2.96 2.74,3.41 2.18,3.86 1.51,4.11 0.83,4.36 0.11,4.38 -0.60,4.40 -1.28,4.18 -1.97,3.97 -2.55,3.55 -3.14,3.13 -3.14,3.14 -3.14,3.14 -3.47,2.71 -3.80,2.29 -4.02,1.80 -4.24,1.32 -4.33,0.79 -4.43,0.26 -4.40,-0.26 -4.36,-0.80 -4.20,-1.31 -4.04,-1.82 -3.77,-2.28 -3.49,-2.73 -3.11,-3.11 -2.73,-3.49 -2.28,-3.77 -1.82,-4.05 -1.31,-4.20 -0.80,-4.36 -0.26,-4.40 0.26,-4.43 0.79,-4.33 1.32,-4.24 1.80,-4.02 2.29,-3.80 2.71,-3.47 3.14,-3.14 3.14,-3.14 L 3.14,-3.14 Z"></path></g><g transform="translate(61.73053334290125 90.3270637150199) rotate(0 0.00005000000010113581 0.00004999999964638846)" stroke="none"><path fill="#1e1e1e" d="M 3.14,-3.14 Q 3.14,-3.14 3.55,-2.55 3.97,-1.97 4.18,-1.28 4.40,-0.59 4.38,0.11 4.36,0.83 4.11,1.51 3.86,2.18 3.41,2.74 2.96,3.30 2.36,3.69 1.75,4.07 1.05,4.25 0.36,4.42 -0.35,4.36 -1.07,4.30 -1.73,4.02 -2.39,3.74 -2.92,3.26 -3.46,2.78 -3.81,2.15 -4.16,1.53 -4.30,0.82 -4.43,0.11 -4.34,-0.59 -4.24,-1.30 -3.92,-1.94 -3.60,-2.59 -3.09,-3.09 -2.59,-3.60 -1.94,-3.92 -1.30,-4.24 -0.59,-4.34 0.12,-4.43 0.82,-4.30 1.53,-4.16 2.15,-3.81 2.78,-3.46 3.26,-2.92 3.74,-2.39 4.02,-1.73 4.31,-1.07 4.36,-0.35 4.42,0.36 4.25,1.05 4.07,1.75 3.69,2.36 3.30,2.96 2.74,3.41 2.18,3.86 1.51,4.11 0.83,4.36 0.11,4.38 -0.60,4.40 -1.28,4.18 -1.97,3.97 -2.55,3.55 -3.14,3.13 -3.14,3.14 -3.14,3.14 -3.47,2.71 -3.80,2.29 -4.02,1.80 -4.24,1.32 -4.33,0.79 -4.43,0.26 -4.40,-0.26 -4.36,-0.80 -4.20,-1.31 -4.04,-1.82 -3.77,-2.28 -3.49,-2.73 -3.11,-3.11 -2.73,-3.49 -2.28,-3.77 -1.82,-4.05 -1.31,-4.20 -0.80,-4.36 -0.26,-4.40 0.26,-4.43 0.79,-4.33 1.32,-4.24 1.80,-4.02 2.29,-3.80 2.71,-3.47 3.14,-3.14 3.14,-3.14 L 3.14,-3.14 Z"></path></g><g stroke-linecap="round" transform="translate(44.846533896185065 113.39989882999362) rotate(0 17.52504641149244 17.52504641149244)"><path d="M21 0.47 C24.54 1.08, 29.1 4.05, 31.43 6.96 C33.76 9.86, 35.1 14.11, 34.99 17.88 C34.87 21.65, 33.32 26.7, 30.76 29.58 C28.2 32.45, 23.43 34.75, 19.6 35.13 C15.78 35.51, 10.92 33.86, 7.78 31.84 C4.65 29.83, 1.85 26.59, 0.81 23.05 C-0.22 19.52, 0.06 14.06, 1.57 10.62 C3.08 7.17, 6.52 4.03, 9.88 2.41 C13.24 0.79, 19.74 1.07, 21.71 0.88 C23.68 0.7, 21.7 1.12, 21.7 1.3 M20.8 0.26 C24.26 0.73, 28.07 3.45, 30.51 6.36 C32.95 9.27, 35.4 13.99, 35.44 17.71 C35.48 21.44, 33.19 25.83, 30.76 28.69 C28.32 31.54, 24.5 34.3, 20.82 34.86 C17.14 35.41, 11.91 33.87, 8.68 32 C5.44 30.14, 2.7 27.13, 1.4 23.68 C0.09 20.22, -0.27 14.76, 0.85 11.27 C1.98 7.79, 4.97 4.54, 8.16 2.77 C11.35 0.99, 18.04 1.02, 20.01 0.62 C21.99 0.23, 20.09 0.1, 20.04 0.39" stroke="#1e1e1e" stroke-width="4" fill="none"></path></g><g stroke-linecap="round" transform="translate(49.844760300380585 118.80567020127637) rotate(0 12.654910872206528 12.730124549286302)"><path d="M16.25 3.25 C17.31 4.19, 18.09 6.06, 22.06 9.75 M16.25 3.25 C17.59 5.48, 19.87 6.96, 22.06 9.75 M22.06 9.75 C26.21 11.82, 23.54 13.04, 22.06 16.25 M22.06 9.75 C26.65 14.02, 24.53 14.91, 22.06 16.25 M22.06 16.25 C19.15 19.17, 18.1 20.47, 16.25 22.21 M22.06 16.25 C20.09 18.43, 17.56 20.7, 16.25 22.21 M16.25 22.21 C14.04 26.12, 12.38 25.31, 9.75 22.21 M16.25 22.21 C13.59 25.72, 12.58 23.22, 9.75 22.21 M9.75 22.21 C7.15 19.51, 5.75 17.53, 3.25 16.25 M9.75 22.21 C7.22 20.33, 4.84 17.81, 3.25 16.25 M3.25 16.25 C0.77 11.26, 1.29 12.86, 3.25 9.75 M3.25 16.25 C0.27 12.57, 0.22 14.11, 3.25 9.75 M3.25 9.75 C6.01 8.35, 7.16 5.34, 9.75 3.25 M3.25 9.75 C5.1 7.6, 7.51 5.8, 9.75 3.25 M9.75 3.25 C11.4 1.63, 11.83 0.83, 16.25 3.25 M9.75 3.25 C14.96 -0.43, 13.93 2.03, 16.25 3.25" stroke="#1e1e1e" stroke-width="4" fill="none"></path></g><g stroke-linecap="round" transform="translate(58.74290178507181 127.30677294450288) rotate(0 3.678759662961511 4.067130657250345)"><path d="M5 1.25 C5.46 2.23, 6.05 3.21, 6.36 3.75 M5 1.25 C5.4 1.96, 5.8 2.67, 6.36 3.75 M6.36 3.75 C6.77 5.01, 7.75 5.3, 6.36 6.25 M6.36 3.75 C7.1 5.64, 8.04 4.92, 6.36 6.25 M6.36 6.25 C5.88 6.46, 5.38 6.73, 5 6.88 M6.36 6.25 C5.99 6.42, 5.67 6.59, 5 6.88 M5 6.88 C3.79 8.08, 4.17 8.21, 3 6.88 M5 6.88 C3.86 7.39, 4.33 8.24, 3 6.88 M3 6.88 C2.49 6.66, 1.93 6.49, 1 6.25 M3 6.88 C2.43 6.7, 1.93 6.51, 1 6.25 M1 6.25 C0.43 4.95, 0.08 4.88, 1 3.75 M1 6.25 C0.07 5.37, 0.04 5.58, 1 3.75 M1 3.75 C1.55 3, 2.14 2.37, 3 1.25 M1 3.75 C1.69 2.93, 2.33 2.09, 3 1.25 M3 1.25 C3.61 0.28, 4.57 -0.12, 5 1.25 M3 1.25 C4.31 0.68, 3.89 -0.48, 5 1.25" stroke="#1e1e1e" stroke-width="4" fill="none"></path></g><g stroke-linecap="round" transform="translate(10 27.821880632611283) rotate(0 6.1254456538549675 6.355702708818171)"><path d="M6.68 0.19 C7.91 0.27, 9.18 1.05, 10.05 1.86 C10.92 2.67, 11.68 3.67, 11.9 5.03 C12.11 6.39, 11.94 8.82, 11.33 10.02 C10.72 11.22, 9.42 11.79, 8.24 12.23 C7.06 12.68, 5.51 13.11, 4.24 12.69 C2.98 12.27, 1.41 10.92, 0.66 9.7 C-0.09 8.48, -0.59 6.8, -0.25 5.36 C0.09 3.93, 1.5 1.95, 2.7 1.07 C3.89 0.19, 6.28 0.21, 6.93 0.09 C7.58 -0.03, 6.67 0.31, 6.61 0.36 M6.19 -0.05 C7.4 -0.1, 9.5 0.96, 10.48 1.77 C11.46 2.58, 11.88 3.47, 12.07 4.82 C12.25 6.18, 12.31 8.68, 11.6 9.9 C10.88 11.11, 9.16 11.66, 7.76 12.11 C6.36 12.56, 4.47 13.02, 3.21 12.61 C1.94 12.2, 0.76 10.94, 0.18 9.63 C-0.39 8.32, -0.55 6.07, -0.26 4.74 C0.03 3.41, 0.91 2.51, 1.91 1.66 C2.91 0.81, 4.93 -0.02, 5.73 -0.38 C6.52 -0.74, 6.51 -0.68, 6.7 -0.52" stroke="#1e1e1e" stroke-width="4" fill="none"></path></g><g stroke-linecap="round" transform="translate(101.99488140975154 25.9478870979583) rotate(0 6.311416454558639 6.355702708818171)"><path d="M4.74 0.38 C5.87 -0.09, 7.67 -0.37, 8.9 0.26 C10.13 0.89, 11.53 2.88, 12.14 4.18 C12.75 5.49, 12.9 6.74, 12.56 8.07 C12.23 9.39, 11.33 11.32, 10.15 12.14 C8.96 12.97, 6.94 13.21, 5.47 13.02 C3.99 12.83, 2.15 12.11, 1.29 11.01 C0.44 9.9, 0.29 7.79, 0.35 6.39 C0.4 4.98, 0.86 3.6, 1.63 2.58 C2.39 1.57, 4.31 0.74, 4.95 0.3 C5.58 -0.14, 5.35 -0.19, 5.42 -0.08 M7.03 0.1 C8.33 0.02, 9.64 0.15, 10.62 1.11 C11.6 2.07, 12.8 4.45, 12.91 5.88 C13.03 7.3, 12.23 8.5, 11.32 9.66 C10.4 10.83, 8.78 12.41, 7.42 12.88 C6.07 13.35, 4.38 13.17, 3.17 12.49 C1.97 11.82, 0.77 10.08, 0.19 8.85 C-0.39 7.62, -0.6 6.45, -0.3 5.1 C0 3.76, 0.74 1.73, 1.97 0.78 C3.21 -0.18, 6.23 -0.52, 7.12 -0.63 C8.01 -0.74, 7.35 -0.09, 7.31 0.1" stroke="#1e1e1e" stroke-width="4" fill="none"></path></g><g stroke-linecap="round" transform="translate(102.49421962215092 154.2337847322051) rotate(0 6.468889539636621 6.355702708818171)"><path d="M6.78 -0.41 C8.13 -0.36, 10.02 1.17, 11.08 2.18 C12.14 3.2, 12.96 4.29, 13.14 5.67 C13.32 7.05, 13.01 9.28, 12.16 10.48 C11.31 11.68, 9.52 12.54, 8.05 12.87 C6.57 13.19, 4.5 13.12, 3.31 12.43 C2.13 11.74, 1.39 10.01, 0.93 8.73 C0.47 7.45, 0.3 5.98, 0.57 4.74 C0.85 3.51, 1.46 2.14, 2.58 1.32 C3.71 0.49, 6.46 -0.08, 7.3 -0.22 C8.13 -0.36, 7.58 0.34, 7.59 0.47 M6.21 -0.73 C7.54 -0.83, 9.78 0.59, 10.85 1.51 C11.92 2.44, 12.51 3.43, 12.63 4.82 C12.76 6.2, 12.3 8.51, 11.58 9.82 C10.86 11.12, 9.57 12.26, 8.3 12.65 C7.03 13.04, 5.28 12.6, 3.96 12.15 C2.65 11.71, 1.19 11.2, 0.42 10 C-0.34 8.81, -0.96 6.5, -0.62 4.98 C-0.27 3.47, 1.26 1.75, 2.5 0.91 C3.74 0.07, 6.17 0.1, 6.83 -0.05 C7.48 -0.21, 6.5 -0.19, 6.44 -0.01" stroke="#1e1e1e" stroke-width="4" fill="none"></path></g><g stroke-linecap="round" transform="translate(10.855270262600243 155.62207200832927) rotate(0 5.981946075914038 6.355702708818171)"><path d="M6.66 0.33 C7.97 0.44, 9.59 0.79, 10.54 1.81 C11.49 2.82, 12.33 4.96, 12.37 6.41 C12.4 7.85, 11.63 9.42, 10.74 10.49 C9.84 11.57, 8.18 12.66, 7 12.87 C5.82 13.08, 4.69 12.42, 3.66 11.77 C2.63 11.12, 1.44 10.14, 0.84 8.97 C0.24 7.8, -0.27 6.11, 0.04 4.75 C0.34 3.38, 1.53 1.53, 2.68 0.79 C3.83 0.05, 6.2 0.45, 6.96 0.33 C7.71 0.21, 7.25 -0.01, 7.21 0.08 M6.47 0.1 C7.68 0.13, 8.96 0.34, 9.77 1.29 C10.58 2.24, 11.21 4.36, 11.35 5.82 C11.48 7.28, 11.23 8.99, 10.58 10.05 C9.93 11.11, 8.68 11.74, 7.46 12.17 C6.24 12.6, 4.51 13.16, 3.27 12.63 C2.03 12.1, 0.5 10.36, 0.03 8.99 C-0.45 7.63, -0.04 5.7, 0.41 4.43 C0.86 3.15, 1.78 2.08, 2.75 1.32 C3.72 0.56, 5.66 0, 6.24 -0.14 C6.81 -0.28, 6.23 0.27, 6.22 0.49" stroke="#1e1e1e" stroke-width="4" fill="none"></path></g><g stroke-linecap="round"><g transform="translate(40.633862171091096 152.40377427265048) rotate(0 22.72214981941579 5.922199962094965)"><path d="M0.25 -0.33 C1.98 1.58, 5.19 9.2, 10.57 11.27 C15.96 13.34, 26.77 13.57, 32.55 12.09 C38.33 10.61, 43.03 4.1, 45.26 2.4 M-0.29 0.7 C1.59 2.72, 6.11 10.23, 11.56 11.98 C17 13.72, 26.75 12.9, 32.37 11.15 C37.99 9.4, 43.08 2.99, 45.27 1.48" stroke="#1971c2" stroke-width="4" fill="none"></path></g></g><mask></mask></svg>