<svg version="1.1" xmlns="http://www.w3.org/2000/svg" viewBox="0 0 186.12304241974834 113.32807916858837" width="186.12304241974834" height="113.32807916858837" filter="invert(93%) hue-rotate(180deg)"><!-- svg-source:excalidraw --><metadata></metadata><defs><style class="style-fonts">
      </style></defs><g stroke-linecap="round"><g transform="translate(135.37404777229585 51.38680307283721) rotate(0 17.777159742758613 -18.227247328572957)"><path d="M0 0 C8.65 -8.71, 16.93 -17.47, 35.55 -36.45 M0 0 C11.22 -11.46, 21.69 -22.26, 35.55 -36.45 M35.55 -36.45 C25.97 -35.58, 17.05 -36.46, 0.67 -36.01 M35.55 -36.45 C24.74 -36.21, 15.03 -36.55, 0.67 -36.01" stroke="#e8590c" stroke-width="2" fill="none"></path></g></g><mask></mask><g stroke-linecap="round"><g transform="translate(134.87022915967918 16.29069470574177) rotate(0 -19.298829206145456 19.82289438938733)"><path d="M0.4 -0.55 C-6.14 6.09, -31.44 33.18, -38.07 39.71 M-0.85 1.78 C-7.6 8.64, -32.73 35.01, -38.73 41.28" stroke="#e8590c" stroke-width="2" fill="none"></path></g></g><mask></mask><g stroke-linecap="round"><g transform="translate(95.80011724505948 57.321870352257974) rotate(0 -23.316844820031747 -21.176306532518538)"><path d="M0.53 0.07 C-7.44 -7.07, -39.64 -36.09, -47.41 -43.35 M-0.65 -0.94 C-8.27 -7.91, -37.45 -35.37, -45.1 -42.33" stroke="#e8590c" stroke-width="2" fill="none"></path></g></g><mask></mask><g stroke-linecap="round"><g transform="translate(95.67355176446017 91.25233841718364) rotate(0 38.20454255258255 -19.809878695543375)"><path d="M0 0 C10.45 -7.6, 15.95 -17.69, 22.73 -23.23 M0 0 C5.94 -7.52, 12.51 -12.44, 22.73 -23.23 M22.73 -23.23 C26.65 -19.59, 32.31 -16.64, 43.47 -5.17 M22.73 -23.23 C27.41 -19.93, 31.27 -15.4, 43.47 -5.17 M43.47 -5.17 C54.32 -2.97, 62.21 -3.34, 76.41 -3.72 M43.47 -5.17 C50.8 -4.27, 57.94 -3.93, 76.41 -3.72 M76.41 -3.72 C66.35 -14.42, 54.93 -24.58, 38.98 -39.62 M76.41 -3.72 C60.68 -17.42, 45.64 -32.28, 38.98 -39.62" stroke="#e8590c" stroke-width="2" fill="none"></path></g></g><mask></mask><g stroke-linecap="round"><g transform="translate(72.54172773502341 18.061607229095898) rotate(0 18.882036585695005 10.202365585523694)"><path d="M0 0 C7.95 7.33, 15.83 15.94, 23.98 22.26 M0 0 C5.59 5.34, 11.5 10.27, 23.98 22.26 M23.98 22.26 C26.66 18.96, 29.67 16.11, 37.76 7.16 M23.98 22.26 C26.98 18.16, 30.95 14.68, 37.76 7.16 M37.76 7.16 C36.16 5.18, 33.5 2.36, 29.02 -1.85 M37.76 7.16 C34.45 3.93, 31 0.07, 29.02 -1.85 M29.02 -1.85 C17.5 -2.45, 6.78 -1.5, 1.02 -0.97 M29.02 -1.85 C20.95 -1.98, 13.59 -1.66, 1.02 -0.97" stroke="#1e1e1e" stroke-width="2" fill="none"></path></g></g><mask></mask><g stroke-linecap="round"><g transform="translate(14.518895488435192 14.538427119790867) rotate(0 19.35668132875071 -2.2692135598954337)"><path d="M0 0 C3.5 -0.7, 6.27 -2.98, 12.47 -4.45 M0 0 C4.22 -1.34, 8.52 -3.04, 12.47 -4.45 M12.47 -4.45 C19.97 -3.53, 27.09 -4.37, 38.71 -4.54 M12.47 -4.45 C19.47 -4.11, 26.2 -4.14, 38.71 -4.54" stroke="#e8590c" stroke-width="2" fill="none"></path></g></g><mask></mask><g stroke-linecap="round"><g transform="translate(172.53608330259976 87.47515435334026) rotate(0 -16.695842058006292 -19.795029534539935)"><path d="M0 0 C0.02 -3.19, -0.48 -6.43, -0.94 -8.61 M0 0 C-0.2 -3.37, -0.56 -6.75, -0.94 -8.61 M-0.94 -8.61 C-8.96 -17.39, -17.29 -23.62, -33.39 -39.59 M-0.94 -8.61 C-9.34 -16.17, -18.14 -24.3, -33.39 -39.59" stroke="#e8590c" stroke-width="2" fill="none"></path></g></g><mask></mask><g stroke-linecap="round"><g transform="translate(136.3642253105063 14.989910881549804) rotate(0 19.879408554621023 -1.7449705618146254)"><path d="M0 0 C2.08 -1.07, 4.51 -2.27, 7.77 -4.12 M0 0 C3.04 -1.63, 5.95 -3.32, 7.77 -4.12 M7.77 -4.12 C15.86 -4.91, 25.74 -5.13, 39.76 -4.14 M7.77 -4.12 C20.28 -4.22, 32.56 -3.92, 39.76 -4.14 M39.76 -4.14 C37.94 -2.26, 36.21 -0.85, 34.43 0.65 M39.76 -4.14 C37.8 -2.32, 35.44 -0.35, 34.43 0.65" stroke="#e8590c" stroke-width="2" fill="none"></path></g></g><mask></mask><g stroke-linecap="round"><g transform="translate(72.42223172676495 16.35177656702035) rotate(0 16.78104699953792 -2.3277329467218806)"><path d="M0 0 C2.33 -1.25, 4.51 -2.54, 7.52 -3.81 M0 0 C2.06 -1.04, 3.92 -1.68, 7.52 -3.81 M7.52 -3.81 C13.42 -4.61, 18.81 -4.03, 33.56 -4.66 M7.52 -3.81 C15.16 -4.51, 22.8 -4.21, 33.56 -4.66 M33.56 -4.66 C31.59 -3.08, 30.17 -2.12, 27.72 -0.35 M33.56 -4.66 C32.21 -3.64, 30.55 -2.39, 27.72 -0.35" stroke="#1e1e1e" stroke-width="2" fill="none"></path></g></g><mask></mask><g stroke-linecap="round"><g transform="translate(110.55306064070646 25.24079942598837) rotate(0 -0.2608183915845075 -6.562089530340927)"><path d="M0 0 C1.09 -0.77, 1.64 -2.05, 3.96 -4.37 M0 0 C1.43 -1.51, 2.61 -2.95, 3.96 -4.37 M3.96 -4.37 C2.04 -5.84, 0.49 -8.43, -4.48 -13.12 M3.96 -4.37 C1.28 -7.04, -1.19 -9.79, -4.48 -13.12" stroke="#1e1e1e" stroke-width="2" fill="none"></path></g></g><mask></mask><g stroke-linecap="round"><g transform="translate(48.222158510537156 102.98971411062485) rotate(0 3.62020061369185 -14.230017303873865)"><path d="M0 0 C0.97 0.03, 4.87 0.64, 5.82 0.15 C6.77 -0.34, 5.14 -2.1, 5.69 -2.93 C6.24 -3.77, 8.09 -4.88, 9.12 -4.86 C10.15 -4.84, 10.76 -2.36, 11.88 -2.81 C12.99 -3.27, 15.61 -6.46, 15.82 -7.58 C16.04 -8.7, 13.47 -8.67, 13.15 -9.51 C12.83 -10.35, 13.24 -12.1, 13.91 -12.62 C14.58 -13.14, 16.61 -11.68, 17.16 -12.61 C17.7 -13.53, 17.68 -17.24, 17.16 -18.17 C16.65 -19.1, 14.8 -17.8, 14.06 -18.16 C13.33 -18.53, 12.64 -19.53, 12.76 -20.37 C12.89 -21.21, 15.14 -22.14, 14.83 -23.21 C14.52 -24.28, 11.93 -26.57, 10.92 -26.77 C9.9 -26.96, 9.51 -24.59, 8.73 -24.37 C7.95 -24.16, 6.64 -24.77, 6.26 -25.46 C5.87 -26.15, 7.28 -27.98, 6.43 -28.5 C5.58 -29.03, 2.03 -29.08, 1.14 -28.61 C0.24 -28.14, 1.42 -26.39, 1.04 -25.71 C0.67 -25.03, -0.32 -24.33, -1.12 -24.53 C-1.91 -24.74, -2.63 -27.21, -3.73 -26.94 C-4.84 -26.67, -7.44 -23.9, -7.74 -22.92 C-8.04 -21.94, -5.67 -21.82, -5.52 -21.07 C-5.36 -20.32, -6.11 -18.91, -6.81 -18.44 C-7.5 -17.98, -9.17 -19.21, -9.69 -18.28 C-10.21 -17.34, -10.33 -13.71, -9.92 -12.81 C-9.51 -11.91, -7.84 -13.38, -7.22 -12.87 C-6.6 -12.36, -5.93 -10.53, -6.19 -9.75 C-6.44 -8.96, -8.91 -9.26, -8.75 -8.17 C-8.59 -7.09, -6.27 -3.8, -5.23 -3.25 C-4.2 -2.69, -3.43 -4.85, -2.55 -4.86 C-1.67 -4.86, -0.36 -4.1, 0.07 -3.29 C0.49 -2.48, 0.01 -0.55, 0 0 M0 0 C0.97 0.03, 4.87 0.64, 5.82 0.15 C6.77 -0.34, 5.14 -2.1, 5.69 -2.93 C6.24 -3.77, 8.09 -4.88, 9.12 -4.86 C10.15 -4.84, 10.76 -2.36, 11.88 -2.81 C12.99 -3.27, 15.61 -6.46, 15.82 -7.58 C16.04 -8.7, 13.47 -8.67, 13.15 -9.51 C12.83 -10.35, 13.24 -12.1, 13.91 -12.62 C14.58 -13.14, 16.61 -11.68, 17.16 -12.61 C17.7 -13.53, 17.68 -17.24, 17.16 -18.17 C16.65 -19.1, 14.8 -17.8, 14.06 -18.16 C13.33 -18.53, 12.64 -19.53, 12.76 -20.37 C12.89 -21.21, 15.14 -22.14, 14.83 -23.21 C14.52 -24.28, 11.93 -26.57, 10.92 -26.77 C9.9 -26.96, 9.51 -24.59, 8.73 -24.37 C7.95 -24.16, 6.64 -24.77, 6.26 -25.46 C5.87 -26.15, 7.28 -27.98, 6.43 -28.5 C5.58 -29.03, 2.03 -29.08, 1.14 -28.61 C0.24 -28.14, 1.42 -26.39, 1.04 -25.71 C0.67 -25.03, -0.32 -24.33, -1.12 -24.53 C-1.91 -24.74, -2.63 -27.21, -3.73 -26.94 C-4.84 -26.67, -7.44 -23.9, -7.74 -22.92 C-8.04 -21.94, -5.67 -21.82, -5.52 -21.07 C-5.36 -20.32, -6.11 -18.91, -6.81 -18.44 C-7.5 -17.98, -9.17 -19.21, -9.69 -18.28 C-10.21 -17.34, -10.33 -13.71, -9.92 -12.81 C-9.51 -11.91, -7.84 -13.38, -7.22 -12.87 C-6.6 -12.36, -5.93 -10.53, -6.19 -9.75 C-6.44 -8.96, -8.91 -9.26, -8.75 -8.17 C-8.59 -7.09, -6.27 -3.8, -5.23 -3.25 C-4.2 -2.69, -3.43 -4.85, -2.55 -4.86 C-1.67 -4.86, -0.36 -4.1, 0.07 -3.29 C0.49 -2.48, 0.01 -0.55, 0 0" stroke="#000000" stroke-width="2" fill="none"></path></g></g><mask></mask><g stroke-linecap="round"><g transform="translate(31.93067752647312 91.52592208696296) rotate(0 2.784435548501733 -22.12893514861753)"><path d="M0 0 C-5.93 0.51, -13.32 0.23, -21.69 0 M0 0 C-8.41 0.3, -17.09 -0.18, -21.69 0 M-21.69 0 C-22.16 -15.44, -21.82 -30.05, -21.69 -44.26 M-21.69 0 C-21.67 -13.62, -21.56 -26.97, -21.69 -44.26 M-21.69 -44.26 C-9.29 -45.05, 1.51 -45.13, 27.26 -44.26 M-21.69 -44.26 C-3.56 -44.23, 15.65 -44.08, 27.26 -44.26 M27.26 -44.26 C26.6 -36.09, 26.33 -26.81, 27.26 -21.4 M27.26 -44.26 C27.37 -38, 27.17 -31.01, 27.26 -21.4" stroke="#000000" stroke-width="2" fill="none"></path></g></g><mask></mask><g stroke-linecap="round" transform="translate(14.637867277884652 61.043680292814315) rotate(0 4.543026421239574 2.344787830316818)"><path d="M1.17 0 C3.07 -0.14, 4.51 -0.02, 7.91 0 M1.17 0 C3 0.09, 5.01 -0.1, 7.91 0 M7.91 0 C9.11 0.19, 8.59 0.61, 9.09 1.17 M7.91 0 C8.17 -0.72, 9.71 1.06, 9.09 1.17 M9.09 1.17 C9.13 2.02, 9.03 2.74, 9.09 3.52 M9.09 1.17 C9.1 1.77, 9.08 2.39, 9.09 3.52 M9.09 3.52 C9.1 4.85, 9.15 4.78, 7.91 4.69 M9.09 3.52 C8.76 3.81, 8.25 5.28, 7.91 4.69 M7.91 4.69 C5.67 4.55, 3.57 4.68, 1.17 4.69 M7.91 4.69 C5.88 4.73, 3.88 4.62, 1.17 4.69 M1.17 4.69 C0.64 4.44, -0.31 4.1, 0 3.52 M1.17 4.69 C-0.35 5.09, -0.14 4.33, 0 3.52 M0 3.52 C0.04 2.82, -0.05 2.12, 0 1.17 M0 3.52 C0.01 2.8, 0.03 2.17, 0 1.17 M0 1.17 C-0.32 0.35, 0.54 -0.44, 1.17 0 M0 1.17 C-0.65 0.28, 0.47 0.04, 1.17 0" stroke="#000000" stroke-width="1" fill="none"></path></g><g stroke-linecap="round" transform="translate(30.02553741433985 68.66424074134738) rotate(0 4.543026421239574 2.344787830316818)"><path d="M1.17 0 C2.9 -0.01, 4.7 0.22, 7.91 0 M1.17 0 C3.73 -0.11, 6.22 0.01, 7.91 0 M7.91 0 C8.2 0.22, 8.63 -0.24, 9.09 1.17 M7.91 0 C9.32 0.67, 9.4 -0.36, 9.09 1.17 M9.09 1.17 C9.04 1.78, 9.06 2.39, 9.09 3.52 M9.09 1.17 C9.09 1.79, 9.09 2.39, 9.09 3.52 M9.09 3.52 C9.54 4.38, 8.41 4.27, 7.91 4.69 M9.09 3.52 C8.64 4.88, 8.91 3.99, 7.91 4.69 M7.91 4.69 C6.64 4.69, 5.22 4.65, 1.17 4.69 M7.91 4.69 C6.33 4.64, 4.68 4.66, 1.17 4.69 M1.17 4.69 C0.08 4.49, -0.64 4.64, 0 3.52 M1.17 4.69 C0.25 4.72, 0.01 3.9, 0 3.52 M0 3.52 C-0.06 3, -0.01 2.44, 0 1.17 M0 3.52 C0.03 2.79, -0.02 1.99, 0 1.17 M0 1.17 C0.15 -0.05, -0.17 -0.09, 1.17 0 M0 1.17 C0.08 0.43, 1.03 -0.38, 1.17 0" stroke="#000000" stroke-width="1" fill="none"></path></g><g stroke-linecap="round" transform="translate(45.26665831140144 57.52649854734045) rotate(0 4.543026421239574 2.344787830316818)"><path d="M1.17 0 C2.69 0.2, 4.46 -0.11, 7.91 0 M1.17 0 C3.92 0.05, 6.44 0.05, 7.91 0 M7.91 0 C8.24 -0.63, 9.63 0.98, 9.09 1.17 M7.91 0 C9.01 -0.75, 8.86 0.93, 9.09 1.17 M9.09 1.17 C9.05 1.96, 9.04 2.9, 9.09 3.52 M9.09 1.17 C9.09 1.92, 9.11 2.61, 9.09 3.52 M9.09 3.52 C8.8 3.88, 8.31 5.2, 7.91 4.69 M9.09 3.52 C9.3 3.6, 7.93 4.56, 7.91 4.69 M7.91 4.69 C6.24 4.66, 4.43 4.71, 1.17 4.69 M7.91 4.69 C5.63 4.64, 3.21 4.64, 1.17 4.69 M1.17 4.69 C-0.25 5.03, -0.12 4.32, 0 3.52 M1.17 4.69 C0.4 4.29, -0.56 4.68, 0 3.52 M0 3.52 C0 2.78, 0.02 2.09, 0 1.17 M0 3.52 C-0.03 3, 0 2.47, 0 1.17 M0 1.17 C-0.56 0.3, 0.46 0.04, 1.17 0 M0 1.17 C0.64 0.02, 0.71 0.72, 1.17 0" stroke="#000000" stroke-width="1" fill="none"></path></g><g stroke-linecap="round" transform="translate(16.689556629411527 65.73325595344795) rotate(0 2.49133706971179 10.111897518242586)"><path d="M0 0 C1.61 -0.15, 3.12 0.14, 4.98 0 M0 0 C1.02 0.03, 2.13 -0.12, 4.98 0 M4.98 0 C4.09 7.43, 5.78 16.04, 4.98 20.22 M4.98 0 C4.61 4.46, 5.25 9.41, 4.98 20.22 M4.98 20.22 C3.71 20.39, 2.04 20.12, 0 20.22 M4.98 20.22 C3.84 20.13, 2.5 20.22, 0 20.22 M0 20.22 C-0.01 15.07, -0.61 10.27, 0 0 M0 20.22 C0.15 13.06, -0.28 6.11, 0 0" stroke="#000000" stroke-width="1" fill="none"></path></g><g stroke-linecap="round" transform="translate(32.077226765867636 50.638684295783605) rotate(0 2.6378863091067615 8.939503603083722)"><path d="M0 0 C2.31 0.18, 3.91 0.18, 5.28 0 M0 0 C1.64 -0.13, 3.57 0.11, 5.28 0 M5.28 0 C5.82 6.63, 4.58 11.87, 5.28 17.88 M5.28 0 C5.49 4.58, 5.21 9.4, 5.28 17.88 M5.28 17.88 C3.71 17.79, 1.91 17.74, 0 17.88 M5.28 17.88 C3.16 17.83, 1.24 17.9, 0 17.88 M0 17.88 C-0.51 12.47, 0.4 7.29, 0 0 M0 17.88 C-0.24 13.27, -0.47 9.16, 0 0" stroke="#000000" stroke-width="1" fill="none"></path></g><g stroke-linecap="round" transform="translate(16.689556629411527 50.638684295783605) rotate(0 2.49133706971179 5.129223378819006)"><path d="M0 0 C1.04 0.14, 2.54 -0.2, 4.98 0 M0 0 C1.76 0.13, 3.37 -0.1, 4.98 0 M4.98 0 C4.67 2.58, 4.79 5.21, 4.98 10.26 M4.98 0 C5.01 2.77, 5.02 5.42, 4.98 10.26 M4.98 10.26 C2.99 10.1, 1.51 10.32, 0 10.26 M4.98 10.26 C3.88 10.3, 2.91 10.26, 0 10.26 M0 10.26 C0.26 7.54, -0.23 4.56, 0 0 M0 10.26 C-0.22 7.69, -0.02 4.87, 0 0" stroke="#000000" stroke-width="1" fill="none"></path></g><g stroke-linecap="round" transform="translate(47.31834766292923 50.638684295783605) rotate(0 2.1982385909223012 3.517181745475682)"><path d="M0 0 C1.64 -0.12, 3.24 -0.11, 4.4 0 M0 0 C0.94 -0.08, 1.79 0.04, 4.4 0 M4.4 0 C4.27 2.37, 4.27 5.19, 4.4 7.03 M4.4 0 C4.4 2.25, 4.48 4.32, 4.4 7.03 M4.4 7.03 C3.38 7.07, 2 6.88, 0 7.03 M4.4 7.03 C3.15 7.04, 1.89 7, 0 7.03 M0 7.03 C-0.13 4.94, -0.1 2.56, 0 0 M0 7.03 C0 5.14, 0.02 3.18, 0 0" stroke="#000000" stroke-width="1" fill="none"></path></g><g stroke-linecap="round"><g transform="translate(31.93067752647312 85.95705098994404) rotate(0 0 -6.0085188151879265)"><path d="M0 0 C0.18 -4.76, -0.58 -8.2, 0 -12.02 M0 0 C-0.11 -4.45, 0.15 -9.53, 0 -12.02" stroke="#000000" stroke-width="1" fill="none"></path></g></g><mask></mask><g stroke-linecap="round"><g transform="translate(47.31834766292923 70.12973313529619) rotate(0 0 -3.956829463660142)"><path d="M0 0 C-0.26 -1.57, 0.22 -3.46, 0 -7.91 M0 0 C0.09 -1.69, -0.04 -3.25, 0 -7.91" stroke="#000000" stroke-width="1" fill="none"></path></g></g><mask></mask><g stroke-linecap="round"><g transform="translate(51.71482484477383 70.27628237469253) rotate(0 0 -3.956829463660142)"><path d="M0 0 C0.26 -1.72, -0.23 -3.74, 0 -7.91 M0 0 C-0.07 -2.99, -0.1 -5.93, 0 -7.91" stroke="#000000" stroke-width="1" fill="none"></path></g></g><mask></mask><g stroke-linecap="round"><g transform="translate(37.35299938408116 74.08656259895724) rotate(0 0 1.3189431545533807)"><path d="M0 0 C-0.08 0.98, 0.07 2.07, 0 2.64 M0 0 C-0.03 0.59, 0.02 1.23, 0 2.64" stroke="#000000" stroke-width="1" fill="none"></path></g></g><mask></mask><g stroke-linecap="round"><g transform="translate(50.0475792433499 14.597382672194726) rotate(0 -17.731297739862384 11.614818410589578)"><path d="M0 0 C-11.16 0.44, -23.73 0.22, -35.46 0.55 M0 0 C-8.36 0.21, -17.17 0.76, -35.46 0.55 M-35.46 0.55 C-26.43 8.98, -18.09 16.39, -8.74 23.23 M-35.46 0.55 C-29.6 5.63, -23.09 10.81, -8.74 23.23" stroke="#e8590c" stroke-width="2" fill="none"></path></g></g><mask></mask><g stroke-linecap="round"><g transform="translate(95.63921619548637 91.1692811378507) rotate(0 -13.12581638272195 -12.608304406913703)"><path d="M0 0 C-9.09 -9.14, -19.42 -18.79, -26.25 -25.22 M0 0 C-7.54 -7.45, -15.78 -14.83, -26.25 -25.22" stroke="#e8590c" stroke-width="2" fill="none"></path></g></g><mask></mask><g stroke-linecap="round"><g transform="translate(49.8875373269002 13.944296686493544) rotate(0 24.603223307981807 17.772575081694413)"><path d="M0 0 C0.79 -0.78, 1.88 -1.49, 4.01 -3.13 M0 0 C1.45 -1.24, 2.9 -2.28, 4.01 -3.13 M4.01 -3.13 C18.38 10.22, 32.67 24.25, 49.21 38.67 M4.01 -3.13 C14.87 6.83, 26.38 16.86, 49.21 38.67" stroke="#e8590c" stroke-width="2" fill="none"></path></g></g><mask></mask><g stroke-linecap="round"><g transform="translate(10.191304200868217 47.06484900044779) rotate(0 27.359195257665306 -2.565258209104286)"><path d="M0 0 C5.16 -2.97, 7.06 -4.69, 12.02 -5.24 M0 0 C4.65 -2.09, 8.69 -3.46, 12.02 -5.24 M12.02 -5.24 C27.02 -5.25, 38.69 -4.77, 54.72 -4.95 M12.02 -5.24 C23.24 -5.71, 34.19 -6.07, 54.72 -4.95 M54.72 -4.95 C53.86 -3.54, 51.95 -3.08, 48.81 0.11 M54.72 -4.95 C52.48 -3.04, 51.07 -2.01, 48.81 0.11" stroke="#1e1e1e" stroke-width="2" fill="none"></path></g></g><mask></mask><g stroke-linecap="round"><g transform="translate(65.17945351246544 42.34967063114891) rotate(0 0.43456778149402453 16.167577445799907)"><path d="M0 0 C0.21 7.75, 0.42 15.51, 0.87 32.34 M0 0 C0.25 9.3, 0.5 18.61, 0.87 32.34" stroke="#1e1e1e" stroke-width="2" fill="none"></path></g></g><mask></mask><g stroke-linecap="round" transform="translate(46.3307012033647 83.27632197637104) rotate(0 5.416215660422949 5.157046022631221)"><path d="M1.7 1.48 C1.7 1.48, 1.7 1.48, 1.7 1.48 M1.7 1.48 C1.7 1.48, 1.7 1.48, 1.7 1.48 M1.44 7.88 C3.49 6.09, 5.13 4.02, 7.35 1.08 M1.44 7.88 C2.79 6.03, 4.57 4.58, 7.35 1.08 M4.46 10.5 C6.55 8.62, 8.08 6.49, 10.36 3.71 M4.46 10.5 C6.99 7.65, 8.95 4.92, 10.36 3.71" stroke="#ffffff" stroke-width="0.5" fill="none"></path><path d="M5.15 -0.29 C6.28 -0.43, 8.05 0.38, 8.95 1.08 C9.85 1.78, 10.37 2.72, 10.55 3.93 C10.73 5.14, 10.67 7.32, 10.05 8.32 C9.43 9.32, 8.01 9.56, 6.84 9.92 C5.66 10.27, 4 10.88, 2.98 10.45 C1.96 10.03, 1.17 8.36, 0.69 7.36 C0.21 6.36, -0.07 5.42, 0.1 4.44 C0.27 3.46, 0.69 2.19, 1.69 1.49 C2.7 0.8, 5.37 0.56, 6.13 0.27 C6.9 -0.02, 6.32 -0.3, 6.3 -0.25 M6.39 0.54 C7.27 0.61, 7.72 1.16, 8.53 1.94 C9.34 2.72, 11.08 4.31, 11.26 5.23 C11.44 6.15, 10.4 6.73, 9.62 7.47 C8.85 8.2, 7.76 9.34, 6.62 9.65 C5.49 9.96, 3.73 9.74, 2.8 9.33 C1.88 8.92, 1.51 8.19, 1.08 7.19 C0.64 6.2, -0.08 4.31, 0.17 3.34 C0.42 2.38, 1.65 2.03, 2.58 1.4 C3.5 0.77, 5.14 -0.33, 5.71 -0.42 C6.28 -0.51, 5.98 0.58, 6 0.86" stroke="#1e1e1e" stroke-width="1" fill="none"></path></g></svg>