<svg version="1.1" xmlns="http://www.w3.org/2000/svg" viewBox="0 0 651.8229989561637 339.7500069200023" width="651.8229989561637" height="339.7500069200023" filter="invert(93%) hue-rotate(180deg)"><!-- svg-source:excalidraw --><metadata></metadata><defs><style class="style-fonts">
      </style></defs><g stroke-linecap="round"><g transform="translate(564.2414486050902 275.511225361578) rotate(0 -30.22270870379009 -5.826874572790075)"><path d="M0.22 -1.5 C-23.26 -7.56, -50.3 -6.61, -64.02 -13.85 M1.84 0.08 C-22.54 -4.24, -44.04 -8.5, -62.39 -10.45" stroke="#1e1e1e" stroke-width="2" fill="none"></path></g></g><mask></mask><g stroke-linecap="round"><g transform="translate(493.946886376006 216.22311529725448) rotate(0 -184.76593672882393 -30.49939295257809)"><path d="M0 0 C-97.64 -15.12, -194.49 -31.68, -369.53 -61" stroke="#e03131" stroke-width="2.5" fill="none" stroke-dasharray="8 10"></path></g><g transform="translate(493.946886376006 216.22311529725448) rotate(0 -184.76593672882393 -30.49939295257809)"><path d="M-344.95 -65.54 C-352.04 -64.56, -357.81 -64.18, -369.53 -61" stroke="#e03131" stroke-width="2.5" fill="none"></path></g><g transform="translate(493.946886376006 216.22311529725448) rotate(0 -184.76593672882393 -30.49939295257809)"><path d="M-347.78 -48.68 C-354.12 -52.14, -359.16 -56.21, -369.53 -61" stroke="#e03131" stroke-width="2.5" fill="none"></path></g></g><mask></mask><g stroke-linecap="round"><g transform="translate(601.8751838341923 154.70459436785677) rotate(0 -34.157435161941066 -5.693990115112683)"><path d="M-1.17 -0.28 C-15.08 -6.16, -36.21 -5.27, -71.36 -13.14 M-0.08 -1.63 C-12.9 -3.5, -28.6 -2.97, -68.28 -13.11" stroke="#1e1e1e" stroke-width="2" fill="none"></path></g></g><mask></mask><g stroke-linecap="round"><g stroke-opacity="0.3" fill-opacity="0.3" transform="translate(492.21969465120696 183.89651745665105) rotate(0 1.066921104391099 38.93402300667776)"><path d="M2.46 -2.1 C1.4 30.06, 4.86 56.19, 5.67 75.46 M0.61 -1.17 C-1.25 16.65, 1.67 37.63, 2.45 77.62" stroke="#1e1e1e" stroke-width="2" fill="none"></path></g></g><mask></mask><g stroke-linecap="round"><g transform="translate(516.6194261479579 176.9587130926484) rotate(0 -2.6620715938698822 10.321234678929613)"><path d="M0.41 -0.66 C-0.48 1.06, -3.86 6.15, -4.89 9.59 C-5.93 13.03, -5.76 17.98, -5.77 20 M-0.83 1.62 C-1.9 3.52, -4.71 7.41, -5.7 10.64 C-6.69 13.87, -6.96 19.47, -6.77 20.98" stroke="#1e1e1e" stroke-width="1" fill="none"></path></g></g><mask></mask><g stroke-linecap="round"><g transform="translate(585.3841659703742 213.18235710896715) rotate(0 -3.6137023149576635 21.801009768129916)"><path d="M-0.76 0.4 C-1.75 3.13, -6.09 10.16, -6.99 17.16 C-7.88 24.17, -6.3 37.97, -6.12 42.43 M1.04 -0.44 C0.01 2.35, -6.44 10.98, -7.81 18.24 C-9.17 25.5, -7.49 38.63, -7.15 43.13" stroke="#1e1e1e" stroke-width="2" fill="none"></path></g></g><mask></mask><g stroke-linecap="round"><g transform="translate(583.9219973986123 216.98186278551384) rotate(0 21.6743834274032 -42.925021879522774)"><path d="M0 0 C16.45 -32.71, 29.95 -62.62, 43.35 -85.85 M0 0 C16.41 -31.35, 30.58 -62.06, 43.35 -85.85" stroke="#1e1e1e" stroke-width="2" fill="none"></path></g></g><mask></mask><g stroke-linecap="round"><g transform="translate(625.101142487061 132.3095387368121) rotate(0 6.544807515625507 0.9995981522542934)"><path d="M1.07 0.19 C2.71 -1.9, 8.08 -13.53, 10.11 -11.57 C12.14 -9.61, 12.87 7.88, 13.27 11.95 M0.18 -0.75 C1.62 -2.81, 7.01 -12.82, 9.08 -10.54 C11.15 -8.26, 12.04 8.82, 12.59 12.93" stroke="#1e1e1e" stroke-width="2" fill="none"></path></g></g><mask></mask><g stroke-linecap="round"><g transform="translate(640.2363445368667 187.4920492338997) rotate(0 -0.9327703907423484 -22.81467061394278)"><path d="M0 0 C-1.24 -13.61, -1.15 -26.9, -1.87 -45.63 M0 0 C-0.41 -9.92, -0.82 -20.1, -1.87 -45.63" stroke="#1e1e1e" stroke-width="2" fill="none"></path></g></g><mask></mask><g stroke-linecap="round"><g transform="translate(640.5588160522948 176.2623249936969) rotate(0 -2.8216609978804854 27.20193124269008)"><path d="M0.13 -1.08 C0.15 5.11, 1.87 27.3, 1.03 36.73 C0.19 46.15, -3.69 52.62, -4.9 55.48 M-1.26 0.96 C-1.38 6.81, 1.34 25.96, 0.67 34.75 C0 43.54, -4.11 50.38, -5.28 53.71" stroke="#1e1e1e" stroke-width="2" fill="none"></path></g></g><mask></mask><g stroke-linecap="round"><g transform="translate(638.4152337567452 224.62581148760182) rotate(0 -23.912169647974224 51.399184776102175)"><path d="M-0.04 -2.67 C-13.4 37.62, -28.81 69.3, -51 104.97 M-0.38 -1.15 C-11.98 28.38, -27.52 60.51, -47.19 101.78" stroke="#1e1e1e" stroke-width="2" fill="none"></path></g></g><mask></mask><g stroke-linecap="round"><g transform="translate(590.1548127541657 326.1947893409106) rotate(0 -5.633509556135209 -7.076684786638452)"><path d="M-1.14 0.32 C-2.16 0.37, -4.26 4.03, -5.75 1.34 C-7.24 -1.36, -9.33 -12.89, -10.09 -15.84 M0.47 -0.56 C-0.74 0.22, -4.84 5.24, -6.62 2.88 C-8.41 0.52, -9.75 -11.61, -10.24 -14.71" stroke="#1e1e1e" stroke-width="2" fill="none"></path></g></g><mask></mask><g stroke-linecap="round"><g transform="translate(578.2870828584537 252.12391407022915) rotate(0 1.1745455862620702 19.175631791067644)"><path d="M-1.18 -1.08 C0.99 11.54, -0.17 19.15, 0.91 37.21 M0.78 0.88 C0.7 8.71, 1 16.4, 2.14 37.66" stroke="#1e1e1e" stroke-width="2" fill="none"></path></g></g><mask></mask><g stroke-linecap="round"><g transform="translate(579.6840032116911 311.2981419261059) rotate(0 -0.34936752636065194 -14.41092942919795)"><path d="M1.85 0.41 C0.17 -6.01, 1.39 -14.19, 0.28 -29.4 M-0.53 0.33 C-0.04 -7.46, 0.08 -14.18, -0.05 -29.04" stroke="#1e1e1e" stroke-width="2" fill="none"></path></g></g><mask></mask><g stroke-linecap="round"><g transform="translate(618.8680224335028 122.83387819034306) rotate(0 -22.71367039548818 42.50407356422647)"><path d="M0 0 C-16.08 28.9, -34.46 59.59, -45.43 85.01 M0 0 C-15.81 27.92, -30.44 56.76, -45.43 85.01" stroke="#1e1e1e" stroke-width="2" fill="none"></path></g></g><mask></mask><g stroke-linecap="round"><g transform="translate(575.6199398697788 203.6790979107882) rotate(0 -6.243234810374361 27.07784088835706)"><path d="M0.3 -1.15 C-1.78 3.64, -9.38 20.69, -11.3 29.74 C-13.21 38.8, -10.95 48.92, -11.19 53.17 M-1.01 0.87 C-3.23 5.85, -9.83 19.24, -11.62 28.09 C-13.41 36.95, -11.51 49.78, -11.76 53.97" stroke="#1e1e1e" stroke-width="2" fill="none"></path></g></g><mask></mask><g stroke-linecap="round"><g transform="translate(619.4249342480248 123.1273752032912) rotate(0 7.163459787113197 -1.8869054252331807)"><path d="M0.24 -0.22 C1.09 -0.9, 2.89 -3.42, 5.15 -3.61 C7.42 -3.8, 12.28 -1.69, 13.82 -1.38 M-0.3 -0.81 C0.49 -1.42, 2.28 -4.24, 4.81 -4.49 C7.34 -4.73, 13.26 -2.83, 14.88 -2.29" stroke="#1e1e1e" stroke-width="2" fill="none"></path></g></g><mask></mask><g stroke-linecap="round"><g transform="translate(577.8745953198163 229.97779542917124) rotate(0 -6.5336593502893265 -0.6258550814386581)"><path d="M-0.52 0.08 C-2.67 -0.13, -10.46 -0.85, -12.57 -1.07 M0.21 -0.36 C-1.99 -0.75, -10.45 -1.89, -12.75 -1.94" stroke="#1e1e1e" stroke-width="1" fill="none"></path></g></g><mask></mask><g stroke-linecap="round"><g transform="translate(563.5770642496741 252.435022860559) rotate(0 6.000857821315549 38.01422273192111)"><path d="M-0.59 1.03 C-0.3 11.92, 0.71 52.16, 2.8 64.54 C4.9 76.92, 10.63 73.3, 11.98 75.31 M1.3 0.52 C1.33 11.11, 0.16 49.97, 1.81 62.59 C3.46 75.21, 9.74 74.29, 11.2 76.24" stroke="#1e1e1e" stroke-width="2" fill="none"></path></g></g><mask></mask><g stroke-linecap="round"><g transform="translate(584.2980658238835 329.74957537762475) rotate(0 -7.1472397741245 -1.5367679562823469)"><path d="M-0.54 0 C-2.96 -0.51, -12.11 -2.27, -14.36 -2.74 M0.18 -0.48 C-2.33 -1.17, -12.41 -2.99, -14.83 -3.53" stroke="#1e1e1e" stroke-width="2" fill="none"></path></g></g><mask></mask><g stroke-linecap="round"><g transform="translate(629.4868057300453 143.607748784063) rotate(0 -1.8094326289345872 39.26883349220043)"><path d="M0.13 0.23 C0.3 10.26, 0.48 46.29, 0.28 59.2 C0.07 72.11, -0.2 85.24, -1.1 77.68 C-1.99 70.11, -5.39 26.82, -5.1 13.82 C-4.8 0.81, -0.2 2.08, 0.67 -0.37 M-1.26 -0.7 C-0.64 9.04, 2.75 44.08, 2.66 57.29 C2.57 70.5, -0.48 85.68, -1.78 78.54 C-3.08 71.41, -5.37 27.6, -5.15 14.48 C-4.93 1.36, -1.58 2.03, -0.45 -0.17" stroke="#1e1e1e" stroke-width="2" fill="none"></path></g></g><mask></mask><g stroke-linecap="round"><g transform="translate(588.8889026885327 224.44020255265968) rotate(0 0.9736963143091089 40.378614469640524)"><path d="M-0.61 -0.02 C0.35 11.01, 4.96 53.65, 5.2 67.29 C5.44 80.94, 2.21 89.86, 0.82 81.87 C-0.57 73.88, -3 33.05, -3.15 19.36 C-3.29 5.67, -0.65 2.86, -0.07 -0.29 M1.27 -1.08 C2.14 10.58, 4.63 54.74, 4.41 68.27 C4.19 81.81, 1.18 88.64, -0.05 80.11 C-1.29 71.58, -2.75 30.46, -3 17.1 C-3.26 3.74, -1.79 2.86, -1.58 -0.05" stroke="#1e1e1e" stroke-width="2" fill="none"></path></g></g><mask></mask><g stroke-linecap="round"><g transform="translate(492.75619539438003 194.562744107654) rotate(0 39.652087471477785 6.497590765865425)"><path d="M-0.46 -0.62 C12.81 1.68, 65.56 11.44, 78.88 13.81 M1.51 1.67 C14.63 3.64, 64.84 10.46, 77.71 12.11" stroke="#1e1e1e" stroke-width="1" fill="none"></path></g></g><mask></mask><g stroke-linecap="round"><g transform="translate(496.51696445331413 178.2409135538428) rotate(0 41.38590836571143 7.127457762300764)"><path d="M-0.67 1.12 C12.97 3.61, 69.1 11.72, 83.03 13.74 M1.18 0.67 C14.58 3.42, 68.72 12.78, 82.22 15.01" stroke="#1e1e1e" stroke-width="1" fill="none"></path></g></g><mask></mask><g stroke-linecap="round"><g transform="translate(495.50430753758314 253.11643948879646) rotate(0 34.0427396294931 6.275409807103642)"><path d="M1.09 -0.01 C12.69 1.75, 57.91 9.62, 69.1 11.7 M0.2 -1.06 C11.78 1.35, 57.47 10.33, 68.69 12.79" stroke="#1e1e1e" stroke-width="1" fill="none"></path></g></g><mask></mask><g stroke-linecap="round"><g transform="translate(516.5036113986487 146.98985549995086) rotate(0 -11.496218538693029 23.40088871606713)"><path d="M0.75 -0.34 C-3.03 5.56, -17.45 27.1, -21.59 34.83 C-25.72 42.56, -23.85 44.01, -24.04 46.04 M-0.31 -1.56 C-4.33 4.05, -18.89 25.08, -22.46 33.16 C-26.02 41.25, -21.71 44.45, -21.7 46.95" stroke="#1e1e1e" stroke-width="2" fill="none"></path></g></g><mask></mask><g stroke-linecap="round"><g transform="translate(493.7490853371569 189.89592574963717) rotate(0 5.0674360762857305 36.85563878781386)"><path d="M-1 -1.11 C-0.7 9.87, -1.06 52.16, 0.81 64.81 C2.68 77.45, 8.52 73.21, 10.23 74.76 M0.67 0.92 C0.99 11.63, -1.04 50.94, 0.41 62.95 C1.86 74.96, 7.51 70.89, 9.38 72.97" stroke="#1e1e1e" stroke-width="2" fill="none"></path></g></g><mask></mask><g stroke-linecap="round"><g transform="translate(513.8821377864556 148.04801342142218) rotate(0 9.902957858193531 -3.0946982582713645)"><path d="M0.54 0.21 C1.49 -0.72, 2.48 -4.13, 5.68 -5.17 C8.87 -6.2, 17.25 -5.75, 19.69 -6 M0.15 -0.16 C1.27 -1.27, 3.5 -4.75, 6.69 -5.88 C9.88 -7.01, 16.95 -6.88, 19.28 -6.97" stroke="#1e1e1e" stroke-width="2" fill="none"></path></g></g><mask></mask><g stroke-linecap="round"><g transform="translate(511.04048490957985 197.79550728751747) rotate(0 1.8870003626378775 33.88881579954614)"><path d="M0.23 -1.2 C0.3 8.02, -0.29 44.46, 0.46 55.83 C1.21 67.19, 4.01 64.86, 4.73 67 M-1.1 0.79 C-1.11 10.14, -0.88 46.01, 0.01 57.2 C0.89 68.39, 3.34 66.34, 4.21 67.91" stroke="#1e1e1e" stroke-width="1" fill="none"></path></g></g><mask></mask><g stroke-linecap="round"><g transform="translate(29.61389190845557 295.7088332472231) rotate(0 87.5215213743395 -141.70565358407748)"><path d="M0 0 C33.76 -34.86, 72.23 -69.33, 175.04 -169.69 M0 0 C36.44 -38.66, 75.05 -74.56, 175.04 -169.69 M175.04 -169.69 C177.65 -203.47, 174.47 -238.69, 174.54 -283.41 M175.04 -169.69 C174.36 -204.19, 173.3 -238.14, 174.54 -283.41 M174.54 -283.41 C138.86 -251.39, 100.57 -215.63, 1.99 -126.94 M174.54 -283.41 C112.18 -226.76, 52.18 -173.3, 1.99 -126.94 M1.99 -126.94 C3.75 -86.66, 0.86 -50.26, 0 0 M1.99 -126.94 C-0.35 -98.15, -0.09 -70.51, 0 0" stroke="#1e1e1e" stroke-width="2" fill="none"></path></g></g><mask></mask><g stroke-linecap="round"><g transform="translate(581.5205059814086 323.5624508233004) rotate(0 -6.5336593502893265 -0.6258550814386581)"><path d="M0.54 0.45 C-1.58 0.19, -10.66 -1.11, -12.99 -1.47 M0.15 0.2 C-2.02 0.02, -11.31 -0.63, -13.38 -0.88" stroke="#1e1e1e" stroke-width="1" fill="none"></path></g></g><mask></mask><g stroke-linecap="round"><g transform="translate(578.7393550551187 236.56622618046094) rotate(0 -6.5336593502893265 -0.6258550814386581)"><path d="M0.05 0.48 C-2.24 0.24, -11.31 -1.3, -13.56 -1.59 M-0.59 0.24 C-2.73 0.09, -10.63 -0.9, -12.58 -1.06" stroke="#1e1e1e" stroke-width="1" fill="none"></path></g></g><mask></mask><g stroke-linecap="round"><g transform="translate(631.6157877235298 124.34172521301934) rotate(0 -6.5336593502893265 -0.6258550814386581)"><path d="M0.36 -0.46 C-1.69 -0.57, -10.56 -0.93, -12.81 -0.98 M-0.12 0.49 C-2.18 0.25, -10.87 -1.46, -13.11 -1.8" stroke="#1e1e1e" stroke-width="1" fill="none"></path></g></g><mask></mask><g stroke-linecap="round"><g transform="translate(30.08418329239703 295.9311942737595) rotate(0 -8.702777992162282 -64.99902346716635)"><path d="M-2.4 -2.97 C-5.89 0.39, -7.51 -2.75, -19.92 -2.15 M-0.04 -0.53 C-4.91 -0.46, -10.95 -2.48, -16.96 -3.77 M-20.08 -3.21 C-19.4 -43.17, -18.18 -81.22, -17.64 -130 M-17.84 -4.79 C-17.05 -31.57, -19.82 -57.2, -15.88 -130.95 M-15.67 -128.27 C-10.55 -130.8, -7.18 -125.27, 1.29 -126.1 M-18.11 -130.02 C-11.8 -130.03, -9.08 -129.11, -0.78 -125.79" stroke="#1e1e1e" stroke-width="2" fill="none"></path></g></g><mask></mask><g stroke-linecap="round"><g transform="translate(12.02679464121502 164.8810837389683) rotate(0 88.9106839059175 -77.33796800761593)"><path d="M0.81 0.7 C39.35 -33.03, 82.23 -72.48, 174.62 -154.72 M-0.11 -0.29 C53.49 -51.86, 110.09 -98.48, 177.82 -154.88" stroke="#1e1e1e" stroke-width="2" fill="none"></path></g></g><mask></mask><g stroke-linecap="round"><g transform="translate(186.96267040671273 11.085296761097197) rotate(0 8.72419839539998 0.23906166421556918)"><path d="M0.93 1.26 C7.35 -0.78, 13.66 1.09, 16.71 0.85 M-0.13 -0.68 C5.43 1.07, 11.31 1.19, 17.72 0.04" stroke="#1e1e1e" stroke-width="2" fill="none"></path></g></g><mask></mask><g stroke-linecap="round"><g transform="translate(514.5513237441335 175.43695863311495) rotate(0 32.7452532167996 -8.167224251609241)"><path d="M0 0 C19.45 1.75, 39.67 7.95, 50.9 8.6 M0 0 C13.79 2.1, 28.4 3.8, 50.9 8.6 M50.9 8.6 C56.99 -0.27, 59.45 -8.71, 65.49 -17.25 M50.9 8.6 C54.33 3.37, 56.69 -2.82, 65.49 -17.25 M65.49 -17.25 C49.09 -18.88, 33.76 -22.46, 14 -24.94 M65.49 -17.25 C44.48 -20.76, 24.32 -22.36, 14 -24.94 M14 -24.94 C11.59 -15.88, 5.13 -11.94, 0 0 M14 -24.94 C9.98 -17.62, 6.05 -8.57, 0 0" stroke="#1e1e1e" stroke-width="1" fill="none"></path></g></g><mask></mask><g stroke-linecap="round"><g transform="translate(530.9996612442824 150.32335884434724) rotate(0 2.262803898080165 -3.770311694217071)"><path d="M0 0 C1.56 -2.37, 2.41 -4.16, 4.53 -7.54 M0 0 C1.86 -3.13, 3.74 -6.06, 4.53 -7.54" stroke="#1e1e1e" stroke-width="1" fill="none"></path></g></g><mask></mask><g stroke-linecap="round"><g transform="translate(567.1469050500459 174.16535749518243) rotate(0 -20.802435664233258 -7.44945483399124)"><path d="M0 0 C0.87 -1.58, 1.86 -3.39, 3.95 -7.86 M0 0 C1.29 -2.53, 2.61 -4.64, 3.95 -7.86 M3.95 -7.86 C2.49 -8.05, 0.76 -8.79, -0.61 -9.03 M3.95 -7.86 C2.39 -8.27, 0.56 -8.78, -0.61 -9.03 M-0.61 -9.03 C-0.33 -9.59, -0.15 -10.34, 0.5 -11.78 M-0.61 -9.03 C-0.39 -9.76, -0.1 -10.51, 0.5 -11.78 M0.5 -11.78 C-1.06 -12.09, -3.28 -12.47, -4.69 -12.79 M0.5 -11.78 C-1.39 -12.15, -3.22 -12.61, -4.69 -12.79 M-4.69 -12.79 C-4.2 -13.73, -3.77 -14.39, -3.45 -15.23 M-4.69 -12.79 C-4.32 -13.62, -3.88 -14.45, -3.45 -15.23 M-3.45 -15.23 C-9.74 -16.46, -16.46 -17.45, -33.79 -19.88 M-3.45 -15.23 C-12.7 -16.76, -22.55 -17.83, -33.79 -19.88 M-33.79 -19.88 C-39.29 -12.81, -42.48 -4.87, -45.55 -0.61 M-33.79 -19.88 C-37.18 -15.06, -40.17 -10, -45.55 -0.61 M-45.55 -0.61 C-42.5 -0.71, -39.04 0.92, -31.51 2 M-45.55 -0.61 C-41.25 -0.01, -36.15 1.43, -31.51 2 M-31.51 2 C-24.59 3.29, -18.01 5.07, -13.82 4.98 M-31.51 2 C-24.67 3.53, -18.37 4.44, -13.82 4.98 M-13.82 4.98 C-13.09 3.7, -12.06 2.21, -11.54 0.73 M-13.82 4.98 C-13.42 4.22, -13 3.18, -11.54 0.73 M-11.54 0.73 C-9.84 1.23, -8.23 1.48, -7.07 1.54 M-11.54 0.73 C-10.12 0.97, -8.6 1.17, -7.07 1.54 M-7.07 1.54 C-6.71 1.02, -6.41 0.56, -5.17 -0.96 M-7.07 1.54 C-6.47 0.59, -5.66 -0.26, -5.17 -0.96 M-5.17 -0.96 C-3.41 -0.7, -2 -0.5, 0 0 M-5.17 -0.96 C-4.08 -0.81, -2.94 -0.62, 0 0" stroke="#1e1e1e" stroke-width="1" fill="none"></path></g></g><mask></mask><g stroke-linecap="round"><g transform="translate(562.3929086041042 161.8639395094815) rotate(0 0.11335944369852768 5.8148604781690665)"><path d="M0 0 C0.63 3, -0.19 5.63, 0.23 11.63 M0 0 C0.18 2.92, -0.18 5.28, 0.23 11.63" stroke="#1e1e1e" stroke-width="1" fill="none"></path></g></g><mask></mask><g stroke-linecap="round"><g transform="translate(534.6472071012877 167.33911764271397) rotate(0 -2.28312745619246 3.9096347494114525)"><path d="M0 0 C-1.74 2.69, -3.22 5.66, -4.57 7.82 M0 0 C-1.67 3.03, -3.68 6.16, -4.57 7.82" stroke="#1e1e1e" stroke-width="1" fill="none"></path></g></g><mask></mask><g stroke-linecap="round"><g transform="translate(534.4701092177361 168.36428284699923) rotate(0 -0.3511384107202957 -6.753722687267782)"><path d="M0 0 C0.51 -3.33, 0.14 -7.24, -0.7 -13.51 M0 0 C-0.32 -5.15, -0.79 -10.25, -0.7 -13.51" stroke="#1e1e1e" stroke-width="1" fill="none"></path></g></g><mask></mask><g stroke-linecap="round"><g transform="translate(535.0117892504159 168.10830946532406) rotate(0 12.372829662195954 3.6394934999002544)"><path d="M0 0 C1.25 1.33, 2.35 2.46, 3.22 3.04 M0 0 C0.78 0.8, 1.69 1.58, 3.22 3.04 M3.22 3.04 C8.36 4.25, 14.44 5.11, 24.75 7.28 M3.22 3.04 C7.79 4.18, 13.49 5.21, 24.75 7.28" stroke="#1e1e1e" stroke-width="1" fill="none"></path></g></g><mask></mask><g stroke-linecap="round"><g transform="translate(529.2485875369089 171.80893412968908) rotate(0 1.9666203926450407 1.3309758487284853)"><path d="M0 0 C1.08 0.83, 2.22 1.45, 3.93 2.66 M0 0 C1.51 0.97, 2.97 2.03, 3.93 2.66" stroke="#1e1e1e" stroke-width="1" fill="none"></path></g></g><mask></mask><g stroke-linecap="round"><g transform="translate(530.2907091095742 170.60662980205507) rotate(0 1.9666203926450407 1.3309758487284853)"><path d="M0 0 C1.4 0.83, 2.7 1.76, 3.93 2.66 M0 0 C0.88 0.57, 1.77 1.19, 3.93 2.66" stroke="#1e1e1e" stroke-width="1" fill="none"></path></g></g><mask></mask><g stroke-linecap="round"><g transform="translate(531.1257315565576 169.32340455875146) rotate(0 1.9666203926450407 1.3309758487284853)"><path d="M0 0 C1.49 0.88, 2.95 2.03, 3.93 2.66 M0 0 C1.39 0.97, 2.66 1.75, 3.93 2.66" stroke="#1e1e1e" stroke-width="1" fill="none"></path></g></g><mask></mask><g stroke-linecap="round"><g transform="translate(531.4882851139139 168.12145413271537) rotate(0 1.9666203926450407 1.3309758487284853)"><path d="M0 0 C1.36 0.76, 2.49 1.73, 3.93 2.66 M0 0 C1.12 0.72, 2.11 1.43, 3.93 2.66" stroke="#1e1e1e" stroke-width="1" fill="none"></path></g></g><mask></mask><g stroke-linecap="round"><g transform="translate(537.4541176890139 171.31531196390188) rotate(0 -1.107487413797685 2.3128602408883125)"><path d="M0 0 C-0.47 1.39, -1.24 2.63, -2.21 4.63 M0 0 C-0.66 1.3, -1.21 2.67, -2.21 4.63" stroke="#1e1e1e" stroke-width="1" fill="none"></path></g></g><mask></mask></svg>