<svg version="1.1" xmlns="http://www.w3.org/2000/svg" viewBox="0 0 124.65023848108012 56.39132104676355" width="124.65023848108012" height="56.39132104676355" filter="invert(93%) hue-rotate(180deg)"><!-- svg-source:excalidraw --><metadata></metadata><defs><style class="style-fonts">
      </style></defs><g stroke-linecap="round"><g transform="translate(28.10652111467425 20.469440005426804) rotate(0 18.668229057373537 0.24734269996133662)"><path d="M-1.07 0.38 C-0.95 -0.22, 0.17 -2.49, 0.96 -2.94 C1.76 -3.4, 3.24 -1.81, 3.72 -2.35 C4.2 -2.89, 3.09 -5.84, 3.85 -6.18 C4.62 -6.52, 7.29 -4.22, 8.32 -4.41 C9.35 -4.6, 9.28 -7.33, 10.05 -7.32 C10.81 -7.32, 12.12 -4.33, 12.91 -4.38 C13.69 -4.44, 14.26 -7.63, 14.76 -7.65 C15.26 -7.66, 15.03 -4.71, 15.9 -4.49 C16.78 -4.27, 19.25 -6.3, 20.01 -6.34 C20.76 -6.38, 19.86 -4.7, 20.43 -4.75 C21 -4.8, 22.68 -7.12, 23.41 -6.65 C24.14 -6.17, 24.16 -2.37, 24.82 -1.88 C25.48 -1.39, 26.64 -3.91, 27.35 -3.7 C28.06 -3.5, 28.3 -1.08, 29.09 -0.67 C29.88 -0.27, 31.8 -1.78, 32.09 -1.28 C32.39 -0.78, 30.69 1.55, 30.87 2.35 C31.05 3.15, 32.69 2.76, 33.17 3.54 C33.65 4.31, 33.21 6.37, 33.77 7 C34.33 7.62, 35.86 7.21, 36.5 7.28 M0.56 -0.47 C0.56 -1.46, -0.04 -4.54, 0.33 -4.67 C0.71 -4.79, 2.24 -1.1, 2.81 -1.24 C3.39 -1.38, 3.03 -5.02, 3.78 -5.52 C4.53 -6.03, 6.6 -3.75, 7.31 -4.25 C8.03 -4.75, 7.56 -8.29, 8.08 -8.5 C8.6 -8.71, 9.41 -5.61, 10.45 -5.51 C11.49 -5.42, 13.14 -7.93, 14.32 -7.93 C15.5 -7.92, 17.01 -5.77, 17.56 -5.49 C18.11 -5.21, 17.1 -6.52, 17.63 -6.24 C18.17 -5.96, 20.01 -3.62, 20.77 -3.81 C21.53 -4, 21.44 -7.63, 22.19 -7.39 C22.95 -7.15, 24.57 -2.96, 25.31 -2.38 C26.04 -1.8, 25.84 -4.65, 26.61 -3.92 C27.37 -3.2, 29.38 1.41, 29.91 1.95 C30.44 2.5, 29.26 -0.81, 29.78 -0.66 C30.3 -0.5, 32.17 2.12, 33.04 2.89 C33.91 3.65, 34.53 3.2, 35 3.94 C35.47 4.67, 35.62 6.5, 35.88 7.28 C36.14 8.07, 36.42 8.28, 36.55 8.65" stroke="#f17634" stroke-width="1" fill="none"></path></g></g><mask></mask><g stroke-linecap="round"><g transform="translate(28.366859278045013 20.548807029603267) rotate(0 -8.93345037698873 12.044373271803124)"><path d="M0.6 0.76 C0.2 0.53, -2.87 -1.17, -3.48 -0.97 C-4.09 -0.77, -2.75 1.34, -3.05 1.95 C-3.35 2.56, -5.07 1.96, -5.29 2.68 C-5.51 3.4, -4.08 5.38, -4.37 6.27 C-4.66 7.16, -6.79 7.24, -7.02 8.02 C-7.26 8.8, -5.08 10.55, -5.77 10.97 C-6.47 11.39, -10.83 11.19, -11.22 10.55 C-11.61 9.91, -8.37 8.43, -8.11 7.1 C-7.85 5.78, -9.06 4.08, -9.67 2.61 C-10.28 1.14, -11.37 -2.36, -11.77 -1.72 C-12.17 -1.07, -11.52 5.71, -12.08 6.48 C-12.65 7.24, -14.88 4.2, -15.17 2.88 C-15.47 1.56, -13.5 -1.21, -13.85 -1.45 C-14.2 -1.69, -16.55 0.32, -17.27 1.45 C-18 2.57, -18.71 3.98, -18.19 5.32 C-17.67 6.67, -15.57 8.2, -14.17 9.5 C-12.77 10.8, -10.21 12.18, -9.79 13.12 C-9.37 14.06, -12.97 13.24, -11.64 15.12 C-10.32 17, -2.61 24.43, -1.83 24.38 C-1.04 24.33, -6.02 16.43, -6.93 14.82 M-0.55 0.11 C-1.04 0.02, -3.97 -0.09, -4.57 0.36 C-5.17 0.81, -4.13 2.29, -4.13 2.82 C-4.14 3.35, -4.35 2.94, -4.58 3.55 C-4.82 4.17, -4.87 5.92, -5.56 6.52 C-6.25 7.13, -8.27 6.67, -8.71 7.2 C-9.15 7.72, -8.17 9.11, -8.21 9.68 C-8.24 10.25, -8.74 11.16, -8.92 10.59 C-9.09 10.02, -9.27 7.69, -9.27 6.27 C-9.26 4.86, -8.55 3.34, -8.89 2.12 C-9.22 0.9, -10.52 -1.77, -11.25 -1.06 C-11.97 -0.35, -12.62 5.87, -13.24 6.38 C-13.86 6.89, -14.85 3.44, -14.99 2.02 C-15.12 0.61, -13.79 -2.43, -14.06 -2.12 C-14.34 -1.8, -16.08 2.51, -16.63 3.92 C-17.19 5.33, -18.11 5.3, -17.39 6.36 C-16.67 7.42, -13.34 9.09, -12.31 10.28 C-11.28 11.47, -11.66 12.75, -11.24 13.51 C-10.82 14.28, -11.48 12.81, -9.81 14.86 C-8.14 16.92, -1.58 25.51, -1.2 25.83 C-0.83 26.15, -6.62 18.35, -7.53 16.8" stroke="#f17634" stroke-width="1" fill="none"></path></g></g><mask></mask><g stroke-linecap="round"><g transform="translate(20.748523226971884 36.81863736166815) rotate(0 26.37164764762838 -4.536644543138209)"><path d="M-0.27 -0.4 C-0.16 -0.93, 0.2 -2.56, 1.24 -2.44 C2.29 -2.31, 3.55 -0.57, 6.03 0.35 C8.51 1.27, 13.23 2.43, 16.13 3.08 C19.02 3.73, 20.89 4.24, 23.4 4.24 C25.91 4.24, 29.06 3.41, 31.19 3.07 C33.33 2.74, 34.3 2.77, 36.21 2.23 C38.11 1.68, 41.35 0.26, 42.63 -0.17 C43.91 -0.61, 44.1 -1.76, 43.88 -0.36 C43.65 1.03, 40.61 8.19, 41.27 8.17 C41.92 8.15, 47.26 1.49, 47.8 -0.49 C48.33 -2.47, 44.33 -2.5, 44.48 -3.72 C44.63 -4.94, 47.34 -6.54, 48.7 -7.82 C50.06 -9.1, 52.05 -10.41, 52.65 -11.4 C53.25 -12.39, 52.52 -12.86, 52.3 -13.77 C52.08 -14.68, 51.78 -17.06, 51.33 -16.86 C50.88 -16.67, 50.27 -13.27, 49.58 -12.6 C48.89 -11.93, 47.31 -11.85, 47.21 -12.86 C47.12 -13.87, 49.13 -18.05, 49.02 -18.67 C48.9 -19.29, 47.27 -17.44, 46.52 -16.59 C45.76 -15.73, 44.78 -14.73, 44.47 -13.54 C44.17 -12.34, 44.47 -10.53, 44.67 -9.42 C44.87 -8.31, 45.87 -7.68, 45.69 -6.86 C45.51 -6.04, 44.14 -4.78, 43.59 -4.47 C43.04 -4.17, 42.44 -4.56, 42.39 -5.03 C42.34 -5.49, 42.8 -6.8, 43.29 -7.24 M1.79 -1.65 C2.25 -2.12, 2.99 -1.86, 3.64 -1.35 C4.29 -0.83, 3.55 0.54, 5.72 1.44 C7.89 2.34, 13.86 3.48, 16.66 4.05 C19.45 4.62, 20.35 5.18, 22.49 4.85 C24.64 4.52, 27.19 2.69, 29.53 2.09 C31.87 1.49, 34.42 1.61, 36.52 1.26 C38.61 0.92, 41.17 0.55, 42.12 0.04 C43.07 -0.47, 42.2 -3.01, 42.22 -1.79 C42.24 -0.56, 41.21 7.57, 42.23 7.4 C43.26 7.22, 48.25 -0.91, 48.38 -2.84 C48.51 -4.77, 42.85 -3.73, 43.02 -4.17 C43.2 -4.61, 47.89 -4.73, 49.42 -5.47 C50.96 -6.2, 51.76 -7.05, 52.26 -8.56 C52.75 -10.07, 52.47 -13.37, 52.39 -14.54 C52.32 -15.71, 52.52 -16.03, 51.82 -15.58 C51.11 -15.13, 48.61 -12.25, 48.16 -11.83 C47.72 -11.4, 49.22 -11.84, 49.15 -13 C49.08 -14.17, 48.65 -18.48, 47.77 -18.84 C46.88 -19.21, 44.5 -16.41, 43.82 -15.21 C43.14 -14, 43.55 -12.91, 43.69 -11.61 C43.84 -10.3, 44.33 -8, 44.69 -7.38 C45.05 -6.75, 46.35 -8.24, 45.84 -7.86 C45.33 -7.47, 42 -5.62, 41.66 -5.07 C41.32 -4.52, 43.42 -4.23, 43.79 -4.55 C44.17 -4.86, 43.94 -6.39, 43.91 -6.95" stroke="#f17634" stroke-width="1" fill="none"></path></g></g><mask></mask><g stroke-linecap="round"><g transform="translate(35.22367085929818 30.629858720672928) rotate(0 2.0374121240838576 1.8623675222152087)"><path d="M0.44 0.55 C1.27 1.06, 3.96 3.13, 4.51 3.54 M-0.24 0.18 C0.56 0.76, 3.58 3.86, 4.15 4.41" stroke="#f17634" stroke-width="1" fill="none"></path></g></g><mask></mask><g stroke-linecap="round"><g transform="translate(35.733695188635465 34.23448907497368) rotate(0 1.658201291439127 -1.6756742687839505)"><path d="M-0.23 0.14 C0.51 -0.39, 3.24 -2.78, 3.7 -3.27 M1.04 -0.44 C1.77 -0.84, 2.82 -1.67, 3.31 -2.26" stroke="#f17634" stroke-width="1" fill="none"></path></g></g><mask></mask><g stroke-linecap="round"><g transform="translate(45.777981120300865 31.024813326683216) rotate(0 2.0374121240838576 1.8623675222152087)"><path d="M-0.39 0.58 C0.49 1.1, 3.81 2.53, 4.68 3.16 M0.79 0.22 C1.68 0.82, 3.74 3.33, 4.39 3.83" stroke="#f17634" stroke-width="1" fill="none"></path></g></g><mask></mask><g stroke-linecap="round"><g transform="translate(46.28800544963724 34.62944368098397) rotate(0 1.658201291439127 -1.6756742687839505)"><path d="M0.6 -0.57 C1.34 -1.12, 3.49 -2.34, 4.05 -2.73 M0 0.78 C0.74 -0.02, 3.19 -2.91, 3.83 -3.74" stroke="#f17634" stroke-width="1" fill="none"></path></g></g><mask></mask><g stroke-linecap="round"><g transform="translate(85.40375244249026 23.868797130427993) rotate(78.0113431427361 -0.26817868878151785 -4.175311111723204)"><path d="M-0.15 -0.41 C-0.19 -1.93, -0.07 -7.16, -0.11 -8.47 M-1.14 1.02 C-1.26 -0.06, -0.54 -6.16, -0.49 -7.56" stroke="#1e1e1e" stroke-width="1" fill="none"></path></g></g><mask></mask><g stroke-linecap="round" transform="translate(96.52589995502422 3.7064869861424086) rotate(78.0113431427361 5.801363855067848 12.537368864659584)"><path d="M2.85 2.48 C2.85 2.48, 2.85 2.48, 2.85 2.48 M2.85 2.48 C2.85 2.48, 2.85 2.48, 2.85 2.48 M2 10.01 C2.99 8.29, 5.02 4.88, 7.94 2.61 M0.99 10.75 C2.54 8.54, 4.2 6.62, 8.23 2.74 M1.12 15.38 C4.72 13.63, 6.51 10.97, 11.9 4.33 M1.42 17.38 C3.63 13.29, 6.86 9.16, 10.83 5.65 M1.31 22.68 C4.94 19.29, 6.27 13.96, 10.76 10.91 M2.66 21.16 C5.95 18.53, 8.45 13.89, 11.73 10.68 M4.95 24.02 C6.65 21.79, 8.52 19.67, 10.66 18.9 M5.41 24.29 C6.68 22.98, 8.26 20.64, 10.09 18.32" stroke="#a5d8ff" stroke-width="0.5" fill="none"></path><path d="M5.68 1.02 C6.92 1.05, 9.3 1.85, 10.35 3.58 C11.4 5.31, 12.08 8.81, 11.99 11.4 C11.9 14, 10.51 17.07, 9.82 19.15 C9.14 21.23, 8.95 23.03, 7.87 23.88 C6.8 24.73, 4.57 25.41, 3.38 24.27 C2.18 23.12, 1.09 19.37, 0.7 17 C0.32 14.64, 0.76 12.44, 1.09 10.06 C1.41 7.67, 1.53 4.16, 2.66 2.7 C3.79 1.24, 6.92 1.56, 7.86 1.31 C8.8 1.06, 8.6 1.21, 8.3 1.2 M2.93 0.36 C4.11 -0.76, 5.72 0.39, 7.16 1.41 C8.6 2.44, 10.84 4.39, 11.56 6.51 C12.28 8.64, 11.73 11.64, 11.48 14.17 C11.22 16.7, 11.04 19.91, 10.04 21.71 C9.05 23.51, 6.86 24.6, 5.52 24.99 C4.17 25.38, 2.62 25.56, 1.97 24.05 C1.32 22.55, 1.94 18.76, 1.6 15.95 C1.26 13.14, -0.2 9.64, -0.07 7.18 C0.05 4.73, 1.61 2.12, 2.35 1.19 C3.09 0.26, 4.15 1.28, 4.37 1.6" stroke="#1e1e1e" stroke-width="1" fill="none"></path></g><g stroke-linecap="round"><g transform="translate(100.82643317331076 12.130743953071942) rotate(0 0.20205855097037784 1.1123926138470779)"><path d="M0.74 -0.08 C0.82 0.33, 0.92 2.41, 0.87 2.81 M0.21 -0.78 C0.2 -0.59, 0.55 1.13, 0.52 1.78" stroke="#1e1e1e" stroke-width="1" fill="none"></path></g></g><mask></mask><g stroke-linecap="round"><g transform="translate(102.12691040599293 15.156100260574021) rotate(0 1.3744038414024544 0.41065329600405676)"><path d="M0.31 -0.07 C0.83 0.06, 2.41 0.15, 2.93 0.2 M-0.44 -0.76 C0.01 -0.51, 1.8 0.59, 2.43 0.84" stroke="#1e1e1e" stroke-width="1" fill="none"></path></g></g><mask></mask><g stroke-linecap="round"><g transform="translate(102.4674686553135 15.62264928512377) rotate(0 -0.49855383686144705 1.1874461525794686)"><path d="M-0.63 0.13 C-0.9 0.52, -1.17 2.16, -1.26 2.43 M0.42 -0.45 C0 0.06, -1.63 2.96, -1.99 3.43" stroke="#1e1e1e" stroke-width="1" fill="none"></path></g></g><mask></mask><g stroke-linecap="round"><g transform="translate(102.19835776868968 17.922938823554432) rotate(0 1.2717405174012129 0.5772135516290291)"><path d="M0.17 -0.39 C0.7 -0.19, 2.11 1.39, 2.49 1.71 M-0.66 1.05 C-0.16 1, 1.44 0.8, 1.87 0.66" stroke="#1e1e1e" stroke-width="1" fill="none"></path></g></g><mask></mask><g stroke-linecap="round"><g transform="translate(100.87804656781464 17.4004940704599) rotate(0 -1.269148578376189 -0.3531798654439626)"><path d="M0.1 0.55 C-0.23 0.28, -1.68 -1.1, -2.17 -1.25 M-0.77 0.18 C-1.15 -0.04, -2.12 -0.26, -2.57 -0.57" stroke="#1e1e1e" stroke-width="1" fill="none"></path></g></g><mask></mask><g stroke-linecap="round"><g transform="translate(92.86278082226909 20.480961668959935) rotate(0 0.5608423144540211 -1.37607009095791)"><path d="M-0.24 -0.27 C-0.06 -0.84, 0.86 -2.9, 1 -3.27 M1.01 -1.07 C1.1 -1.57, 0.15 -2.11, 0.34 -2.58" stroke="#1e1e1e" stroke-width="1" fill="none"></path></g></g><mask></mask><g stroke-linecap="round"><g transform="translate(110.91769941892107 18.516102691661217) rotate(0 -1.4001949094244992 -1.2258274096157038)"><path d="M0.19 0.02 C-0.17 -0.49, -2 -2.14, -2.55 -2.53 M-0.63 -0.63 C-1.03 -1.06, -2.49 -1.48, -3.01 -1.61" stroke="#1e1e1e" stroke-width="1" fill="none"></path></g></g><mask></mask></svg>