<svg version="1.1" xmlns="http://www.w3.org/2000/svg" viewBox="0 0 344.27041735611874 231.77969600107463" width="344.27041735611874" height="231.77969600107463" filter="invert(93%) hue-rotate(180deg)"><!-- svg-source:excalidraw --><metadata></metadata><defs><style class="style-fonts">
      </style></defs><g stroke-linecap="round"><g transform="translate(133.99362262853265 161.91265031533112) rotate(0 43.226181545951476 0.5727206592400762)"><path d="M-1.07 0.86 C-0.76 -0.41, 0.07 -7.03, 1.8 -7.81 C3.53 -8.59, 7.73 -3.14, 9.31 -3.83 C10.88 -4.51, 9.99 -10.99, 11.25 -11.92 C12.51 -12.84, 15.15 -8.56, 16.85 -9.36 C18.55 -10.17, 19.85 -16.51, 21.45 -16.74 C23.04 -16.97, 24.6 -10.67, 26.41 -10.75 C28.22 -10.82, 30.5 -16.86, 32.3 -17.2 C34.11 -17.54, 35.19 -12.72, 37.24 -12.8 C39.29 -12.89, 42.79 -17.94, 44.59 -17.71 C46.4 -17.49, 46.69 -12.05, 48.05 -11.45 C49.42 -10.84, 51.33 -15.17, 52.79 -14.09 C54.25 -13.02, 55.16 -5.87, 56.82 -4.99 C58.47 -4.12, 61.46 -9.75, 62.71 -8.85 C63.96 -7.95, 62.78 -1.03, 64.3 0.42 C65.83 1.86, 70.55 -1.12, 71.87 -0.16 C73.18 0.8, 71.14 4.71, 72.2 6.17 C73.27 7.63, 76.98 6.96, 78.25 8.61 C79.52 10.27, 78.46 14.38, 79.81 16.08 C81.15 17.78, 85.09 18.36, 86.33 18.81 M0.57 0.27 C0.8 -1.33, 0.02 -8.53, 1.35 -9.54 C2.69 -10.55, 6.81 -5.62, 8.58 -5.8 C10.35 -5.98, 10.28 -10.05, 11.99 -10.6 C13.7 -11.14, 17.08 -7.82, 18.84 -9.06 C20.61 -10.29, 21.28 -17.51, 22.56 -17.98 C23.84 -18.46, 25 -12.04, 26.52 -11.9 C28.03 -11.76, 29.62 -17.31, 31.65 -17.14 C33.67 -16.97, 36.34 -10.68, 38.67 -10.9 C41.01 -11.13, 43.95 -18.49, 45.64 -18.47 C47.33 -18.45, 47.29 -11.43, 48.81 -10.78 C50.33 -10.14, 53.35 -15.49, 54.76 -14.59 C56.18 -13.69, 55.55 -6.28, 57.3 -5.39 C59.05 -4.5, 64.09 -10.11, 65.24 -9.25 C66.38 -8.39, 62.99 -1.94, 64.17 -0.21 C65.35 1.52, 71.24 -0.06, 72.34 1.11 C73.44 2.28, 69.49 5.45, 70.79 6.81 C72.09 8.17, 78.78 7.69, 80.13 9.28 C81.48 10.86, 77.78 14.46, 78.89 16.34 C79.99 18.22, 85.48 20.36, 86.75 20.54" stroke="#e8590c" stroke-width="1" fill="none"></path></g></g><mask></mask><g stroke-linecap="round"><g transform="translate(134.5964342117104 162.0964242226055) rotate(0 -20.685355136830367 28.231564536971746)"><path d="M0.95 0.76 C-0.1 0.51, -6.41 -1.65, -7.36 -0.63 C-8.31 0.4, -3.52 5.63, -4.74 6.91 C-5.96 8.19, -13.47 5.75, -14.67 7.06 C-15.87 8.36, -11.1 12.91, -11.94 14.73 C-12.79 16.55, -19.19 16.12, -19.74 17.98 C-20.3 19.84, -14.28 25.22, -15.25 25.9 C-16.22 26.57, -24.69 24.1, -25.56 22.02 C-26.44 19.94, -21.17 16.15, -20.51 13.42 C-19.86 10.68, -19.73 8.17, -21.64 5.6 C-23.55 3.04, -30.81 -3.46, -31.98 -2 C-33.14 -0.54, -28 12.96, -28.63 14.36 C-29.26 15.76, -34.26 8.51, -35.76 6.39 C-37.25 4.27, -36.49 1.68, -37.6 1.64 C-38.71 1.6, -41.81 4.25, -42.44 6.15 C-43.08 8.05, -43.24 10.35, -41.39 13.06 C-39.55 15.77, -34.76 19.55, -31.36 22.41 C-27.97 25.28, -22.09 27.83, -21.05 30.26 C-20.02 32.68, -27.98 32.34, -25.15 36.97 C-22.33 41.59, -5.33 57.87, -4.09 57.98 C-2.85 58.1, -15.4 41.44, -17.7 37.68 M-0.01 0.11 C-1.11 -0.56, -7.43 -3.16, -8.27 -2.38 C-9.1 -1.6, -3.95 3.04, -5.01 4.79 C-6.07 6.53, -13.78 6.39, -14.62 8.08 C-15.46 9.77, -9.34 13.41, -10.05 14.92 C-10.76 16.43, -18.17 15.46, -18.86 17.13 C-19.56 18.8, -13.46 24.26, -14.23 24.95 C-15 25.65, -22.2 22.89, -23.48 21.3 C-24.76 19.7, -21.8 18.13, -21.9 15.38 C-22.01 12.64, -22.43 7.57, -24.1 4.83 C-25.77 2.09, -30.99 -2.67, -31.94 -1.08 C-32.89 0.51, -29.12 13.29, -29.79 14.37 C-30.46 15.44, -35.07 7.52, -35.95 5.36 C-36.84 3.19, -33.98 1.34, -35.11 1.38 C-36.23 1.42, -41.78 3.48, -42.68 5.61 C-43.58 7.75, -42.73 11.23, -40.52 14.2 C-38.32 17.17, -32.57 20.72, -29.46 23.46 C-26.35 26.19, -22.34 28.36, -21.87 30.62 C-21.39 32.89, -29.71 32.22, -26.6 37.07 C-23.5 41.91, -4.56 59.68, -3.21 59.68 C-1.87 59.69, -16.16 40.86, -18.54 37.1" stroke="#e8590c" stroke-width="1" fill="none"></path></g></g><mask></mask><g stroke-linecap="round"><g transform="translate(116.95621905206008 199.76912673199877) rotate(0 61.06340485639021 -10.504575448932883)"><path d="M0.08 0.7 C0.79 0.03, 3.3 -3.41, 5.21 -3.25 C7.12 -3.09, 6.48 -0.1, 11.54 1.66 C16.59 3.43, 29 6.09, 35.52 7.36 C42.05 8.62, 44.9 9.19, 50.71 9.23 C56.51 9.27, 64.76 8.7, 70.35 7.62 C75.94 6.53, 79.81 4.58, 84.25 2.74 C88.69 0.9, 93.96 -2.77, 96.98 -3.44 C100 -4.11, 102.82 -5.23, 102.35 -1.28 C101.87 2.66, 92.87 20.3, 94.15 20.21 C95.43 20.13, 108.66 3.08, 110.02 -1.77 C111.39 -6.62, 102.41 -6.49, 102.36 -8.89 C102.31 -11.28, 106.87 -13.68, 109.72 -16.14 C112.57 -18.59, 117.45 -21.09, 119.47 -23.6 C121.48 -26.1, 121.68 -28.66, 121.82 -31.16 C121.96 -33.67, 121.2 -38.94, 120.3 -38.63 C119.4 -38.32, 117.94 -31.1, 116.41 -29.3 C114.89 -27.5, 111.59 -25.76, 111.13 -27.82 C110.67 -29.89, 114.49 -40.5, 113.64 -41.7 C112.79 -42.91, 108.01 -36.99, 106.05 -35.05 C104.09 -33.11, 102.16 -32.56, 101.89 -30.06 C101.61 -27.57, 103.92 -22.51, 104.4 -20.06 C104.89 -17.61, 105.36 -16.96, 104.79 -15.36 C104.22 -13.76, 101.91 -10.77, 100.99 -10.48 C100.07 -10.18, 99.01 -12.29, 99.29 -13.59 C99.58 -14.88, 102.32 -17.59, 102.69 -18.27 M-1.34 0.02 C-0.79 -1.08, 2.77 -5.63, 4.75 -5.15 C6.74 -4.67, 5.45 0.66, 10.57 2.9 C15.69 5.13, 28.51 7.11, 35.48 8.26 C42.44 9.41, 46.86 10.02, 52.36 9.81 C57.86 9.6, 63.14 7.83, 68.47 6.98 C73.8 6.12, 79.71 6.52, 84.34 4.68 C88.97 2.83, 93.44 -3.42, 96.24 -4.09 C99.03 -4.75, 101.38 -3.29, 101.11 0.67 C100.84 4.63, 93.05 20.47, 94.64 19.69 C96.22 18.91, 109.01 0.85, 110.6 -4.01 C112.19 -8.88, 104.37 -7.35, 104.18 -9.52 C104 -11.69, 106.54 -14.65, 109.49 -17.03 C112.43 -19.4, 119.78 -21.3, 121.86 -23.77 C123.94 -26.24, 122.16 -29, 121.99 -31.83 C121.82 -34.66, 121.9 -41.29, 120.84 -40.74 C119.78 -40.19, 117.47 -30.74, 115.63 -28.55 C113.78 -26.36, 110.28 -25.43, 109.78 -27.61 C109.28 -29.79, 113.15 -40.19, 112.64 -41.63 C112.14 -43.06, 108.73 -38.46, 106.78 -36.22 C104.82 -33.98, 101.3 -30.7, 100.93 -28.18 C100.57 -25.66, 103.97 -23.1, 104.59 -21.11 C105.2 -19.13, 105.52 -17.98, 104.62 -16.26 C103.73 -14.53, 99.81 -11.15, 99.2 -10.76 C98.59 -10.36, 100.18 -12.64, 100.96 -13.88 C101.74 -15.12, 103.65 -17.57, 103.91 -18.17" stroke="#e8590c" stroke-width="1" fill="none"></path></g></g><mask></mask><g stroke-linecap="round"><g transform="translate(165.99051591625448 200.13523520998024) rotate(181.67376099987678 4.731713035037046 1.5374848053852475)"><path d="M-0.26 -0.18 C1.35 -0.21, 8.27 -0.87, 9.49 -0.25 C10.72 0.36, 8.36 2.95, 7.08 3.53 C5.8 4.1, 3.05 3.88, 1.83 3.18 C0.61 2.47, 0.07 -0.05, -0.25 -0.7 M0.61 -0.74 C2.4 -0.94, 9.44 -1.7, 10.49 -1.13 C11.54 -0.57, 8.36 1.87, 6.9 2.64 C5.43 3.41, 2.97 4.06, 1.69 3.51 C0.41 2.96, -0.35 -0.13, -0.79 -0.66" stroke="#e8590c" stroke-width="1" fill="none"></path></g></g><mask></mask><g stroke-linecap="round"><g transform="translate(155.95838467195517 186.44463256486597) rotate(0 3.272522102259245 3.44037480130919)"><path d="M0.34 -0.09 C1.25 0.96, 4.71 5.1, 5.86 6.31 M-0.39 -0.79 C0.71 0.34, 5.96 5.87, 7.21 6.98" stroke="#e8590c" stroke-width="1" fill="none"></path></g></g><mask></mask><g stroke-linecap="round"><g transform="translate(155.11936338839132 193.54918576621822) rotate(0 3.7479836437246377 -3.580130944674238)"><path d="M-0.68 -0.57 C0.63 -1.7, 6.87 -5.75, 8.2 -6.85 M0.35 0.77 C1.59 -0.57, 6.91 -6.83, 7.97 -8.03" stroke="#e8590c" stroke-width="1" fill="none"></path></g></g><mask></mask><g stroke-linecap="round"><g transform="translate(177.93065670824035 186.38871932246911) rotate(0 3.272522102259245 3.44037480130919)"><path d="M0.25 -0.68 C1.2 0.42, 5.5 5.11, 6.45 6.25 M-0.54 0.61 C0.24 1.81, 4.47 5.89, 5.8 6.89" stroke="#e8590c" stroke-width="1" fill="none"></path></g></g><mask></mask><g stroke-linecap="round"><g transform="translate(177.0916354246756 193.49327252381954) rotate(0 3.7479836437246377 -3.580130944674238)"><path d="M-0.1 -0.63 C1.01 -1.83, 5.68 -6.81, 6.89 -7.88 M-1.06 0.68 C0.25 -0.4, 7.01 -6.14, 8.27 -7.3" stroke="#e8590c" stroke-width="1" fill="none"></path></g></g><mask></mask><g stroke-linecap="round"><g transform="translate(95.89281672669495 191.6850626025498) rotate(0 76.24239195136443 -89.66957129421644)"><path d="M0 0 C-21.74 0.04, -41.63 0.73, -85.89 0.22 M-85.89 0.22 C-83.16 -49.62, -85.12 -102.76, -85.89 -180.45 M-85.89 -180.45 C24.12 -182.24, 136.38 -182.26, 237.94 -179.34 M237.94 -179.34 C239.02 -115.13, 235.54 -49.25, 238.38 1.11 M238.38 1.11 C204.59 1.51, 171.87 0.41, 146.71 0.67" stroke="#e03131" stroke-width="2.5" fill="none" stroke-dasharray="8 10"></path></g></g><mask></mask><g stroke-linecap="round"><g transform="translate(113.98325374749038 128.74512934993618) rotate(0 53.081028132543 -44.88183511065017)" fill-rule="evenodd"><path d="M50.94 -92.19 C50.94 -92.19, 50.94 -92.19, 50.94 -92.19 M50.94 -92.19 C50.94 -92.19, 50.94 -92.19, 50.94 -92.19 M33.14 -56.01 C43.11 -67.61, 43.33 -73.01, 53.71 -85.55 M32.29 -57.45 C41.5 -70.31, 50.82 -79.08, 55.46 -85.82 M9.83 -21.56 C30.54 -39.41, 40.81 -58.36, 56.33 -78.47 M12.97 -26.69 C30.53 -44.78, 45.5 -64.2, 61.62 -78.05 M5.94 2.31 C29.36 -27.77, 45.98 -49.16, 61.79 -66.9 M2.97 2.33 C21.18 -23.78, 44.78 -47.98, 65.21 -72.41 M10.51 3.46 C33 -22.24, 47.14 -39.29, 70.16 -60.18 M11.28 3.2 C29.09 -19.6, 49.33 -38.32, 68.49 -64.9 M21.72 1.25 C40.54 -21.18, 64.38 -41.52, 68.58 -57.24 M21.93 1.68 C39.17 -21.82, 59.45 -44.53, 70.96 -55.83 M32.75 -1.72 C48.45 -11.84, 62.76 -33.9, 78.61 -52.24 M31.64 0.58 C43.67 -9.99, 54.12 -24.29, 78.6 -48.21 M41.59 -0.31 C55.64 -10.83, 71.52 -26.48, 83.81 -39.71 M41.47 2.25 C55.97 -11.9, 67.96 -30.18, 79.16 -39.73 M55.1 2.69 C67.53 -6.9, 74.44 -21.91, 87.71 -31.17 M52.68 3.35 C67.49 -11.64, 79.58 -26.72, 86.07 -32.16 M67.26 5.06 C71.41 -5.84, 76.08 -9.47, 90.04 -29.02 M62.78 2.47 C73.58 -11.03, 85.17 -19.43, 90.38 -28.08 M71.19 2.71 C78.1 -8.16, 91.46 -18.8, 90.88 -20.37 M73.39 2.9 C77.85 -2, 81.84 -6.88, 94.74 -17.53 M83.4 -0.56 C88.96 -5.05, 97.71 -9.81, 96.72 -13.61 M84.24 1.51 C88.81 -1.49, 90.49 -4.12, 99.19 -13.38 M94.77 2.52 C99.07 2.64, 97.04 -2.18, 100.86 -5.97 M95.41 2.28 C96.45 -0.08, 98.72 -0.45, 102.26 -4.93" stroke="#ffc9c9" stroke-width="1" fill="none"></path><path d="M-3.39 0.98 C19 -28.97, 29.43 -57.39, 54.5 -93.79 M-0.89 -1.56 C19.71 -35.01, 41.41 -70.65, 52.02 -92.74 M50.77 -91.94 C59.37 -69.81, 77.44 -51.13, 108.95 0.99 M48.94 -92.07 C64.57 -64.7, 81.42 -39.1, 106.25 2.85 M107.06 -1.2 C77.03 3.31, 51.69 4.07, -2.53 -2.08 M106.91 2.17 C71.86 1.21, 34.86 2.14, 0.2 1.97 M0 0 C0 0, 0 0, 0 0 M0 0 C0 0, 0 0, 0 0" stroke="#e03131" stroke-width="2" fill="none"></path></g></g><mask></mask><g stroke-linecap="round" transform="translate(160.47316126209444 61.635005283573264) rotate(0 4.057875925136159 19.017267728517254)"><path d="M3.37 1.6 C3.37 1.6, 3.37 1.6, 3.37 1.6 M3.37 1.6 C3.37 1.6, 3.37 1.6, 3.37 1.6 M5.36 12.56 C6.47 10.01, 6.79 8.65, 9.65 5.81 M5.01 12.23 C7.14 9.58, 8.99 7.66, 9.89 6.08 M4.06 24.94 C5.84 22.1, 8.14 19.24, 12.11 15.63 M3.76 24.45 C6.71 21.51, 10.56 18.93, 12.47 16.24 M5.36 35.15 C6.75 35.09, 8.74 32.46, 11.97 28.95 M5.04 36.48 C7.38 33.23, 9.7 31.11, 12.65 27.89" stroke="#ffc9c9" stroke-width="1" fill="none"></path><path d="M3.59 1.34 C4.47 0.13, 4.92 0.47, 5.6 2.15 C6.29 3.83, 7.26 7.74, 7.71 11.42 C8.15 15.1, 8.4 20.22, 8.27 24.21 C8.13 28.2, 7.68 32.93, 6.92 35.36 C6.16 37.78, 4.73 39.13, 3.73 38.75 C2.72 38.38, 1.63 36.04, 0.91 33.1 C0.19 30.15, -0.51 25.32, -0.62 21.06 C-0.72 16.8, -0.57 10.9, 0.28 7.54 C1.12 4.17, 3.84 1.91, 4.45 0.88 C5.06 -0.15, 4.13 1.28, 3.94 1.33 M2.29 -0.9 C3.32 -1.57, 6.5 -0.29, 7.63 2.1 C8.77 4.5, 8.9 9.26, 9.09 13.48 C9.28 17.7, 9.45 23.82, 8.77 27.41 C8.09 31, 5.9 33.29, 4.99 35.02 C4.08 36.76, 3.85 38.33, 3.32 37.83 C2.8 37.33, 2.13 35.09, 1.82 32.02 C1.52 28.94, 1.73 23.72, 1.5 19.4 C1.27 15.07, -0.09 9.09, 0.45 6.06 C1 3.04, 4.4 2.2, 4.77 1.27 C5.14 0.35, 2.91 0.41, 2.68 0.51" stroke="#1e1e1e" stroke-width="2" fill="none"></path></g><g stroke-linecap="round" transform="translate(159.45869228081028 110.65596167067633) rotate(0 4.733456639224187 4.733456639223732)"><path d="M1.72 0.17 C1.72 0.17, 1.72 0.17, 1.72 0.17 M1.72 0.17 C1.72 0.17, 1.72 0.17, 1.72 0.17 M4.84 9.05 C6.69 6.37, 8.73 4.84, 9.86 3.36 M4.67 9.1 C5.69 7.6, 7.13 5.91, 9.79 3.33" stroke="#ffc9c9" stroke-width="1" fill="none"></path><path d="M4.85 -0.19 C6.01 -0.38, 7.71 0.15, 8.49 0.87 C9.26 1.59, 9.42 3.01, 9.49 4.13 C9.56 5.26, 9.47 6.75, 8.89 7.61 C8.31 8.47, 7.05 9.02, 6.01 9.3 C4.98 9.58, 3.53 9.69, 2.66 9.31 C1.78 8.92, 1.09 7.93, 0.76 6.99 C0.43 6.06, 0.54 4.81, 0.67 3.71 C0.8 2.62, 0.65 1.08, 1.52 0.41 C2.39 -0.27, 5.16 -0.39, 5.9 -0.33 C6.64 -0.28, 6.14 0.53, 5.94 0.74 M4.36 0.43 C5.35 0.39, 6.73 0.07, 7.73 0.66 C8.73 1.24, 10.14 2.8, 10.37 3.93 C10.61 5.07, 9.97 6.63, 9.14 7.48 C8.3 8.32, 6.24 8.61, 5.35 8.99 C4.46 9.38, 4.65 10.19, 3.79 9.79 C2.92 9.39, 0.86 7.57, 0.14 6.58 C-0.58 5.59, -0.79 4.82, -0.53 3.86 C-0.27 2.91, 0.84 1.64, 1.73 0.85 C2.61 0.06, 4.09 -0.78, 4.8 -0.87 C5.51 -0.95, 6.08 0.11, 6 0.35" stroke="#1e1e1e" stroke-width="2" fill="none"></path></g></svg>