<svg version="1.1" xmlns="http://www.w3.org/2000/svg" viewBox="0 0 125.43199870142325 193.67852012775984" width="125.43199870142325" height="193.67852012775984" filter="invert(93%) hue-rotate(180deg)">
  <!-- svg-source:excalidraw -->
  
  <defs>
    <style class="style-fonts">
      
    </style>
    
  </defs>
  <g stroke-linecap="round" transform="translate(16.27161851533765 10) rotate(0 46.43367597056249 86.83926006387992)"><path d="M23.22 0 C36.75 -0.23, 54.63 -0.29, 69.65 0 M23.22 0 C39.83 -0.79, 59.27 0.45, 69.65 0 M69.65 0 C86.44 0.63, 94.43 8.2, 92.87 23.22 M69.65 0 C84 1.14, 94.56 5.71, 92.87 23.22 M92.87 23.22 C94.11 50.2, 91.51 78.31, 92.87 150.46 M92.87 23.22 C93.07 53.46, 93.56 84.46, 92.87 150.46 M92.87 150.46 C94.76 164.06, 87.06 173.54, 69.65 173.68 M92.87 150.46 C92.97 166.84, 83.39 173.78, 69.65 173.68 M69.65 173.68 C58.85 173.21, 49.91 171.97, 23.22 173.68 M69.65 173.68 C59.59 174.19, 50.24 173.92, 23.22 173.68 M23.22 173.68 C9.03 174.24, 0.52 167.24, 0 150.46 M23.22 173.68 C9.45 172.36, -1.79 164.56, 0 150.46 M0 150.46 C1.68 109.55, -0.35 70.19, 0 23.22 M0 150.46 C0.51 122.55, 0.1 96.63, 0 23.22 M0 23.22 C0.24 6.9, 9.13 -0.03, 23.22 0 M0 23.22 C0.59 7.07, 7.54 -1.51, 23.22 0" stroke="#1e1e1e" stroke-width="4" fill="none"></path></g><g stroke-linecap="round" transform="translate(50.35620258562358 43.80899338047857) rotate(0 11.86281812700463 11.944209675046295)"><path d="M9.8 0.47 C12.04 -0.21, 15.08 0.26, 17.24 1.46 C19.41 2.66, 21.8 5.32, 22.81 7.67 C23.82 10.02, 24.1 13.17, 23.32 15.55 C22.54 17.94, 20.37 20.72, 18.12 22.01 C15.86 23.29, 12.28 23.63, 9.79 23.27 C7.29 22.91, 4.75 21.74, 3.16 19.86 C1.57 17.98, 0.29 14.59, 0.25 11.99 C0.2 9.38, 1.25 6.25, 2.89 4.23 C4.53 2.22, 8.76 0.61, 10.09 -0.1 C11.42 -0.81, 10.8 -0.28, 10.9 -0.04 M13.01 0.37 C15.2 0.66, 18.5 2.04, 20.17 3.88 C21.84 5.72, 22.94 8.86, 23.01 11.41 C23.08 13.95, 22.14 17.18, 20.56 19.18 C18.99 21.18, 15.95 22.78, 13.55 23.39 C11.16 24.01, 8.4 24.15, 6.18 22.89 C3.96 21.63, 1.23 18.32, 0.24 15.84 C-0.75 13.37, -0.78 10.46, 0.22 8.03 C1.22 5.59, 4.04 2.57, 6.24 1.22 C8.44 -0.13, 12.22 0.03, 13.39 -0.08 C14.56 -0.18, 13.3 0.29, 13.25 0.58" stroke="#1e1e1e" stroke-width="4" fill="none"></path></g><g stroke-linecap="round" transform="translate(49.98485364768749 78.0731394485756) rotate(0 11.86281812700463 11.944209675046295)"><path d="M9.48 0.35 C11.81 -0.18, 15.15 0.5, 17.46 1.79 C19.77 3.07, 22.45 5.78, 23.35 8.05 C24.26 10.33, 23.79 13.03, 22.88 15.45 C21.97 17.87, 20.04 21.18, 17.87 22.58 C15.69 23.98, 12.32 24.28, 9.83 23.84 C7.34 23.4, 4.6 21.92, 2.93 19.92 C1.26 17.93, -0.22 14.47, -0.19 11.87 C-0.15 9.27, 1.42 6.23, 3.13 4.32 C4.85 2.42, 8.73 1.07, 10.1 0.45 C11.48 -0.16, 11.31 0.52, 11.38 0.64 M11.3 -0.2 C13.71 -0.6, 16.99 1.16, 19.1 2.67 C21.21 4.18, 23.31 6.47, 23.98 8.87 C24.65 11.27, 24.18 14.78, 23.11 17.07 C22.05 19.35, 19.85 21.58, 17.61 22.59 C15.37 23.59, 12.21 23.78, 9.65 23.11 C7.09 22.43, 3.73 20.63, 2.25 18.54 C0.77 16.46, 0.57 13.12, 0.77 10.58 C0.96 8.05, 1.86 5.18, 3.4 3.31 C4.94 1.44, 8.91 -0.28, 10.02 -0.66 C11.12 -1.03, 9.86 0.68, 10.01 1.04" stroke="#1e1e1e" stroke-width="4" fill="none"></path></g><g stroke-linecap="round" transform="translate(58.64449596299073 66.89363036211762) rotate(0 2.9627984425210343 5.638062455240288)"><path d="M1.48 0 C2.38 -0.13, 3.14 0.01, 4.44 0 M1.48 0 C2.59 0, 3.86 0.08, 4.44 0 M4.44 0 C4.94 -0.98, 6.76 1.48, 5.93 1.48 M4.44 0 C4.77 0.4, 6.3 1.08, 5.93 1.48 M5.93 1.48 C5.73 3.59, 5.52 4.59, 5.93 9.79 M5.93 1.48 C5.88 3.93, 5.82 6.89, 5.93 9.79 M5.93 9.79 C5.51 11.45, 5.3 11.1, 4.44 11.28 M5.93 9.79 C6.47 11.39, 6.36 11.38, 4.44 11.28 M4.44 11.28 C3.33 11.26, 2.46 11.35, 1.48 11.28 M4.44 11.28 C3.37 11.27, 2.26 11.24, 1.48 11.28 M1.48 11.28 C0.71 12.04, -0.35 11.11, 0 9.79 M1.48 11.28 C0.73 10.46, -0.48 10.1, 0 9.79 M0 9.79 C-0.08 6.94, 0.04 4.2, 0 1.48 M0 9.79 C-0.14 7.87, 0.15 5.76, 0 1.48 M0 1.48 C0.45 1.1, 0.86 -0.16, 1.48 0 M0 1.48 C-0.09 -0.09, 0.49 -0.68, 1.48 0" stroke="#1e1e1e" stroke-width="4" fill="none"></path></g><g transform="translate(61.61890468304955 55.702245471988135) rotate(0 0.00005000000010113581 0.00004999999964638846)" stroke="none"><path fill="#1e1e1e" d="M 3.14,-3.14 Q 3.14,-3.14 3.55,-2.55 3.97,-1.97 4.18,-1.28 4.40,-0.59 4.38,0.11 4.36,0.83 4.11,1.51 3.86,2.18 3.41,2.74 2.96,3.30 2.36,3.69 1.75,4.07 1.05,4.25 0.36,4.42 -0.35,4.36 -1.07,4.30 -1.73,4.02 -2.39,3.74 -2.92,3.26 -3.46,2.78 -3.81,2.15 -4.16,1.53 -4.30,0.82 -4.43,0.11 -4.34,-0.59 -4.24,-1.30 -3.92,-1.94 -3.60,-2.59 -3.09,-3.09 -2.59,-3.60 -1.94,-3.92 -1.30,-4.24 -0.59,-4.34 0.12,-4.43 0.82,-4.30 1.53,-4.16 2.15,-3.81 2.78,-3.46 3.26,-2.92 3.74,-2.39 4.02,-1.73 4.31,-1.07 4.36,-0.35 4.42,0.36 4.25,1.05 4.07,1.75 3.69,2.36 3.30,2.96 2.74,3.41 2.18,3.86 1.51,4.11 0.83,4.36 0.11,4.38 -0.60,4.40 -1.28,4.18 -1.97,3.97 -2.55,3.55 -3.14,3.13 -3.14,3.14 -3.14,3.14 -3.47,2.71 -3.80,2.29 -4.02,1.80 -4.24,1.32 -4.33,0.79 -4.43,0.26 -4.40,-0.26 -4.36,-0.80 -4.20,-1.31 -4.04,-1.82 -3.77,-2.28 -3.49,-2.73 -3.11,-3.11 -2.73,-3.49 -2.28,-3.77 -1.82,-4.05 -1.31,-4.20 -0.80,-4.36 -0.26,-4.40 0.26,-4.43 0.79,-4.33 1.32,-4.24 1.80,-4.02 2.29,-3.80 2.71,-3.47 3.14,-3.14 3.14,-3.14 L 3.14,-3.14 Z"></path></g><g transform="translate(61.730533342900344 90.32706371501627) rotate(0 0.00005000000010113581 0.00004999999964638846)" stroke="none"><path fill="#1e1e1e" d="M 3.14,-3.14 Q 3.14,-3.14 3.55,-2.55 3.97,-1.97 4.18,-1.28 4.40,-0.59 4.38,0.11 4.36,0.83 4.11,1.51 3.86,2.18 3.41,2.74 2.96,3.30 2.36,3.69 1.75,4.07 1.05,4.25 0.36,4.42 -0.35,4.36 -1.07,4.30 -1.73,4.02 -2.39,3.74 -2.92,3.26 -3.46,2.78 -3.81,2.15 -4.16,1.53 -4.30,0.82 -4.43,0.11 -4.34,-0.59 -4.24,-1.30 -3.92,-1.94 -3.60,-2.59 -3.09,-3.09 -2.59,-3.60 -1.94,-3.92 -1.30,-4.24 -0.59,-4.34 0.12,-4.43 0.82,-4.30 1.53,-4.16 2.15,-3.81 2.78,-3.46 3.26,-2.92 3.74,-2.39 4.02,-1.73 4.31,-1.07 4.36,-0.35 4.42,0.36 4.25,1.05 4.07,1.75 3.69,2.36 3.30,2.96 2.74,3.41 2.18,3.86 1.51,4.11 0.83,4.36 0.11,4.38 -0.60,4.40 -1.28,4.18 -1.97,3.97 -2.55,3.55 -3.14,3.13 -3.14,3.14 -3.14,3.14 -3.47,2.71 -3.80,2.29 -4.02,1.80 -4.24,1.32 -4.33,0.79 -4.43,0.26 -4.40,-0.26 -4.36,-0.80 -4.20,-1.31 -4.04,-1.82 -3.77,-2.28 -3.49,-2.73 -3.11,-3.11 -2.73,-3.49 -2.28,-3.77 -1.82,-4.05 -1.31,-4.20 -0.80,-4.36 -0.26,-4.40 0.26,-4.43 0.79,-4.33 1.32,-4.24 1.80,-4.02 2.29,-3.80 2.71,-3.47 3.14,-3.14 3.14,-3.14 L 3.14,-3.14 Z"></path></g><g stroke-linecap="round" transform="translate(44.846533896184155 113.39989882999362) rotate(0 17.52504641149244 17.52504641149244)"><path d="M14.18 0.07 C17.54 -0.76, 22.53 0.54, 25.82 2.49 C29.1 4.43, 32.53 8.28, 33.89 11.74 C35.25 15.19, 35.24 19.71, 34 23.22 C32.77 26.73, 29.65 30.82, 26.46 32.78 C23.28 34.74, 18.53 35.56, 14.88 34.98 C11.24 34.41, 7.13 32.26, 4.6 29.33 C2.06 26.4, -0.18 21.17, -0.34 17.42 C-0.49 13.67, 1.13 9.69, 3.65 6.83 C6.18 3.97, 12.82 1.24, 14.82 0.25 C16.83 -0.75, 15.67 0.54, 15.7 0.86 M16.15 0.64 C19.76 0.1, 24.23 1.66, 27.34 3.82 C30.44 5.98, 33.87 10.15, 34.77 13.57 C35.67 17, 34.45 21.02, 32.73 24.39 C31.01 27.77, 27.71 32.23, 24.47 33.8 C21.23 35.38, 16.84 34.8, 13.29 33.83 C9.74 32.87, 5.49 30.99, 3.19 28.02 C0.9 25.05, -0.74 19.74, -0.47 16.02 C-0.2 12.31, 2.19 8.46, 4.84 5.73 C7.49 2.99, 13.51 0.52, 15.43 -0.38 C17.35 -1.28, 16.25 -0.09, 16.37 0.33" stroke="#1e1e1e" stroke-width="4" fill="none"></path></g><g stroke-linecap="round" transform="translate(49.844760300380585 118.80567020127273) rotate(0 12.654910872206528 12.730124549286302)"><path d="M16.25 3.25 C18.58 5.16, 21.02 8.55, 22.06 9.75 M16.25 3.25 C17.63 5.07, 18.9 6.17, 22.06 9.75 M22.06 9.75 C25.57 14.76, 24.7 14.5, 22.06 16.25 M22.06 9.75 C26.05 13.87, 24.75 10.99, 22.06 16.25 M22.06 16.25 C19.97 17.67, 19.21 18.88, 16.25 22.21 M22.06 16.25 C20.2 18.82, 17.89 20.52, 16.25 22.21 M16.25 22.21 C11.03 26.78, 13.84 24.98, 9.75 22.21 M16.25 22.21 C10.91 25.11, 13.5 25.71, 9.75 22.21 M9.75 22.21 C7.13 19.82, 5.96 17.61, 3.25 16.25 M9.75 22.21 C7.56 20.3, 6.39 18.74, 3.25 16.25 M3.25 16.25 C1.89 12.31, -0.95 11.98, 3.25 9.75 M3.25 16.25 C-2.29 14.21, -0.15 13.82, 3.25 9.75 M3.25 9.75 C5.28 8.05, 7.82 4.05, 9.75 3.25 M3.25 9.75 C5.06 8.21, 5.86 6.5, 9.75 3.25 M9.75 3.25 C13.57 0.69, 11.1 1.73, 16.25 3.25 M9.75 3.25 C12.48 -1.57, 11.26 -1.63, 16.25 3.25" stroke="#1e1e1e" stroke-width="4" fill="none"></path></g><g stroke-linecap="round" transform="translate(58.7429017850709 127.30677294450288) rotate(0 3.678759662961511 4.067130657250345)"><path d="M5 1.25 C5.34 1.88, 5.74 2.71, 6.36 3.75 M5 1.25 C5.56 2.25, 6.1 3.18, 6.36 3.75 M6.36 3.75 C6.73 4.74, 7.82 5.2, 6.36 6.25 M6.36 3.75 C7.24 5.07, 7.62 4.38, 6.36 6.25 M6.36 6.25 C5.86 6.46, 5.33 6.7, 5 6.88 M6.36 6.25 C5.83 6.48, 5.31 6.76, 5 6.88 M5 6.88 C3.51 8.53, 4.45 7.51, 3 6.88 M5 6.88 C3.58 7.68, 3.64 7.52, 3 6.88 M3 6.88 C2.28 6.62, 1.56 6.46, 1 6.25 M3 6.88 C2.4 6.72, 1.8 6.53, 1 6.25 M1 6.25 C-0.65 5.46, 0.65 4.36, 1 3.75 M1 6.25 C-0.62 5.6, -0.51 5.6, 1 3.75 M1 3.75 C1.69 2.97, 2.42 1.99, 3 1.25 M1 3.75 C1.71 2.85, 2.36 2.02, 3 1.25 M3 1.25 C4.46 0.62, 4.27 -0.4, 5 1.25 M3 1.25 C4.7 -0.39, 4.12 0.2, 5 1.25" stroke="#1e1e1e" stroke-width="4" fill="none"></path></g><g stroke-linecap="round" transform="translate(10 27.821880632609464) rotate(0 6.1254456538549675 6.355702708818171)"><path d="M5.17 -0.12 C6.37 -0.47, 7.81 -0.08, 9.02 0.62 C10.23 1.32, 11.93 2.79, 12.44 4.08 C12.95 5.38, 12.59 7.05, 12.09 8.4 C11.58 9.75, 10.56 11.56, 9.41 12.17 C8.25 12.78, 6.58 12.48, 5.18 12.08 C3.77 11.68, 1.86 10.85, 0.96 9.78 C0.07 8.72, -0.29 7.04, -0.2 5.68 C-0.12 4.32, 0.58 2.63, 1.46 1.61 C2.34 0.59, 4.37 -0.21, 5.06 -0.44 C5.75 -0.67, 5.54 0.08, 5.61 0.25 M6.06 0.66 C7.26 0.44, 8.66 0.11, 9.71 1.01 C10.76 1.91, 12.14 4.47, 12.37 6.05 C12.61 7.62, 11.81 9.48, 11.13 10.45 C10.45 11.41, 9.48 11.48, 8.29 11.84 C7.11 12.21, 5.22 13.16, 4.02 12.63 C2.82 12.1, 1.8 9.93, 1.08 8.68 C0.35 7.43, -0.53 6.43, -0.33 5.16 C-0.12 3.88, 1.19 1.97, 2.31 1.02 C3.43 0.06, 5.72 -0.34, 6.39 -0.58 C7.05 -0.82, 6.25 -0.76, 6.3 -0.44" stroke="#1e1e1e" stroke-width="4" fill="none"></path></g><g stroke-linecap="round" transform="translate(101.99488140975154 25.94788709795648) rotate(0 6.311416454558639 6.355702708818171)"><path d="M5.22 -0.34 C6.46 -0.7, 8.11 0.24, 9.31 0.93 C10.52 1.63, 11.98 2.59, 12.44 3.85 C12.9 5.1, 12.55 7.11, 12.06 8.47 C11.57 9.83, 10.67 11.26, 9.5 11.98 C8.33 12.71, 6.31 13.14, 5.02 12.81 C3.73 12.49, 2.61 11.05, 1.77 10.03 C0.93 9.01, 0 8.02, -0.02 6.67 C-0.05 5.33, 0.72 2.98, 1.64 1.95 C2.57 0.92, 4.93 0.72, 5.54 0.48 C6.15 0.24, 5.26 0.54, 5.31 0.52 M5.03 0.77 C6.23 0.42, 8.46 0.67, 9.75 1.28 C11.04 1.88, 12.34 3.24, 12.77 4.37 C13.19 5.51, 12.92 6.87, 12.3 8.08 C11.68 9.3, 10.14 10.98, 9.07 11.66 C7.99 12.34, 7.17 12.34, 5.84 12.16 C4.52 11.97, 2.15 11.57, 1.12 10.54 C0.1 9.51, -0.38 7.36, -0.32 5.98 C-0.25 4.59, 0.55 3.33, 1.52 2.25 C2.5 1.17, 4.82 -0.07, 5.54 -0.52 C6.26 -0.97, 5.96 -0.65, 5.84 -0.45" stroke="#1e1e1e" stroke-width="4" fill="none"></path></g><g stroke-linecap="round" transform="translate(102.49421962215001 154.23378473219964) rotate(0 6.468889539636621 6.355702708818171)"><path d="M5.62 0.48 C6.98 0.23, 9.22 0.65, 10.4 1.29 C11.58 1.92, 12.44 3.07, 12.69 4.3 C12.93 5.52, 12.5 7.29, 11.86 8.62 C11.21 9.95, 10.03 11.68, 8.82 12.3 C7.62 12.92, 5.94 12.73, 4.62 12.35 C3.3 11.96, 1.73 11.08, 0.91 9.99 C0.08 8.91, -0.44 7.19, -0.33 5.86 C-0.22 4.53, 0.55 2.97, 1.59 2 C2.63 1.03, 5.11 0.37, 5.91 0.04 C6.71 -0.29, 6.39 -0.09, 6.4 0.02 M5.56 -0.4 C6.87 -0.69, 8.84 0.8, 9.96 1.5 C11.08 2.2, 11.85 2.47, 12.3 3.79 C12.74 5.11, 13.03 8.05, 12.63 9.43 C12.22 10.82, 11.03 11.48, 9.85 12.09 C8.67 12.69, 6.86 13.36, 5.54 13.05 C4.21 12.74, 2.78 11.28, 1.88 10.24 C0.98 9.19, 0.22 8.18, 0.13 6.78 C0.05 5.38, 0.46 3.03, 1.36 1.83 C2.26 0.64, 4.73 -0.16, 5.56 -0.37 C6.38 -0.59, 6.29 0.41, 6.29 0.57" stroke="#1e1e1e" stroke-width="4" fill="none"></path></g><g stroke-linecap="round" transform="translate(10.855270262600243 155.62207200832927) rotate(0 5.981946075914038 6.355702708818171)"><path d="M5.37 -0.43 C6.65 -0.61, 8.74 0.19, 9.74 1.06 C10.75 1.94, 11.12 3.39, 11.39 4.81 C11.65 6.23, 11.89 8.42, 11.34 9.58 C10.79 10.74, 9.21 11.29, 8.08 11.78 C6.95 12.28, 5.72 12.83, 4.55 12.55 C3.37 12.28, 1.73 11.21, 1.04 10.12 C0.36 9.03, 0.28 7.33, 0.45 6.01 C0.61 4.69, 1.18 3.15, 2.04 2.21 C2.91 1.26, 5 0.62, 5.63 0.34 C6.27 0.06, 5.83 0.55, 5.84 0.53 M5.28 -0.19 C6.49 -0.49, 8.47 -0.34, 9.57 0.31 C10.66 0.95, 11.53 2.39, 11.87 3.68 C12.2 4.97, 12.2 6.62, 11.58 8.06 C10.96 9.49, 9.24 11.54, 8.15 12.29 C7.05 13.03, 6.07 12.93, 5.03 12.52 C3.98 12.1, 2.6 10.9, 1.87 9.77 C1.14 8.63, 0.6 7.09, 0.63 5.7 C0.66 4.32, 1.34 2.44, 2.06 1.48 C2.78 0.53, 4.35 0.14, 4.95 -0.03 C5.56 -0.19, 5.75 0.48, 5.7 0.51" stroke="#1e1e1e" stroke-width="4" fill="none"></path></g><g stroke-linecap="round"><g transform="translate(40.633862171090186 152.40377427265048) rotate(0 22.72214981941579 5.922199962094965)"><path d="M0.41 -0.41 C2.3 1.52, 6.03 9.1, 11.38 11.11 C16.73 13.12, 26.76 13.16, 32.52 11.65 C38.27 10.15, 43.8 3.7, 45.92 2.07 M-0.04 0.57 C1.8 2.62, 5.72 9.8, 11.11 11.73 C16.51 13.66, 26.46 13.67, 32.32 12.15 C38.18 10.64, 43.97 4.32, 46.27 2.63" stroke="#2f9e44" stroke-width="4" fill="none"></path></g></g><mask></mask></svg>