<svg version="1.1" xmlns="http://www.w3.org/2000/svg" viewBox="0 0 319.3821842036141 209.43896546413816" width="319.3821842036141" height="209.43896546413816" filter="invert(93%) hue-rotate(180deg)"><!-- svg-source:excalidraw --><metadata></metadata><defs><style class="style-fonts">
      </style></defs><g stroke-linecap="round"><g transform="translate(190.0683839630451 22.093548582328367) rotate(0 1.1590909090909918 14.29545454545405)" fill-rule="evenodd"><path d="M-32.04 -5.33 C-32.04 -5.33, -32.04 -5.33, -32.04 -5.33 M-32.04 -5.33 C-32.04 -5.33, -32.04 -5.33, -32.04 -5.33 M-32.96 1.82 C-29.85 -1.49, -25.81 -6.51, -22.47 -10.25 M-32.96 1.82 C-30.16 -0.8, -27.52 -3.48, -22.47 -10.25 M-31.91 6.71 C-26.74 0.94, -24.26 -2.8, -16.82 -10.65 M-31.91 6.71 C-29.48 2.44, -24.94 -0.06, -16.82 -10.65 M-30.86 11.6 C-26.78 7.61, -22.7 3.17, -13.15 -8.78 M-30.86 11.6 C-26.49 5.26, -19.63 0.33, -13.15 -8.78 M-29.81 16.49 C-21.2 6.13, -12.85 0.96, -10.13 -6.15 M-29.81 16.49 C-25.22 9.64, -18.48 3.58, -10.13 -6.15 M-26.79 19.11 C-22.56 11.64, -16.79 4.47, -6.45 -4.28 M-26.79 19.11 C-20.39 12.93, -15.64 7.66, -6.45 -4.28 M-24.43 22.49 C-20.75 18.31, -15.05 11.79, -3.43 -1.66 M-24.43 22.49 C-17.28 15.36, -10.61 7.3, -3.43 -1.66 M-21.41 25.11 C-17.32 20.2, -13.82 13.55, 0.24 0.21 M-21.41 25.11 C-14.06 17.75, -9.3 8.87, 0.24 0.21 M-18.39 27.74 C-11.85 18.87, -1.74 10.11, 14.41 -10 M-18.39 27.74 C-7.68 14.78, 5.21 2.81, 14.41 -10 M-15.37 30.36 C-8.72 23.23, 0.69 11.57, 21.37 -11.9 M-15.37 30.36 C-6.42 19.28, 1.78 9.99, 21.37 -11.9 M-12.35 32.99 C-0.66 19.58, 8.13 9.91, 25.7 -10.79 M-12.35 32.99 C-0.93 18.12, 12.57 5.04, 25.7 -10.79 M-9.33 35.61 C0.11 24.41, 7.46 15.79, 29.37 -8.92 M-9.33 35.61 C3.91 21.34, 16.15 5.34, 29.37 -8.92 M-5.66 37.48 C1.53 27.75, 9.38 21.69, 32.39 -6.29 M-5.66 37.48 C7.67 20.59, 22.25 4.26, 32.39 -6.29 M-2.64 40.11 C9.02 26.31, 17.99 13.17, 34.75 -2.91 M-2.64 40.11 C7.31 27.74, 17.88 16, 34.75 -2.91 M1.03 41.97 C12.32 31.97, 19.01 21.58, 35.15 2.73 M1.03 41.97 C12.54 28.75, 22.77 17.44, 35.15 2.73" stroke="#e64980" stroke-width="0.5" fill="none"></path><path d="M-0.82 -1.02 C1.04 -2.86, 7.38 -9.82, 12.33 -11.15 C17.28 -12.47, 25.16 -11.66, 28.88 -8.98 C32.59 -6.29, 38.33 -2.99, 34.61 4.99 C30.89 12.97, 12.79 33.32, 6.55 38.93 C0.31 44.55, 3.3 42.38, -2.82 38.69 C-8.95 35, -25.2 24.3, -30.21 16.78 C-35.22 9.27, -35.35 -1.95, -32.89 -6.42 C-30.43 -10.88, -20.88 -11.09, -15.45 -10.01 C-10.02 -8.93, -3.02 -1.49, -0.3 0.07 M0.95 1.06 C2.53 -0.61, 6.73 -7.91, 11.29 -9.87 C15.85 -11.84, 24.32 -13.28, 28.29 -10.71 C32.26 -8.14, 38.45 -2.77, 35.11 5.56 C31.77 13.9, 14.34 33.44, 8.27 39.31 C2.2 45.19, 5.01 44.74, -1.32 40.82 C-7.65 36.89, -24.81 23.76, -29.73 15.75 C-34.64 7.75, -32.99 -2.76, -30.81 -7.19 C-28.63 -11.63, -21.83 -11.99, -16.64 -10.85 C-11.46 -9.71, -2.74 -2.15, 0.32 -0.35" stroke="#a61e4d" stroke-width="1" fill="none"></path></g></g><mask></mask><g stroke-linecap="round"><g transform="translate(162.8088985654017 110.16390366584164) rotate(0 0.8636363636360329 19.54545454545587)" fill-rule="evenodd"><path d="M-37.61 -7.51 C-37.61 -7.51, -37.61 -7.51, -37.61 -7.51 M-37.61 -7.51 C-37.61 -7.51, -37.61 -7.51, -37.61 -7.51 M-44.43 6.43 C-37.89 -1.26, -33.67 -8.17, -28.03 -12.44 M-44.43 6.43 C-40.39 2.7, -37.71 -1.35, -28.03 -12.44 M-42.72 10.56 C-37.58 3.94, -33.86 -0.94, -22.38 -12.83 M-42.72 10.56 C-36.33 4.82, -32.48 -2.33, -22.38 -12.83 M-41.01 14.7 C-35.44 8.96, -28.97 -0.84, -18.05 -11.72 M-41.01 14.7 C-33.9 8.33, -27.67 -0.09, -18.05 -11.72 M-38.65 18.08 C-30.83 12.86, -26.94 4.05, -15.03 -9.09 M-38.65 18.08 C-30.86 9.64, -24.92 2.98, -15.03 -9.09 M-36.29 21.46 C-31.59 13.27, -24.12 5.88, -11.36 -7.22 M-36.29 21.46 C-29.79 14.84, -24.66 7.47, -11.36 -7.22 M-33.27 24.08 C-26.55 16.5, -20.16 9.85, -8.34 -4.6 M-33.27 24.08 C-24.82 14.84, -18.95 5.21, -8.34 -4.6 M-30.91 27.46 C-25.09 17.69, -16.23 12.79, -4.66 -2.73 M-30.91 27.46 C-22.67 15.63, -12.99 5.38, -4.66 -2.73 M-27.89 30.08 C-19.34 21.78, -12.78 12.34, -0.99 -0.86 M-27.89 30.08 C-21.1 24.24, -17.43 18.24, -0.99 -0.86 M-25.53 33.46 C-12.06 17.8, -3.05 5.17, 18.43 -17.1 M-25.53 33.46 C-12.72 18.33, 1.43 3.02, 18.43 -17.1 M-22.51 36.09 C-4.12 15.8, 15.27 -5.42, 24.73 -18.25 M-22.51 36.09 C-7.16 20.23, 5.85 2.46, 24.73 -18.25 M-19.49 38.71 C-1.55 17.56, 18.46 -4.46, 30.37 -18.65 M-19.49 38.71 C-0.98 16.06, 16.62 -3.8, 30.37 -18.65 M-16.47 41.33 C-1.65 26.44, 14.45 5.75, 34.7 -17.53 M-16.47 41.33 C2.93 18.7, 22.31 -1.73, 34.7 -17.53 M-13.45 43.96 C2.95 22.31, 21.98 2.08, 38.38 -15.66 M-13.45 43.96 C6.69 20.88, 25.61 -1.35, 38.38 -15.66 M-10.43 46.58 C0.37 33.34, 15.45 16.89, 40.09 -11.53 M-10.43 46.58 C0.86 33.93, 13.25 19.29, 40.09 -11.53 M-7.41 49.21 C10.45 31.26, 24.85 11.14, 42.45 -8.15 M-7.41 49.21 C6.1 32.99, 21.26 15.58, 42.45 -8.15 M-4.39 51.83 C12.11 32.06, 29.58 14.52, 44.81 -4.77 M-4.39 51.83 C11.77 33.46, 29.23 13.7, 44.81 -4.77 M-2.03 55.21 C11.12 39.84, 27.94 20.04, 46.52 -0.64 M-2.03 55.21 C8.55 43.42, 18.6 32.88, 46.52 -0.64 M0.99 57.83 C13.73 46.65, 23.85 30.31, 47.57 4.25 M0.99 57.83 C10.85 46.93, 20.62 33.36, 47.57 4.25 M4.01 60.46 C21.62 42.4, 38.97 19.67, 47.31 10.65 M4.01 60.46 C12.08 50.96, 22.51 40, 47.31 10.65" stroke="#e64980" stroke-width="0.5" fill="none"></path><path d="M-0.17 -0.51 C2.86 -3.03, 10.94 -13.51, 17.38 -16.16 C23.81 -18.81, 33.75 -21.39, 38.43 -16.42 C43.11 -11.45, 50.17 1.68, 45.46 13.66 C40.75 25.64, 18.11 48.54, 10.18 55.47 C2.25 62.39, 5.51 60.63, -2.12 55.19 C-9.75 49.76, -28.68 31.36, -35.61 22.86 C-42.55 14.35, -45.25 10.26, -43.72 4.17 C-42.19 -1.92, -33.87 -12.9, -26.43 -13.71 C-19 -14.52, -3.32 -2.79, 0.89 -0.69 M-1.72 -1.82 C1.25 -4.56, 10 -15.37, 16.61 -17.67 C23.21 -19.97, 33.14 -21.04, 37.91 -15.63 C42.69 -10.23, 50.09 2.92, 45.24 14.75 C40.38 26.59, 16.48 48.74, 8.8 55.36 C1.12 61.98, 6.52 59.57, -0.87 54.47 C-8.26 49.37, -28.3 33.09, -35.53 24.74 C-42.77 16.39, -46.09 11, -44.27 4.37 C-42.45 -2.26, -31.72 -14.08, -24.6 -15.06 C-17.48 -16.04, -5.39 -3.89, -1.54 -1.5" stroke="#a61e4d" stroke-width="1" fill="none"></path></g></g><mask></mask><g stroke-linecap="round"><g transform="translate(52.621290065830635 74.41626153305333) rotate(335.12195775801814 -0.38468817680586653 17.450500330671275)" fill-rule="evenodd"><path d="M-36.32 0.23 C-36.32 0.23, -36.32 0.23, -36.32 0.23 M-36.32 0.23 C-36.32 0.23, -36.32 0.23, -36.32 0.23 M-41.17 11.91 C-37.39 5.36, -32.69 0.95, -26.08 -5.45 M-41.17 11.91 C-36.83 6.79, -31.95 1.42, -26.08 -5.45 M-39.47 16.04 C-37.03 12.05, -31.5 4.98, -21.1 -5.09 M-39.47 16.04 C-36.2 10.59, -31.92 6.51, -21.1 -5.09 M-37.76 20.18 C-30.63 10.28, -23.93 1.54, -16.76 -3.97 M-37.76 20.18 C-31.73 13.09, -27.54 8.13, -16.76 -3.97 M-35.4 23.56 C-31.38 17.87, -26.1 10.8, -12.43 -2.86 M-35.4 23.56 C-30.62 18.31, -25.98 11.31, -12.43 -2.86 M-32.38 26.18 C-26.43 17.83, -20.07 13.37, -8.1 -1.74 M-32.38 26.18 C-26.44 18.73, -19.25 9.87, -8.1 -1.74 M-30.01 29.56 C-20.56 19.5, -11.22 9.64, -3.77 -0.63 M-30.01 29.56 C-22.44 18.52, -12.92 9.07, -3.77 -0.63 M-27.65 32.94 C-14.93 21.13, -1.62 6.99, 12.37 -13.1 M-27.65 32.94 C-14.33 17.41, -0.45 1.45, 12.37 -13.1 M-24.63 35.56 C-11.08 19.03, -0.66 4.01, 20.64 -16.51 M-24.63 35.56 C-14.32 22.72, -1.88 8.04, 20.64 -16.51 M-21.61 38.19 C-6.23 18.16, 12.08 -0.72, 24.97 -15.4 M-21.61 38.19 C-11.24 26.83, 0.23 15.42, 24.97 -15.4 M-17.94 40.06 C-5.9 28.11, 5.28 12.12, 29.3 -14.28 M-17.94 40.06 C-8.1 26.47, 4.42 14.89, 29.3 -14.28 M-14.26 41.93 C-1.68 28.01, 11.13 15.67, 33.63 -13.17 M-14.26 41.93 C1.82 23.43, 19.82 2.85, 33.63 -13.17 M-11.24 44.55 C2.24 28.29, 14.58 14.17, 36.65 -10.54 M-11.24 44.55 C0.25 32.54, 12.09 19.27, 36.65 -10.54 M-7.57 46.42 C4.5 32.17, 19.05 18.13, 39.01 -7.16 M-7.57 46.42 C3.17 33.42, 14.02 21.82, 39.01 -7.16 M-3.9 48.29 C12.47 30.34, 26.25 13.48, 40.06 -2.28 M-3.9 48.29 C5.94 36.77, 14.65 27.09, 40.06 -2.28 M0.44 49.4 C7.93 38.89, 18.75 29.44, 41.77 1.86 M0.44 49.4 C17.71 29.83, 33.42 11.8, 41.77 1.86 M4.77 50.52 C20.67 34.55, 34.03 18.06, 42.16 7.5 M4.77 50.52 C13.26 41.05, 21.54 32.17, 42.16 7.5 M8.44 52.39 C18.4 40.57, 23.64 34.09, 41.9 13.9 M8.44 52.39 C15.72 45.2, 21.01 36.27, 41.9 13.9 M14.74 51.24 C23.61 39.29, 30.4 31.05, 37.7 24.82 M14.74 51.24 C20.92 42.17, 29.74 35.1, 37.7 24.82" stroke="#e64980" stroke-width="0.5" fill="none"></path><path d="M0.33 1.16 C-3.84 0.16, -18.09 -7.9, -25.23 -6.54 C-32.37 -5.18, -42.22 2.83, -42.5 9.3 C-42.77 15.77, -34.35 25.2, -26.88 32.28 C-19.41 39.35, -5.11 49.25, 2.33 51.74 C9.78 54.24, 11.23 53.02, 17.8 47.23 C24.36 41.44, 38.51 26.42, 41.74 17.01 C44.97 7.6, 41.29 -3.57, 37.17 -9.23 C33.06 -14.89, 23.43 -18.28, 17.04 -16.93 C10.65 -15.58, 1.74 -4.05, -1.18 -1.11 M-0.95 0.72 C-5.23 -0.12, -19.41 -7.18, -25.93 -5.53 C-32.45 -3.88, -39.98 4.2, -40.08 10.61 C-40.18 17.01, -33.95 25.91, -26.54 32.89 C-19.13 39.86, -3.17 49.7, 4.36 52.45 C11.9 55.21, 12.84 55.46, 18.65 49.42 C24.45 43.38, 36.31 26.04, 39.2 16.21 C42.09 6.38, 39.89 -4.33, 35.99 -9.54 C32.1 -14.74, 22 -16.86, 15.83 -15.02 C9.66 -13.17, 1.67 -0.73, -1.03 1.51" stroke="#a61e4d" stroke-width="1" fill="none"></path></g></g><mask></mask><g stroke-linecap="round"><g transform="translate(83.7179894744927 158.3911763931137) rotate(0 0.5454545454545041 15.500000000001819)" fill-rule="evenodd"><path d="M-30.91 -1.69 C-30.91 -1.69, -30.91 -1.69, -30.91 -1.69 M-30.91 -1.69 C-30.91 -1.69, -30.91 -1.69, -30.91 -1.69 M-33.79 7.72 C-30.46 1.68, -26.19 -2.23, -20.02 -8.13 M-33.79 7.72 C-29.86 3.09, -25.4 -1.79, -20.02 -8.13 M-33.4 13.37 C-30.66 9.02, -24.82 1.59, -13.72 -9.27 M-33.4 13.37 C-29.86 7.58, -25.29 3.17, -13.72 -9.27 M-31.04 16.75 C-23.91 6.85, -17.2 -1.89, -10.04 -7.41 M-31.04 16.75 C-25.01 9.66, -20.82 4.7, -10.04 -7.41 M-28.67 20.12 C-24.8 14.6, -19.65 7.7, -6.37 -5.54 M-28.67 20.12 C-24.04 15.04, -19.54 8.2, -6.37 -5.54 M-26.31 23.5 C-20.73 15.55, -14.72 11.49, -3.35 -2.91 M-26.31 23.5 C-20.74 16.49, -13.92 8.05, -3.35 -2.91 M-23.29 26.13 C-15 17.41, -6.82 8.88, -0.33 -0.29 M-23.29 26.13 C-16.78 16.35, -8.37 8.16, -0.33 -0.29 M-20.27 28.75 C-9.83 19.43, 1.28 7.83, 12.53 -8.98 M-20.27 28.75 C-9.48 15.98, 1.95 2.84, 12.53 -8.98 M-17.26 31.38 C-6.29 17.88, 1.48 5.91, 18.83 -10.13 M-17.26 31.38 C-9.23 21.32, 0.82 9.4, 18.83 -10.13 M-14.24 34 C-2.35 18.01, 12.37 3.25, 22.5 -8.26 M-14.24 34 C-6.11 25.14, 3.2 16.2, 22.5 -8.26 M-11.22 36.62 C-1.43 27.32, 7.51 13.9, 26.83 -7.15 M-11.22 36.62 C-3.44 25.53, 6.95 16.4, 26.83 -7.15 M-8.2 39.25 C1.91 28.14, 12.29 18.61, 29.85 -4.52 M-8.2 39.25 C4.38 24.71, 18.86 8.18, 29.85 -4.52 M-3.87 40.36 C6.61 27.67, 15.95 17, 32.22 -1.15 M-3.87 40.36 C4.79 31.46, 13.84 21.4, 32.22 -1.15 M-0.19 42.23 C8.29 31.91, 19.37 21.87, 33.27 3.74 M-0.19 42.23 C7.48 32.74, 15.19 24.75, 33.27 3.74 M6.76 40.33 C16.45 30.03, 23.73 20.64, 32.35 10.9 M6.76 40.33 C12.81 33.23, 17.72 27.91, 32.35 10.9" stroke="#e64980" stroke-width="0.5" fill="none"></path><path d="M0.48 -1.01 C3.09 -3.01, 10.57 -10.77, 16.01 -10.84 C21.44 -10.91, 31.52 -7.11, 33.09 -1.44 C34.65 4.22, 31.22 16.07, 25.38 23.15 C19.54 30.22, 7.4 41.95, -1.98 40.99 C-11.36 40.03, -26.07 24.54, -30.91 17.4 C-35.74 10.25, -33.76 2.83, -30.98 -1.89 C-28.19 -6.61, -19.17 -11.05, -14.2 -10.92 C-9.24 -10.79, -3.47 -3.05, -1.18 -1.11 M-0.73 1.07 C2.22 -0.22, 12.72 -9.03, 18.25 -9.31 C23.77 -9.6, 31.21 -5.66, 32.41 -0.62 C33.62 4.42, 30.93 13.98, 25.47 20.91 C20.01 27.84, 9.34 41.62, -0.35 40.95 C-10.04 40.28, -27.65 24.26, -32.67 16.9 C-37.7 9.54, -33.47 1.55, -30.49 -3.2 C-27.5 -7.95, -19.88 -12.25, -14.77 -11.62 C-9.65 -10.99, -2.28 -1.46, 0.19 0.58" stroke="#a61e4d" stroke-width="1" fill="none"></path></g></g><mask></mask><g stroke-linecap="round"><g transform="translate(260.4119233872475 112.250145479622) rotate(33.89978882129545 -0.782277827911912 14.545454545455868)" fill-rule="evenodd"><path d="M-40.99 -10.46 C-40.99 -10.46, -40.99 -10.46, -40.99 -10.46 M-40.99 -10.46 C-40.99 -10.46, -40.99 -10.46, -40.99 -10.46 M-43.22 -1.79 C-38.81 -6.78, -34.98 -10.94, -32.07 -14.62 M-43.22 -1.79 C-39.26 -7.28, -34.59 -11.46, -32.07 -14.62 M-42.17 3.09 C-37.37 -3.02, -35.19 -7.35, -25.11 -16.53 M-42.17 3.09 C-36.76 -2.47, -33.36 -8.26, -25.11 -16.53 M-40.46 7.23 C-35.15 4.11, -33.85 -2.91, -20.78 -15.41 M-40.46 7.23 C-32.6 -1.06, -26.64 -8.66, -20.78 -15.41 M-38.75 11.36 C-34.94 5.08, -27.38 -1.71, -16.45 -14.3 M-38.75 11.36 C-34.32 5.63, -29.53 0.02, -16.45 -14.3 M-36.39 14.74 C-25.91 2.55, -16.9 -7.28, -13.43 -11.67 M-36.39 14.74 C-30.65 7.99, -24.36 1.19, -13.43 -11.67 M-34.03 18.12 C-25.77 5.84, -18.4 -2.9, -10.41 -9.05 M-34.03 18.12 C-28.36 10.99, -20.24 4.15, -10.41 -9.05 M-31.67 21.5 C-23.86 9.29, -13.01 -1.2, -7.39 -6.43 M-31.67 21.5 C-25.89 15.02, -20.7 6.96, -7.39 -6.43 M-28.65 24.12 C-22.12 15.69, -15.81 10.76, -4.37 -3.8 M-28.65 24.12 C-22.92 15.5, -15.65 8.32, -4.37 -3.8 M-25.63 26.75 C-18.2 18.43, -10.66 12.99, -1.35 -1.18 M-25.63 26.75 C-15.77 16.49, -6.41 5.81, -1.35 -1.18 M4.55 -7.97 C8.29 -12.79, 9.05 -13.33, 16.36 -21.55 M4.55 -7.97 C8.56 -12.12, 12.23 -16.12, 16.36 -21.55 M-23.27 30.13 C-8.84 9.19, 10.92 -8.01, 23.31 -23.46 M-23.27 30.13 C-8.49 15.14, 3.27 -0.42, 23.31 -23.46 M-20.25 32.75 C-11.8 21.33, 1.33 10.79, 28.96 -23.85 M-20.25 32.75 C-4.04 13.84, 12.77 -4.01, 28.96 -23.85 M-17.23 35.37 C-3.87 17.86, 11.48 0.3, 33.29 -22.74 M-17.23 35.37 C1.85 14.8, 19.51 -7.29, 33.29 -22.74 M-14.21 38 C5.51 18.12, 21.65 -4.03, 36.31 -20.11 M-14.21 38 C1.02 20.58, 14.92 4.93, 36.31 -20.11 M-11.19 40.62 C8.88 20.02, 26.17 -3.66, 38.01 -15.98 M-11.19 40.62 C3.62 23.38, 19.8 4.92, 38.01 -15.98 M-8.17 43.25 C8.35 26.44, 22.44 9.42, 39.72 -11.85 M-8.17 43.25 C11.2 22.82, 28.21 -0.11, 39.72 -11.85 M-5.15 45.87 C10.78 27.87, 29.65 5.62, 40.77 -6.96 M-5.15 45.87 C5.55 34.05, 13.91 21.39, 40.77 -6.96 M-1.48 47.74 C13.52 30.97, 23.14 19.51, 41.82 -2.07 M-1.48 47.74 C12.86 32.33, 25.02 14.72, 41.82 -2.07 M1.54 50.37 C15.63 37.4, 26.86 20.64, 42.87 2.82 M1.54 50.37 C13.17 35.46, 24.54 21.82, 42.87 2.82 M4.56 52.99 C17.42 40.87, 28.34 28.03, 39.33 12.99 M4.56 52.99 C18.94 37.27, 32.47 21.08, 39.33 12.99 M17.42 44.29 C20.47 41.4, 23.12 35.52, 27.92 32.22 M17.42 44.29 C21.25 40.76, 24.33 37.81, 27.92 32.22" stroke="#e64980" stroke-width="0.5" fill="none"></path><path d="M-0.9 -0.02 C1.47 -3.65, 8.71 -19.38, 14.72 -22.76 C20.73 -26.14, 30.77 -25.08, 35.15 -20.31 C39.53 -15.54, 42.01 -2.85, 41 5.86 C39.99 14.57, 34.31 24.42, 29.09 31.94 C23.88 39.46, 14.71 48.23, 9.7 50.97 C4.7 53.72, 6.64 54.05, -0.93 48.4 C-8.5 42.75, -28.53 26.08, -35.73 17.07 C-42.92 8.06, -46.19 0.27, -44.11 -5.65 C-42.03 -11.57, -30.77 -19.54, -23.27 -18.43 C-15.77 -17.33, -2.87 -2.04, 0.9 0.96 M0.83 -1.08 C3.02 -4.49, 8.3 -18.18, 13.87 -21.72 C19.43 -25.26, 29.76 -27.04, 34.23 -22.33 C38.7 -17.63, 41.71 -2.06, 40.69 6.53 C39.67 15.12, 33.06 21.98, 28.1 29.21 C23.15 36.45, 16.23 46.45, 10.96 49.97 C5.7 53.49, 3.96 55.38, -3.48 50.35 C-10.93 45.33, -27.23 29.31, -33.71 19.8 C-40.19 10.3, -44.27 -0.72, -42.37 -6.66 C-40.47 -12.6, -29.66 -16.74, -22.31 -15.84 C-14.97 -14.93, -2.24 -3.67, 1.7 -1.21" stroke="#a61e4d" stroke-width="1" fill="none"></path></g></g><mask></mask></svg>