<svg version="1.1" xmlns="http://www.w3.org/2000/svg" viewBox="0 0 204.01940351116718 177.2029487419568" width="204.01940351116718" height="177.2029487419568" filter="invert(93%) hue-rotate(180deg)"><!-- svg-source:excalidraw --><metadata></metadata><defs><style class="style-fonts">
      </style></defs><g stroke-linecap="round"><g transform="translate(57.87848780375771 160.95495562744327) rotate(0 66.92285088273593 -31.205776468415934)"><path d="M-1.16 -1.14 C3.51 -0.84, 6.86 12.85, 29.16 2.2 C51.47 -8.44, 115.13 -53.78, 132.68 -65 M0.44 0.88 C5.38 0.77, 9.05 11.18, 31.47 0.34 C53.9 -10.5, 117.7 -53.33, 134.97 -64.15" stroke="#1e1e1e" stroke-width="2" fill="none"></path></g></g><mask></mask><g stroke-linecap="round"><g transform="translate(56.21364066379101 158.99560724456933) rotate(0 -22.489904375332117 -22.583103168673006)"><path d="M-0.26 -0.77 C-6.94 -5.72, -33.49 -22.93, -40.99 -30.37 C-48.5 -37.82, -44.78 -42.95, -45.29 -45.45 M1.8 1.43 C-4.41 -3.78, -30.7 -24.44, -38.7 -32.06 C-46.71 -39.68, -45.45 -42.23, -46.21 -44.29" stroke="#1e1e1e" stroke-width="2" fill="none"></path></g></g><mask></mask><g stroke-linecap="round"><g transform="translate(11.84570840608285 113.395282407384) rotate(0 5.325404128881473 -23.482358326813483)"><path d="M0.03 -0.4 C0.19 -6.37, -0.7 -28.54, 1.06 -36.33 C2.83 -44.11, 8.96 -45.3, 10.63 -47.11 M-0.62 0.58 C-0.28 -5.26, 0.34 -27.84, 2.15 -35.7 C3.97 -43.57, 8.73 -44.74, 10.27 -46.59" stroke="#1e1e1e" stroke-width="2" fill="none"></path></g></g><mask></mask><g stroke-linecap="round"><g transform="translate(17.381455162370003 70.35470477379022) rotate(0 15.190317800653702 -12.720049452045714)"><path d="M0 0 C6.85 -5.3, 13.24 -12.25, 30.38 -25.44 M0 0 C6.72 -5.7, 14.11 -11.3, 30.38 -25.44" stroke="#1e1e1e" stroke-width="2" fill="none"></path></g></g><mask></mask><g stroke-linecap="round"><g transform="translate(47.8485868067437 45.02822355338867) rotate(0 31.581684470504115 -7.925383200340548)"><path d="M0 0 C5.26 0.43, 9.43 -0.84, 18.36 1.23 M0 0 C5.46 -0.53, 12.89 0.7, 18.36 1.23 M18.36 1.23 C20.36 3.91, 23.12 4.37, 24.6 7.21 M18.36 1.23 C20.54 3.1, 22.4 4.74, 24.6 7.21 M24.6 7.21 C34.21 1.24, 41.72 -6.83, 63.16 -23.06 M24.6 7.21 C37.71 -2.97, 50.08 -13.21, 63.16 -23.06" stroke="#1e1e1e" stroke-width="2" fill="none"></path></g></g><mask></mask><g stroke-linecap="round"><g transform="translate(106.64217407645629 24.88148102784362) rotate(0 20.94302802785296 -7.045236122125971)"><path d="M0.47 -0.34 C4.13 -2.72, 14.75 -13.51, 21.63 -13.96 C28.51 -14.41, 38.28 -4.88, 41.73 -3.03 M0.04 0.68 C3.7 -1.91, 14.6 -14.32, 21.47 -14.86 C28.35 -15.41, 37.77 -4.65, 41.3 -2.59" stroke="#1e1e1e" stroke-width="2" fill="none"></path></g></g><mask></mask><g stroke-linecap="round"><g transform="translate(142.76046961569773 18.52788810752645) rotate(0 24.47668383710561 21.961939369569336)"><path d="M1.08 0.74 C8.44 6.24, 35.74 26.14, 43.72 33.37 C51.71 40.6, 48.07 42.24, 48.97 44.11 M0.19 0.08 C7.96 5.17, 37.96 23.82, 45.97 31.4 C53.97 38.97, 47.62 43.69, 48.21 45.53" stroke="#1e1e1e" stroke-width="2" fill="none"></path></g></g><mask></mask><g stroke-linecap="round"><g transform="translate(192.25700719499946 61.79439769716737) rotate(0 -33.08741391174635 20.242725538623745)"><path d="M-0.57 -0.3 C-9.49 6.5, -41.74 33.38, -52.56 40.16 C-63.38 46.94, -63.19 40.22, -65.5 40.38 M1.33 -1.5 C-7.83 5.05, -42.36 31.39, -53.56 38.58 C-64.77 45.77, -63.79 41.59, -65.92 41.64" stroke="#1e1e1e" stroke-width="2" fill="none"></path></g></g><mask></mask><g stroke-linecap="round"><g transform="translate(128.32026080545347 104.45612103058374) rotate(0 -11.693062209285927 -4.069054634129316)"><path d="M0.44 -0.47 C-1.31 -1.89, -6.17 -8.08, -10.05 -8.22 C-13.94 -8.36, -20.72 -2.42, -22.87 -1.31 M0 0.47 C-1.87 -0.89, -6.72 -7.36, -10.55 -7.57 C-14.37 -7.77, -20.94 -1.8, -22.95 -0.74" stroke="#1e1e1e" stroke-width="2" fill="none"></path></g></g><mask></mask><g stroke-linecap="round"><g transform="translate(105.30674220114724 103.57622628775425) rotate(0 -10.01371575103758 6.877747829003965)"><path d="M0.45 0.03 C-2.75 2.24, -16.06 10.93, -19.51 13.27 M0.02 -0.42 C-3.18 1.83, -16.22 11.46, -19.68 13.72" stroke="#1e1e1e" stroke-width="2" fill="none"></path></g></g><mask></mask><g stroke-linecap="round"><g transform="translate(86.39555596543687 116.6032801991696) rotate(0 -11.365787482127871 2.060861272290822)"><path d="M0.49 0.07 C-1.34 1.13, -6.87 6.21, -10.77 5.85 C-14.66 5.5, -20.92 -0.84, -22.9 -2.04 M0.08 -0.37 C-1.83 0.84, -7.21 6.78, -11.11 6.57 C-15.01 6.36, -21.44 -0.13, -23.33 -1.62" stroke="#1e1e1e" stroke-width="2" fill="none"></path></g></g><mask></mask><g stroke-linecap="round"><g transform="translate(14.122314115494191 75.86267751942069) rotate(0 25.891935323754296 20.693585139762035)"><path d="M1.2 -0.91 C10.01 6.03, 43.42 35.28, 51.83 42.13 M0.37 1.23 C9.11 7.78, 42.5 33.79, 50.9 40.4" stroke="#1e1e1e" stroke-width="2" fill="none"></path></g></g><mask></mask><g stroke-linecap="round"><g transform="translate(192.92680978398676 57.05140059973564) rotate(0 0.3938790345223424 18.639481530305602)"><path d="M0.4 -0.07 C0.62 6.02, 0.86 30.69, 0.94 36.91 M-0.06 -0.59 C0.14 5.54, 0.48 31.01, 0.59 37.42" stroke="#1e1e1e" stroke-width="2" fill="none"></path></g></g><mask></mask><g stroke-linecap="round"><g transform="translate(80.44089220998103 122.91196359830974) rotate(0 0.4041707188539476 20.20388495629595)"><path d="M-0.48 -0.29 C-0.3 6.56, 0.33 33.82, 0.62 40.57 M0.28 0.76 C0.41 7.48, -0.05 33.04, 0.09 39.69" stroke="#1e1e1e" stroke-width="2" fill="none"></path></g></g><mask></mask><g stroke-linecap="round"><g transform="translate(71.73454717037202 123.92478445394772) rotate(0 0.4041707188539476 20.20388495629595)"><path d="M0.5 0.46 C0.55 7.29, 0.34 33.79, 0.36 40.52 M0.09 0.21 C0.3 6.92, 1.35 32.99, 1.36 39.6" stroke="#1e1e1e" stroke-width="2" fill="none"></path></g></g><mask></mask><g stroke-linecap="round"><g transform="translate(193.14305053192402 84.13733072716241) rotate(0 -68.04784487841835 33.861453255197375)"><path d="M0.88 0.03 C-16.59 11.36, -81.73 57.75, -104.59 68.46 C-127.46 79.18, -131 65.28, -136.31 64.33 M-0.12 -0.99 C-17.74 9.95, -82.52 56.17, -105.37 66.73 C-128.21 77.28, -132.02 62.91, -137.19 62.35" stroke="#1e1e1e" stroke-width="1" fill="none"></path></g></g><mask></mask><g stroke-linecap="round"><g transform="translate(23.717461978168103 124.69794237897622) rotate(0 -5.253754246461995 -4.716565316340166)"><path d="M-0.3 0.04 C-2.2 -1.51, -9.3 -7.99, -10.99 -9.51 M0.54 -0.42 C-1.23 -1.85, -8.13 -7.26, -10 -8.85" stroke="#1e1e1e" stroke-width="2" fill="none"></path></g></g><mask></mask><g stroke-linecap="round"><g transform="translate(73.41716209669448 104.66438255788853) rotate(0 20.16702902123143 -10.48056276650641)"><path d="M-0.23 0.31 C4.3 -3.07, 19.88 -16.68, 26.68 -20.2 C33.48 -23.73, 38.1 -20.62, 40.57 -20.82 M-1.81 -0.57 C3.11 -4.3, 21.84 -18.83, 28.8 -21.98 C35.76 -25.12, 38.28 -19.67, 39.93 -19.43" stroke="#1e1e1e" stroke-width="1" fill="none"></path></g></g><mask></mask><g stroke-linecap="round"><g transform="translate(113.47925312940151 83.48380397025721) rotate(0 12.266323560461387 3.389084830923821)"><path d="M-0.48 0 C1.24 1.09, 6.48 6.75, 10.66 6.8 C14.84 6.86, 22.29 1.41, 24.62 0.34 M0.28 -0.47 C2.15 0.69, 7.75 7.54, 11.75 7.52 C15.76 7.49, 22.14 0.75, 24.31 -0.6" stroke="#1e1e1e" stroke-width="1" fill="none"></path></g></g><mask></mask><g stroke-linecap="round"><g transform="translate(136.1647141469075 83.4357097967495) rotate(0 19.47986502681124 -17.52272755262493)"><path d="M0.42 0.73 C7.07 -3.57, 33.92 -20.59, 38.78 -26.72 C43.65 -32.85, 31 -34.69, 29.63 -36.06 M-0.82 0.07 C5.76 -4.04, 32.28 -19.87, 37.75 -25.77 C43.21 -31.66, 33.15 -33.93, 31.99 -35.28" stroke="#1e1e1e" stroke-width="1" fill="none"></path></g></g><mask></mask><g stroke-linecap="round"><g transform="translate(174.05733349314323 52.8117199963599) rotate(0 -26.160933893101628 -15.02130608806874)"><path d="M-0.41 0.76 C-7.4 -4.3, -33.24 -24.28, -42.08 -29.2 C-50.93 -34.13, -51.84 -28.73, -53.5 -28.78 M1.57 0.12 C-5.01 -4.77, -30.94 -26.28, -39.74 -30.89 C-48.54 -35.49, -49.24 -27.86, -51.23 -27.52" stroke="#1e1e1e" stroke-width="1" fill="none"></path></g></g><mask></mask><g stroke-linecap="round"><g transform="translate(123.136293089643 24.643851965223803) rotate(0 -20.651803830257904 15.818308843860905)"><path d="M0.52 -0.18 C-6.34 5.1, -34.94 26.53, -41.99 31.86 M-0.67 -1.32 C-7.06 3.56, -32.61 24.11, -39.64 29.85" stroke="#1e1e1e" stroke-width="1" fill="none"></path></g></g><mask></mask><g stroke-linecap="round"><g transform="translate(72.97427888990933 52.31621915890537) rotate(0 18.323051859545558 15.184258884664814)"><path d="M-0.68 0.29 C5.67 5.3, 31.64 24.62, 37.85 29.47 M1.17 -0.6 C7.49 4.58, 31.76 25.4, 37.53 30.53" stroke="#1e1e1e" stroke-width="1" fill="none"></path></g></g><mask></mask><g stroke-linecap="round" transform="translate(119.0426811276493 47.88207790508932) rotate(0 9.632735953026895 5.9061763721092575)"><path d="M11.05 0.04 C13.17 0.16, 15.8 1.14, 17.15 2 C18.51 2.85, 19.21 4.01, 19.17 5.18 C19.14 6.36, 18.14 8.01, 16.97 9.04 C15.79 10.07, 14.14 11.07, 12.12 11.39 C10.11 11.7, 6.7 11.42, 4.88 10.95 C3.06 10.48, 1.91 9.77, 1.22 8.56 C0.52 7.35, 0.27 5.03, 0.72 3.69 C1.17 2.35, 2.25 1.18, 3.94 0.52 C5.63 -0.13, 9.61 -0.13, 10.86 -0.25 C12.11 -0.37, 11.5 -0.41, 11.46 -0.21 M10.67 0.71 C12.58 0.77, 15.06 0.55, 16.46 1.41 C17.86 2.28, 18.99 4.44, 19.05 5.91 C19.12 7.38, 18.2 9.23, 16.83 10.22 C15.46 11.22, 12.76 11.71, 10.85 11.88 C8.95 12.06, 7.17 11.92, 5.4 11.28 C3.64 10.64, 1.03 9.2, 0.27 8.05 C-0.49 6.89, 0.1 5.66, 0.84 4.36 C1.59 3.06, 2.92 0.86, 4.75 0.24 C6.58 -0.38, 10.73 0.72, 11.85 0.66 C12.98 0.6, 11.56 -0.19, 11.51 -0.12" stroke="#1e1e1e" stroke-width="1" fill="none"></path></g><g stroke-linecap="round" transform="translate(114.48346276876237 43.92005932304346) rotate(0 14.03898176067105 10.104378917153554)"><path d="M12.55 -0.26 C15.37 -0.51, 18.92 0.73, 21.45 1.96 C23.97 3.18, 26.86 5.01, 27.72 7.08 C28.58 9.15, 27.89 12.35, 26.59 14.37 C25.3 16.39, 22.58 18.28, 19.96 19.19 C17.34 20.1, 13.74 20.38, 10.89 19.83 C8.04 19.29, 4.61 17.58, 2.86 15.92 C1.11 14.25, 0.2 11.95, 0.36 9.85 C0.52 7.74, 1.66 4.94, 3.84 3.29 C6.01 1.65, 11.67 0.48, 13.41 -0.02 C15.15 -0.52, 14.25 0.14, 14.29 0.3 M12.6 -0.25 C15.33 -0.67, 18.53 0.97, 21.02 2.11 C23.51 3.26, 26.51 4.64, 27.54 6.61 C28.56 8.57, 28.34 11.92, 27.16 13.92 C25.99 15.91, 23.17 17.48, 20.49 18.57 C17.8 19.67, 13.99 20.82, 11.06 20.48 C8.13 20.14, 4.68 18.38, 2.92 16.54 C1.16 14.69, 0.27 11.63, 0.5 9.41 C0.73 7.18, 2.33 4.75, 4.29 3.18 C6.25 1.61, 11.01 0.55, 12.24 -0.02 C13.47 -0.6, 11.74 -0.47, 11.66 -0.26" stroke="#1e1e1e" stroke-width="1" fill="none"></path></g><g stroke-linecap="round"><g transform="translate(40.64610917756818 63.43580971717529) rotate(0 11.88226397755625 -8.340709255419824)"><path d="M-1.24 1.55 C6.22 -2.33, 10.01 -7.26, 23.01 -15.14 M-0.15 0.1 C8.82 -5.35, 16.36 -11.81, 24.58 -15.7" stroke="#1e1e1e" stroke-width="1" fill="none"></path></g></g><mask></mask><g stroke-linecap="round"><g transform="translate(26.610173063241746 124.52492548845657) rotate(0 0.5067784253587888 -17.040353402585424)"><path d="M0 0 C0.08 -11.67, 1.13 -23.28, 1.01 -34.08 M0 0 C-0.1 -8.68, 0.61 -16.81, 1.01 -34.08" stroke="#1e1e1e" stroke-width="1" fill="none"></path></g></g><mask></mask><g stroke-linecap="round"><g transform="translate(27.01089041043724 125.14421593412226) rotate(0 14.561484017594921 10.744803072438117)"><path d="M0 0 C11.68 7.88, 22.01 16.21, 29.12 21.49 M0 0 C10.35 8, 20.63 15.61, 29.12 21.49" stroke="#1e1e1e" stroke-width="1" fill="none"></path></g></g><mask></mask><g stroke-linecap="round"><g transform="translate(56.007116405889064 144.81579479641368) rotate(0 0.24001299441351875 -16.25959966977007)"><path d="M0 0 C-0.44 -9.34, 0.77 -18.63, 0.48 -32.52 M0 0 C0 -8.65, 0.18 -17.96, 0.48 -32.52" stroke="#1e1e1e" stroke-width="1" fill="none"></path></g></g><mask></mask><g stroke-linecap="round"><g transform="translate(30.74067337026463 125.62272405421027) rotate(0 0.3587862232693624 -10.723173442902407)"><path d="M0 0 C0.46 -6.1, -0.6 -11.93, 0.72 -21.45 M0 0 C-0.31 -4.33, 0.72 -10.06, 0.72 -21.45" stroke="#1e1e1e" stroke-width="1" fill="none"></path></g></g><mask></mask><g stroke-linecap="round"><g transform="translate(31.95135031445534 104.20551470698956) rotate(0 4.763764259289019 -2.6986774167198746)"><path d="M0.38 0.27 C2.77 -2.3, 6.64 -3.25, 9.49 -4.77 M0.13 -0.3 C2.13 -1.3, 4.97 -2.86, 9.71 -5.1" stroke="#1e1e1e" stroke-width="1" fill="none"></path></g></g><mask></mask><g stroke-linecap="round"><g transform="translate(45.91622567695231 102.342754315614) rotate(0 4.886600324772644 9.423042349271782)"><path d="M0 0 C4.33 6.37, 6.11 13.24, 9.77 18.85 M0 0 C2.46 5.01, 5.54 10.38, 9.77 18.85" stroke="#1e1e1e" stroke-width="1" fill="none"></path></g></g><mask></mask><g stroke-linecap="round"><g transform="translate(32.40900180863173 125.38152537795395) rotate(0 9.579868047488617 -5.554989311183817)"><path d="M0 0 C7.17 -3.6, 12.28 -6.84, 19.16 -11.11 M0 0 C5.65 -2.85, 10.01 -6.41, 19.16 -11.11" stroke="#1e1e1e" stroke-width="1" fill="none"></path></g></g><mask></mask><g stroke-linecap="round"><g transform="translate(48.17560846578726 139.18210253872348) rotate(0 3.518426014567467 -2.5566015533022437)"><path d="M-0.3 0.2 C2.53 -1.49, 4.7 -3.45, 7.53 -5.26 M-0.07 -0.27 C2.24 -1.35, 4.36 -3.51, 7.22 -5.17" stroke="#1e1e1e" stroke-width="1" fill="none"></path></g></g><mask></mask><g stroke-linecap="round"><g transform="translate(177.15991138412028 54.02124098624154) rotate(0 6.834277503694466 2.7589971314619106)"><path d="M0.36 1.15 C1.64 1.38, 4.71 1.64, 6.95 2.53 C9.19 3.42, 12.85 5.96, 13.8 6.49 M-0.9 0.71 C0.31 1.08, 3.84 -0.02, 6.17 0.64 C8.51 1.3, 12.08 3.61, 13.11 4.66" stroke="#1e1e1e" stroke-width="1" fill="none"></path></g></g><mask></mask><g stroke-linecap="round"><g transform="translate(127.23532256241015 20.869669951087417) rotate(0 1.3110612342734385 -4.854574010410033)"><path d="M-0.47 -0.61 C-0.27 -1.49, 0.55 -3.59, 0.95 -5.09 C1.35 -6.59, 1.68 -8.92, 1.91 -9.61 M0.66 0.71 C0.82 -0.07, 0.13 -2.67, 0.58 -4.25 C1.03 -5.82, 3.06 -7.68, 3.36 -8.74" stroke="#1e1e1e" stroke-width="1" fill="none"></path></g></g><mask></mask><g stroke-linecap="round"><g transform="translate(110.11414400447848 83.46996614975251) rotate(0 3.169698809970214 7.531399534411321)"><path d="M0.91 1.04 C1.46 4.79, 5.11 10.93, 6.6 15.15 M0.37 -0.16 C2.82 4.77, 4.22 10.12, 7.08 14.95" stroke="#1e1e1e" stroke-width="1" fill="none"></path></g></g><mask></mask><g stroke-linecap="round"><g transform="translate(126.1181661384735 91.63643029406921) rotate(0 1.76861919680141 5.175804898158276)"><path d="M0.26 0.57 C1.16 4.3, 2.94 6.64, 4.4 11.05 M-0.5 0.38 C1.71 3.12, 2.01 7.14, 4.07 9.86" stroke="#1e1e1e" stroke-width="1" fill="none"></path></g></g><mask></mask><g stroke-linecap="round"><g transform="translate(123.22277866955756 57.607374451794385) rotate(0 6.124380156205461 -0.7655851811341563)"><path d="M-0.38 -0.29 C0.3 -0.51, 2.45 -1.06, 4.6 -1.11 C6.75 -1.17, 11.26 -0.74, 12.53 -0.61 M0.42 0.75 C1.24 0.36, 3.69 -1.73, 5.68 -1.86 C7.66 -2, 11.23 -0.41, 12.33 -0.06" stroke="#1e1e1e" stroke-width="1" fill="none"></path></g></g><mask></mask></svg>