<svg version="1.1" xmlns="http://www.w3.org/2000/svg" viewBox="0 0 203.64882696751647 176.41460534100224" width="203.64882696751647" height="176.41460534100224" filter="invert(93%) hue-rotate(180deg)"><!-- svg-source:excalidraw --><metadata></metadata><defs><style class="style-fonts">
      </style></defs><g stroke-linecap="round"><g transform="translate(57.308040980266014 159.31174832070246) rotate(0 66.92285088273593 -31.205776468415934)"><path d="M-0.91 0.47 C4.06 0.75, 6.96 13.54, 29.49 2.84 C52.02 -7.86, 116.85 -52.55, 134.26 -63.76 M0.82 -0.33 C5.61 0.15, 6.16 12.25, 28.31 1.32 C50.46 -9.61, 116.05 -55.13, 133.71 -65.92" stroke="#1e1e1e" stroke-width="4" fill="none"></path></g></g><mask></mask><g stroke-linecap="round"><g transform="translate(55.64319384030023 157.3523999378267) rotate(0 -22.489904375332117 -22.583103168673006)"><path d="M-0.44 1.14 C-6.92 -4.08, -32.37 -23.09, -39.78 -30.86 C-47.18 -38.62, -43.82 -43, -44.86 -45.44 M1.53 0.69 C-4.99 -4.94, -32.66 -25.3, -40.51 -32.79 C-48.36 -40.29, -44.6 -42.31, -45.56 -44.27" stroke="#1e1e1e" stroke-width="4" fill="none"></path></g></g><mask></mask><g stroke-linecap="round"><g transform="translate(11.275261582592066 111.75207510064138) rotate(0 3.3436584783903527 -22.186601555337802)"><path d="M0.19 0.16 C0.42 -6.24, 0.21 -30.46, 1.21 -37.91 C2.22 -45.36, 5.26 -43.43, 6.22 -44.53 M-0.38 -0.23 C-0.19 -6.32, -0.47 -29.98, 0.81 -37.28 C2.09 -44.57, 6.23 -42.87, 7.3 -44.01" stroke="#1e1e1e" stroke-width="4" fill="none"></path></g></g><mask></mask><g stroke-linecap="round"><g transform="translate(16.81100833887831 68.71149746705123) rotate(0 16.587209205240015 -11.96762660020886)"><path d="M0 0 C10.83 -8.87, 21.87 -15.52, 33.17 -23.94 M0 0 C9.19 -6.81, 18.81 -13.46, 33.17 -23.94" stroke="#1e1e1e" stroke-width="4" fill="none"></path></g></g><mask></mask><g stroke-linecap="round"><g transform="translate(50.3948550491823 44.35195173589818) rotate(0 28.65274924474579 -7.521740996797234)"><path d="M0 0 C4.3 0.97, 9.09 0.44, 15.24 0.26 M0 0 C5.42 -0.21, 10.08 -0.27, 15.24 0.26 M15.24 0.26 C16.67 2.9, 18.39 3.78, 21.48 6.24 M15.24 0.26 C16.54 1.78, 18.03 3.29, 21.48 6.24 M21.48 6.24 C32.96 -0.24, 40.24 -8.07, 57.31 -21.29 M21.48 6.24 C33.96 -1.94, 43.98 -11.55, 57.31 -21.29" stroke="#1e1e1e" stroke-width="4" fill="none"></path></g></g><mask></mask><g stroke-linecap="round"><g transform="translate(108.56329436282522 22.78729908029345) rotate(0 19.697244472923103 -6.402997806151689)"><path d="M0.28 -0.13 C3.77 -2.23, 13.98 -12.38, 20.51 -12.77 C27.04 -13.17, 36.2 -4.2, 39.44 -2.49 M-0.25 -0.67 C3.22 -2.67, 13.55 -11.84, 20.11 -12.06 C26.67 -12.28, 36.02 -3.65, 39.12 -2" stroke="#1e1e1e" stroke-width="4" fill="none"></path></g></g><mask></mask><g stroke-linecap="round"><g transform="translate(142.19002279220513 16.884680800783826) rotate(0 24.47668383710561 21.961939369569336)"><path d="M0.12 0.07 C7.47 5.55, 36.38 25.41, 44.72 32.63 C53.06 39.84, 49.25 41.62, 50.15 43.37 M-1.28 -0.94 C5.87 4.73, 35.28 26.36, 43.83 33.92 C52.38 41.47, 49.43 42.74, 50.02 44.4" stroke="#1e1e1e" stroke-width="4" fill="none"></path></g></g><mask></mask><g stroke-linecap="round"><g transform="translate(191.68656037150868 60.15119039042838) rotate(0 -33.08741391174635 20.242725538623745)"><path d="M0.1 -0.47 C-8.46 5.95, -40.4 31.86, -51.25 38.56 C-62.1 45.26, -62.51 39.34, -64.98 39.72 M-1.3 -1.76 C-9.93 4.81, -40.93 32.74, -51.57 39.81 C-62.21 46.87, -62.75 40.25, -65.12 40.63" stroke="#1e1e1e" stroke-width="4" fill="none"></path></g></g><mask></mask><g stroke-linecap="round"><g transform="translate(127.74981398196178 102.81291372384294) rotate(0 -11.693062209285927 -4.069054634129316)"><path d="M0.55 -0.25 C-1.02 -1.63, -5.4 -8.35, -9.39 -8.49 C-13.37 -8.63, -20.95 -2.26, -23.35 -1.11 M0.17 0.81 C-1.43 -0.49, -5.56 -7.76, -9.54 -7.97 C-13.51 -8.18, -21.29 -1.56, -23.68 -0.44" stroke="#1e1e1e" stroke-width="4" fill="none"></path></g></g><mask></mask><g stroke-linecap="round"><g transform="translate(104.73629537765555 101.93301898101345) rotate(0 -10.01371575103758 6.877747829003965)"><path d="M0.55 -0.35 C-2.88 2.01, -16.5 11.61, -19.99 13.9 M0.16 0.66 C-3.38 2.87, -17.16 10.81, -20.41 13.01" stroke="#1e1e1e" stroke-width="4" fill="none"></path></g></g><mask></mask><g stroke-linecap="round"><g transform="translate(85.82510914194427 114.96007289243062) rotate(0 -11.365787482127871 2.060861272290822)"><path d="M0.03 0.15 C-1.95 1.12, -7.64 5.88, -11.35 5.5 C-15.07 5.12, -20.33 -0.89, -22.24 -2.13 M-0.61 -0.25 C-2.47 0.82, -6.71 6.28, -10.33 6.03 C-13.95 5.78, -20.26 -0.49, -22.34 -1.76" stroke="#1e1e1e" stroke-width="4" fill="none"></path></g></g><mask></mask><g stroke-linecap="round"><g transform="translate(14.964059516563793 77.60775369203839) rotate(0 25.18583921147365 18.999443400083692)"><path d="M-0.9 -0.7 C7.66 5.42, 42.93 30.69, 51.43 37.05 M0.83 1.55 C9.32 7.77, 42.98 31.93, 51.04 38.08" stroke="#1e1e1e" stroke-width="4" fill="none"></path></g></g><mask></mask><g stroke-linecap="round"><g transform="translate(192.35636296049415 55.40819329299484) rotate(0 0.3938790345223424 18.639481530305602)"><path d="M0.49 -0.44 C0.67 5.79, 0.67 30.82, 0.67 37.03 M0.07 0.53 C0.21 6.85, 0.19 31.49, 0.17 37.6" stroke="#1e1e1e" stroke-width="4" fill="none"></path></g></g><mask></mask><g stroke-linecap="round"><g transform="translate(79.87044538648843 121.26875629157075) rotate(0 0.4041707188539476 20.20388495629595)"><path d="M-0.12 -0.25 C-0.12 6.48, 0.41 33.19, 0.51 39.95 M0.82 0.81 C0.96 7.64, 1.46 33.73, 1.59 40.42" stroke="#1e1e1e" stroke-width="2" fill="none"></path></g></g><mask></mask><g stroke-linecap="round"><g transform="translate(71.16410034687942 122.2815771472051) rotate(0 0.4041707188539476 20.20388495629595)"><path d="M-0.3 -0.46 C-0.2 6.31, 0.36 33.54, 0.47 40.34 M0.55 0.5 C0.84 7.37, 1.39 34.27, 1.53 41" stroke="#1e1e1e" stroke-width="2" fill="none"></path></g></g><mask></mask><g stroke-linecap="round"><g transform="translate(192.5638417546097 84.4859432535668) rotate(0 -68.99327868508271 33.954072138764786)"><path d="M-0.73 -0.15 C-18.27 11.3, -82.98 57.65, -105.9 67.71 C-128.82 77.77, -132.86 61.3, -138.25 60.23 M1.08 -1.28 C-16.04 10.45, -80.34 58.68, -103.71 69.14 C-127.08 79.6, -133.41 63.13, -139.15 61.46" stroke="#1e1e1e" stroke-width="2" fill="none"></path></g></g><mask></mask><g stroke-linecap="round"><g transform="translate(25.329896519768226 124.6660165747162) rotate(0 -5.98130635505413 -9.179348044297512)"><path d="M-0.46 -0.09 C-2.07 -1.53, -8.06 -5.73, -9.99 -8.71 C-11.93 -11.69, -11.8 -16.29, -12.08 -17.95 M0.31 -0.61 C-1.35 -1.96, -8.35 -5.01, -10.49 -8.05 C-12.62 -11.08, -12.34 -17.09, -12.49 -18.81" stroke="#1e1e1e" stroke-width="2" fill="none"></path></g></g><mask></mask><g stroke-linecap="round"><g transform="translate(72.84671527320279 103.02117525114954) rotate(0 20.16702902123143 -10.48056276650641)"><path d="M-0.26 -0.15 C4.5 -3.45, 20.67 -16.39, 27.54 -19.98 C34.42 -23.57, 38.77 -21.58, 40.99 -21.69 M1.8 -1.28 C6.47 -4.89, 20 -18.39, 26.46 -21.64 C32.92 -24.89, 38.08 -21.14, 40.57 -20.75" stroke="#1e1e1e" stroke-width="2" fill="none"></path></g></g><mask></mask><g stroke-linecap="round"><g transform="translate(112.90880630590982 81.84059666351459) rotate(0 12.266323560461387 3.389084830923821)"><path d="M-0.12 0.41 C1.78 1.49, 7.09 6.47, 11.24 6.44 C15.4 6.42, 22.56 1.34, 24.79 0.25 M0.82 0.14 C2.68 1.3, 7.01 7.12, 10.97 6.97 C14.93 6.83, 22.27 0.38, 24.57 -0.74" stroke="#1e1e1e" stroke-width="2" fill="none"></path></g></g><mask></mask><g stroke-linecap="round"><g transform="translate(135.59426732341672 81.79250249000688) rotate(0 19.47986502681124 -17.52272755262493)"><path d="M0.66 -0.73 C7.29 -5.09, 34.48 -19.47, 39.52 -25.27 C44.55 -31.06, 32.18 -34, 30.86 -35.49 M-0.46 1.5 C6.09 -3.31, 33.75 -21.23, 38.86 -27.21 C43.97 -33.2, 31.29 -32.89, 30.2 -34.4" stroke="#1e1e1e" stroke-width="2" fill="none"></path></g></g><mask></mask><g stroke-linecap="round"><g transform="translate(173.48688666965245 51.16851268961909) rotate(0 -26.160933893101628 -15.02130608806874)"><path d="M0.56 0.34 C-6.42 -4.62, -32.52 -25.79, -41.18 -30.48 C-49.84 -35.18, -49.35 -28.14, -51.41 -27.81 M-0.61 -0.53 C-7.78 -5.26, -33.51 -24.32, -42.02 -29.18 C-50.54 -34.04, -49.72 -30.02, -51.69 -29.7" stroke="#1e1e1e" stroke-width="2" fill="none"></path></g></g><mask></mask><g stroke-linecap="round"><g transform="translate(122.56584626615222 23.000644658484816) rotate(0 -20.651803830257904 15.818308843860905)"><path d="M0.2 -0.44 C-6.62 4.92, -33.27 27.12, -40.39 32.5 M-1.15 -1.72 C-8.1 3.28, -34.35 25, -40.86 30.83" stroke="#1e1e1e" stroke-width="2" fill="none"></path></g></g><mask></mask><g stroke-linecap="round"><g transform="translate(72.40383206641854 50.673011852162745) rotate(0 18.323051859545558 15.184258884664814)"><path d="M0.91 0.86 C6.79 6.03, 29.59 25.8, 35.47 30.55 M-0.06 0.27 C6.15 5.7, 31.69 27.21, 37.57 32.19" stroke="#1e1e1e" stroke-width="2" fill="none"></path></g></g><mask></mask><g stroke-linecap="round" transform="translate(119.551164069464 46.90020844667379) rotate(0 8.752890441628097 5.3667114894560655)"><path d="M7.86 0.21 C9.75 -0.04, 12.46 0.02, 14.02 0.62 C15.58 1.22, 16.71 2.65, 17.23 3.82 C17.75 4.98, 17.97 6.48, 17.13 7.61 C16.3 8.75, 14.01 10.12, 12.21 10.64 C10.41 11.16, 8.04 11.07, 6.35 10.73 C4.65 10.38, 3.14 9.62, 2.04 8.58 C0.94 7.54, -0.4 5.59, -0.26 4.48 C-0.12 3.38, 1.43 2.77, 2.9 1.95 C4.37 1.12, 7.62 -0.22, 8.53 -0.48 C9.44 -0.73, 8.34 0.26, 8.36 0.41 M9.83 0.26 C11.63 0.24, 14.07 1.11, 15.38 1.85 C16.7 2.6, 17.64 3.63, 17.7 4.71 C17.76 5.79, 16.71 7.49, 15.74 8.35 C14.77 9.21, 13.54 9.57, 11.91 9.89 C10.27 10.2, 7.79 10.67, 5.91 10.26 C4.02 9.85, 1.45 8.34, 0.61 7.43 C-0.22 6.52, 0.48 5.97, 0.91 4.79 C1.33 3.6, 1.85 1.07, 3.15 0.31 C4.46 -0.45, 7.65 0.16, 8.72 0.22 C9.8 0.28, 9.54 0.7, 9.62 0.68" stroke="#1e1e1e" stroke-width="2" fill="none"></path></g><g stroke-linecap="round" transform="translate(113.91301594527067 42.276852016304474) rotate(0 14.03898176067105 10.104378917153554)"><path d="M15.61 -0.28 C18.49 -0.28, 21.9 1.27, 24.04 2.86 C26.18 4.45, 28.25 7.02, 28.45 9.27 C28.64 11.52, 27.05 14.56, 25.21 16.36 C23.38 18.15, 20.21 19.54, 17.43 20.04 C14.64 20.54, 11.22 20.38, 8.49 19.35 C5.75 18.33, 2.28 15.81, 1.01 13.89 C-0.26 11.97, -0.02 9.9, 0.87 7.8 C1.77 5.71, 3.94 2.56, 6.39 1.32 C8.83 0.08, 13.89 0.56, 15.53 0.36 C17.17 0.17, 16.22 -0.02, 16.22 0.15 M17.08 0.53 C19.88 0.71, 23.26 1.95, 25.05 3.55 C26.83 5.15, 27.7 8.05, 27.77 10.12 C27.85 12.19, 27.25 14.32, 25.47 15.97 C23.7 17.62, 20.26 19.6, 17.13 20.03 C14 20.46, 9.32 19.49, 6.71 18.53 C4.11 17.56, 2.55 16.34, 1.5 14.24 C0.46 12.14, -0.38 8.02, 0.44 5.91 C1.27 3.8, 3.72 2.43, 6.45 1.56 C9.17 0.7, 15.16 0.99, 16.81 0.71 C18.47 0.43, 16.44 -0.24, 16.39 -0.12" stroke="#1e1e1e" stroke-width="1" fill="none"></path></g><g stroke-linecap="round"><g transform="translate(40.075662354076485 61.79260241043448) rotate(0 11.88226397755625 -8.340709255419824)"><path d="M-0.25 0.75 C7.56 -5.76, 12.76 -9.33, 25.45 -16.62 M0.34 0.85 C5.78 -4.49, 10.37 -7.16, 24.46 -15.96" stroke="#1e1e1e" stroke-width="2" fill="none"></path></g></g><mask></mask><g stroke-linecap="round"><g transform="translate(26.039726239749143 122.88171818171759) rotate(0 0.5067784253587888 -17.040353402585424)"><path d="M1.19 -1.3 C0.54 -11.96, 2.41 -22.86, -0.18 -32.36 M0.21 -0.58 C-0.76 -8.11, 1.11 -17, 0.03 -34.21" stroke="#1e1e1e" stroke-width="2" fill="none"></path></g></g><mask></mask><g stroke-linecap="round"><g transform="translate(26.44044358694555 123.50100862737963) rotate(0 14.561484017594921 10.744803072438117)"><path d="M0.16 -0.5 C11.64 7.5, 18.6 16.42, 28.32 22.16 M-0.91 0.76 C11.94 9.15, 21.46 16.57, 29.73 22.26" stroke="#1e1e1e" stroke-width="2" fill="none"></path></g></g><mask></mask><g stroke-linecap="round"><g transform="translate(55.43666958239737 143.17258748967288) rotate(0 0.24001299441351875 -16.25959966977007)"><path d="M1.68 0.06 C-1.11 -5.93, -0.6 -14.62, 2.17 -32.1 M0.69 0.72 C-0.57 -8.01, 1.13 -14.99, 0.2 -32.27" stroke="#1e1e1e" stroke-width="2" fill="none"></path></g></g><mask></mask><g stroke-linecap="round"><g transform="translate(30.170226546772028 123.97951674746946) rotate(0 0.3587862232693624 -10.723173442902407)"><path d="M-1.19 1.72 C-0.78 -5.23, 1.9 -11.38, -0.44 -23.26 M-0.98 -0.13 C0.72 -7.3, 0.11 -15.89, 1.33 -20.75" stroke="#1e1e1e" stroke-width="2" fill="none"></path></g></g><mask></mask><g stroke-linecap="round"><g transform="translate(31.380903490964556 102.56230740024694) rotate(0 3.4906287143521695 -2.155441561942098)"><path d="M-0.22 0.18 C2.59 -1.23, 3.93 -3.15, 7.4 -3.93 M0.16 0.21 C2.55 -1.53, 5.39 -3.01, 7.17 -4.22" stroke="#1e1e1e" stroke-width="2" fill="none"></path></g></g><mask></mask><g stroke-linecap="round"><g transform="translate(47.077196161168104 103.92545083481309) rotate(0 3.8511304663011288 7.317709453212046)"><path d="M1.4 0.34 C1.96 4.12, 7.15 12.42, 8.9 13.01 M-0.23 0.21 C2.81 4.72, 5.09 8.63, 8.36 15.05" stroke="#1e1e1e" stroke-width="2" fill="none"></path></g></g><mask></mask><g stroke-linecap="round"><g transform="translate(31.838554985140945 123.73831807121314) rotate(0 9.579868047488617 -5.554989311183817)"><path d="M-1.15 -1.81 C7.82 -2.36, 14.13 -9.41, 18.9 -9.91 M0.61 0.7 C7.95 -3.9, 15.27 -7.93, 19.49 -11.19" stroke="#1e1e1e" stroke-width="2" fill="none"></path></g></g><mask></mask><g stroke-linecap="round"><g transform="translate(48.9970565407657 136.89365567503773) rotate(0 3.3996666610337343 -4.25436057888146)"><path d="M0.55 0.5 C2.74 -3.4, 4.3 -4.98, 7.36 -8.71 M0.25 0.12 C2.46 -2.62, 4.51 -5.59, 6.65 -8.5" stroke="#1e1e1e" stroke-width="2" fill="none"></path></g></g><mask></mask><g stroke-linecap="round"><g transform="translate(176.58946456062768 52.37803367949891) rotate(0 5.635996426398833 2.7793963984067886)"><path d="M0.91 -1.23 C2.24 1.84, 5.73 1.9, 11.59 6.33 M0.5 0.31 C4.42 1.97, 8.13 4.09, 11.84 5.03" stroke="#1e1e1e" stroke-width="2" fill="none"></path></g></g><mask></mask><g stroke-linecap="round"><g transform="translate(133.44323965277727 19.551683266345208) rotate(0 -3.57710382985033 -4.763889767720684)"><path d="M-0.1 0.48 C-2.08 -3.79, -5.13 -6.6, -6.6 -8.98 M0.13 -0.03 C-2.6 -3.15, -4.46 -6.67, -6.81 -9.54" stroke="#1e1e1e" stroke-width="2" fill="none"></path></g></g><mask></mask><g stroke-linecap="round"><g transform="translate(109.54369718098678 81.82675884301352) rotate(0 3.169698809970214 7.531399534411321)"><path d="M1.26 -0.46 C1.67 4, 3.68 7.18, 6.89 16.35 M-0.33 0.01 C3.01 4.59, 5.2 10.52, 6.01 14.71" stroke="#1e1e1e" stroke-width="2" fill="none"></path></g></g><mask></mask><g stroke-linecap="round"><g transform="translate(125.5477193149818 89.99322298732659) rotate(0 1.76861919680141 5.175804898158276)"><path d="M0.28 0.67 C2.12 4.5, 3 8.33, 4.08 10.72 M0.5 -0.46 C1.47 3, 1.81 5.81, 4.02 10.85" stroke="#1e1e1e" stroke-width="2" fill="none"></path></g></g><mask></mask></svg>