<svg version="1.1" xmlns="http://www.w3.org/2000/svg" viewBox="0 0 203.59129021680928 178.23037024735822" width="203.59129021680928" height="178.23037024735822" filter="invert(93%) hue-rotate(180deg)"><!-- svg-source:excalidraw --><metadata></metadata><defs><style class="style-fonts">
      </style></defs><g stroke-linecap="round"><g transform="translate(57.87848780375771 160.95495562744327) rotate(0 67.2645478528384 -38.26510792719546)"><path d="M-1.16 -1.14 C3.51 -0.84, 6.74 15.2, 29.16 2.2 C51.59 -10.8, 115.7 -65.54, 133.37 -79.12 M0.44 0.88 C5.38 0.77, 8.94 13.53, 31.47 0.34 C54.01 -12.85, 118.27 -65.1, 135.65 -78.27" stroke="#1e1e1e" stroke-width="4" fill="none"></path></g></g><mask></mask><g stroke-linecap="round"><g transform="translate(56.21364066379101 158.99560724456933) rotate(0 -22.489904375332117 -22.583103168673006)"><path d="M-0.26 -0.77 C-6.94 -5.72, -33.49 -22.93, -40.99 -30.37 C-48.5 -37.82, -44.78 -42.95, -45.29 -45.45 M1.8 1.43 C-4.41 -3.78, -30.7 -24.44, -38.7 -32.06 C-46.71 -39.68, -45.45 -42.23, -46.21 -44.29" stroke="#1e1e1e" stroke-width="4" fill="none"></path></g></g><mask></mask><g stroke-linecap="round"><g transform="translate(11.84570840608285 113.395282407384) rotate(0 3.3436584783903527 -22.186601555337802)"><path d="M0.03 -0.4 C0.16 -6.64, -0.23 -30.58, 0.87 -37.93 C1.98 -45.28, 5.63 -43.41, 6.67 -44.52 M-0.62 0.58 C-0.32 -5.53, 0.81 -29.87, 1.96 -37.3 C3.12 -44.73, 5.4 -42.84, 6.31 -44" stroke="#1e1e1e" stroke-width="4" fill="none"></path></g></g><mask></mask><g stroke-linecap="round"><g transform="translate(17.381455162370003 70.35470477379022) rotate(0 15.190317800653702 -12.720049452045714)"><path d="M0 0 C6.85 -5.3, 13.24 -12.25, 30.38 -25.44 M0 0 C6.72 -5.7, 14.11 -11.3, 30.38 -25.44" stroke="#1e1e1e" stroke-width="4" fill="none"></path></g></g><mask></mask><g stroke-linecap="round"><g transform="translate(47.8485868067437 45.02822355338867) rotate(0 31.581684470504115 -7.925383200340548)"><path d="M0 0 C5.26 0.43, 9.43 -0.84, 18.36 1.23 M0 0 C5.46 -0.53, 12.89 0.7, 18.36 1.23 M18.36 1.23 C20.36 3.91, 23.12 4.37, 24.6 7.21 M18.36 1.23 C20.54 3.1, 22.4 4.74, 24.6 7.21 M24.6 7.21 C34.21 1.24, 41.72 -6.83, 63.16 -23.06 M24.6 7.21 C37.71 -2.97, 50.08 -13.21, 63.16 -23.06" stroke="#1e1e1e" stroke-width="4" fill="none"></path></g></g><mask></mask><g stroke-linecap="round"><g transform="translate(106.64217407645629 24.88148102784362) rotate(0 20.94302802785296 -7.045236122125971)"><path d="M0.47 -0.34 C4.13 -2.72, 14.75 -13.51, 21.63 -13.96 C28.51 -14.41, 38.28 -4.88, 41.73 -3.03 M0.04 0.68 C3.7 -1.91, 14.6 -14.32, 21.47 -14.86 C28.35 -15.41, 37.77 -4.65, 41.3 -2.59" stroke="#1e1e1e" stroke-width="4" fill="none"></path></g></g><mask></mask><g stroke-linecap="round"><g transform="translate(142.76046961569773 18.52788810752645) rotate(0 24.47668383710561 21.961939369569336)"><path d="M1.08 0.74 C8.44 6.24, 35.74 26.14, 43.72 33.37 C51.71 40.6, 48.07 42.24, 48.97 44.11 M0.19 0.08 C7.96 5.17, 37.96 23.82, 45.97 31.4 C53.97 38.97, 47.62 43.69, 48.21 45.53" stroke="#1e1e1e" stroke-width="4" fill="none"></path></g></g><mask></mask><g stroke-linecap="round"><g transform="translate(192.25700719499946 61.79439769716737) rotate(0 -33.08741391174635 20.242725538623745)"><path d="M-0.57 -0.3 C-9.49 6.5, -41.74 33.38, -52.56 40.16 C-63.38 46.94, -63.19 40.22, -65.5 40.38 M1.33 -1.5 C-7.83 5.05, -42.36 31.39, -53.56 38.58 C-64.77 45.77, -63.79 41.59, -65.92 41.64" stroke="#1e1e1e" stroke-width="4" fill="none"></path></g></g><mask></mask><g stroke-linecap="round"><g transform="translate(128.32026080545347 104.45612103058374) rotate(0 -11.693062209285927 -4.069054634129316)"><path d="M0.44 -0.47 C-1.31 -1.89, -6.17 -8.08, -10.05 -8.22 C-13.94 -8.36, -20.72 -2.42, -22.87 -1.31 M0 0.47 C-1.87 -0.89, -6.72 -7.36, -10.55 -7.57 C-14.37 -7.77, -20.94 -1.8, -22.95 -0.74" stroke="#1e1e1e" stroke-width="4" fill="none"></path></g></g><mask></mask><g stroke-linecap="round"><g transform="translate(105.30674220114724 103.57622628775425) rotate(0 -10.01371575103758 6.877747829003965)"><path d="M0.45 0.03 C-2.75 2.24, -16.06 10.93, -19.51 13.27 M0.02 -0.42 C-3.18 1.83, -16.22 11.46, -19.68 13.72" stroke="#1e1e1e" stroke-width="4" fill="none"></path></g></g><mask></mask><g stroke-linecap="round"><g transform="translate(86.39555596543687 116.6032801991696) rotate(0 -11.365787482127871 2.060861272290822)"><path d="M0.49 0.07 C-1.34 1.13, -6.87 6.21, -10.77 5.85 C-14.66 5.5, -20.92 -0.84, -22.9 -2.04 M0.08 -0.37 C-1.83 0.84, -7.21 6.78, -11.11 6.57 C-15.01 6.36, -21.44 -0.13, -23.33 -1.62" stroke="#1e1e1e" stroke-width="4" fill="none"></path></g></g><mask></mask><g stroke-linecap="round"><g transform="translate(15.534506340055486 79.25096099877737) rotate(0 25.18583921147365 18.999443400083692)"><path d="M1.2 -0.91 C9.77 5.46, 42.24 32.46, 50.41 38.74 M0.37 1.23 C8.88 7.21, 41.32 30.97, 49.49 37.01" stroke="#1e1e1e" stroke-width="4" fill="none"></path></g></g><mask></mask><g stroke-linecap="round"><g transform="translate(192.92680978398676 57.05140059973564) rotate(0 0.07487046718051715 12.163211329335354)"><path d="M0.4 -0.07 C0.52 3.86, 0.33 19.89, 0.3 23.96 M-0.06 -0.59 C0.03 3.38, -0.05 20.22, -0.05 24.47" stroke="#1e1e1e" stroke-width="4" fill="none"></path></g></g><mask></mask><g stroke-linecap="round"><g transform="translate(80.44089220998103 122.91196359830974) rotate(0 0.4041707188539476 20.20388495629595)"><path d="M-0.48 -0.29 C-0.3 6.56, 0.33 33.82, 0.62 40.57 M0.28 0.76 C0.41 7.48, -0.05 33.04, 0.09 39.69" stroke="#1e1e1e" stroke-width="2" fill="none"></path></g></g><mask></mask><g stroke-linecap="round"><g transform="translate(71.73454717037202 123.92478445394772) rotate(0 0.4041707188539476 20.20388495629595)"><path d="M0.5 0.46 C0.55 7.29, 0.34 33.79, 0.36 40.52 M0.09 0.21 C0.3 6.92, 1.35 32.99, 1.36 39.6" stroke="#1e1e1e" stroke-width="2" fill="none"></path></g></g><mask></mask><g stroke-linecap="round"><g transform="translate(191.41993928552438 74.70262908495897) rotate(0 -67.18628925521853 39.667332876440014)"><path d="M0.88 0.03 C-16.31 13.3, -80.29 67.47, -102.87 80.07 C-125.45 92.68, -129.28 76.67, -134.59 75.67 M-0.12 -0.99 C-17.46 11.89, -81.09 65.89, -103.65 78.34 C-126.2 90.78, -130.29 74.3, -135.47 73.69" stroke="#1e1e1e" stroke-width="2" fill="none"></path></g></g><mask></mask><g stroke-linecap="round"><g transform="translate(23.717461978168103 124.69794237897622) rotate(0 -5.253754246461995 -4.716565316340166)"><path d="M-0.3 0.04 C-2.2 -1.51, -9.3 -7.99, -10.99 -9.51 M0.54 -0.42 C-1.23 -1.85, -8.13 -7.26, -10 -8.85" stroke="#1e1e1e" stroke-width="2" fill="none"></path></g></g><mask></mask><g stroke-linecap="round"><g transform="translate(73.41716209669448 104.66438255788853) rotate(0 20.16702902123143 -10.48056276650641)"><path d="M-1.19 -0.22 C3.51 -3.88, 20.31 -17.94, 27.2 -21.56 C34.09 -25.17, 37.97 -22.15, 40.14 -21.9 M0.39 -1.38 C5.58 -4.94, 23.12 -17.1, 29.6 -20.38 C36.08 -23.66, 37.46 -20.78, 39.27 -21.08" stroke="#1e1e1e" stroke-width="2" fill="none"></path></g></g><mask></mask><g stroke-linecap="round"><g transform="translate(113.47925312940151 83.48380397025721) rotate(0 12.266323560461387 3.389084830923821)"><path d="M-0.48 0 C1.24 1.09, 6.48 6.75, 10.66 6.8 C14.84 6.86, 22.29 1.41, 24.62 0.34 M0.28 -0.47 C2.15 0.69, 7.75 7.54, 11.75 7.52 C15.76 7.49, 22.14 0.75, 24.31 -0.6" stroke="#1e1e1e" stroke-width="2" fill="none"></path></g></g><mask></mask><g stroke-linecap="round"><g transform="translate(136.1647141469075 83.4357097967495) rotate(0 19.47986502681124 -17.52272755262493)"><path d="M0.42 0.73 C7.07 -3.57, 33.92 -20.59, 38.78 -26.72 C43.65 -32.85, 31 -34.69, 29.63 -36.06 M-0.82 0.07 C5.76 -4.04, 32.28 -19.87, 37.75 -25.77 C43.21 -31.66, 33.15 -33.93, 31.99 -35.28" stroke="#1e1e1e" stroke-width="2" fill="none"></path></g></g><mask></mask><g stroke-linecap="round"><g transform="translate(174.05733349314323 52.8117199963599) rotate(0 -26.160933893101628 -15.02130608806874)"><path d="M-0.41 0.76 C-7.4 -4.3, -33.24 -24.28, -42.08 -29.2 C-50.93 -34.13, -51.84 -28.73, -53.5 -28.78 M1.57 0.12 C-5.01 -4.77, -30.94 -26.28, -39.74 -30.89 C-48.54 -35.49, -49.24 -27.86, -51.23 -27.52" stroke="#1e1e1e" stroke-width="2" fill="none"></path></g></g><mask></mask><g stroke-linecap="round"><g transform="translate(123.136293089643 24.643851965223803) rotate(0 -20.651803830257904 15.818308843860905)"><path d="M0.52 -0.18 C-6.34 5.1, -34.94 26.53, -41.99 31.86 M-0.67 -1.32 C-7.06 3.56, -32.61 24.11, -39.64 29.85" stroke="#1e1e1e" stroke-width="2" fill="none"></path></g></g><mask></mask><g stroke-linecap="round"><g transform="translate(72.97427888990933 52.31621915890537) rotate(0 18.323051859545558 15.184258884664814)"><path d="M-0.68 0.29 C5.67 5.3, 31.64 24.62, 37.85 29.47 M1.17 -0.6 C7.49 4.58, 31.76 25.4, 37.53 30.53" stroke="#1e1e1e" stroke-width="2" fill="none"></path></g></g><mask></mask><g stroke-linecap="round" transform="translate(120.12161089295478 48.54341575341277) rotate(0 8.752890441628097 5.3667114894560655)"><path d="M10.06 0.04 C12 0.15, 14.4 1.05, 15.63 1.82 C16.85 2.59, 17.46 3.61, 17.42 4.67 C17.38 5.73, 16.45 7.23, 15.39 8.18 C14.32 9.12, 12.88 10.03, 11.05 10.32 C9.22 10.61, 6.05 10.35, 4.4 9.93 C2.75 9.52, 1.77 8.92, 1.15 7.82 C0.53 6.71, 0.28 4.54, 0.68 3.31 C1.08 2.09, 2.01 1.03, 3.54 0.44 C5.06 -0.16, 8.7 -0.15, 9.85 -0.26 C11 -0.37, 10.47 -0.42, 10.43 -0.23 M9.63 0.7 C11.37 0.75, 13.63 0.44, 14.9 1.22 C16.18 2, 17.23 4.02, 17.29 5.37 C17.36 6.72, 16.52 8.43, 15.28 9.33 C14.03 10.24, 11.54 10.65, 9.82 10.81 C8.1 10.97, 6.57 10.86, 4.96 10.28 C3.36 9.7, 0.91 8.37, 0.21 7.32 C-0.48 6.28, 0.11 5.2, 0.79 4 C1.47 2.81, 2.64 0.73, 4.31 0.17 C5.98 -0.39, 9.79 0.7, 10.82 0.65 C11.85 0.6, 10.52 -0.2, 10.47 -0.13" stroke="#1e1e1e" stroke-width="2" fill="none"></path></g><g stroke-linecap="round" transform="translate(114.48346276876237 43.92005932304346) rotate(0 14.03898176067105 10.104378917153554)"><path d="M12.55 -0.26 C15.37 -0.51, 18.92 0.73, 21.45 1.96 C23.97 3.18, 26.86 5.01, 27.72 7.08 C28.58 9.15, 27.89 12.35, 26.59 14.37 C25.3 16.39, 22.58 18.28, 19.96 19.19 C17.34 20.1, 13.74 20.38, 10.89 19.83 C8.04 19.29, 4.61 17.58, 2.86 15.92 C1.11 14.25, 0.2 11.95, 0.36 9.85 C0.52 7.74, 1.66 4.94, 3.84 3.29 C6.01 1.65, 11.67 0.48, 13.41 -0.02 C15.15 -0.52, 14.25 0.14, 14.29 0.3 M12.6 -0.25 C15.33 -0.67, 18.53 0.97, 21.02 2.11 C23.51 3.26, 26.51 4.64, 27.54 6.61 C28.56 8.57, 28.34 11.92, 27.16 13.92 C25.99 15.91, 23.17 17.48, 20.49 18.57 C17.8 19.67, 13.99 20.82, 11.06 20.48 C8.13 20.14, 4.68 18.38, 2.92 16.54 C1.16 14.69, 0.27 11.63, 0.5 9.41 C0.73 7.18, 2.33 4.75, 4.29 3.18 C6.25 1.61, 11.01 0.55, 12.24 -0.02 C13.47 -0.6, 11.74 -0.47, 11.66 -0.26" stroke="#1e1e1e" stroke-width="1" fill="none"></path></g><g stroke-linecap="round"><g transform="translate(40.64610917756818 63.43580971717529) rotate(0 11.88226397755625 -8.340709255419824)"><path d="M-1.24 1.55 C6.22 -2.33, 10.01 -7.26, 23.01 -15.14 M-0.15 0.1 C8.82 -5.35, 16.36 -11.81, 24.58 -15.7" stroke="#1e1e1e" stroke-width="2" fill="none"></path></g></g><mask></mask><g stroke-linecap="round"><g transform="translate(26.610173063241746 124.52492548845657) rotate(0 0.5067784253587888 -17.040353402585424)"><path d="M0.35 -1.68 C0.7 -11.16, 1.05 -17.31, -0.87 -35.05 M-0.75 0.5 C0.43 -11.72, -0.33 -22.64, 1.79 -34.82" stroke="#1e1e1e" stroke-width="2" fill="none"></path></g></g><mask></mask><g stroke-linecap="round"><g transform="translate(27.01089041043724 125.14421593412226) rotate(0 14.561484017594921 10.744803072438117)"><path d="M1.89 -0.18 C11.7 6.63, 24.11 16.87, 29.57 20.18 M-0.56 -0.54 C7.37 5.38, 17.08 11.46, 28.79 21.56" stroke="#1e1e1e" stroke-width="2" fill="none"></path></g></g><mask></mask><g stroke-linecap="round"><g transform="translate(56.007116405889064 144.81579479641368) rotate(0 0.24001299441351875 -16.25959966977007)"><path d="M0.62 0.02 C-0.69 -8.19, 0.77 -16.47, 0.99 -32.17 M0.57 0.24 C0.26 -12.39, -0.76 -25.77, 1.33 -33.34" stroke="#1e1e1e" stroke-width="2" fill="none"></path></g></g><mask></mask><g stroke-linecap="round"><g transform="translate(30.74067337026463 125.62272405421027) rotate(0 0.3587862232693624 -10.723173442902407)"><path d="M0.36 -1.24 C1.63 -6.29, 0.72 -7.69, 1.92 -23.16 M0.94 0.51 C0.36 -7.72, -0.29 -16.7, 0.1 -20.98" stroke="#1e1e1e" stroke-width="2" fill="none"></path></g></g><mask></mask><g stroke-linecap="round"><g transform="translate(31.95135031445534 104.20551470698956) rotate(0 3.4906287143521695 -2.155441561942098)"><path d="M0.28 0.2 C2.03 -1.81, 4.87 -2.61, 6.96 -3.84 M0.1 -0.22 C1.56 -1.04, 3.64 -2.28, 7.12 -4.09" stroke="#1e1e1e" stroke-width="2" fill="none"></path></g></g><mask></mask><g stroke-linecap="round"><g transform="translate(47.64764298465889 105.56865814155208) rotate(0 3.8511304663011288 7.317709453212046)"><path d="M-1.46 1.53 C1.53 4.7, 4.49 7.49, 6.32 16.16 M-0.35 -0.6 C2.29 3.89, 4.71 7.16, 8.3 14.49" stroke="#1e1e1e" stroke-width="2" fill="none"></path></g></g><mask></mask><g stroke-linecap="round"><g transform="translate(32.40900180863173 125.38152537795395) rotate(0 9.579868047488617 -5.554989311183817)"><path d="M-1.99 -1.14 C3.64 -1.7, 10.97 -8.16, 19.16 -11.93 M0.11 -0.68 C6.79 -3.23, 14.23 -8.67, 18.21 -10.29" stroke="#1e1e1e" stroke-width="2" fill="none"></path></g></g><mask></mask><g stroke-linecap="round"><g transform="translate(49.56750336425739 138.53686298177672) rotate(0 3.3996666610337343 -4.25436057888146)"><path d="M-0.38 0.25 C2.5 -2.56, 4.55 -5.71, 7.42 -8.69 M-0.09 -0.34 C2.19 -2.33, 4.21 -5.69, 7.03 -8.59" stroke="#1e1e1e" stroke-width="2" fill="none"></path></g></g><mask></mask><g stroke-linecap="round"><g transform="translate(177.15991138412028 54.02124098624154) rotate(0 5.635996426398833 2.7793963984067886)"><path d="M1.2 0.34 C3.23 1.44, 6.49 1.56, 11.5 6.3 M-0.43 0.23 C3.18 1.32, 5.32 2.92, 11.59 5.99" stroke="#1e1e1e" stroke-width="2" fill="none"></path></g></g><mask></mask><g stroke-linecap="round"><g transform="translate(134.01368647626896 21.194890573087832) rotate(0 -3.57710382985033 -4.763889767720684)"><path d="M-0.64 0.45 C-2.17 -3.34, -3.75 -5.42, -6.64 -9.89 M0.11 0.17 C-2.07 -2.46, -4.44 -5.18, -7.35 -9.37" stroke="#1e1e1e" stroke-width="2" fill="none"></path></g></g><mask></mask><g stroke-linecap="round"><g transform="translate(110.11414400447848 83.46996614975251) rotate(0 3.169698809970214 7.531399534411321)"><path d="M0.91 1.04 C1.46 4.79, 5.11 10.93, 6.6 15.15 M0.37 -0.16 C2.82 4.77, 4.22 10.12, 7.08 14.95" stroke="#1e1e1e" stroke-width="2" fill="none"></path></g></g><mask></mask><g stroke-linecap="round"><g transform="translate(126.1181661384735 91.63643029406921) rotate(0 1.76861919680141 5.175804898158276)"><path d="M0.26 0.57 C1.16 4.3, 2.94 6.64, 4.4 11.05 M-0.5 0.38 C1.71 3.12, 2.01 7.14, 4.07 9.86" stroke="#1e1e1e" stroke-width="2" fill="none"></path></g></g><mask></mask></svg>