<svg version="1.1" xmlns="http://www.w3.org/2000/svg" viewBox="0 0 204.01940351116718 175.77094883059726" width="204.01940351116718" height="175.77094883059726" filter="invert(93%) hue-rotate(180deg)"><!-- svg-source:excalidraw --><metadata></metadata><defs><style class="style-fonts">
      </style></defs><g stroke-linecap="round"><g transform="translate(57.87848780375771 159.69748844929381) rotate(0 65.72701735347755 -30.001642398819058)"><path d="M-1.16 -1.14 C3.51 -0.84, 7.26 12.44, 29.16 2.2 C51.07 -8.04, 113.14 -51.77, 130.29 -62.59 M0.44 0.88 C5.38 0.77, 9.45 10.78, 31.47 0.34 C53.5 -10.09, 115.71 -51.32, 132.57 -61.74" stroke="#1e1e1e" stroke-width="2" fill="none"></path></g></g><mask></mask><g stroke-linecap="round"><g transform="translate(56.21364066379101 157.73814006641987) rotate(0 -22.489904375332117 -22.583103168673006)"><path d="M-0.26 -0.77 C-6.94 -5.72, -33.49 -22.93, -40.99 -30.37 C-48.5 -37.82, -44.78 -42.95, -45.29 -45.45 M1.8 1.43 C-4.41 -3.78, -30.7 -24.44, -38.7 -32.06 C-46.71 -39.68, -45.45 -42.23, -46.21 -44.29" stroke="#1e1e1e" stroke-width="2" fill="none"></path></g></g><mask></mask><g stroke-linecap="round"><g transform="translate(11.312253355571556 113.39821296069385) rotate(0 5.59213165413712 -24.112557192543136)"><path d="M0.03 -0.4 C-0.02 -6.59, -2.05 -29.64, -0.2 -37.64 C1.66 -45.63, 9.2 -46.57, 11.17 -48.37 M-0.62 0.58 C-0.49 -5.48, -1.01 -28.94, 0.89 -37.01 C2.8 -45.08, 8.97 -46.01, 10.81 -47.85" stroke="#1e1e1e" stroke-width="2" fill="none"></path></g></g><mask></mask><g stroke-linecap="round"><g transform="translate(17.381455162370003 69.09723759564076) rotate(0 16.915883954670335 -12.297424484831026)"><path d="M0 0 C7.61 -5.13, 14.76 -11.89, 33.83 -24.59 M0 0 C7.51 -5.5, 15.69 -10.91, 33.83 -24.59" stroke="#1e1e1e" stroke-width="2" fill="none"></path></g></g><mask></mask><g stroke-linecap="round"><g transform="translate(51.01796913663384 44.54587373935101) rotate(0 29.015542718026154 -7.391380738597036)"><path d="M0 0 C4.26 0.33, 7.64 -0.72, 14.87 0.91 M0 0 C4.43 -0.46, 10.44 0.51, 14.87 0.91 M14.87 0.91 C16.98 3.44, 19.83 3.77, 21.43 6.44 M14.87 0.91 C17.15 2.64, 19.1 4.15, 21.43 6.44 M21.43 6.44 C30.63 1, 37.71 -6.51, 58.03 -21.22 M21.43 6.44 C33.89 -2.89, 45.62 -12.26, 58.03 -21.22" stroke="#1e1e1e" stroke-width="2" fill="none"></path></g></g><mask></mask><g stroke-linecap="round"><g transform="translate(107.84867972175925 23.990595996194315) rotate(0 20.94302802785296 -6.429196975986997)"><path d="M0.47 -0.34 C4.18 -2.52, 15.1 -12.3, 21.97 -12.73 C28.85 -13.16, 38.34 -4.58, 41.73 -2.92 M0.04 0.68 C3.76 -1.71, 14.94 -13.1, 21.82 -13.63 C28.69 -14.16, 37.83 -4.35, 41.3 -2.48" stroke="#1e1e1e" stroke-width="2" fill="none"></path></g></g><mask></mask><g stroke-linecap="round"><g transform="translate(143.14420702721327 17.270420929376996) rotate(0 24.244280800234264 23.624441811599354)"><path d="M1.08 0.74 C8.38 6.24, 35.44 25.59, 43.34 33.37 C51.24 41.16, 47.61 45.01, 48.5 47.44 M0.19 0.08 C7.9 5.17, 37.65 23.27, 45.58 31.4 C53.51 39.53, 47.17 46.46, 47.74 48.85" stroke="#1e1e1e" stroke-width="2" fill="none"></path></g></g><mask></mask><g stroke-linecap="round"><g transform="translate(191.9762815279555 65.6257806539179) rotate(0 -32.947051078224376 17.698300471173752)"><path d="M-0.57 -0.3 C-9.44 5.66, -41.5 29.13, -52.28 35.07 C-63.05 41, -62.91 35.13, -65.22 35.29 M1.33 -1.5 C-7.79 4.2, -42.12 27.15, -53.28 33.49 C-64.44 39.83, -63.51 36.51, -65.63 36.55" stroke="#1e1e1e" stroke-width="2" fill="none"></path></g></g><mask></mask><g stroke-linecap="round"><g transform="translate(128.32026080545347 103.19865385243429) rotate(0 -11.693062209285927 -4.069054634129316)"><path d="M0.44 -0.47 C-1.31 -1.89, -6.17 -8.08, -10.05 -8.22 C-13.94 -8.36, -20.72 -2.42, -22.87 -1.31 M0 0.47 C-1.87 -0.89, -6.72 -7.36, -10.55 -7.57 C-14.37 -7.77, -20.94 -1.8, -22.95 -0.74" stroke="#1e1e1e" stroke-width="2" fill="none"></path></g></g><mask></mask><g stroke-linecap="round"><g transform="translate(105.30674220114724 102.3187591096048) rotate(0 -10.01371575103758 6.877747829003965)"><path d="M0.45 0.03 C-2.75 2.24, -16.06 10.93, -19.51 13.27 M0.02 -0.42 C-3.18 1.83, -16.22 11.46, -19.68 13.72" stroke="#1e1e1e" stroke-width="2" fill="none"></path></g></g><mask></mask><g stroke-linecap="round"><g transform="translate(85.9888654957349 115.5899680261864) rotate(0 -11.975119569950493 1.2481839496167595)"><path d="M0.49 0.07 C-1.55 1, -7.88 5.53, -11.99 5.04 C-16.09 4.55, -22.14 -1.65, -24.12 -2.85 M0.08 -0.37 C-2.03 0.7, -8.22 6.1, -12.33 5.76 C-16.43 5.42, -22.66 -0.94, -24.55 -2.43" stroke="#1e1e1e" stroke-width="2" fill="none"></path></g></g><mask></mask><g stroke-linecap="round"><g transform="translate(13.44363841393897 74.16870896241016) rotate(0 26.231273174531907 20.91183582919257)"><path d="M1.2 -0.91 C10.12 6.1, 43.99 35.65, 52.5 42.57 M0.37 1.23 C9.23 7.85, 43.06 34.15, 51.58 40.84" stroke="#1e1e1e" stroke-width="2" fill="none"></path></g></g><mask></mask><g stroke-linecap="round"><g transform="translate(192.92680978398676 55.79393342158619) rotate(0 0.30833401684276396 17.218129564107585)"><path d="M0.4 -0.07 C0.6 5.55, 0.71 28.32, 0.77 34.07 M-0.06 -0.59 C0.11 5.07, 0.33 28.65, 0.42 34.58" stroke="#1e1e1e" stroke-width="2" fill="none"></path></g></g><mask></mask><g stroke-linecap="round"><g transform="translate(80.44089220998103 121.65449642016029) rotate(0 0.4041707188539476 20.20388495629595)"><path d="M-0.48 -0.29 C-0.3 6.56, 0.33 33.82, 0.62 40.57 M0.28 0.76 C0.41 7.48, -0.05 33.04, 0.09 39.69" stroke="#1e1e1e" stroke-width="2" fill="none"></path></g></g><mask></mask><g stroke-linecap="round"><g transform="translate(71.73454717037202 122.66731727579827) rotate(0 0.4041707188539476 20.20388495629595)"><path d="M0.5 0.46 C0.55 7.29, 0.34 33.79, 0.36 40.52 M0.09 0.21 C0.3 6.92, 1.35 32.99, 1.36 39.6" stroke="#1e1e1e" stroke-width="2" fill="none"></path></g></g><mask></mask><g stroke-linecap="round"><g transform="translate(193.14305053192402 82.87986354901295) rotate(0 -68.04784487841835 33.861453255197375)"><path d="M0.88 0.03 C-16.59 11.36, -81.73 57.75, -104.59 68.46 C-127.46 79.18, -131 65.28, -136.31 64.33 M-0.12 -0.99 C-17.74 9.95, -82.52 56.17, -105.37 66.73 C-128.21 77.28, -132.02 62.91, -137.19 62.35" stroke="#1e1e1e" stroke-width="1" fill="none"></path></g></g><mask></mask><g stroke-linecap="round"><g transform="translate(23.717461978168103 123.44047520082677) rotate(0 -5.253754246461995 -4.716565316340166)"><path d="M-0.3 0.04 C-2.2 -1.51, -9.3 -7.99, -10.99 -9.51 M0.54 -0.42 C-1.23 -1.85, -8.13 -7.26, -10 -8.85" stroke="#1e1e1e" stroke-width="2" fill="none"></path></g></g><mask></mask><g stroke-linecap="round"><g transform="translate(73.41716209669448 103.40691537973908) rotate(0 20.16702902123143 -10.48056276650641)"><path d="M-0.23 0.31 C4.3 -3.07, 19.88 -16.68, 26.68 -20.2 C33.48 -23.73, 38.1 -20.62, 40.57 -20.82 M-1.81 -0.57 C3.11 -4.3, 21.84 -18.83, 28.8 -21.98 C35.76 -25.12, 38.28 -19.67, 39.93 -19.43" stroke="#1e1e1e" stroke-width="1" fill="none"></path></g></g><mask></mask><g stroke-linecap="round"><g transform="translate(113.47925312940151 82.22633679210776) rotate(0 12.266323560461387 3.389084830923821)"><path d="M-0.48 0 C1.24 1.09, 6.48 6.75, 10.66 6.8 C14.84 6.86, 22.29 1.41, 24.62 0.34 M0.28 -0.47 C2.15 0.69, 7.75 7.54, 11.75 7.52 C15.76 7.49, 22.14 0.75, 24.31 -0.6" stroke="#1e1e1e" stroke-width="1" fill="none"></path></g></g><mask></mask><g stroke-linecap="round"><g transform="translate(136.1647141469075 82.17824261860005) rotate(0 19.47986502681124 -17.52272755262493)"><path d="M0.42 0.73 C7.07 -3.57, 33.92 -20.59, 38.78 -26.72 C43.65 -32.85, 31 -34.69, 29.63 -36.06 M-0.82 0.07 C5.76 -4.04, 32.28 -19.87, 37.75 -25.77 C43.21 -31.66, 33.15 -33.93, 31.99 -35.28" stroke="#1e1e1e" stroke-width="1" fill="none"></path></g></g><mask></mask><g stroke-linecap="round"><g transform="translate(174.05733349314323 51.55425281821044) rotate(0 -26.160933893101628 -14.458956943703924)"><path d="M-0.41 0.76 C-7.18 -4.11, -31.9 -23.15, -40.75 -28.08 C-49.6 -33, -51.62 -28.54, -53.5 -28.78 M1.57 0.12 C-4.79 -4.58, -29.6 -25.15, -38.4 -29.76 C-47.2 -34.37, -49.02 -27.67, -51.23 -27.52" stroke="#1e1e1e" stroke-width="1" fill="none"></path></g></g><mask></mask><g stroke-linecap="round"><g transform="translate(123.136293089643 23.38638478707435) rotate(0 -20.651803830257904 15.818308843860905)"><path d="M0.52 -0.18 C-6.34 5.1, -34.94 26.53, -41.99 31.86 M-0.67 -1.32 C-7.06 3.56, -32.61 24.11, -39.64 29.85" stroke="#1e1e1e" stroke-width="1" fill="none"></path></g></g><mask></mask><g stroke-linecap="round"><g transform="translate(72.97427888990933 51.058751980755915) rotate(0 18.323051859545558 15.184258884664814)"><path d="M-0.68 0.29 C5.67 5.3, 31.64 24.62, 37.85 29.47 M1.17 -0.6 C7.49 4.58, 31.76 25.4, 37.53 30.53" stroke="#1e1e1e" stroke-width="1" fill="none"></path></g></g><mask></mask><g stroke-linecap="round" transform="translate(119.0426811276493 46.62461072693986) rotate(0 9.632735953026895 5.9061763721092575)"><path d="M11.05 0.04 C13.17 0.16, 15.8 1.14, 17.15 2 C18.51 2.85, 19.21 4.01, 19.17 5.18 C19.14 6.36, 18.14 8.01, 16.97 9.04 C15.79 10.07, 14.14 11.07, 12.12 11.39 C10.11 11.7, 6.7 11.42, 4.88 10.95 C3.06 10.48, 1.91 9.77, 1.22 8.56 C0.52 7.35, 0.27 5.03, 0.72 3.69 C1.17 2.35, 2.25 1.18, 3.94 0.52 C5.63 -0.13, 9.61 -0.13, 10.86 -0.25 C12.11 -0.37, 11.5 -0.41, 11.46 -0.21 M10.67 0.71 C12.58 0.77, 15.06 0.55, 16.46 1.41 C17.86 2.28, 18.99 4.44, 19.05 5.91 C19.12 7.38, 18.2 9.23, 16.83 10.22 C15.46 11.22, 12.76 11.71, 10.85 11.88 C8.95 12.06, 7.17 11.92, 5.4 11.28 C3.64 10.64, 1.03 9.2, 0.27 8.05 C-0.49 6.89, 0.1 5.66, 0.84 4.36 C1.59 3.06, 2.92 0.86, 4.75 0.24 C6.58 -0.38, 10.73 0.72, 11.85 0.66 C12.98 0.6, 11.56 -0.19, 11.51 -0.12" stroke="#1e1e1e" stroke-width="1" fill="none"></path></g><g stroke-linecap="round" transform="translate(114.48346276876237 42.662592144894006) rotate(0 14.03898176067105 10.104378917153554)"><path d="M12.55 -0.26 C15.37 -0.51, 18.92 0.73, 21.45 1.96 C23.97 3.18, 26.86 5.01, 27.72 7.08 C28.58 9.15, 27.89 12.35, 26.59 14.37 C25.3 16.39, 22.58 18.28, 19.96 19.19 C17.34 20.1, 13.74 20.38, 10.89 19.83 C8.04 19.29, 4.61 17.58, 2.86 15.92 C1.11 14.25, 0.2 11.95, 0.36 9.85 C0.52 7.74, 1.66 4.94, 3.84 3.29 C6.01 1.65, 11.67 0.48, 13.41 -0.02 C15.15 -0.52, 14.25 0.14, 14.29 0.3 M12.6 -0.25 C15.33 -0.67, 18.53 0.97, 21.02 2.11 C23.51 3.26, 26.51 4.64, 27.54 6.61 C28.56 8.57, 28.34 11.92, 27.16 13.92 C25.99 15.91, 23.17 17.48, 20.49 18.57 C17.8 19.67, 13.99 20.82, 11.06 20.48 C8.13 20.14, 4.68 18.38, 2.92 16.54 C1.16 14.69, 0.27 11.63, 0.5 9.41 C0.73 7.18, 2.33 4.75, 4.29 3.18 C6.25 1.61, 11.01 0.55, 12.24 -0.02 C13.47 -0.6, 11.74 -0.47, 11.66 -0.26" stroke="#1e1e1e" stroke-width="1" fill="none"></path></g><g stroke-linecap="round"><g transform="translate(40.64610917756818 62.178342539025834) rotate(0 11.88226397755625 -8.340709255419824)"><path d="M-1.24 1.55 C6.22 -2.33, 10.01 -7.26, 23.01 -15.14 M-0.15 0.1 C8.82 -5.35, 16.36 -11.81, 24.58 -15.7" stroke="#1e1e1e" stroke-width="1" fill="none"></path></g></g><mask></mask><g stroke-linecap="round"><g transform="translate(26.610173063241746 123.26745831030712) rotate(0 0.5067784253587888 -17.040353402585424)"><path d="M0 0 C0.08 -11.67, 1.13 -23.28, 1.01 -34.08 M0 0 C-0.1 -8.68, 0.61 -16.81, 1.01 -34.08" stroke="#1e1e1e" stroke-width="1" fill="none"></path></g></g><mask></mask><g stroke-linecap="round"><g transform="translate(27.01089041043724 123.8867487559728) rotate(0 14.561484017594921 10.744803072438117)"><path d="M0 0 C11.68 7.88, 22.01 16.21, 29.12 21.49 M0 0 C10.35 8, 20.63 15.61, 29.12 21.49" stroke="#1e1e1e" stroke-width="1" fill="none"></path></g></g><mask></mask><g stroke-linecap="round"><g transform="translate(56.007116405889064 143.55832761826423) rotate(0 0.24001299441351875 -16.25959966977007)"><path d="M0 0 C-0.44 -9.34, 0.77 -18.63, 0.48 -32.52 M0 0 C0 -8.65, 0.18 -17.96, 0.48 -32.52" stroke="#1e1e1e" stroke-width="1" fill="none"></path></g></g><mask></mask><g stroke-linecap="round"><g transform="translate(30.74067337026463 124.36525687606081) rotate(0 0.3587862232693624 -10.723173442902407)"><path d="M0 0 C0.46 -6.1, -0.6 -11.93, 0.72 -21.45 M0 0 C-0.31 -4.33, 0.72 -10.06, 0.72 -21.45" stroke="#1e1e1e" stroke-width="1" fill="none"></path></g></g><mask></mask><g stroke-linecap="round"><g transform="translate(31.95135031445534 102.9480475288401) rotate(0 4.763764259289019 -2.6986774167198746)"><path d="M0.38 0.27 C2.77 -2.3, 6.64 -3.25, 9.49 -4.77 M0.13 -0.3 C2.13 -1.3, 4.97 -2.86, 9.71 -5.1" stroke="#1e1e1e" stroke-width="1" fill="none"></path></g></g><mask></mask><g stroke-linecap="round"><g transform="translate(45.91622567695231 101.08528713746455) rotate(0 4.886600324772644 9.423042349271782)"><path d="M0 0 C4.33 6.37, 6.11 13.24, 9.77 18.85 M0 0 C2.46 5.01, 5.54 10.38, 9.77 18.85" stroke="#1e1e1e" stroke-width="1" fill="none"></path></g></g><mask></mask><g stroke-linecap="round"><g transform="translate(32.40900180863173 124.1240581998045) rotate(0 9.579868047488617 -5.554989311183817)"><path d="M0 0 C7.17 -3.6, 12.28 -6.84, 19.16 -11.11 M0 0 C5.65 -2.85, 10.01 -6.41, 19.16 -11.11" stroke="#1e1e1e" stroke-width="1" fill="none"></path></g></g><mask></mask><g stroke-linecap="round"><g transform="translate(48.17560846578726 137.92463536057403) rotate(0 3.518426014567467 -2.5566015533022437)"><path d="M-0.3 0.2 C2.53 -1.49, 4.7 -3.45, 7.53 -5.26 M-0.07 -0.27 C2.24 -1.35, 4.36 -3.51, 7.22 -5.17" stroke="#1e1e1e" stroke-width="1" fill="none"></path></g></g><mask></mask><g stroke-linecap="round"><g transform="translate(177.15991138412028 52.76377380809208) rotate(0 6.834277503694466 2.7589971314619106)"><path d="M0.36 1.15 C1.64 1.38, 4.71 1.64, 6.95 2.53 C9.19 3.42, 12.85 5.96, 13.8 6.49 M-0.9 0.71 C0.31 1.08, 3.84 -0.02, 6.17 0.64 C8.51 1.3, 12.08 3.61, 13.11 4.66" stroke="#1e1e1e" stroke-width="1" fill="none"></path></g></g><mask></mask><g stroke-linecap="round"><g transform="translate(127.23532256241015 19.612202772937962) rotate(0 1.3110612342734385 -4.854574010410033)"><path d="M-0.47 -0.61 C-0.27 -1.49, 0.55 -3.59, 0.95 -5.09 C1.35 -6.59, 1.68 -8.92, 1.91 -9.61 M0.66 0.71 C0.82 -0.07, 0.13 -2.67, 0.58 -4.25 C1.03 -5.82, 3.06 -7.68, 3.36 -8.74" stroke="#1e1e1e" stroke-width="1" fill="none"></path></g></g><mask></mask><g stroke-linecap="round"><g transform="translate(110.11414400447848 82.21249897160305) rotate(0 3.169698809970214 7.531399534411321)"><path d="M0.91 1.04 C1.46 4.79, 5.11 10.93, 6.6 15.15 M0.37 -0.16 C2.82 4.77, 4.22 10.12, 7.08 14.95" stroke="#1e1e1e" stroke-width="1" fill="none"></path></g></g><mask></mask><g stroke-linecap="round"><g transform="translate(126.1181661384735 90.37896311591976) rotate(0 1.76861919680141 5.175804898158276)"><path d="M0.26 0.57 C1.16 4.3, 2.94 6.64, 4.4 11.05 M-0.5 0.38 C1.71 3.12, 2.01 7.14, 4.07 9.86" stroke="#1e1e1e" stroke-width="1" fill="none"></path></g></g><mask></mask><g stroke-linecap="round"><g transform="translate(123.22277866955756 56.34990727364493) rotate(0 6.124380156205461 -0.7655851811341563)"><path d="M-0.38 -0.29 C0.3 -0.51, 2.45 -1.06, 4.6 -1.11 C6.75 -1.17, 11.26 -0.74, 12.53 -0.61 M0.42 0.75 C1.24 0.36, 3.69 -1.73, 5.68 -1.86 C7.66 -2, 11.23 -0.41, 12.33 -0.06" stroke="#1e1e1e" stroke-width="1" fill="none"></path></g></g><mask></mask><g stroke-linecap="round"><g transform="translate(193.44598616985695 87.35339966840365) rotate(0 -4.801037488192378 6.7081025957941165)"><path d="M0.45 -0.48 C0.27 0.85, 0.88 6.12, -0.86 8.36 C-2.6 10.6, -8.52 12.06, -10.01 12.95 M0.01 0.46 C-0.25 1.6, 0.22 5.45, -1.27 7.59 C-2.75 9.73, -7.49 12.47, -8.9 13.31" stroke="#1e1e1e" stroke-width="2" fill="none"></path></g></g><mask></mask></svg>