<svg version="1.1" xmlns="http://www.w3.org/2000/svg" viewBox="0 0 534.4217185235684 219.65741083913235" width="534.4217185235684" height="219.65741083913235" filter="invert(93%) hue-rotate(180deg)">
  <!-- svg-source:excalidraw -->
  
  <defs>
    <style class="style-fonts">
      
    </style>
    
  </defs>
  <g stroke-linecap="round"><g transform="translate(196.46470594064158 150.63216302081491) rotate(0 9.35772921355283 -16.09990891455982)"><path d="M0 0 C-0.33 -7.2, -1.48 -12.61, -0.88 -18.94 M0 0 C-0.44 -6.85, -0.4 -12.8, -0.88 -18.94 M-0.88 -18.94 C1.18 -22.7, 2.8 -25.94, 4.13 -28.29 M-0.88 -18.94 C0.32 -21.39, 2.03 -23.76, 4.13 -28.29 M4.13 -28.29 C7.41 -30, 10.05 -30.83, 12.37 -32.2 M4.13 -28.29 C7.07 -29.48, 10.14 -31.11, 12.37 -32.2 M12.37 -32.2 C13.72 -31.06, 15.02 -29.87, 19.19 -26.92 M12.37 -32.2 C14.26 -30.96, 15.75 -29.8, 19.19 -26.92 M19.19 -26.92 C18.79 -22.42, 18.68 -16.45, 19.59 -8.41 M19.19 -26.92 C18.88 -21.93, 18.93 -17.3, 19.59 -8.41 M19.59 -8.41 C14.49 -6.09, 9.15 -4.66, 0 0 M19.59 -8.41 C13.22 -6.07, 7.32 -3.08, 0 0" stroke="#1e1e1e" stroke-width="4" fill="none"></path></g></g><mask></mask><g stroke-linecap="round" transform="translate(11.400642323410466 128.68208537068676) rotate(331.36346021978716 8.404644689638644 13.479073384439289)"><path d="M8.31 -0.47 C10.03 -0.77, 12.56 0.85, 13.98 2.74 C15.4 4.63, 16.47 8, 16.82 10.86 C17.18 13.73, 16.97 17.38, 16.1 19.93 C15.22 22.47, 13.31 25.12, 11.59 26.14 C9.87 27.15, 7.51 26.88, 5.79 26 C4.07 25.11, 2.27 23.34, 1.25 20.82 C0.24 18.29, -0.65 13.79, -0.3 10.86 C0.05 7.93, 1.92 5.04, 3.38 3.24 C4.83 1.45, 7.55 0.6, 8.43 0.09 C9.31 -0.42, 8.71 -0.07, 8.67 0.18 M7.02 0.48 C8.76 0.14, 11.42 1.23, 13.1 2.83 C14.78 4.44, 16.58 7.37, 17.11 10.1 C17.63 12.84, 17.08 16.65, 16.23 19.23 C15.39 21.82, 13.73 24.3, 12.04 25.62 C10.36 26.93, 7.97 27.79, 6.14 27.13 C4.31 26.47, 2.21 24.12, 1.07 21.64 C-0.08 19.16, -0.93 15.23, -0.73 12.25 C-0.52 9.27, 0.91 5.85, 2.3 3.77 C3.7 1.68, 6.89 0.21, 7.65 -0.27 C8.42 -0.76, 6.93 0.66, 6.91 0.85" stroke="#1e1e1e" stroke-width="4" fill="none"></path></g><g stroke-linecap="round" transform="translate(35.54896246330463 144.13693667444568) rotate(331.36346021978716 8.404644689638644 13.479073384439289)"><path d="M9.25 0.04 C11 0.26, 13.18 2.06, 14.48 4.23 C15.79 6.39, 17.03 10.17, 17.08 13.04 C17.13 15.91, 15.98 19.14, 14.78 21.46 C13.57 23.78, 11.5 26.25, 9.85 26.96 C8.19 27.68, 6.36 27.21, 4.84 25.75 C3.32 24.29, 1.41 21.01, 0.73 18.22 C0.04 15.44, 0.24 11.75, 0.76 9.05 C1.27 6.34, 2.33 3.45, 3.81 2 C5.29 0.56, 8.58 0.61, 9.64 0.37 C10.69 0.13, 10.22 0.37, 10.14 0.56 M10.19 0.19 C11.85 0.45, 13.2 2.61, 14.39 4.86 C15.58 7.12, 17.27 10.87, 17.32 13.74 C17.37 16.61, 15.88 19.96, 14.7 22.08 C13.51 24.2, 12.06 25.91, 10.21 26.46 C8.35 27.01, 5.19 26.87, 3.58 25.38 C1.97 23.89, 1.13 20.23, 0.55 17.52 C-0.04 14.81, -0.6 11.68, 0.07 9.12 C0.75 6.57, 2.94 3.69, 4.6 2.2 C6.25 0.72, 9.2 0.43, 10.02 0.24 C10.84 0.05, 9.48 0.78, 9.53 1.06" stroke="#1e1e1e" stroke-width="4" fill="none"></path></g><g stroke-linecap="round"><g transform="translate(14.39880253199317 128.59240271373346) rotate(0 9.591675138841765 -5.134217132767844)"><path d="M0 0 C5.57 -3.43, 11.25 -5.17, 19.18 -10.27 M0 0 C6.33 -3.16, 12.12 -6.55, 19.18 -10.27" stroke="#1e1e1e" stroke-width="4" fill="none"></path></g></g><mask></mask><g stroke-linecap="round"><g transform="translate(32.98932745166712 145.7788191632735) rotate(0 9.863712531597685 -6.663191456043933)"><path d="M0 0 C6.5 -5.91, 14.01 -8.92, 19.73 -13.33 M0 0 C8.07 -5.19, 15.04 -10.45, 19.73 -13.33" stroke="#1e1e1e" stroke-width="4" fill="none"></path></g></g><mask></mask><g stroke-linecap="round"><g transform="translate(54.357715181563435 167.81821713160025) rotate(0 8.90778739069583 -5.574122062897914)"><path d="M0 0 C3.7 -1.87, 8.15 -5.48, 17.82 -11.15 M0 0 C4.4 -2.97, 8.2 -4.96, 17.82 -11.15" stroke="#1e1e1e" stroke-width="4" fill="none"></path></g></g><mask></mask><g stroke-linecap="round"><g transform="translate(75.04018719847227 65.6696143271729) rotate(0 25.69619529252941 -14.630465010654916)"><path d="M-0.36 -0.56 C8.04 -5.73, 42.55 -25.85, 51.24 -30.46 M1.65 1.75 C9.8 -3.36, 41.95 -24.26, 50.21 -29.55" stroke="#1e1e1e" stroke-width="4" fill="none"></path></g></g><mask></mask><g stroke-linecap="round"><g transform="translate(78.95865071197659 71.353073984621) rotate(0 25.69619529252941 -14.630465010654916)"><path d="M1.19 0.66 C9.74 -4.46, 44.01 -25.15, 52.41 -29.98 M0.36 -0.04 C8.75 -5.09, 43.56 -23.8, 52 -28.81" stroke="#1e1e1e" stroke-width="4" fill="none"></path></g></g><mask></mask><g stroke-linecap="round"><g transform="translate(93.60945467159763 75.09778324019317) rotate(0 25.69619529252941 -14.630465010654916)"><path d="M-0.12 0.26 C8.55 -4.88, 42.51 -25.46, 51.11 -30.19 M-1.64 -0.66 C6.92 -5.72, 41.28 -24.26, 50.01 -29.14" stroke="#1e1e1e" stroke-width="4" fill="none"></path></g></g><mask></mask><g stroke-linecap="round"><g transform="translate(99.21806939937596 79.56062931322049) rotate(0 25.69619529252941 -14.630465010654916)"><path d="M-0.14 -0.66 C8.56 -5.44, 43.96 -24.04, 52.4 -28.92 M-1.67 1.61 C6.93 -3.53, 42.87 -25.77, 51.98 -30.87" stroke="#1e1e1e" stroke-width="4" fill="none"></path></g></g><mask></mask><g stroke-linecap="round"><g transform="translate(107.0176189854601 83.51266396156643) rotate(0 25.69619529252941 -14.630465010654916)"><path d="M0.67 0.27 C9.46 -4.59, 43.95 -24.31, 52.39 -29.39 M-0.44 -0.63 C8.32 -5.27, 43.48 -23.13, 51.96 -27.92" stroke="#1e1e1e" stroke-width="4" fill="none"></path></g></g><mask></mask><g stroke-linecap="round"><g transform="translate(114.87353401620203 89.24293111563384) rotate(0 25.69619529252941 -14.630465010654916)"><path d="M-0.77 -0.72 C7.77 -5.77, 42.44 -24.45, 51.15 -29.11 M1.03 1.51 C9.4 -2.82, 41.78 -22.11, 50.07 -27.5" stroke="#1e1e1e" stroke-width="4" fill="none"></path></g></g><mask></mask><g stroke-linecap="round"><g transform="translate(125.12390256798972 93.81266320557006) rotate(0 25.69619529252941 -14.630465010654916)"><path d="M0.28 -0.55 C8.78 -5.61, 43.2 -24.94, 51.91 -29.81 M-1.02 1.78 C7.27 -3.18, 42.34 -23.48, 51.23 -28.56" stroke="#1e1e1e" stroke-width="4" fill="none"></path></g></g><mask></mask><g stroke-linecap="round"><g transform="translate(132.18231751910298 98.52179550508481) rotate(0 25.69619529252941 -14.630465010654916)"><path d="M0.44 -0.59 C9.12 -5.34, 43 -24.08, 51.41 -28.77 M-0.79 1.71 C7.79 -3.38, 42.03 -25.22, 50.47 -30.64" stroke="#1e1e1e" stroke-width="4" fill="none"></path></g></g><mask></mask><g stroke-linecap="round" transform="translate(82.11020550026933 142.1025162283895) rotate(327.5150559742368 8.063483858577456 13.874899430038568)"><path d="M7.66 0.13 C9.31 -0.04, 12.03 1.28, 13.39 3.21 C14.75 5.13, 15.58 8.72, 15.83 11.7 C16.07 14.67, 15.78 18.57, 14.89 21.07 C14 23.56, 12.07 25.71, 10.48 26.64 C8.89 27.57, 6.89 27.51, 5.36 26.65 C3.83 25.79, 2.2 23.97, 1.29 21.48 C0.38 18.98, -0.35 14.66, -0.09 11.68 C0.16 8.7, 1.51 5.5, 2.82 3.6 C4.13 1.69, 6.87 0.74, 7.74 0.26 C8.62 -0.22, 7.96 0.54, 8.07 0.72 M8.29 -0.41 C9.81 -0.36, 11.6 1.98, 12.83 3.99 C14.05 6, 15.3 8.84, 15.61 11.63 C15.92 14.42, 15.49 18.03, 14.69 20.71 C13.9 23.39, 12.34 26.74, 10.85 27.69 C9.36 28.64, 7.41 27.7, 5.75 26.43 C4.09 25.16, 1.72 22.72, 0.9 20.06 C0.08 17.4, 0.47 13.31, 0.85 10.48 C1.23 7.65, 1.87 4.78, 3.2 3.07 C4.53 1.36, 7.97 0.59, 8.84 0.23 C9.7 -0.13, 8.42 0.69, 8.38 0.89" stroke="#1e1e1e" stroke-width="4" fill="none"></path></g><g stroke-linecap="round"><g transform="translate(87.67404824114328 145.85981271601304) rotate(0 4.129519761300344 8.507830469317014)"><path d="M0 0 C-0.43 1.16, -1.15 2.43, -2.53 4.73 M0 0 C-0.91 1.76, -1.89 3.56, -2.53 4.73 M-2.53 4.73 C0.09 8.2, 3.85 13.63, 6.06 17.02 M-2.53 4.73 C0.59 9.48, 4.07 13.56, 6.06 17.02 M6.06 17.02 C6.88 15.75, 8.05 14.53, 10.79 11.5 M6.06 17.02 C7.07 15.88, 8.04 14.56, 10.79 11.5" stroke="#1e1e1e" stroke-width="4" fill="none"></path></g></g><mask></mask><g stroke-linecap="round" transform="translate(75.30158714801746 136.01734899370604) rotate(329.2214986162162 14.55309116658509 19.929154040019057)"><path d="M12.02 0.28 C14.96 -0.66, 18.8 0.69, 21.56 2.82 C24.33 4.95, 27.57 9.16, 28.62 13.05 C29.68 16.95, 29.01 22.24, 27.9 26.19 C26.8 30.14, 24.59 34.51, 21.99 36.77 C19.39 39.02, 15.36 40.39, 12.31 39.7 C9.27 39.02, 5.73 35.83, 3.73 32.65 C1.73 29.47, 0.38 24.81, 0.32 20.64 C0.26 16.48, 1.33 11.15, 3.37 7.67 C5.41 4.2, 10.8 1.03, 12.57 -0.21 C14.33 -1.45, 13.95 -0.09, 13.94 0.23 M11.52 0.09 C14.23 -1.22, 17.82 -0.3, 20.63 1.63 C23.44 3.56, 26.99 7.75, 28.38 11.69 C29.77 15.63, 30.03 21.02, 28.98 25.28 C27.94 29.54, 24.75 34.94, 22.09 37.24 C19.44 39.55, 16.04 39.74, 13.04 39.11 C10.05 38.47, 6.29 36.47, 4.14 33.42 C1.98 30.37, 0.26 25.12, 0.13 20.82 C-0.01 16.52, 1.46 11.09, 3.34 7.62 C5.23 4.15, 10.12 1.05, 11.45 -0.01 C12.78 -1.06, 11.19 0.92, 11.31 1.3" stroke="#1e1e1e" stroke-width="4" fill="none"></path></g><g stroke-linecap="round"><g transform="translate(101.66998791374044 172.2698119439101) rotate(0 6.180379750203429 -2.8918822509358506)"><path d="M0 0 C3.11 -1.44, 6.58 -2.7, 12.36 -5.78 M0 0 C4.06 -1.83, 8.68 -4.17, 12.36 -5.78" stroke="#1e1e1e" stroke-width="4" fill="none"></path></g></g><mask></mask><g stroke-linecap="round"><g transform="translate(78.77605867358125 136.9530394747453) rotate(0 6.103883727464563 -3.5096707824041005)"><path d="M0 0 C3.89 -2.24, 7.14 -4.58, 12.21 -7.02 M0 0 C4.43 -2.63, 8.74 -5.41, 12.21 -7.02" stroke="#1e1e1e" stroke-width="4" fill="none"></path></g></g><mask></mask><g stroke-linecap="round"><g transform="translate(115.79791640321764 142.1220641996788) rotate(0 2.2685505294148243 16.380403767737334)"><path d="M-0.45 -0.27 C0.41 2.01, 4 9.61, 4.85 13.66 C5.69 17.71, 5.3 20.81, 4.61 24.03 C3.92 27.26, 1.27 31.49, 0.7 33.01 M0.32 0.78 C1.17 3.15, 3.98 10.42, 4.64 14.37 C5.3 18.32, 4.95 21.55, 4.3 24.49 C3.65 27.42, 1.33 30.47, 0.74 31.97" stroke="#2f9e44" stroke-width="4" fill="none"></path></g></g><mask></mask><g stroke-linecap="round"><g transform="translate(30.48373007272494 117.92744757757828) rotate(0 27.356464709143893 0.5126293924240599)"><path d="M-0.45 0.23 C0.45 -0.9, 2.84 -4.77, 5.3 -6.85 C7.75 -8.92, 11.2 -11.79, 14.29 -12.23 C17.38 -12.66, 20.89 -11.81, 23.83 -9.44 C26.76 -7.08, 28.93 -0.09, 31.93 1.96 C34.92 4.01, 38.54 1.82, 41.79 2.87 C45.03 3.92, 49.1 6.61, 51.4 8.26 C53.71 9.91, 55.16 11.99, 55.61 12.77 M1.52 -0.69 C2.33 -1.67, 2.69 -3.38, 4.69 -5.64 C6.69 -7.9, 10.31 -13.29, 13.51 -14.25 C16.71 -15.22, 21.06 -14.1, 23.91 -11.43 C26.76 -8.75, 27.94 -0.43, 30.62 1.82 C33.31 4.07, 36.52 1.2, 40.01 2.08 C43.49 2.96, 49.04 4.87, 51.55 7.11 C54.06 9.35, 54.35 14.26, 55.06 15.51" stroke="#1e1e1e" stroke-width="4" fill="none"></path></g></g><mask></mask><g stroke-linecap="round"><g transform="translate(35.29696483888256 111.60287061684357) rotate(0 9.544833641017703 8.901043355920592)"><path d="M1.11 -0.75 C2.64 -0.04, 7.1 0.49, 10.14 3.56 C13.19 6.63, 17.74 15.28, 19.37 17.66 M0.23 1.47 C1.47 2.46, 5.82 2.29, 8.91 5.19 C12 8.1, 16.81 16.62, 18.76 18.9" stroke="#1e1e1e" stroke-width="4" fill="none"></path></g></g><mask></mask><g stroke-linecap="round"><g transform="translate(54.148330266626544 128.37519309533855) rotate(0 10.633141322033225 4.371994649596672)"><path d="M0.18 -0.44 C2 -0.38, 7.49 -1.82, 10.99 -0.17 C14.5 1.48, 19.57 7.84, 21.21 9.47 M-0.39 0.52 C1.36 0.48, 7.07 -2.52, 10.6 -0.92 C14.14 0.68, 19.15 8.56, 20.83 10.14" stroke="#1e1e1e" stroke-width="4" fill="none"></path></g></g><mask></mask><g stroke-linecap="round"><g transform="translate(55.41136860940696 127.53555191105261) rotate(0 3.5057021146917577 -2.897271596673818)"><path d="M0.31 -0.15 C1.5 -1.05, 5.87 -4.54, 7.03 -5.49 M0.05 -0.53 C1.19 -1.52, 5.57 -5.13, 6.76 -5.96" stroke="#1e1e1e" stroke-width="4" fill="none"></path></g></g><mask></mask><g stroke-linecap="round"><g transform="translate(212.14870931057249 133.99177333098123) rotate(0 -6.772875986765484 -3.3254779053577295)"><path d="M0.16 0.3 C-1.99 -0.81, -11.01 -6.07, -13.31 -7.19 M-0.42 -0.02 C-2.59 -1.04, -11.35 -5.55, -13.62 -6.77" stroke="#1e1e1e" stroke-width="4" fill="none"></path></g></g><mask></mask><g stroke-linecap="round"><g transform="translate(113.30147430800662 165.8633485020273) rotate(0 -10.352109068173831 -17.85261705936682)"><path d="M-0.77 0.8 C-1.97 -3.24, -3.99 -17.83, -7.15 -23.95 C-10.31 -30.07, -17.5 -34.11, -19.74 -35.92 M1.02 0.18 C0.21 -3.75, -1.28 -16.98, -4.79 -22.8 C-8.29 -28.61, -17.41 -32.36, -20 -34.71" stroke="#1e1e1e" stroke-width="4" fill="none"></path></g></g><mask></mask><g stroke-linecap="round"><g transform="translate(222.5483958249979 83.76393254716459) rotate(0 0.7196079528380324 31.63617475884803)"><path d="M-0.84 1.02 C-0.56 11.57, 1.35 53.54, 1.85 63.94 M0.92 0.51 C1.06 10.65, 0.98 51.45, 1.12 62.17" stroke="#1e1e1e" stroke-width="4" fill="none"></path></g></g><mask></mask><g stroke-linecap="round"><g transform="translate(33.4836447472635 68.26198291522269) rotate(0 51.26728575085008 34.10476301705148)"><path d="M0.72 -1.17 C15.41 7.8, 71.67 43.26, 88.77 54.63 C105.87 66, 101.21 64.86, 103.32 67.04 M-0.36 0.83 C14.67 9.39, 73.95 41.75, 91.17 52.9 C108.4 64.05, 101.31 65.14, 102.97 67.74" stroke="#1e1e1e" stroke-width="4" fill="none"></path></g></g><mask></mask><g stroke-linecap="round"><g transform="translate(137.1163771002175 135.32132567432564) rotate(0 -0.38610392623650114 30.59243656385661)"><path d="M-0.93 0.01 C-0.8 9.86, -0.11 49.86, 0.1 59.99 M0.78 -1.04 C0.89 8.84, -0.29 50.41, -0.39 60.91" stroke="#1e1e1e" stroke-width="4" fill="none"></path></g></g><mask></mask><g stroke-linecap="round"><g transform="translate(134.8891670836174 198.05874301069161) rotate(0 50.5062923360515 -32.50316252756147)"><path d="M-0.4 0.77 C14.41 -7.45, 72.97 -37.7, 89.93 -48.61 C106.9 -59.53, 99.64 -62, 101.39 -64.71 M1.59 0.13 C16.13 -7.97, 72.33 -36.63, 88.87 -47.19 C105.41 -57.75, 98.91 -60.48, 100.83 -63.24" stroke="#1e1e1e" stroke-width="4" fill="none"></path></g></g><mask></mask><g stroke-linecap="round"><g transform="translate(235.68545736450596 133.87488756984385) rotate(0 -4.912664078687612 -32.70118820426342)"><path d="M0.47 -0.83 C0.07 -9.99, -0.03 -43.83, -1.63 -54.77 C-3.24 -65.7, -7.87 -64.68, -9.18 -66.45 M-0.75 1.34 C-0.87 -8.16, 1.94 -45.34, 0.46 -56.51 C-1.01 -67.68, -8.01 -64.39, -9.6 -65.68" stroke="#1e1e1e" stroke-width="4" fill="none"></path></g></g><mask></mask><g stroke-linecap="round"><g transform="translate(225.37485753563124 66.93703681045918) rotate(0 -49.43394834767514 -28.102212000319923)"><path d="M0.26 0.91 C-16.46 -8.21, -83.28 -45.78, -99.99 -55.2 M-1.07 0.34 C-17.46 -9.05, -81.77 -47.13, -97.87 -56.79" stroke="#1e1e1e" stroke-width="4" fill="none"></path></g></g><mask></mask><g stroke-linecap="round"><g transform="translate(126.57370778804398 10.889378027617568) rotate(0 -53.609107669770765 37.307799904071544)"><path d="M-0.95 -0.89 C-16.68 8.59, -77.36 43.58, -94.97 56.17 C-112.58 68.76, -104.62 71.52, -106.63 74.66 M0.76 1.26 C-15.08 10.47, -77.93 42.01, -95.9 54.46 C-113.88 66.92, -105.29 72.35, -107.09 75.99" stroke="#1e1e1e" stroke-width="4" fill="none"></path></g></g><mask></mask><g stroke-linecap="round"><g transform="translate(20.126887450604045 85.24567856740396) rotate(0 0.22394027721702514 18.55412256899126)"><path d="M-0.36 0.01 C-0.27 6.12, 0.41 30.43, 0.62 36.57 M0.45 -0.46 C0.48 5.71, 0.23 30.7, 0.28 36.99" stroke="#1e1e1e" stroke-width="4" fill="none"></path></g></g><mask></mask><g stroke-linecap="round"><g transform="translate(64.21426587419955 163.7556445031205) rotate(0 35.784025779596504 16.65879829158621)"><path d="M-0.82 0.95 C9 6.59, 45.82 28.2, 57.94 32.83 C70.06 37.46, 69.56 29.34, 71.89 28.72 M0.94 0.41 C11.2 6.29, 48.31 29.25, 60.04 34.11 C71.76 38.97, 69.24 30.25, 71.29 29.56" stroke="#1e1e1e" stroke-width="4" fill="none"></path></g></g><mask></mask><g stroke-linecap="round"><g transform="translate(138.02449168340718 133.5350633839662) rotate(0 47.678894336652775 -26.93492499626609)"><path d="M-0.48 1.01 C15.5 -8.1, 79.75 -45.79, 95.78 -55.06 M1.47 0.49 C17.34 -8.47, 79.45 -45.12, 95.05 -54.15" stroke="#1e1e1e" stroke-width="4" fill="none"></path></g></g><mask></mask><g stroke-linecap="round"><g transform="translate(131.753199214475 123.78418269968643) rotate(0 47.897812152222286 -26.982122873934713)"><path d="M-0.19 -0.77 C15.88 -9.79, 80.8 -44.76, 96.7 -53.76 M-1.75 1.45 C14.22 -8, 80.24 -46.55, 96.23 -55.77" stroke="#1e1e1e" stroke-width="4" fill="none"></path></g></g><mask></mask><g stroke-linecap="round"><g transform="translate(20.63533624054071 78.65497796729505) rotate(0 55.07085841487242 31.96198064395412)"><path d="M-0.66 -0.98 C0.61 -1.27, -7.14 -10.3, 8.81 -1.83 C24.76 6.63, 78.25 38.38, 95.03 49.79 C111.81 61.21, 107 63.76, 109.49 66.63 M1.19 1.12 C2.27 0.51, -7.76 -11.75, 8.29 -3.49 C24.35 4.78, 80.69 38.82, 97.54 50.69 C114.39 62.55, 107.59 64.91, 109.39 67.72" stroke="#1e1e1e" stroke-width="4" fill="none"></path></g></g><mask></mask><g stroke-linecap="round"><g transform="translate(130.06987393843337 146.4720448483331) rotate(0 -0.7921842983782881 25.153361129090626)"><path d="M0.52 0.73 C0.31 9.24, -1.81 41.79, -2.26 49.86 M-0.67 0.07 C-0.39 8.84, 0.53 42.87, 0.1 51.16" stroke="#1e1e1e" stroke-width="4" fill="none"></path></g></g><mask></mask><g transform="translate(19.53255517517391 143.273963235908) rotate(0 0.00005000000010113581 0.00004999999964638846)" stroke="none"><path fill="#1e1e1e" d="M 3.14,-3.14 Q 3.14,-3.14 3.55,-2.55 3.97,-1.97 4.18,-1.28 4.40,-0.59 4.38,0.11 4.36,0.83 4.11,1.51 3.86,2.18 3.41,2.74 2.96,3.30 2.36,3.69 1.75,4.08 1.05,4.25 0.36,4.42 -0.35,4.36 -1.07,4.31 -1.73,4.02 -2.39,3.74 -2.92,3.26 -3.46,2.78 -3.81,2.15 -4.16,1.53 -4.30,0.82 -4.43,0.11 -4.34,-0.59 -4.24,-1.30 -3.92,-1.94 -3.60,-2.59 -3.09,-3.09 -2.59,-3.60 -1.94,-3.92 -1.30,-4.24 -0.59,-4.34 0.12,-4.43 0.82,-4.30 1.53,-4.16 2.15,-3.81 2.78,-3.46 3.26,-2.92 3.74,-2.39 4.02,-1.73 4.31,-1.07 4.36,-0.35 4.42,0.36 4.25,1.05 4.07,1.75 3.69,2.36 3.30,2.96 2.74,3.41 2.18,3.86 1.51,4.11 0.83,4.36 0.11,4.38 -0.60,4.40 -1.28,4.18 -1.97,3.97 -2.55,3.55 -3.14,3.13 -3.14,3.14 -3.14,3.14 -3.47,2.71 -3.80,2.29 -4.02,1.80 -4.24,1.32 -4.33,0.79 -4.43,0.26 -4.40,-0.26 -4.36,-0.80 -4.20,-1.31 -4.04,-1.82 -3.77,-2.28 -3.49,-2.73 -3.11,-3.11 -2.73,-3.49 -2.28,-3.77 -1.82,-4.05 -1.31,-4.20 -0.80,-4.36 -0.26,-4.40 0.26,-4.43 0.79,-4.33 1.32,-4.24 1.80,-4.02 2.29,-3.80 2.71,-3.47 3.14,-3.14 3.14,-3.14 L 3.14,-3.14 Z"></path></g><g transform="translate(44.39934740446097 158.34916095516564) rotate(0 0.00005000000010113581 0.00004999999964638846)" stroke="none"><path fill="#1e1e1e" d="M 3.14,-3.14 Q 3.14,-3.14 3.55,-2.55 3.97,-1.97 4.18,-1.28 4.40,-0.59 4.38,0.11 4.36,0.83 4.11,1.51 3.86,2.18 3.41,2.74 2.96,3.30 2.36,3.69 1.75,4.08 1.05,4.25 0.36,4.42 -0.35,4.36 -1.07,4.31 -1.73,4.02 -2.39,3.74 -2.92,3.26 -3.46,2.78 -3.81,2.15 -4.16,1.53 -4.30,0.82 -4.43,0.11 -4.34,-0.59 -4.24,-1.30 -3.92,-1.94 -3.60,-2.59 -3.09,-3.09 -2.59,-3.60 -1.94,-3.92 -1.30,-4.24 -0.59,-4.34 0.12,-4.43 0.82,-4.30 1.53,-4.16 2.15,-3.81 2.78,-3.46 3.26,-2.92 3.74,-2.39 4.02,-1.73 4.31,-1.07 4.36,-0.35 4.42,0.36 4.25,1.05 4.07,1.75 3.69,2.36 3.30,2.96 2.74,3.41 2.18,3.86 1.51,4.11 0.83,4.36 0.11,4.38 -0.60,4.40 -1.28,4.18 -1.97,3.97 -2.55,3.55 -3.14,3.13 -3.14,3.14 -3.14,3.14 -3.47,2.71 -3.80,2.29 -4.02,1.80 -4.24,1.32 -4.33,0.79 -4.43,0.26 -4.40,-0.26 -4.36,-0.80 -4.20,-1.31 -4.04,-1.82 -3.77,-2.28 -3.49,-2.73 -3.11,-3.11 -2.73,-3.49 -2.28,-3.77 -1.82,-4.05 -1.31,-4.20 -0.80,-4.36 -0.26,-4.40 0.26,-4.43 0.79,-4.33 1.32,-4.24 1.80,-4.02 2.29,-3.80 2.71,-3.47 3.14,-3.14 3.14,-3.14 L 3.14,-3.14 Z"></path></g><g stroke-linecap="round"><g transform="translate(315.4379972636716 84.32121712160551) rotate(0 48.61936771484625 -23.909366482824225)"><path d="M-0.52 -0.07 C12.67 -7.84, 63.44 -38.13, 79.82 -45.92 C96.2 -53.71, 94.89 -46.53, 97.78 -46.81 M1.41 -1.16 C14.9 -8.81, 66.04 -36.66, 82.02 -44.57 C98.01 -52.48, 94.74 -48.32, 97.3 -48.63" stroke="#1e1e1e" stroke-width="4" fill="none"></path></g></g><mask></mask><g stroke-linecap="round"><g transform="translate(412.44597440400776 36.866608452848595) rotate(0 55.356105911365376 36.01671870655082)"><path d="M0.2 -0.04 C16.14 9.18, 78.35 42.94, 96.85 55 C115.36 67.06, 109.02 69.47, 111.22 72.3 M-1.15 -1.11 C15.05 8.28, 80.36 43.62, 99.01 56.1 C117.66 68.58, 108.89 70.93, 110.73 73.76" stroke="#1e1e1e" stroke-width="4" fill="none"></path></g></g><mask></mask><g stroke-linecap="round"><g transform="translate(524.082974200056 110.27231189087979) rotate(0 -3.7338095070699637 24.112925125909896)"><path d="M-0.44 0.03 C-0.61 6.64, -0.3 32.26, -1.44 40.22 C-2.58 48.17, -6.26 46.43, -7.28 47.76 M0.34 -0.44 C0.12 6.27, -0.61 31.42, -1.92 39.51 C-3.23 47.6, -6.61 46.59, -7.53 48.13" stroke="#1e1e1e" stroke-width="4" fill="none"></path></g></g><mask></mask><g stroke-linecap="round"><g transform="translate(517.0593236057439 157.5066911656122) rotate(0 -48.437744270371695 25.240394334364282)"><path d="M0.47 1.1 C-12.31 8.91, -60.87 39.05, -77.08 47.36 C-93.28 55.68, -93.42 50.54, -96.77 50.99 M-0.75 0.64 C-13.64 8.5, -61.83 40.28, -77.96 48.33 C-94.08 56.38, -94.29 48.48, -97.48 48.92" stroke="#1e1e1e" stroke-width="4" fill="none"></path></g></g><mask></mask><g stroke-linecap="round"><g transform="translate(354.67392571794517 171.19162287323343) rotate(0 33.910500936201515 18.269826920683954)"><path d="M0.16 -1.14 C11.47 5.01, 55.35 31.46, 66.82 37.56 M-1.22 0.88 C10.55 6.65, 57.34 30.09, 69.01 35.98" stroke="#1e1e1e" stroke-width="4" fill="none"></path></g></g><mask></mask><g stroke-linecap="round"><g transform="translate(316.28118629816527 84.51424686935934) rotate(0 58.85915712907854 41.05084678710955)"><path d="M0.89 1.04 C18.12 11.07, 84.33 47.65, 103.78 61.16 C123.24 74.66, 115.38 78.69, 117.62 82.07 M-0.1 0.53 C16.95 10.6, 83.45 48.31, 102.93 62.12 C122.42 75.92, 114.43 80.02, 116.81 83.37" stroke="#1e1e1e" stroke-width="4" fill="none"></path></g></g><mask></mask><g stroke-linecap="round"><g transform="translate(433.3396897821913 169.1481397708958) rotate(0 -1.624520808915804 19.84521288471751)"><path d="M0.51 -0.23 C0.37 4.82, -0.45 23.57, -0.98 30.23 C-1.52 36.88, -2.37 38.11, -2.71 39.7 M0.11 -0.83 C-0.05 4.1, -0.67 22.68, -1.15 29.54 C-1.63 36.39, -2.5 38.51, -2.78 40.31" stroke="#1e1e1e" stroke-width="4" fill="none"></path></g></g><mask></mask><g stroke-linecap="round"><g transform="translate(426.95917921106775 148.98706002622203) rotate(0 44.32664934724198 -25.031132539643295)"><path d="M0 -0.74 C14.53 -9.02, 73.51 -42.07, 88.3 -50.38 M-1.47 1.48 C12.78 -6.55, 72.26 -40.5, 87.16 -49" stroke="#1e1e1e" stroke-width="4" fill="none"></path></g></g><mask></mask><g stroke-linecap="round"><g transform="translate(433.32565125508154 159.3299448739126) rotate(0 43.753263255626734 -25.644440692726675)"><path d="M0.5 -0.43 C14.97 -9.16, 72.2 -43.45, 86.64 -51.83 M-0.7 -1.7 C14.17 -10.33, 74.42 -42.06, 88.9 -50.58" stroke="#1e1e1e" stroke-width="4" fill="none"></path></g></g><mask></mask><g stroke-linecap="round"><g transform="translate(352.15402916584935 76.73679534178336) rotate(0 21.01519021328204 -11.049265260873653)"><path d="M-0.63 -1.05 C6.47 -4.62, 34.83 -17.96, 41.77 -21.46 M1.24 1.02 C8.23 -2.91, 33.67 -19.62, 40.68 -23.25" stroke="#1e1e1e" stroke-width="4" fill="none"></path></g></g><mask></mask><g stroke-linecap="round"><g transform="translate(359.5215491488607 81.20427894113891) rotate(0 19.979339583590445 -10.934138766881006)"><path d="M-0.41 -0.16 C5.92 -3.95, 32.28 -17.84, 38.93 -21.6 M1.58 -1.28 C8.19 -4.95, 34.95 -20.16, 41.1 -23.58" stroke="#1e1e1e" stroke-width="4" fill="none"></path></g></g><mask></mask><g stroke-linecap="round"><g transform="translate(366.2679616967862 83.71749030498358) rotate(0 20.09648079122735 -10.513927063811025)"><path d="M0.31 0.85 C7.08 -2.61, 33.45 -16.9, 40.14 -20.44 M-0.99 0.26 C5.66 -3.6, 32.36 -18.47, 39.17 -22.25" stroke="#1e1e1e" stroke-width="4" fill="none"></path></g></g><mask></mask><g stroke-linecap="round"><g transform="translate(373.1945472078096 88.97474165312269) rotate(0 19.100060985727396 -11.097330572114515)"><path d="M0.66 0.81 C6.99 -3.05, 32.44 -18.9, 38.59 -22.84 M-0.45 0.19 C5.71 -3.56, 31.7 -17.97, 37.84 -21.65" stroke="#1e1e1e" stroke-width="4" fill="none"></path></g></g><mask></mask><g stroke-linecap="round"><g transform="translate(382.3108386345584 93.80084428126429) rotate(0 19.764916488530616 -11.193173378364008)"><path d="M0.5 0.56 C7.07 -2.86, 32.58 -17.89, 39.27 -21.55 M-0.69 -0.19 C5.71 -3.85, 31.33 -19.4, 38.18 -23.24" stroke="#1e1e1e" stroke-width="4" fill="none"></path></g></g><mask></mask><g stroke-linecap="round"><g transform="translate(389.67490482275116 97.65470366764384) rotate(0 18.997886222309717 -11.12927817419768)"><path d="M-0.45 0.71 C5.85 -2.95, 30.72 -17.46, 37.09 -21.29 M1.51 0.03 C8.25 -4, 33.44 -19.4, 39.33 -22.9" stroke="#1e1e1e" stroke-width="4" fill="none"></path></g></g><mask></mask><g stroke-linecap="round"><g transform="translate(396.40462402904814 103.49852450267099) rotate(0 19.193601262095854 -10.929245890886705)"><path d="M0.71 0.03 C6.86 -3.76, 31.22 -17.91, 37.36 -21.63 M-0.38 -0.99 C6.1 -4.66, 32.8 -20.27, 39.53 -23.63" stroke="#1e1e1e" stroke-width="4" fill="none"></path></g></g><mask></mask><g stroke-linecap="round"><g transform="translate(400.167223063474 150.64397941891002) rotate(0 -39.95425709559913 -21.02569486707671)"><path d="M1.09 -0.59 C-10.49 -7.51, -56.65 -34.53, -70.04 -41 C-83.42 -47.47, -77.49 -39.85, -79.2 -39.43 M0.21 1.72 C-11.41 -5.57, -57.18 -35.9, -70.48 -42.57 C-83.78 -49.24, -77.97 -38.63, -79.6 -38.32" stroke="#1e1e1e" stroke-width="4" fill="none"></path></g></g><mask></mask><g stroke-linecap="round" transform="translate(374.57505895137 155.53653493987986) rotate(334.51252222985255 7.873340925570574 10.105930946988337)"><path d="M8.9 -0.4 C10.52 -0.48, 12.08 0.96, 13.16 2.59 C14.24 4.22, 15.17 7.1, 15.4 9.38 C15.63 11.67, 15.39 14.49, 14.53 16.29 C13.67 18.08, 11.89 19.72, 10.23 20.16 C8.56 20.6, 6.1 19.87, 4.54 18.94 C2.99 18.01, 1.68 16.41, 0.88 14.58 C0.09 12.75, -0.57 10.07, -0.22 7.96 C0.13 5.85, 1.53 3.28, 2.99 1.91 C4.45 0.55, 7.56 0.02, 8.52 -0.23 C9.48 -0.47, 8.67 0.17, 8.74 0.45 M8.85 -0.49 C10.44 -0.36, 11.3 1.94, 12.56 3.51 C13.81 5.09, 16.07 6.94, 16.38 8.95 C16.7 10.96, 15.61 13.71, 14.47 15.57 C13.32 17.43, 11.07 19.52, 9.49 20.12 C7.92 20.72, 6.58 20.12, 5.02 19.2 C3.46 18.27, 0.91 16.61, 0.13 14.58 C-0.65 12.55, -0.2 9.02, 0.33 7.03 C0.85 5.05, 2.04 3.95, 3.29 2.67 C4.55 1.38, 7.02 -0.34, 7.85 -0.66 C8.67 -0.98, 8.17 0.43, 8.23 0.75" stroke="#1e1e1e" stroke-width="4" fill="none"></path></g><g stroke-linecap="round" transform="translate(378.7747724563942 160.8803324956225) rotate(327.9912791412859 3.7963811019149034 5.389418974198634)"><path d="M5 1.5 C5.59 2.76, 6.23 3.77, 6.59 4.5 M5 1.5 C5.43 2.33, 5.82 3.14, 6.59 4.5 M6.59 4.5 C7.79 6.78, 7.56 5.64, 6.59 7.5 M6.59 4.5 C6.97 5.86, 8.26 5.99, 6.59 7.5 M6.59 7.5 C5.97 8.17, 5.21 8.82, 5 9.28 M6.59 7.5 C6.21 7.97, 5.84 8.34, 5 9.28 M5 9.28 C4.76 11.67, 3.65 10.3, 3 9.28 M5 9.28 C3.87 9.96, 3.39 11.25, 3 9.28 M3 9.28 C2.38 8.79, 2.01 8.5, 1 7.5 M3 9.28 C2.52 8.89, 2.13 8.47, 1 7.5 M1 7.5 C0.55 6.59, -0.13 6.56, 1 4.5 M1 7.5 C0.8 6.94, 0.27 6.23, 1 4.5 M1 4.5 C1.66 3.4, 2.37 2.47, 3 1.5 M1 4.5 C1.47 3.79, 2.12 2.96, 3 1.5 M3 1.5 C4.68 0.95, 3.44 -0.55, 5 1.5 M3 1.5 C4.87 0.49, 4.2 0.24, 5 1.5" stroke="#1e1e1e" stroke-width="4" fill="none"></path></g><g stroke-linecap="round"><g transform="translate(317.27590068000336 119.15438050116245) rotate(0 -8.532513731154268 5.527860909180163)"><path d="M0 0 C-6.82 4.36, -13.49 7.95, -17.07 11.06 M0 0 C-5.3 3.26, -11.39 6.74, -17.07 11.06" stroke="#1e1e1e" stroke-width="4" fill="none"></path></g></g><mask></mask><g stroke-linecap="round"><g transform="translate(298.82656329201654 131.57815566974205) rotate(0 -1.6503550356046617 2.37471052291221)"><path d="M0 0 C-0.74 1.06, -1.75 2.15, -3.3 4.75 M0 0 C-0.8 1.31, -1.74 2.44, -3.3 4.75" stroke="#1e1e1e" stroke-width="4" fill="none"></path></g></g><mask></mask><g stroke-linecap="round" transform="translate(290.4395386197839 138.4337561063894) rotate(331.19721945658006 7.692411777969937 11.967505309177795)"><path d="M8.19 -0.06 C9.81 -0.03, 12.26 1.72, 13.51 3.6 C14.76 5.48, 15.66 8.63, 15.7 11.22 C15.75 13.81, 14.77 17.02, 13.77 19.12 C12.78 21.22, 11.31 23.2, 9.73 23.82 C8.14 24.43, 5.76 24, 4.26 22.81 C2.76 21.63, 1.44 18.99, 0.71 16.71 C-0.03 14.43, -0.53 11.5, -0.14 9.11 C0.26 6.73, 1.67 3.92, 3.09 2.42 C4.51 0.92, 7.48 0.51, 8.38 0.13 C9.27 -0.25, 8.53 -0.11, 8.48 0.16 M9.58 -0.07 C11.07 0.29, 12.14 2.3, 13.11 4.29 C14.08 6.28, 15.41 9.36, 15.4 11.88 C15.39 14.39, 14.08 17.34, 13.04 19.4 C12 21.46, 10.64 23.64, 9.17 24.23 C7.69 24.83, 5.57 24.22, 4.19 22.99 C2.82 21.77, 1.54 19.33, 0.92 16.88 C0.31 14.44, 0.12 10.97, 0.51 8.33 C0.91 5.7, 1.9 2.5, 3.29 1.05 C4.67 -0.39, 7.85 -0.16, 8.82 -0.35 C9.79 -0.53, 9.02 -0.3, 9.1 -0.06" stroke="#1e1e1e" stroke-width="4" fill="none"></path></g><g stroke-linecap="round"><g transform="translate(312.0569147045562 144.053826829213) rotate(0 12.323734704213166 -8.047630105425014)"><path d="M0 0 C6.31 -4.03, 13.21 -9.33, 24.65 -16.1 M0 0 C5.1 -3.08, 11.01 -6.67, 24.65 -16.1" stroke="#1e1e1e" stroke-width="4" fill="none"></path></g></g><mask></mask><g stroke-linecap="round"><g transform="translate(306.9098328128721 162.12426095840965) rotate(0 4.013811006275773 -1.2364376142868423)"><path d="M0 0 C1.84 -0.61, 3.62 -1.27, 8.03 -2.47 M0 0 C2.24 -0.85, 4.7 -1.42, 8.03 -2.47" stroke="#1e1e1e" stroke-width="4" fill="none"></path></g></g><mask></mask><g stroke-linecap="round" transform="translate(317.42228453809275 153.75633660773747) rotate(331.19721945658006 7.692411777969937 11.967505309177795)"><path d="M6.36 -0.38 C7.87 -0.88, 10.28 0.35, 11.78 1.87 C13.28 3.39, 14.92 6.34, 15.36 8.74 C15.79 11.14, 15.07 13.9, 14.4 16.27 C13.73 18.64, 12.78 21.75, 11.33 22.96 C9.88 24.16, 7.34 24.15, 5.68 23.51 C4.02 22.86, 2.38 21.09, 1.35 19.06 C0.33 17.03, -0.54 13.92, -0.45 11.35 C-0.37 8.78, 0.56 5.54, 1.86 3.62 C3.16 1.71, 6.34 0.37, 7.36 -0.15 C8.38 -0.68, 7.99 0.2, 7.96 0.48 M9.41 0.3 C10.94 0.56, 12.18 2.37, 13.11 4.31 C14.04 6.26, 15.03 9.3, 15.01 11.96 C14.98 14.63, 14.03 18.29, 12.97 20.29 C11.91 22.28, 10.15 23.49, 8.66 23.93 C7.17 24.37, 5.43 24.22, 4.01 22.92 C2.6 21.61, 0.71 18.77, 0.15 16.12 C-0.41 13.46, -0.11 9.55, 0.66 6.98 C1.42 4.42, 3.4 1.95, 4.74 0.73 C6.08 -0.49, 7.9 -0.37, 8.7 -0.34 C9.5 -0.32, 9.52 0.67, 9.54 0.87" stroke="#1e1e1e" stroke-width="4" fill="none"></path></g><g stroke-linecap="round"><g transform="translate(321.3331667629882 153.30319301284726) rotate(0 11.2776865986757 -9.94496003743643)"><path d="M0 0 C1.93 -2.42, 3.51 -5.02, 6.03 -9.85 M0 0 C2.31 -3.7, 4.93 -7.57, 6.03 -9.85 M6.03 -9.85 C11.55 -11.96, 15.68 -14.94, 22.56 -19.89 M6.03 -9.85 C10.13 -12.49, 14.13 -14.58, 22.56 -19.89" stroke="#1e1e1e" stroke-width="4" fill="none"></path></g></g><mask></mask><g stroke-linecap="round"><g transform="translate(339.41110392701285 160.9387814556594) rotate(0 11.326768951505528 -7.853176452811567)"><path d="M0 0 C4.17 -2.65, 10.68 -6.76, 22.65 -15.71 M0 0 C4.98 -2.97, 9.66 -6.68, 22.65 -15.71" stroke="#1e1e1e" stroke-width="4" fill="none"></path></g></g><mask></mask><g stroke-linecap="round"><g transform="translate(331.9136963756064 175.6491064879283) rotate(0 15.855788349271279 -5.544117484640083)"><path d="M0 0 C4.06 -0.61, 6.97 -0.48, 13.57 -2.24 M0 0 C4.9 -0.95, 10.42 -1.81, 13.57 -2.24 M13.57 -2.24 C19.95 -5.27, 26.56 -8.12, 31.71 -11.09 M13.57 -2.24 C19.16 -5.34, 25.63 -8.18, 31.71 -11.09" stroke="#1e1e1e" stroke-width="4" fill="none"></path></g></g><mask></mask><g transform="translate(295.6330511529659 152.8108195264449) rotate(0 0.00005000000010113581 0.00004999999964638846)" stroke="none"><path fill="#1e1e1e" d="M 3.14,-3.14 Q 3.14,-3.14 3.55,-2.55 3.97,-1.97 4.18,-1.28 4.40,-0.59 4.38,0.11 4.36,0.83 4.11,1.51 3.86,2.18 3.41,2.74 2.96,3.30 2.36,3.69 1.75,4.08 1.05,4.25 0.36,4.42 -0.35,4.36 -1.07,4.31 -1.73,4.02 -2.39,3.74 -2.92,3.26 -3.46,2.78 -3.81,2.15 -4.16,1.53 -4.30,0.82 -4.43,0.11 -4.34,-0.59 -4.24,-1.30 -3.92,-1.94 -3.60,-2.59 -3.09,-3.09 -2.59,-3.60 -1.94,-3.92 -1.30,-4.24 -0.59,-4.34 0.12,-4.43 0.82,-4.30 1.53,-4.16 2.15,-3.81 2.78,-3.46 3.26,-2.92 3.74,-2.39 4.02,-1.73 4.31,-1.07 4.36,-0.35 4.42,0.36 4.25,1.05 4.07,1.75 3.69,2.36 3.30,2.96 2.74,3.41 2.18,3.86 1.51,4.11 0.83,4.36 0.11,4.38 -0.60,4.40 -1.28,4.18 -1.97,3.97 -2.55,3.55 -3.14,3.13 -3.14,3.14 -3.14,3.14 -3.47,2.71 -3.80,2.29 -4.02,1.80 -4.24,1.32 -4.33,0.79 -4.43,0.26 -4.40,-0.26 -4.36,-0.80 -4.20,-1.31 -4.04,-1.82 -3.77,-2.28 -3.49,-2.73 -3.11,-3.11 -2.73,-3.49 -2.28,-3.77 -1.82,-4.05 -1.31,-4.20 -0.80,-4.36 -0.26,-4.40 0.26,-4.43 0.79,-4.33 1.32,-4.24 1.80,-4.02 2.29,-3.80 2.71,-3.47 3.14,-3.14 3.14,-3.14 L 3.14,-3.14 Z"></path></g><g transform="translate(322.09477117379447 167.96961071441729) rotate(0 0.00005000000010113581 0.00004999999964638846)" stroke="none"><path fill="#1e1e1e" d="M 3.14,-3.14 Q 3.14,-3.14 3.55,-2.55 3.97,-1.97 4.18,-1.28 4.40,-0.59 4.38,0.11 4.36,0.83 4.11,1.51 3.86,2.18 3.41,2.74 2.96,3.30 2.36,3.69 1.75,4.08 1.05,4.25 0.36,4.42 -0.35,4.36 -1.07,4.31 -1.73,4.02 -2.39,3.74 -2.92,3.26 -3.46,2.78 -3.81,2.15 -4.16,1.53 -4.30,0.82 -4.43,0.11 -4.34,-0.59 -4.24,-1.30 -3.92,-1.94 -3.60,-2.59 -3.09,-3.09 -2.59,-3.60 -1.94,-3.92 -1.30,-4.24 -0.59,-4.34 0.12,-4.43 0.82,-4.30 1.53,-4.16 2.15,-3.81 2.78,-3.46 3.26,-2.92 3.74,-2.39 4.02,-1.73 4.31,-1.07 4.36,-0.35 4.42,0.36 4.25,1.05 4.07,1.75 3.69,2.36 3.30,2.96 2.74,3.41 2.18,3.86 1.51,4.11 0.83,4.36 0.11,4.38 -0.60,4.40 -1.28,4.18 -1.97,3.97 -2.55,3.55 -3.14,3.13 -3.14,3.14 -3.14,3.14 -3.47,2.71 -3.80,2.29 -4.02,1.80 -4.24,1.32 -4.33,0.79 -4.43,0.26 -4.40,-0.26 -4.36,-0.80 -4.20,-1.31 -4.04,-1.82 -3.77,-2.28 -3.49,-2.73 -3.11,-3.11 -2.73,-3.49 -2.28,-3.77 -1.82,-4.05 -1.31,-4.20 -0.80,-4.36 -0.26,-4.40 0.26,-4.43 0.79,-4.33 1.32,-4.24 1.80,-4.02 2.29,-3.80 2.71,-3.47 3.14,-3.14 3.14,-3.14 L 3.14,-3.14 Z"></path></g><g stroke-linecap="round"><g transform="translate(335.98335979318017 73.96741497422408) rotate(0 55.98155756876213 31.3179697584701)"><path d="M0 0 C43.5 25.38, 86.17 46.34, 111.96 62.64 M0 0 C28.57 15.49, 56.54 32.84, 111.96 62.64" stroke="#1e1e1e" stroke-width="2" fill="none"></path></g></g><mask></mask><g stroke-linecap="round"><g transform="translate(390.78882610473283 44.57999103360635) rotate(0 53.660383383437875 31.629950403462317)"><path d="M0 0 C38.43 20.72, 74.63 45.27, 107.32 63.26 M0 0 C29.09 17.86, 55.88 33.71, 107.32 63.26" stroke="#1e1e1e" stroke-width="2" fill="none"></path></g></g><mask></mask><g stroke-linecap="round"><g transform="translate(314.09649778395305 84.8983364284195) rotate(0 -2.0421935088138525 17.85603264071051)"><path d="M-0.51 0.47 C-1.2 1.64, -3.72 0.94, -4.24 6.88 C-4.75 12.82, -3.59 31.41, -3.61 36.13 M0.22 0.24 C-0.27 1.28, -2.5 0.3, -3.16 6.14 C-3.82 11.98, -3.51 30.39, -3.72 35.28" stroke="#1e1e1e" stroke-width="4" fill="none"></path></g></g><mask></mask><g stroke-linecap="round" transform="translate(368.2374892005082 146.66440667985626) rotate(346.52758201932915 14.438578882340153 18.19749743196553)"><path d="M15.29 0.02 C18.26 -0.17, 22.31 1.92, 24.5 4.43 C26.69 6.95, 28.07 11.17, 28.43 15.11 C28.79 19.04, 28.17 24.58, 26.66 28.04 C25.16 31.49, 22.32 34.62, 19.39 35.84 C16.45 37.07, 12 36.96, 9.06 35.38 C6.12 33.81, 3.25 29.9, 1.75 26.39 C0.26 22.89, -0.56 18.14, 0.08 14.34 C0.72 10.54, 3.06 6.04, 5.61 3.58 C8.17 1.13, 13.55 0.14, 15.39 -0.39 C17.22 -0.91, 16.57 0.08, 16.62 0.43 M15.18 -0.45 C18.21 -0.64, 22.31 2.15, 24.61 4.73 C26.91 7.31, 28.72 11.24, 29 15.04 C29.27 18.83, 27.84 23.99, 26.27 27.51 C24.71 31.03, 22.42 34.96, 19.61 36.16 C16.8 37.36, 12.35 36.17, 9.41 34.72 C6.48 33.26, 3.59 30.87, 2 27.44 C0.41 24.01, -0.8 18.13, -0.13 14.13 C0.54 10.13, 3.58 5.84, 6 3.44 C8.42 1.05, 12.82 0.37, 14.4 -0.23 C15.98 -0.83, 15.37 -0.56, 15.46 -0.16" stroke="#1e1e1e" stroke-width="4" fill="none"></path></g><g stroke-linecap="round"><g transform="translate(372.996767416118 148.49375003601563) rotate(0 -28.682017698688014 -18.00361640960182)"><path d="M-0.2 0.17 C-1.53 -1.39, -3.66 -5.98, -6.88 -9.14 C-10.1 -12.29, -16.09 -17.23, -19.51 -18.76 C-22.93 -20.3, -25.15 -16.32, -27.4 -18.36 C-29.66 -20.4, -29 -28.25, -33.05 -31.01 C-37.11 -33.78, -47.8 -35.12, -51.72 -34.93 C-55.63 -34.74, -55.71 -30.56, -56.55 -29.88 M-1.77 -0.79 C-3.32 -2.69, -4.51 -7.99, -7.65 -10.74 C-10.8 -13.5, -17.45 -16.17, -20.62 -17.32 C-23.79 -18.48, -24.36 -15.49, -26.66 -17.65 C-28.96 -19.81, -30.48 -27.31, -34.44 -30.27 C-38.41 -33.23, -46.33 -35.28, -50.45 -35.4 C-54.56 -35.53, -57.97 -31.67, -59.13 -31.02" stroke="#1e1e1e" stroke-width="4" fill="none"></path></g></g><mask></mask><g transform="translate(382.8860324731777 166.17209984227702) rotate(0 0.00005000000010113581 0.00004999999964638846)" stroke="none"><path fill="#1e1e1e" d="M 3.14,-3.14 Q 3.14,-3.14 3.55,-2.55 3.97,-1.97 4.18,-1.28 4.40,-0.59 4.38,0.11 4.36,0.83 4.11,1.51 3.86,2.18 3.41,2.74 2.96,3.30 2.36,3.69 1.75,4.08 1.05,4.25 0.36,4.42 -0.35,4.36 -1.07,4.31 -1.73,4.02 -2.39,3.74 -2.92,3.26 -3.46,2.78 -3.81,2.15 -4.16,1.53 -4.30,0.82 -4.43,0.11 -4.34,-0.59 -4.24,-1.30 -3.92,-1.94 -3.60,-2.59 -3.09,-3.09 -2.59,-3.60 -1.94,-3.92 -1.30,-4.24 -0.59,-4.34 0.12,-4.43 0.82,-4.30 1.53,-4.16 2.15,-3.81 2.78,-3.46 3.26,-2.92 3.74,-2.39 4.02,-1.73 4.31,-1.07 4.36,-0.35 4.42,0.36 4.25,1.05 4.07,1.75 3.69,2.36 3.30,2.96 2.74,3.41 2.18,3.86 1.51,4.11 0.83,4.36 0.11,4.38 -0.60,4.40 -1.28,4.18 -1.97,3.97 -2.55,3.55 -3.14,3.13 -3.14,3.14 -3.14,3.14 -3.47,2.71 -3.80,2.29 -4.02,1.80 -4.24,1.32 -4.33,0.79 -4.43,0.26 -4.40,-0.26 -4.36,-0.80 -4.20,-1.31 -4.04,-1.82 -3.77,-2.28 -3.49,-2.73 -3.11,-3.11 -2.73,-3.49 -2.28,-3.77 -1.82,-4.05 -1.31,-4.20 -0.80,-4.36 -0.26,-4.40 0.26,-4.43 0.79,-4.33 1.32,-4.24 1.80,-4.02 2.29,-3.80 2.71,-3.47 3.14,-3.14 3.14,-3.14 L 3.14,-3.14 Z"></path></g><g transform="translate(420.05072020141415 156.0582591440325) rotate(0 0.00005000000010113581 0.00004999999964638846)" stroke="none"><path fill="#1e1e1e" d="M 3.14,-3.14 Q 3.14,-3.14 3.55,-2.55 3.97,-1.97 4.18,-1.28 4.40,-0.59 4.38,0.11 4.36,0.83 4.11,1.51 3.86,2.18 3.41,2.74 2.96,3.30 2.36,3.69 1.75,4.08 1.05,4.25 0.36,4.42 -0.35,4.36 -1.07,4.31 -1.73,4.02 -2.39,3.74 -2.92,3.26 -3.46,2.78 -3.81,2.15 -4.16,1.53 -4.30,0.82 -4.43,0.11 -4.34,-0.59 -4.24,-1.30 -3.92,-1.94 -3.60,-2.59 -3.09,-3.09 -2.59,-3.60 -1.94,-3.92 -1.30,-4.24 -0.59,-4.34 0.12,-4.43 0.82,-4.30 1.53,-4.16 2.15,-3.81 2.78,-3.46 3.26,-2.92 3.74,-2.39 4.02,-1.73 4.31,-1.07 4.36,-0.35 4.42,0.36 4.25,1.05 4.07,1.75 3.69,2.36 3.30,2.96 2.74,3.41 2.18,3.86 1.51,4.11 0.83,4.36 0.11,4.38 -0.60,4.40 -1.28,4.18 -1.97,3.97 -2.55,3.55 -3.14,3.13 -3.14,3.14 -3.14,3.14 -3.47,2.71 -3.80,2.29 -4.02,1.80 -4.24,1.32 -4.33,0.79 -4.43,0.26 -4.40,-0.26 -4.36,-0.80 -4.20,-1.31 -4.04,-1.82 -3.77,-2.28 -3.49,-2.73 -3.11,-3.11 -2.73,-3.49 -2.28,-3.77 -1.82,-4.05 -1.31,-4.20 -0.80,-4.36 -0.26,-4.40 0.26,-4.43 0.79,-4.33 1.32,-4.24 1.80,-4.02 2.29,-3.80 2.71,-3.47 3.14,-3.14 3.14,-3.14 L 3.14,-3.14 Z"></path></g><g transform="translate(418.3083547066926 201.41773148023822) rotate(0 0.00005000000010113581 0.00004999999964638846)" stroke="none"><path fill="#1e1e1e" d="M 3.14,-3.14 Q 3.14,-3.14 3.55,-2.55 3.97,-1.97 4.18,-1.28 4.40,-0.59 4.38,0.11 4.36,0.83 4.11,1.51 3.86,2.18 3.41,2.74 2.96,3.30 2.36,3.69 1.75,4.08 1.05,4.25 0.36,4.42 -0.35,4.36 -1.07,4.31 -1.73,4.02 -2.39,3.74 -2.92,3.26 -3.46,2.78 -3.81,2.15 -4.16,1.53 -4.30,0.82 -4.43,0.11 -4.34,-0.59 -4.24,-1.30 -3.92,-1.94 -3.60,-2.59 -3.09,-3.09 -2.59,-3.60 -1.94,-3.92 -1.30,-4.24 -0.59,-4.34 0.12,-4.43 0.82,-4.30 1.53,-4.16 2.15,-3.81 2.78,-3.46 3.26,-2.92 3.74,-2.39 4.02,-1.73 4.31,-1.07 4.36,-0.35 4.42,0.36 4.25,1.05 4.07,1.75 3.69,2.36 3.30,2.96 2.74,3.41 2.18,3.86 1.51,4.11 0.83,4.36 0.11,4.38 -0.60,4.40 -1.28,4.18 -1.97,3.97 -2.55,3.55 -3.14,3.13 -3.14,3.14 -3.14,3.14 -3.47,2.71 -3.80,2.29 -4.02,1.80 -4.24,1.32 -4.33,0.79 -4.43,0.26 -4.40,-0.26 -4.36,-0.80 -4.20,-1.31 -4.04,-1.82 -3.77,-2.28 -3.49,-2.73 -3.11,-3.11 -2.73,-3.49 -2.28,-3.77 -1.82,-4.05 -1.31,-4.20 -0.80,-4.36 -0.26,-4.40 0.26,-4.43 0.79,-4.33 1.32,-4.24 1.80,-4.02 2.29,-3.80 2.71,-3.47 3.14,-3.14 3.14,-3.14 L 3.14,-3.14 Z"></path></g><g transform="translate(319.31508802072403 94.66639922361719) rotate(0 0.00005000000010113581 0.00004999999964638846)" stroke="none"><path fill="#1e1e1e" d="M 3.14,-3.14 Q 3.14,-3.14 3.55,-2.55 3.97,-1.97 4.18,-1.28 4.40,-0.59 4.38,0.11 4.36,0.83 4.11,1.51 3.86,2.18 3.41,2.74 2.96,3.30 2.36,3.69 1.75,4.08 1.05,4.25 0.36,4.42 -0.35,4.36 -1.07,4.31 -1.73,4.02 -2.39,3.74 -2.92,3.26 -3.46,2.78 -3.81,2.15 -4.16,1.53 -4.30,0.82 -4.43,0.11 -4.34,-0.59 -4.24,-1.30 -3.92,-1.94 -3.60,-2.59 -3.09,-3.09 -2.59,-3.60 -1.94,-3.92 -1.30,-4.24 -0.59,-4.34 0.12,-4.43 0.82,-4.30 1.53,-4.16 2.15,-3.81 2.78,-3.46 3.26,-2.92 3.74,-2.39 4.02,-1.73 4.31,-1.07 4.36,-0.35 4.42,0.36 4.25,1.05 4.07,1.75 3.69,2.36 3.30,2.96 2.74,3.41 2.18,3.86 1.51,4.11 0.83,4.36 0.11,4.38 -0.60,4.40 -1.28,4.18 -1.97,3.97 -2.55,3.55 -3.14,3.13 -3.14,3.14 -3.14,3.14 -3.47,2.71 -3.80,2.29 -4.02,1.80 -4.24,1.32 -4.33,0.79 -4.43,0.26 -4.40,-0.26 -4.36,-0.80 -4.20,-1.31 -4.04,-1.82 -3.77,-2.28 -3.49,-2.73 -3.11,-3.11 -2.73,-3.49 -2.28,-3.77 -1.82,-4.05 -1.31,-4.20 -0.80,-4.36 -0.26,-4.40 0.26,-4.43 0.79,-4.33 1.32,-4.24 1.80,-4.02 2.29,-3.80 2.71,-3.47 3.14,-3.14 3.14,-3.14 L 3.14,-3.14 Z"></path></g><g transform="translate(28.462644682364953 78.17951902614004) rotate(0 0.00005000000010113581 0.00004999999964638846)" stroke="none"><path fill="#1e1e1e" d="M 3.14,-3.14 Q 3.14,-3.14 3.55,-2.55 3.97,-1.97 4.18,-1.28 4.40,-0.59 4.38,0.11 4.36,0.83 4.11,1.51 3.86,2.18 3.41,2.74 2.96,3.30 2.36,3.69 1.75,4.08 1.05,4.25 0.36,4.42 -0.35,4.36 -1.07,4.31 -1.73,4.02 -2.39,3.74 -2.92,3.26 -3.46,2.78 -3.81,2.15 -4.16,1.53 -4.30,0.82 -4.43,0.11 -4.34,-0.59 -4.24,-1.30 -3.92,-1.94 -3.60,-2.59 -3.09,-3.09 -2.59,-3.60 -1.94,-3.92 -1.30,-4.24 -0.59,-4.34 0.12,-4.43 0.82,-4.30 1.53,-4.16 2.15,-3.81 2.78,-3.46 3.26,-2.92 3.74,-2.39 4.02,-1.73 4.31,-1.07 4.36,-0.35 4.42,0.36 4.25,1.05 4.07,1.75 3.69,2.36 3.30,2.96 2.74,3.41 2.18,3.86 1.51,4.11 0.83,4.36 0.11,4.38 -0.60,4.40 -1.28,4.18 -1.97,3.97 -2.55,3.55 -3.14,3.13 -3.14,3.14 -3.14,3.14 -3.47,2.71 -3.80,2.29 -4.02,1.80 -4.24,1.32 -4.33,0.79 -4.43,0.26 -4.40,-0.26 -4.36,-0.80 -4.20,-1.31 -4.04,-1.82 -3.77,-2.28 -3.49,-2.73 -3.11,-3.11 -2.73,-3.49 -2.28,-3.77 -1.82,-4.05 -1.31,-4.20 -0.80,-4.36 -0.26,-4.40 0.26,-4.43 0.79,-4.33 1.32,-4.24 1.80,-4.02 2.29,-3.80 2.71,-3.47 3.14,-3.14 3.14,-3.14 L 3.14,-3.14 Z"></path></g><g transform="translate(112.61681759616658 128.99964867168273) rotate(0 0.00005000000010113581 0.00004999999964638846)" stroke="none"><path fill="#1e1e1e" d="M 3.14,-3.14 Q 3.14,-3.14 3.55,-2.55 3.97,-1.97 4.18,-1.28 4.40,-0.59 4.38,0.11 4.36,0.83 4.11,1.51 3.86,2.18 3.41,2.74 2.96,3.30 2.36,3.69 1.75,4.08 1.05,4.25 0.36,4.42 -0.35,4.36 -1.07,4.31 -1.73,4.02 -2.39,3.74 -2.92,3.26 -3.46,2.78 -3.81,2.15 -4.16,1.53 -4.30,0.82 -4.43,0.11 -4.34,-0.59 -4.24,-1.30 -3.92,-1.94 -3.60,-2.59 -3.09,-3.09 -2.59,-3.60 -1.94,-3.92 -1.30,-4.24 -0.59,-4.34 0.12,-4.43 0.82,-4.30 1.53,-4.16 2.15,-3.81 2.78,-3.46 3.26,-2.92 3.74,-2.39 4.02,-1.73 4.31,-1.07 4.36,-0.35 4.42,0.36 4.25,1.05 4.07,1.75 3.69,2.36 3.30,2.96 2.74,3.41 2.18,3.86 1.51,4.11 0.83,4.36 0.11,4.38 -0.60,4.40 -1.28,4.18 -1.97,3.97 -2.55,3.55 -3.14,3.13 -3.14,3.14 -3.14,3.14 -3.47,2.71 -3.80,2.29 -4.02,1.80 -4.24,1.32 -4.33,0.79 -4.43,0.26 -4.40,-0.26 -4.36,-0.80 -4.20,-1.31 -4.04,-1.82 -3.77,-2.28 -3.49,-2.73 -3.11,-3.11 -2.73,-3.49 -2.28,-3.77 -1.82,-4.05 -1.31,-4.20 -0.80,-4.36 -0.26,-4.40 0.26,-4.43 0.79,-4.33 1.32,-4.24 1.80,-4.02 2.29,-3.80 2.71,-3.47 3.14,-3.14 3.14,-3.14 L 3.14,-3.14 Z"></path></g><g transform="translate(112.78353253428031 190.08055272232014) rotate(0 0.00005000000010113581 0.00004999999964638846)" stroke="none"><path fill="#1e1e1e" d="M 3.14,-3.14 Q 3.14,-3.14 3.55,-2.55 3.97,-1.97 4.18,-1.28 4.40,-0.59 4.38,0.11 4.36,0.83 4.11,1.51 3.86,2.18 3.41,2.74 2.96,3.30 2.36,3.69 1.75,4.08 1.05,4.25 0.36,4.42 -0.35,4.36 -1.07,4.31 -1.73,4.02 -2.39,3.74 -2.92,3.26 -3.46,2.78 -3.81,2.15 -4.16,1.53 -4.30,0.82 -4.43,0.11 -4.34,-0.59 -4.24,-1.30 -3.92,-1.94 -3.60,-2.59 -3.09,-3.09 -2.59,-3.60 -1.94,-3.92 -1.30,-4.24 -0.59,-4.34 0.12,-4.43 0.82,-4.30 1.53,-4.16 2.15,-3.81 2.78,-3.46 3.26,-2.92 3.74,-2.39 4.02,-1.73 4.31,-1.07 4.36,-0.35 4.42,0.36 4.25,1.05 4.07,1.75 3.69,2.36 3.30,2.96 2.74,3.41 2.18,3.86 1.51,4.11 0.83,4.36 0.11,4.38 -0.60,4.40 -1.28,4.18 -1.97,3.97 -2.55,3.55 -3.14,3.13 -3.14,3.14 -3.14,3.14 -3.47,2.71 -3.80,2.29 -4.02,1.80 -4.24,1.32 -4.33,0.79 -4.43,0.26 -4.40,-0.26 -4.36,-0.80 -4.20,-1.31 -4.04,-1.82 -3.77,-2.28 -3.49,-2.73 -3.11,-3.11 -2.73,-3.49 -2.28,-3.77 -1.82,-4.05 -1.31,-4.20 -0.80,-4.36 -0.26,-4.40 0.26,-4.43 0.79,-4.33 1.32,-4.24 1.80,-4.02 2.29,-3.80 2.71,-3.47 3.14,-3.14 3.14,-3.14 L 3.14,-3.14 Z"></path></g><g stroke-linecap="round"><g transform="translate(47.76539329463321 59.33682091486662) rotate(0 51.13896106286984 66.12835529532003)"><path d="M0 0 C27.85 19.64, 59.26 37.29, 94.9 57.76 M0 0 C35.99 22.43, 71.22 43.2, 94.9 57.76 M94.9 57.76 C98.33 60.97, 100.21 64.67, 102.28 67.84 M94.9 57.76 C96.95 60.34, 99.11 63.91, 102.28 67.84 M102.28 67.84 C101.91 86.71, 102.62 109.3, 101.66 132.26 M102.28 67.84 C102.5 88.08, 101.84 107.39, 101.66 132.26" stroke="#1e1e1e" stroke-width="2" fill="none"></path></g></g><mask></mask><g stroke-linecap="round"><g transform="translate(514.141685597514 124.75935511315402) rotate(0 -11.809089358020174 14.918190788849643)"><path d="M0 0 C-0.63 8.36, -0.36 15.25, 0.63 19.55 M0 0 C-0.24 4.65, 0.66 8.93, 0.63 19.55 M0.63 19.55 C-4.83 23.94, -11.75 27.44, -14.96 29.84 M0.63 19.55 C-3.55 22.4, -6.62 24.09, -14.96 29.84 M-14.96 29.84 C-17.95 28.97, -20.32 27.92, -24.24 25.7 M-14.96 29.84 C-17.81 28.36, -20.62 27.39, -24.24 25.7 M-24.24 25.7 C-22.59 22.73, -20.52 17.59, -17.61 11.38 M-24.24 25.7 C-21.85 19.71, -18.99 14.48, -17.61 11.38 M-17.61 11.38 C-13.1 8.72, -9.42 7.99, -0.04 1.01 M-17.61 11.38 C-11.48 7.59, -5.87 4.99, -0.04 1.01" stroke="#1e1e1e" stroke-width="4" fill="none"></path></g></g><mask></mask><g stroke-linecap="round"><g transform="translate(512.2776757529764 144.59637616386863) rotate(0 -7.82525366754453 -1.6410723620429053)"><path d="M0 0 C-5.33 -1.14, -10.17 -2.65, -15.65 -3.28 M0 0 C-3.91 -0.75, -8.73 -1.56, -15.65 -3.28" stroke="#1e1e1e" stroke-width="4" fill="none"></path></g></g><mask></mask></svg>