<svg version="1.1" xmlns="http://www.w3.org/2000/svg" viewBox="0 0 361.05868794261823 109.77063880088463" width="361.05868794261823" height="109.77063880088463" filter="invert(93%) hue-rotate(180deg)">
  <!-- svg-source:excalidraw -->
  
  <defs>
    <style class="style-fonts">
      
    </style>
    
  </defs>
  <g stroke-linecap="round" transform="translate(155.4484419808241 10) rotate(0 97.80512298089707 44.88531940044231)"><path d="M22.44 0 C60.77 -1.8, 103.21 -0.83, 173.17 0 M22.44 0 C55.68 -0.56, 88.85 -0.98, 173.17 0 M173.17 0 C188.75 -0.75, 194.17 6.5, 195.61 22.44 M173.17 0 C187.86 -1.74, 197.79 5.66, 195.61 22.44 M195.61 22.44 C194.42 38.95, 196.1 55.01, 195.61 67.33 M195.61 22.44 C195.86 34.72, 196.35 46.44, 195.61 67.33 M195.61 67.33 C197.52 82.63, 188.92 89.1, 173.17 89.77 M195.61 67.33 C194.52 82.2, 189.81 91.73, 173.17 89.77 M173.17 89.77 C136.03 91.98, 97.18 89.67, 22.44 89.77 M173.17 89.77 C139.98 89.27, 109.27 88.4, 22.44 89.77 M22.44 89.77 C8.13 88.48, -1.97 80.94, 0 67.33 M22.44 89.77 C6.73 87.82, 1.96 84.45, 0 67.33 M0 67.33 C-1.88 59.42, -0.58 48.13, 0 22.44 M0 67.33 C0.03 53.18, 0.85 40.38, 0 22.44 M0 22.44 C-0.69 6.66, 8.62 1.64, 22.44 0 M0 22.44 C-1.15 7.52, 9.21 -1.12, 22.44 0" stroke="#1e1e1e" stroke-width="4" fill="none"></path></g><g stroke-linecap="round"><g transform="translate(199.3170854062837 42.213687392646534) rotate(0 8.888373988121202 11.178399873743729)"><path d="M-3.28 -3.06 C-1.64 -3.89, 2.75 -6.84, 6.5 -7.19 C10.24 -7.53, 16.06 -6.66, 19.21 -5.14 C22.35 -3.62, 24.21 -0.93, 25.38 1.95 C26.56 4.83, 26.61 8.86, 26.25 12.15 C25.9 15.43, 24.88 18.91, 23.25 21.66 C21.62 24.4, 20.21 27.2, 16.45 28.61 C12.69 30.02, 4.87 31.17, 0.7 30.12 C-3.48 29.08, -7.46 26.3, -8.59 22.33 C-9.73 18.37, -6.54 8.88, -6.12 6.32 M-4 -2.1 C-2.37 -3.12, 2.49 -7.63, 6.34 -8.05 C10.19 -8.47, 16.16 -6.34, 19.13 -4.62 C22.09 -2.9, 22.79 -0.55, 24.11 2.27 C25.43 5.08, 27.11 8.87, 27.03 12.27 C26.95 15.68, 25.32 20.06, 23.62 22.71 C21.92 25.36, 20.73 26.95, 16.82 28.19 C12.92 29.44, 4.51 31.24, 0.17 30.16 C-4.17 29.08, -8.22 25.74, -9.2 21.71 C-10.18 17.68, -6.27 8.61, -5.71 6" stroke="#e03131" stroke-width="4" fill="none"></path></g><g transform="translate(199.3170854062837 42.213687392646534) rotate(0 8.888373988121202 11.178399873743729)"><path d="M-5.35 13.99 C-5.78 12.23, -5.42 10.08, -5.71 6 M-5.35 13.99 C-5.64 11.77, -5.78 9.53, -5.71 6" stroke="#e03131" stroke-width="4" fill="none"></path></g><g transform="translate(199.3170854062837 42.213687392646534) rotate(0 8.888373988121202 11.178399873743729)"><path d="M-10.57 12.36 C-9.6 11.04, -7.84 9.33, -5.71 6 M-10.57 12.36 C-9.43 10.6, -8.14 8.8, -5.71 6" stroke="#e03131" stroke-width="4" fill="none"></path></g></g><mask></mask><g stroke-linecap="round"><g transform="translate(202.73058825845965 54.54243386763119) rotate(0 5.649133053721016 0.23112625252997532)"><path d="M-0.33 0.28 C1.52 0.37, 8.92 0.27, 10.79 0.39 M0.5 -0.05 C2.54 0.14, 9.84 1.01, 11.76 1.06" stroke="#e03131" stroke-width="4" fill="none"></path></g></g><mask></mask><g stroke-linecap="round"><g transform="translate(208.40227613010848 47.71390210870777) rotate(0 -0.10064784344194777 6.808402190234119)"><path d="M0.17 0.35 C0.25 2.61, 0.4 10.94, 0.25 13.25 M-0.4 0.05 C-0.34 2.41, -0.08 11.53, 0.05 13.75" stroke="#e03131" stroke-width="4" fill="none"></path></g></g><mask></mask><g stroke-linecap="round"><g transform="translate(246.62538653807314 53.768786097572956) rotate(0 10.59986559753088 5.465993358333435)"><path d="M0.08 -0.08 C1.78 1.91, 6.61 11.98, 10.18 11.84 C13.75 11.7, 19.59 1.2, 21.5 -0.93 M-0.55 -0.6 C1.32 1.25, 7.5 11.12, 11.15 11.12 C14.79 11.12, 19.5 1.38, 21.31 -0.6" stroke="#e03131" stroke-width="4" fill="none"></path></g></g><mask></mask><g stroke-linecap="round"><g transform="translate(288.3781392901192 40.24059298200882) rotate(0 -5.014555999243839 4.546749034062486)"><path d="M-0.14 -0.41 C-1.94 -0.35, -8.73 -1.21, -10.32 0.38 C-11.92 1.98, -11.19 7.78, -9.72 9.17 C-8.24 10.57, -2.8 8.7, -1.47 8.75 M0.79 0.57 C-0.87 0.67, -7.46 -0.73, -9.24 0.81 C-11.02 2.35, -11.22 8.43, -9.91 9.81 C-8.6 11.19, -2.86 9.08, -1.36 9.08" stroke="#e03131" stroke-width="4" fill="none"></path></g></g><mask></mask><g stroke-linecap="round"><g transform="translate(277.78759549023016 50.560116781174656) rotate(0 5.18079844332442 4.024012946219955)"><path d="M0.28 0.46 C0.36 1.79, -1 6.55, 0.65 7.8 C2.3 9.05, 8.61 8.02, 10.17 7.97 M-0.24 0.23 C-0.24 1.66, -1.4 7.13, 0.25 8.51 C1.91 9.9, 8.11 8.66, 9.72 8.53" stroke="#e03131" stroke-width="4" fill="none"></path></g></g><mask></mask><g stroke-linecap="round"><g transform="translate(296.39253852954516 52.899083857106234) rotate(0 8.757677020634674 5.2748866221609205)"><path d="M-0.24 -0.29 C2.73 1.46, 14.54 8.59, 17.47 10.32 M0.64 0.75 C3.57 2.58, 14.31 9.28, 17.02 10.9" stroke="#e03131" stroke-width="4" fill="none"></path></g></g><mask></mask><g stroke-linecap="round"><g transform="translate(313.40547347288884 52.96217966056611) rotate(0 -8.303014610026366 5.5873170046816085)"><path d="M-0.02 -0.23 C-2.64 1.67, -13.46 9.82, -16.18 11.72 M-0.7 -0.83 C-3.32 0.92, -13.76 8.94, -16.39 11.04" stroke="#e03131" stroke-width="4" fill="none"></path></g></g><mask></mask><g stroke-linecap="round" transform="translate(148.10491726875625 46.9473062336383) rotate(0 2.828335874228742 12.761396226635952)"><path d="M1.41 0 C2 -0.08, 2.64 0.15, 4.24 0 M1.41 0 C1.96 0.05, 2.57 0.05, 4.24 0 M4.24 0 C4.74 -0.32, 5.76 0.74, 5.66 1.41 M4.24 0 C4.66 -0.91, 5.94 1.49, 5.66 1.41 M5.66 1.41 C6.01 8.19, 6.73 14.78, 5.66 24.11 M5.66 1.41 C5.38 8.56, 5.47 15.72, 5.66 24.11 M5.66 24.11 C5.36 25.71, 4.74 25.57, 4.24 25.52 M5.66 24.11 C5.57 24.46, 4.14 25.77, 4.24 25.52 M4.24 25.52 C3.56 25.51, 3.12 25.45, 1.41 25.52 M4.24 25.52 C3.19 25.47, 2.29 25.48, 1.41 25.52 M1.41 25.52 C1.08 25.52, -0.47 25.6, 0 24.11 M1.41 25.52 C0.68 25.73, -0.36 25.71, 0 24.11 M0 24.11 C-0.51 15.47, 0.36 6.65, 0 1.41 M0 24.11 C-0.48 16.04, 0.2 8.33, 0 1.41 M0 1.41 C0.99 0.07, -0.37 0.91, 1.41 0 M0 1.41 C0.96 0.69, 0.32 0.17, 1.41 0" stroke="#1e1e1e" stroke-width="4" fill="none"></path></g><g stroke-linecap="round"><g transform="translate(146.29992761626818 61.152475464257805) rotate(0 -67.84419609989027 -22.201099837303445)"><path d="M0.46 0.02 C-5.76 0.15, -24.88 7.87, -37.49 0.96 C-50.09 -5.95, -58.69 -34.01, -75.15 -41.46 C-91.61 -48.9, -126.21 -43.43, -136.25 -43.73 M-0.76 -1.02 C-7.13 -1.21, -25.91 5.92, -38.47 -0.59 C-51.03 -7.09, -59.8 -32.5, -76.11 -40.05 C-92.41 -47.61, -126.2 -44.95, -136.3 -45.93" stroke="#1e1e1e" stroke-width="4" fill="none"></path></g></g><mask></mask></svg>