<svg version="1.1" xmlns="http://www.w3.org/2000/svg" viewBox="0 0 91.466953193888 81.27402487422842" width="91.466953193888" height="81.27402487422842" filter="invert(93%) hue-rotate(180deg)"><!-- svg-source:excalidraw --><metadata></metadata><defs><style class="style-fonts">
      </style></defs><g stroke-linecap="round"><g transform="translate(19.682675591850057 58.26724283358271) rotate(0 1.7470547866323614 -10.054008812057873)"><path d="M-0.4 0.47 C0.19 -3.07, 2.4 -17.23, 3.16 -20.48 M1.59 -0.33 C2.02 -3.77, 1.67 -15.72, 2.03 -19.14" stroke="#1e1e1e" stroke-width="1" fill="none"></path></g></g><mask></mask><g stroke-linecap="round"><g transform="translate(34.34733019806936 45.079336038896145) rotate(0 18.668229057373537 0.24734269996133662)"><path d="M0.59 -0.61 C0.89 -1.26, 0.42 -3.94, 1.13 -4.12 C1.85 -4.3, 4.46 -1.42, 4.87 -1.7 C5.28 -1.98, 3.35 -5.44, 3.58 -5.78 C3.81 -6.12, 5.34 -3.42, 6.26 -3.71 C7.18 -4, 8.08 -7.36, 9.1 -7.52 C10.12 -7.69, 11.47 -4.64, 12.39 -4.7 C13.3 -4.77, 13.73 -7.96, 14.6 -7.91 C15.46 -7.86, 16.78 -4.68, 17.58 -4.41 C18.38 -4.14, 18.78 -6.08, 19.4 -6.28 C20.03 -6.48, 20.61 -5.59, 21.33 -5.62 C22.05 -5.65, 23.36 -6.82, 23.73 -6.47 C24.1 -6.11, 22.81 -3.77, 23.56 -3.47 C24.3 -3.17, 27.33 -5.36, 28.19 -4.65 C29.06 -3.94, 28.16 -0.18, 28.75 0.78 C29.33 1.74, 31.15 0.95, 31.73 1.11 C32.31 1.26, 31.88 1.11, 32.23 1.69 C32.57 2.27, 33.61 3.77, 33.8 4.58 C33.99 5.38, 32.75 6.09, 33.36 6.51 C33.98 6.93, 36.78 6.65, 37.52 7.09 M-0.55 1.68 C-0.3 1.22, -0.26 -2.48, 0.59 -2.8 C1.44 -3.12, 4.11 0.11, 4.57 -0.25 C5.03 -0.6, 2.82 -4.43, 3.37 -4.92 C3.91 -5.4, 6.67 -2.54, 7.83 -3.18 C8.98 -3.83, 9.38 -8.33, 10.3 -8.8 C11.21 -9.27, 12.69 -6.08, 13.31 -6 C13.94 -5.92, 13.54 -8.44, 14.07 -8.33 C14.59 -8.22, 15.41 -5.73, 16.46 -5.36 C17.51 -5, 19.42 -6.19, 20.37 -6.15 C21.32 -6.11, 21.75 -4.97, 22.14 -5.13 C22.52 -5.3, 22.48 -7.79, 22.68 -7.12 C22.89 -6.45, 22.51 -1.43, 23.38 -1.14 C24.25 -0.85, 26.89 -5.65, 27.89 -5.37 C28.89 -5.09, 28.55 -0.27, 29.39 0.51 C30.22 1.29, 32.54 -0.9, 32.88 -0.68 C33.23 -0.45, 30.94 1.46, 31.45 1.88 C31.96 2.31, 35.33 1.09, 35.96 1.86 C36.6 2.64, 34.91 5.45, 35.26 6.53 C35.62 7.62, 37.82 8.04, 38.09 8.37" stroke="#f17634" stroke-width="1" fill="none"></path></g></g><mask></mask><g stroke-linecap="round"><g transform="translate(34.60766836144012 45.15870306307261) rotate(0 -8.93345037698873 12.044373271803124)"><path d="M0.77 -0.42 C0.28 -0.37, -1.65 -0.78, -2.33 -0.32 C-3.01 0.15, -2.49 1.74, -3.33 2.35 C-4.16 2.97, -7.02 2.76, -7.36 3.38 C-7.69 4, -5.29 5.35, -5.32 6.07 C-5.35 6.79, -7.44 6.93, -7.55 7.7 C-7.65 8.47, -5.61 10.21, -5.94 10.7 C-6.27 11.19, -9.08 11.22, -9.54 10.63 C-10 10.04, -8.84 8.64, -8.71 7.16 C-8.58 5.68, -8.32 3.19, -8.77 1.74 C-9.23 0.29, -10.68 -2.06, -11.45 -1.54 C-12.21 -1.01, -12.87 4.31, -13.35 4.89 C-13.83 5.46, -14.19 2.74, -14.33 1.93 C-14.47 1.12, -13.65 -0.31, -14.2 0.01 C-14.75 0.32, -17.2 3.06, -17.64 3.83 C-18.08 4.61, -17.52 3.55, -16.83 4.67 C-16.15 5.78, -14.65 9.21, -13.54 10.54 C-12.43 11.86, -10.68 11.9, -10.19 12.63 C-9.71 13.36, -12.05 12.69, -10.63 14.93 C-9.21 17.18, -2 26.02, -1.65 26.11 C-1.3 26.21, -7.54 17.3, -8.52 15.49 M-0.29 -1.68 C-0.91 -1.96, -2.71 -3.16, -2.81 -2.3 C-2.91 -1.45, -0.07 2.28, -0.89 3.43 C-1.71 4.58, -7.32 4.15, -7.73 4.62 C-8.14 5.08, -3.05 5.87, -3.34 6.22 C-3.64 6.57, -8.66 6.2, -9.51 6.71 C-10.36 7.22, -8.38 8.61, -8.46 9.28 C-8.54 9.94, -9.73 11.2, -10.02 10.72 C-10.31 10.23, -9.99 7.41, -10.19 6.36 C-10.38 5.32, -11.08 5.64, -11.18 4.45 C-11.27 3.26, -10.7 -1.31, -10.76 -0.78 C-10.81 -0.26, -11.01 6.78, -11.5 7.62 C-12 8.45, -13.19 5.49, -13.7 4.24 C-14.22 2.99, -14.01 0.16, -14.59 0.1 C-15.17 0.04, -16.46 3.02, -17.19 3.9 C-17.92 4.78, -19.96 4.65, -18.98 5.36 C-18.01 6.08, -13.15 6.97, -11.35 8.2 C-9.55 9.44, -8.1 11.7, -8.2 12.77 C-8.29 13.83, -13.13 12.57, -11.92 14.58 C-10.71 16.59, -1.87 24.89, -0.93 24.82 C0 24.75, -5.28 15.41, -6.3 14.16" stroke="#f17634" stroke-width="1" fill="none"></path></g></g><mask></mask><g stroke-linecap="round"><g transform="translate(26.98933231036699 61.42853339513749) rotate(0 26.37164764762838 -4.536644543138209)"><path d="M0.89 0.26 C0.92 -0.01, 0.46 -2.17, 0.97 -2.04 C1.48 -1.9, 1.59 0.23, 3.96 1.05 C6.33 1.87, 12.03 2.41, 15.18 2.88 C18.33 3.36, 20.24 3.94, 22.88 3.92 C25.52 3.91, 28.53 3.08, 31.03 2.81 C33.53 2.54, 36.05 2.79, 37.88 2.31 C39.72 1.82, 40.88 0.47, 42.03 -0.12 C43.18 -0.71, 44.85 -2.65, 44.77 -1.23 C44.7 0.18, 41.3 8.49, 41.59 8.35 C41.88 8.21, 45.92 0.09, 46.54 -2.08 C47.16 -4.25, 45.01 -3.95, 45.32 -4.67 C45.62 -5.38, 47.2 -5.64, 48.36 -6.37 C49.52 -7.09, 51.4 -7.67, 52.29 -9.02 C53.17 -10.36, 53.71 -13.3, 53.65 -14.43 C53.6 -15.56, 52.71 -16.05, 51.96 -15.82 C51.21 -15.6, 49.8 -13.55, 49.17 -13.09 C48.55 -12.63, 48.22 -12.4, 48.23 -13.05 C48.23 -13.69, 49.74 -16.46, 49.19 -16.94 C48.64 -17.42, 45.75 -16.57, 44.93 -15.91 C44.1 -15.26, 44.19 -14.12, 44.24 -12.99 C44.28 -11.85, 44.89 -10.06, 45.17 -9.1 C45.46 -8.14, 46.03 -7.96, 45.94 -7.22 C45.85 -6.48, 44.94 -5, 44.61 -4.66 C44.29 -4.32, 43.98 -4.71, 43.99 -5.19 C43.99 -5.66, 44.52 -6.93, 44.64 -7.48 M-0.11 -0.65 C0.23 -0.72, 2.17 -1.26, 3.22 -0.74 C4.28 -0.21, 4.24 1.76, 6.24 2.5 C8.23 3.25, 12.64 3.44, 15.21 3.75 C17.79 4.06, 19.35 4.71, 21.69 4.36 C24.04 4.02, 26.99 2.18, 29.28 1.69 C31.56 1.19, 33.43 1.65, 35.42 1.39 C37.4 1.13, 39.84 0.27, 41.2 0.13 C42.56 -0.01, 43.95 -0.71, 43.59 0.55 C43.23 1.8, 38.59 8.03, 39.06 7.67 C39.54 7.31, 45.58 0, 46.45 -1.6 C47.33 -3.21, 43.9 -1.07, 44.3 -1.96 C44.71 -2.84, 47.67 -5.8, 48.9 -6.91 C50.13 -8.01, 50.77 -7.75, 51.7 -8.58 C52.63 -9.41, 54.28 -10.37, 54.46 -11.88 C54.64 -13.4, 53.32 -17.54, 52.78 -17.66 C52.24 -17.77, 52.16 -13.3, 51.2 -12.57 C50.25 -11.84, 47.56 -12.68, 47.04 -13.29 C46.51 -13.89, 48.37 -16.05, 48.04 -16.2 C47.71 -16.35, 45.84 -15.09, 45.06 -14.18 C44.27 -13.28, 43.26 -11.37, 43.33 -10.77 C43.4 -10.16, 44.98 -10.94, 45.46 -10.55 C45.94 -10.16, 46.59 -9.27, 46.22 -8.4 C45.84 -7.54, 43.83 -5.96, 43.22 -5.35 C42.61 -4.75, 42.11 -4.46, 42.57 -4.79 C43.03 -5.12, 45.94 -6.58, 45.97 -7.32" stroke="#f17634" stroke-width="1" fill="none"></path></g></g><mask></mask><g stroke-linecap="round" transform="translate(42.6042571265416 53.90078727792934) rotate(0 2.6275836654831437 3.044594150946068)"><path d="M2.07 0.19 C2.58 0.11, 3.49 0.33, 3.99 0.69 C4.49 1.04, 4.84 1.73, 5.06 2.32 C5.28 2.91, 5.45 3.61, 5.31 4.22 C5.17 4.82, 4.8 5.62, 4.23 5.96 C3.66 6.29, 2.51 6.43, 1.88 6.23 C1.26 6.03, 0.83 5.26, 0.48 4.76 C0.12 4.26, -0.25 3.81, -0.27 3.23 C-0.29 2.64, -0.09 1.75, 0.35 1.23 C0.8 0.71, 2.01 0.25, 2.38 0.1 C2.76 -0.05, 2.68 0.32, 2.61 0.34 M3.1 -0.45 C3.72 -0.3, 4.47 0.87, 4.79 1.42 C5.1 1.97, 4.97 2.31, 4.97 2.86 C4.98 3.42, 5.12 4.23, 4.82 4.75 C4.51 5.26, 3.68 5.83, 3.14 5.95 C2.6 6.07, 2.01 5.74, 1.6 5.46 C1.19 5.19, 0.84 4.85, 0.68 4.3 C0.51 3.75, 0.48 2.75, 0.6 2.15 C0.73 1.55, 0.97 1.08, 1.4 0.69 C1.84 0.31, 2.9 -0.06, 3.2 -0.15 C3.51 -0.24, 3.24 0.05, 3.21 0.15" stroke="#f17634" stroke-width="1" fill="none"></path></g><g stroke-linecap="round" transform="translate(51.878236237581405 54.08885375655882) rotate(0 2.7396216757406364 3.044594150946068)"><path d="M2.61 0.27 C3.18 0.22, 3.83 0.53, 4.34 0.9 C4.84 1.26, 5.44 1.82, 5.63 2.45 C5.82 3.08, 5.84 4.08, 5.49 4.67 C5.15 5.27, 4.17 5.86, 3.56 6.04 C2.95 6.22, 2.39 5.93, 1.83 5.75 C1.26 5.56, 0.53 5.41, 0.18 4.92 C-0.17 4.44, -0.4 3.52, -0.26 2.85 C-0.12 2.18, 0.48 1.32, 1.01 0.89 C1.55 0.46, 2.73 0.41, 2.96 0.26 C3.18 0.1, 2.37 -0.03, 2.37 -0.05 M2.76 0.39 C3.25 0.38, 3.62 0.19, 4.09 0.48 C4.55 0.77, 5.36 1.49, 5.55 2.13 C5.73 2.77, 5.44 3.75, 5.19 4.32 C4.94 4.9, 4.52 5.29, 4.07 5.58 C3.61 5.88, 2.98 6.24, 2.46 6.12 C1.94 5.99, 1.3 5.34, 0.92 4.81 C0.54 4.28, 0.14 3.64, 0.16 2.95 C0.18 2.26, 0.6 1.13, 1.03 0.65 C1.47 0.17, 2.5 0.14, 2.76 0.06 C3.03 -0.02, 2.63 0.19, 2.64 0.16" stroke="#f17634" stroke-width="1" fill="none"></path></g><g stroke-linecap="round"><g transform="translate(48.165930677149845 61.586645832609065) rotate(173.44926140398772 2.043500018106897 0.6639984725152317)"><path d="M-0.12 -0.14 C0.68 -0.17, 3.91 -0.4, 4.46 -0.15 C5.01 0.09, 3.72 1.01, 3.2 1.33 C2.67 1.64, 1.86 1.95, 1.31 1.75 C0.76 1.56, 0.11 0.51, -0.1 0.14 M0.46 -0.51 C1.26 -0.49, 3.82 -0.06, 4.27 0.31 C4.71 0.68, 3.75 1.55, 3.12 1.69 C2.48 1.83, 1.06 1.52, 0.46 1.13 C-0.14 0.74, -0.32 -0.49, -0.48 -0.65" stroke="#f17634" stroke-width="1" fill="none"></path></g></g><mask></mask><g stroke-linecap="round"><g transform="translate(44.867229706435865 54.75216125559746) rotate(0 -0.5998813370642893 1.2793517875179532)" fill-rule="evenodd"><path d="M-2.04 2.2 C-2.04 2.2, -2.04 2.2, -2.04 2.2 M-2.04 2.2 C-2.04 2.2, -2.04 2.2, -2.04 2.2 M-1.79 2.05 C-1.79 2.05, -1.79 2.05, -1.79 2.05 M-1.79 2.05 C-1.79 2.05, -1.79 2.05, -1.79 2.05" stroke="#fff4e6" stroke-width="0.5" fill="none"></path><path d="M0.16 0.03 C0.34 0.2, 0.95 0.46, 0.94 0.92 C0.94 1.39, 0.5 2.5, 0.13 2.8 C-0.25 3.1, -1.02 2.91, -1.31 2.72 C-1.59 2.54, -1.53 1.85, -1.59 1.71 M-0.19 -0.26 C-0.02 -0.02, 0.77 0.94, 0.81 1.35 C0.85 1.77, 0.39 2.1, 0.06 2.23 C-0.27 2.37, -0.85 2.23, -1.18 2.14 C-1.5 2.05, -1.71 1.79, -1.88 1.68" stroke="#f17634" stroke-width="1" fill="none"></path></g></g><mask></mask><g stroke-linecap="round"><g transform="translate(54.5495116984921 54.578413817482215) rotate(0 -0.5998813370642893 1.2793517875179532)" fill-rule="evenodd"><path d="M-2.04 2.2 C-2.04 2.2, -2.04 2.2, -2.04 2.2 M-2.04 2.2 C-2.04 2.2, -2.04 2.2, -2.04 2.2 M-1.79 2.05 C-1.79 2.05, -1.79 2.05, -1.79 2.05 M-1.79 2.05 C-1.79 2.05, -1.79 2.05, -1.79 2.05" stroke="#fff4e6" stroke-width="0.5" fill="none"></path><path d="M0.28 -0.04 C0.42 0.15, 1.03 0.72, 0.97 1.21 C0.91 1.7, 0.28 2.74, -0.07 2.89 C-0.42 3.04, -0.88 2.29, -1.14 2.11 C-1.41 1.94, -1.5 1.93, -1.65 1.86 M0 -0.37 C0.1 -0.28, 0.89 0.25, 0.85 0.71 C0.81 1.17, 0.06 2.11, -0.24 2.37 C-0.53 2.63, -0.64 2.37, -0.93 2.3 C-1.22 2.22, -1.84 1.9, -1.98 1.91" stroke="#f17634" stroke-width="1" fill="none"></path></g></g><mask></mask><g stroke-linecap="round" transform="translate(10 10) rotate(0 14.396884653586312 15.005602490464298)"><path d="M0.89 7.4 C0.89 7.4, 0.89 7.4, 0.89 7.4 M0.89 7.4 C0.89 7.4, 0.89 7.4, 0.89 7.4 M1.07 14.73 C4.06 10.02, 8.34 5.31, 10.32 1.23 M0.18 15.24 C5.26 9.69, 9.09 4.59, 11.84 0.92 M2.16 20.67 C7.72 14.55, 14.88 5.65, 18.2 0.43 M-0.17 20.02 C4.5 14.55, 10.01 10.58, 16.91 0.67 M3.2 24.92 C9.7 18.28, 13.62 12.44, 22.32 1.28 M2.3 24.45 C8.65 17.31, 14.85 9.52, 22.03 1.87 M4.92 26.07 C8.87 24.24, 14.21 18.2, 24.56 2.96 M5.01 27.87 C9.95 21.42, 15.63 14.16, 24.48 4.67 M9.2 29.53 C16.13 21.63, 19.8 17.23, 29.2 5.83 M9.67 28.66 C13.13 22.55, 18.47 17.97, 26.88 6.13 M12.02 30.36 C19.27 23.63, 22.73 17.73, 29.63 12.2 M13.46 28.41 C16.23 25.17, 20.93 21.78, 29.43 11.18 M20.19 27.58 C22.76 26.6, 24.63 23.11, 28.58 16.75 M19.43 28.04 C22.98 24.43, 25.76 20.35, 29.92 17.72" stroke="#a5d8ff" stroke-width="0.5" fill="none"></path><path d="M19.02 -0.17 C22.05 0.33, 25.37 3.61, 27.07 6.48 C28.77 9.35, 29.56 13.93, 29.23 17.05 C28.9 20.17, 27.39 23.2, 25.08 25.22 C22.77 27.23, 18.57 28.65, 15.37 29.15 C12.18 29.64, 8.56 29.8, 5.91 28.17 C3.27 26.55, 0.38 22.81, -0.51 19.4 C-1.39 15.99, -0.83 10.69, 0.61 7.73 C2.05 4.77, 4.49 2.66, 8.12 1.65 C11.75 0.64, 19.51 0.97, 22.39 1.67 C25.28 2.36, 25.53 5.36, 25.41 5.82 M12.79 -0.44 C15.33 -1.25, 18.77 -0.64, 21.54 1.09 C24.31 2.83, 28.48 6.42, 29.42 9.95 C30.36 13.48, 28.48 19.17, 27.18 22.27 C25.88 25.36, 24.32 27.39, 21.63 28.51 C18.94 29.63, 14.2 29.86, 11.02 28.97 C7.83 28.08, 4.26 25.6, 2.53 23.18 C0.79 20.75, 0.51 17.39, 0.63 14.41 C0.76 11.43, 1.27 7.71, 3.29 5.28 C5.3 2.84, 11.15 0.83, 12.74 -0.2 C14.34 -1.22, 13 -1.38, 12.86 -0.88" stroke="#1e1e1e" stroke-width="1" fill="none"></path></g></svg>