<svg version="1.1" xmlns="http://www.w3.org/2000/svg" viewBox="0 0 259.02732747130585 258.861850504456" width="259.02732747130585" height="258.861850504456"><!-- svg-source:excalidraw --><metadata></metadata><defs><style class="style-fonts">
      </style></defs><g stroke-linecap="round"><g transform="translate(123.87557961459515 132.33518783656473) rotate(0 -0.19449634611305555 34.85869195131818)"><path d="M0 0 C-0.03 23.37, -1.7 49.54, -0.39 69.72 M0 0 C-0.07 20.12, -0.86 38.59, -0.39 69.72" stroke="#d3d3d4" stroke-width="2" fill="none"></path></g></g><mask></mask><g stroke-linecap="round"><g transform="translate(150.10110716243662 130.51838959772977) rotate(0 21.727687192208123 14.501432820506125)"><path d="M0 0 C0.45 14.25, 1.49 27.32, -1.04 70.11 M0 0 C-1.07 21.89, -0.47 43.45, -1.04 70.11 M-1.04 70.11 C10.53 60.77, 20.77 50.99, 42.58 32.72 M-1.04 70.11 C13.15 58.42, 27.87 44.5, 42.58 32.72 M42.58 32.72 C43.59 18.39, 41.14 1.54, 44.49 -41.1 M42.58 32.72 C43.5 4.25, 43.29 -25.81, 44.49 -41.1" stroke="#d3d3d4" stroke-width="2" fill="none"></path></g></g><mask></mask><g stroke-linecap="round"><g transform="translate(17.815213073377436 164.13468358220052) rotate(0 73.48512316148481 39.58387697085254)"><path d="M0.59 0.13 C25.28 13.28, 123.59 66.37, 147.99 79.57 M-0.56 -0.85 C24.08 11.88, 123.11 64.06, 147.58 77.66" stroke="#d3d3d4" stroke-width="2" fill="none"></path></g></g><mask></mask><g stroke-linecap="round"><g transform="translate(19.83040233705924 165.06853263378798) rotate(0 -4.80143155898304 -14.361830485651808)"><path d="M-0.36 0.05 C-1.7 -1.48, -6.55 -4.44, -8.02 -9.22 C-9.49 -14, -8.86 -25.42, -9.19 -28.65 M0.45 -0.41 C-0.95 -1.88, -6.79 -4.19, -8.42 -8.79 C-10.05 -13.39, -9.06 -24.8, -9.33 -28.01" stroke="#d3d3d4" stroke-width="2" fill="none"></path></g></g><mask></mask><g stroke-linecap="round"><g transform="translate(10.40877562109381 150.00063758491706) rotate(0 4.373940591609198 -13.513060544004475)"><path d="M-0.41 -0.21 C-0.25 -3.28, -0.37 -14.52, 1.18 -18.93 C2.73 -23.34, 7.56 -25.28, 8.87 -26.66 M0.38 -0.79 C0.46 -3.77, -0.54 -14.02, 0.83 -18.48 C2.19 -22.94, 7.17 -26.15, 8.59 -27.54" stroke="#d3d3d4" stroke-width="2" fill="none"></path></g></g><mask></mask><g stroke-linecap="round"><g transform="translate(17.84260040625486 123.5541482797089) rotate(0 19.430940029267504 -14.350388674797614)"><path d="M0 0 C10.88 -6.41, 20.28 -15.26, 38.86 -28.7 M0 0 C12.97 -9.01, 24.48 -18.7, 38.86 -28.7" stroke="#d3d3d4" stroke-width="2" fill="none"></path></g></g><mask></mask><g stroke-linecap="round"><g transform="translate(50.86547664712407 98.67725651224828) rotate(0 6.446324006517671 -2.8561347864533673)"><path d="M0.5 0.2 C1.93 -0.72, 6.15 -4.87, 8.25 -5.77 C10.36 -6.66, 12.28 -5.16, 13.12 -5.17 M0.09 -0.18 C1.51 -0.99, 5.84 -4.19, 7.97 -5.15 C10.1 -6.12, 11.95 -5.91, 12.88 -5.96" stroke="#d3d3d4" stroke-width="2" fill="none"></path></g></g><mask></mask><g stroke-linecap="round"><g transform="translate(163.41327920234517 241.4796737595334) rotate(0 27.708004165122475 0.34905522798271704)"><path d="M-0.8 0.41 C2.27 1.68, 11.84 6.54, 18.36 7.2 C24.88 7.86, 32.33 6.63, 38.32 4.37 C44.31 2.11, 51.6 -4.73, 54.29 -6.35 M0.97 -0.42 C3.99 0.56, 11.84 4.68, 17.92 5.61 C24 6.54, 31.44 7.05, 37.45 5.17 C43.45 3.29, 50.82 -4.02, 53.94 -5.69" stroke="#d3d3d4" stroke-width="2" fill="none"></path></g></g><mask></mask><g stroke-linecap="round"><g transform="translate(211.8672225168125 240.17106038237216) rotate(0 15.257732375677733 -12.460073146019568)"><path d="M0 0 C10.72 -9.04, 19.86 -16.3, 30.52 -24.92 M0 0 C10.25 -7.66, 19.41 -16.04, 30.52 -24.92" stroke="#d3d3d4" stroke-width="2" fill="none"></path></g></g><mask></mask><g stroke-linecap="round"><g transform="translate(242.65545579108084 215.17799051320435) rotate(0 3.1938780604018575 -9.33420370211843)"><path d="M-0.11 -0.37 C0.66 -1.33, 3.67 -2.74, 4.75 -5.8 C5.83 -8.86, 6.06 -16.57, 6.37 -18.73 M-0.83 0.63 C0.11 -0.48, 4.71 -3.47, 5.85 -6.6 C6.99 -9.73, 5.85 -16.21, 6.02 -18.16" stroke="#d3d3d4" stroke-width="2" fill="none"></path></g></g><mask></mask><g stroke-linecap="round"><g transform="translate(248.1537827254906 197.00780043735722) rotate(0 -6.577732682924534 -11.235450942959687)"><path d="M-0.16 0.09 C-0.26 -1.55, -0.38 -7.46, -1 -10.28 C-1.61 -13.11, -1.77 -14.9, -3.85 -16.86 C-5.93 -18.83, -11.87 -21.22, -13.48 -22.08 M0.76 -0.35 C0.88 -1.86, 0.91 -6.99, 0.09 -9.68 C-0.72 -12.36, -1.86 -14.24, -4.13 -16.47 C-6.4 -18.7, -12.1 -22.18, -13.54 -23.04" stroke="#d3d3d4" stroke-width="2" fill="none"></path></g></g><mask></mask><g stroke-linecap="round"><g transform="translate(234.99120797326304 174.38048451200484) rotate(0 -20.478931745589534 -11.117061993045354)"><path d="M0 0 C-16.21 -8.53, -30.67 -17.84, -40.96 -22.23 M0 0 C-11.83 -6.01, -23.61 -12.97, -40.96 -22.23" stroke="#d3d3d4" stroke-width="2" fill="none"></path></g></g><mask></mask><g stroke-linecap="round"><g transform="translate(248.52841306397931 192.52817174574557) rotate(0 -3.9446522542048115 5.61425261727436)"><path d="M0.38 -0.01 C0.12 0.92, -0.64 4.16, -1.96 6.08 C-3.28 8, -6.52 10.68, -7.52 11.49 M-0.09 -0.49 C-0.15 0.53, 0.33 3.52, -0.94 5.36 C-2.2 7.2, -6.52 9.57, -7.69 10.56" stroke="#d3d3d4" stroke-width="1" fill="none"></path></g></g><mask></mask><g stroke-linecap="round"><g transform="translate(241.43444618786998 203.35580369023955) rotate(0 -14.926384893921295 12.411657193246356)"><path d="M0 0 C-8.03 6.21, -16.39 14.66, -29.85 24.82 M0 0 C-11.05 9.54, -22.43 18.27, -29.85 24.82" stroke="#d3d3d4" stroke-width="1" fill="none"></path></g></g><mask></mask><g stroke-linecap="round"><g transform="translate(211.15179240482212 228.10453841790513) rotate(0 -20.795796950103295 3.470063899827437)"><path d="M0.54 0.17 C-1.6 1.23, -8.09 5.4, -12.67 6.58 C-17.24 7.76, -22.06 7.83, -26.91 7.24 C-31.77 6.65, -39.42 3.79, -41.8 3.03 M0.15 -0.22 C-1.84 0.69, -7.13 4.8, -11.69 5.89 C-16.24 6.98, -22.17 6.96, -27.18 6.33 C-32.2 5.69, -39.38 2.67, -41.79 2.09" stroke="#d3d3d4" stroke-width="1" fill="none"></path></g></g><mask></mask><g stroke-linecap="round"><g transform="translate(169.30051418202038 231.11051300853978) rotate(0 -26.335272187217242 -14.0031998536233)"><path d="M0 0 C-14.44 -6.15, -29.3 -14.34, -52.67 -28.01 M0 0 C-12.12 -5.66, -23.52 -13.39, -52.67 -28.01" stroke="#d3d3d4" stroke-width="1" fill="none"></path></g></g><mask></mask><g stroke-linecap="round"><g transform="translate(240.84638403265308 190.63143315898196) rotate(0 0.5125181809703463 5.77867612024329)"><path d="M0 0 C0.52 4.46, 0.93 7.89, 1.03 11.56 M0 0 C0.21 2.44, 0.74 4.78, 1.03 11.56" stroke="#d3d3d4" stroke-width="1" fill="none"></path></g></g><mask></mask><g stroke-linecap="round"><g transform="translate(244.0772663608809 184.3558430858502) rotate(0 1.1185272112254552 -0.6834920938345022)"><path d="M-0.02 -0.34 C0.33 -0.56, 1.69 -0.85, 2.03 -1.02 M-0.45 0.26 C0.01 -0.08, 2.36 -1.27, 2.72 -1.47" stroke="#d3d3d4" stroke-width="1" fill="none"></path></g></g><mask></mask><g stroke-linecap="round"><g transform="translate(240.90853190656617 177.76924460473856) rotate(0 -3.3428827025288683 10.781303259672313)"><path d="M0.03 -0.26 C0.45 0.26, 2.16 1.59, 2.22 3.68 C2.27 5.76, 2.26 9.22, 0.36 12.26 C-1.55 15.31, -7.58 20.36, -9.19 21.97 M-0.63 0.8 C0.01 1.38, 3.17 0.82, 3.28 2.79 C3.4 4.77, 2.13 9.62, 0.08 12.65 C-1.98 15.69, -7.38 19.41, -9.05 21.01" stroke="#d3d3d4" stroke-width="1" fill="none"></path></g></g><mask></mask><g stroke-linecap="round"><g transform="translate(233.28891937295612 197.85498156369977) rotate(0 -17.56383693099474 13.634988232769501)"><path d="M0 0 C-9.24 5.62, -16.11 12.56, -35.13 27.27 M0 0 C-8.82 7.18, -17.1 12.9, -35.13 27.27" stroke="#d3d3d4" stroke-width="1" fill="none"></path></g></g><mask></mask><g stroke-linecap="round"><g transform="translate(200.4650654065108 223.4461250502627) rotate(0 -14.299735813180405 2.5212993556824586)"><path d="M-0.22 -0.41 C-1.49 0.2, -4.71 2.71, -7.67 3.68 C-10.64 4.66, -14.57 5.8, -18.01 5.42 C-21.44 5.04, -26.49 2.03, -28.3 1.41 M0.66 0.57 C-0.64 1.23, -4.71 3.46, -7.87 4.12 C-11.04 4.78, -14.99 4.94, -18.35 4.55 C-21.71 4.15, -26.43 2.2, -28.03 1.76" stroke="#d3d3d4" stroke-width="1" fill="none"></path></g></g><mask></mask><g stroke-linecap="round"><g transform="translate(171.94179879693047 224.46983946043292) rotate(0 -20.6076059615566 -10.719481360421014)"><path d="M0 0 C-11.53 -5.23, -22.12 -11.82, -41.22 -21.44 M0 0 C-14.7 -7.49, -29.81 -15.68, -41.22 -21.44" stroke="#d3d3d4" stroke-width="1" fill="none"></path></g></g><mask></mask><g stroke-linecap="round"><g transform="translate(123.63286043218932 202.38745960147753) rotate(0 12.7832376249346 -0.6260152534050576)"><path d="M-0.05 -0.28 C2.53 -0.09, 10.97 1.72, 15.31 1.37 C19.66 1.02, 24.39 -1.83, 26.02 -2.37 M-0.73 0.76 C2.04 0.78, 11.97 0.98, 16.41 0.56 C20.85 0.13, 24.47 -1.24, 25.9 -1.8" stroke="#d3d3d4" stroke-width="1" fill="none"></path></g></g><mask></mask><g stroke-linecap="round"><g transform="translate(63.8382070781754 114.02762240718039) rotate(0 3.63159926130902 6.744478854932822)"><path d="M0.46 0.34 C0.49 1.38, -1.01 3.53, 0.14 5.74 C1.29 7.96, 6.25 12.4, 7.35 13.61 M0.03 0.03 C0.23 0.97, -0.04 2.56, 1.13 4.93 C2.31 7.3, 6.14 12.89, 7.05 14.27" stroke="#d3d3d4" stroke-width="1" fill="none"></path></g></g><mask></mask><g stroke-linecap="round"><g transform="translate(71.01005403174622 127.98082579581023) rotate(0 23.112695752335412 12.083865748248172)"><path d="M0 0 C13.09 7.47, 23.52 12.01, 46.23 24.17 M0 0 C10.91 5.57, 22.33 11.91, 46.23 24.17" stroke="#d3d3d4" stroke-width="1" fill="none"></path></g></g><mask></mask><g stroke-linecap="round"><g transform="translate(116.71653867289388 151.37019699702432) rotate(0 24.23268845235657 -2.9614381605124436)"><path d="M-0.54 0.36 C1.96 1.1, 10.21 4.09, 14.66 4.34 C19.11 4.59, 22.14 3.06, 26.14 1.87 C30.14 0.68, 34.99 -0.89, 38.65 -2.78 C42.3 -4.68, 46.36 -8.34, 48.08 -9.5 M0.18 0.07 C2.67 0.65, 9.86 3.12, 14.37 3.49 C18.87 3.86, 23.12 3.27, 27.21 2.27 C31.29 1.28, 35.27 -0.32, 38.88 -2.48 C42.5 -4.65, 47.32 -9.45, 48.88 -10.72" stroke="#d3d3d4" stroke-width="1" fill="none"></path></g></g><mask></mask><g stroke-linecap="round"><g transform="translate(165.8221253442921 140.51620790582638) rotate(0 13.77012585886041 -11.392177126055685)"><path d="M0 0 C6.97 -5.38, 12.79 -9.67, 27.54 -22.78 M0 0 C7.91 -6.84, 15.23 -12.96, 27.54 -22.78" stroke="#d3d3d4" stroke-width="1" fill="none"></path></g></g><mask></mask><g stroke-linecap="round"><g transform="translate(10.849789209269602 140.22387202011123) rotate(0 6.365440434009315 6.2411978546697355)"><path d="M0.39 0.54 C1.03 1.61, 1.77 4.64, 3.85 6.58 C5.93 8.51, 11.38 11.2, 12.88 12.15 M-0.07 0.34 C0.49 1.23, 1.27 3.71, 3.39 5.75 C5.5 7.79, 11 11.43, 12.61 12.58" stroke="#d3d3d4" stroke-width="1" fill="none"></path></g></g><mask></mask><g stroke-linecap="round"><g transform="translate(23.65108520898275 153.14824184942154) rotate(0 25.050847606025627 13.621949525713717)"><path d="M0 0 C14.03 4.9, 23.26 13.54, 50.1 27.24 M0 0 C12.1 5.58, 23.27 12.54, 50.1 27.24" stroke="#d3d3d4" stroke-width="1" fill="none"></path></g></g><mask></mask><g stroke-linecap="round"><g transform="translate(63.12112019644064 94.16558736984734) rotate(0 -22.01092873792163 17.5800873099206)"><path d="M0 0 C-15.7 13.61, -30.88 24.91, -44.02 35.16 M0 0 C-12.12 9.72, -23.75 18.59, -44.02 35.16" stroke="#d3d3d4" stroke-width="1" fill="none"></path></g></g><mask></mask><g stroke-linecap="round"><g transform="translate(20.992666664473745 128.1959341082711) rotate(0 0.5154282275416335 9.435659587199552)"><path d="M0.24 -0.19 C-0.66 0.66, -4.58 3.22, -5.43 5.2 C-6.29 7.18, -6.88 9.33, -4.87 11.69 C-2.86 14.06, 4.83 18.17, 6.61 19.38 M-0.3 -0.76 C-1.02 -0.08, -3.58 2.18, -4.38 4.36 C-5.18 6.53, -6.74 9.94, -5.13 12.29 C-3.51 14.64, 3.35 17.33, 5.32 18.48" stroke="#d3d3d4" stroke-width="1" fill="none"></path></g></g><mask></mask><g stroke-linecap="round"><g transform="translate(27.53830306124064 147.61159612749907) rotate(0 19.087099900413477 9.950512399471336)"><path d="M0 0 C8.44 4.63, 17.37 8.5, 38.17 19.9 M0 0 C15.26 7.27, 29.84 15.64, 38.17 19.9" stroke="#d3d3d4" stroke-width="1" fill="none"></path></g></g><mask></mask><g stroke-linecap="round"><g transform="translate(193.44474009764872 227.20664320143624) rotate(0 2.581090862554447 3.4092617383830657)"><path d="M0 0 C1.06 1.74, 2.15 2.78, 5.16 6.82 M0 0 C1.43 1.75, 2.77 3.68, 5.16 6.82" stroke="#d3d3d4" stroke-width="1" fill="none"></path></g></g><mask></mask><g stroke-linecap="round"><g transform="translate(176.86544800438378 227.37498878738734) rotate(0 -1.7565358681783891 2.0181957943732414)"><path d="M0 0 C-1.44 1.54, -2.82 3.26, -3.51 4.04 M0 0 C-1.28 1.37, -2.57 2.94, -3.51 4.04" stroke="#d3d3d4" stroke-width="1" fill="none"></path></g></g><mask></mask><g stroke-linecap="round"><g transform="translate(73.2764499043783 180.20653235225836) rotate(0 -4.7645186522083804 -29.903192013312037)"><path d="M-0.47 -0.69 C-1.06 -1.85, -3.42 -4.66, -4.73 -7.46 C-6.03 -10.25, -7.49 -8.67, -8.3 -17.46 C-9.11 -26.25, -9.34 -53.04, -9.58 -60.2 M1.49 1.57 C0.89 0.59, -3.67 -2.76, -5.38 -6.25 C-7.09 -9.74, -8.12 -10.51, -8.78 -19.35 C-9.45 -28.19, -8.94 -52.47, -9.36 -59.31" stroke="#d3d3d4" stroke-width="2" fill="none"></path></g></g><mask></mask><g stroke-linecap="round"><g transform="translate(63.579855501764996 122.0081077981813) rotate(0 0.11348536064542714 -11.047778817051949)"><path d="M0 0 C0.98 -8.3, -0.19 -17.43, 0.23 -22.1 M0 0 C0.29 -5.26, 0.06 -11.46, 0.23 -22.1" stroke="#d3d3d4" stroke-width="2" fill="none"></path></g></g><mask></mask><g stroke-linecap="round"><g transform="translate(71.77613689932332 80.4171851239953) rotate(0 15.725100130166993 -12.934237951237264)"><path d="M0 0 C7.26 -6.75, 16.01 -13.97, 31.45 -25.87 M0 0 C8.32 -7.1, 17.92 -14.59, 31.45 -25.87" stroke="#d3d3d4" stroke-width="2" fill="none"></path></g></g><mask></mask><g stroke-linecap="round"><g transform="translate(143.45950424622924 51.148376675499094) rotate(0 20.298069371860265 11.08777342997655)"><path d="M0 0 C12.83 6.27, 27.23 15.4, 40.6 22.18 M0 0 C13.89 7.39, 27.53 14.88, 40.6 22.18" stroke="#d3d3d4" stroke-width="2" fill="none"></path></g></g><mask></mask><g stroke-linecap="round"><g transform="translate(154.97880088119337 126.80907157191905) rotate(0 17.430988770089243 -14.15787207727135)"><path d="M0 0 C11.45 -10.4, 24.98 -19.03, 34.86 -28.32 M0 0 C9.21 -7.27, 17.96 -14.17, 34.86 -28.32" stroke="#d3d3d4" stroke-width="2" fill="none"></path></g></g><mask></mask><g stroke-linecap="round"><g transform="translate(71.29361999060302 105.38715230519301) rotate(0 23.266658996393062 12.22964007779683)"><path d="M0.26 0.82 C8.08 4.93, 38.75 21.47, 46.61 25.28 M-1.06 0.2 C6.63 3.93, 37.68 19.52, 45.71 23.59" stroke="#d3d3d4" stroke-width="2" fill="none"></path></g></g><mask></mask><g stroke-linecap="round"><g transform="translate(74.42665112825807 78.15061650871576) rotate(0 -4.863414141948169 13.837107888295577)"><path d="M0.01 0.16 C-1.55 1.77, -7.58 6.01, -9.29 9.23 C-10.99 12.45, -11.24 16.41, -10.2 19.47 C-9.17 22.54, -4.26 26.29, -3.07 27.61 M-0.65 -0.24 C-2.04 1.49, -6.86 6.47, -8.27 9.86 C-9.69 13.26, -10 17.1, -9.13 20.14 C-8.27 23.18, -4.24 26.87, -3.09 28.08" stroke="#d3d3d4" stroke-width="2" fill="none"></path></g></g><mask></mask><g stroke-linecap="round"><g transform="translate(116.36255295571027 129.4092668114281) rotate(0 21.275247538766962 -0.9503078965499299)"><path d="M-0.41 -0.11 C1.89 0.59, 9.56 3.11, 13.82 3.69 C18.08 4.27, 21.71 4, 25.17 3.37 C28.64 2.74, 31.7 1.4, 34.62 -0.11 C37.55 -1.62, 41.34 -4.7, 42.73 -5.69 M0.38 -0.65 C2.65 0.15, 9.54 3.65, 13.63 4.18 C17.71 4.71, 21.39 3.16, 24.89 2.53 C28.38 1.91, 31.71 1.75, 34.59 0.43 C37.47 -0.88, 40.89 -4.2, 42.15 -5.36" stroke="#d3d3d4" stroke-width="2" fill="none"></path></g></g><mask></mask><g stroke-linecap="round"><g transform="translate(182.70387854489263 72.7297213954389) rotate(0 5.3369612249325655 14.890478473201256)"><path d="M-0.01 -0.15 C1.22 0.81, 5.67 2.97, 7.37 5.72 C9.06 8.46, 9.92 13.45, 10.16 16.33 C10.39 19.21, 10.35 20.66, 8.77 22.97 C7.2 25.28, 1.94 29.02, 0.71 30.18 M-0.68 -0.71 C0.72 0.35, 6.37 3.73, 8.36 6.42 C10.34 9.12, 11.14 12.65, 11.21 15.47 C11.27 18.28, 10.36 20.81, 8.76 23.33 C7.16 25.85, 2.98 29.52, 1.63 30.57" stroke="#d3d3d4" stroke-width="2" fill="none"></path></g></g><mask></mask><g stroke-linecap="round"><g transform="translate(103.53435800304032 54.80601253827808) rotate(0 20.982741193613265 -4.740537974626022)"><path d="M-0.38 -0.11 C1.23 -1.28, 6.3 -5.4, 9.86 -6.97 C13.42 -8.55, 17.44 -9.59, 20.98 -9.56 C24.53 -9.52, 27.57 -7.98, 31.13 -6.78 C34.7 -5.57, 40.56 -2.94, 42.38 -2.34 M0.43 -0.65 C1.96 -1.75, 6.15 -5.05, 9.54 -6.44 C12.94 -7.83, 17.18 -8.78, 20.82 -8.99 C24.45 -9.21, 27.86 -8.92, 31.38 -7.75 C34.89 -6.58, 40.04 -2.89, 41.92 -1.96" stroke="#d3d3d4" stroke-width="2" fill="none"></path></g></g><mask></mask><g stroke-linecap="round"><g transform="translate(76.12421584872754 83.01732736684608) rotate(0 18.816912255222405 -15.308582536065842)"><path d="M0 0 C7.88 -5.57, 16.24 -12.57, 19.93 -16.77 M0 0 C4.74 -4.54, 10.02 -8.29, 19.93 -16.77 M19.93 -16.77 C25.38 -21.35, 31.3 -26.02, 37.63 -30.62 M19.93 -16.77 C24.58 -20.41, 30.17 -24.03, 37.63 -30.62" stroke="#d3d3d4" stroke-width="1" fill="none"></path></g></g><mask></mask><g stroke-linecap="round"><g transform="translate(77.72448558715769 97.32536576364146) rotate(0 22.20401742846275 11.900218375821169)"><path d="M0 0 C11.32 5.5, 22.72 11.84, 44.41 23.8 M0 0 C13.58 7.1, 26.81 14.99, 44.41 23.8" stroke="#d3d3d4" stroke-width="1" fill="none"></path></g></g><mask></mask><g stroke-linecap="round"><g transform="translate(144.6973458732473 118.93808509582232) rotate(0 19.205962962088734 -15.697299157473935)"><path d="M0 0 C8.79 -6.82, 18.24 -14.92, 38.41 -31.39 M0 0 C9.94 -7.69, 19.81 -16.12, 38.41 -31.39" stroke="#d3d3d4" stroke-width="1" fill="none"></path></g></g><mask></mask><g stroke-linecap="round"><g transform="translate(135.52481805708112 50.671598798278865) rotate(0 21.945407400240356 11.51137048446526)"><path d="M0 0 C10.9 5.53, 20.06 11.32, 43.89 23.02 M0 0 C17.06 9.02, 34.88 18.68, 43.89 23.02" stroke="#d3d3d4" stroke-width="1" fill="none"></path></g></g><mask></mask><g stroke-linecap="round"><g transform="translate(143.034701934233 121.0351807213683) rotate(0 4.30906773998845 3.693638939862467)"><path d="M0 0 C3.04 3.05, 6.17 5.65, 8.62 7.39 M0 0 C1.72 1.75, 3.65 3.29, 8.62 7.39" stroke="#d3d3d4" stroke-width="1" fill="none"></path></g></g><mask></mask><g stroke-linecap="round"><g transform="translate(123.76690290387705 131.00784593813114) rotate(0 2.616305371171393 -3.878081005556851)"><path d="M0 0 C2 -2.98, 3.8 -6.09, 5.23 -7.76 M0 0 C1.95 -2.97, 4.05 -6.27, 5.23 -7.76" stroke="#d3d3d4" stroke-width="1" fill="none"></path></g></g><mask></mask><g stroke-linecap="round"><g transform="translate(70.50365920446893 104.11715228516186) rotate(0 1.2926936685189503 -5.694248976131348)"><path d="M0 0 C0.16 -2.93, 1.37 -5.94, 2.59 -11.39 M0 0 C0.79 -2.89, 1.16 -6.22, 2.59 -11.39" stroke="#d3d3d4" stroke-width="1" fill="none"></path></g></g><mask></mask><g stroke-linecap="round"><g transform="translate(66.51531235526909 86.89322892882956) rotate(0 3.717853827550698 -0.6525206360702214)"><path d="M0 0 C2.73 -0.51, 5.01 -1.07, 7.44 -1.31 M0 0 C2.94 -0.43, 5.92 -1.12, 7.44 -1.31" stroke="#d3d3d4" stroke-width="1" fill="none"></path></g></g><mask></mask><g stroke-linecap="round"><g transform="translate(70.22165317287363 106.01943138843671) rotate(0 0.26169956096464375 34.96323127965843)"><path d="M0 0 C0 15.35, 0.94 29.94, 0.52 69.93 M0 0 C0.54 25.04, 0.53 49.96, 0.52 69.93" stroke="#d3d3d4" stroke-width="1" fill="none"></path></g></g><mask></mask><g stroke-linecap="round"><g transform="translate(121.43566975637714 120.49528051182642) rotate(0 12.990510096486332 -0.24571565437236131)"><path d="M0.31 0.51 C1.68 0.89, 4.94 2.19, 7.8 2.4 C10.66 2.61, 14.34 2.78, 17.46 1.77 C20.57 0.75, 25.01 -2.79, 26.49 -3.68 M-0.2 0.3 C1.13 0.74, 4.41 2.63, 7.28 2.96 C10.15 3.3, 14.01 3.37, 17 2.31 C19.99 1.24, 23.73 -2.46, 25.2 -3.45" stroke="#d3d3d4" stroke-width="1" fill="none"></path></g></g><mask></mask><g stroke-linecap="round"><g transform="translate(80.27594712516702 80.3361361184634) rotate(0 -3.1450746247114694 9.21139341914386)"><path d="M-0.04 -0.04 C-1.11 0.84, -5.07 3.39, -6.08 5.55 C-7.1 7.71, -7.12 10.74, -6.12 12.93 C-5.13 15.11, -1.1 17.71, -0.09 18.67 M-0.72 -0.53 C-1.88 0.41, -5.44 3.89, -6.41 6.2 C-7.38 8.5, -7.63 11.38, -6.54 13.29 C-5.44 15.19, -0.83 16.69, 0.16 17.64" stroke="#d3d3d4" stroke-width="1" fill="none"></path></g></g><mask></mask><g stroke-linecap="round"><g transform="translate(179.44133349805907 73.50150841255527) rotate(0 0.8833523779251209 10.140652756908821)"><path d="M0.47 0.32 C1.49 1.15, 5.12 2.89, 5.76 4.9 C6.4 6.91, 5.93 9.84, 4.31 12.39 C2.7 14.93, -2.48 18.83, -3.93 20.16 M0.05 0.01 C1.03 0.89, 4.44 3.22, 5.34 5.34 C6.23 7.46, 6.96 10.2, 5.45 12.74 C3.93 15.29, -2.27 19.29, -3.78 20.61" stroke="#d3d3d4" stroke-width="1" fill="none"></path></g></g><mask></mask><g stroke-linecap="round"><g transform="translate(184.97078728518682 85.56713591139487) rotate(0 3.213045093016717 4.778545488792588)"><path d="M0.02 -0.3 C1.07 1.25, 5.19 7.81, 6.24 9.48 M-0.39 0.31 C0.77 1.91, 5.86 8.42, 6.94 9.89" stroke="#d3d3d4" stroke-width="1" fill="none"></path></g></g><mask></mask><g stroke-linecap="round"><g transform="translate(184.91561546507137 78.09753733455727) rotate(0 1.8675185489942123 -0.027348100487870397)"><path d="M-0.18 -0.27 C0.45 -0.23, 2.8 0.03, 3.43 0.1 M0.37 0.36 C1.14 0.31, 3.57 -0.31, 4.07 -0.44" stroke="#d3d3d4" stroke-width="1" fill="none"></path></g></g><mask></mask><g stroke-linecap="round"><g transform="translate(109.25336516850211 56.64760003583433) rotate(0 14.045112769561456 -3.7342223747173193)"><path d="M-0.45 -0.23 C1.13 -1.33, 6 -5.57, 9.35 -6.82 C12.69 -8.07, 16.44 -8.18, 19.62 -7.72 C22.8 -7.26, 27.04 -4.64, 28.42 -4.05 M0.31 -0.82 C1.84 -1.83, 5.78 -5.12, 8.98 -6.19 C12.17 -7.26, 16.22 -7.45, 19.51 -7.25 C22.8 -7.05, 27.16 -5.56, 28.7 -5" stroke="#d3d3d4" stroke-width="1" fill="none"></path></g></g><mask></mask><g stroke-linecap="round"><g transform="translate(99.40312499502625 85.63705764793667) rotate(0 15.744263330082504 8.435327543872518)"><path d="M-0.06 0.63 C5.25 3.49, 25.59 13.74, 30.85 16.49 M-1.55 -0.09 C4.24 3.01, 27.85 14.72, 33.22 17.82" stroke="#d3d3d4" stroke-width="1" fill="none"></path></g></g><mask></mask><g stroke-linecap="round"><g transform="translate(86.0496483951938 96.71568748891696) rotate(0 17.08379942961733 8.986018187506488)"><path d="M0 0 C7.83 3.86, 15.75 8.56, 34.17 17.97 M0 0 C8.2 3.75, 15.81 8.37, 34.17 17.97" stroke="#d3d3d4" stroke-width="1" fill="none"></path></g></g><mask></mask><g stroke-linecap="round"><g transform="translate(129.02128351810643 115.72751672759114) rotate(0 3.1267105955662373 -2.8624331906721636)"><path d="M0 0 C1.42 -1.67, 3.15 -2.88, 6.25 -5.72 M0 0 C1.31 -1.2, 2.64 -2.41, 6.25 -5.72" stroke="#d3d3d4" stroke-width="1" fill="none"></path></g></g><mask></mask><g stroke-linecap="round"><g transform="translate(85.86398245826558 92.03521898753206) rotate(0 3.280967753257073 -2.8405054117665713)"><path d="M0 0 C1.59 -1.35, 3.6 -3.12, 6.56 -5.68 M0 0 C1.87 -1.78, 3.96 -3.33, 6.56 -5.68" stroke="#d3d3d4" stroke-width="1" fill="none"></path></g></g><mask></mask><g stroke-linecap="round"><g transform="translate(85.77585793328672 92.1651046039915) rotate(0 2.7609875968028064 3.5811423904779076)"><path d="M0.24 0.09 C0.07 0.76, -1.79 2.65, -0.79 3.84 C0.21 5.03, 5.02 6.72, 6.24 7.24 M-0.06 -0.18 C-0.3 0.4, -2.05 1.95, -1.04 3.26 C-0.04 4.57, 4.67 7.01, 5.95 7.67" stroke="#d3d3d4" stroke-width="1" fill="none"></path></g></g><mask></mask><g stroke-linecap="round"><g transform="translate(91.39337231065247 87.00347998932739) rotate(0 4.687149590995432 -0.8467351276249246)"><path d="M-0.2 0.11 C0.64 -0.18, 3.21 -1.73, 4.8 -1.8 C6.39 -1.87, 8.61 -0.52, 9.35 -0.33 M0.34 -0.15 C1.15 -0.37, 3.04 -1.43, 4.5 -1.4 C5.96 -1.37, 8.32 -0.12, 9.12 0.04" stroke="#d3d3d4" stroke-width="1" fill="none"></path></g></g><mask></mask><g stroke-linecap="round"><g transform="translate(132.59438454526025 103.40161276205072) rotate(0 2.088454111765941 3.620658097677733)"><path d="M0.06 0.06 C0.74 0.62, 3.6 1.97, 3.93 3.21 C4.25 4.46, 2.39 6.92, 2.01 7.55 M-0.34 -0.22 C0.46 0.39, 4.22 2.29, 4.59 3.5 C4.97 4.7, 2.39 6.41, 1.89 7.02" stroke="#d3d3d4" stroke-width="1" fill="none"></path></g></g><mask></mask><g stroke-linecap="round"><g transform="translate(131.88763887773757 113.23173640282039) rotate(0 -6.761722272579618 1.667673282119722)"><path d="M-0.08 -0.31 C-1.07 0.2, -3.77 3.36, -6.07 3.54 C-8.38 3.71, -12.7 1.13, -13.91 0.75 M-0.78 0.73 C-1.59 1.3, -3.03 2.57, -5.03 2.67 C-7.03 2.78, -11.45 1.72, -12.79 1.33" stroke="#d3d3d4" stroke-width="1" fill="none"></path></g></g><mask></mask><g stroke-linecap="round"><g transform="translate(117.2946921956609 83.2574584316626) rotate(0 10.162496061859656 5.18334541909735)"><path d="M0.44 0.28 C0.47 0.96, -0.98 2.85, 0.36 4.61 C1.71 6.38, 5.24 9.87, 8.53 10.88 C11.82 11.88, 18.05 10.75, 20.09 10.64 M0 -0.05 C-0.07 0.95, -1.71 3.55, -0.11 5.23 C1.48 6.92, 6.22 9.32, 9.59 10.07 C12.96 10.82, 18.29 9.69, 20.09 9.75" stroke="#d3d3d4" stroke-width="1" fill="none"></path></g></g><mask></mask><g stroke-linecap="round"><g transform="translate(117.65750869579642 82.8264787882963) rotate(0 10.105824399548283 4.128584619163121)"><path d="M-0.23 -0.39 C0.99 -0.61, 4.67 -2.1, 7.48 -1.69 C10.28 -1.28, 14.54 0.21, 16.59 2.07 C18.64 3.94, 19.25 8.28, 19.78 9.53 M0.66 0.6 C1.8 0.47, 4.44 -1.32, 7.07 -1.22 C9.7 -1.11, 14.34 -0.64, 16.44 1.24 C18.54 3.11, 18.99 8.62, 19.67 10.04" stroke="#d3d3d4" stroke-width="1" fill="none"></path></g></g><mask></mask><g stroke-linecap="round" transform="translate(121.65006168185573 84.18738442605536) rotate(0 5.829913101932107 3.708900021145382)"><path d="M5.42 0.07 C6.56 -0.03, 8.07 0.44, 9.1 0.88 C10.14 1.32, 11.26 2.01, 11.62 2.72 C11.99 3.43, 11.89 4.41, 11.29 5.13 C10.69 5.85, 9.27 6.6, 8.04 7.04 C6.81 7.48, 5.08 7.97, 3.89 7.77 C2.71 7.56, 1.58 6.55, 0.91 5.81 C0.25 5.08, -0.32 4.1, -0.12 3.35 C0.09 2.61, 1.27 1.84, 2.15 1.35 C3.04 0.87, 4.51 0.63, 5.17 0.45 C5.84 0.27, 6.06 0.28, 6.13 0.27 M7.48 0.3 C8.51 0.36, 9.35 0.88, 10.09 1.58 C10.83 2.28, 11.99 3.69, 11.92 4.49 C11.86 5.29, 10.64 5.79, 9.71 6.37 C8.79 6.95, 7.6 7.8, 6.35 7.96 C5.11 8.12, 3.36 7.75, 2.25 7.31 C1.14 6.87, 0.12 6.21, -0.31 5.33 C-0.73 4.46, -0.96 2.94, -0.32 2.07 C0.32 1.19, 2.21 0.39, 3.51 0.08 C4.81 -0.22, 6.94 0.1, 7.48 0.24 C8.02 0.37, 6.72 0.91, 6.73 0.87" stroke="#d3d3d4" stroke-width="1" fill="none"></path></g><g stroke-linecap="round" transform="translate(125.53183047981747 85.4510979167444) rotate(0 1.6568599317276949 0.6514888310302922)"><path d="M1.59 0.28 C1.93 0.16, 2.3 -0.25, 2.61 -0.19 C2.91 -0.13, 3.33 0.46, 3.42 0.65 C3.51 0.83, 3.3 0.85, 3.15 0.92 C3 0.99, 2.91 1.05, 2.55 1.08 C2.18 1.11, 1.31 1.13, 0.97 1.08 C0.63 1.03, 0.67 0.9, 0.5 0.78 C0.33 0.67, -0.01 0.51, -0.03 0.39 C-0.04 0.27, 0.19 0.08, 0.41 0.05 C0.62 0.01, 1.06 0.13, 1.26 0.17 C1.46 0.2, 1.52 0.29, 1.6 0.28 M1.22 -0.46 C1.56 -0.49, 2.2 -0.09, 2.57 0.04 C2.94 0.18, 3.32 0.25, 3.46 0.33 C3.59 0.42, 3.61 0.46, 3.38 0.55 C3.15 0.65, 2.47 0.8, 2.09 0.91 C1.72 1.01, 1.45 1.13, 1.13 1.19 C0.8 1.25, 0.29 1.37, 0.16 1.26 C0.03 1.15, 0.25 0.69, 0.34 0.53 C0.42 0.37, 0.46 0.37, 0.64 0.3 C0.82 0.24, 1.19 0.18, 1.4 0.14 C1.6 0.1, 1.8 0.07, 1.86 0.07" stroke="#d3d3d4" stroke-width="1" fill="none"></path></g><g stroke-linecap="round"><g transform="translate(175.26484821859276 210.1905720752784) rotate(0 18.663398899896038 -14.624883950490585)"><path d="M0 0 C14.66 -12.45, 29.69 -23.32, 37.33 -29.25 M0 0 C11.27 -9.37, 22.6 -17.4, 37.33 -29.25" stroke="#d3d3d4" stroke-width="1" fill="none"></path></g></g><mask></mask><g stroke-linecap="round"><g transform="translate(212.22398976121622 181.18803486197794) rotate(0 8.997622914966996 -2.341286153608962)"><path d="M0.01 -0.51 C1.25 -1.29, 4.79 -3.76, 7.82 -4.14 C10.85 -4.53, 16.46 -2.92, 18.18 -2.82 M-0.65 0.42 C0.49 -0.26, 4.27 -4.15, 7.37 -4.83 C10.47 -5.51, 16.1 -3.93, 17.93 -3.66" stroke="#d3d3d4" stroke-width="1" fill="none"></path></g></g><mask></mask><g stroke-linecap="round"><g transform="translate(225.45877210331992 177.29308737579413) rotate(0 2.1976271495709625 8.306703143524828)"><path d="M-0.04 -0.02 C0.89 0.2, 4.87 0.13, 6.01 1.54 C7.15 2.95, 8.32 5.84, 6.79 8.44 C5.25 11.05, -1.62 15.79, -3.21 17.16 M-0.72 -0.5 C0.12 -0.45, 4.24 -0.55, 5.68 0.8 C7.12 2.15, 9.42 5.03, 7.92 7.61 C6.42 10.19, -1.45 14.74, -3.34 16.28" stroke="#d3d3d4" stroke-width="1" fill="none"></path></g></g><mask></mask><g stroke-linecap="round"><g transform="translate(175.03410203409294 210.22015220749745) rotate(0 7.135728958921391 5.9218893723164)"><path d="M-0.24 0.15 C-0.55 1.14, -3.47 4.34, -2.41 6.24 C-1.34 8.15, 3.09 11.1, 6.17 11.57 C9.25 12.04, 14.47 9.44, 16.1 9.06 M0.64 -0.25 C0.29 0.81, -3.77 4.87, -2.93 6.92 C-2.08 8.96, 2.57 11.61, 5.72 12.03 C8.88 12.45, 14.18 9.88, 16.01 9.44" stroke="#d3d3d4" stroke-width="1" fill="none"></path></g></g><mask></mask><g stroke-linecap="round"><g transform="translate(223.78712736838816 193.32413019344312) rotate(0 -16.682943093059293 13.254503254236624)"><path d="M0 0 C-12.31 8.88, -24.65 19.38, -33.37 26.51 M0 0 C-10.18 8.35, -20.47 16.02, -33.37 26.51" stroke="#d3d3d4" stroke-width="1" fill="none"></path></g></g><mask></mask><g stroke-linecap="round"><g transform="translate(218.69456523265808 177.6198362765026) rotate(0 -0.6847815059579716 8.267365215140671)"><path d="M0 0 C-1.05 5.46, -0.78 9.73, -1.37 16.53 M0 0 C-0.39 6.4, -0.93 13.06, -1.37 16.53" stroke="#d3d3d4" stroke-width="1" fill="none"></path></g></g><mask></mask><g stroke-linecap="round"><g transform="translate(231.6581802313117 181.14223542406944) rotate(0 -0.34249665794436623 3.2286187736826832)"><path d="M0 0 C-0.2 2.33, -0.64 4.53, -0.68 6.46 M0 0 C-0.24 1.65, -0.33 3.26, -0.68 6.46" stroke="#d3d3d4" stroke-width="1" fill="none"></path></g></g><mask></mask><g stroke-linecap="round"><g transform="translate(175.15661035710673 212.20543262102547) rotate(0 -0.12221433001491278 3.522187337634932)"><path d="M0 0 C-0.08 1.8, -0.11 3.85, -0.24 7.04 M0 0 C-0.09 2.22, -0.08 4.12, -0.24 7.04" stroke="#d3d3d4" stroke-width="1" fill="none"></path></g></g><mask></mask><g stroke-linecap="round"><g transform="translate(183.27740310020135 221.2069310559782) rotate(0 17.146013890285303 -13.50161222263614)"><path d="M0 0 C9.67 -9.27, 20.6 -17.72, 34.29 -27 M0 0 C13.84 -10.87, 26.99 -20.83, 34.29 -27" stroke="#d3d3d4" stroke-width="1" fill="none"></path></g></g><mask></mask><g stroke-linecap="round"><g transform="translate(217.81074441283317 193.9805778229802) rotate(0 2.6341949048617153 -0.6079326630206197)"><path d="M0.24 0.34 C0.61 0.12, 1.72 -0.83, 2.58 -1.09 C3.44 -1.35, 4.95 -1.25, 5.39 -1.23 M-0.06 0.2 C0.24 0.02, 1.45 -0.44, 2.33 -0.62 C3.21 -0.8, 4.74 -0.69, 5.23 -0.85" stroke="#d3d3d4" stroke-width="1" fill="none"></path></g></g><mask></mask><g stroke-linecap="round"><g transform="translate(24.877023412786002 131.69989131865623) rotate(0 18.663398899896038 -14.624883950490585)"><path d="M0 0 C9.51 -8.6, 19.05 -15.32, 37.33 -29.25 M0 0 C9.4 -7.75, 19.02 -15.01, 37.33 -29.25" stroke="#d3d3d4" stroke-width="1" fill="none"></path></g></g><mask></mask><g stroke-linecap="round"><g transform="translate(24.646277228285726 131.72947145087346) rotate(0 7.221200889246802 5.9218893723164)"><path d="M-0.23 0.29 C-0.64 1.34, -3.47 4.12, -2.36 6.03 C-1.25 7.94, 3.27 11, 6.41 11.75 C9.56 12.49, 14.77 10.77, 16.52 10.5 M0.66 -0.03 C0.15 1.11, -3.77 4.54, -2.86 6.59 C-1.95 8.65, 2.86 11.56, 6.09 12.3 C9.33 13.04, 14.83 11.4, 16.55 11.03" stroke="#d3d3d4" stroke-width="1" fill="none"></path></g></g><mask></mask><g stroke-linecap="round"><g transform="translate(62.7171613136843 125.38719778605446) rotate(0 -10.637006549693751 8.511736142066184)"><path d="M0 0 C-5.95 4.47, -11.14 8.5, -21.27 17.02 M0 0 C-6.79 5.37, -12.74 10.5, -21.27 17.02" stroke="#d3d3d4" stroke-width="1" fill="none"></path></g></g><mask></mask><g stroke-linecap="round"><g transform="translate(24.768785551299516 133.7147518644033) rotate(0 -0.12221433001491278 3.522187337634932)"><path d="M0 0 C-0.2 1.82, -0.07 4.04, -0.24 7.04 M0 0 C-0.02 2.13, -0.14 4.05, -0.24 7.04" stroke="#d3d3d4" stroke-width="1" fill="none"></path></g></g><mask></mask><g stroke-linecap="round"><g transform="translate(35.33878904311723 143.0888219551107) rotate(0 14.07881796053016 -10.981108000856693)"><path d="M0 0 C8.89 -5.99, 15.76 -13.1, 28.16 -21.96 M0 0 C6.62 -5.52, 12.99 -10.64, 28.16 -21.96" stroke="#d3d3d4" stroke-width="1" fill="none"></path></g></g><mask></mask><g stroke-linecap="round"><g transform="translate(53.74502930795643 12.807479080616758) rotate(5.242460657226803 19.656205575385002 39.943020248946596)"><path d="M0.97 -0.09 C5.19 9.06, 18.33 40.48, 24.86 53.75 C31.39 67.01, 37.74 75.11, 40.15 79.51 M0.02 -1.19 C4.65 7.74, 20.44 38.43, 27.08 52.07 C33.71 65.71, 37.74 75.75, 39.82 80.64" stroke="#ff8787" stroke-width="2" fill="none"></path></g><g transform="translate(53.74502930795643 12.807479080616758) rotate(5.242460657226803 19.656205575385002 39.943020248946596)"><path d="M29.56 69.57 C32 71.18, 35.86 76.29, 39.82 80.64 M29.56 69.57 C32.32 72.19, 35.51 75.32, 39.82 80.64" stroke="#ff8787" stroke-width="2" fill="none"></path></g><g transform="translate(53.74502930795643 12.807479080616758) rotate(5.242460657226803 19.656205575385002 39.943020248946596)"><path d="M39.08 65.56 C39.01 68.29, 40.39 74.45, 39.82 80.64 M39.08 65.56 C39.28 69.28, 39.91 73.49, 39.82 80.64" stroke="#ff8787" stroke-width="2" fill="none"></path></g></g><mask></mask><g stroke-linecap="round"><g transform="translate(59.51805141314708 14.284943261782246) rotate(5.242460657226803 19.767090242148242 40.6150922494553)"><path d="M0.4 0.82 C4.63 9.98, 19.83 40.58, 26.46 54.05 C33.1 67.53, 38.16 77.31, 40.21 81.66 M-0.85 0.2 C3.18 9.1, 19.07 39.12, 25.84 52.35 C32.62 65.57, 37.68 74.83, 39.8 79.55" stroke="#ffa94d" stroke-width="2" fill="none"></path></g><g transform="translate(59.51805141314708 14.284943261782246) rotate(5.242460657226803 19.767090242148242 40.6150922494553)"><path d="M28.59 68.74 C33.96 73.74, 38.31 78.04, 39.8 79.55 M28.59 68.74 C32.76 71.87, 36.2 75.33, 39.8 79.55" stroke="#ffa94d" stroke-width="2" fill="none"></path></g><g transform="translate(59.51805141314708 14.284943261782246) rotate(5.242460657226803 19.767090242148242 40.6150922494553)"><path d="M38.15 64.06 C39.75 70.92, 40.36 77.05, 39.8 79.55 M38.15 64.06 C39.08 68.68, 39.31 73.71, 39.8 79.55" stroke="#ffa94d" stroke-width="2" fill="none"></path></g></g><mask></mask><g stroke-linecap="round"><g transform="translate(66.63981591878792 18.596027090447024) rotate(5.242460657226803 19.59060130081457 40.30186016953667)"><path d="M-0.24 0.6 C3.81 9.3, 17.8 38.92, 24.4 52.41 C31.01 65.9, 36.77 76.93, 39.38 81.54 M-1.83 -0.13 C2.57 8.74, 19.78 40.53, 26.54 53.84 C33.3 67.14, 36.35 75.18, 38.72 79.7" stroke="#ffd43b" stroke-width="2" fill="none"></path></g><g transform="translate(66.63981591878792 18.596027090447024) rotate(5.242460657226803 19.59060130081457 40.30186016953667)"><path d="M27.64 68.75 C31.87 70.76, 34.25 75.82, 38.72 79.7 M27.64 68.75 C32.62 72.21, 36.19 76.96, 38.72 79.7" stroke="#ffd43b" stroke-width="2" fill="none"></path></g><g transform="translate(66.63981591878792 18.596027090447024) rotate(5.242460657226803 19.59060130081457 40.30186016953667)"><path d="M37.27 64.19 C38.52 67.59, 37.91 74.06, 38.72 79.7 M37.27 64.19 C38.64 69.34, 38.56 75.81, 38.72 79.7" stroke="#ffd43b" stroke-width="2" fill="none"></path></g></g><mask></mask><g stroke-linecap="round"><g transform="translate(73.21551269955944 23.805953449238586) rotate(5.242460657226803 18.912548740848706 39.39709345800202)"><path d="M0.74 -0.87 C4.85 7.78, 19.17 37.78, 25.35 51.2 C31.53 64.61, 35.88 75.08, 37.83 79.62 M-0.33 1.29 C3.66 9.62, 18.73 36.53, 24.96 49.27 C31.19 62.01, 35.08 72.7, 37.07 77.71" stroke="#69db7c" stroke-width="2" fill="none"></path></g><g transform="translate(73.21551269955944 23.805953449238586) rotate(5.242460657226803 18.912548740848706 39.39709345800202)"><path d="M26.82 66.03 C29.29 71.52, 34.55 74.31, 37.07 77.71 M26.82 66.03 C30.73 70.88, 33.56 74.53, 37.07 77.71" stroke="#69db7c" stroke-width="2" fill="none"></path></g><g transform="translate(73.21551269955944 23.805953449238586) rotate(5.242460657226803 18.912548740848706 39.39709345800202)"><path d="M36.72 62.18 C35.64 69.1, 37.37 73.26, 37.07 77.71 M36.72 62.18 C36.95 68.42, 36.14 73.49, 37.07 77.71" stroke="#69db7c" stroke-width="2" fill="none"></path></g></g><mask></mask><g stroke-linecap="round"><g transform="translate(79.88983642188077 27.580547064171697) rotate(5.242460657226803 18.88120060981055 38.74230966347386)"><path d="M-0.25 0.08 C3.68 8.38, 18.18 36.13, 24.59 49.01 C31 61.89, 35.96 72.63, 38.2 77.37 M1.82 -0.93 C5.56 7.6, 17.94 37.02, 23.91 50.28 C29.89 63.54, 35.25 73.92, 37.66 78.63" stroke="#4dabf7" stroke-width="2" fill="none"></path></g><g transform="translate(79.88983642188077 27.580547064171697) rotate(5.242460657226803 18.88120060981055 38.74230966347386)"><path d="M26.26 68.02 C30.65 72.77, 34.25 76.72, 37.66 78.63 M26.26 68.02 C30.23 71.45, 33.07 74.76, 37.66 78.63" stroke="#4dabf7" stroke-width="2" fill="none"></path></g><g transform="translate(79.88983642188077 27.580547064171697) rotate(5.242460657226803 18.88120060981055 38.74230966347386)"><path d="M35.75 63.17 C36.48 69.76, 36.46 75.56, 37.66 78.63 M35.75 63.17 C36.97 68.01, 37.06 72.73, 37.66 78.63" stroke="#4dabf7" stroke-width="2" fill="none"></path></g></g><mask></mask><g stroke-linecap="round"><g transform="translate(88.6116212036527 30.661075911702937) rotate(5.242460657226803 18.427870707266038 39.82884178528366)"><path d="M-0.62 0.81 C3.34 9.74, 18.19 39.89, 24.26 52.88 C30.33 65.87, 33.64 74.2, 35.78 78.74 M1.25 0.19 C5.11 8.88, 17.75 38.15, 23.89 51.39 C30.03 64.62, 35.84 74.56, 38.12 79.57" stroke="#da77f2" stroke-width="2" fill="none"></path></g><g transform="translate(88.6116212036527 30.661075911702937) rotate(5.242460657226803 18.427870707266038 39.82884178528366)"><path d="M26.79 68.89 C31.62 74, 35.97 74.81, 38.12 79.57 M26.79 68.89 C28.86 71.63, 31.62 73.27, 38.12 79.57" stroke="#da77f2" stroke-width="2" fill="none"></path></g><g transform="translate(88.6116212036527 30.661075911702937) rotate(5.242460657226803 18.427870707266038 39.82884178528366)"><path d="M36.3 64.11 C37.88 70.79, 39 73.23, 38.12 79.57 M36.3 64.11 C36.27 67.95, 36.9 70.66, 38.12 79.57" stroke="#da77f2" stroke-width="2" fill="none"></path></g></g><mask></mask></svg>