<svg version="1.1" xmlns="http://www.w3.org/2000/svg" viewBox="0 0 596.4760238688959 209.9774714287596" width="596.4760238688959" height="209.9774714287596" filter="invert(93%) hue-rotate(180deg)">
  <!-- svg-source:excalidraw -->
  
  <defs>
    <style class="style-fonts">
      
    </style>
    
  </defs>
  <g stroke-linecap="round" transform="translate(340.49198631395757 16.72934248065394) rotate(0 119.75294588743282 68.39277491854227)"><path d="M0 0 C0 0, 0 0, 0 0 M0 0 C0 0, 0 0, 0 0 M0.13 12.04 C2.92 8.59, 7.11 6.21, 10.63 -0.03 M0.13 12.04 C3.82 7.86, 7.77 3.19, 10.63 -0.03 M0.27 24.08 C8.38 17.2, 11.11 10.84, 21.26 -0.07 M0.27 24.08 C6.68 17.33, 13.35 8.6, 21.26 -0.07 M-0.26 36.88 C7.98 26.91, 14.27 16.86, 31.89 -0.1 M-0.26 36.88 C12.97 22.2, 26.3 8.34, 31.89 -0.1 M-0.12 48.92 C11.79 36.55, 20.36 26.14, 42.52 -0.14 M-0.12 48.92 C16.61 30.02, 34.59 9.25, 42.52 -0.14 M0.01 60.96 C10.57 46.46, 24.1 36.73, 53.15 -0.17 M0.01 60.96 C21.14 36.59, 41.22 13.44, 53.15 -0.17 M0.14 73 C24.37 46.39, 48.68 15.6, 63.78 -0.21 M0.14 73 C16.96 53.25, 35.41 31.98, 63.78 -0.21 M0.28 85.04 C28.94 51.82, 59.37 19.34, 74.41 -0.24 M0.28 85.04 C16.1 66.38, 31.49 46.75, 74.41 -0.24 M-0.25 97.84 C18.57 70.84, 42.86 48.48, 85.04 -0.28 M-0.25 97.84 C30.33 62.5, 59.5 28.38, 85.04 -0.28 M-0.11 109.88 C32.37 75.23, 60.36 37.71, 95.67 -0.31 M-0.11 109.88 C27.08 79.08, 52.88 49.45, 95.67 -0.31 M0.02 121.92 C32.93 86.57, 66.22 47, 106.3 -0.34 M0.02 121.92 C32.18 82.38, 66.96 43.9, 106.3 -0.34 M0.15 133.96 C41.59 86.33, 83.69 37.01, 116.27 0.38 M0.15 133.96 C26.37 102.8, 52.14 71.46, 116.27 0.38 M8.16 136.94 C45.22 95.92, 84.61 51.78, 126.91 0.34 M8.16 136.94 C38.48 101.94, 71.64 63.67, 126.91 0.34 M18.79 136.91 C67.37 84.35, 111.67 30.56, 137.54 0.31 M18.79 136.91 C51.91 99.28, 86.27 61.21, 137.54 0.31 M29.42 136.87 C54.21 109.83, 79.21 80.36, 148.17 0.27 M29.42 136.87 C77.78 82.64, 124.24 27.81, 148.17 0.27 M40.05 136.84 C75.06 94.41, 114.83 50.61, 158.8 0.24 M40.05 136.84 C73.73 98.2, 109.03 56.73, 158.8 0.24 M50.68 136.81 C99.17 84.59, 143.29 30.5, 169.43 0.2 M50.68 136.81 C87.03 95.17, 124.76 50.78, 169.43 0.2 M61.31 136.77 C102.77 89.71, 147.92 40.89, 180.06 0.17 M61.31 136.77 C96.49 97.64, 132.75 56.38, 180.06 0.17 M71.94 136.74 C99.16 106.33, 124.91 77.89, 190.69 0.13 M71.94 136.74 C111.4 90.93, 150.59 46.61, 190.69 0.13 M82.57 136.7 C122.68 88.92, 166.72 42.51, 201.32 0.1 M82.57 136.7 C125.36 86.94, 167.65 39.49, 201.32 0.1 M93.2 136.67 C133.43 90.07, 176.15 40.55, 211.95 0.06 M93.2 136.67 C134.69 88.45, 176.33 38.94, 211.95 0.06 M103.83 136.63 C138.46 99.44, 169.78 59.91, 222.58 0.03 M103.83 136.63 C140.87 95.83, 177.7 53.78, 222.58 0.03 M114.46 136.6 C156.95 86.62, 203.52 31.93, 233.21 0 M114.46 136.6 C139.92 107.9, 163.97 78.57, 233.21 0 M124.43 137.32 C158.52 97.61, 194.59 56.49, 239.9 4.49 M124.43 137.32 C151.81 106.1, 180.08 73.64, 239.9 4.49 M135.06 137.28 C173.23 92.78, 213.33 44.68, 239.38 17.29 M135.06 137.28 C167.72 98.77, 201.82 60.83, 239.38 17.29 M145.69 137.25 C178.15 102.11, 208.92 64.23, 239.51 29.33 M145.69 137.25 C179.15 97.49, 213.89 57.83, 239.51 29.33 M156.32 137.21 C175.85 114, 197.73 90.36, 239.64 41.37 M156.32 137.21 C174.68 116.74, 192.25 97.42, 239.64 41.37 M166.95 137.18 C189.97 114.08, 211.01 86, 239.78 53.41 M166.95 137.18 C182.09 118.78, 196.09 102.45, 239.78 53.41 M177.58 137.15 C194.1 120.81, 207.63 104.14, 239.91 65.45 M177.58 137.15 C191.55 120.8, 204.8 105.56, 239.91 65.45 M188.21 137.11 C199.13 125.36, 211.63 110.36, 239.39 78.24 M188.21 137.11 C197.68 125.57, 208.97 113.96, 239.39 78.24 M198.84 137.08 C209.81 123.71, 224.2 110.66, 239.52 90.29 M198.84 137.08 C213.51 119.09, 229.18 102.13, 239.52 90.29 M209.47 137.04 C215.28 130.69, 220.63 122.46, 239.65 102.33 M209.47 137.04 C216.47 129.5, 223.9 119.43, 239.65 102.33 M220.1 137.01 C225.53 130.55, 233.36 122.17, 239.79 114.37 M220.1 137.01 C226.26 130.25, 232.62 121.09, 239.79 114.37 M230.73 136.97 C233.02 134.74, 235.09 132.24, 239.92 126.41 M230.73 136.97 C233.3 134.8, 234.03 132.46, 239.92 126.41" stroke="#fff4e6" stroke-width="1" fill="none"></path><path d="M0 0 C82.21 0.22, 167.01 1.27, 239.51 0 M0 0 C73.52 0.1, 147.31 -0.23, 239.51 0 M239.51 0 C242.04 52.1, 240.62 100.92, 239.51 136.79 M239.51 0 C239.7 34.68, 239.37 68.03, 239.51 136.79 M239.51 136.79 C182.88 137.62, 129.29 139.8, 0 136.79 M239.51 136.79 C191.09 138.31, 140.7 138.61, 0 136.79 M0 136.79 C-1.38 83.98, 0.15 33.85, 0 0 M0 136.79 C-0.98 87.28, -1.61 36.58, 0 0" stroke="#1e1e1e" stroke-width="2" fill="none"></path></g><g stroke-linecap="round"><g transform="translate(76.8801181984436 105.69866966421796) rotate(0 69.4332926304046 0.9199489685724984)"><path d="M0.55 -0.56 C0.83 -2.57, -0.37 -12.04, 1.94 -13.22 C4.25 -14.39, 12.14 -6.38, 14.41 -7.61 C16.68 -8.84, 13.18 -19.21, 15.56 -20.58 C17.94 -21.94, 25.56 -14.69, 28.69 -15.8 C31.82 -16.9, 31.77 -26.79, 34.34 -27.22 C36.91 -27.66, 41.19 -18.26, 44.11 -18.4 C47.02 -18.53, 49.06 -27.73, 51.83 -28.06 C54.61 -28.38, 57.71 -20.54, 60.74 -20.33 C63.77 -20.13, 67.5 -27.37, 70.01 -26.82 C72.51 -26.27, 73.33 -17.95, 75.76 -17.02 C78.18 -16.1, 81.92 -22.45, 84.55 -21.25 C87.18 -20.05, 88.8 -11.16, 91.53 -9.85 C94.27 -8.54, 98.7 -15.07, 100.98 -13.39 C103.27 -11.7, 102.53 -1.83, 105.26 0.26 C107.98 2.35, 115.25 -2.37, 117.31 -0.85 C119.37 0.66, 116.11 6.86, 117.61 9.33 C119.11 11.8, 124.85 11.26, 126.3 13.95 C127.76 16.65, 124.42 22.54, 126.35 25.52 C128.28 28.49, 135.8 30.8, 137.87 31.78 M-0.61 1.77 C-0.47 -0.51, -1.05 -13.68, 1.29 -15.05 C3.63 -16.42, 11.09 -5.67, 13.42 -6.47 C15.75 -7.27, 12.89 -18.3, 15.28 -19.88 C17.66 -21.45, 24.42 -15.06, 27.75 -15.93 C31.07 -16.8, 32.38 -25.03, 35.22 -25.1 C38.06 -25.17, 42.09 -15.89, 44.78 -16.37 C47.47 -16.85, 48.45 -27.62, 51.37 -27.98 C54.3 -28.34, 59.16 -18.72, 62.33 -18.54 C65.5 -18.36, 68.09 -27.36, 70.37 -26.91 C72.66 -26.46, 73.38 -16.82, 76.02 -15.84 C78.67 -14.87, 83.51 -21.87, 86.22 -21.06 C88.94 -20.24, 89.45 -12.21, 92.31 -10.94 C95.17 -9.68, 101.13 -15.2, 103.39 -13.48 C105.65 -11.76, 103.37 -2.89, 105.87 -0.63 C108.38 1.64, 116.58 -1.59, 118.43 0.12 C120.27 1.82, 115.33 7.75, 116.96 9.6 C118.58 11.45, 126.29 8.53, 128.2 11.2 C130.1 13.86, 126.8 22.38, 128.41 25.61 C130.01 28.83, 136.29 29.74, 137.84 30.56" stroke="#e8590c" stroke-width="2" fill="none"></path></g></g><mask></mask><g stroke-linecap="round"><g transform="translate(77.84840157575854 105.99386176828921) rotate(0 -33.226444368040575 45.34775943199929)"><path d="M-0.32 0.24 C-2.44 -0.49, -10.55 -4.99, -12.17 -3.27 C-13.79 -1.56, -8.43 7.98, -10.03 10.55 C-11.63 13.12, -20.29 10, -21.76 12.13 C-23.24 14.27, -17.58 20.64, -18.88 23.39 C-20.19 26.14, -28.4 25.9, -29.6 28.64 C-30.8 31.37, -24.27 38.52, -26.08 39.8 C-27.9 41.08, -39.15 39.12, -40.49 36.32 C-41.82 33.53, -34.74 27.5, -34.1 23.04 C-33.45 18.59, -33.93 13.85, -36.64 9.57 C-39.35 5.29, -48.85 -4.77, -50.36 -2.65 C-51.86 -0.53, -44.69 19.84, -45.66 22.29 C-46.62 24.75, -53.91 15.3, -56.16 12.09 C-58.4 8.88, -57.54 3.58, -59.13 3.04 C-60.73 2.5, -64.48 5.63, -65.71 8.86 C-66.94 12.08, -69.38 18.17, -66.5 22.41 C-63.61 26.64, -53.76 29.87, -48.39 34.25 C-43.02 38.63, -35.58 44.34, -34.28 48.67 C-32.98 53.01, -45.17 52.92, -40.59 60.25 C-36.01 67.58, -8.68 93.1, -6.79 92.65 C-4.9 92.2, -25.62 63.04, -29.25 57.55 M1.71 -0.67 C-0.63 -0.79, -11.68 -4.44, -13.23 -2.34 C-14.78 -0.24, -5.73 9.9, -7.62 11.93 C-9.5 13.97, -22.98 7.97, -24.55 9.87 C-26.11 11.76, -15.84 20.33, -17.01 23.31 C-18.19 26.3, -30.14 24.69, -31.58 27.77 C-33.03 30.86, -24.54 40.47, -25.68 41.82 C-26.82 43.17, -37.34 39.19, -38.43 35.88 C-39.53 32.57, -32.64 26.45, -32.26 21.95 C-31.88 17.45, -33.21 12.8, -36.15 8.9 C-39.1 4.99, -48.23 -3.69, -49.95 -1.48 C-51.68 0.73, -45.49 19.92, -46.48 22.15 C-47.48 24.38, -53.7 15.09, -55.94 11.89 C-58.18 8.68, -58.41 3.02, -59.92 2.95 C-61.43 2.88, -64.02 8.52, -64.99 11.45 C-65.96 14.39, -68.32 16.73, -65.72 20.58 C-63.13 24.43, -54.51 29.8, -49.4 34.55 C-44.29 39.3, -36.87 44.72, -35.06 49.08 C-33.25 53.44, -42.79 53.23, -38.52 60.71 C-34.25 68.19, -10.81 94.19, -9.45 93.98 C-8.09 93.77, -27.29 65.29, -30.38 59.44" stroke="#e8590c" stroke-width="2" fill="none"></path></g></g><mask></mask><g stroke-linecap="round"><g transform="translate(49.51330054580558 166.5067195772208) rotate(0 98.084843647257 -16.873275293321058)"><path d="M-0.33 0.3 C0.71 -0.73, 3.02 -6.35, 6.36 -5.78 C9.7 -5.22, 11.06 0.75, 19.73 3.72 C28.4 6.69, 47.63 10.43, 58.38 12.05 C69.12 13.67, 75.3 13.45, 84.2 13.46 C93.11 13.46, 103.05 13.34, 111.81 12.08 C120.57 10.82, 129.67 8.53, 136.77 5.9 C143.86 3.26, 150.01 -2.62, 154.36 -3.74 C158.71 -4.87, 163.08 -6.99, 162.85 -0.87 C162.62 5.24, 150.63 33.62, 152.98 32.95 C155.34 32.29, 174.66 2.91, 176.95 -4.88 C179.24 -12.67, 166.46 -10.13, 166.71 -13.79 C166.97 -17.45, 174.1 -22.85, 178.48 -26.84 C182.87 -30.83, 190.02 -33.91, 193.03 -37.73 C196.04 -41.56, 196.25 -45.78, 196.56 -49.79 C196.87 -53.79, 196.6 -62.14, 194.9 -61.77 C193.2 -61.4, 188.97 -50.54, 186.37 -47.58 C183.77 -44.61, 180.2 -40.66, 179.3 -43.97 C178.41 -47.29, 182.62 -64.92, 181.01 -67.48 C179.41 -70.03, 172.72 -62.92, 169.68 -59.32 C166.63 -55.71, 162.87 -50.38, 162.74 -45.85 C162.61 -41.31, 168.04 -35.53, 168.9 -32.11 C169.76 -28.69, 169.13 -27.61, 167.9 -25.32 C166.67 -23.03, 162.94 -19.24, 161.53 -18.36 C160.12 -17.47, 158.89 -18.09, 159.44 -20.03 C159.98 -21.97, 163.92 -28.43, 164.79 -30.02 M1.7 -0.58 C2.53 -1.44, 2.22 -4.59, 5.15 -4.19 C8.07 -3.8, 10.32 -1.07, 19.27 1.79 C28.22 4.65, 48.16 11.01, 58.84 12.95 C69.51 14.89, 74.27 13.66, 83.33 13.43 C92.38 13.21, 104.2 13.06, 113.19 11.61 C122.19 10.16, 130.03 7.27, 137.28 4.73 C144.53 2.19, 152.13 -2.5, 156.7 -3.65 C161.27 -4.8, 165.74 -8.2, 164.72 -2.15 C163.7 3.9, 149 33, 150.57 32.64 C152.14 32.29, 171.59 3.55, 174.14 -4.27 C176.68 -12.1, 164.98 -10.91, 165.82 -14.3 C166.66 -17.68, 174.79 -20.68, 179.15 -24.6 C183.52 -28.52, 189.03 -33.5, 192.02 -37.8 C195.01 -42.1, 196.43 -46.08, 197.09 -50.38 C197.76 -54.67, 197.93 -64.11, 196.01 -63.56 C194.08 -63.01, 188.48 -50.44, 185.54 -47.1 C182.59 -43.75, 178.73 -40.04, 178.33 -43.48 C177.93 -46.93, 184.47 -65.34, 183.12 -67.77 C181.76 -70.2, 173.21 -61.56, 170.2 -58.05 C167.18 -54.54, 165.13 -50.89, 165.04 -46.7 C164.95 -42.51, 169.26 -36.89, 169.65 -32.92 C170.05 -28.96, 168.49 -25.22, 167.42 -22.91 C166.34 -20.6, 164.25 -19.6, 163.19 -19.07 C162.14 -18.55, 160.62 -17.89, 161.08 -19.74 C161.54 -21.58, 165.12 -28.46, 165.95 -30.14" stroke="#e8590c" stroke-width="2" fill="none"></path></g></g><mask></mask><g stroke-linecap="round" transform="translate(107.59034903449901 138.50855234898881) rotate(0 9.772849100771964 11.323848447206728)"><path d="M10.28 -0.3 C12.22 -0.49, 14.54 1.02, 16.14 2.61 C17.73 4.21, 19.55 6.79, 19.86 9.24 C20.17 11.7, 19.16 15.12, 18.01 17.34 C16.86 19.56, 14.95 21.8, 12.96 22.56 C10.96 23.32, 7.97 22.81, 6.06 21.9 C4.14 20.99, 2.45 19.19, 1.45 17.09 C0.45 14.98, -0.27 11.75, 0.05 9.27 C0.38 6.8, 1.72 3.87, 3.41 2.25 C5.1 0.62, 8.94 -0.19, 10.19 -0.46 C11.45 -0.73, 10.99 0.42, 10.94 0.63 M10.18 0.26 C12.09 0.45, 15.13 1.81, 16.59 3.53 C18.05 5.25, 18.69 8.11, 18.93 10.56 C19.18 13.02, 19.24 16.26, 18.06 18.28 C16.88 20.3, 13.89 22.2, 11.85 22.7 C9.81 23.2, 7.62 22.52, 5.83 21.29 C4.04 20.07, 1.93 17.39, 1.11 15.34 C0.29 13.29, 0.32 11.22, 0.93 9 C1.53 6.77, 3.22 3.38, 4.76 1.99 C6.3 0.59, 9.26 0.99, 10.19 0.61 C11.12 0.23, 10.18 -0.37, 10.33 -0.29" stroke="#e8590c" stroke-width="2" fill="none"></path></g><g stroke-linecap="round" transform="translate(142.08333192463488 139.20803352657822) rotate(0 10.189555362946976 11.323848447206728)"><path d="M8.61 0.05 C10.63 -0.42, 13.73 0.74, 15.59 2.08 C17.44 3.42, 19.01 5.9, 19.74 8.09 C20.47 10.28, 20.72 13.11, 19.99 15.24 C19.25 17.36, 17.22 19.72, 15.33 20.85 C13.43 21.98, 10.87 22.44, 8.62 22.03 C6.38 21.62, 3.22 20.19, 1.86 18.41 C0.5 16.63, 0.4 13.83, 0.47 11.34 C0.54 8.86, 0.78 5.37, 2.29 3.49 C3.8 1.62, 8.26 0.7, 9.53 0.08 C10.8 -0.53, 9.92 -0.46, 9.89 -0.22 M7.98 0.05 C10.05 -0.43, 14.15 0.01, 16.16 1.24 C18.17 2.48, 19.43 4.99, 20.06 7.45 C20.7 9.92, 20.68 13.69, 19.96 16.04 C19.24 18.38, 17.81 20.36, 15.75 21.5 C13.68 22.65, 9.81 23.48, 7.55 22.89 C5.3 22.31, 3.4 20.01, 2.21 18.01 C1.01 16, 0.29 13.24, 0.38 10.86 C0.47 8.49, 1.36 5.59, 2.72 3.76 C4.09 1.92, 7.67 0.35, 8.55 -0.14 C9.44 -0.62, 8.01 0.63, 8.02 0.83" stroke="#e8590c" stroke-width="2" fill="none"></path></g><g stroke-linecap="round"><g transform="translate(128.27604482103288 167.09479180976814) rotate(0 7.60044963619066 2.469629020866705)"><path d="M-0.15 -0.14 C2.5 -0.27, 14.18 -2.03, 15.93 -1.13 C17.67 -0.22, 12.42 4.2, 10.33 5.28 C8.23 6.37, 5.28 6.4, 3.36 5.39 C1.44 4.38, -0.41 0.17, -1.19 -0.8 M0.78 -0.68 C3.34 -0.73, 13.7 -1.49, 15.46 -0.66 C17.23 0.17, 13.4 3.24, 11.37 4.31 C9.34 5.38, 5.26 6.6, 3.3 5.77 C1.34 4.94, 0.31 0.42, -0.4 -0.68" stroke="#e8590c" stroke-width="2" fill="none"></path></g></g><mask></mask><g stroke-linecap="round"><g transform="translate(501.05741789316926 84.5311926348295) rotate(0 14.356357139498868 -16.836091554502673)"><path d="M0.18 -0.68 C5.29 -6.4, 32 -27.81, 31.32 -33.4 C30.64 -38.98, 1.82 -34.11, -3.91 -34.19 M-1.19 1.57 C4.27 -4.09, 33.75 -26.5, 33.72 -32.29 C33.68 -38.08, 4.69 -33.05, -1.39 -33.15" stroke="#e8590c" stroke-width="2" fill="none"></path></g></g><mask></mask><g stroke-linecap="round"><g transform="translate(499.4015747258627 50.58710882242303) rotate(0 -20.274275948990635 20.292629246469915)"><path d="M-0.07 -0.05 C-7.11 6.51, -34.75 33.65, -41.64 40.54 M-1.56 -1.13 C-8.3 6.14, -33.27 35.32, -39.51 42.05" stroke="#e8590c" stroke-width="2" fill="none"></path></g></g><mask></mask><g stroke-linecap="round"><g transform="translate(460.3314628112439 91.61828446893924) rotate(0 -23.316844820031747 -21.176306532518538)"><path d="M-0.51 0.43 C-8.11 -6.71, -38.78 -35.96, -46.49 -43.21 M1.43 -0.38 C-6.25 -7.36, -39.19 -35.16, -47.37 -42.12" stroke="#e8590c" stroke-width="2" fill="none"></path></g></g><mask></mask><g stroke-linecap="round"><g transform="translate(414.0949972449989 49.806401958379865) rotate(0 4.635173481163747 38.25886147433994)"><path d="M0 0 C-6.11 1.54, -15.61 -1.03, -34.22 -0.63 M0 0 C-8.8 -0.87, -17.25 -0.88, -34.22 -0.63 M-34.22 -0.63 C-2.25 28.68, 29.02 60.85, 43.49 77.14 M-34.22 -0.63 C-15.92 19.23, 4.26 40.03, 43.49 77.14" stroke="#e8590c" stroke-width="2" fill="none"></path></g></g><mask></mask><g stroke-linecap="round"><g transform="translate(456.60808315326994 127.56243084732523) rotate(0 39.540509250782634 -20.81671785227263)"><path d="M0 0 C8.8 -6.68, 13.74 -13.64, 26.33 -22.35 M0 0 C5.16 -5.05, 12.03 -9.47, 26.33 -22.35 M26.33 -22.35 C29.6 -20.23, 35.67 -15.23, 42.95 -8.95 M26.33 -22.35 C31.62 -18.45, 35.83 -13.42, 42.95 -8.95 M42.95 -8.95 C52.3 -9.71, 56.46 -9.04, 79.08 -7.5 M42.95 -8.95 C53.12 -8.7, 61.46 -7.33, 79.08 -7.5 M79.08 -7.5 C69.35 -18.79, 59.4 -25.55, 42.58 -41.63 M79.08 -7.5 C70.31 -16.06, 58.88 -26.06, 42.58 -41.63" stroke="#e8590c" stroke-width="2" fill="none"></path></g></g><mask></mask><g stroke-linecap="round"><g transform="translate(434.69695238839995 51.82650006016047) rotate(0 18.69862034667085 11.084276463907372)"><path d="M0 0 C4.34 5.06, 11.43 11.75, 22.34 24.02 M0 0 C4.46 5.17, 9.55 10.16, 22.34 24.02 M22.34 24.02 C25.4 21.58, 28.39 17.53, 37.4 8.63 M22.34 24.02 C26.91 19.56, 31.17 14.51, 37.4 8.63 M37.4 8.63 C35.76 5.93, 34.03 3.8, 29.02 -1.85 M37.4 8.63 C34.27 5.17, 31.3 1.27, 29.02 -1.85 M29.02 -1.85 C20.99 -2.1, 12 -2.43, 1.02 -0.97 M29.02 -1.85 C20.49 -1.24, 12.75 -0.88, 1.02 -0.97" stroke="#1e1e1e" stroke-width="2" fill="none"></path></g></g><mask></mask><g stroke-linecap="round" transform="translate(332.5652394202025 10) rotate(0 126.95539222434672 75.76460967944331)"><path d="M0 0 C100.21 -0.82, 196.87 -0.74, 253.91 0 M0 0 C101 -0.02, 203.19 -0.91, 253.91 0 M253.91 0 C254.65 49.94, 253.99 100.63, 253.91 151.53 M253.91 0 C254.03 45.68, 253.86 92.93, 253.91 151.53 M253.91 151.53 C201.85 149.67, 150.09 149.86, 0 151.53 M253.91 151.53 C186.4 149.74, 120.73 150.14, 0 151.53 M0 151.53 C-0.81 94.9, -0.65 39.32, 0 0 M0 151.53 C-0.81 103.55, -2.15 52.98, 0 0" stroke="#1e1e1e" stroke-width="2" fill="none"></path></g><g stroke-linecap="round" transform="translate(364.2765026375009 147.5904180890684) rotate(0 9.818665223000153 2.218003645511999)"><path d="M0 0 C5.81 -0.16, 12.92 0.52, 19.64 0 M0 0 C4.55 -0.38, 9.97 0.05, 19.64 0 M19.64 0 C19.79 1.44, 19.47 2.54, 19.64 4.44 M19.64 0 C19.56 1.26, 19.6 2.66, 19.64 4.44 M19.64 4.44 C15.6 5.01, 9.87 4.61, 0 4.44 M19.64 4.44 C12.22 4.21, 5.37 4.71, 0 4.44 M0 4.44 C-0.13 2.99, -0.11 1.63, 0 0 M0 4.44 C0.04 3.24, -0.09 1.9, 0 0" stroke="#1e1e1e" stroke-width="2" fill="none"></path></g><g stroke-linecap="round" transform="translate(382.48235234844924 143.97787255537696) rotate(20.242470505859547 9.818665223000153 2.218003645511999)"><path d="M0 0 C3.64 0.97, 9.84 0.75, 19.64 0 M0 0 C4.09 -0.26, 8.52 0.09, 19.64 0 M19.64 0 C19.74 1.23, 19.53 2.27, 19.64 4.44 M19.64 0 C19.59 1.63, 19.56 3.32, 19.64 4.44 M19.64 4.44 C11.88 4.24, 6.31 5.2, 0 4.44 M19.64 4.44 C14.9 4.93, 10.86 4.54, 0 4.44 M0 4.44 C-0.1 3.11, 0.14 1.33, 0 0 M0 4.44 C0.12 3.44, -0.07 2.41, 0 0" stroke="#1e1e1e" stroke-width="2" fill="none"></path></g><g stroke-linecap="round"><g transform="translate(116.00708941579069 141.67509258948667) rotate(0 -2.23115627582456 4.758330678659149)"><path d="M0.74 -0.25 C0.99 0.27, 2.11 2.04, 1.99 3.66 C1.87 5.28, 1.32 8.69, 0.05 9.46 C-1.23 10.23, -4.44 8.53, -5.66 8.3 C-6.89 8.06, -7.14 8.22, -7.31 8.04 M0.21 -1.03 C0.65 -0.43, 3.49 2.77, 3.44 4.65 C3.4 6.53, 1.47 9.58, -0.06 10.25 C-1.59 10.92, -4.7 9.33, -5.71 8.67 C-6.72 8.02, -5.76 6.7, -6.14 6.33" stroke="#e8590c" stroke-width="2" fill="none"></path></g></g><mask></mask><g stroke-linecap="round"><g transform="translate(152.01868520340122 141.0288686398544) rotate(0 -2.23115627582456 4.758330678659149)"><path d="M-0.65 0.14 C-0.07 0.72, 3.11 1.57, 3.03 3.24 C2.95 4.91, 0.38 9.29, -1.13 10.15 C-2.64 11.01, -4.96 8.82, -6.01 8.38 C-7.06 7.93, -7.37 7.57, -7.44 7.5 M0.39 -0.44 C0.97 0.26, 2.72 2.44, 2.73 4.02 C2.74 5.59, 1.94 8.21, 0.45 9.01 C-1.05 9.81, -5.11 9, -6.24 8.8 C-7.37 8.59, -6.11 8.01, -6.34 7.8" stroke="#e8590c" stroke-width="2" fill="none"></path></g></g><mask></mask></svg>