<svg version="1.1" xmlns="http://www.w3.org/2000/svg" viewBox="0 0 125.43199870142416 193.67852012775984" width="125.43199870142416" height="193.67852012775984" filter="invert(93%) hue-rotate(180deg)">
  <!-- svg-source:excalidraw -->
  
  <defs>
    <style class="style-fonts">
      
    </style>
    
  </defs>
  <g stroke-linecap="round" transform="translate(16.27161851533856 10) rotate(0 46.43367597056249 86.83926006387992)"><path d="M23.22 0 C34.99 1.35, 43.72 -0.12, 69.65 0 M23.22 0 C34.28 1.07, 44.44 0.66, 69.65 0 M69.65 0 C86.79 1.05, 93.76 5.8, 92.87 23.22 M69.65 0 C85.61 0.35, 93.35 6.03, 92.87 23.22 M92.87 23.22 C89.97 54.37, 90.21 86.89, 92.87 150.46 M92.87 23.22 C91.31 54.94, 92.79 84.65, 92.87 150.46 M92.87 150.46 C92.63 164.85, 86.1 172.01, 69.65 173.68 M92.87 150.46 C94.4 167.05, 85.1 175.5, 69.65 173.68 M69.65 173.68 C55.86 175.77, 43.85 172.22, 23.22 173.68 M69.65 173.68 C58.9 173.89, 49.14 173.69, 23.22 173.68 M23.22 173.68 C7.07 175.56, -1.93 167.68, 0 150.46 M23.22 173.68 C6.85 171.43, 0.06 167.56, 0 150.46 M0 150.46 C1.61 105.33, 0.08 59.49, 0 23.22 M0 150.46 C1.06 106.88, 0.68 65.15, 0 23.22 M0 23.22 C-0.58 8.07, 8.7 -1.87, 23.22 0 M0 23.22 C1.89 8.7, 5.49 0.76, 23.22 0" stroke="#1e1e1e" stroke-width="4" fill="none"></path></g><g stroke-linecap="round" transform="translate(50.35620258562449 43.80899338048039) rotate(0 11.86281812700463 11.944209675046295)"><path d="M11.45 -0.02 C13.99 -0.36, 17.71 0.47, 19.76 2.14 C21.81 3.82, 23.29 7.42, 23.75 10.05 C24.21 12.68, 23.86 15.74, 22.52 17.93 C21.17 20.12, 18.06 22.29, 15.66 23.19 C13.26 24.09, 10.49 24.23, 8.11 23.35 C5.72 22.47, 2.74 20.05, 1.34 17.91 C-0.06 15.77, -0.67 13.07, -0.29 10.52 C0.08 7.96, 1.63 4.39, 3.61 2.56 C5.59 0.74, 10.19 0.01, 11.59 -0.43 C13 -0.88, 12 -0.31, 12.04 -0.1 M14.62 -0.06 C16.96 0.28, 20.21 2.08, 21.81 4.28 C23.4 6.47, 24.43 10.36, 24.2 13.12 C23.96 15.87, 22.27 18.96, 20.4 20.82 C18.54 22.68, 15.43 24.13, 13 24.27 C10.57 24.4, 7.8 23.09, 5.82 21.62 C3.84 20.15, 2.03 17.98, 1.12 15.45 C0.2 12.92, -0.53 8.71, 0.34 6.45 C1.21 4.18, 4.06 2.88, 6.34 1.84 C8.62 0.8, 12.74 0.48, 14.02 0.22 C15.3 -0.04, 14 -0.03, 14.02 0.3" stroke="#1e1e1e" stroke-width="4" fill="none"></path></g><g stroke-linecap="round" transform="translate(49.98485364768749 78.07313944857742) rotate(0 11.86281812700463 11.944209675046295)"><path d="M14.37 -0.32 C16.85 0.03, 19.59 2.6, 21.2 4.68 C22.8 6.76, 24.11 9.65, 23.99 12.16 C23.87 14.67, 22.14 17.78, 20.47 19.72 C18.81 21.66, 16.49 23.42, 14.01 23.81 C11.52 24.2, 7.85 23.3, 5.57 22.08 C3.28 20.85, 1.17 18.88, 0.28 16.45 C-0.6 14.01, -0.61 10.03, 0.26 7.48 C1.14 4.93, 3.26 2.43, 5.54 1.17 C7.81 -0.1, 12.47 0.06, 13.92 -0.11 C15.38 -0.27, 14.18 -0.13, 14.27 0.19 M12.01 -0.62 C14.52 -0.69, 17.9 1.2, 19.82 3.02 C21.73 4.83, 23.11 7.72, 23.5 10.25 C23.88 12.77, 23.25 16.07, 22.12 18.17 C20.99 20.27, 18.94 21.97, 16.7 22.85 C14.46 23.73, 11.28 24.33, 8.66 23.43 C6.05 22.53, 2.49 19.57, 1.02 17.45 C-0.45 15.32, -0.55 13.15, -0.16 10.71 C0.23 8.27, 1.52 4.64, 3.38 2.81 C5.24 0.98, 9.68 0.03, 11.01 -0.28 C12.35 -0.59, 11.41 0.59, 11.4 0.95" stroke="#1e1e1e" stroke-width="4" fill="none"></path></g><g stroke-linecap="round" transform="translate(58.64449596298982 66.89363036211944) rotate(0 2.9627984425210343 5.638062455240288)"><path d="M1.48 0 C2.3 -0.02, 3.35 -0.16, 4.44 0 M1.48 0 C2.55 -0.08, 3.57 0, 4.44 0 M4.44 0 C5.64 -0.74, 5.5 -0.38, 5.93 1.48 M4.44 0 C6.38 -1.03, 5.03 -0.4, 5.93 1.48 M5.93 1.48 C5.74 2.97, 6.3 5.35, 5.93 9.79 M5.93 1.48 C6.02 3.74, 6.06 6.45, 5.93 9.79 M5.93 9.79 C5.91 11.58, 5.26 11.87, 4.44 11.28 M5.93 9.79 C6.8 10.41, 6.43 11.56, 4.44 11.28 M4.44 11.28 C3.95 11.13, 3.18 11.15, 1.48 11.28 M4.44 11.28 C3.6 11.35, 2.86 11.22, 1.48 11.28 M1.48 11.28 C0.52 11.98, 0.51 9.84, 0 9.79 M1.48 11.28 C-0.35 11.51, -0.25 10.14, 0 9.79 M0 9.79 C0.4 8.23, -0.41 6.23, 0 1.48 M0 9.79 C0.11 7.12, 0.18 4.92, 0 1.48 M0 1.48 C-0.98 0.83, 0.25 0.49, 1.48 0 M0 1.48 C-0.62 0.83, 1.21 0, 1.48 0" stroke="#1e1e1e" stroke-width="4" fill="none"></path></g><g transform="translate(61.61890468304955 55.70224547199177) rotate(0 0.00005000000010113581 0.00004999999964638846)" stroke="none"><path fill="#1e1e1e" d="M 3.14,-3.14 Q 3.14,-3.14 3.55,-2.55 3.97,-1.97 4.18,-1.28 4.40,-0.59 4.38,0.11 4.36,0.83 4.11,1.51 3.86,2.18 3.41,2.74 2.96,3.30 2.36,3.69 1.75,4.07 1.05,4.25 0.36,4.42 -0.35,4.36 -1.07,4.30 -1.73,4.02 -2.39,3.74 -2.92,3.26 -3.46,2.78 -3.81,2.15 -4.16,1.53 -4.30,0.82 -4.43,0.11 -4.34,-0.59 -4.24,-1.30 -3.92,-1.94 -3.60,-2.59 -3.09,-3.09 -2.59,-3.60 -1.94,-3.92 -1.30,-4.24 -0.59,-4.34 0.12,-4.43 0.82,-4.30 1.53,-4.16 2.15,-3.81 2.78,-3.46 3.26,-2.92 3.74,-2.39 4.02,-1.73 4.31,-1.07 4.36,-0.35 4.42,0.36 4.25,1.05 4.07,1.75 3.69,2.36 3.30,2.96 2.74,3.41 2.18,3.86 1.51,4.11 0.83,4.36 0.11,4.38 -0.60,4.40 -1.28,4.18 -1.97,3.97 -2.55,3.55 -3.14,3.13 -3.14,3.14 -3.14,3.14 -3.47,2.71 -3.80,2.29 -4.02,1.80 -4.24,1.32 -4.33,0.79 -4.43,0.26 -4.40,-0.26 -4.36,-0.80 -4.20,-1.31 -4.04,-1.82 -3.77,-2.28 -3.49,-2.73 -3.11,-3.11 -2.73,-3.49 -2.28,-3.77 -1.82,-4.05 -1.31,-4.20 -0.80,-4.36 -0.26,-4.40 0.26,-4.43 0.79,-4.33 1.32,-4.24 1.80,-4.02 2.29,-3.80 2.71,-3.47 3.14,-3.14 3.14,-3.14 L 3.14,-3.14 Z"></path></g><g transform="translate(61.73053334290125 90.3270637150199) rotate(0 0.00005000000010113581 0.00004999999964638846)" stroke="none"><path fill="#1e1e1e" d="M 3.14,-3.14 Q 3.14,-3.14 3.55,-2.55 3.97,-1.97 4.18,-1.28 4.40,-0.59 4.38,0.11 4.36,0.83 4.11,1.51 3.86,2.18 3.41,2.74 2.96,3.30 2.36,3.69 1.75,4.07 1.05,4.25 0.36,4.42 -0.35,4.36 -1.07,4.30 -1.73,4.02 -2.39,3.74 -2.92,3.26 -3.46,2.78 -3.81,2.15 -4.16,1.53 -4.30,0.82 -4.43,0.11 -4.34,-0.59 -4.24,-1.30 -3.92,-1.94 -3.60,-2.59 -3.09,-3.09 -2.59,-3.60 -1.94,-3.92 -1.30,-4.24 -0.59,-4.34 0.12,-4.43 0.82,-4.30 1.53,-4.16 2.15,-3.81 2.78,-3.46 3.26,-2.92 3.74,-2.39 4.02,-1.73 4.31,-1.07 4.36,-0.35 4.42,0.36 4.25,1.05 4.07,1.75 3.69,2.36 3.30,2.96 2.74,3.41 2.18,3.86 1.51,4.11 0.83,4.36 0.11,4.38 -0.60,4.40 -1.28,4.18 -1.97,3.97 -2.55,3.55 -3.14,3.13 -3.14,3.14 -3.14,3.14 -3.47,2.71 -3.80,2.29 -4.02,1.80 -4.24,1.32 -4.33,0.79 -4.43,0.26 -4.40,-0.26 -4.36,-0.80 -4.20,-1.31 -4.04,-1.82 -3.77,-2.28 -3.49,-2.73 -3.11,-3.11 -2.73,-3.49 -2.28,-3.77 -1.82,-4.05 -1.31,-4.20 -0.80,-4.36 -0.26,-4.40 0.26,-4.43 0.79,-4.33 1.32,-4.24 1.80,-4.02 2.29,-3.80 2.71,-3.47 3.14,-3.14 3.14,-3.14 L 3.14,-3.14 Z"></path></g><g stroke-linecap="round" transform="translate(44.846533896185065 113.39989882999362) rotate(0 17.52504641149244 17.52504641149244)"><path d="M19.54 0.21 C23.13 0.33, 27.33 2.45, 29.84 5.22 C32.34 7.98, 34.35 13.1, 34.58 16.82 C34.81 20.54, 33.41 24.64, 31.19 27.53 C28.97 30.41, 24.89 33.23, 21.27 34.12 C17.65 35.01, 12.78 34.54, 9.45 32.88 C6.12 31.23, 2.66 27.53, 1.28 24.21 C-0.09 20.89, 0.11 16.54, 1.19 12.99 C2.28 9.43, 4.59 4.95, 7.78 2.88 C10.97 0.8, 18.11 0.8, 20.36 0.52 C22.61 0.24, 21.25 0.95, 21.29 1.2 M21.55 0.1 C25.22 0.54, 29.73 3.91, 31.86 6.77 C34 9.63, 34.61 13.45, 34.36 17.28 C34.12 21.1, 32.86 26.82, 30.38 29.72 C27.89 32.63, 23.24 34.31, 19.47 34.72 C15.7 35.13, 10.91 34.02, 7.77 32.21 C4.64 30.39, 1.89 27.24, 0.67 23.83 C-0.55 20.43, -0.88 15.53, 0.48 11.8 C1.84 8.06, 5.41 3.23, 8.83 1.41 C12.25 -0.41, 18.92 1.11, 21 0.87 C23.07 0.63, 21.44 -0.25, 21.29 -0.02" stroke="#1e1e1e" stroke-width="4" fill="none"></path></g><g stroke-linecap="round" transform="translate(49.844760300380585 118.80567020127637) rotate(0 12.654910872206528 12.730124549286302)"><path d="M16.25 3.25 C17.67 5.9, 20.87 8.39, 22.06 9.75 M16.25 3.25 C17.89 4.38, 18.51 5.9, 22.06 9.75 M22.06 9.75 C23.57 11.83, 23.93 12.24, 22.06 16.25 M22.06 9.75 C23.73 15.23, 27.15 12.83, 22.06 16.25 M22.06 16.25 C19.66 18.55, 19.08 19.7, 16.25 22.21 M22.06 16.25 C20.16 18.41, 18 20.91, 16.25 22.21 M16.25 22.21 C11.19 23.7, 12.19 27.11, 9.75 22.21 M16.25 22.21 C10.89 25.06, 11.06 24.6, 9.75 22.21 M9.75 22.21 C8.73 20.22, 5.37 18.99, 3.25 16.25 M9.75 22.21 C6.99 20.03, 4.81 17.48, 3.25 16.25 M3.25 16.25 C-1.57 13.7, -0.63 15, 3.25 9.75 M3.25 16.25 C1.51 10.84, 0.64 12.97, 3.25 9.75 M3.25 9.75 C4.14 8.71, 7.15 5.29, 9.75 3.25 M3.25 9.75 C5.18 7.69, 7.88 5.39, 9.75 3.25 M9.75 3.25 C11.37 1.79, 14.69 0.9, 16.25 3.25 M9.75 3.25 C13.96 1.1, 13.41 0.67, 16.25 3.25" stroke="#1e1e1e" stroke-width="4" fill="none"></path></g><g stroke-linecap="round" transform="translate(58.74290178507181 127.30677294450288) rotate(0 3.678759662961511 4.067130657250345)"><path d="M5 1.25 C5.47 2.13, 5.86 2.93, 6.36 3.75 M5 1.25 C5.26 1.75, 5.54 2.29, 6.36 3.75 M6.36 3.75 C6.9 4.75, 6.9 5.65, 6.36 6.25 M6.36 3.75 C7.97 4.94, 7.27 4.58, 6.36 6.25 M6.36 6.25 C5.91 6.47, 5.45 6.69, 5 6.88 M6.36 6.25 C5.89 6.48, 5.36 6.68, 5 6.88 M5 6.88 C3.73 8.68, 3.39 8.02, 3 6.88 M5 6.88 C3.35 7.85, 3.74 8.86, 3 6.88 M3 6.88 C2.52 6.75, 2.23 6.66, 1 6.25 M3 6.88 C2.58 6.74, 2.15 6.64, 1 6.25 M1 6.25 C-0.21 5.67, 0.44 4.37, 1 3.75 M1 6.25 C0.21 4.99, -0.22 5.13, 1 3.75 M1 3.75 C1.75 2.77, 2.44 1.98, 3 1.25 M1 3.75 C1.74 2.87, 2.36 2.05, 3 1.25 M3 1.25 C4.56 0.3, 4.28 0.32, 5 1.25 M3 1.25 C4.14 0.22, 3.39 0.64, 5 1.25" stroke="#1e1e1e" stroke-width="4" fill="none"></path></g><g stroke-linecap="round" transform="translate(10 27.821880632611283) rotate(0 6.1254456538549675 6.355702708818171)"><path d="M5.02 -0.35 C6.26 -0.71, 8.03 -0.12, 9.15 0.64 C10.27 1.41, 11.32 2.92, 11.72 4.24 C12.12 5.57, 11.94 7.21, 11.54 8.58 C11.14 9.95, 10.46 11.81, 9.31 12.46 C8.16 13.11, 6.02 12.82, 4.62 12.47 C3.22 12.12, 1.74 11.38, 0.91 10.35 C0.07 9.31, -0.58 7.66, -0.4 6.26 C-0.23 4.86, 0.88 3, 1.95 1.95 C3.02 0.89, 5.32 0.18, 6.01 -0.06 C6.7 -0.3, 6.15 0.33, 6.06 0.52 M6.21 0.63 C7.45 0.72, 8.76 0.83, 9.66 1.62 C10.56 2.41, 11.36 3.87, 11.58 5.36 C11.8 6.86, 11.72 9.29, 10.98 10.58 C10.24 11.87, 8.4 12.96, 7.13 13.1 C5.87 13.25, 4.46 12.01, 3.38 11.45 C2.3 10.88, 1.13 10.93, 0.66 9.71 C0.19 8.5, 0.34 5.54, 0.56 4.15 C0.77 2.77, 0.97 2.15, 1.94 1.39 C2.91 0.63, 5.69 -0.24, 6.35 -0.41 C7.01 -0.57, 5.93 0.1, 5.91 0.4" stroke="#1e1e1e" stroke-width="4" fill="none"></path></g><g stroke-linecap="round" transform="translate(101.99488140975154 25.9478870979583) rotate(0 6.311416454558639 6.355702708818171)"><path d="M7.21 -0.3 C8.51 -0.11, 10.11 0.99, 10.98 2.08 C11.85 3.16, 12.34 4.72, 12.43 6.21 C12.52 7.69, 12.38 9.92, 11.5 10.99 C10.63 12.05, 8.64 12.42, 7.18 12.59 C5.72 12.76, 3.93 12.65, 2.72 12 C1.5 11.35, 0.24 10.01, -0.1 8.68 C-0.44 7.35, 0.05 5.33, 0.69 3.99 C1.33 2.66, 2.5 1.25, 3.72 0.67 C4.94 0.1, 7.36 0.53, 8.02 0.54 C8.67 0.55, 7.7 0.78, 7.65 0.75 M4.24 0.02 C5.42 -0.49, 7.31 -0.34, 8.58 0.43 C9.85 1.19, 11.38 3.2, 11.89 4.62 C12.39 6.03, 12.02 7.84, 11.61 8.9 C11.2 9.96, 10.44 10.26, 9.43 10.98 C8.41 11.69, 6.75 13.36, 5.52 13.19 C4.29 13.02, 3.06 11.02, 2.05 9.95 C1.04 8.89, -0.39 8.11, -0.54 6.8 C-0.7 5.49, 0.32 3.14, 1.13 2.08 C1.95 1.01, 3.74 0.59, 4.34 0.42 C4.94 0.24, 4.52 1.09, 4.72 1.03" stroke="#1e1e1e" stroke-width="4" fill="none"></path></g><g stroke-linecap="round" transform="translate(102.49421962215092 154.23378473220146) rotate(0 6.468889539636621 6.355702708818171)"><path d="M4.93 -0.23 C6.24 -0.54, 8.06 -0.33, 9.4 0.45 C10.75 1.23, 12.46 3.15, 12.99 4.47 C13.51 5.78, 13.13 7.09, 12.55 8.35 C11.98 9.62, 10.79 11.27, 9.54 12.04 C8.29 12.81, 6.34 13.22, 5.05 12.97 C3.77 12.72, 2.61 11.62, 1.84 10.53 C1.06 9.43, 0.42 7.69, 0.4 6.4 C0.38 5.1, 0.93 3.73, 1.73 2.75 C2.53 1.77, 4.54 1.03, 5.19 0.53 C5.84 0.03, 5.66 -0.25, 5.63 -0.25 M7.16 -0.15 C8.54 0.18, 10.46 1.91, 11.31 3.13 C12.15 4.36, 12.26 6.09, 12.21 7.21 C12.16 8.33, 11.8 8.87, 11 9.86 C10.2 10.86, 8.67 12.98, 7.41 13.18 C6.15 13.37, 4.71 11.83, 3.44 11.05 C2.17 10.27, 0.3 9.74, -0.23 8.49 C-0.75 7.24, -0.2 4.82, 0.3 3.57 C0.81 2.33, 1.62 1.46, 2.83 1.02 C4.04 0.57, 6.65 1.13, 7.56 0.88 C8.46 0.64, 8.21 -0.42, 8.26 -0.45" stroke="#1e1e1e" stroke-width="4" fill="none"></path></g><g stroke-linecap="round" transform="translate(10.855270262600243 155.62207200832927) rotate(0 5.981946075914038 6.355702708818171)"><path d="M4.5 -0.19 C5.8 -0.43, 8.07 0.44, 9.23 1.12 C10.39 1.8, 11.11 2.64, 11.47 3.87 C11.84 5.1, 11.86 7.15, 11.41 8.51 C10.96 9.88, 9.77 11.36, 8.78 12.05 C7.78 12.74, 6.57 12.9, 5.44 12.65 C4.3 12.4, 2.82 11.5, 1.97 10.56 C1.11 9.62, 0.45 8.29, 0.3 7.01 C0.16 5.74, 0.31 4.14, 1.08 2.92 C1.85 1.69, 4.36 0.15, 4.93 -0.33 C5.51 -0.81, 4.44 -0.08, 4.51 0.02 M5.47 0.71 C6.67 0.73, 7.89 1.38, 8.9 1.97 C9.91 2.55, 11.13 2.94, 11.53 4.25 C11.93 5.56, 11.79 8.61, 11.31 9.82 C10.83 11.03, 9.93 11.06, 8.66 11.52 C7.38 11.98, 4.95 12.93, 3.63 12.57 C2.32 12.21, 1.47 10.48, 0.78 9.35 C0.08 8.22, -0.69 6.94, -0.54 5.79 C-0.38 4.63, 0.58 3.5, 1.7 2.42 C2.83 1.34, 5.51 -0.32, 6.21 -0.7 C6.92 -1.08, 6.05 -0.12, 5.94 0.12" stroke="#1e1e1e" stroke-width="4" fill="none"></path></g><g stroke-linecap="round"><g transform="translate(40.633862171091096 152.40377427265048) rotate(0 22.72214981941579 5.922199962094965)"><path d="M-0.48 -0.32 C1.37 1.59, 5.29 8.93, 10.68 11.05 C16.07 13.17, 25.99 13.9, 31.86 12.38 C37.72 10.85, 43.63 3.69, 45.88 1.91 M0.28 0.7 C2.34 2.73, 6.27 9.83, 11.72 11.64 C17.17 13.46, 27.23 13.13, 32.98 11.59 C38.73 10.04, 44.27 4.04, 46.22 2.39" stroke="#e03131" stroke-width="4" fill="none"></path></g></g><mask></mask></svg>