<svg version="1.1" xmlns="http://www.w3.org/2000/svg" viewBox="0 0 359.7709891983327 167.96307741961027" width="359.7709891983327" height="167.96307741961027" filter="invert(93%) hue-rotate(180deg)"><!-- svg-source:excalidraw --><metadata></metadata><defs><style class="style-fonts">
      </style></defs><g stroke-linecap="round" transform="translate(195.8008005871452 77.23608270971818) rotate(0 1.6194658722154145 3.687165518231268)"><path d="M1.44 0.17 C1.7 -0.01, 2.04 0.22, 2.28 0.58 C2.53 0.94, 2.76 1.54, 2.9 2.34 C3.04 3.14, 3.17 4.61, 3.11 5.38 C3.05 6.14, 2.86 6.55, 2.56 6.92 C2.26 7.29, 1.63 7.8, 1.29 7.6 C0.95 7.41, 0.69 6.41, 0.52 5.77 C0.35 5.13, 0.34 4.58, 0.29 3.78 C0.24 2.97, 0.04 1.59, 0.23 0.94 C0.42 0.3, 1.2 0.03, 1.43 -0.09 C1.66 -0.22, 1.58 0.1, 1.63 0.21 M1.43 0.17 C1.86 -0.02, 2.59 0.33, 2.95 0.77 C3.31 1.21, 3.6 2.15, 3.6 2.81 C3.59 3.47, 3.06 4.05, 2.91 4.73 C2.77 5.41, 3.05 6.51, 2.73 6.89 C2.41 7.28, 1.46 7.18, 1.01 7.05 C0.56 6.92, 0.2 6.77, 0.04 6.12 C-0.12 5.48, 0 3.95, 0.06 3.19 C0.12 2.43, 0.2 2.07, 0.41 1.59 C0.63 1.1, 1.18 0.5, 1.33 0.28 C1.47 0.06, 1.21 0.27, 1.28 0.29" stroke="#1e1e1e" stroke-width="1" fill="none"></path></g><g stroke-linecap="round" transform="translate(192.29076552323386 73.96048370907374) rotate(0 4.533281812700807 7.122536019456675)"><path d="M5.52 0.03 C6.51 0.35, 7.7 1.75, 8.34 3.05 C8.98 4.35, 9.51 6.35, 9.35 7.82 C9.19 9.28, 8.02 10.77, 7.39 11.85 C6.75 12.92, 6.39 13.96, 5.52 14.25 C4.65 14.54, 3.03 14.34, 2.18 13.57 C1.33 12.79, 0.67 11.19, 0.42 9.62 C0.17 8.04, 0.37 5.51, 0.66 4.09 C0.96 2.68, 1.34 1.78, 2.19 1.1 C3.04 0.41, 5.17 0.14, 5.76 -0.01 C6.35 -0.16, 5.72 0.03, 5.72 0.21 M3.55 0.5 C4.41 0.08, 5.59 0.47, 6.54 1.13 C7.48 1.79, 8.97 3.16, 9.23 4.49 C9.49 5.81, 8.38 7.63, 8.1 9.07 C7.82 10.51, 8.24 12.17, 7.56 13.12 C6.87 14.07, 4.97 15.09, 4 14.77 C3.02 14.45, 2.25 12.5, 1.69 11.19 C1.13 9.89, 0.87 8.35, 0.63 6.94 C0.39 5.53, -0.34 3.96, 0.25 2.74 C0.85 1.52, 3.61 0.06, 4.2 -0.38 C4.79 -0.82, 3.77 -0.2, 3.79 0.12" stroke="#1e1e1e" stroke-width="1" fill="none"></path></g><g stroke-linecap="round"><g transform="translate(188.51184686351826 30.40289220163686) rotate(0 0.9480272591385983 -0.4447454577521057)"><path d="M0 0 C0.75 -0.31, 1.41 -0.58, 1.9 -0.89 M0 0 C0.58 -0.27, 1.2 -0.56, 1.9 -0.89" stroke="#1e1e1e" stroke-width="1" fill="none"></path></g></g><mask></mask><g stroke-linecap="round"><g transform="translate(201.64808083373282 24.788893603606994) rotate(0 0.9662016513741492 -0.5935375310145901)"><path d="M0 0 C0.62 -0.45, 1.4 -0.82, 1.93 -1.19 M0 0 C0.59 -0.38, 1.23 -0.72, 1.93 -1.19" stroke="#1e1e1e" stroke-width="1" fill="none"></path></g></g><mask></mask><g stroke-linecap="round"><g transform="translate(202.56642921685898 22.81575523536594) rotate(0 0.041354004376216835 1.4221966399563826)"><path d="M0 0 C0.1 0.79, 0.02 1.66, 0.08 2.84 M0 0 C0.05 1.03, 0.06 2.02, 0.08 2.84" stroke="#1e1e1e" stroke-width="1" fill="none"></path></g></g><mask></mask><g stroke-linecap="round"><g transform="translate(199.21763223230755 37.16905092459092) rotate(0 -3.3494523036993087 0.17179348153968022)"><path d="M0 0 C-2.33 0.13, -4.44 0.41, -6.7 0.34 M0 0 C-1.97 0.12, -4.14 0.19, -6.7 0.34" stroke="#1e1e1e" stroke-width="1" fill="none"></path></g></g><mask></mask><g stroke-linecap="round"><g transform="translate(186.7534551364147 26.6563046130359) rotate(0 0.8644806251452337 61.24360296499981)"><path d="M0 0 C-0.67 40.62, 1.27 83.44, 1.73 122.49 M0 0 C1.13 44.39, 1.17 86.69, 1.73 122.49" stroke="#1e1e1e" stroke-width="1" fill="none"></path></g></g><mask></mask><g stroke-linecap="round"><g transform="translate(188.31621305721455 146.51920183170478) rotate(0 2.7573830147923672 2.229439997766349)"><path d="M-0.03 -0.17 C0.21 0.61, 0.26 4.04, 1.2 4.55 C2.14 5.07, 4.87 3.24, 5.61 2.92 M-0.48 0.51 C-0.24 1.18, 0.07 3.67, 1.06 3.98 C2.04 4.29, 4.65 2.56, 5.44 2.4" stroke="#1e1e1e" stroke-width="1" fill="none"></path></g></g><mask></mask><g stroke-linecap="round"><g transform="translate(192.37615125828916 150.12337998837756) rotate(0 6.02103028297779 -3.923978889508362)"><path d="M0 0 C2.66 -1.52, 6.38 -4.81, 12.04 -7.85 M0 0 C3.83 -2.5, 8.26 -5.48, 12.04 -7.85" stroke="#1e1e1e" stroke-width="1" fill="none"></path></g></g><mask></mask><g stroke-linecap="round"><g transform="translate(204.1278370428763 141.85322166170045) rotate(0 1.6188218848033102 -6.359389204179024)"><path d="M-0.25 0.54 C0.22 0.23, 2.3 0.21, 2.85 -2.09 C3.41 -4.39, 3.05 -11.57, 3.07 -13.26 M0.62 0.34 C1.05 -0.09, 2.24 -0.58, 2.57 -2.79 C2.91 -5, 2.57 -11.21, 2.63 -12.94" stroke="#1e1e1e" stroke-width="1" fill="none"></path></g></g><mask></mask><g stroke-linecap="round"><g transform="translate(207.32171583324362 130.1695965773415) rotate(0 -0.7127718105498388 -42.61774431832782)"><path d="M0 0 C-0.04 -28.22, 0.54 -53.83, -1.43 -85.24 M0 0 C0.03 -22.98, -0.46 -47.25, -1.43 -85.24" stroke="#1e1e1e" stroke-width="1" fill="none"></path></g></g><mask></mask><g stroke-linecap="round"><g transform="translate(205.8600797993081 29.280461779344478) rotate(0 -2.5219642697709332 -6.337412343091273)"><path d="M-0.49 0.01 C-0.75 -1.97, -0.6 -9.81, -1.45 -11.89 C-2.3 -13.96, -4.94 -12.39, -5.57 -12.43 M0.27 -0.46 C0.16 -2.58, 0.36 -10.44, -0.44 -12.6 C-1.24 -14.75, -3.73 -13.3, -4.52 -13.37" stroke="#1e1e1e" stroke-width="1" fill="none"></path></g></g><mask></mask><g stroke-linecap="round"><g transform="translate(186.94156493456148 28.176604440261144) rotate(0 3.707194094311035 -4.402978251416243)"><path d="M-0.31 0.26 C-0.25 -0.72, -0.84 -4.53, 0.42 -6.01 C1.68 -7.49, 6.03 -8.13, 7.25 -8.61 M0.18 0.09 C0.34 -0.83, -0.05 -4.05, 1.08 -5.59 C2.21 -7.14, 5.97 -8.69, 6.94 -9.19" stroke="#1e1e1e" stroke-width="1" fill="none"></path></g></g><mask></mask><g stroke-linecap="round"><g transform="translate(193.48908745555764 19.634579690380633) rotate(0 4.072075791691532 -1.7680069034686312)"><path d="M0 0 C2.54 -1.35, 5.8 -2.35, 8.14 -3.54 M0 0 C3.1 -1.38, 6.04 -2.58, 8.14 -3.54" stroke="#1e1e1e" stroke-width="1" fill="none"></path></g></g><mask></mask><g stroke-linecap="round"><g transform="translate(186.64707265890775 24.61922346179017) rotate(0 -2.265362943731816 0.5797784026608497)"><path d="M0 0 C-1.61 0.38, -3.5 0.85, -4.53 1.16 M0 0 C-1.34 0.43, -2.73 0.68, -4.53 1.16" stroke="#1e1e1e" stroke-width="1" fill="none"></path></g></g><mask></mask><g stroke-linecap="round"><g transform="translate(187.5205179564632 22.661423627510885) rotate(0 -2.1010726301522027 -1.1725047056734184)"><path d="M0 0 C-0.87 -0.42, -1.66 -0.87, -4.2 -2.35 M0 0 C-1.08 -0.59, -1.98 -1.07, -4.2 -2.35" stroke="#1e1e1e" stroke-width="1" fill="none"></path></g></g><mask></mask><g stroke-linecap="round"><g transform="translate(188.73870181678603 150.45176304340202) rotate(0 -1.9204617696209425 1.1231490616273732)"><path d="M0 0 C-1.47 0.75, -3.01 1.69, -3.84 2.25 M0 0 C-1.27 0.77, -2.61 1.5, -3.84 2.25" stroke="#1e1e1e" stroke-width="1" fill="none"></path></g></g><mask></mask><g stroke-linecap="round"><g transform="translate(190.18370852448243 151.43396169604785) rotate(0 -0.7366128435949122 2.286559049725838)"><path d="M0 0 C-0.22 0.97, -0.65 2.19, -1.47 4.57 M0 0 C-0.61 1.81, -1.19 3.62, -1.47 4.57" stroke="#1e1e1e" stroke-width="1" fill="none"></path></g></g><mask></mask><g stroke-linecap="round"><g transform="translate(205.49754929288065 142.57486356765912) rotate(0 0.23875372047200472 0.974024287184875)"><path d="M0 0 C0.15 0.41, 0.26 0.9, 0.48 1.95 M0 0 C0.19 0.66, 0.31 1.27, 0.48 1.95" stroke="#1e1e1e" stroke-width="1" fill="none"></path></g></g><mask></mask><g stroke-linecap="round"><g transform="translate(183.2080531109441 18.91975997285772) rotate(0 8.868069827502495 -3.8363436871322847)"><path d="M-0.19 0.15 C2.82 -1.06, 15.35 -6.03, 18.25 -7.41 M0.72 -0.24 C3.67 -1.6, 15.15 -6.99, 18.08 -8.23" stroke="#1e1e1e" stroke-width="2" fill="none"></path></g></g><mask></mask><g stroke-linecap="round"><g transform="translate(182.85729810375415 19.101936022138034) rotate(0 -0.8764757868818833 5.46429567729956)"><path d="M0.4 -0.27 C0.04 0.3, -1.71 1.2, -2.04 3.02 C-2.38 4.84, -1.8 9.28, -1.63 10.67 M-0.06 0.78 C-0.25 1.22, -0.61 0.48, -0.96 2.2 C-1.31 3.93, -2.17 9.77, -2.14 11.13" stroke="#1e1e1e" stroke-width="2" fill="none"></path></g></g><mask></mask><g stroke-linecap="round"><g transform="translate(181.10750371438144 30.538304194775264) rotate(0 0.9621469654150587 60.97758298366807)"><path d="M0 0 C0.27 45.1, 0.8 87.16, 1.92 121.96 M0 0 C-0.42 27.27, 0.04 55.84, 1.92 121.96" stroke="#1e1e1e" stroke-width="2" fill="none"></path></g></g><mask></mask><g stroke-linecap="round"><g transform="translate(183.59075072563246 153.72358283080757) rotate(0 3.7069910095324303 1.8819136883657848)"><path d="M0.19 0.32 C0.65 1.01, 1.73 3.59, 2.94 3.91 C4.15 4.23, 6.72 2.58, 7.46 2.23 M-0.14 0.18 C0.26 0.78, 1.42 3.11, 2.66 3.37 C3.89 3.62, 6.46 1.92, 7.26 1.72" stroke="#1e1e1e" stroke-width="2" fill="none"></path></g></g><mask></mask><g stroke-linecap="round"><g transform="translate(191.44735774273204 155.55794162011443) rotate(0 7.459971916532595 -4.786659197055997)"><path d="M0 0 C5.06 -3.61, 11.29 -7.39, 14.92 -9.57 M0 0 C4.7 -2.68, 10.04 -6.01, 14.92 -9.57" stroke="#1e1e1e" stroke-width="2" fill="none"></path></g></g><mask></mask><g stroke-linecap="round"><g transform="translate(204.39389851374017 146.8457745222131) rotate(0 1.437774382167163 -50.62937688846159)"><path d="M0.5 -0.96 C1.29 -2.92, 3.36 3.96, 3.7 -12.75 C4.04 -29.46, 2.68 -86.48, 2.54 -101.23 M-0.69 1.15 C0.09 -0.59, 2.76 5.24, 3.19 -11.6 C3.62 -28.44, 1.87 -85.15, 1.9 -99.89" stroke="#1e1e1e" stroke-width="1" fill="none"></path></g></g><mask></mask><g stroke-linecap="round"><g transform="translate(199.64894033743212 12.912270660865033) rotate(0 3.1316499584922894 8.535391309418628)"><path d="M0.38 0.08 C1.13 0.11, 3.76 -3.05, 4.82 -0.11 C5.87 2.82, 6.53 14.7, 6.71 17.7 M-0.09 -0.36 C0.79 -0.47, 4.67 -3.84, 5.78 -0.98 C6.89 1.88, 6.59 13.8, 6.59 16.8" stroke="#1e1e1e" stroke-width="1" fill="none"></path></g></g><mask></mask><g stroke-linecap="round"><g transform="translate(182.27012482882765 23.84603989846437) rotate(0 -15.964861552488628 0.022747275497749797)"><path d="M-0.07 -0.38 C-5.41 -0.33, -26.22 0.43, -31.55 0.43 M-0.77 0.62 C-6.19 0.49, -26.51 -0.23, -31.79 -0.33" stroke="#1e1e1e" stroke-width="1" fill="none"></path></g></g><mask></mask><g stroke-linecap="round"><g transform="translate(185.93871129442823 18.683192749313093) rotate(0 -15.82896619111034 -0.22649226896373875)"><path d="M-0.41 -0.09 C-5.67 -0.17, -26.04 -0.05, -31.21 -0.18 M0.38 -0.61 C-4.94 -0.88, -26.07 -1.03, -31.41 -1" stroke="#1e1e1e" stroke-width="1" fill="none"></path></g></g><mask></mask><g stroke-linecap="round"><g transform="translate(204.19026232603665 11.029126738763807) rotate(0 -17.685614505003286 -0.1584465396726955)"><path d="M0.03 -0.47 C-5.89 -0.58, -29.42 -0.25, -35.24 -0.15 M-0.62 0.48 C-6.63 0.44, -29.88 -0.84, -35.61 -1.03" stroke="#1e1e1e" stroke-width="1" fill="none"></path></g></g><mask></mask><g stroke-linecap="round"><g transform="translate(187.59503852464786 157.32214652799667) rotate(0 -15.954870244946733 -0.421338319329152)"><path d="M0.4 -0.37 C-4.84 -0.43, -26.04 -0.64, -31.46 -0.8 M-0.06 0.64 C-5.33 0.7, -26.24 0.19, -31.67 -0.08" stroke="#1e1e1e" stroke-width="1" fill="none"></path></g></g><mask></mask><g stroke-linecap="round"><g transform="translate(184.64955192589377 152.15434354373429) rotate(0 -16.614343392378032 -0.516646046529786)"><path d="M-0.1 0.28 C-5.63 0.19, -27.26 -0.29, -32.74 -0.57 M-0.81 -0.05 C-6.41 -0.29, -27.52 -1.14, -32.91 -1.3" stroke="#1e1e1e" stroke-width="1" fill="none"></path></g></g><mask></mask><g stroke-linecap="round"><g transform="translate(169.20335152648113 10.617916304829123) rotate(0 -9.498254838627872 7.3725648656673)"><path d="M-0.52 0.46 C-2.97 1.7, -11.73 5.28, -14.74 7.63 C-17.76 9.97, -17.87 13.37, -18.62 14.54 M0.21 0.22 C-2.26 1.3, -11.75 4.42, -14.91 6.89 C-18.08 9.36, -18.05 13.67, -18.77 15.03" stroke="#1e1e1e" stroke-width="2" fill="none"></path></g></g><mask></mask><g stroke-linecap="round"><g transform="translate(158.0797789157682 156.8389192326722) rotate(0 -3.3143806191840213 -4.50797414173212)"><path d="M0.27 -0.33 C-0.62 -0.68, -4.04 -0.45, -5.25 -1.93 C-6.45 -3.41, -6.77 -8.06, -6.95 -9.19 M-0.02 0.27 C-0.95 -0.05, -4.39 -0.09, -5.44 -1.62 C-6.48 -3.15, -5.98 -7.61, -6.26 -8.9" stroke="#1e1e1e" stroke-width="2" fill="none"></path></g></g><mask></mask><g stroke-linecap="round"><g transform="translate(150.57410143086645 25.38295802907487) rotate(0 0.45660701087444977 60.77792006602158)"><path d="M0 0 C1.32 19.41, 0.53 41.09, 0.91 54.39 M0 0 C0.77 17.37, -0.2 34.79, 0.91 54.39 M0.91 54.39 C0.29 77.6, 1.81 98.12, 0.84 121.56 M0.91 54.39 C0.67 72.75, 1.7 88.41, 0.84 121.56" stroke="#1e1e1e" stroke-width="2" fill="none"></path></g></g><mask></mask><g stroke-linecap="round"><g transform="translate(198.1221196065303 78.84411135549635) rotate(0 -0.8186005183090401 0.10010099994269694)"><path d="M0.36 -0.02 C0.06 0.01, -1.69 -0.18, -1.97 -0.1 M0.11 -0.34 C-0.07 -0.25, -1.09 0.16, -1.35 0.19" stroke="#1e1e1e" stroke-width="1" fill="none"></path></g></g><mask></mask><g stroke-linecap="round"><g transform="translate(198.11872608849717 82.74843485871861) rotate(0 -0.8186005183090401 0.10010099994269694)"><path d="M0.24 -0.31 C-0.08 -0.27, -1.52 0.49, -1.85 0.54 M-0.06 0.29 C-0.28 0.23, -0.84 0.09, -1.17 0.09" stroke="#1e1e1e" stroke-width="1" fill="none"></path></g></g><mask></mask><g stroke-linecap="round"><g transform="translate(150.3696177168522 146.41336340357702) rotate(0 -0.030271470249317645 -1.9710462271541473)"><path d="M-0.35 0.26 C-0.32 -0.38, 0.13 -2.94, 0.21 -3.67 M0.12 0.09 C0.12 -0.66, 0.09 -3.5, 0.07 -4.15" stroke="#1e1e1e" stroke-width="4" fill="none"></path></g></g><mask></mask><g stroke-linecap="round"><g transform="translate(149.96897849159677 27.24338665353571) rotate(0 0.06403905892466355 1.9051012077998166)"><path d="M0.17 0.09 C0.13 0.79, -0.07 3.27, -0.02 3.93 M-0.17 -0.17 C-0.28 0.44, -0.47 2.76, -0.37 3.37" stroke="#1e1e1e" stroke-width="4" fill="none"></path></g></g><mask></mask><g stroke-linecap="round"><g transform="translate(156.41149180518778 67.42457600929993) rotate(0 -0.08428954125292876 -21.795809462924808)"><path d="M0 0 C0.24 -13, 0.84 -26.24, -0.17 -43.59 M0 0 C-0.44 -11.83, 0.03 -22.95, -0.17 -43.59" stroke="#1e1e1e" stroke-width="1" fill="none"></path></g></g><mask></mask><g stroke-linecap="round"><g transform="translate(156.73419536171195 150.58243855178262) rotate(0 -0.16894555877206585 -41.89776562293446)"><path d="M0 0 C-0.45 -20.79, 1.59 -39.51, -0.34 -83.8 M0 0 C-0.15 -28.32, 0.73 -56.34, -0.34 -83.8" stroke="#1e1e1e" stroke-width="1" fill="none"></path></g></g><mask></mask><g stroke-linecap="round"><g transform="translate(156.82030109470497 146.84200092085484) rotate(0 1.2235481070306378 4.4570694518679375)"><path d="M-0.2 0.31 C-0.16 1.57, 0.04 5.82, 0.45 7.27 C0.87 8.72, 1.93 8.79, 2.29 9.02 M0.35 0.17 C0.48 1.34, 0.87 5.33, 1.14 6.7 C1.41 8.07, 1.72 8.03, 1.99 8.39" stroke="#1e1e1e" stroke-width="1" fill="none"></path></g></g><mask></mask><g stroke-linecap="round"><g transform="translate(156.17189098315703 26.86046096975224) rotate(0 1.3906885004275864 -4.223054935344408)"><path d="M-0.2 -0.08 C-0.18 -0.88, -0.07 -3.57, 0.47 -4.95 C1 -6.33, 2.59 -7.73, 3 -8.36 M0.34 -0.42 C0.3 -1.33, -0.1 -4.27, 0.32 -5.53 C0.75 -6.78, 2.42 -7.42, 2.88 -7.93" stroke="#1e1e1e" stroke-width="1" fill="none"></path></g></g><mask></mask><g stroke-linecap="round"><g transform="translate(160.25788394122765 18.276991807304512) rotate(0 7.370191539043844 -3.5591184441482255)"><path d="M0 0 C3.97 -0.76, 7.41 -3.93, 14.74 -7.12 M0 0 C4.09 -1.61, 7.65 -3.8, 14.74 -7.12" stroke="#1e1e1e" stroke-width="1" fill="none"></path></g></g><mask></mask><g stroke-linecap="round" transform="translate(342.0255978908117 30.340124949856545) rotate(0 3.872695653760502 7.777705249483915)"><path d="M4 0 C5.14 2.58, 6.55 4.95, 7.75 8 M4 0 C4.75 2.24, 5.8 4.05, 7.75 8 M7.75 8 C6.77 10.35, 5.27 13.35, 4 15.56 M7.75 8 C6.91 9.67, 6.08 11.43, 4 15.56 M4 15.56 C2.38 12.92, 0.63 9.71, 0 8 M4 15.56 C2.45 12.78, 0.94 9.74, 0 8 M0 8 C1.49 5.43, 2.58 2.72, 4 0 M0 8 C1.13 5.2, 2.48 2.4, 4 0" stroke="#1e1e1e" stroke-width="1" fill="none"></path></g><g stroke-linecap="round"><g transform="translate(341.99082622805736 38.38629712434704) rotate(0 -74.98787833791812 -0.3028194327616802)"><path d="M0 0 C-58.78 0.81, -121.38 -1.95, -149.98 -0.61 M0 0 C-37.49 0.77, -74.8 0.53, -149.98 -0.61" stroke="#1e1e1e" stroke-width="1" fill="none"></path></g></g><mask></mask><g stroke-linecap="round"><g transform="translate(345.5182818706776 45.43956847613481) rotate(0 -75.00945918920229 -0.36125022712167265)"><path d="M0 0 C-60.49 0.78, -120.78 0.09, -150.02 -0.72 M0 0 C-51.01 -0.36, -103.4 0.48, -150.02 -0.72" stroke="#1e1e1e" stroke-width="1" fill="none"></path></g></g><mask></mask><g stroke-linecap="round"><g transform="translate(195.67948412159558 30.32320992233872) rotate(0 75.0683946164736 0.22401198882471363)"><path d="M0 0 C44.43 0.69, 89.43 0.11, 150.14 0.45 M0 0 C47.46 1.48, 93.15 1.61, 150.14 0.45" stroke="#1e1e1e" stroke-width="1" fill="none"></path></g></g><mask></mask><g stroke-linecap="round"><g transform="translate(149.58688740393154 36.9248439426392) rotate(0 -68.9793990260423 -0.39394205879489164)"><path d="M0 0 C-33.47 0.85, -67.43 -1.66, -137.96 -0.79 M0 0 C-32.3 0.72, -63.96 0.36, -137.96 -0.79" stroke="#1e1e1e" stroke-width="1" fill="none"></path></g></g><mask></mask><g stroke-linecap="round"><g transform="translate(152.05979072034597 43.89568814876657) rotate(0 -69.22531372925164 -0.4111592803237727)"><path d="M0 0 C-41.75 -1.11, -88.1 0.95, -138.45 -0.82 M0 0 C-47.14 0.35, -93.69 0.5, -138.45 -0.82" stroke="#1e1e1e" stroke-width="1" fill="none"></path></g></g><mask></mask><g stroke-linecap="round"><g transform="translate(13.789283891166178 28.679511488566277) rotate(0 69.02881888081333 0.19372556687721953)"><path d="M0 0 C46.04 2, 95.61 0.67, 138.06 0.39 M0 0 C46.77 0.49, 92.43 0.9, 138.06 0.39" stroke="#1e1e1e" stroke-width="1" fill="none"></path></g></g><mask></mask><g stroke-linecap="round"><g transform="translate(13.770478883177475 28.787166128093304) rotate(0 -1.5728336749580194 7.036710184580443)"><path d="M0.47 0.27 C-0.39 2.84, -2.17 5.01, -3.77 7.12 M-0.39 0.38 C-1.06 2.11, -2.08 4.52, -3.06 7.22 M-3.59 7.53 C-1.79 10.17, -1.36 11.55, -0.22 13.88 M-3.08 7.34 C-2.47 9.33, -1.51 11.39, -0.15 14.22" stroke="#1e1e1e" stroke-width="1" fill="none"></path></g></g><mask></mask><g stroke-linecap="round"><g transform="translate(201.45023563656878 45.38202839762016) rotate(0 -5.066918197491759 -8.063833697092377)"><path d="M0.17 -0.09 C-0.79 0.45, -4.01 4.39, -5.69 3.25 C-7.37 2.12, -9.68 -3.24, -9.91 -6.9 C-10.14 -10.56, -8.03 -16.62, -7.08 -18.7 C-6.14 -20.79, -5.32 -19.96, -4.23 -19.4 C-3.13 -18.84, -1.06 -15.99, -0.53 -15.35 M-0.41 -0.61 C-1.2 -0.22, -2.97 3.47, -4.6 2.52 C-6.22 1.56, -9.52 -2.92, -10.15 -6.36 C-10.77 -9.81, -9.49 -15.96, -8.35 -18.14 C-7.22 -20.33, -4.75 -19.85, -3.34 -19.46 C-1.92 -19.07, -0.23 -16.61, 0.15 -15.81" stroke="#1e1e1e" stroke-width="1" fill="none"></path></g></g><mask></mask><g stroke-linecap="round"><g transform="translate(203.3509465281859 15.642061801296222) rotate(0 -1.083095810908162 -1.5843489395620054)"><path d="M0 0 C-0.56 -0.82, -1.04 -1.65, -2.17 -3.17 M0 0 C-0.69 -1.02, -1.47 -2.09, -2.17 -3.17" stroke="#1e1e1e" stroke-width="1" fill="none"></path></g></g><mask></mask><g stroke-linecap="round"><g transform="translate(44.78149641341042 44.400623941619415) rotate(0 -12.767220411788458 -7.813190655760991)"><path d="M-0.24 0.15 C-1.57 2.38, -4.73 11.71, -8.2 12.82 C-11.68 13.93, -18.04 10.31, -21.08 6.83 C-24.11 3.35, -26.34 -3.22, -26.42 -8.05 C-26.5 -12.88, -23.92 -18.88, -21.54 -22.15 C-19.17 -25.42, -15.8 -27.73, -12.16 -27.65 C-8.52 -27.57, -1.87 -22.72, 0.31 -21.68 M0.64 -0.24 C-0.5 1.88, -3.53 11.06, -7.2 12.09 C-10.88 13.11, -18.17 9.18, -21.39 5.92 C-24.61 2.66, -26.64 -2.85, -26.54 -7.47 C-26.43 -12.1, -23 -18.4, -20.75 -21.82 C-18.5 -25.23, -16.56 -28.11, -13.01 -27.95 C-9.46 -27.79, -1.75 -21.88, 0.54 -20.83" stroke="#e03131" stroke-width="1" fill="none"></path></g><g transform="translate(44.78149641341042 44.400623941619415) rotate(0 -12.767220411788458 -7.813190655760991)"><path d="M-6.61 -22.23 C-4.67 -22.16, -2.64 -21.45, 0.54 -20.83 M-6.61 -22.23 C-4.21 -21.64, -1.42 -21.13, 0.54 -20.83" stroke="#e03131" stroke-width="1" fill="none"></path></g><g transform="translate(44.78149641341042 44.400623941619415) rotate(0 -12.767220411788458 -7.813190655760991)"><path d="M-4.04 -26.5 C-2.79 -25.33, -1.41 -23.53, 0.54 -20.83 M-4.04 -26.5 C-2.57 -24.39, -0.7 -22.36, 0.54 -20.83" stroke="#e03131" stroke-width="1" fill="none"></path></g></g><mask></mask><g stroke-linecap="round"><g transform="translate(329.820588550675 45.92113813616379) rotate(0 -12.767220411788458 -7.813190655760991)"><path d="M-0.07 0.48 C-1.3 2.48, -3.93 11.05, -7.45 12.08 C-10.97 13.12, -18.05 10.06, -21.17 6.69 C-24.29 3.32, -26.16 -3.37, -26.17 -8.14 C-26.18 -12.92, -23.57 -18.73, -21.24 -21.95 C-18.91 -25.18, -15.88 -27.56, -12.2 -27.51 C-8.53 -27.46, -1.24 -22.64, 0.79 -21.67 M-0.77 0.26 C-2.04 2.32, -4.27 11.73, -7.73 12.64 C-11.19 13.55, -18.47 9.09, -21.54 5.71 C-24.61 2.34, -26.1 -2.79, -26.17 -7.61 C-26.24 -12.43, -24.14 -19.84, -21.96 -23.19 C-19.78 -26.54, -16.95 -28.13, -13.08 -27.73 C-9.21 -27.34, -1.06 -21.77, 1.26 -20.82" stroke="#e03131" stroke-width="1" fill="none"></path></g><g transform="translate(329.820588550675 45.92113813616379) rotate(0 -12.767220411788458 -7.813190655760991)"><path d="M-5.94 -21.89 C-3.54 -21.38, -1.96 -21.29, 1.26 -20.82 M-5.94 -21.89 C-3.59 -21.37, -1.08 -21.02, 1.26 -20.82" stroke="#e03131" stroke-width="1" fill="none"></path></g><g transform="translate(329.820588550675 45.92113813616379) rotate(0 -12.767220411788458 -7.813190655760991)"><path d="M-3.57 -26.27 C-1.85 -24.49, -0.96 -23.13, 1.26 -20.82 M-3.57 -26.27 C-2.01 -24.31, -0.29 -22.5, 1.26 -20.82" stroke="#e03131" stroke-width="1" fill="none"></path></g></g><mask></mask><g stroke-linecap="round"><g transform="translate(195.9353995188626 29.1610917306989) rotate(0 -1.9965416769907733 8.21847351854467)"><path d="M0 0 C-1.16 2.67, -2.64 4.5, -4.1 8.04 M0 0 C-1.64 3.17, -3.07 6.2, -4.1 8.04 M-4.1 8.04 C-2.97 9.69, -1.98 11.94, 0.11 16.44 M-4.1 8.04 C-2.94 10.41, -1.73 12.64, 0.11 16.44" stroke="#1e1e1e" stroke-width="1" fill="none"></path></g></g><mask></mask><g stroke-linecap="round"><g transform="translate(196.06725940621936 29.121554079853013) rotate(0 0.40049424984295 0.3749606197625326)"><path d="M0 0 C0.24 0.21, 0.54 0.52, 0.8 0.75 M0 0 C0.18 0.14, 0.34 0.3, 0.8 0.75" stroke="#1e1e1e" stroke-width="1" fill="none"></path></g></g><mask></mask><g stroke-linecap="round"><g transform="translate(196.25470281779144 45.75634509406336) rotate(0 0.4176150653881905 -0.3238195629837719)"><path d="M0 0 C0.26 -0.23, 0.6 -0.48, 0.84 -0.65 M0 0 C0.29 -0.23, 0.6 -0.48, 0.84 -0.65" stroke="#1e1e1e" stroke-width="1" fill="none"></path></g></g><mask></mask><g stroke-linecap="round"><g transform="translate(192.13006220378202 34.86529250877902) rotate(0 1.7810813930277618 -2.9571043090954845)"><path d="M0 0 C0.77 -1.61, 2.01 -2.82, 3.56 -5.91 M0 0 C1.32 -2.29, 2.87 -4.63, 3.56 -5.91" stroke="#1e1e1e" stroke-width="1" fill="none"></path></g></g><mask></mask><g stroke-linecap="round"><g transform="translate(191.61879922922662 38.05256847169039) rotate(0 2.173089031716927 3.911589775738321)"><path d="M0 0 C1.21 2.53, 2.88 4.99, 4.35 7.82 M0 0 C1.36 2.59, 2.76 5.12, 4.35 7.82" stroke="#1e1e1e" stroke-width="1" fill="none"></path></g></g><mask></mask><g stroke-linecap="round"><g transform="translate(190.39891069578152 27.85317112083976) rotate(0 5.034433359775903 -2.730528462748225)"><path d="M-0.33 -0.22 C0.26 -1.15, 1.98 -5.23, 3.79 -5.95 C5.6 -6.67, 9.42 -4.76, 10.53 -4.53 M0.51 -0.8 C1.03 -1.66, 1.93 -4.97, 3.58 -5.5 C5.23 -6.03, 9.22 -4.21, 10.41 -3.97" stroke="#1e1e1e" stroke-width="1" fill="none"></path></g><g transform="translate(190.39891069578152 27.85317112083976) rotate(0 5.034433359775903 -2.730528462748225)"><path d="M7.02 -3.82 C8.14 -3.73, 9.25 -3.77, 10.41 -3.97 M7.02 -3.82 C7.93 -3.85, 9.03 -3.87, 10.41 -3.97" stroke="#1e1e1e" stroke-width="1" fill="none"></path></g><g transform="translate(190.39891069578152 27.85317112083976) rotate(0 5.034433359775903 -2.730528462748225)"><path d="M7.72 -6.04 C8.59 -5.17, 9.45 -4.43, 10.41 -3.97 M7.72 -6.04 C8.44 -5.43, 9.34 -4.82, 10.41 -3.97" stroke="#1e1e1e" stroke-width="1" fill="none"></path></g></g><mask></mask></svg>