<svg version="1.1" xmlns="http://www.w3.org/2000/svg" viewBox="0 0 1049.4468589859634 230.1144163476547" width="1049.4468589859634" height="230.1144163476547" filter="invert(93%) hue-rotate(180deg)"><!-- svg-source:excalidraw --><metadata></metadata><defs><style class="style-fonts">
      </style></defs><g stroke-linecap="round"><g transform="translate(718.2581146294096 161.73990988638798) rotate(0 9.35772921355283 -16.09990891455982)"><path d="M0 0 C-0.33 -7.2, -1.48 -12.61, -0.88 -18.94 M0 0 C-0.44 -6.85, -0.4 -12.8, -0.88 -18.94 M-0.88 -18.94 C1.18 -22.7, 2.8 -25.94, 4.13 -28.29 M-0.88 -18.94 C0.32 -21.39, 2.03 -23.76, 4.13 -28.29 M4.13 -28.29 C7.41 -30, 10.05 -30.83, 12.37 -32.2 M4.13 -28.29 C7.07 -29.48, 10.14 -31.11, 12.37 -32.2 M12.37 -32.2 C13.72 -31.06, 15.02 -29.87, 19.19 -26.92 M12.37 -32.2 C14.26 -30.96, 15.75 -29.8, 19.19 -26.92 M19.19 -26.92 C18.79 -22.42, 18.68 -16.45, 19.59 -8.41 M19.19 -26.92 C18.88 -21.93, 18.93 -17.3, 19.59 -8.41 M19.59 -8.41 C14.49 -6.09, 9.15 -4.66, 0 0 M19.59 -8.41 C13.22 -6.07, 7.32 -3.08, 0 0" stroke="#1e1e1e" stroke-width="1" fill="none"></path></g></g><mask></mask><g stroke-linecap="round" transform="translate(533.1940510121785 139.78983223625983) rotate(331.36346021978716 8.404644689638644 13.479073384439289)"><path d="M8.31 -0.47 C10.03 -0.77, 12.56 0.85, 13.98 2.74 C15.4 4.63, 16.47 8, 16.82 10.86 C17.18 13.73, 16.97 17.38, 16.1 19.93 C15.22 22.47, 13.31 25.12, 11.59 26.14 C9.87 27.15, 7.51 26.88, 5.79 26 C4.07 25.11, 2.27 23.34, 1.25 20.82 C0.24 18.29, -0.65 13.79, -0.3 10.86 C0.05 7.93, 1.92 5.04, 3.38 3.24 C4.83 1.45, 7.55 0.6, 8.43 0.09 C9.31 -0.42, 8.71 -0.07, 8.67 0.18 M7.02 0.48 C8.76 0.14, 11.42 1.23, 13.1 2.83 C14.78 4.44, 16.58 7.37, 17.11 10.1 C17.63 12.84, 17.08 16.65, 16.23 19.23 C15.39 21.82, 13.73 24.3, 12.04 25.62 C10.36 26.93, 7.97 27.79, 6.14 27.13 C4.31 26.47, 2.21 24.12, 1.07 21.64 C-0.08 19.16, -0.93 15.23, -0.73 12.25 C-0.52 9.27, 0.91 5.85, 2.3 3.77 C3.7 1.68, 6.89 0.21, 7.65 -0.27 C8.42 -0.76, 6.93 0.66, 6.91 0.85" stroke="#1e1e1e" stroke-width="2" fill="none"></path></g><g stroke-linecap="round" transform="translate(557.3423711520727 155.24468354001874) rotate(331.36346021978716 8.404644689638644 13.479073384439289)"><path d="M9.25 0.04 C11 0.26, 13.18 2.06, 14.48 4.23 C15.79 6.39, 17.03 10.17, 17.08 13.04 C17.13 15.91, 15.98 19.14, 14.78 21.46 C13.57 23.78, 11.5 26.25, 9.85 26.96 C8.19 27.68, 6.36 27.21, 4.84 25.75 C3.32 24.29, 1.41 21.01, 0.73 18.22 C0.04 15.44, 0.24 11.75, 0.76 9.05 C1.27 6.34, 2.33 3.45, 3.81 2 C5.29 0.56, 8.58 0.61, 9.64 0.37 C10.69 0.13, 10.22 0.37, 10.14 0.56 M10.19 0.19 C11.85 0.45, 13.2 2.61, 14.39 4.86 C15.58 7.12, 17.27 10.87, 17.32 13.74 C17.37 16.61, 15.88 19.96, 14.7 22.08 C13.51 24.2, 12.06 25.91, 10.21 26.46 C8.35 27.01, 5.19 26.87, 3.58 25.38 C1.97 23.89, 1.13 20.23, 0.55 17.52 C-0.04 14.81, -0.6 11.68, 0.07 9.12 C0.75 6.57, 2.94 3.69, 4.6 2.2 C6.25 0.72, 9.2 0.43, 10.02 0.24 C10.84 0.05, 9.48 0.78, 9.53 1.06" stroke="#1e1e1e" stroke-width="2" fill="none"></path></g><g stroke-linecap="round"><g transform="translate(536.1922112207612 139.70014957930653) rotate(0 9.591675138841765 -5.134217132767844)"><path d="M0 0 C5.57 -3.43, 11.25 -5.17, 19.18 -10.27 M0 0 C6.33 -3.16, 12.12 -6.55, 19.18 -10.27" stroke="#1e1e1e" stroke-width="2" fill="none"></path></g></g><mask></mask><g stroke-linecap="round"><g transform="translate(554.7827361404352 156.88656602884657) rotate(0 9.863712531597685 -6.663191456043933)"><path d="M0 0 C6.5 -5.91, 14.01 -8.92, 19.73 -13.33 M0 0 C8.07 -5.19, 15.04 -10.45, 19.73 -13.33" stroke="#1e1e1e" stroke-width="2" fill="none"></path></g></g><mask></mask><g stroke-linecap="round"><g transform="translate(576.1511238703315 178.9259639971733) rotate(0 8.90778739069583 -5.574122062897914)"><path d="M0 0 C3.7 -1.87, 8.15 -5.48, 17.82 -11.15 M0 0 C4.4 -2.97, 8.2 -4.96, 17.82 -11.15" stroke="#1e1e1e" stroke-width="2" fill="none"></path></g></g><mask></mask><g stroke-linecap="round"><g transform="translate(596.8335958872403 76.77736119274596) rotate(0 25.69619529252941 -14.630465010654916)"><path d="M-0.36 -0.56 C8.04 -5.73, 42.55 -25.85, 51.24 -30.46 M1.65 1.75 C9.8 -3.36, 41.95 -24.26, 50.21 -29.55" stroke="#1e1e1e" stroke-width="1" fill="none"></path></g></g><mask></mask><g stroke-linecap="round"><g transform="translate(600.7520594007447 82.46082085019407) rotate(0 25.69619529252941 -14.630465010654916)"><path d="M1.19 0.66 C9.74 -4.46, 44.01 -25.15, 52.41 -29.98 M0.36 -0.04 C8.75 -5.09, 43.56 -23.8, 52 -28.81" stroke="#1e1e1e" stroke-width="1" fill="none"></path></g></g><mask></mask><g stroke-linecap="round"><g transform="translate(615.4028633603657 86.20553010576623) rotate(0 25.69619529252941 -14.630465010654916)"><path d="M-0.12 0.26 C8.55 -4.88, 42.51 -25.46, 51.11 -30.19 M-1.64 -0.66 C6.92 -5.72, 41.28 -24.26, 50.01 -29.14" stroke="#1e1e1e" stroke-width="1" fill="none"></path></g></g><mask></mask><g stroke-linecap="round"><g transform="translate(621.011478088144 90.66837617879355) rotate(0 25.69619529252941 -14.630465010654916)"><path d="M-0.14 -0.66 C8.56 -5.44, 43.96 -24.04, 52.4 -28.92 M-1.67 1.61 C6.93 -3.53, 42.87 -25.77, 51.98 -30.87" stroke="#1e1e1e" stroke-width="1" fill="none"></path></g></g><mask></mask><g stroke-linecap="round"><g transform="translate(628.8110276742282 94.6204108271395) rotate(0 25.69619529252941 -14.630465010654916)"><path d="M0.67 0.27 C9.46 -4.59, 43.95 -24.31, 52.39 -29.39 M-0.44 -0.63 C8.32 -5.27, 43.48 -23.13, 51.96 -27.92" stroke="#1e1e1e" stroke-width="1" fill="none"></path></g></g><mask></mask><g stroke-linecap="round"><g transform="translate(636.6669427049701 100.3506779812069) rotate(0 25.69619529252941 -14.630465010654916)"><path d="M-0.77 -0.72 C7.77 -5.77, 42.44 -24.45, 51.15 -29.11 M1.03 1.51 C9.4 -2.82, 41.78 -22.11, 50.07 -27.5" stroke="#1e1e1e" stroke-width="1" fill="none"></path></g></g><mask></mask><g stroke-linecap="round"><g transform="translate(646.9173112567578 104.92041007114312) rotate(0 25.69619529252941 -14.630465010654916)"><path d="M0.28 -0.55 C8.78 -5.61, 43.2 -24.94, 51.91 -29.81 M-1.02 1.78 C7.27 -3.18, 42.34 -23.48, 51.23 -28.56" stroke="#1e1e1e" stroke-width="1" fill="none"></path></g></g><mask></mask><g stroke-linecap="round"><g transform="translate(653.975726207871 109.62954237065787) rotate(0 25.69619529252941 -14.630465010654916)"><path d="M0.44 -0.59 C9.12 -5.34, 43 -24.08, 51.41 -28.77 M-0.79 1.71 C7.79 -3.38, 42.03 -25.22, 50.47 -30.64" stroke="#1e1e1e" stroke-width="1" fill="none"></path></g></g><mask></mask><g stroke-linecap="round" transform="translate(603.9036141890374 153.21026309396257) rotate(327.5150559742368 8.063483858577456 13.874899430038568)"><path d="M7.66 0.13 C9.31 -0.04, 12.03 1.28, 13.39 3.21 C14.75 5.13, 15.58 8.72, 15.83 11.7 C16.07 14.67, 15.78 18.57, 14.89 21.07 C14 23.56, 12.07 25.71, 10.48 26.64 C8.89 27.57, 6.89 27.51, 5.36 26.65 C3.83 25.79, 2.2 23.97, 1.29 21.48 C0.38 18.98, -0.35 14.66, -0.09 11.68 C0.16 8.7, 1.51 5.5, 2.82 3.6 C4.13 1.69, 6.87 0.74, 7.74 0.26 C8.62 -0.22, 7.96 0.54, 8.07 0.72 M8.29 -0.41 C9.81 -0.36, 11.6 1.98, 12.83 3.99 C14.05 6, 15.3 8.84, 15.61 11.63 C15.92 14.42, 15.49 18.03, 14.69 20.71 C13.9 23.39, 12.34 26.74, 10.85 27.69 C9.36 28.64, 7.41 27.7, 5.75 26.43 C4.09 25.16, 1.72 22.72, 0.9 20.06 C0.08 17.4, 0.47 13.31, 0.85 10.48 C1.23 7.65, 1.87 4.78, 3.2 3.07 C4.53 1.36, 7.97 0.59, 8.84 0.23 C9.7 -0.13, 8.42 0.69, 8.38 0.89" stroke="#1e1e1e" stroke-width="2" fill="none"></path></g><g stroke-linecap="round"><g transform="translate(609.4674569299114 156.9675595815861) rotate(0 4.129519761300344 8.507830469317014)"><path d="M0 0 C-0.43 1.16, -1.15 2.43, -2.53 4.73 M0 0 C-0.91 1.76, -1.89 3.56, -2.53 4.73 M-2.53 4.73 C0.09 8.2, 3.85 13.63, 6.06 17.02 M-2.53 4.73 C0.59 9.48, 4.07 13.56, 6.06 17.02 M6.06 17.02 C6.88 15.75, 8.05 14.53, 10.79 11.5 M6.06 17.02 C7.07 15.88, 8.04 14.56, 10.79 11.5" stroke="#1e1e1e" stroke-width="2" fill="none"></path></g></g><mask></mask><g stroke-linecap="round" transform="translate(597.0949958367855 147.1250958592791) rotate(329.2214986162162 14.55309116658509 19.929154040019057)"><path d="M12.02 0.28 C14.96 -0.66, 18.8 0.69, 21.56 2.82 C24.33 4.95, 27.57 9.16, 28.62 13.05 C29.68 16.95, 29.01 22.24, 27.9 26.19 C26.8 30.14, 24.59 34.51, 21.99 36.77 C19.39 39.02, 15.36 40.39, 12.31 39.7 C9.27 39.02, 5.73 35.83, 3.73 32.65 C1.73 29.47, 0.38 24.81, 0.32 20.64 C0.26 16.48, 1.33 11.15, 3.37 7.67 C5.41 4.2, 10.8 1.03, 12.57 -0.21 C14.33 -1.45, 13.95 -0.09, 13.94 0.23 M11.52 0.09 C14.23 -1.22, 17.82 -0.3, 20.63 1.63 C23.44 3.56, 26.99 7.75, 28.38 11.69 C29.77 15.63, 30.03 21.02, 28.98 25.28 C27.94 29.54, 24.75 34.94, 22.09 37.24 C19.44 39.55, 16.04 39.74, 13.04 39.11 C10.05 38.47, 6.29 36.47, 4.14 33.42 C1.98 30.37, 0.26 25.12, 0.13 20.82 C-0.01 16.52, 1.46 11.09, 3.34 7.62 C5.23 4.15, 10.12 1.05, 11.45 -0.01 C12.78 -1.06, 11.19 0.92, 11.31 1.3" stroke="#1e1e1e" stroke-width="2" fill="none"></path></g><g stroke-linecap="round"><g transform="translate(623.4633966025085 183.37755880948316) rotate(0 6.180379750203429 -2.8918822509358506)"><path d="M0 0 C3.11 -1.44, 6.58 -2.7, 12.36 -5.78 M0 0 C4.06 -1.83, 8.68 -4.17, 12.36 -5.78" stroke="#1e1e1e" stroke-width="2" fill="none"></path></g></g><mask></mask><g stroke-linecap="round"><g transform="translate(600.5694673623493 148.06078634031837) rotate(0 6.103883727464563 -3.5096707824041005)"><path d="M0 0 C3.89 -2.24, 7.14 -4.58, 12.21 -7.02 M0 0 C4.43 -2.63, 8.74 -5.41, 12.21 -7.02" stroke="#1e1e1e" stroke-width="2" fill="none"></path></g></g><mask></mask><g stroke-linecap="round"><g transform="translate(637.5913250919857 153.22981106525185) rotate(0 2.2685505294148243 16.380403767737334)"><path d="M-0.45 -0.27 C0.41 2.01, 4 9.61, 4.85 13.66 C5.69 17.71, 5.3 20.81, 4.61 24.03 C3.92 27.26, 1.27 31.49, 0.7 33.01 M0.32 0.78 C1.17 3.15, 3.98 10.42, 4.64 14.37 C5.3 18.32, 4.95 21.55, 4.3 24.49 C3.65 27.42, 1.33 30.47, 0.74 31.97" stroke="#2f9e44" stroke-width="2" fill="none"></path></g></g><mask></mask><g stroke-linecap="round"><g transform="translate(552.277138761493 129.03519444315134) rotate(0 27.356464709143893 0.5126293924240599)"><path d="M-0.45 0.23 C0.45 -0.9, 2.84 -4.77, 5.3 -6.85 C7.75 -8.92, 11.2 -11.79, 14.29 -12.23 C17.38 -12.66, 20.89 -11.81, 23.83 -9.44 C26.76 -7.08, 28.93 -0.09, 31.93 1.96 C34.92 4.01, 38.54 1.82, 41.79 2.87 C45.03 3.92, 49.1 6.61, 51.4 8.26 C53.71 9.91, 55.16 11.99, 55.61 12.77 M1.52 -0.69 C2.33 -1.67, 2.69 -3.38, 4.69 -5.64 C6.69 -7.9, 10.31 -13.29, 13.51 -14.25 C16.71 -15.22, 21.06 -14.1, 23.91 -11.43 C26.76 -8.75, 27.94 -0.43, 30.62 1.82 C33.31 4.07, 36.52 1.2, 40.01 2.08 C43.49 2.96, 49.04 4.87, 51.55 7.11 C54.06 9.35, 54.35 14.26, 55.06 15.51" stroke="#1e1e1e" stroke-width="2" fill="none"></path></g></g><mask></mask><g stroke-linecap="round"><g transform="translate(557.0903735276506 122.71061748241664) rotate(0 9.544833641017703 8.901043355920592)"><path d="M1.11 -0.75 C2.64 -0.04, 7.1 0.49, 10.14 3.56 C13.19 6.63, 17.74 15.28, 19.37 17.66 M0.23 1.47 C1.47 2.46, 5.82 2.29, 8.91 5.19 C12 8.1, 16.81 16.62, 18.76 18.9" stroke="#1e1e1e" stroke-width="2" fill="none"></path></g></g><mask></mask><g stroke-linecap="round"><g transform="translate(575.9417389553946 139.4829399609116) rotate(0 10.633141322033225 4.371994649596672)"><path d="M0.18 -0.44 C2 -0.38, 7.49 -1.82, 10.99 -0.17 C14.5 1.48, 19.57 7.84, 21.21 9.47 M-0.39 0.52 C1.36 0.48, 7.07 -2.52, 10.6 -0.92 C14.14 0.68, 19.15 8.56, 20.83 10.14" stroke="#1e1e1e" stroke-width="2" fill="none"></path></g></g><mask></mask><g stroke-linecap="round"><g transform="translate(577.204777298175 138.64329877662567) rotate(0 3.5057021146917577 -2.897271596673818)"><path d="M0.31 -0.15 C1.5 -1.05, 5.87 -4.54, 7.03 -5.49 M0.05 -0.53 C1.19 -1.52, 5.57 -5.13, 6.76 -5.96" stroke="#1e1e1e" stroke-width="2" fill="none"></path></g></g><mask></mask><g stroke-linecap="round"><g transform="translate(737.1590344325223 147.2148783635057) rotate(0 -8.381334203356346 -4.383156988833434)"><path d="M0.16 0.3 C-2.53 -1.16, -13.69 -7.84, -16.53 -9.31 M-0.42 -0.02 C-3.12 -1.39, -14.03 -7.31, -16.84 -8.89" stroke="#1e1e1e" stroke-width="1" fill="none"></path></g></g><mask></mask><g stroke-linecap="round"><g transform="translate(635.0948829967747 176.97109536760036) rotate(0 -10.352109068173831 -17.85261705936682)"><path d="M-0.77 0.8 C-1.97 -3.24, -3.99 -17.83, -7.15 -23.95 C-10.31 -30.07, -17.5 -34.11, -19.74 -35.92 M1.02 0.18 C0.21 -3.75, -1.28 -16.98, -4.79 -22.8 C-8.29 -28.61, -17.41 -32.36, -20 -34.71" stroke="#1e1e1e" stroke-width="2" fill="none"></path></g></g><mask></mask><g stroke-linecap="round"><g transform="translate(744.341804513766 94.87167941273765) rotate(0 0.7196079528380324 31.63617475884803)"><path d="M-0.84 1.02 C-0.56 11.57, 1.35 53.54, 1.85 63.94 M0.92 0.51 C1.06 10.65, 0.98 51.45, 1.12 62.17" stroke="#1e1e1e" stroke-width="2" fill="none"></path></g></g><mask></mask><g stroke-linecap="round"><g transform="translate(555.2770534360316 79.36972978079575) rotate(0 51.26728575085008 34.10476301705148)"><path d="M0.72 -1.17 C15.41 7.8, 71.67 43.26, 88.77 54.63 C105.87 66, 101.21 64.86, 103.32 67.04 M-0.36 0.83 C14.67 9.39, 73.95 41.75, 91.17 52.9 C108.4 64.05, 101.31 65.14, 102.97 67.74" stroke="#1e1e1e" stroke-width="2" fill="none"></path></g></g><mask></mask><g stroke-linecap="round"><g transform="translate(658.9097857889856 146.4290725398987) rotate(0 -0.38610392623650114 30.59243656385661)"><path d="M-0.93 0.01 C-0.8 9.86, -0.11 49.86, 0.1 59.99 M0.78 -1.04 C0.89 8.84, -0.29 50.41, -0.39 60.91" stroke="#1e1e1e" stroke-width="2" fill="none"></path></g></g><mask></mask><g stroke-linecap="round"><g transform="translate(656.6825757723855 209.16648987626468) rotate(0 50.5062923360515 -32.50316252756147)"><path d="M-0.4 0.77 C14.41 -7.45, 72.97 -37.7, 89.93 -48.61 C106.9 -59.53, 99.64 -62, 101.39 -64.71 M1.59 0.13 C16.13 -7.97, 72.33 -36.63, 88.87 -47.19 C105.41 -57.75, 98.91 -60.48, 100.83 -63.24" stroke="#1e1e1e" stroke-width="2" fill="none"></path></g></g><mask></mask><g stroke-linecap="round"><g transform="translate(757.478866053274 144.9826344354169) rotate(0 -4.912664078687612 -32.70118820426342)"><path d="M0.47 -0.83 C0.07 -9.99, -0.03 -43.83, -1.63 -54.77 C-3.24 -65.7, -7.87 -64.68, -9.18 -66.45 M-0.75 1.34 C-0.87 -8.16, 1.94 -45.34, 0.46 -56.51 C-1.01 -67.68, -8.01 -64.39, -9.6 -65.68" stroke="#1e1e1e" stroke-width="2" fill="none"></path></g></g><mask></mask><g stroke-linecap="round"><g transform="translate(747.1682662243993 78.04478367603224) rotate(0 -49.43394834767514 -28.102212000319923)"><path d="M0.26 0.91 C-16.46 -8.21, -83.28 -45.78, -99.99 -55.2 M-1.07 0.34 C-17.46 -9.05, -81.77 -47.13, -97.87 -56.79" stroke="#1e1e1e" stroke-width="2" fill="none"></path></g></g><mask></mask><g stroke-linecap="round"><g transform="translate(648.367116476812 21.99712489319063) rotate(0 -53.609107669770765 37.307799904071544)"><path d="M-0.95 -0.89 C-16.68 8.59, -77.36 43.58, -94.97 56.17 C-112.58 68.76, -104.62 71.52, -106.63 74.66 M0.76 1.26 C-15.08 10.47, -77.93 42.01, -95.9 54.46 C-113.88 66.92, -105.29 72.35, -107.09 75.99" stroke="#1e1e1e" stroke-width="2" fill="none"></path></g></g><mask></mask><g stroke-linecap="round"><g transform="translate(541.9202961393721 96.35342543297702) rotate(0 0.22394027721702514 18.55412256899126)"><path d="M-0.36 0.01 C-0.27 6.12, 0.41 30.43, 0.62 36.57 M0.45 -0.46 C0.48 5.71, 0.23 30.7, 0.28 36.99" stroke="#1e1e1e" stroke-width="2" fill="none"></path></g></g><mask></mask><g stroke-linecap="round"><g transform="translate(586.0076745629676 174.86339136869356) rotate(0 35.784025779596504 16.65879829158621)"><path d="M-0.82 0.95 C9 6.59, 45.82 28.2, 57.94 32.83 C70.06 37.46, 69.56 29.34, 71.89 28.72 M0.94 0.41 C11.2 6.29, 48.31 29.25, 60.04 34.11 C71.76 38.97, 69.24 30.25, 71.29 29.56" stroke="#1e1e1e" stroke-width="2" fill="none"></path></g></g><mask></mask><g stroke-linecap="round"><g transform="translate(659.8179003721752 144.64281024953925) rotate(0 47.678894336652775 -26.93492499626609)"><path d="M-0.48 1.01 C15.5 -8.1, 79.75 -45.79, 95.78 -55.06 M1.47 0.49 C17.34 -8.47, 79.45 -45.12, 95.05 -54.15" stroke="#1e1e1e" stroke-width="2" fill="none"></path></g></g><mask></mask><g stroke-linecap="round"><g transform="translate(653.5466079032431 134.8919295652595) rotate(0 47.897812152222286 -26.982122873934713)"><path d="M-0.19 -0.77 C15.88 -9.79, 80.8 -44.76, 96.7 -53.76 M-1.75 1.45 C14.22 -8, 80.24 -46.55, 96.23 -55.77" stroke="#1e1e1e" stroke-width="2" fill="none"></path></g></g><mask></mask><g stroke-linecap="round"><g transform="translate(541.9159252490681 87.12805745069454) rotate(0 55.32726825499276 34.64499849367712)"><path d="M-0.66 -0.98 C2.08 -0.18, 1.63 -4.16, 17.67 4.74 C33.7 13.64, 80.15 41.67, 95.54 52.43 C110.93 63.18, 107.52 66.4, 110 69.27 M1.19 1.12 C3.74 1.6, 1.01 -5.61, 17.15 3.09 C33.29 11.79, 82.59 42.11, 98.05 53.32 C113.51 64.53, 108.1 67.54, 109.9 70.36" stroke="#1e1e1e" stroke-width="1" fill="none"></path></g></g><mask></mask><g stroke-linecap="round"><g transform="translate(651.8632826272014 157.57979171390616) rotate(0 -0.7921842983782881 25.153361129090626)"><path d="M0.52 0.73 C0.31 9.24, -1.81 41.79, -2.26 49.86 M-0.67 0.07 C-0.39 8.84, 0.53 42.87, 0.1 51.16" stroke="#1e1e1e" stroke-width="1" fill="none"></path></g></g><mask></mask><g stroke-linecap="round"><g transform="translate(830.4631377260666 81.79387907472301) rotate(0 48.61936771484625 -23.909366482824225)"><path d="M-0.52 -0.07 C12 -8.07, 59.47 -39.49, 75.85 -47.28 C92.23 -55.07, 94.23 -46.75, 97.78 -46.81 M1.41 -1.16 C14.24 -9.04, 62.07 -38.02, 78.05 -45.93 C94.04 -53.85, 94.08 -48.54, 97.3 -48.63" stroke="#1e1e1e" stroke-width="2" fill="none"></path></g></g><mask></mask><g stroke-linecap="round"><g transform="translate(927.4711148664028 34.33927040596609) rotate(0 55.356105911365376 36.01671870655082)"><path d="M0.2 -0.04 C16.14 9.18, 78.35 42.94, 96.85 55 C115.36 67.06, 109.02 69.47, 111.22 72.3 M-1.15 -1.11 C15.05 8.28, 80.36 43.62, 99.01 56.1 C117.66 68.58, 108.89 70.93, 110.73 73.76" stroke="#1e1e1e" stroke-width="2" fill="none"></path></g></g><mask></mask><g stroke-linecap="round"><g transform="translate(1039.108114662451 107.74497384399729) rotate(0 -3.7338095070699637 24.112925125909896)"><path d="M-0.44 0.03 C-0.61 6.64, -0.3 32.26, -1.44 40.22 C-2.58 48.17, -6.26 46.43, -7.28 47.76 M0.34 -0.44 C0.12 6.27, -0.61 31.42, -1.92 39.51 C-3.23 47.6, -6.61 46.59, -7.53 48.13" stroke="#1e1e1e" stroke-width="2" fill="none"></path></g></g><mask></mask><g stroke-linecap="round"><g transform="translate(1032.084464068139 154.9793531187297) rotate(0 -48.437744270371695 25.240394334364282)"><path d="M0.47 1.1 C-12.31 8.91, -60.87 39.05, -77.08 47.36 C-93.28 55.68, -93.42 50.54, -96.77 50.99 M-0.75 0.64 C-13.64 8.5, -61.83 40.28, -77.96 48.33 C-94.08 56.38, -94.29 48.48, -97.48 48.92" stroke="#1e1e1e" stroke-width="2" fill="none"></path></g></g><mask></mask><g stroke-linecap="round"><g transform="translate(869.6990661803402 168.66428482635092) rotate(0 33.910500936201515 18.269826920683954)"><path d="M0.16 -1.14 C11.47 5.01, 55.35 31.46, 66.82 37.56 M-1.22 0.88 C10.55 6.65, 57.34 30.09, 69.01 35.98" stroke="#1e1e1e" stroke-width="2" fill="none"></path></g></g><mask></mask><g stroke-linecap="round"><g transform="translate(831.3063267605603 81.98690882247683) rotate(0 58.85915712907854 41.05084678710955)"><path d="M0.89 1.04 C18.12 11.07, 84.33 47.65, 103.78 61.16 C123.24 74.66, 115.38 78.69, 117.62 82.07 M-0.1 0.53 C16.95 10.6, 83.45 48.31, 102.93 62.12 C122.42 75.92, 114.43 80.02, 116.81 83.37" stroke="#1e1e1e" stroke-width="2" fill="none"></path></g></g><mask></mask><g stroke-linecap="round"><g transform="translate(948.3648302445863 166.6208017240133) rotate(0 -1.624520808915804 19.84521288471751)"><path d="M0.51 -0.23 C0.37 4.82, -0.45 23.57, -0.98 30.23 C-1.52 36.88, -2.37 38.11, -2.71 39.7 M0.11 -0.83 C-0.05 4.1, -0.67 22.68, -1.15 29.54 C-1.63 36.39, -2.5 38.51, -2.78 40.31" stroke="#1e1e1e" stroke-width="2" fill="none"></path></g></g><mask></mask><g stroke-linecap="round"><g transform="translate(941.9843196734628 146.45972197933952) rotate(0 44.32664934724198 -25.031132539643295)"><path d="M0 -0.74 C14.53 -9.02, 73.51 -42.07, 88.3 -50.38 M-1.47 1.48 C12.78 -6.55, 72.26 -40.5, 87.16 -49" stroke="#1e1e1e" stroke-width="2" fill="none"></path></g></g><mask></mask><g stroke-linecap="round"><g transform="translate(948.3507917174766 156.8026068270301) rotate(0 43.753263255626734 -25.644440692726675)"><path d="M0.5 -0.43 C14.97 -9.16, 72.2 -43.45, 86.64 -51.83 M-0.7 -1.7 C14.17 -10.33, 74.42 -42.06, 88.9 -50.58" stroke="#1e1e1e" stroke-width="2" fill="none"></path></g></g><mask></mask><g stroke-linecap="round"><g transform="translate(867.1791696282444 74.20945729490086) rotate(0 21.01519021328204 -11.049265260873653)"><path d="M-0.63 -1.05 C6.47 -4.62, 34.83 -17.96, 41.77 -21.46 M1.24 1.02 C8.23 -2.91, 33.67 -19.62, 40.68 -23.25" stroke="#1e1e1e" stroke-width="1" fill="none"></path></g></g><mask></mask><g stroke-linecap="round"><g transform="translate(874.5466896112557 78.6769408942564) rotate(0 19.979339583590445 -10.934138766881006)"><path d="M-0.41 -0.16 C5.92 -3.95, 32.28 -17.84, 38.93 -21.6 M1.58 -1.28 C8.19 -4.95, 34.95 -20.16, 41.1 -23.58" stroke="#1e1e1e" stroke-width="1" fill="none"></path></g></g><mask></mask><g stroke-linecap="round"><g transform="translate(881.2931021591812 81.19015225810108) rotate(0 20.09648079122735 -10.513927063811025)"><path d="M0.31 0.85 C7.08 -2.61, 33.45 -16.9, 40.14 -20.44 M-0.99 0.26 C5.66 -3.6, 32.36 -18.47, 39.17 -22.25" stroke="#1e1e1e" stroke-width="1" fill="none"></path></g></g><mask></mask><g stroke-linecap="round"><g transform="translate(888.2196876702046 86.44740360624019) rotate(0 19.100060985727396 -11.097330572114515)"><path d="M0.66 0.81 C6.99 -3.05, 32.44 -18.9, 38.59 -22.84 M-0.45 0.19 C5.71 -3.56, 31.7 -17.97, 37.84 -21.65" stroke="#1e1e1e" stroke-width="1" fill="none"></path></g></g><mask></mask><g stroke-linecap="round"><g transform="translate(897.3359790969535 91.27350623438178) rotate(0 19.764916488530616 -11.193173378364008)"><path d="M0.5 0.56 C7.07 -2.86, 32.58 -17.89, 39.27 -21.55 M-0.69 -0.19 C5.71 -3.85, 31.33 -19.4, 38.18 -23.24" stroke="#1e1e1e" stroke-width="1" fill="none"></path></g></g><mask></mask><g stroke-linecap="round"><g transform="translate(904.7000452851462 95.12736562076134) rotate(0 18.997886222309717 -11.12927817419768)"><path d="M-0.45 0.71 C5.85 -2.95, 30.72 -17.46, 37.09 -21.29 M1.51 0.03 C8.25 -4, 33.44 -19.4, 39.33 -22.9" stroke="#1e1e1e" stroke-width="1" fill="none"></path></g></g><mask></mask><g stroke-linecap="round"><g transform="translate(911.4297644914432 100.97118645578848) rotate(0 19.193601262095854 -10.929245890886705)"><path d="M0.71 0.03 C6.86 -3.76, 31.22 -17.91, 37.36 -21.63 M-0.38 -0.99 C6.1 -4.66, 32.8 -20.27, 39.53 -23.63" stroke="#1e1e1e" stroke-width="1" fill="none"></path></g></g><mask></mask><g stroke-linecap="round"><g transform="translate(915.192363525869 148.11664137202752) rotate(0 -39.95425709559913 -21.02569486707671)"><path d="M1.09 -0.59 C-10.49 -7.51, -56.65 -34.53, -70.04 -41 C-83.42 -47.47, -77.49 -39.85, -79.2 -39.43 M0.21 1.72 C-11.41 -5.57, -57.18 -35.9, -70.48 -42.57 C-83.78 -49.24, -77.97 -38.63, -79.6 -38.32" stroke="#1e1e1e" stroke-width="1" fill="none"></path></g></g><mask></mask><g stroke-linecap="round" transform="translate(889.600199413765 153.00919689299735) rotate(334.51252222985255 7.873340925570574 10.105930946988337)"><path d="M8.9 -0.4 C10.52 -0.48, 12.08 0.96, 13.16 2.59 C14.24 4.22, 15.17 7.1, 15.4 9.38 C15.63 11.67, 15.39 14.49, 14.53 16.29 C13.67 18.08, 11.89 19.72, 10.23 20.16 C8.56 20.6, 6.1 19.87, 4.54 18.94 C2.99 18.01, 1.68 16.41, 0.88 14.58 C0.09 12.75, -0.57 10.07, -0.22 7.96 C0.13 5.85, 1.53 3.28, 2.99 1.91 C4.45 0.55, 7.56 0.02, 8.52 -0.23 C9.48 -0.47, 8.67 0.17, 8.74 0.45 M8.85 -0.49 C10.44 -0.36, 11.3 1.94, 12.56 3.51 C13.81 5.09, 16.07 6.94, 16.38 8.95 C16.7 10.96, 15.61 13.71, 14.47 15.57 C13.32 17.43, 11.07 19.52, 9.49 20.12 C7.92 20.72, 6.58 20.12, 5.02 19.2 C3.46 18.27, 0.91 16.61, 0.13 14.58 C-0.65 12.55, -0.2 9.02, 0.33 7.03 C0.85 5.05, 2.04 3.95, 3.29 2.67 C4.55 1.38, 7.02 -0.34, 7.85 -0.66 C8.67 -0.98, 8.17 0.43, 8.23 0.75" stroke="#1e1e1e" stroke-width="1" fill="none"></path></g><g stroke-linecap="round" transform="translate(893.7999129187892 158.35299444874) rotate(327.9912791412859 3.7963811019149034 5.389418974198634)"><path d="M5 1.5 C5.59 2.76, 6.23 3.77, 6.59 4.5 M5 1.5 C5.43 2.33, 5.82 3.14, 6.59 4.5 M6.59 4.5 C7.79 6.78, 7.56 5.64, 6.59 7.5 M6.59 4.5 C6.97 5.86, 8.26 5.99, 6.59 7.5 M6.59 7.5 C5.97 8.17, 5.21 8.82, 5 9.28 M6.59 7.5 C6.21 7.97, 5.84 8.34, 5 9.28 M5 9.28 C4.76 11.67, 3.65 10.3, 3 9.28 M5 9.28 C3.87 9.96, 3.39 11.25, 3 9.28 M3 9.28 C2.38 8.79, 2.01 8.5, 1 7.5 M3 9.28 C2.52 8.89, 2.13 8.47, 1 7.5 M1 7.5 C0.55 6.59, -0.13 6.56, 1 4.5 M1 7.5 C0.8 6.94, 0.27 6.23, 1 4.5 M1 4.5 C1.66 3.4, 2.37 2.47, 3 1.5 M1 4.5 C1.47 3.79, 2.12 2.96, 3 1.5 M3 1.5 C4.68 0.95, 3.44 -0.55, 5 1.5 M3 1.5 C4.87 0.49, 4.2 0.24, 5 1.5" stroke="#1e1e1e" stroke-width="1" fill="none"></path></g><g stroke-linecap="round"><g transform="translate(832.3010411423984 116.62704245427994) rotate(0 -8.532513731154268 5.527860909180163)"><path d="M0 0 C-6.82 4.36, -13.49 7.95, -17.07 11.06 M0 0 C-5.3 3.26, -11.39 6.74, -17.07 11.06" stroke="#1e1e1e" stroke-width="2" fill="none"></path></g></g><mask></mask><g stroke-linecap="round"><g transform="translate(813.8517037544116 129.05081762285954) rotate(0 -1.6503550356046617 2.37471052291221)"><path d="M0 0 C-0.74 1.06, -1.75 2.15, -3.3 4.75 M0 0 C-0.8 1.31, -1.74 2.44, -3.3 4.75" stroke="#1e1e1e" stroke-width="2" fill="none"></path></g></g><mask></mask><g stroke-linecap="round" transform="translate(805.4646790821789 135.9064180595069) rotate(331.19721945658006 7.692411777969937 11.967505309177795)"><path d="M8.19 -0.06 C9.81 -0.03, 12.26 1.72, 13.51 3.6 C14.76 5.48, 15.66 8.63, 15.7 11.22 C15.75 13.81, 14.77 17.02, 13.77 19.12 C12.78 21.22, 11.31 23.2, 9.73 23.82 C8.14 24.43, 5.76 24, 4.26 22.81 C2.76 21.63, 1.44 18.99, 0.71 16.71 C-0.03 14.43, -0.53 11.5, -0.14 9.11 C0.26 6.73, 1.67 3.92, 3.09 2.42 C4.51 0.92, 7.48 0.51, 8.38 0.13 C9.27 -0.25, 8.53 -0.11, 8.48 0.16 M9.58 -0.07 C11.07 0.29, 12.14 2.3, 13.11 4.29 C14.08 6.28, 15.41 9.36, 15.4 11.88 C15.39 14.39, 14.08 17.34, 13.04 19.4 C12 21.46, 10.64 23.64, 9.17 24.23 C7.69 24.83, 5.57 24.22, 4.19 22.99 C2.82 21.77, 1.54 19.33, 0.92 16.88 C0.31 14.44, 0.12 10.97, 0.51 8.33 C0.91 5.7, 1.9 2.5, 3.29 1.05 C4.67 -0.39, 7.85 -0.16, 8.82 -0.35 C9.79 -0.53, 9.02 -0.3, 9.1 -0.06" stroke="#1e1e1e" stroke-width="2" fill="none"></path></g><g stroke-linecap="round"><g transform="translate(827.0820551669512 141.5264887823305) rotate(0 12.323734704213166 -8.047630105425014)"><path d="M0 0 C6.31 -4.03, 13.21 -9.33, 24.65 -16.1 M0 0 C5.1 -3.08, 11.01 -6.67, 24.65 -16.1" stroke="#1e1e1e" stroke-width="2" fill="none"></path></g></g><mask></mask><g stroke-linecap="round"><g transform="translate(821.9349732752671 159.59692291152714) rotate(0 4.013811006275773 -1.2364376142868423)"><path d="M0 0 C1.84 -0.61, 3.62 -1.27, 8.03 -2.47 M0 0 C2.24 -0.85, 4.7 -1.42, 8.03 -2.47" stroke="#1e1e1e" stroke-width="2" fill="none"></path></g></g><mask></mask><g stroke-linecap="round" transform="translate(832.4474250004878 151.22899856085496) rotate(331.19721945658006 7.692411777969937 11.967505309177795)"><path d="M6.36 -0.38 C7.87 -0.88, 10.28 0.35, 11.78 1.87 C13.28 3.39, 14.92 6.34, 15.36 8.74 C15.79 11.14, 15.07 13.9, 14.4 16.27 C13.73 18.64, 12.78 21.75, 11.33 22.96 C9.88 24.16, 7.34 24.15, 5.68 23.51 C4.02 22.86, 2.38 21.09, 1.35 19.06 C0.33 17.03, -0.54 13.92, -0.45 11.35 C-0.37 8.78, 0.56 5.54, 1.86 3.62 C3.16 1.71, 6.34 0.37, 7.36 -0.15 C8.38 -0.68, 7.99 0.2, 7.96 0.48 M9.41 0.3 C10.94 0.56, 12.18 2.37, 13.11 4.31 C14.04 6.26, 15.03 9.3, 15.01 11.96 C14.98 14.63, 14.03 18.29, 12.97 20.29 C11.91 22.28, 10.15 23.49, 8.66 23.93 C7.17 24.37, 5.43 24.22, 4.01 22.92 C2.6 21.61, 0.71 18.77, 0.15 16.12 C-0.41 13.46, -0.11 9.55, 0.66 6.98 C1.42 4.42, 3.4 1.95, 4.74 0.73 C6.08 -0.49, 7.9 -0.37, 8.7 -0.34 C9.5 -0.32, 9.52 0.67, 9.54 0.87" stroke="#1e1e1e" stroke-width="2" fill="none"></path></g><g stroke-linecap="round"><g transform="translate(836.3583072253832 150.77585496596475) rotate(0 11.2776865986757 -9.94496003743643)"><path d="M0 0 C1.93 -2.42, 3.51 -5.02, 6.03 -9.85 M0 0 C2.31 -3.7, 4.93 -7.57, 6.03 -9.85 M6.03 -9.85 C11.55 -11.96, 15.68 -14.94, 22.56 -19.89 M6.03 -9.85 C10.13 -12.49, 14.13 -14.58, 22.56 -19.89" stroke="#1e1e1e" stroke-width="2" fill="none"></path></g></g><mask></mask><g stroke-linecap="round"><g transform="translate(854.4362443894079 158.4114434087769) rotate(0 11.326768951505528 -7.853176452811567)"><path d="M0 0 C4.17 -2.65, 10.68 -6.76, 22.65 -15.71 M0 0 C4.98 -2.97, 9.66 -6.68, 22.65 -15.71" stroke="#1e1e1e" stroke-width="2" fill="none"></path></g></g><mask></mask><g stroke-linecap="round"><g transform="translate(846.9388368380014 173.1217684410458) rotate(0 15.855788349271279 -5.544117484640083)"><path d="M0 0 C4.06 -0.61, 6.97 -0.48, 13.57 -2.24 M0 0 C4.9 -0.95, 10.42 -1.81, 13.57 -2.24 M13.57 -2.24 C19.95 -5.27, 26.56 -8.12, 31.71 -11.09 M13.57 -2.24 C19.16 -5.34, 25.63 -8.18, 31.71 -11.09" stroke="#1e1e1e" stroke-width="2" fill="none"></path></g></g><mask></mask><g stroke-linecap="round"><g transform="translate(851.0085002555752 71.44007692734158) rotate(0 55.98155756876213 31.3179697584701)"><path d="M0 0 C43.5 25.38, 86.17 46.34, 111.96 62.64 M0 0 C28.57 15.49, 56.54 32.84, 111.96 62.64" stroke="#1e1e1e" stroke-width="1" fill="none"></path></g></g><mask></mask><g stroke-linecap="round"><g transform="translate(905.8139665671279 42.05265298672384) rotate(0 53.660383383437875 31.629950403462317)"><path d="M0 0 C38.43 20.72, 74.63 45.27, 107.32 63.26 M0 0 C29.09 17.86, 55.88 33.71, 107.32 63.26" stroke="#1e1e1e" stroke-width="1" fill="none"></path></g></g><mask></mask><g stroke-linecap="round"><g transform="translate(829.1216382463481 82.37099838153699) rotate(0 -2.0421935088138525 17.85603264071051)"><path d="M-0.51 0.47 C-1.2 1.64, -3.72 0.94, -4.24 6.88 C-4.75 12.82, -3.59 31.41, -3.61 36.13 M0.22 0.24 C-0.27 1.28, -2.5 0.3, -3.16 6.14 C-3.82 11.98, -3.51 30.39, -3.72 35.28" stroke="#1e1e1e" stroke-width="2" fill="none"></path></g></g><mask></mask><g stroke-linecap="round" transform="translate(883.2626296629032 144.13706863297375) rotate(346.52758201932915 14.438578882340153 18.19749743196553)"><path d="M15.29 0.02 C18.26 -0.17, 22.31 1.92, 24.5 4.43 C26.69 6.95, 28.07 11.17, 28.43 15.11 C28.79 19.04, 28.17 24.58, 26.66 28.04 C25.16 31.49, 22.32 34.62, 19.39 35.84 C16.45 37.07, 12 36.96, 9.06 35.38 C6.12 33.81, 3.25 29.9, 1.75 26.39 C0.26 22.89, -0.56 18.14, 0.08 14.34 C0.72 10.54, 3.06 6.04, 5.61 3.58 C8.17 1.13, 13.55 0.14, 15.39 -0.39 C17.22 -0.91, 16.57 0.08, 16.62 0.43 M15.18 -0.45 C18.21 -0.64, 22.31 2.15, 24.61 4.73 C26.91 7.31, 28.72 11.24, 29 15.04 C29.27 18.83, 27.84 23.99, 26.27 27.51 C24.71 31.03, 22.42 34.96, 19.61 36.16 C16.8 37.36, 12.35 36.17, 9.41 34.72 C6.48 33.26, 3.59 30.87, 2 27.44 C0.41 24.01, -0.8 18.13, -0.13 14.13 C0.54 10.13, 3.58 5.84, 6 3.44 C8.42 1.05, 12.82 0.37, 14.4 -0.23 C15.98 -0.83, 15.37 -0.56, 15.46 -0.16" stroke="#1e1e1e" stroke-width="2" fill="none"></path></g><g stroke-linecap="round"><g transform="translate(888.021907878513 145.96641198913312) rotate(0 -28.682017698688014 -18.00361640960182)"><path d="M-0.2 0.17 C-1.53 -1.39, -3.66 -5.98, -6.88 -9.14 C-10.1 -12.29, -16.09 -17.23, -19.51 -18.76 C-22.93 -20.3, -25.15 -16.32, -27.4 -18.36 C-29.66 -20.4, -29 -28.25, -33.05 -31.01 C-37.11 -33.78, -47.8 -35.12, -51.72 -34.93 C-55.63 -34.74, -55.71 -30.56, -56.55 -29.88 M-1.77 -0.79 C-3.32 -2.69, -4.51 -7.99, -7.65 -10.74 C-10.8 -13.5, -17.45 -16.17, -20.62 -17.32 C-23.79 -18.48, -24.36 -15.49, -26.66 -17.65 C-28.96 -19.81, -30.48 -27.31, -34.44 -30.27 C-38.41 -33.23, -46.33 -35.28, -50.45 -35.4 C-54.56 -35.53, -57.97 -31.67, -59.13 -31.02" stroke="#1e1e1e" stroke-width="2" fill="none"></path></g></g><mask></mask><g transform="translate(933.3334951690877 198.8903934333557) rotate(0 0.00005000000010113581 0.00004999999964638846)" stroke="none"><path fill="#1e1e1e" d="M 3.14,-3.14 Q 3.14,-3.14 3.55,-2.55 3.97,-1.97 4.18,-1.28 4.40,-0.59 4.38,0.11 4.36,0.83 4.11,1.51 3.86,2.18 3.41,2.74 2.96,3.30 2.36,3.69 1.75,4.07 1.05,4.25 0.36,4.42 -0.35,4.36 -1.07,4.30 -1.73,4.02 -2.39,3.74 -2.92,3.26 -3.46,2.78 -3.81,2.15 -4.16,1.53 -4.30,0.82 -4.43,0.11 -4.34,-0.59 -4.24,-1.30 -3.92,-1.94 -3.60,-2.59 -3.09,-3.09 -2.59,-3.60 -1.94,-3.92 -1.30,-4.24 -0.59,-4.34 0.12,-4.43 0.82,-4.30 1.53,-4.16 2.15,-3.81 2.78,-3.46 3.26,-2.92 3.74,-2.39 4.02,-1.73 4.31,-1.07 4.36,-0.35 4.42,0.36 4.25,1.05 4.07,1.75 3.69,2.36 3.30,2.96 2.74,3.41 2.18,3.86 1.51,4.11 0.83,4.36 0.11,4.38 -0.60,4.40 -1.28,4.18 -1.97,3.97 -2.55,3.55 -3.14,3.13 -3.14,3.14 -3.14,3.14 -3.47,2.71 -3.80,2.29 -4.02,1.80 -4.24,1.32 -4.33,0.79 -4.43,0.26 -4.40,-0.26 -4.36,-0.80 -4.20,-1.31 -4.04,-1.82 -3.77,-2.28 -3.49,-2.73 -3.11,-3.11 -2.73,-3.49 -2.28,-3.77 -1.82,-4.05 -1.31,-4.20 -0.80,-4.36 -0.26,-4.40 0.26,-4.43 0.79,-4.33 1.32,-4.24 1.80,-4.02 2.29,-3.80 2.71,-3.47 3.14,-3.14 3.14,-3.14 L 3.14,-3.14 Z"></path></g><g stroke-linecap="round"><g transform="translate(569.5588019834013 70.44456778043968) rotate(0 51.13896106286984 66.12835529532003)"><path d="M0 0 C27.85 19.64, 59.26 37.29, 94.9 57.76 M0 0 C35.99 22.43, 71.22 43.2, 94.9 57.76 M94.9 57.76 C98.33 60.97, 100.21 64.67, 102.28 67.84 M94.9 57.76 C96.95 60.34, 99.11 63.91, 102.28 67.84 M102.28 67.84 C101.91 86.71, 102.62 109.3, 101.66 132.26 M102.28 67.84 C102.5 88.08, 101.84 107.39, 101.66 132.26" stroke="#1e1e1e" stroke-width="1" fill="none"></path></g></g><mask></mask><g stroke-linecap="round"><g transform="translate(1029.166826059909 122.23201706627151) rotate(0 -11.809089358020174 14.918190788849643)"><path d="M0 0 C-0.63 8.36, -0.36 15.25, 0.63 19.55 M0 0 C-0.24 4.65, 0.66 8.93, 0.63 19.55 M0.63 19.55 C-4.83 23.94, -11.75 27.44, -14.96 29.84 M0.63 19.55 C-3.55 22.4, -6.62 24.09, -14.96 29.84 M-14.96 29.84 C-17.95 28.97, -20.32 27.92, -24.24 25.7 M-14.96 29.84 C-17.81 28.36, -20.62 27.39, -24.24 25.7 M-24.24 25.7 C-22.59 22.73, -20.52 17.59, -17.61 11.38 M-24.24 25.7 C-21.85 19.71, -18.99 14.48, -17.61 11.38 M-17.61 11.38 C-13.1 8.72, -9.42 7.99, -0.04 1.01 M-17.61 11.38 C-11.48 7.59, -5.87 4.99, -0.04 1.01" stroke="#1e1e1e" stroke-width="1" fill="none"></path></g></g><mask></mask><g stroke-linecap="round"><g transform="translate(1027.3028162153714 142.06903811698612) rotate(0 -7.82525366754453 -1.6410723620429053)"><path d="M0 0 C-5.33 -1.14, -10.17 -2.65, -15.65 -3.28 M0 0 C-3.91 -0.75, -8.73 -1.56, -15.65 -3.28" stroke="#1e1e1e" stroke-width="1" fill="none"></path></g></g><mask></mask><g stroke-linecap="round"><g transform="translate(355.2369947159623 193.4098080572785) rotate(0 65.72701735347755 -30.001642398819058)"><path d="M-1.16 -1.14 C3.51 -0.84, 7.26 12.44, 29.16 2.2 C51.07 -8.04, 113.14 -51.77, 130.29 -62.59 M0.44 0.88 C5.38 0.77, 9.45 10.78, 31.47 0.34 C53.5 -10.09, 115.71 -51.32, 132.57 -61.74" stroke="#1e1e1e" stroke-width="2" fill="none"></path></g></g><mask></mask><g stroke-linecap="round"><g transform="translate(353.5721475759956 191.45045967440456) rotate(0 -22.489904375332117 -22.583103168673006)"><path d="M-0.26 -0.77 C-6.94 -5.72, -33.49 -22.93, -40.99 -30.37 C-48.5 -37.82, -44.78 -42.95, -45.29 -45.45 M1.8 1.43 C-4.41 -3.78, -30.7 -24.44, -38.7 -32.06 C-46.71 -39.68, -45.45 -42.23, -46.21 -44.29" stroke="#1e1e1e" stroke-width="2" fill="none"></path></g></g><mask></mask><g stroke-linecap="round"><g transform="translate(308.67076026777613 147.11053256867854) rotate(0 5.59213165413712 -24.112557192543136)"><path d="M0.03 -0.4 C-0.02 -6.59, -2.05 -29.64, -0.2 -37.64 C1.66 -45.63, 9.2 -46.57, 11.17 -48.37 M-0.62 0.58 C-0.49 -5.48, -1.01 -28.94, 0.89 -37.01 C2.8 -45.08, 8.97 -46.01, 10.81 -47.85" stroke="#1e1e1e" stroke-width="2" fill="none"></path></g></g><mask></mask><g stroke-linecap="round"><g transform="translate(314.7399620745746 102.80955720362545) rotate(0 16.915883954670335 -12.297424484831026)"><path d="M0 0 C7.61 -5.13, 14.76 -11.89, 33.83 -24.59 M0 0 C7.51 -5.5, 15.69 -10.91, 33.83 -24.59" stroke="#1e1e1e" stroke-width="2" fill="none"></path></g></g><mask></mask><g stroke-linecap="round"><g transform="translate(348.3764760488384 78.25819334733569) rotate(0 29.015542718026154 -7.391380738597036)"><path d="M0 0 C4.26 0.33, 7.64 -0.72, 14.87 0.91 M0 0 C4.43 -0.46, 10.44 0.51, 14.87 0.91 M14.87 0.91 C16.98 3.44, 19.83 3.77, 21.43 6.44 M14.87 0.91 C17.15 2.64, 19.1 4.15, 21.43 6.44 M21.43 6.44 C30.63 1, 37.71 -6.51, 58.03 -21.22 M21.43 6.44 C33.89 -2.89, 45.62 -12.26, 58.03 -21.22" stroke="#1e1e1e" stroke-width="2" fill="none"></path></g></g><mask></mask><g stroke-linecap="round"><g transform="translate(405.20718663396383 57.702915604179) rotate(0 20.94302802785296 -6.429196975986997)"><path d="M0.47 -0.34 C4.18 -2.52, 15.1 -12.3, 21.97 -12.73 C28.85 -13.16, 38.34 -4.58, 41.73 -2.92 M0.04 0.68 C3.76 -1.71, 14.94 -13.1, 21.82 -13.63 C28.69 -14.16, 37.83 -4.35, 41.3 -2.48" stroke="#1e1e1e" stroke-width="2" fill="none"></path></g></g><mask></mask><g stroke-linecap="round"><g transform="translate(440.50271393941784 50.98274053736168) rotate(0 24.244280800234264 23.624441811599354)"><path d="M1.08 0.74 C8.38 6.24, 35.44 25.59, 43.34 33.37 C51.24 41.16, 47.61 45.01, 48.5 47.44 M0.19 0.08 C7.9 5.17, 37.65 23.27, 45.58 31.4 C53.51 39.53, 47.17 46.46, 47.74 48.85" stroke="#1e1e1e" stroke-width="2" fill="none"></path></g></g><mask></mask><g stroke-linecap="round"><g transform="translate(489.3347884401601 99.33810026190258) rotate(0 -32.947051078224376 17.698300471173752)"><path d="M-0.57 -0.3 C-9.44 5.66, -41.5 29.13, -52.28 35.07 C-63.05 41, -62.91 35.13, -65.22 35.29 M1.33 -1.5 C-7.79 4.2, -42.12 27.15, -53.28 33.49 C-64.44 39.83, -63.51 36.51, -65.63 36.55" stroke="#1e1e1e" stroke-width="2" fill="none"></path></g></g><mask></mask><g stroke-linecap="round"><g transform="translate(425.67876771765805 136.91097346041897) rotate(0 -11.693062209285927 -4.069054634129316)"><path d="M0.44 -0.47 C-1.31 -1.89, -6.17 -8.08, -10.05 -8.22 C-13.94 -8.36, -20.72 -2.42, -22.87 -1.31 M0 0.47 C-1.87 -0.89, -6.72 -7.36, -10.55 -7.57 C-14.37 -7.77, -20.94 -1.8, -22.95 -0.74" stroke="#1e1e1e" stroke-width="2" fill="none"></path></g></g><mask></mask><g stroke-linecap="round"><g transform="translate(402.6652491133518 136.03107871758948) rotate(0 -10.01371575103758 6.877747829003965)"><path d="M0.45 0.03 C-2.75 2.24, -16.06 10.93, -19.51 13.27 M0.02 -0.42 C-3.18 1.83, -16.22 11.46, -19.68 13.72" stroke="#1e1e1e" stroke-width="2" fill="none"></path></g></g><mask></mask><g stroke-linecap="round"><g transform="translate(383.3473724079395 149.30228763417108) rotate(0 -11.975119569950493 1.2481839496167595)"><path d="M0.49 0.07 C-1.55 1, -7.88 5.53, -11.99 5.04 C-16.09 4.55, -22.14 -1.65, -24.12 -2.85 M0.08 -0.37 C-2.03 0.7, -8.22 6.1, -12.33 5.76 C-16.43 5.42, -22.66 -0.94, -24.55 -2.43" stroke="#1e1e1e" stroke-width="2" fill="none"></path></g></g><mask></mask><g stroke-linecap="round"><g transform="translate(310.80214532614355 107.88102857039485) rotate(0 26.231273174531907 20.91183582919257)"><path d="M1.2 -0.91 C10.12 6.1, 43.99 35.65, 52.5 42.57 M0.37 1.23 C9.23 7.85, 43.06 34.15, 51.58 40.84" stroke="#1e1e1e" stroke-width="2" fill="none"></path></g></g><mask></mask><g stroke-linecap="round"><g transform="translate(490.28531669619133 89.50625302957087) rotate(0 0.30833401684276396 17.218129564107585)"><path d="M0.4 -0.07 C0.6 5.55, 0.71 28.32, 0.77 34.07 M-0.06 -0.59 C0.11 5.07, 0.33 28.65, 0.42 34.58" stroke="#1e1e1e" stroke-width="2" fill="none"></path></g></g><mask></mask><g stroke-linecap="round"><g transform="translate(377.7993991221856 155.36681602814497) rotate(0 0.4041707188539476 20.20388495629595)"><path d="M-0.48 -0.29 C-0.3 6.56, 0.33 33.82, 0.62 40.57 M0.28 0.76 C0.41 7.48, -0.05 33.04, 0.09 39.69" stroke="#1e1e1e" stroke-width="2" fill="none"></path></g></g><mask></mask><g stroke-linecap="round"><g transform="translate(369.0930540825766 156.37963688378295) rotate(0 0.4041707188539476 20.20388495629595)"><path d="M0.5 0.46 C0.55 7.29, 0.34 33.79, 0.36 40.52 M0.09 0.21 C0.3 6.92, 1.35 32.99, 1.36 39.6" stroke="#1e1e1e" stroke-width="2" fill="none"></path></g></g><mask></mask><g stroke-linecap="round"><g transform="translate(490.5015574441286 116.59218315699763) rotate(0 -68.04784487841835 33.861453255197375)"><path d="M0.88 0.03 C-16.59 11.36, -81.73 57.75, -104.59 68.46 C-127.46 79.18, -131 65.28, -136.31 64.33 M-0.12 -0.99 C-17.74 9.95, -82.52 56.17, -105.37 66.73 C-128.21 77.28, -132.02 62.91, -137.19 62.35" stroke="#1e1e1e" stroke-width="1" fill="none"></path></g></g><mask></mask><g stroke-linecap="round"><g transform="translate(321.0759688903727 157.15279480881145) rotate(0 -5.253754246461995 -4.716565316340166)"><path d="M-0.3 0.04 C-2.2 -1.51, -9.3 -7.99, -10.99 -9.51 M0.54 -0.42 C-1.23 -1.85, -8.13 -7.26, -10 -8.85" stroke="#1e1e1e" stroke-width="2" fill="none"></path></g></g><mask></mask><g stroke-linecap="round"><g transform="translate(370.77566900889906 137.11923498772376) rotate(0 20.16702902123143 -10.48056276650641)"><path d="M-0.23 0.31 C4.3 -3.07, 19.88 -16.68, 26.68 -20.2 C33.48 -23.73, 38.1 -20.62, 40.57 -20.82 M-1.81 -0.57 C3.11 -4.3, 21.84 -18.83, 28.8 -21.98 C35.76 -25.12, 38.28 -19.67, 39.93 -19.43" stroke="#1e1e1e" stroke-width="1" fill="none"></path></g></g><mask></mask><g stroke-linecap="round"><g transform="translate(410.8377600416061 115.93865640009244) rotate(0 12.266323560461387 3.389084830923821)"><path d="M-0.48 0 C1.24 1.09, 6.48 6.75, 10.66 6.8 C14.84 6.86, 22.29 1.41, 24.62 0.34 M0.28 -0.47 C2.15 0.69, 7.75 7.54, 11.75 7.52 C15.76 7.49, 22.14 0.75, 24.31 -0.6" stroke="#1e1e1e" stroke-width="1" fill="none"></path></g></g><mask></mask><g stroke-linecap="round"><g transform="translate(433.5232210591121 115.89056222658473) rotate(0 19.47986502681124 -17.52272755262493)"><path d="M0.42 0.73 C7.07 -3.57, 33.92 -20.59, 38.78 -26.72 C43.65 -32.85, 31 -34.69, 29.63 -36.06 M-0.82 0.07 C5.76 -4.04, 32.28 -19.87, 37.75 -25.77 C43.21 -31.66, 33.15 -33.93, 31.99 -35.28" stroke="#1e1e1e" stroke-width="1" fill="none"></path></g></g><mask></mask><g stroke-linecap="round"><g transform="translate(471.4158404053478 85.26657242619513) rotate(0 -26.160933893101628 -14.458956943703924)"><path d="M-0.41 0.76 C-7.18 -4.11, -31.9 -23.15, -40.75 -28.08 C-49.6 -33, -51.62 -28.54, -53.5 -28.78 M1.57 0.12 C-4.79 -4.58, -29.6 -25.15, -38.4 -29.76 C-47.2 -34.37, -49.02 -27.67, -51.23 -27.52" stroke="#1e1e1e" stroke-width="1" fill="none"></path></g></g><mask></mask><g stroke-linecap="round"><g transform="translate(420.4948000018476 57.09870439505903) rotate(0 -20.651803830257904 15.818308843860905)"><path d="M0.52 -0.18 C-6.34 5.1, -34.94 26.53, -41.99 31.86 M-0.67 -1.32 C-7.06 3.56, -32.61 24.11, -39.64 29.85" stroke="#1e1e1e" stroke-width="1" fill="none"></path></g></g><mask></mask><g stroke-linecap="round"><g transform="translate(370.3327858021139 84.7710715887406) rotate(0 18.323051859545558 15.184258884664814)"><path d="M-0.68 0.29 C5.67 5.3, 31.64 24.62, 37.85 29.47 M1.17 -0.6 C7.49 4.58, 31.76 25.4, 37.53 30.53" stroke="#1e1e1e" stroke-width="1" fill="none"></path></g></g><mask></mask><g stroke-linecap="round" transform="translate(416.4011880398539 80.33693033492455) rotate(0 9.632735953026895 5.9061763721092575)"><path d="M11.05 0.04 C13.17 0.16, 15.8 1.14, 17.15 2 C18.51 2.85, 19.21 4.01, 19.17 5.18 C19.14 6.36, 18.14 8.01, 16.97 9.04 C15.79 10.07, 14.14 11.07, 12.12 11.39 C10.11 11.7, 6.7 11.42, 4.88 10.95 C3.06 10.48, 1.91 9.77, 1.22 8.56 C0.52 7.35, 0.27 5.03, 0.72 3.69 C1.17 2.35, 2.25 1.18, 3.94 0.52 C5.63 -0.13, 9.61 -0.13, 10.86 -0.25 C12.11 -0.37, 11.5 -0.41, 11.46 -0.21 M10.67 0.71 C12.58 0.77, 15.06 0.55, 16.46 1.41 C17.86 2.28, 18.99 4.44, 19.05 5.91 C19.12 7.38, 18.2 9.23, 16.83 10.22 C15.46 11.22, 12.76 11.71, 10.85 11.88 C8.95 12.06, 7.17 11.92, 5.4 11.28 C3.64 10.64, 1.03 9.2, 0.27 8.05 C-0.49 6.89, 0.1 5.66, 0.84 4.36 C1.59 3.06, 2.92 0.86, 4.75 0.24 C6.58 -0.38, 10.73 0.72, 11.85 0.66 C12.98 0.6, 11.56 -0.19, 11.51 -0.12" stroke="#1e1e1e" stroke-width="1" fill="none"></path></g><g stroke-linecap="round" transform="translate(411.84196968096694 76.37491175287869) rotate(0 14.03898176067105 10.104378917153554)"><path d="M12.55 -0.26 C15.37 -0.51, 18.92 0.73, 21.45 1.96 C23.97 3.18, 26.86 5.01, 27.72 7.08 C28.58 9.15, 27.89 12.35, 26.59 14.37 C25.3 16.39, 22.58 18.28, 19.96 19.19 C17.34 20.1, 13.74 20.38, 10.89 19.83 C8.04 19.29, 4.61 17.58, 2.86 15.92 C1.11 14.25, 0.2 11.95, 0.36 9.85 C0.52 7.74, 1.66 4.94, 3.84 3.29 C6.01 1.65, 11.67 0.48, 13.41 -0.02 C15.15 -0.52, 14.25 0.14, 14.29 0.3 M12.6 -0.25 C15.33 -0.67, 18.53 0.97, 21.02 2.11 C23.51 3.26, 26.51 4.64, 27.54 6.61 C28.56 8.57, 28.34 11.92, 27.16 13.92 C25.99 15.91, 23.17 17.48, 20.49 18.57 C17.8 19.67, 13.99 20.82, 11.06 20.48 C8.13 20.14, 4.68 18.38, 2.92 16.54 C1.16 14.69, 0.27 11.63, 0.5 9.41 C0.73 7.18, 2.33 4.75, 4.29 3.18 C6.25 1.61, 11.01 0.55, 12.24 -0.02 C13.47 -0.6, 11.74 -0.47, 11.66 -0.26" stroke="#1e1e1e" stroke-width="1" fill="none"></path></g><g stroke-linecap="round"><g transform="translate(338.00461608977275 95.89066214701052) rotate(0 11.88226397755625 -8.340709255419824)"><path d="M-1.24 1.55 C6.22 -2.33, 10.01 -7.26, 23.01 -15.14 M-0.15 0.1 C8.82 -5.35, 16.36 -11.81, 24.58 -15.7" stroke="#1e1e1e" stroke-width="1" fill="none"></path></g></g><mask></mask><g stroke-linecap="round"><g transform="translate(323.9686799754463 156.9797779182918) rotate(0 0.5067784253587888 -17.040353402585424)"><path d="M0 0 C0.08 -11.67, 1.13 -23.28, 1.01 -34.08 M0 0 C-0.1 -8.68, 0.61 -16.81, 1.01 -34.08" stroke="#1e1e1e" stroke-width="1" fill="none"></path></g></g><mask></mask><g stroke-linecap="round"><g transform="translate(324.3693973226418 157.59906836395749) rotate(0 14.561484017594921 10.744803072438117)"><path d="M0 0 C11.68 7.88, 22.01 16.21, 29.12 21.49 M0 0 C10.35 8, 20.63 15.61, 29.12 21.49" stroke="#1e1e1e" stroke-width="1" fill="none"></path></g></g><mask></mask><g stroke-linecap="round"><g transform="translate(353.36562331809364 177.2706472262489) rotate(0 0.24001299441351875 -16.25959966977007)"><path d="M0 0 C-0.44 -9.34, 0.77 -18.63, 0.48 -32.52 M0 0 C0 -8.65, 0.18 -17.96, 0.48 -32.52" stroke="#1e1e1e" stroke-width="1" fill="none"></path></g></g><mask></mask><g stroke-linecap="round"><g transform="translate(328.0991802824692 158.0775764840455) rotate(0 0.3587862232693624 -10.723173442902407)"><path d="M0 0 C0.46 -6.1, -0.6 -11.93, 0.72 -21.45 M0 0 C-0.31 -4.33, 0.72 -10.06, 0.72 -21.45" stroke="#1e1e1e" stroke-width="1" fill="none"></path></g></g><mask></mask><g stroke-linecap="round"><g transform="translate(329.3098572266599 136.6603671368248) rotate(0 4.763764259289019 -2.6986774167198746)"><path d="M0.38 0.27 C2.77 -2.3, 6.64 -3.25, 9.49 -4.77 M0.13 -0.3 C2.13 -1.3, 4.97 -2.86, 9.71 -5.1" stroke="#1e1e1e" stroke-width="1" fill="none"></path></g></g><mask></mask><g stroke-linecap="round"><g transform="translate(343.2747325891569 134.79760674544923) rotate(0 4.886600324772644 9.423042349271782)"><path d="M0 0 C4.33 6.37, 6.11 13.24, 9.77 18.85 M0 0 C2.46 5.01, 5.54 10.38, 9.77 18.85" stroke="#1e1e1e" stroke-width="1" fill="none"></path></g></g><mask></mask><g stroke-linecap="round"><g transform="translate(329.7675087208363 157.83637780778918) rotate(0 9.579868047488617 -5.554989311183817)"><path d="M0 0 C7.17 -3.6, 12.28 -6.84, 19.16 -11.11 M0 0 C5.65 -2.85, 10.01 -6.41, 19.16 -11.11" stroke="#1e1e1e" stroke-width="1" fill="none"></path></g></g><mask></mask><g stroke-linecap="round"><g transform="translate(345.53411537799184 171.6369549685587) rotate(0 3.518426014567467 -2.5566015533022437)"><path d="M-0.3 0.2 C2.53 -1.49, 4.7 -3.45, 7.53 -5.26 M-0.07 -0.27 C2.24 -1.35, 4.36 -3.51, 7.22 -5.17" stroke="#1e1e1e" stroke-width="1" fill="none"></path></g></g><mask></mask><g stroke-linecap="round"><g transform="translate(474.51841829632485 86.47609341607676) rotate(0 6.834277503694466 2.7589971314619106)"><path d="M0.36 1.15 C1.64 1.38, 4.71 1.64, 6.95 2.53 C9.19 3.42, 12.85 5.96, 13.8 6.49 M-0.9 0.71 C0.31 1.08, 3.84 -0.02, 6.17 0.64 C8.51 1.3, 12.08 3.61, 13.11 4.66" stroke="#1e1e1e" stroke-width="1" fill="none"></path></g></g><mask></mask><g stroke-linecap="round"><g transform="translate(424.5938294746147 53.324522380922645) rotate(0 1.3110612342734385 -4.854574010410033)"><path d="M-0.47 -0.61 C-0.27 -1.49, 0.55 -3.59, 0.95 -5.09 C1.35 -6.59, 1.68 -8.92, 1.91 -9.61 M0.66 0.71 C0.82 -0.07, 0.13 -2.67, 0.58 -4.25 C1.03 -5.82, 3.06 -7.68, 3.36 -8.74" stroke="#1e1e1e" stroke-width="1" fill="none"></path></g></g><mask></mask><g stroke-linecap="round"><g transform="translate(407.47265091668305 115.92481857958774) rotate(0 3.169698809970214 7.531399534411321)"><path d="M0.91 1.04 C1.46 4.79, 5.11 10.93, 6.6 15.15 M0.37 -0.16 C2.82 4.77, 4.22 10.12, 7.08 14.95" stroke="#1e1e1e" stroke-width="1" fill="none"></path></g></g><mask></mask><g stroke-linecap="round"><g transform="translate(423.4766730506781 124.09128272390444) rotate(0 1.76861919680141 5.175804898158276)"><path d="M0.26 0.57 C1.16 4.3, 2.94 6.64, 4.4 11.05 M-0.5 0.38 C1.71 3.12, 2.01 7.14, 4.07 9.86" stroke="#1e1e1e" stroke-width="1" fill="none"></path></g></g><mask></mask><g stroke-linecap="round"><g transform="translate(73.36257862066122 10.850854418644303) rotate(0 41.00474092888089 22.768789919410665)"><path d="M-0.21 -0.63 C9.89 6.78, 47.94 37.34, 61.75 45.17 C75.56 53.01, 79.37 46.12, 82.66 46.38 M-1.78 1.65 C8.15 8.64, 47.27 36.2, 61.28 43.34 C75.28 50.48, 78.86 44.23, 82.23 44.48" stroke="#1e1e1e" stroke-width="2" fill="none"></path></g></g><mask></mask><g stroke-linecap="round"><g transform="translate(150.32697246760108 57.722120171685674) rotate(0 19.05868042365455 7.4635118122760105)"><path d="M0.7 -0.88 C2.52 -1.32, 4.73 -4.68, 10.87 -1.9 C17 0.87, 32.9 12.6, 37.5 15.78 M-0.39 1.28 C1.29 0.98, 3.88 -2.83, 10.02 -0.29 C16.15 2.24, 31.59 13.37, 36.41 16.48" stroke="#1e1e1e" stroke-width="2" fill="none"></path></g></g><mask></mask><g stroke-linecap="round"><g transform="translate(186.2137112057244 73.63828025728071) rotate(0 39.04875158188452 27.795520334467255)"><path d="M0.28 -1.11 C13.34 8.07, 65.15 46.01, 78.06 55.34 M-1.03 0.92 C11.9 10.26, 64.12 47.61, 77.09 56.74" stroke="#1e1e1e" stroke-width="2" fill="none"></path></g></g><mask></mask><g stroke-linecap="round"><g transform="translate(263.8592728789672 130.07279588625897) rotate(0 1.59913455620881 19.368042069900184)"><path d="M-0.51 0.35 C0.03 1.86, 2.85 2.32, 3.28 8.74 C3.71 15.15, 2.22 33.92, 2.06 38.86 M0.22 0.05 C0.71 1.43, 2.64 1.3, 2.9 7.88 C3.15 14.46, 1.8 34.39, 1.75 39.52" stroke="#1e1e1e" stroke-width="2" fill="none"></path></g></g><mask></mask><g stroke-linecap="round"><g transform="translate(265.84266956882857 168.76525201088225) rotate(0 -25.513998874244862 24.054697700006727)"><path d="M0.92 0.55 C-0.06 2.77, 2.07 4.41, -6.58 12.51 C-15.22 20.6, -43.6 43.06, -50.95 49.12 M-0.06 -0.21 C-1.06 1.75, 1.52 2.87, -7.08 10.79 C-15.68 18.71, -44.49 41.33, -51.67 47.3" stroke="#1e1e1e" stroke-width="2" fill="none"></path></g></g><mask></mask><g stroke-linecap="round"><g transform="translate(214.0685208941468 217.039091468092) rotate(0 -13.288086621844286 -3.410815853011627)"><path d="M-0.51 -0.1 C-1.99 0.31, -4.93 4.29, -9.34 2.7 C-13.74 1.12, -24.02 -7.68, -26.93 -9.59 M0.23 -0.63 C-1.29 -0.4, -5.46 3.28, -9.8 1.86 C-14.14 0.44, -22.96 -7.23, -25.8 -9.15" stroke="#1e1e1e" stroke-width="2" fill="none"></path></g></g><mask></mask><g stroke-linecap="round"><g transform="translate(194.54486409522906 214.77622162145417) rotate(0 -91.54115360660217 -71.5958838704255)"><path d="M3.18 -0.8 C-59.34 -40.54, -112.42 -86.5, -181.44 -140.63 M-0.58 -1.16 C-42.07 -36.73, -90.17 -70.7, -181.44 -142.45" stroke="#1e1e1e" stroke-width="2" fill="none"></path></g></g><mask></mask><g stroke-linecap="round"><g transform="translate(24.21255388984264 81.46264109220465) rotate(0 -6.6097971145195515 -16.66191564921519)"><path d="M0.39 -0.41 C-1.77 -2.31, -10.97 -6.11, -13.19 -11.68 C-15.41 -17.26, -13.11 -30.2, -12.93 -33.85 M-0.07 0.56 C-2.28 -1.26, -11.65 -5.57, -13.61 -11.25 C-15.57 -16.93, -12.15 -29.87, -11.84 -33.53" stroke="#1e1e1e" stroke-width="2" fill="none"></path></g></g><mask></mask><g stroke-linecap="round"><g transform="translate(11.715204227758477 48.19809346514012) rotate(0 12.196240246674733 -11.469251307615195)"><path d="M-1.05 0.96 C-0.65 -0.6, -1.13 -4.69, 3.07 -8.56 C7.28 -12.42, 20.47 -19.76, 24.17 -22.21 M0.6 0.41 C0.79 -1.56, -1.63 -6.19, 2.15 -10.29 C5.93 -14.38, 19.32 -22.17, 23.29 -24.17" stroke="#1e1e1e" stroke-width="2" fill="none"></path></g></g><mask></mask><g stroke-linecap="round"><g transform="translate(35.85099253581575 25.52667295698484) rotate(0 18.9664966337632 -7.086232243746053)"><path d="M-0.46 -0.32 C3.58 -2.82, 17.68 -12.34, 24.16 -14.63 C30.64 -16.92, 36.16 -14.1, 38.41 -14.07 M0.3 0.7 C4.54 -1.77, 18.91 -11.79, 25.24 -14.17 C31.58 -16.54, 36.24 -13.55, 38.31 -13.55" stroke="#1e1e1e" stroke-width="2" fill="none"></path></g></g><mask></mask><g stroke-linecap="round"><g transform="translate(12.888654217670592 49.70402095218378) rotate(0 36.41850937430081 29.181012092793026)"><path d="M0 0 C20.79 18.12, 42.93 36.11, 72.84 58.36 M0 0 C18.34 14.28, 36.1 28.21, 72.84 58.36" stroke="#1e1e1e" stroke-width="2" fill="none"></path></g></g><mask></mask><g stroke-linecap="round"><g transform="translate(86.50919530328338 107.43653811193326) rotate(0 54.51958664050562 29.22226619400317)"><path d="M0 0 C4.4 -0.45, 10.49 -3.24, 16.95 -6.44 M0 0 C6.19 -2.04, 12.12 -4.9, 16.95 -6.44 M16.95 -6.44 C49.56 19.81, 77.99 43.79, 109.04 64.89 M16.95 -6.44 C49 18.4, 81.91 42.32, 109.04 64.89" stroke="#1e1e1e" stroke-width="2" fill="none"></path></g></g><mask></mask><g stroke-linecap="round"><g transform="translate(195.36012764841416 172.65041012922302) rotate(0 12.282109894373662 3.3541112211541986)"><path d="M0.53 0.39 C2.35 1.46, 7.44 6.66, 11.41 6.85 C15.38 7.04, 22.13 2.37, 24.33 1.51 M0.14 0.12 C1.87 0.98, 7.15 5.62, 11.11 5.96 C15.06 6.29, 21.59 3.01, 23.87 2.13" stroke="#1e1e1e" stroke-width="2" fill="none"></path></g></g><mask></mask><g stroke-linecap="round"><g transform="translate(220.25988079365106 173.96076261795315) rotate(0 21.735105203702915 -15.980616464128616)"><path d="M-0.93 0.31 C6.03 -4.99, 35.43 -25.36, 42.76 -30.91 M0.78 -0.57 C8.05 -6.26, 38.22 -27.21, 45.11 -32.48" stroke="#1e1e1e" stroke-width="2" fill="none"></path></g></g><mask></mask><g stroke-linecap="round"><g transform="translate(17.037288869489203 39.414942525041624) rotate(0 35.89259598038598 28.09159823497521)"><path d="M0 0 C23.36 16.2, 47.44 35.54, 71.79 56.18 M0 0 C28.16 22.16, 54.07 42.01, 71.79 56.18" stroke="#1e1e1e" stroke-width="1" fill="none"></path></g></g><mask></mask><g stroke-linecap="round"><g transform="translate(89.35358918506881 96.60718375193937) rotate(0 57.58278005166403 31.16243129450504)"><path d="M0 0 C4.63 0.21, 9.04 -0.66, 17.58 -5.85 M0 0 C6.88 -2.45, 11.89 -4.57, 17.58 -5.85 M17.58 -5.85 C38.81 11.01, 63.66 29.86, 115.17 68.17 M17.58 -5.85 C45.77 15.02, 75.44 36.56, 115.17 68.17" stroke="#1e1e1e" stroke-width="1" fill="none"></path></g></g><mask></mask><g stroke-linecap="round"><g transform="translate(195.74333241074328 159.3372532905887) rotate(0 18.03996007923206 2.969378529151072)"><path d="M-0.36 0.04 C2.38 1.55, 10.37 9.6, 16.47 9.15 C22.57 8.7, 32.91 -0.73, 36.24 -2.69 M0.45 -0.42 C3.15 0.92, 10.29 8.82, 16.21 8.29 C22.13 7.76, 32.55 -1.62, 35.97 -3.6" stroke="#1e1e1e" stroke-width="1" fill="none"></path></g></g><mask></mask><g stroke-linecap="round"><g transform="translate(223.85784959083412 162.0282430330717) rotate(0 19.259553545305607 -15.345608891465417)"><path d="M0 0 C10.48 -8.01, 22.51 -17.7, 38.52 -30.69 M0 0 C13.42 -10.47, 27.37 -21.84, 38.52 -30.69" stroke="#1e1e1e" stroke-width="1" fill="none"></path></g></g><mask></mask><g stroke-linecap="round"><g transform="translate(106.37377201992422 90.91342307882405) rotate(0 24.34718509286222 -16.696002738496645)"><path d="M0 0 C17.11 -11.59, 34.3 -23.65, 48.69 -33.39 M0 0 C18.07 -12.42, 35.88 -24.42, 48.69 -33.39" stroke="#1e1e1e" stroke-width="1" fill="none"></path></g></g><mask></mask><g stroke-linecap="round"><g transform="translate(53.07014346057713 47.142630078269576) rotate(0 10.530750538280245 -6.0636211872415515)"><path d="M0.21 0.13 C0.84 -1.23, 0.82 -6.45, 4.21 -8.58 C7.59 -10.71, 17.74 -12, 20.51 -12.64 M-0.34 -0.28 C0.18 -1.55, 0.18 -6.13, 3.83 -8.13 C7.48 -10.13, 18.71 -11.65, 21.55 -12.31" stroke="#1e1e1e" stroke-width="2" fill="none"></path></g></g><mask></mask><g stroke-linecap="round"><g transform="translate(43.50755337191822 47.49772449631564) rotate(0 15.78480241974512 -8.888118542950906)"><path d="M0.64 -0.47 C2 -2.71, 2.4 -11.53, 7.47 -14.61 C12.53 -17.69, 26.95 -18.37, 31 -18.93 M-0.48 -1.77 C1.29 -3.79, 4.53 -10.84, 9.6 -13.58 C14.67 -16.32, 26.19 -17.66, 29.94 -18.22" stroke="#1e1e1e" stroke-width="2" fill="none"></path></g></g><mask></mask><g stroke-linecap="round"><g transform="translate(36.18268410904511 46.44443577794664) rotate(0 19.441304204476637 -11.752829798818311)"><path d="M0.66 0.19 C1.85 -2.71, 3.59 -13.02, 6.73 -16.99 C9.88 -20.95, 14.02 -22.41, 19.53 -23.59 C25.04 -24.76, 36.46 -24.3, 39.8 -24.03 M-0.46 -0.76 C1.15 -3.58, 5.3 -12.35, 9.05 -15.95 C12.8 -19.54, 16.79 -21.05, 22.04 -22.31 C27.28 -23.57, 37.79 -23.72, 40.52 -23.51" stroke="#1e1e1e" stroke-width="2" fill="none"></path></g></g><mask></mask><g stroke-linecap="round" transform="translate(136.72392261164168 78.7830528197428) rotate(0 10.56884156934575 6.555098748054661)"><path d="M9.95 0.1 C12.09 0.09, 15.11 0.96, 16.9 1.74 C18.69 2.51, 20.23 3.44, 20.7 4.77 C21.17 6.09, 20.73 8.36, 19.72 9.7 C18.71 11.04, 16.63 12.24, 14.62 12.8 C12.62 13.35, 9.76 13.55, 7.68 13.04 C5.61 12.54, 3.4 10.99, 2.15 9.77 C0.91 8.54, 0.03 6.93, 0.22 5.67 C0.41 4.42, 1.54 3.23, 3.29 2.23 C5.04 1.22, 9.39 0.04, 10.74 -0.35 C12.1 -0.74, 11.38 -0.26, 11.42 -0.12 M11.5 0.15 C13.74 0.29, 17.15 1.29, 18.63 2.36 C20.1 3.43, 20.16 5.19, 20.36 6.55 C20.57 7.91, 21.07 9.5, 19.85 10.5 C18.64 11.49, 15.31 12.32, 13.07 12.53 C10.83 12.75, 8.28 12.28, 6.38 11.79 C4.49 11.29, 2.62 10.6, 1.69 9.55 C0.77 8.5, 0.38 6.96, 0.82 5.49 C1.26 4.01, 2.58 1.52, 4.34 0.72 C6.1 -0.08, 10.28 0.83, 11.38 0.68 C12.48 0.53, 10.99 -0.17, 10.92 -0.18" stroke="#1e1e1e" stroke-width="1" fill="none"></path></g><g stroke-linecap="round" transform="translate(169.84830702172076 99.6233705674822) rotate(0 10.56884156934575 6.555098748054661)"><path d="M12.96 0.04 C14.99 0.2, 17.02 1.66, 18.43 2.7 C19.85 3.73, 21.46 4.91, 21.45 6.25 C21.45 7.6, 20.01 9.62, 18.39 10.77 C16.77 11.93, 13.97 12.95, 11.74 13.17 C9.51 13.38, 6.81 12.88, 5.02 12.08 C3.22 11.27, 1.72 9.73, 0.96 8.33 C0.21 6.94, -0.23 4.91, 0.47 3.69 C1.18 2.48, 3.01 1.58, 5.18 1.05 C7.34 0.52, 12.09 0.65, 13.47 0.5 C14.86 0.35, 13.56 0.05, 13.48 0.15 M8.8 0.17 C10.97 -0.01, 14.53 0.72, 16.45 1.4 C18.38 2.08, 19.74 3.06, 20.35 4.25 C20.95 5.43, 20.72 7.16, 20.08 8.51 C19.44 9.85, 18.39 11.65, 16.51 12.3 C14.62 12.95, 11.15 12.74, 8.75 12.4 C6.35 12.06, 3.49 11.16, 2.11 10.25 C0.73 9.34, 0.5 8.31, 0.46 6.94 C0.41 5.58, 0.52 3.3, 1.83 2.06 C3.14 0.82, 7.13 -0.29, 8.33 -0.5 C9.52 -0.72, 8.81 0.62, 9.01 0.77" stroke="#1e1e1e" stroke-width="1" fill="none"></path></g><g stroke-linecap="round"><g transform="translate(199.01519986223047 176.52260940772612) rotate(0 -0.4575248893538628 18.461837657302567)"><path d="M0 0 C-0.6 12.61, -1.49 26.41, -0.92 36.92 M0 0 C0.1 9.63, -0.42 20.21, -0.92 36.92" stroke="#1e1e1e" stroke-width="4" fill="none"></path></g></g><mask></mask><g stroke-linecap="round"><g transform="translate(216.11641001952466 178.10128554118455) rotate(0 -0.4575248893538628 18.461837657302567)"><path d="M0 0 C-0.29 15.24, -1.52 28.53, -0.92 36.92 M0 0 C0.09 7.69, -0.04 16.45, -0.92 36.92" stroke="#1e1e1e" stroke-width="4" fill="none"></path></g></g><mask></mask><g stroke-linecap="round" transform="translate(207.87482833180547 123.76765973850888) rotate(0 6.961619303990574 5.361833177344124)"><path d="M8.46 -0.1 C9.82 0.09, 11.67 1.19, 12.61 2.11 C13.54 3.04, 14.1 4.25, 14.07 5.46 C14.04 6.67, 13.51 8.5, 12.42 9.35 C11.34 10.2, 9.09 10.53, 7.57 10.56 C6.06 10.6, 4.52 10.09, 3.33 9.55 C2.14 9, 0.91 8.27, 0.45 7.3 C-0.01 6.33, 0.06 4.85, 0.59 3.72 C1.11 2.59, 2.23 1.14, 3.61 0.52 C4.99 -0.11, 7.94 0.07, 8.86 -0.04 C9.78 -0.15, 9.19 -0.23, 9.15 -0.16 M6.74 -0.63 C8 -0.78, 9.88 -0.25, 11.14 0.72 C12.41 1.69, 13.96 3.99, 14.33 5.2 C14.69 6.41, 14.29 7.08, 13.33 7.98 C12.36 8.88, 10.04 10.31, 8.54 10.6 C7.04 10.9, 5.5 10.16, 4.31 9.76 C3.12 9.36, 2.16 9.13, 1.4 8.21 C0.64 7.29, -0.51 5.35, -0.24 4.24 C0.04 3.14, 1.8 2.36, 3.04 1.58 C4.29 0.79, 6.64 -0.22, 7.22 -0.48 C7.8 -0.74, 6.46 -0.15, 6.54 0" stroke="#1e1e1e" stroke-width="2" fill="none"></path></g><g stroke-linecap="round"><g transform="translate(207.43198364470572 128.55635417020312) rotate(0 7.618518515852884 3.919679594749141)"><path d="M-0.46 0.22 C-0.01 1.43, 0.48 6.32, 2.63 7.61 C4.77 8.91, 10.33 8.76, 12.41 7.97 C14.49 7.19, 14.57 3.73, 15.11 2.89 M0.31 -0.15 C0.7 1.12, 0.25 6.76, 2.23 8.22 C4.22 9.69, 10.06 9.7, 12.21 8.64 C14.37 7.58, 14.65 2.76, 15.16 1.86" stroke="#1e1e1e" stroke-width="2" fill="none"></path></g></g><mask></mask><g stroke-linecap="round"><g transform="translate(246.5307126248108 162.80674349743276) rotate(0 -10.869110645341152 17.090469886622486)"><path d="M0 0 C-0.2 7.68, -1.41 14.4, -0.83 19.78 M0 0 C-0.33 6.55, -0.02 13.4, -0.83 19.78 M-0.83 19.78 C-6.48 22.53, -11.68 27.07, -21.74 34.18 M-0.83 19.78 C-5.22 23.28, -10.1 26.28, -21.74 34.18" stroke="#1e1e1e" stroke-width="2" fill="none"></path></g></g><mask></mask><g stroke-linecap="round"><g transform="translate(245.69988276136974 162.3902324840983) rotate(0 -12.60519320451931 17.229876921440336)"><path d="M0 0 C-3.93 3.11, -8.36 7.32, -18.33 15.34 M0 0 C-6.36 4.89, -12.31 10.76, -18.33 15.34 M-18.33 15.34 C-21.07 18.52, -23.51 21.03, -25.21 22.71 M-18.33 15.34 C-20.42 17.51, -22.28 19.87, -25.21 22.71 M-25.21 22.71 C-25.01 26.43, -25 29.54, -24.98 32.51 M-25.21 22.71 C-25 25.21, -24.92 27.48, -24.98 32.51 M-24.98 32.51 C-23.75 32.95, -22.62 33.77, -20.77 34.46 M-24.98 32.51 C-23.82 33.1, -22.51 33.59, -20.77 34.46" stroke="#1e1e1e" stroke-width="2" fill="none"></path></g></g><mask></mask><g stroke-linecap="round"><g transform="translate(243.88054867720257 182.1976692183598) rotate(0 -6.57160252042695 -3.2594170012234827)"><path d="M0 0 C-4.96 -2.56, -10.2 -5.21, -13.14 -6.52 M0 0 C-5.4 -2.31, -9.77 -4.84, -13.14 -6.52" stroke="#1e1e1e" stroke-width="2" fill="none"></path></g></g><mask></mask><g stroke-linecap="round"><g transform="translate(252.43086472619962 163.57380587780244) rotate(0 3.24728945675497 1.5203008365888309)"><path d="M0.3 0.1 C1.3 -0.62, 5.24 -5, 6.38 -4.45 C7.53 -3.91, 8.35 1.21, 7.17 3.36 C5.99 5.51, 0.46 9.17, -0.71 8.45 C-1.88 7.72, 0.11 0.49, 0.16 -0.98 M-0.2 -0.32 C0.93 -1.17, 6.17 -5.64, 7.38 -5.16 C8.58 -4.68, 8.4 0.45, 7.04 2.56 C5.68 4.68, 0.45 8.09, -0.78 7.52 C-2.02 6.95, -0.5 0.5, -0.36 -0.86" stroke="#1e1e1e" stroke-width="2" fill="none"></path></g></g><mask></mask><g stroke-linecap="round"><g transform="translate(138.1781615590553 87.06768422656751) rotate(0 8.953292018924458 -2.8902868030227182)"><path d="M0 0 C0.2 -0.73, -0.29 -3.22, 1.17 -4.41 C2.63 -5.59, 6.17 -7.13, 8.77 -7.11 C11.37 -7.1, 15.25 -5.73, 16.77 -4.33 C18.3 -2.92, 17.72 0.39, 17.91 1.33 M0 0 C0.2 -0.73, -0.29 -3.22, 1.17 -4.41 C2.63 -5.59, 6.17 -7.13, 8.77 -7.11 C11.37 -7.1, 15.25 -5.73, 16.77 -4.33 C18.3 -2.92, 17.72 0.39, 17.91 1.33" stroke="#1e1e1e" stroke-width="2" fill="none"></path></g></g><mask></mask><g stroke-linecap="round"><g transform="translate(142.88279972853252 90.30080309531877) rotate(0 4.685192181621915 0.08968715746777889)"><path d="M0 0 C0.84 -0.06, 3.46 -0.48, 5.02 -0.39 C6.58 -0.29, 8.65 0.41, 9.37 0.56 M0 0 C0.84 -0.06, 3.46 -0.48, 5.02 -0.39 C6.58 -0.29, 8.65 0.41, 9.37 0.56" stroke="#1e1e1e" stroke-width="1" fill="none"></path></g></g><mask></mask><g stroke-linecap="round"><g transform="translate(171.31412198805083 107.27417014722232) rotate(0 8.953292018924458 -2.8902868030227182)"><path d="M0 0 C0.2 -0.73, -0.29 -3.22, 1.17 -4.41 C2.63 -5.59, 6.17 -7.13, 8.77 -7.11 C11.37 -7.1, 15.25 -5.73, 16.77 -4.33 C18.3 -2.92, 17.72 0.39, 17.91 1.33 M0 0 C0.2 -0.73, -0.29 -3.22, 1.17 -4.41 C2.63 -5.59, 6.17 -7.13, 8.77 -7.11 C11.37 -7.1, 15.25 -5.73, 16.77 -4.33 C18.3 -2.92, 17.72 0.39, 17.91 1.33" stroke="#1e1e1e" stroke-width="2" fill="none"></path></g></g><mask></mask><g stroke-linecap="round"><g transform="translate(175.03165267650547 111.61226250001164) rotate(0 4.685192181621915 0.08968715746777889)"><path d="M0 0 C0.84 -0.06, 3.46 -0.48, 5.02 -0.39 C6.58 -0.29, 8.65 0.41, 9.37 0.56 M0 0 C0.84 -0.06, 3.46 -0.48, 5.02 -0.39 C6.58 -0.29, 8.65 0.41, 9.37 0.56" stroke="#1e1e1e" stroke-width="1" fill="none"></path></g></g><mask></mask><g stroke-linecap="round"><g transform="translate(140.73922275106725 83.38845193290581) rotate(0 4.967915830019592 -0.9139463694637016)"><path d="M0.37 -0.46 C2.14 -0.82, 8.73 -1.74, 10.41 -1.92 M-0.36 0.94 C1.38 0.68, 8.3 -0.37, 10.06 -1" stroke="#1e1e1e" stroke-width="1" fill="none"></path></g></g><mask></mask><g stroke-linecap="round"><g transform="translate(139.1692112055216 86.43514272741595) rotate(0 7.7681890719236435 -1.1483930405520368)"><path d="M-1.2 -0.88 C1.65 -1.56, 13.12 -2.7, 15.93 -2.95 M0.38 1.27 C3.2 1.26, 12.76 -1.35, 15.19 -1.75" stroke="#1e1e1e" stroke-width="1" fill="none"></path></g></g><mask></mask><g stroke-linecap="round"><g transform="translate(141.4891274644733 89.31789331401706) rotate(0 7.217528522090106 -1.0898574588909469)"><path d="M0.68 -1.02 C3.07 -1.28, 11.95 -2.4, 14.18 -2.56 M-0.43 1.06 C1.8 1.06, 10.85 -0.95, 13.09 -1.23" stroke="#1e1e1e" stroke-width="1" fill="none"></path></g></g><mask></mask><g stroke-linecap="round"><g transform="translate(173.12088051907176 102.63620646440177) rotate(0 7.110765284635363 -0.12442547634236689)"><path d="M-1.01 0.48 C1.55 0.52, 12.82 0.85, 15.34 0.75 M0.65 -0.31 C3.17 -0.63, 12.87 -1.11, 14.98 -0.84" stroke="#1e1e1e" stroke-width="1" fill="none"></path></g></g><mask></mask><g stroke-linecap="round"><g transform="translate(171.38064600220878 104.27741724576663) rotate(0 9.27357282928142 1.0442698715114602)"><path d="M-1.03 -0.87 C2.23 -0.58, 15.74 2.23, 19.11 2.58 M0.64 1.29 C3.82 1.15, 15.44 0.58, 18.46 0.71" stroke="#1e1e1e" stroke-width="1" fill="none"></path></g></g><mask></mask><g stroke-linecap="round"><g transform="translate(189.33106601990767 108.35504245833545) rotate(0 -9.099635485190902 -0.6216968437283867)"><path d="M-0.99 -0.15 C-3.98 0, -14.47 -0.01, -17.2 -0.12 M0.69 -1.27 C-2.44 -1.34, -14.56 -1.38, -17.63 -1.65" stroke="#1e1e1e" stroke-width="1" fill="none"></path></g></g><mask></mask><g stroke-linecap="round"><g transform="translate(187.93870619122572 110.64249074831241) rotate(0 -7.48361117568038 -1.0442698715114602)"><path d="M0.72 0.76 C-1.79 0.24, -11.57 -1.59, -14.15 -1.93 M-0.35 0.11 C-3.04 0.32, -12.16 0.24, -14.67 -0.3" stroke="#1e1e1e" stroke-width="1" fill="none"></path></g></g><mask></mask><g stroke-linecap="round" transform="translate(633.3253501847321 200.42537112421087) rotate(0 1.6466212433638248 1.882289325819329)"><path d="M1.62 -0.13 C2.12 -0.31, 2.84 -0.58, 3.18 -0.28 C3.52 0.01, 3.6 1.22, 3.69 1.63 C3.77 2.04, 3.82 1.97, 3.67 2.19 C3.53 2.41, 3.31 2.71, 2.82 2.94 C2.32 3.17, 1.05 3.44, 0.71 3.55 C0.37 3.66, 0.87 3.83, 0.77 3.58 C0.66 3.33, 0.21 2.63, 0.09 2.07 C-0.03 1.52, -0.23 0.68, 0.05 0.26 C0.33 -0.17, 1.39 -0.39, 1.75 -0.47 C2.11 -0.55, 2.19 -0.39, 2.19 -0.23 M1.52 -0.6 C1.7 -0.58, 1.26 0.5, 1.52 0.65 C1.79 0.8, 2.87 -0.15, 3.11 0.29 C3.35 0.73, 2.95 2.7, 2.94 3.32 C2.93 3.93, 3.34 3.99, 3.06 3.97 C2.77 3.94, 1.71 3.34, 1.24 3.16 C0.77 2.98, 0.46 3.18, 0.21 2.88 C-0.04 2.58, -0.19 1.66, -0.28 1.38 C-0.37 1.11, -0.43 1.43, -0.31 1.23 C-0.19 1.03, 0.21 0.23, 0.43 0.2 C0.65 0.16, 0.84 1.02, 1 1" stroke="#1e1e1e" stroke-width="4" fill="none"></path></g><g stroke-linecap="round" transform="translate(633.2952414768442 139.60448457515122) rotate(0 1.6466212433638248 1.882289325819329)"><path d="M2.16 -0.39 C2.53 -0.17, 2.65 0.75, 2.74 1.18 C2.82 1.6, 2.68 1.9, 2.66 2.15 C2.63 2.41, 2.77 2.41, 2.59 2.7 C2.41 2.99, 1.83 3.87, 1.55 3.91 C1.28 3.94, 1.25 3.24, 0.93 2.9 C0.62 2.57, -0.31 2.1, -0.33 1.89 C-0.36 1.69, 0.5 1.83, 0.8 1.65 C1.1 1.47, 1.2 1.11, 1.45 0.83 C1.7 0.54, 2.18 0.08, 2.3 -0.07 C2.41 -0.23, 2.24 -0.13, 2.14 -0.09 M2.15 0.91 C2.51 0.74, 2.15 0.24, 2.5 0.37 C2.85 0.5, 4.33 1.14, 4.25 1.68 C4.17 2.22, 2.3 3.38, 2.03 3.63 C1.76 3.88, 2.93 3.14, 2.63 3.17 C2.33 3.21, 0.57 3.86, 0.22 3.84 C-0.13 3.82, 0.58 3.32, 0.54 3.05 C0.5 2.78, 0.11 2.78, -0.03 2.24 C-0.16 1.71, -0.46 0.36, -0.26 -0.16 C-0.06 -0.67, 0.92 -1, 1.17 -0.86 C1.42 -0.71, 1.15 0.65, 1.22 0.71" stroke="#1e1e1e" stroke-width="4" fill="none"></path></g><g stroke-linecap="round" transform="translate(549.0461574140609 89.86903718335998) rotate(0 1.6466212433638248 1.882289325819329)"><path d="M2.42 -0.12 C2.85 -0.16, 3.24 0.42, 3.28 0.72 C3.32 1.02, 2.68 1.26, 2.65 1.67 C2.62 2.08, 3.25 2.85, 3.1 3.18 C2.95 3.51, 2.1 3.54, 1.77 3.66 C1.44 3.78, 1.39 4.04, 1.12 3.91 C0.85 3.79, 0.4 3.23, 0.14 2.91 C-0.12 2.58, -0.59 2.43, -0.43 1.95 C-0.27 1.47, 0.65 0.28, 1.11 0.03 C1.56 -0.21, 2.23 0.43, 2.31 0.48 C2.38 0.53, 1.6 0.46, 1.57 0.33 M1.07 0.68 C1.62 0.57, 2.96 0.14, 3.46 0.29 C3.95 0.45, 4.14 1.04, 4.04 1.6 C3.95 2.15, 3.26 3.25, 2.89 3.63 C2.53 4.01, 2.02 3.69, 1.83 3.87 C1.64 4.05, 1.92 4.89, 1.74 4.69 C1.56 4.5, 1.15 3.33, 0.75 2.71 C0.34 2.08, -0.63 1.42, -0.69 0.95 C-0.76 0.48, 0.14 0.17, 0.35 -0.11 C0.57 -0.39, 0.34 -0.87, 0.58 -0.72 C0.82 -0.57, 1.52 0.63, 1.78 0.81" stroke="#1e1e1e" stroke-width="4" fill="none"></path></g><g stroke-linecap="round" transform="translate(563.6815996737869 167.03382474694808) rotate(325.9466795185908 1.614155399759511 2.5288074182772107)"><path d="M1.77 0.5 C1.99 0.34, 1.66 0.08, 1.95 0.3 C2.24 0.53, 3.26 1.22, 3.49 1.84 C3.71 2.47, 3.46 3.61, 3.3 4.05 C3.14 4.5, 2.96 4.31, 2.51 4.53 C2.07 4.74, 1.12 5.53, 0.64 5.34 C0.15 5.16, -0.36 3.87, -0.38 3.42 C-0.41 2.98, 0.3 3.04, 0.5 2.65 C0.69 2.26, 0.53 1.53, 0.79 1.08 C1.05 0.64, 1.81 0.2, 2.06 0 C2.31 -0.21, 2.3 -0.06, 2.31 -0.12 M0.8 0.44 C1.16 0.39, 3.24 -0.34, 3.72 -0.2 C4.19 -0.07, 3.87 0.73, 3.64 1.26 C3.4 1.79, 2.58 2.42, 2.31 2.98 C2.05 3.55, 2.3 4.28, 2.05 4.63 C1.8 4.99, 1.12 5.36, 0.82 5.11 C0.51 4.86, 0.29 3.56, 0.22 3.12 C0.15 2.68, 0.44 2.96, 0.41 2.47 C0.38 1.99, -0.13 0.7, 0.04 0.21 C0.22 -0.27, 1.14 -0.29, 1.45 -0.46 C1.75 -0.62, 1.7 -0.85, 1.86 -0.77" stroke="#1e1e1e" stroke-width="4" fill="none"></path></g><g stroke-linecap="round" transform="translate(539.469916928183 151.12891991655852) rotate(325.9466795185908 1.614155399759511 2.5288074182772107)"><path d="M1.28 -0.23 C1.52 -0.35, 1.48 -0.63, 1.72 -0.27 C1.95 0.09, 2.56 1.3, 2.7 1.94 C2.85 2.58, 2.64 3.16, 2.6 3.56 C2.56 3.95, 2.64 4.05, 2.47 4.31 C2.3 4.57, 1.99 5.07, 1.56 5.13 C1.13 5.19, 0.12 5.04, -0.11 4.68 C-0.34 4.32, -0.01 3.51, 0.17 2.99 C0.34 2.46, 0.74 2.07, 0.96 1.52 C1.19 0.97, 1.38 -0.06, 1.53 -0.31 C1.68 -0.56, 1.98 -0.08, 1.86 0.01 M2.17 -0.2 C2.44 -0.27, 2.45 0.76, 2.79 1.13 C3.12 1.5, 4.27 1.66, 4.17 2.03 C4.06 2.4, 2.41 2.92, 2.14 3.34 C1.87 3.76, 2.65 4.22, 2.56 4.55 C2.48 4.89, 1.88 5.44, 1.63 5.34 C1.38 5.25, 1.3 4.45, 1.04 3.98 C0.79 3.51, 0.13 3.06, 0.11 2.51 C0.08 1.96, 0.49 0.98, 0.88 0.69 C1.28 0.39, 2.38 0.73, 2.48 0.75 C2.57 0.77, 1.53 0.88, 1.44 0.83" stroke="#1e1e1e" stroke-width="4" fill="none"></path></g><g stroke-linecap="round"><g transform="translate(896.0668272062867 165.6170327960317) rotate(0 2.3275440869483646 -1.2765629099912985)"><path d="M0.1 -0.08 C1.82 -0.65, 2.73 -1.6, 4.84 -2.77 M0.1 0.01 C1.79 -1.08, 3.22 -1.81, 4.61 -2.4" stroke="#1e1e1e" stroke-width="1" fill="none"></path></g></g><mask></mask><g stroke-linecap="round" transform="translate(835.250210494798 163.93653550120143) rotate(0 1.6466212433638248 1.882289325819329)"><path d="M2.37 -0.44 C2.85 -0.34, 3.29 0.77, 3.49 1.06 C3.7 1.35, 3.67 0.86, 3.59 1.31 C3.52 1.76, 3.34 3.33, 3.06 3.77 C2.79 4.2, 2.34 4.04, 1.96 3.89 C1.59 3.74, 1.04 3.22, 0.81 2.87 C0.59 2.53, 0.84 2.22, 0.63 1.83 C0.41 1.45, -0.51 0.75, -0.46 0.56 C-0.41 0.37, 0.45 0.74, 0.91 0.7 C1.38 0.66, 2.04 0.38, 2.34 0.32 C2.63 0.26, 2.82 0.27, 2.7 0.36 M1.6 0.33 C1.82 0.27, 1.59 -0.54, 1.77 -0.23 C1.95 0.09, 2.6 1.57, 2.67 2.22 C2.74 2.87, 2.19 3.57, 2.18 3.68 C2.17 3.78, 2.67 3.01, 2.59 2.85 C2.5 2.7, 1.99 2.69, 1.66 2.75 C1.34 2.82, 1.07 3.3, 0.66 3.24 C0.25 3.17, -0.9 2.81, -0.81 2.36 C-0.72 1.91, 0.73 0.99, 1.22 0.53 C1.72 0.06, 2.02 -0.42, 2.17 -0.43 C2.32 -0.45, 2.33 0.19, 2.11 0.45" stroke="#1e1e1e" stroke-width="4" fill="none"></path></g><g stroke-linecap="round" transform="translate(808.9693293235086 148.65348756483945) rotate(0 1.6466212433638248 1.882289325819329)"><path d="M2.22 -0.48 C2.7 -0.4, 3.24 0.86, 3.52 1.22 C3.8 1.58, 4.1 1.26, 3.89 1.68 C3.69 2.09, 2.69 3.43, 2.29 3.69 C1.89 3.95, 1.72 3.33, 1.5 3.24 C1.27 3.15, 1.07 3.34, 0.95 3.14 C0.82 2.94, 0.96 2.38, 0.73 2.02 C0.5 1.67, -0.35 1.3, -0.43 0.99 C-0.51 0.69, -0.26 0.36, 0.25 0.21 C0.76 0.06, 2.24 0.16, 2.64 0.09 C3.04 0.02, 2.69 -0.19, 2.67 -0.21 M2.79 -0.04 C2.83 -0.06, 1.96 0, 2.08 0.48 C2.2 0.95, 3.38 2.52, 3.52 2.82 C3.66 3.12, 3.13 2.22, 2.91 2.3 C2.68 2.38, 2.59 3.2, 2.17 3.28 C1.76 3.36, 0.81 2.84, 0.44 2.79 C0.06 2.74, -0.16 3.38, -0.08 2.98 C0 2.58, 0.61 0.87, 0.91 0.37 C1.2 -0.13, 1.54 -0.02, 1.71 0 C1.87 0.01, 1.9 0.57, 1.88 0.46 C1.87 0.35, 1.51 -0.63, 1.62 -0.65" stroke="#1e1e1e" stroke-width="4" fill="none"></path></g><g stroke-linecap="round" transform="translate(933.7752533345883 151.84458942792116) rotate(0 1.6466212433638248 1.882289325819329)"><path d="M0.65 0.22 C0.81 0.26, 1.59 0.73, 1.92 0.78 C2.24 0.82, 2.44 0.32, 2.62 0.48 C2.8 0.63, 3.02 1.13, 3.02 1.71 C3.02 2.28, 2.86 3.51, 2.62 3.93 C2.38 4.35, 2.01 4.26, 1.6 4.23 C1.19 4.2, 0.48 4, 0.17 3.74 C-0.14 3.48, -0.37 3.11, -0.26 2.66 C-0.15 2.21, 0.48 1.47, 0.81 1.03 C1.14 0.58, 1.74 0.18, 1.73 -0.02 C1.72 -0.21, 0.8 -0.28, 0.75 -0.16 M1.23 -0.26 C1.61 -0.36, 1.68 -0.09, 2.12 0.35 C2.57 0.79, 3.86 1.82, 3.9 2.37 C3.93 2.91, 2.66 3.44, 2.34 3.63 C2.02 3.81, 2.14 3.55, 1.98 3.47 C1.83 3.4, 1.85 3.21, 1.42 3.17 C1 3.14, -0.34 3.51, -0.56 3.26 C-0.79 3.02, -0.15 2.1, 0.1 1.69 C0.34 1.27, 0.57 1.2, 0.93 0.76 C1.28 0.32, 1.97 -0.8, 2.22 -0.95 C2.47 -1.1, 2.56 -0.31, 2.44 -0.14" stroke="#1e1e1e" stroke-width="4" fill="none"></path></g><g stroke-linecap="round" transform="translate(832.7759161125196 90.0795570008886) rotate(0 1.6466212433638248 1.882289325819329)"><path d="M2.01 0.04 C2.52 -0.09, 2.74 -0.23, 3.02 -0.05 C3.3 0.12, 3.58 0.53, 3.7 1.07 C3.81 1.61, 3.89 2.69, 3.69 3.18 C3.5 3.68, 2.96 4.05, 2.54 4.04 C2.12 4.03, 1.6 3.24, 1.19 3.1 C0.79 2.95, 0.22 3.37, 0.1 3.16 C-0.01 2.95, 0.56 2.22, 0.51 1.84 C0.47 1.45, -0.28 1.19, -0.16 0.85 C-0.05 0.52, 0.97 -0.02, 1.19 -0.17 C1.4 -0.32, 1.01 -0.19, 1.14 -0.05 M1.06 0.44 C1.18 0.23, 1.49 -0.68, 1.93 -0.56 C2.36 -0.43, 3.4 0.65, 3.65 1.19 C3.9 1.74, 3.54 2.25, 3.42 2.71 C3.3 3.18, 3.4 3.67, 2.91 3.97 C2.43 4.26, 0.95 4.66, 0.51 4.5 C0.07 4.33, 0.38 3.45, 0.28 2.98 C0.18 2.51, 0.01 1.9, -0.1 1.67 C-0.22 1.43, -0.79 1.75, -0.41 1.56 C-0.03 1.37, 1.91 0.75, 2.19 0.54 C2.46 0.33, 1.42 0.35, 1.24 0.29" stroke="#1e1e1e" stroke-width="4" fill="none"></path></g><g stroke-linecap="round"><g transform="translate(420.58128558176213 90.06222688162961) rotate(0 6.124380156205461 -0.7655851811341563)"><path d="M-0.38 -0.29 C0.3 -0.51, 2.45 -1.06, 4.6 -1.11 C6.75 -1.17, 11.26 -0.74, 12.53 -0.61 M0.42 0.75 C1.24 0.36, 3.69 -1.73, 5.68 -1.86 C7.66 -2, 11.23 -0.41, 12.33 -0.06" stroke="#1e1e1e" stroke-width="1" fill="none"></path></g></g><mask></mask><g stroke-linecap="round"><g transform="translate(490.8044930820615 121.06571927638834) rotate(0 -4.801037488192378 6.7081025957941165)"><path d="M0.45 -0.48 C0.27 0.85, 0.88 6.12, -0.86 8.36 C-2.6 10.6, -8.52 12.06, -10.01 12.95 M0.01 0.46 C-0.25 1.6, 0.22 5.45, -1.27 7.59 C-2.75 9.73, -7.49 12.47, -8.9 13.31" stroke="#1e1e1e" stroke-width="2" fill="none"></path></g></g><mask></mask></svg>