<svg version="1.1" xmlns="http://www.w3.org/2000/svg" viewBox="0 0 768.3733989386046 230.1144163476547" width="768.3733989386046" height="230.1144163476547" filter="invert(93%) hue-rotate(180deg)"><!-- svg-source:excalidraw --><metadata></metadata><defs><style class="style-fonts">
      </style></defs><g stroke-linecap="round"><g transform="translate(718.2581146294096 161.73990988638798) rotate(0 9.35772921355283 -16.09990891455982)"><path d="M0 0 C-0.33 -7.2, -1.48 -12.61, -0.88 -18.94 M0 0 C-0.44 -6.85, -0.4 -12.8, -0.88 -18.94 M-0.88 -18.94 C1.18 -22.7, 2.8 -25.94, 4.13 -28.29 M-0.88 -18.94 C0.32 -21.39, 2.03 -23.76, 4.13 -28.29 M4.13 -28.29 C7.41 -30, 10.05 -30.83, 12.37 -32.2 M4.13 -28.29 C7.07 -29.48, 10.14 -31.11, 12.37 -32.2 M12.37 -32.2 C13.72 -31.06, 15.02 -29.87, 19.19 -26.92 M12.37 -32.2 C14.26 -30.96, 15.75 -29.8, 19.19 -26.92 M19.19 -26.92 C18.79 -22.42, 18.68 -16.45, 19.59 -8.41 M19.19 -26.92 C18.88 -21.93, 18.93 -17.3, 19.59 -8.41 M19.59 -8.41 C14.49 -6.09, 9.15 -4.66, 0 0 M19.59 -8.41 C13.22 -6.07, 7.32 -3.08, 0 0" stroke="#1e1e1e" stroke-width="2" fill="none"></path></g></g><mask></mask><g stroke-linecap="round" transform="translate(533.1940510121785 139.78983223625983) rotate(331.36346021978716 8.404644689638644 13.479073384439289)"><path d="M8.31 -0.47 C10.03 -0.77, 12.56 0.85, 13.98 2.74 C15.4 4.63, 16.47 8, 16.82 10.86 C17.18 13.73, 16.97 17.38, 16.1 19.93 C15.22 22.47, 13.31 25.12, 11.59 26.14 C9.87 27.15, 7.51 26.88, 5.79 26 C4.07 25.11, 2.27 23.34, 1.25 20.82 C0.24 18.29, -0.65 13.79, -0.3 10.86 C0.05 7.93, 1.92 5.04, 3.38 3.24 C4.83 1.45, 7.55 0.6, 8.43 0.09 C9.31 -0.42, 8.71 -0.07, 8.67 0.18 M7.02 0.48 C8.76 0.14, 11.42 1.23, 13.1 2.83 C14.78 4.44, 16.58 7.37, 17.11 10.1 C17.63 12.84, 17.08 16.65, 16.23 19.23 C15.39 21.82, 13.73 24.3, 12.04 25.62 C10.36 26.93, 7.97 27.79, 6.14 27.13 C4.31 26.47, 2.21 24.12, 1.07 21.64 C-0.08 19.16, -0.93 15.23, -0.73 12.25 C-0.52 9.27, 0.91 5.85, 2.3 3.77 C3.7 1.68, 6.89 0.21, 7.65 -0.27 C8.42 -0.76, 6.93 0.66, 6.91 0.85" stroke="#1e1e1e" stroke-width="4" fill="none"></path></g><g stroke-linecap="round" transform="translate(557.3423711520727 155.24468354001874) rotate(331.36346021978716 8.404644689638644 13.479073384439289)"><path d="M9.25 0.04 C11 0.26, 13.18 2.06, 14.48 4.23 C15.79 6.39, 17.03 10.17, 17.08 13.04 C17.13 15.91, 15.98 19.14, 14.78 21.46 C13.57 23.78, 11.5 26.25, 9.85 26.96 C8.19 27.68, 6.36 27.21, 4.84 25.75 C3.32 24.29, 1.41 21.01, 0.73 18.22 C0.04 15.44, 0.24 11.75, 0.76 9.05 C1.27 6.34, 2.33 3.45, 3.81 2 C5.29 0.56, 8.58 0.61, 9.64 0.37 C10.69 0.13, 10.22 0.37, 10.14 0.56 M10.19 0.19 C11.85 0.45, 13.2 2.61, 14.39 4.86 C15.58 7.12, 17.27 10.87, 17.32 13.74 C17.37 16.61, 15.88 19.96, 14.7 22.08 C13.51 24.2, 12.06 25.91, 10.21 26.46 C8.35 27.01, 5.19 26.87, 3.58 25.38 C1.97 23.89, 1.13 20.23, 0.55 17.52 C-0.04 14.81, -0.6 11.68, 0.07 9.12 C0.75 6.57, 2.94 3.69, 4.6 2.2 C6.25 0.72, 9.2 0.43, 10.02 0.24 C10.84 0.05, 9.48 0.78, 9.53 1.06" stroke="#1e1e1e" stroke-width="4" fill="none"></path></g><g stroke-linecap="round"><g transform="translate(536.1922112207612 139.70014957930653) rotate(0 9.591675138841765 -5.134217132767844)"><path d="M0 0 C5.57 -3.43, 11.25 -5.17, 19.18 -10.27 M0 0 C6.33 -3.16, 12.12 -6.55, 19.18 -10.27" stroke="#1e1e1e" stroke-width="4" fill="none"></path></g></g><mask></mask><g stroke-linecap="round"><g transform="translate(554.7827361404352 156.88656602884657) rotate(0 9.863712531597685 -6.663191456043933)"><path d="M0 0 C6.5 -5.91, 14.01 -8.92, 19.73 -13.33 M0 0 C8.07 -5.19, 15.04 -10.45, 19.73 -13.33" stroke="#1e1e1e" stroke-width="4" fill="none"></path></g></g><mask></mask><g stroke-linecap="round"><g transform="translate(576.1511238703315 178.9259639971733) rotate(0 8.90778739069583 -5.574122062897914)"><path d="M0 0 C3.7 -1.87, 8.15 -5.48, 17.82 -11.15 M0 0 C4.4 -2.97, 8.2 -4.96, 17.82 -11.15" stroke="#1e1e1e" stroke-width="4" fill="none"></path></g></g><mask></mask><g stroke-linecap="round"><g transform="translate(596.8335958872403 76.77736119274596) rotate(0 25.69619529252941 -14.630465010654916)"><path d="M-0.36 -0.56 C8.04 -5.73, 42.55 -25.85, 51.24 -30.46 M1.65 1.75 C9.8 -3.36, 41.95 -24.26, 50.21 -29.55" stroke="#1e1e1e" stroke-width="4" fill="none"></path></g></g><mask></mask><g stroke-linecap="round"><g transform="translate(600.7520594007447 82.46082085019407) rotate(0 25.69619529252941 -14.630465010654916)"><path d="M1.19 0.66 C9.74 -4.46, 44.01 -25.15, 52.41 -29.98 M0.36 -0.04 C8.75 -5.09, 43.56 -23.8, 52 -28.81" stroke="#1e1e1e" stroke-width="4" fill="none"></path></g></g><mask></mask><g stroke-linecap="round"><g transform="translate(615.4028633603657 86.20553010576623) rotate(0 25.69619529252941 -14.630465010654916)"><path d="M-0.12 0.26 C8.55 -4.88, 42.51 -25.46, 51.11 -30.19 M-1.64 -0.66 C6.92 -5.72, 41.28 -24.26, 50.01 -29.14" stroke="#1e1e1e" stroke-width="4" fill="none"></path></g></g><mask></mask><g stroke-linecap="round"><g transform="translate(621.011478088144 90.66837617879355) rotate(0 25.69619529252941 -14.630465010654916)"><path d="M-0.14 -0.66 C8.56 -5.44, 43.96 -24.04, 52.4 -28.92 M-1.67 1.61 C6.93 -3.53, 42.87 -25.77, 51.98 -30.87" stroke="#1e1e1e" stroke-width="4" fill="none"></path></g></g><mask></mask><g stroke-linecap="round"><g transform="translate(628.8110276742282 94.6204108271395) rotate(0 25.69619529252941 -14.630465010654916)"><path d="M0.67 0.27 C9.46 -4.59, 43.95 -24.31, 52.39 -29.39 M-0.44 -0.63 C8.32 -5.27, 43.48 -23.13, 51.96 -27.92" stroke="#1e1e1e" stroke-width="4" fill="none"></path></g></g><mask></mask><g stroke-linecap="round"><g transform="translate(636.6669427049701 100.3506779812069) rotate(0 25.69619529252941 -14.630465010654916)"><path d="M-0.77 -0.72 C7.77 -5.77, 42.44 -24.45, 51.15 -29.11 M1.03 1.51 C9.4 -2.82, 41.78 -22.11, 50.07 -27.5" stroke="#1e1e1e" stroke-width="4" fill="none"></path></g></g><mask></mask><g stroke-linecap="round"><g transform="translate(646.9173112567578 104.92041007114312) rotate(0 25.69619529252941 -14.630465010654916)"><path d="M0.28 -0.55 C8.78 -5.61, 43.2 -24.94, 51.91 -29.81 M-1.02 1.78 C7.27 -3.18, 42.34 -23.48, 51.23 -28.56" stroke="#1e1e1e" stroke-width="4" fill="none"></path></g></g><mask></mask><g stroke-linecap="round"><g transform="translate(653.975726207871 109.62954237065787) rotate(0 25.69619529252941 -14.630465010654916)"><path d="M0.44 -0.59 C9.12 -5.34, 43 -24.08, 51.41 -28.77 M-0.79 1.71 C7.79 -3.38, 42.03 -25.22, 50.47 -30.64" stroke="#1e1e1e" stroke-width="4" fill="none"></path></g></g><mask></mask><g stroke-linecap="round" transform="translate(603.9036141890374 153.21026309396257) rotate(327.5150559742368 8.063483858577456 13.874899430038568)"><path d="M7.66 0.13 C9.31 -0.04, 12.03 1.28, 13.39 3.21 C14.75 5.13, 15.58 8.72, 15.83 11.7 C16.07 14.67, 15.78 18.57, 14.89 21.07 C14 23.56, 12.07 25.71, 10.48 26.64 C8.89 27.57, 6.89 27.51, 5.36 26.65 C3.83 25.79, 2.2 23.97, 1.29 21.48 C0.38 18.98, -0.35 14.66, -0.09 11.68 C0.16 8.7, 1.51 5.5, 2.82 3.6 C4.13 1.69, 6.87 0.74, 7.74 0.26 C8.62 -0.22, 7.96 0.54, 8.07 0.72 M8.29 -0.41 C9.81 -0.36, 11.6 1.98, 12.83 3.99 C14.05 6, 15.3 8.84, 15.61 11.63 C15.92 14.42, 15.49 18.03, 14.69 20.71 C13.9 23.39, 12.34 26.74, 10.85 27.69 C9.36 28.64, 7.41 27.7, 5.75 26.43 C4.09 25.16, 1.72 22.72, 0.9 20.06 C0.08 17.4, 0.47 13.31, 0.85 10.48 C1.23 7.65, 1.87 4.78, 3.2 3.07 C4.53 1.36, 7.97 0.59, 8.84 0.23 C9.7 -0.13, 8.42 0.69, 8.38 0.89" stroke="#1e1e1e" stroke-width="4" fill="none"></path></g><g stroke-linecap="round"><g transform="translate(609.4674569299114 156.9675595815861) rotate(0 4.129519761300344 8.507830469317014)"><path d="M0 0 C-0.43 1.16, -1.15 2.43, -2.53 4.73 M0 0 C-0.91 1.76, -1.89 3.56, -2.53 4.73 M-2.53 4.73 C0.09 8.2, 3.85 13.63, 6.06 17.02 M-2.53 4.73 C0.59 9.48, 4.07 13.56, 6.06 17.02 M6.06 17.02 C6.88 15.75, 8.05 14.53, 10.79 11.5 M6.06 17.02 C7.07 15.88, 8.04 14.56, 10.79 11.5" stroke="#1e1e1e" stroke-width="4" fill="none"></path></g></g><mask></mask><g stroke-linecap="round" transform="translate(597.0949958367855 147.1250958592791) rotate(329.2214986162162 14.55309116658509 19.929154040019057)"><path d="M12.02 0.28 C14.96 -0.66, 18.8 0.69, 21.56 2.82 C24.33 4.95, 27.57 9.16, 28.62 13.05 C29.68 16.95, 29.01 22.24, 27.9 26.19 C26.8 30.14, 24.59 34.51, 21.99 36.77 C19.39 39.02, 15.36 40.39, 12.31 39.7 C9.27 39.02, 5.73 35.83, 3.73 32.65 C1.73 29.47, 0.38 24.81, 0.32 20.64 C0.26 16.48, 1.33 11.15, 3.37 7.67 C5.41 4.2, 10.8 1.03, 12.57 -0.21 C14.33 -1.45, 13.95 -0.09, 13.94 0.23 M11.52 0.09 C14.23 -1.22, 17.82 -0.3, 20.63 1.63 C23.44 3.56, 26.99 7.75, 28.38 11.69 C29.77 15.63, 30.03 21.02, 28.98 25.28 C27.94 29.54, 24.75 34.94, 22.09 37.24 C19.44 39.55, 16.04 39.74, 13.04 39.11 C10.05 38.47, 6.29 36.47, 4.14 33.42 C1.98 30.37, 0.26 25.12, 0.13 20.82 C-0.01 16.52, 1.46 11.09, 3.34 7.62 C5.23 4.15, 10.12 1.05, 11.45 -0.01 C12.78 -1.06, 11.19 0.92, 11.31 1.3" stroke="#1e1e1e" stroke-width="4" fill="none"></path></g><g stroke-linecap="round"><g transform="translate(623.4633966025085 183.37755880948316) rotate(0 6.180379750203429 -2.8918822509358506)"><path d="M0 0 C3.11 -1.44, 6.58 -2.7, 12.36 -5.78 M0 0 C4.06 -1.83, 8.68 -4.17, 12.36 -5.78" stroke="#1e1e1e" stroke-width="4" fill="none"></path></g></g><mask></mask><g stroke-linecap="round"><g transform="translate(600.5694673623493 148.06078634031837) rotate(0 6.103883727464563 -3.5096707824041005)"><path d="M0 0 C3.89 -2.24, 7.14 -4.58, 12.21 -7.02 M0 0 C4.43 -2.63, 8.74 -5.41, 12.21 -7.02" stroke="#1e1e1e" stroke-width="4" fill="none"></path></g></g><mask></mask><g stroke-linecap="round"><g transform="translate(637.5913250919857 153.22981106525185) rotate(0 2.2685505294148243 16.380403767737334)"><path d="M-0.45 -0.27 C0.41 2.01, 4 9.61, 4.85 13.66 C5.69 17.71, 5.3 20.81, 4.61 24.03 C3.92 27.26, 1.27 31.49, 0.7 33.01 M0.32 0.78 C1.17 3.15, 3.98 10.42, 4.64 14.37 C5.3 18.32, 4.95 21.55, 4.3 24.49 C3.65 27.42, 1.33 30.47, 0.74 31.97" stroke="#2f9e44" stroke-width="4" fill="none"></path></g></g><mask></mask><g stroke-linecap="round"><g transform="translate(552.277138761493 129.03519444315134) rotate(0 27.356464709143893 0.5126293924240599)"><path d="M-0.45 0.23 C0.45 -0.9, 2.84 -4.77, 5.3 -6.85 C7.75 -8.92, 11.2 -11.79, 14.29 -12.23 C17.38 -12.66, 20.89 -11.81, 23.83 -9.44 C26.76 -7.08, 28.93 -0.09, 31.93 1.96 C34.92 4.01, 38.54 1.82, 41.79 2.87 C45.03 3.92, 49.1 6.61, 51.4 8.26 C53.71 9.91, 55.16 11.99, 55.61 12.77 M1.52 -0.69 C2.33 -1.67, 2.69 -3.38, 4.69 -5.64 C6.69 -7.9, 10.31 -13.29, 13.51 -14.25 C16.71 -15.22, 21.06 -14.1, 23.91 -11.43 C26.76 -8.75, 27.94 -0.43, 30.62 1.82 C33.31 4.07, 36.52 1.2, 40.01 2.08 C43.49 2.96, 49.04 4.87, 51.55 7.11 C54.06 9.35, 54.35 14.26, 55.06 15.51" stroke="#1e1e1e" stroke-width="4" fill="none"></path></g></g><mask></mask><g stroke-linecap="round"><g transform="translate(557.0903735276506 122.71061748241664) rotate(0 9.544833641017703 8.901043355920592)"><path d="M1.11 -0.75 C2.64 -0.04, 7.1 0.49, 10.14 3.56 C13.19 6.63, 17.74 15.28, 19.37 17.66 M0.23 1.47 C1.47 2.46, 5.82 2.29, 8.91 5.19 C12 8.1, 16.81 16.62, 18.76 18.9" stroke="#1e1e1e" stroke-width="4" fill="none"></path></g></g><mask></mask><g stroke-linecap="round"><g transform="translate(575.9417389553946 139.4829399609116) rotate(0 10.633141322033225 4.371994649596672)"><path d="M0.18 -0.44 C2 -0.38, 7.49 -1.82, 10.99 -0.17 C14.5 1.48, 19.57 7.84, 21.21 9.47 M-0.39 0.52 C1.36 0.48, 7.07 -2.52, 10.6 -0.92 C14.14 0.68, 19.15 8.56, 20.83 10.14" stroke="#1e1e1e" stroke-width="4" fill="none"></path></g></g><mask></mask><g stroke-linecap="round"><g transform="translate(577.204777298175 138.64329877662567) rotate(0 3.5057021146917577 -2.897271596673818)"><path d="M0.31 -0.15 C1.5 -1.05, 5.87 -4.54, 7.03 -5.49 M0.05 -0.53 C1.19 -1.52, 5.57 -5.13, 6.76 -5.96" stroke="#1e1e1e" stroke-width="4" fill="none"></path></g></g><mask></mask><g stroke-linecap="round"><g transform="translate(733.9421179993406 145.0995201965543) rotate(0 -6.772875986765484 -3.3254779053577295)"><path d="M0.16 0.3 C-1.99 -0.81, -11.01 -6.07, -13.31 -7.19 M-0.42 -0.02 C-2.59 -1.04, -11.35 -5.55, -13.62 -6.77" stroke="#1e1e1e" stroke-width="2" fill="none"></path></g></g><mask></mask><g stroke-linecap="round"><g transform="translate(635.0948829967747 176.97109536760036) rotate(0 -10.352109068173831 -17.85261705936682)"><path d="M-0.77 0.8 C-1.97 -3.24, -3.99 -17.83, -7.15 -23.95 C-10.31 -30.07, -17.5 -34.11, -19.74 -35.92 M1.02 0.18 C0.21 -3.75, -1.28 -16.98, -4.79 -22.8 C-8.29 -28.61, -17.41 -32.36, -20 -34.71" stroke="#1e1e1e" stroke-width="4" fill="none"></path></g></g><mask></mask><g stroke-linecap="round"><g transform="translate(744.341804513766 94.87167941273765) rotate(0 0.7196079528380324 31.63617475884803)"><path d="M-0.84 1.02 C-0.56 11.57, 1.35 53.54, 1.85 63.94 M0.92 0.51 C1.06 10.65, 0.98 51.45, 1.12 62.17" stroke="#1e1e1e" stroke-width="4" fill="none"></path></g></g><mask></mask><g stroke-linecap="round"><g transform="translate(555.2770534360316 79.36972978079575) rotate(0 51.26728575085008 34.10476301705148)"><path d="M0.72 -1.17 C15.41 7.8, 71.67 43.26, 88.77 54.63 C105.87 66, 101.21 64.86, 103.32 67.04 M-0.36 0.83 C14.67 9.39, 73.95 41.75, 91.17 52.9 C108.4 64.05, 101.31 65.14, 102.97 67.74" stroke="#1e1e1e" stroke-width="4" fill="none"></path></g></g><mask></mask><g stroke-linecap="round"><g transform="translate(658.9097857889856 146.4290725398987) rotate(0 -0.38610392623650114 30.59243656385661)"><path d="M-0.93 0.01 C-0.8 9.86, -0.11 49.86, 0.1 59.99 M0.78 -1.04 C0.89 8.84, -0.29 50.41, -0.39 60.91" stroke="#1e1e1e" stroke-width="4" fill="none"></path></g></g><mask></mask><g stroke-linecap="round"><g transform="translate(656.6825757723855 209.16648987626468) rotate(0 50.5062923360515 -32.50316252756147)"><path d="M-0.4 0.77 C14.41 -7.45, 72.97 -37.7, 89.93 -48.61 C106.9 -59.53, 99.64 -62, 101.39 -64.71 M1.59 0.13 C16.13 -7.97, 72.33 -36.63, 88.87 -47.19 C105.41 -57.75, 98.91 -60.48, 100.83 -63.24" stroke="#1e1e1e" stroke-width="4" fill="none"></path></g></g><mask></mask><g stroke-linecap="round"><g transform="translate(757.478866053274 144.9826344354169) rotate(0 -4.912664078687612 -32.70118820426342)"><path d="M0.47 -0.83 C0.07 -9.99, -0.03 -43.83, -1.63 -54.77 C-3.24 -65.7, -7.87 -64.68, -9.18 -66.45 M-0.75 1.34 C-0.87 -8.16, 1.94 -45.34, 0.46 -56.51 C-1.01 -67.68, -8.01 -64.39, -9.6 -65.68" stroke="#1e1e1e" stroke-width="4" fill="none"></path></g></g><mask></mask><g stroke-linecap="round"><g transform="translate(747.1682662243993 78.04478367603224) rotate(0 -49.43394834767514 -28.102212000319923)"><path d="M0.26 0.91 C-16.46 -8.21, -83.28 -45.78, -99.99 -55.2 M-1.07 0.34 C-17.46 -9.05, -81.77 -47.13, -97.87 -56.79" stroke="#1e1e1e" stroke-width="4" fill="none"></path></g></g><mask></mask><g stroke-linecap="round"><g transform="translate(648.367116476812 21.99712489319063) rotate(0 -53.609107669770765 37.307799904071544)"><path d="M-0.95 -0.89 C-16.68 8.59, -77.36 43.58, -94.97 56.17 C-112.58 68.76, -104.62 71.52, -106.63 74.66 M0.76 1.26 C-15.08 10.47, -77.93 42.01, -95.9 54.46 C-113.88 66.92, -105.29 72.35, -107.09 75.99" stroke="#1e1e1e" stroke-width="4" fill="none"></path></g></g><mask></mask><g stroke-linecap="round"><g transform="translate(541.9202961393721 96.35342543297702) rotate(0 0.22394027721702514 18.55412256899126)"><path d="M-0.36 0.01 C-0.27 6.12, 0.41 30.43, 0.62 36.57 M0.45 -0.46 C0.48 5.71, 0.23 30.7, 0.28 36.99" stroke="#1e1e1e" stroke-width="4" fill="none"></path></g></g><mask></mask><g stroke-linecap="round"><g transform="translate(586.0076745629676 174.86339136869356) rotate(0 35.784025779596504 16.65879829158621)"><path d="M-0.82 0.95 C9 6.59, 45.82 28.2, 57.94 32.83 C70.06 37.46, 69.56 29.34, 71.89 28.72 M0.94 0.41 C11.2 6.29, 48.31 29.25, 60.04 34.11 C71.76 38.97, 69.24 30.25, 71.29 29.56" stroke="#1e1e1e" stroke-width="4" fill="none"></path></g></g><mask></mask><g stroke-linecap="round"><g transform="translate(659.8179003721752 144.64281024953925) rotate(0 47.678894336652775 -26.93492499626609)"><path d="M-0.48 1.01 C15.5 -8.1, 79.75 -45.79, 95.78 -55.06 M1.47 0.49 C17.34 -8.47, 79.45 -45.12, 95.05 -54.15" stroke="#1e1e1e" stroke-width="4" fill="none"></path></g></g><mask></mask><g stroke-linecap="round"><g transform="translate(653.5466079032431 134.8919295652595) rotate(0 47.897812152222286 -26.982122873934713)"><path d="M-0.19 -0.77 C15.88 -9.79, 80.8 -44.76, 96.7 -53.76 M-1.75 1.45 C14.22 -8, 80.24 -46.55, 96.23 -55.77" stroke="#1e1e1e" stroke-width="4" fill="none"></path></g></g><mask></mask><g stroke-linecap="round"><g transform="translate(542.4287449293088 89.76272483286812) rotate(0 55.07085841487242 31.96198064395412)"><path d="M-0.66 -0.98 C0.61 -1.27, -7.14 -10.3, 8.81 -1.83 C24.76 6.63, 78.25 38.38, 95.03 49.79 C111.81 61.21, 107 63.76, 109.49 66.63 M1.19 1.12 C2.27 0.51, -7.76 -11.75, 8.29 -3.49 C24.35 4.78, 80.69 38.82, 97.54 50.69 C114.39 62.55, 107.59 64.91, 109.39 67.72" stroke="#1e1e1e" stroke-width="4" fill="none"></path></g></g><mask></mask><g stroke-linecap="round"><g transform="translate(651.8632826272014 157.57979171390616) rotate(0 -0.7921842983782881 25.153361129090626)"><path d="M0.52 0.73 C0.31 9.24, -1.81 41.79, -2.26 49.86 M-0.67 0.07 C-0.39 8.84, 0.53 42.87, 0.1 51.16" stroke="#1e1e1e" stroke-width="4" fill="none"></path></g></g><mask></mask><g transform="translate(541.325963863942 154.38171010148108) rotate(0 0.00005000000010113581 0.00004999999964638846)" stroke="none"><path fill="#1e1e1e" d="M 3.14,-3.14 Q 3.14,-3.14 3.55,-2.55 3.97,-1.97 4.18,-1.28 4.40,-0.59 4.38,0.11 4.36,0.83 4.11,1.51 3.86,2.18 3.41,2.74 2.96,3.30 2.36,3.69 1.75,4.07 1.05,4.25 0.36,4.42 -0.35,4.36 -1.07,4.30 -1.73,4.02 -2.39,3.74 -2.92,3.26 -3.46,2.78 -3.81,2.15 -4.16,1.53 -4.30,0.82 -4.43,0.11 -4.34,-0.59 -4.24,-1.30 -3.92,-1.94 -3.60,-2.59 -3.09,-3.09 -2.59,-3.60 -1.94,-3.92 -1.30,-4.24 -0.59,-4.34 0.12,-4.43 0.82,-4.30 1.53,-4.16 2.15,-3.81 2.78,-3.46 3.26,-2.92 3.74,-2.39 4.02,-1.73 4.31,-1.07 4.36,-0.35 4.42,0.36 4.25,1.05 4.07,1.75 3.69,2.36 3.30,2.96 2.74,3.41 2.18,3.86 1.51,4.11 0.83,4.36 0.11,4.38 -0.60,4.40 -1.28,4.18 -1.97,3.97 -2.55,3.55 -3.14,3.13 -3.14,3.14 -3.14,3.14 -3.47,2.71 -3.80,2.29 -4.02,1.80 -4.24,1.32 -4.33,0.79 -4.43,0.26 -4.40,-0.26 -4.36,-0.80 -4.20,-1.31 -4.04,-1.82 -3.77,-2.28 -3.49,-2.73 -3.11,-3.11 -2.73,-3.49 -2.28,-3.77 -1.82,-4.05 -1.31,-4.20 -0.80,-4.36 -0.26,-4.40 0.26,-4.43 0.79,-4.33 1.32,-4.24 1.80,-4.02 2.29,-3.80 2.71,-3.47 3.14,-3.14 3.14,-3.14 L 3.14,-3.14 Z"></path></g><g transform="translate(566.192756093229 169.4569078207387) rotate(0 0.00005000000010113581 0.00004999999964638846)" stroke="none"><path fill="#1e1e1e" d="M 3.14,-3.14 Q 3.14,-3.14 3.55,-2.55 3.97,-1.97 4.18,-1.28 4.40,-0.59 4.38,0.11 4.36,0.83 4.11,1.51 3.86,2.18 3.41,2.74 2.96,3.30 2.36,3.69 1.75,4.07 1.05,4.25 0.36,4.42 -0.35,4.36 -1.07,4.30 -1.73,4.02 -2.39,3.74 -2.92,3.26 -3.46,2.78 -3.81,2.15 -4.16,1.53 -4.30,0.82 -4.43,0.11 -4.34,-0.59 -4.24,-1.30 -3.92,-1.94 -3.60,-2.59 -3.09,-3.09 -2.59,-3.60 -1.94,-3.92 -1.30,-4.24 -0.59,-4.34 0.12,-4.43 0.82,-4.30 1.53,-4.16 2.15,-3.81 2.78,-3.46 3.26,-2.92 3.74,-2.39 4.02,-1.73 4.31,-1.07 4.36,-0.35 4.42,0.36 4.25,1.05 4.07,1.75 3.69,2.36 3.30,2.96 2.74,3.41 2.18,3.86 1.51,4.11 0.83,4.36 0.11,4.38 -0.60,4.40 -1.28,4.18 -1.97,3.97 -2.55,3.55 -3.14,3.13 -3.14,3.14 -3.14,3.14 -3.47,2.71 -3.80,2.29 -4.02,1.80 -4.24,1.32 -4.33,0.79 -4.43,0.26 -4.40,-0.26 -4.36,-0.80 -4.20,-1.31 -4.04,-1.82 -3.77,-2.28 -3.49,-2.73 -3.11,-3.11 -2.73,-3.49 -2.28,-3.77 -1.82,-4.05 -1.31,-4.20 -0.80,-4.36 -0.26,-4.40 0.26,-4.43 0.79,-4.33 1.32,-4.24 1.80,-4.02 2.29,-3.80 2.71,-3.47 3.14,-3.14 3.14,-3.14 L 3.14,-3.14 Z"></path></g><g transform="translate(550.256053371133 89.2872658917131) rotate(0 0.00005000000010113581 0.00004999999964638846)" stroke="none"><path fill="#1e1e1e" d="M 3.14,-3.14 Q 3.14,-3.14 3.55,-2.55 3.97,-1.97 4.18,-1.28 4.40,-0.59 4.38,0.11 4.36,0.83 4.11,1.51 3.86,2.18 3.41,2.74 2.96,3.30 2.36,3.69 1.75,4.07 1.05,4.25 0.36,4.42 -0.35,4.36 -1.07,4.30 -1.73,4.02 -2.39,3.74 -2.92,3.26 -3.46,2.78 -3.81,2.15 -4.16,1.53 -4.30,0.82 -4.43,0.11 -4.34,-0.59 -4.24,-1.30 -3.92,-1.94 -3.60,-2.59 -3.09,-3.09 -2.59,-3.60 -1.94,-3.92 -1.30,-4.24 -0.59,-4.34 0.12,-4.43 0.82,-4.30 1.53,-4.16 2.15,-3.81 2.78,-3.46 3.26,-2.92 3.74,-2.39 4.02,-1.73 4.31,-1.07 4.36,-0.35 4.42,0.36 4.25,1.05 4.07,1.75 3.69,2.36 3.30,2.96 2.74,3.41 2.18,3.86 1.51,4.11 0.83,4.36 0.11,4.38 -0.60,4.40 -1.28,4.18 -1.97,3.97 -2.55,3.55 -3.14,3.13 -3.14,3.14 -3.14,3.14 -3.47,2.71 -3.80,2.29 -4.02,1.80 -4.24,1.32 -4.33,0.79 -4.43,0.26 -4.40,-0.26 -4.36,-0.80 -4.20,-1.31 -4.04,-1.82 -3.77,-2.28 -3.49,-2.73 -3.11,-3.11 -2.73,-3.49 -2.28,-3.77 -1.82,-4.05 -1.31,-4.20 -0.80,-4.36 -0.26,-4.40 0.26,-4.43 0.79,-4.33 1.32,-4.24 1.80,-4.02 2.29,-3.80 2.71,-3.47 3.14,-3.14 3.14,-3.14 L 3.14,-3.14 Z"></path></g><g transform="translate(634.4102262849347 140.1073955372558) rotate(0 0.00005000000010113581 0.00004999999964638846)" stroke="none"><path fill="#1e1e1e" d="M 3.14,-3.14 Q 3.14,-3.14 3.55,-2.55 3.97,-1.97 4.18,-1.28 4.40,-0.59 4.38,0.11 4.36,0.83 4.11,1.51 3.86,2.18 3.41,2.74 2.96,3.30 2.36,3.69 1.75,4.07 1.05,4.25 0.36,4.42 -0.35,4.36 -1.07,4.30 -1.73,4.02 -2.39,3.74 -2.92,3.26 -3.46,2.78 -3.81,2.15 -4.16,1.53 -4.30,0.82 -4.43,0.11 -4.34,-0.59 -4.24,-1.30 -3.92,-1.94 -3.60,-2.59 -3.09,-3.09 -2.59,-3.60 -1.94,-3.92 -1.30,-4.24 -0.59,-4.34 0.12,-4.43 0.82,-4.30 1.53,-4.16 2.15,-3.81 2.78,-3.46 3.26,-2.92 3.74,-2.39 4.02,-1.73 4.31,-1.07 4.36,-0.35 4.42,0.36 4.25,1.05 4.07,1.75 3.69,2.36 3.30,2.96 2.74,3.41 2.18,3.86 1.51,4.11 0.83,4.36 0.11,4.38 -0.60,4.40 -1.28,4.18 -1.97,3.97 -2.55,3.55 -3.14,3.13 -3.14,3.14 -3.14,3.14 -3.47,2.71 -3.80,2.29 -4.02,1.80 -4.24,1.32 -4.33,0.79 -4.43,0.26 -4.40,-0.26 -4.36,-0.80 -4.20,-1.31 -4.04,-1.82 -3.77,-2.28 -3.49,-2.73 -3.11,-3.11 -2.73,-3.49 -2.28,-3.77 -1.82,-4.05 -1.31,-4.20 -0.80,-4.36 -0.26,-4.40 0.26,-4.43 0.79,-4.33 1.32,-4.24 1.80,-4.02 2.29,-3.80 2.71,-3.47 3.14,-3.14 3.14,-3.14 L 3.14,-3.14 Z"></path></g><g transform="translate(634.5769412230484 201.1882995878932) rotate(0 0.00005000000010113581 0.00004999999964638846)" stroke="none"><path fill="#1e1e1e" d="M 3.14,-3.14 Q 3.14,-3.14 3.55,-2.55 3.97,-1.97 4.18,-1.28 4.40,-0.59 4.38,0.11 4.36,0.83 4.11,1.51 3.86,2.18 3.41,2.74 2.96,3.30 2.36,3.69 1.75,4.07 1.05,4.25 0.36,4.42 -0.35,4.36 -1.07,4.30 -1.73,4.02 -2.39,3.74 -2.92,3.26 -3.46,2.78 -3.81,2.15 -4.16,1.53 -4.30,0.82 -4.43,0.11 -4.34,-0.59 -4.24,-1.30 -3.92,-1.94 -3.60,-2.59 -3.09,-3.09 -2.59,-3.60 -1.94,-3.92 -1.30,-4.24 -0.59,-4.34 0.12,-4.43 0.82,-4.30 1.53,-4.16 2.15,-3.81 2.78,-3.46 3.26,-2.92 3.74,-2.39 4.02,-1.73 4.31,-1.07 4.36,-0.35 4.42,0.36 4.25,1.05 4.07,1.75 3.69,2.36 3.30,2.96 2.74,3.41 2.18,3.86 1.51,4.11 0.83,4.36 0.11,4.38 -0.60,4.40 -1.28,4.18 -1.97,3.97 -2.55,3.55 -3.14,3.13 -3.14,3.14 -3.14,3.14 -3.47,2.71 -3.80,2.29 -4.02,1.80 -4.24,1.32 -4.33,0.79 -4.43,0.26 -4.40,-0.26 -4.36,-0.80 -4.20,-1.31 -4.04,-1.82 -3.77,-2.28 -3.49,-2.73 -3.11,-3.11 -2.73,-3.49 -2.28,-3.77 -1.82,-4.05 -1.31,-4.20 -0.80,-4.36 -0.26,-4.40 0.26,-4.43 0.79,-4.33 1.32,-4.24 1.80,-4.02 2.29,-3.80 2.71,-3.47 3.14,-3.14 3.14,-3.14 L 3.14,-3.14 Z"></path></g><g stroke-linecap="round"><g transform="translate(569.5588019834013 70.44456778043968) rotate(0 51.13896106286984 66.12835529532003)"><path d="M0 0 C27.85 19.64, 59.26 37.29, 94.9 57.76 M0 0 C35.99 22.43, 71.22 43.2, 94.9 57.76 M94.9 57.76 C98.33 60.97, 100.21 64.67, 102.28 67.84 M94.9 57.76 C96.95 60.34, 99.11 63.91, 102.28 67.84 M102.28 67.84 C101.91 86.71, 102.62 109.3, 101.66 132.26 M102.28 67.84 C102.5 88.08, 101.84 107.39, 101.66 132.26" stroke="#1e1e1e" stroke-width="2" fill="none"></path></g></g><mask></mask><g stroke-linecap="round"><g transform="translate(355.2369947159623 193.4098080572785) rotate(0 66.92285088273593 -31.205776468415934)"><path d="M-1.16 -1.14 C3.51 -0.84, 6.86 12.85, 29.16 2.2 C51.47 -8.44, 115.13 -53.78, 132.68 -65 M0.44 0.88 C5.38 0.77, 9.05 11.18, 31.47 0.34 C53.9 -10.5, 117.7 -53.33, 134.97 -64.15" stroke="#1e1e1e" stroke-width="4" fill="none"></path></g></g><mask></mask><g stroke-linecap="round"><g transform="translate(353.5721475759956 191.45045967440456) rotate(0 -22.489904375332117 -22.583103168673006)"><path d="M-0.26 -0.77 C-6.94 -5.72, -33.49 -22.93, -40.99 -30.37 C-48.5 -37.82, -44.78 -42.95, -45.29 -45.45 M1.8 1.43 C-4.41 -3.78, -30.7 -24.44, -38.7 -32.06 C-46.71 -39.68, -45.45 -42.23, -46.21 -44.29" stroke="#1e1e1e" stroke-width="4" fill="none"></path></g></g><mask></mask><g stroke-linecap="round"><g transform="translate(309.2042153182874 145.85013483721923) rotate(0 3.3436584783903527 -22.186601555337802)"><path d="M0.03 -0.4 C0.16 -6.64, -0.23 -30.58, 0.87 -37.93 C1.98 -45.28, 5.63 -43.41, 6.67 -44.52 M-0.62 0.58 C-0.32 -5.53, 0.81 -29.87, 1.96 -37.3 C3.12 -44.73, 5.4 -42.84, 6.31 -44" stroke="#1e1e1e" stroke-width="4" fill="none"></path></g></g><mask></mask><g stroke-linecap="round"><g transform="translate(314.7399620745746 102.80955720362545) rotate(0 15.190317800653702 -12.720049452045714)"><path d="M0 0 C6.85 -5.3, 13.24 -12.25, 30.38 -25.44 M0 0 C6.72 -5.7, 14.11 -11.3, 30.38 -25.44" stroke="#1e1e1e" stroke-width="4" fill="none"></path></g></g><mask></mask><g stroke-linecap="round"><g transform="translate(345.2070937189483 77.4830759832239) rotate(0 31.581684470504115 -7.925383200340548)"><path d="M0 0 C5.26 0.43, 9.43 -0.84, 18.36 1.23 M0 0 C5.46 -0.53, 12.89 0.7, 18.36 1.23 M18.36 1.23 C20.36 3.91, 23.12 4.37, 24.6 7.21 M18.36 1.23 C20.54 3.1, 22.4 4.74, 24.6 7.21 M24.6 7.21 C34.21 1.24, 41.72 -6.83, 63.16 -23.06 M24.6 7.21 C37.71 -2.97, 50.08 -13.21, 63.16 -23.06" stroke="#1e1e1e" stroke-width="4" fill="none"></path></g></g><mask></mask><g stroke-linecap="round"><g transform="translate(404.00068098866086 57.33633345767885) rotate(0 20.94302802785296 -7.045236122125971)"><path d="M0.47 -0.34 C4.13 -2.72, 14.75 -13.51, 21.63 -13.96 C28.51 -14.41, 38.28 -4.88, 41.73 -3.03 M0.04 0.68 C3.7 -1.91, 14.6 -14.32, 21.47 -14.86 C28.35 -15.41, 37.77 -4.65, 41.3 -2.59" stroke="#1e1e1e" stroke-width="4" fill="none"></path></g></g><mask></mask><g stroke-linecap="round"><g transform="translate(440.1189765279023 50.98274053736168) rotate(0 24.47668383710561 21.961939369569336)"><path d="M1.08 0.74 C8.44 6.24, 35.74 26.14, 43.72 33.37 C51.71 40.6, 48.07 42.24, 48.97 44.11 M0.19 0.08 C7.96 5.17, 37.96 23.82, 45.97 31.4 C53.97 38.97, 47.62 43.69, 48.21 45.53" stroke="#1e1e1e" stroke-width="4" fill="none"></path></g></g><mask></mask><g stroke-linecap="round"><g transform="translate(489.61551410720404 94.2492501270026) rotate(0 -33.08741391174635 20.242725538623745)"><path d="M-0.57 -0.3 C-9.49 6.5, -41.74 33.38, -52.56 40.16 C-63.38 46.94, -63.19 40.22, -65.5 40.38 M1.33 -1.5 C-7.83 5.05, -42.36 31.39, -53.56 38.58 C-64.77 45.77, -63.79 41.59, -65.92 41.64" stroke="#1e1e1e" stroke-width="4" fill="none"></path></g></g><mask></mask><g stroke-linecap="round"><g transform="translate(425.67876771765805 136.91097346041897) rotate(0 -11.693062209285927 -4.069054634129316)"><path d="M0.44 -0.47 C-1.31 -1.89, -6.17 -8.08, -10.05 -8.22 C-13.94 -8.36, -20.72 -2.42, -22.87 -1.31 M0 0.47 C-1.87 -0.89, -6.72 -7.36, -10.55 -7.57 C-14.37 -7.77, -20.94 -1.8, -22.95 -0.74" stroke="#1e1e1e" stroke-width="4" fill="none"></path></g></g><mask></mask><g stroke-linecap="round"><g transform="translate(402.6652491133518 136.03107871758948) rotate(0 -10.01371575103758 6.877747829003965)"><path d="M0.45 0.03 C-2.75 2.24, -16.06 10.93, -19.51 13.27 M0.02 -0.42 C-3.18 1.83, -16.22 11.46, -19.68 13.72" stroke="#1e1e1e" stroke-width="4" fill="none"></path></g></g><mask></mask><g stroke-linecap="round"><g transform="translate(383.75406287764145 149.05813262900483) rotate(0 -11.365787482127871 2.060861272290822)"><path d="M0.49 0.07 C-1.34 1.13, -6.87 6.21, -10.77 5.85 C-14.66 5.5, -20.92 -0.84, -22.9 -2.04 M0.08 -0.37 C-1.83 0.84, -7.21 6.78, -11.11 6.57 C-15.01 6.36, -21.44 -0.13, -23.33 -1.62" stroke="#1e1e1e" stroke-width="4" fill="none"></path></g></g><mask></mask><g stroke-linecap="round"><g transform="translate(312.89301325226006 111.7058134286126) rotate(0 25.18583921147365 18.999443400083692)"><path d="M1.2 -0.91 C9.77 5.46, 42.24 32.46, 50.41 38.74 M0.37 1.23 C8.88 7.21, 41.32 30.97, 49.49 37.01" stroke="#1e1e1e" stroke-width="4" fill="none"></path></g></g><mask></mask><g stroke-linecap="round"><g transform="translate(490.28531669619133 89.50625302957087) rotate(0 0.3938790345223424 18.639481530305602)"><path d="M0.4 -0.07 C0.62 6.02, 0.86 30.69, 0.94 36.91 M-0.06 -0.59 C0.14 5.54, 0.48 31.01, 0.59 37.42" stroke="#1e1e1e" stroke-width="4" fill="none"></path></g></g><mask></mask><g stroke-linecap="round"><g transform="translate(377.7993991221856 155.36681602814497) rotate(0 0.4041707188539476 20.20388495629595)"><path d="M-0.48 -0.29 C-0.3 6.56, 0.33 33.82, 0.62 40.57 M0.28 0.76 C0.41 7.48, -0.05 33.04, 0.09 39.69" stroke="#1e1e1e" stroke-width="2" fill="none"></path></g></g><mask></mask><g stroke-linecap="round"><g transform="translate(369.0930540825766 156.37963688378295) rotate(0 0.4041707188539476 20.20388495629595)"><path d="M0.5 0.46 C0.55 7.29, 0.34 33.79, 0.36 40.52 M0.09 0.21 C0.3 6.92, 1.35 32.99, 1.36 39.6" stroke="#1e1e1e" stroke-width="2" fill="none"></path></g></g><mask></mask><g stroke-linecap="round"><g transform="translate(488.77844619772895 107.1574815147942) rotate(0 -67.18628925521853 39.667332876440014)"><path d="M0.88 0.03 C-16.31 13.3, -80.29 67.47, -102.87 80.07 C-125.45 92.68, -129.28 76.67, -134.59 75.67 M-0.12 -0.99 C-17.46 11.89, -81.09 65.89, -103.65 78.34 C-126.2 90.78, -130.29 74.3, -135.47 73.69" stroke="#1e1e1e" stroke-width="2" fill="none"></path></g></g><mask></mask><g stroke-linecap="round"><g transform="translate(321.0759688903727 157.15279480881145) rotate(0 -5.253754246461995 -4.716565316340166)"><path d="M-0.3 0.04 C-2.2 -1.51, -9.3 -7.99, -10.99 -9.51 M0.54 -0.42 C-1.23 -1.85, -8.13 -7.26, -10 -8.85" stroke="#1e1e1e" stroke-width="2" fill="none"></path></g></g><mask></mask><g stroke-linecap="round"><g transform="translate(370.77566900889906 137.11923498772376) rotate(0 20.16702902123143 -10.48056276650641)"><path d="M-1.19 -0.22 C3.51 -3.88, 20.31 -17.94, 27.2 -21.56 C34.09 -25.17, 37.97 -22.15, 40.14 -21.9 M0.39 -1.38 C5.58 -4.94, 23.12 -17.1, 29.6 -20.38 C36.08 -23.66, 37.46 -20.78, 39.27 -21.08" stroke="#1e1e1e" stroke-width="2" fill="none"></path></g></g><mask></mask><g stroke-linecap="round"><g transform="translate(410.8377600416061 115.93865640009244) rotate(0 12.266323560461387 3.389084830923821)"><path d="M-0.48 0 C1.24 1.09, 6.48 6.75, 10.66 6.8 C14.84 6.86, 22.29 1.41, 24.62 0.34 M0.28 -0.47 C2.15 0.69, 7.75 7.54, 11.75 7.52 C15.76 7.49, 22.14 0.75, 24.31 -0.6" stroke="#1e1e1e" stroke-width="2" fill="none"></path></g></g><mask></mask><g stroke-linecap="round"><g transform="translate(433.5232210591121 115.89056222658473) rotate(0 19.47986502681124 -17.52272755262493)"><path d="M0.42 0.73 C7.07 -3.57, 33.92 -20.59, 38.78 -26.72 C43.65 -32.85, 31 -34.69, 29.63 -36.06 M-0.82 0.07 C5.76 -4.04, 32.28 -19.87, 37.75 -25.77 C43.21 -31.66, 33.15 -33.93, 31.99 -35.28" stroke="#1e1e1e" stroke-width="2" fill="none"></path></g></g><mask></mask><g stroke-linecap="round"><g transform="translate(471.4158404053478 85.26657242619513) rotate(0 -26.160933893101628 -15.02130608806874)"><path d="M-0.41 0.76 C-7.4 -4.3, -33.24 -24.28, -42.08 -29.2 C-50.93 -34.13, -51.84 -28.73, -53.5 -28.78 M1.57 0.12 C-5.01 -4.77, -30.94 -26.28, -39.74 -30.89 C-48.54 -35.49, -49.24 -27.86, -51.23 -27.52" stroke="#1e1e1e" stroke-width="2" fill="none"></path></g></g><mask></mask><g stroke-linecap="round"><g transform="translate(420.4948000018476 57.09870439505903) rotate(0 -20.651803830257904 15.818308843860905)"><path d="M0.52 -0.18 C-6.34 5.1, -34.94 26.53, -41.99 31.86 M-0.67 -1.32 C-7.06 3.56, -32.61 24.11, -39.64 29.85" stroke="#1e1e1e" stroke-width="2" fill="none"></path></g></g><mask></mask><g stroke-linecap="round"><g transform="translate(370.3327858021139 84.7710715887406) rotate(0 18.323051859545558 15.184258884664814)"><path d="M-0.68 0.29 C5.67 5.3, 31.64 24.62, 37.85 29.47 M1.17 -0.6 C7.49 4.58, 31.76 25.4, 37.53 30.53" stroke="#1e1e1e" stroke-width="2" fill="none"></path></g></g><mask></mask><g stroke-linecap="round" transform="translate(417.48011780515935 80.998268183248) rotate(0 8.752890441628097 5.3667114894560655)"><path d="M10.06 0.04 C12 0.15, 14.4 1.05, 15.63 1.82 C16.85 2.59, 17.46 3.61, 17.42 4.67 C17.38 5.73, 16.45 7.23, 15.39 8.18 C14.32 9.12, 12.88 10.03, 11.05 10.32 C9.22 10.61, 6.05 10.35, 4.4 9.93 C2.75 9.52, 1.77 8.92, 1.15 7.82 C0.53 6.71, 0.28 4.54, 0.68 3.31 C1.08 2.09, 2.01 1.03, 3.54 0.44 C5.06 -0.16, 8.7 -0.15, 9.85 -0.26 C11 -0.37, 10.47 -0.42, 10.43 -0.23 M9.63 0.7 C11.37 0.75, 13.63 0.44, 14.9 1.22 C16.18 2, 17.23 4.02, 17.29 5.37 C17.36 6.72, 16.52 8.43, 15.28 9.33 C14.03 10.24, 11.54 10.65, 9.82 10.81 C8.1 10.97, 6.57 10.86, 4.96 10.28 C3.36 9.7, 0.91 8.37, 0.21 7.32 C-0.48 6.28, 0.11 5.2, 0.79 4 C1.47 2.81, 2.64 0.73, 4.31 0.17 C5.98 -0.39, 9.79 0.7, 10.82 0.65 C11.85 0.6, 10.52 -0.2, 10.47 -0.13" stroke="#1e1e1e" stroke-width="2" fill="none"></path></g><g stroke-linecap="round" transform="translate(411.84196968096694 76.37491175287869) rotate(0 14.03898176067105 10.104378917153554)"><path d="M12.55 -0.26 C15.37 -0.51, 18.92 0.73, 21.45 1.96 C23.97 3.18, 26.86 5.01, 27.72 7.08 C28.58 9.15, 27.89 12.35, 26.59 14.37 C25.3 16.39, 22.58 18.28, 19.96 19.19 C17.34 20.1, 13.74 20.38, 10.89 19.83 C8.04 19.29, 4.61 17.58, 2.86 15.92 C1.11 14.25, 0.2 11.95, 0.36 9.85 C0.52 7.74, 1.66 4.94, 3.84 3.29 C6.01 1.65, 11.67 0.48, 13.41 -0.02 C15.15 -0.52, 14.25 0.14, 14.29 0.3 M12.6 -0.25 C15.33 -0.67, 18.53 0.97, 21.02 2.11 C23.51 3.26, 26.51 4.64, 27.54 6.61 C28.56 8.57, 28.34 11.92, 27.16 13.92 C25.99 15.91, 23.17 17.48, 20.49 18.57 C17.8 19.67, 13.99 20.82, 11.06 20.48 C8.13 20.14, 4.68 18.38, 2.92 16.54 C1.16 14.69, 0.27 11.63, 0.5 9.41 C0.73 7.18, 2.33 4.75, 4.29 3.18 C6.25 1.61, 11.01 0.55, 12.24 -0.02 C13.47 -0.6, 11.74 -0.47, 11.66 -0.26" stroke="#1e1e1e" stroke-width="1" fill="none"></path></g><g stroke-linecap="round"><g transform="translate(338.00461608977275 95.89066214701052) rotate(0 11.88226397755625 -8.340709255419824)"><path d="M-1.24 1.55 C6.22 -2.33, 10.01 -7.26, 23.01 -15.14 M-0.15 0.1 C8.82 -5.35, 16.36 -11.81, 24.58 -15.7" stroke="#1e1e1e" stroke-width="2" fill="none"></path></g></g><mask></mask><g stroke-linecap="round"><g transform="translate(323.9686799754463 156.9797779182918) rotate(0 0.5067784253587888 -17.040353402585424)"><path d="M0.35 -1.68 C0.7 -11.16, 1.05 -17.31, -0.87 -35.05 M-0.75 0.5 C0.43 -11.72, -0.33 -22.64, 1.79 -34.82" stroke="#1e1e1e" stroke-width="2" fill="none"></path></g></g><mask></mask><g stroke-linecap="round"><g transform="translate(324.3693973226418 157.59906836395749) rotate(0 14.561484017594921 10.744803072438117)"><path d="M1.89 -0.18 C11.7 6.63, 24.11 16.87, 29.57 20.18 M-0.56 -0.54 C7.37 5.38, 17.08 11.46, 28.79 21.56" stroke="#1e1e1e" stroke-width="2" fill="none"></path></g></g><mask></mask><g stroke-linecap="round"><g transform="translate(353.36562331809364 177.2706472262489) rotate(0 0.24001299441351875 -16.25959966977007)"><path d="M0.62 0.02 C-0.69 -8.19, 0.77 -16.47, 0.99 -32.17 M0.57 0.24 C0.26 -12.39, -0.76 -25.77, 1.33 -33.34" stroke="#1e1e1e" stroke-width="2" fill="none"></path></g></g><mask></mask><g stroke-linecap="round"><g transform="translate(328.0991802824692 158.0775764840455) rotate(0 0.3587862232693624 -10.723173442902407)"><path d="M0.36 -1.24 C1.63 -6.29, 0.72 -7.69, 1.92 -23.16 M0.94 0.51 C0.36 -7.72, -0.29 -16.7, 0.1 -20.98" stroke="#1e1e1e" stroke-width="2" fill="none"></path></g></g><mask></mask><g stroke-linecap="round"><g transform="translate(329.3098572266599 136.6603671368248) rotate(0 3.4906287143521695 -2.155441561942098)"><path d="M0.28 0.2 C2.03 -1.81, 4.87 -2.61, 6.96 -3.84 M0.1 -0.22 C1.56 -1.04, 3.64 -2.28, 7.12 -4.09" stroke="#1e1e1e" stroke-width="2" fill="none"></path></g></g><mask></mask><g stroke-linecap="round"><g transform="translate(345.00614989686346 138.0235105713873) rotate(0 3.8511304663011288 7.317709453212046)"><path d="M-1.46 1.53 C1.53 4.7, 4.49 7.49, 6.32 16.16 M-0.35 -0.6 C2.29 3.89, 4.71 7.16, 8.3 14.49" stroke="#1e1e1e" stroke-width="2" fill="none"></path></g></g><mask></mask><g stroke-linecap="round"><g transform="translate(329.7675087208363 157.83637780778918) rotate(0 9.579868047488617 -5.554989311183817)"><path d="M-1.99 -1.14 C3.64 -1.7, 10.97 -8.16, 19.16 -11.93 M0.11 -0.68 C6.79 -3.23, 14.23 -8.67, 18.21 -10.29" stroke="#1e1e1e" stroke-width="2" fill="none"></path></g></g><mask></mask><g stroke-linecap="round"><g transform="translate(346.92601027646197 170.99171541161195) rotate(0 3.3996666610337343 -4.25436057888146)"><path d="M-0.38 0.25 C2.5 -2.56, 4.55 -5.71, 7.42 -8.69 M-0.09 -0.34 C2.19 -2.33, 4.21 -5.69, 7.03 -8.59" stroke="#1e1e1e" stroke-width="2" fill="none"></path></g></g><mask></mask><g stroke-linecap="round"><g transform="translate(474.51841829632485 86.47609341607676) rotate(0 5.635996426398833 2.7793963984067886)"><path d="M1.2 0.34 C3.23 1.44, 6.49 1.56, 11.5 6.3 M-0.43 0.23 C3.18 1.32, 5.32 2.92, 11.59 5.99" stroke="#1e1e1e" stroke-width="2" fill="none"></path></g></g><mask></mask><g stroke-linecap="round"><g transform="translate(431.37219338847353 53.64974300292306) rotate(0 -3.57710382985033 -4.763889767720684)"><path d="M-0.64 0.45 C-2.17 -3.34, -3.75 -5.42, -6.64 -9.89 M0.11 0.17 C-2.07 -2.46, -4.44 -5.18, -7.35 -9.37" stroke="#1e1e1e" stroke-width="2" fill="none"></path></g></g><mask></mask><g stroke-linecap="round"><g transform="translate(407.47265091668305 115.92481857958774) rotate(0 3.169698809970214 7.531399534411321)"><path d="M0.91 1.04 C1.46 4.79, 5.11 10.93, 6.6 15.15 M0.37 -0.16 C2.82 4.77, 4.22 10.12, 7.08 14.95" stroke="#1e1e1e" stroke-width="2" fill="none"></path></g></g><mask></mask><g stroke-linecap="round"><g transform="translate(423.4766730506781 124.09128272390444) rotate(0 1.76861919680141 5.175804898158276)"><path d="M0.26 0.57 C1.16 4.3, 2.94 6.64, 4.4 11.05 M-0.5 0.38 C1.71 3.12, 2.01 7.14, 4.07 9.86" stroke="#1e1e1e" stroke-width="2" fill="none"></path></g></g><mask></mask><g stroke-linecap="round"><g transform="translate(73.36257862066122 10.850854418644303) rotate(0 41.00474092888089 22.768789919410665)"><path d="M-0.21 -0.63 C9.89 6.78, 47.94 37.34, 61.75 45.17 C75.56 53.01, 79.37 46.12, 82.66 46.38 M-1.78 1.65 C8.15 8.64, 47.27 36.2, 61.28 43.34 C75.28 50.48, 78.86 44.23, 82.23 44.48" stroke="#1e1e1e" stroke-width="4" fill="none"></path></g></g><mask></mask><g stroke-linecap="round"><g transform="translate(150.32697246760108 57.722120171685674) rotate(0 19.05868042365455 7.4635118122760105)"><path d="M0.7 -0.88 C2.52 -1.32, 4.73 -4.68, 10.87 -1.9 C17 0.87, 32.9 12.6, 37.5 15.78 M-0.39 1.28 C1.29 0.98, 3.88 -2.83, 10.02 -0.29 C16.15 2.24, 31.59 13.37, 36.41 16.48" stroke="#1e1e1e" stroke-width="4" fill="none"></path></g></g><mask></mask><g stroke-linecap="round"><g transform="translate(186.2137112057244 73.63828025728071) rotate(0 39.04875158188452 27.795520334467255)"><path d="M0.28 -1.11 C13.34 8.07, 65.15 46.01, 78.06 55.34 M-1.03 0.92 C11.9 10.26, 64.12 47.61, 77.09 56.74" stroke="#1e1e1e" stroke-width="4" fill="none"></path></g></g><mask></mask><g stroke-linecap="round"><g transform="translate(263.8592728789672 130.07279588625897) rotate(0 1.59913455620881 19.368042069900184)"><path d="M-0.51 0.35 C0.03 1.86, 2.85 2.32, 3.28 8.74 C3.71 15.15, 2.22 33.92, 2.06 38.86 M0.22 0.05 C0.71 1.43, 2.64 1.3, 2.9 7.88 C3.15 14.46, 1.8 34.39, 1.75 39.52" stroke="#1e1e1e" stroke-width="4" fill="none"></path></g></g><mask></mask><g stroke-linecap="round"><g transform="translate(265.84266956882857 168.76525201088225) rotate(0 -25.513998874244862 24.054697700006727)"><path d="M0.92 0.55 C-0.06 2.77, 2.07 4.41, -6.58 12.51 C-15.22 20.6, -43.6 43.06, -50.95 49.12 M-0.06 -0.21 C-1.06 1.75, 1.52 2.87, -7.08 10.79 C-15.68 18.71, -44.49 41.33, -51.67 47.3" stroke="#1e1e1e" stroke-width="4" fill="none"></path></g></g><mask></mask><g stroke-linecap="round"><g transform="translate(214.0685208941468 217.039091468092) rotate(0 -13.288086621844286 -3.410815853011627)"><path d="M-0.51 -0.1 C-1.99 0.31, -4.93 4.29, -9.34 2.7 C-13.74 1.12, -24.02 -7.68, -26.93 -9.59 M0.23 -0.63 C-1.29 -0.4, -5.46 3.28, -9.8 1.86 C-14.14 0.44, -22.96 -7.23, -25.8 -9.15" stroke="#1e1e1e" stroke-width="4" fill="none"></path></g></g><mask></mask><g stroke-linecap="round"><g transform="translate(194.54486409522906 214.77622162145417) rotate(0 -91.54115360660217 -71.5958838704255)"><path d="M3.18 -0.8 C-59.34 -40.54, -112.42 -86.5, -181.44 -140.63 M-0.58 -1.16 C-42.07 -36.73, -90.17 -70.7, -181.44 -142.45" stroke="#1e1e1e" stroke-width="4" fill="none"></path></g></g><mask></mask><g stroke-linecap="round"><g transform="translate(24.21255388984264 81.46264109220465) rotate(0 -6.6097971145195515 -16.66191564921519)"><path d="M0.39 -0.41 C-1.77 -2.31, -10.97 -6.11, -13.19 -11.68 C-15.41 -17.26, -13.11 -30.2, -12.93 -33.85 M-0.07 0.56 C-2.28 -1.26, -11.65 -5.57, -13.61 -11.25 C-15.57 -16.93, -12.15 -29.87, -11.84 -33.53" stroke="#1e1e1e" stroke-width="4" fill="none"></path></g></g><mask></mask><g stroke-linecap="round"><g transform="translate(11.715204227758477 48.19809346514012) rotate(0 12.196240246674733 -11.469251307615195)"><path d="M-1.05 0.96 C-0.65 -0.6, -1.13 -4.69, 3.07 -8.56 C7.28 -12.42, 20.47 -19.76, 24.17 -22.21 M0.6 0.41 C0.79 -1.56, -1.63 -6.19, 2.15 -10.29 C5.93 -14.38, 19.32 -22.17, 23.29 -24.17" stroke="#1e1e1e" stroke-width="4" fill="none"></path></g></g><mask></mask><g stroke-linecap="round"><g transform="translate(35.85099253581575 25.52667295698484) rotate(0 18.9664966337632 -7.086232243746053)"><path d="M-0.46 -0.32 C3.58 -2.82, 17.68 -12.34, 24.16 -14.63 C30.64 -16.92, 36.16 -14.1, 38.41 -14.07 M0.3 0.7 C4.54 -1.77, 18.91 -11.79, 25.24 -14.17 C31.58 -16.54, 36.24 -13.55, 38.31 -13.55" stroke="#1e1e1e" stroke-width="4" fill="none"></path></g></g><mask></mask><g stroke-linecap="round"><g transform="translate(12.888654217670592 49.70402095218378) rotate(0 36.41850937430081 29.181012092793026)"><path d="M0 0 C20.79 18.12, 42.93 36.11, 72.84 58.36 M0 0 C18.34 14.28, 36.1 28.21, 72.84 58.36" stroke="#1e1e1e" stroke-width="4" fill="none"></path></g></g><mask></mask><g stroke-linecap="round"><g transform="translate(86.50919530328338 107.43653811193326) rotate(0 54.51958664050562 29.22226619400317)"><path d="M0 0 C4.4 -0.45, 10.49 -3.24, 16.95 -6.44 M0 0 C6.19 -2.04, 12.12 -4.9, 16.95 -6.44 M16.95 -6.44 C49.56 19.81, 77.99 43.79, 109.04 64.89 M16.95 -6.44 C49 18.4, 81.91 42.32, 109.04 64.89" stroke="#1e1e1e" stroke-width="4" fill="none"></path></g></g><mask></mask><g stroke-linecap="round"><g transform="translate(195.36012764841416 172.65041012922302) rotate(0 12.282109894373662 3.3541112211541986)"><path d="M0.53 0.39 C2.35 1.46, 7.44 6.66, 11.41 6.85 C15.38 7.04, 22.13 2.37, 24.33 1.51 M0.14 0.12 C1.87 0.98, 7.15 5.62, 11.11 5.96 C15.06 6.29, 21.59 3.01, 23.87 2.13" stroke="#1e1e1e" stroke-width="4" fill="none"></path></g></g><mask></mask><g stroke-linecap="round"><g transform="translate(220.25988079365106 173.96076261795315) rotate(0 21.735105203702915 -15.980616464128616)"><path d="M-0.93 0.31 C6.03 -4.99, 35.43 -25.36, 42.76 -30.91 M0.78 -0.57 C8.05 -6.26, 38.22 -27.21, 45.11 -32.48" stroke="#1e1e1e" stroke-width="4" fill="none"></path></g></g><mask></mask><g stroke-linecap="round"><g transform="translate(17.037288869489203 39.414942525041624) rotate(0 35.89259598038598 28.09159823497521)"><path d="M0 0 C23.36 16.2, 47.44 35.54, 71.79 56.18 M0 0 C28.16 22.16, 54.07 42.01, 71.79 56.18" stroke="#1e1e1e" stroke-width="4" fill="none"></path></g></g><mask></mask><g stroke-linecap="round"><g transform="translate(89.35358918506881 96.60718375193937) rotate(0 57.58278005166403 31.16243129450504)"><path d="M0 0 C4.63 0.21, 9.04 -0.66, 17.58 -5.85 M0 0 C6.88 -2.45, 11.89 -4.57, 17.58 -5.85 M17.58 -5.85 C38.81 11.01, 63.66 29.86, 115.17 68.17 M17.58 -5.85 C45.77 15.02, 75.44 36.56, 115.17 68.17" stroke="#1e1e1e" stroke-width="4" fill="none"></path></g></g><mask></mask><g stroke-linecap="round"><g transform="translate(195.74333241074328 159.3372532905887) rotate(0 18.03996007923206 2.969378529151072)"><path d="M-0.36 0.04 C2.38 1.55, 10.37 9.6, 16.47 9.15 C22.57 8.7, 32.91 -0.73, 36.24 -2.69 M0.45 -0.42 C3.15 0.92, 10.29 8.82, 16.21 8.29 C22.13 7.76, 32.55 -1.62, 35.97 -3.6" stroke="#1e1e1e" stroke-width="4" fill="none"></path></g></g><mask></mask><g stroke-linecap="round"><g transform="translate(223.85784959083412 162.0282430330717) rotate(0 19.259553545305607 -15.345608891465417)"><path d="M0 0 C10.48 -8.01, 22.51 -17.7, 38.52 -30.69 M0 0 C13.42 -10.47, 27.37 -21.84, 38.52 -30.69" stroke="#1e1e1e" stroke-width="4" fill="none"></path></g></g><mask></mask><g stroke-linecap="round"><g transform="translate(106.37377201992422 90.91342307882405) rotate(0 24.34718509286222 -16.696002738496645)"><path d="M0 0 C17.11 -11.59, 34.3 -23.65, 48.69 -33.39 M0 0 C18.07 -12.42, 35.88 -24.42, 48.69 -33.39" stroke="#1e1e1e" stroke-width="4" fill="none"></path></g></g><mask></mask><g stroke-linecap="round"><g transform="translate(53.07014346057713 47.142630078269576) rotate(0 10.530750538280245 -6.0636211872415515)"><path d="M0.21 0.13 C0.84 -1.23, 0.82 -6.45, 4.21 -8.58 C7.59 -10.71, 17.74 -12, 20.51 -12.64 M-0.34 -0.28 C0.18 -1.55, 0.18 -6.13, 3.83 -8.13 C7.48 -10.13, 18.71 -11.65, 21.55 -12.31" stroke="#1e1e1e" stroke-width="2" fill="none"></path></g></g><mask></mask><g stroke-linecap="round"><g transform="translate(43.50755337191822 47.49772449631564) rotate(0 15.78480241974512 -8.888118542950906)"><path d="M0.64 -0.47 C2 -2.71, 2.4 -11.53, 7.47 -14.61 C12.53 -17.69, 26.95 -18.37, 31 -18.93 M-0.48 -1.77 C1.29 -3.79, 4.53 -10.84, 9.6 -13.58 C14.67 -16.32, 26.19 -17.66, 29.94 -18.22" stroke="#1e1e1e" stroke-width="2" fill="none"></path></g></g><mask></mask><g stroke-linecap="round"><g transform="translate(36.18268410904511 46.44443577794664) rotate(0 19.441304204476637 -11.752829798818311)"><path d="M0.66 0.19 C1.85 -2.71, 3.59 -13.02, 6.73 -16.99 C9.88 -20.95, 14.02 -22.41, 19.53 -23.59 C25.04 -24.76, 36.46 -24.3, 39.8 -24.03 M-0.46 -0.76 C1.15 -3.58, 5.3 -12.35, 9.05 -15.95 C12.8 -19.54, 16.79 -21.05, 22.04 -22.31 C27.28 -23.57, 37.79 -23.72, 40.52 -23.51" stroke="#1e1e1e" stroke-width="2" fill="none"></path></g></g><mask></mask><g stroke-linecap="round" transform="translate(137.27540524106462 74.74467425673902) rotate(0 10.56884156934575 6.555098748054661)"><path d="M9.95 0.1 C12.09 0.09, 15.11 0.96, 16.9 1.74 C18.69 2.51, 20.23 3.44, 20.7 4.77 C21.17 6.09, 20.73 8.36, 19.72 9.7 C18.71 11.04, 16.63 12.24, 14.62 12.8 C12.62 13.35, 9.76 13.55, 7.68 13.04 C5.61 12.54, 3.4 10.99, 2.15 9.77 C0.91 8.54, 0.03 6.93, 0.22 5.67 C0.41 4.42, 1.54 3.23, 3.29 2.23 C5.04 1.22, 9.39 0.04, 10.74 -0.35 C12.1 -0.74, 11.38 -0.26, 11.42 -0.12 M11.5 0.15 C13.74 0.29, 17.15 1.29, 18.63 2.36 C20.1 3.43, 20.16 5.19, 20.36 6.55 C20.57 7.91, 21.07 9.5, 19.85 10.5 C18.64 11.49, 15.31 12.32, 13.07 12.53 C10.83 12.75, 8.28 12.28, 6.38 11.79 C4.49 11.29, 2.62 10.6, 1.69 9.55 C0.77 8.5, 0.38 6.96, 0.82 5.49 C1.26 4.01, 2.58 1.52, 4.34 0.72 C6.1 -0.08, 10.28 0.83, 11.38 0.68 C12.48 0.53, 10.99 -0.17, 10.92 -0.18" stroke="#1e1e1e" stroke-width="4" fill="none"></path></g><g stroke-linecap="round" transform="translate(169.84830702172076 99.6233705674822) rotate(0 10.56884156934575 6.555098748054661)"><path d="M12.96 0.04 C14.99 0.2, 17.02 1.66, 18.43 2.7 C19.85 3.73, 21.46 4.91, 21.45 6.25 C21.45 7.6, 20.01 9.62, 18.39 10.77 C16.77 11.93, 13.97 12.95, 11.74 13.17 C9.51 13.38, 6.81 12.88, 5.02 12.08 C3.22 11.27, 1.72 9.73, 0.96 8.33 C0.21 6.94, -0.23 4.91, 0.47 3.69 C1.18 2.48, 3.01 1.58, 5.18 1.05 C7.34 0.52, 12.09 0.65, 13.47 0.5 C14.86 0.35, 13.56 0.05, 13.48 0.15 M8.8 0.17 C10.97 -0.01, 14.53 0.72, 16.45 1.4 C18.38 2.08, 19.74 3.06, 20.35 4.25 C20.95 5.43, 20.72 7.16, 20.08 8.51 C19.44 9.85, 18.39 11.65, 16.51 12.3 C14.62 12.95, 11.15 12.74, 8.75 12.4 C6.35 12.06, 3.49 11.16, 2.11 10.25 C0.73 9.34, 0.5 8.31, 0.46 6.94 C0.41 5.58, 0.52 3.3, 1.83 2.06 C3.14 0.82, 7.13 -0.29, 8.33 -0.5 C9.52 -0.72, 8.81 0.62, 9.01 0.77" stroke="#1e1e1e" stroke-width="4" fill="none"></path></g><g stroke-linecap="round"><g transform="translate(199.01519986223047 176.52260940772612) rotate(0 -0.4575248893538628 18.461837657302567)"><path d="M0 0 C-0.6 12.61, -1.49 26.41, -0.92 36.92 M0 0 C0.1 9.63, -0.42 20.21, -0.92 36.92" stroke="#1e1e1e" stroke-width="4" fill="none"></path></g></g><mask></mask><g stroke-linecap="round"><g transform="translate(216.11641001952466 178.10128554118455) rotate(0 -0.4575248893538628 18.461837657302567)"><path d="M0 0 C-0.29 15.24, -1.52 28.53, -0.92 36.92 M0 0 C0.09 7.69, -0.04 16.45, -0.92 36.92" stroke="#1e1e1e" stroke-width="4" fill="none"></path></g></g><mask></mask><g stroke-linecap="round" transform="translate(207.87482833180547 123.76765973850888) rotate(0 6.961619303990574 5.361833177344124)"><path d="M8.46 -0.1 C9.82 0.09, 11.67 1.19, 12.61 2.11 C13.54 3.04, 14.1 4.25, 14.07 5.46 C14.04 6.67, 13.51 8.5, 12.42 9.35 C11.34 10.2, 9.09 10.53, 7.57 10.56 C6.06 10.6, 4.52 10.09, 3.33 9.55 C2.14 9, 0.91 8.27, 0.45 7.3 C-0.01 6.33, 0.06 4.85, 0.59 3.72 C1.11 2.59, 2.23 1.14, 3.61 0.52 C4.99 -0.11, 7.94 0.07, 8.86 -0.04 C9.78 -0.15, 9.19 -0.23, 9.15 -0.16 M6.74 -0.63 C8 -0.78, 9.88 -0.25, 11.14 0.72 C12.41 1.69, 13.96 3.99, 14.33 5.2 C14.69 6.41, 14.29 7.08, 13.33 7.98 C12.36 8.88, 10.04 10.31, 8.54 10.6 C7.04 10.9, 5.5 10.16, 4.31 9.76 C3.12 9.36, 2.16 9.13, 1.4 8.21 C0.64 7.29, -0.51 5.35, -0.24 4.24 C0.04 3.14, 1.8 2.36, 3.04 1.58 C4.29 0.79, 6.64 -0.22, 7.22 -0.48 C7.8 -0.74, 6.46 -0.15, 6.54 0" stroke="#1e1e1e" stroke-width="2" fill="none"></path></g><g stroke-linecap="round"><g transform="translate(207.43198364470572 128.55635417020312) rotate(0 7.618518515852884 3.919679594749141)"><path d="M-0.46 0.22 C-0.01 1.43, 0.48 6.32, 2.63 7.61 C4.77 8.91, 10.33 8.76, 12.41 7.97 C14.49 7.19, 14.57 3.73, 15.11 2.89 M0.31 -0.15 C0.7 1.12, 0.25 6.76, 2.23 8.22 C4.22 9.69, 10.06 9.7, 12.21 8.64 C14.37 7.58, 14.65 2.76, 15.16 1.86" stroke="#1e1e1e" stroke-width="2" fill="none"></path></g></g><mask></mask><g stroke-linecap="round"><g transform="translate(246.5307126248108 162.80674349743276) rotate(0 -10.869110645341152 17.090469886622486)"><path d="M0 0 C-0.2 7.68, -1.41 14.4, -0.83 19.78 M0 0 C-0.33 6.55, -0.02 13.4, -0.83 19.78 M-0.83 19.78 C-6.48 22.53, -11.68 27.07, -21.74 34.18 M-0.83 19.78 C-5.22 23.28, -10.1 26.28, -21.74 34.18" stroke="#1e1e1e" stroke-width="2" fill="none"></path></g></g><mask></mask><g stroke-linecap="round"><g transform="translate(245.69988276136974 162.3902324840983) rotate(0 -12.60519320451931 17.229876921440336)"><path d="M0 0 C-3.93 3.11, -8.36 7.32, -18.33 15.34 M0 0 C-6.36 4.89, -12.31 10.76, -18.33 15.34 M-18.33 15.34 C-21.07 18.52, -23.51 21.03, -25.21 22.71 M-18.33 15.34 C-20.42 17.51, -22.28 19.87, -25.21 22.71 M-25.21 22.71 C-25.01 26.43, -25 29.54, -24.98 32.51 M-25.21 22.71 C-25 25.21, -24.92 27.48, -24.98 32.51 M-24.98 32.51 C-23.75 32.95, -22.62 33.77, -20.77 34.46 M-24.98 32.51 C-23.82 33.1, -22.51 33.59, -20.77 34.46" stroke="#1e1e1e" stroke-width="2" fill="none"></path></g></g><mask></mask><g stroke-linecap="round"><g transform="translate(243.88054867720257 182.1976692183598) rotate(0 -6.57160252042695 -3.2594170012234827)"><path d="M0 0 C-4.96 -2.56, -10.2 -5.21, -13.14 -6.52 M0 0 C-5.4 -2.31, -9.77 -4.84, -13.14 -6.52" stroke="#1e1e1e" stroke-width="2" fill="none"></path></g></g><mask></mask><g stroke-linecap="round"><g transform="translate(252.43086472619962 163.57380587780244) rotate(0 3.24728945675497 1.5203008365888309)"><path d="M0.3 0.1 C1.3 -0.62, 5.24 -5, 6.38 -4.45 C7.53 -3.91, 8.35 1.21, 7.17 3.36 C5.99 5.51, 0.46 9.17, -0.71 8.45 C-1.88 7.72, 0.11 0.49, 0.16 -0.98 M-0.2 -0.32 C0.93 -1.17, 6.17 -5.64, 7.38 -5.16 C8.58 -4.68, 8.4 0.45, 7.04 2.56 C5.68 4.68, 0.45 8.09, -0.78 7.52 C-2.02 6.95, -0.5 0.5, -0.36 -0.86" stroke="#1e1e1e" stroke-width="2" fill="none"></path></g></g><mask></mask></svg>