<svg version="1.1" xmlns="http://www.w3.org/2000/svg" viewBox="0 0 219.54493050460678 106.22198737361578" width="219.54493050460678" height="106.22198737361578" filter="invert(93%) hue-rotate(180deg)"><!-- svg-source:excalidraw --><metadata></metadata><defs><style class="style-fonts">
      </style></defs><g stroke-linecap="round"><g transform="translate(47.957330608802295 70.69627281087014) rotate(0 18.668229057373537 0.24734269996133662)"><path d="M-0.27 0.91 C-0.18 0.58, -0.69 -2.05, 0.18 -2.63 C1.06 -3.22, 4.22 -2.31, 4.99 -2.59 C5.76 -2.86, 4.43 -4.09, 4.82 -4.27 C5.22 -4.45, 6.59 -3.32, 7.37 -3.66 C8.15 -4.01, 8.6 -6.31, 9.5 -6.37 C10.4 -6.43, 12.26 -3.82, 12.77 -4.02 C13.28 -4.23, 11.98 -7.32, 12.57 -7.59 C13.15 -7.87, 15.18 -5.62, 16.27 -5.65 C17.37 -5.68, 18.6 -8.09, 19.13 -7.78 C19.66 -7.47, 18.64 -4.14, 19.43 -3.79 C20.21 -3.43, 23.03 -6.04, 23.84 -5.64 C24.66 -5.24, 23.54 -1.55, 24.31 -1.39 C25.08 -1.22, 27.66 -4.86, 28.48 -4.65 C29.3 -4.45, 28.75 -0.97, 29.24 -0.15 C29.73 0.67, 31.16 -0.22, 31.41 0.25 C31.65 0.72, 30.35 2.18, 30.69 2.66 C31.03 3.15, 32.66 2.64, 33.43 3.17 C34.19 3.71, 34.62 4.9, 35.26 5.87 C35.9 6.84, 37.04 8.56, 37.28 8.98 M1.79 0.34 C1.74 -0.25, -1.35 -3.87, -0.86 -4.2 C-0.36 -4.52, 3.73 -1.26, 4.75 -1.6 C5.77 -1.95, 5.08 -6.02, 5.27 -6.28 C5.45 -6.53, 4.92 -2.98, 5.86 -3.11 C6.8 -3.24, 10.18 -6.74, 10.9 -7.05 C11.63 -7.35, 9.62 -4.83, 10.24 -4.96 C10.86 -5.1, 13.32 -8.08, 14.63 -7.85 C15.95 -7.62, 17.24 -3.5, 18.12 -3.6 C19.01 -3.7, 19.77 -8.03, 19.95 -8.43 C20.14 -8.83, 18.75 -6.42, 19.24 -5.99 C19.72 -5.56, 21.98 -6.59, 22.86 -5.86 C23.74 -5.13, 23.62 -1.7, 24.53 -1.62 C25.44 -1.54, 28 -5.49, 28.32 -5.37 C28.65 -5.25, 25.8 -2.08, 26.48 -0.91 C27.16 0.27, 31.34 0.97, 32.39 1.68 C33.44 2.39, 32.27 3.08, 32.77 3.36 C33.27 3.65, 35.11 3.02, 35.39 3.38 C35.68 3.75, 34.1 4.87, 34.49 5.57 C34.88 6.27, 36.99 7.29, 37.73 7.59" stroke="#e8590c" stroke-width="1" fill="none"></path></g></g><mask></mask><g stroke-linecap="round"><g transform="translate(48.217668772173056 70.7756398350466) rotate(0 -8.93345037698873 12.192455927756782)"><path d="M-0.18 1.07 C-0.5 0.71, -1.89 -1.67, -2.21 -1.21 C-2.53 -0.74, -1.41 3.09, -2.08 3.86 C-2.75 4.63, -5.77 2.87, -6.24 3.43 C-6.72 3.99, -4.77 6.4, -4.92 7.22 C-5.08 8.05, -6.66 7.75, -7.16 8.38 C-7.67 9.02, -7.36 10.85, -7.97 11.02 C-8.58 11.19, -10.68 10.28, -10.85 9.39 C-11.02 8.5, -9.02 6.63, -8.99 5.67 C-8.96 4.7, -10.04 4.59, -10.67 3.58 C-11.3 2.57, -12.45 -0.98, -12.77 -0.42 C-13.09 0.15, -12.38 6.58, -12.6 6.97 C-12.81 7.36, -13.69 3.03, -14.05 1.93 C-14.41 0.83, -14.12 0.21, -14.77 0.38 C-15.42 0.56, -17.36 2.1, -17.96 2.98 C-18.56 3.85, -19.04 4.61, -18.37 5.64 C-17.7 6.66, -15.59 8.07, -13.91 9.13 C-12.24 10.19, -8.81 10.71, -8.3 11.99 C-7.79 13.28, -11.79 14.6, -10.87 16.83 C-9.94 19.05, -3.4 25.56, -2.74 25.36 C-2.08 25.17, -6.21 17.17, -6.91 15.66 M-1.74 0.58 C-2.11 0.3, -2.48 -0.25, -2.63 0 C-2.78 0.25, -2.08 1.29, -2.65 2.07 C-3.22 2.85, -5.41 3.71, -6.03 4.69 C-6.66 5.68, -5.92 7.47, -6.4 7.98 C-6.88 8.49, -8.68 7.45, -8.93 7.75 C-9.18 8.05, -7.38 9.58, -7.9 9.76 C-8.41 9.94, -11.56 9.16, -12.01 8.82 C-12.46 8.48, -10.87 8.61, -10.61 7.74 C-10.34 6.87, -10.18 4.76, -10.42 3.6 C-10.65 2.43, -11.42 0.18, -12.02 0.77 C-12.62 1.36, -13.81 6.56, -14.02 7.14 C-14.23 7.72, -13.12 5.43, -13.27 4.24 C-13.42 3.04, -14.17 0.26, -14.9 -0.01 C-15.64 -0.29, -17.22 1.46, -17.68 2.6 C-18.14 3.74, -18.62 5.65, -17.66 6.84 C-16.7 8.03, -13.37 8.9, -11.92 9.72 C-10.47 10.55, -8.91 10.51, -8.97 11.8 C-9.03 13.09, -13.35 15.49, -12.29 17.47 C-11.23 19.44, -3.4 24.18, -2.6 23.67 C-1.81 23.16, -6.91 15.82, -7.51 14.41" stroke="#e8590c" stroke-width="1" fill="none"></path></g></g><mask></mask><g stroke-linecap="round"><g transform="translate(40.59933272109993 87.04547016711149) rotate(0 26.37164764762838 -4.536644543138209)"><path d="M1 -0.63 C1.4 -0.9, 1.54 -0.82, 2.22 -0.53 C2.89 -0.24, 2.85 0.34, 5.07 1.1 C7.3 1.86, 12.55 3.45, 15.58 4.04 C18.61 4.62, 21.03 4.76, 23.26 4.6 C25.5 4.45, 26.78 3.71, 29 3.12 C31.22 2.53, 34.45 1.85, 36.58 1.06 C38.7 0.27, 40.71 -1.54, 41.75 -1.61 C42.8 -1.69, 42.88 -1.19, 42.87 0.6 C42.86 2.4, 40.97 9.28, 41.7 9.18 C42.44 9.08, 46.64 2.31, 47.29 0.01 C47.94 -2.3, 45.34 -3.45, 45.6 -4.67 C45.86 -5.89, 47.79 -6.43, 48.85 -7.3 C49.91 -8.16, 51.42 -8.84, 51.96 -9.87 C52.51 -10.9, 52.18 -12.23, 52.12 -13.46 C52.06 -14.69, 51.76 -17.18, 51.59 -17.23 C51.41 -17.27, 51.67 -14.74, 51.07 -13.73 C50.47 -12.71, 48.48 -10.49, 47.99 -11.16 C47.49 -11.82, 48.34 -16.92, 48.1 -17.69 C47.86 -18.46, 47.09 -16.7, 46.53 -15.75 C45.97 -14.8, 44.96 -13.05, 44.76 -11.98 C44.56 -10.91, 45.37 -10.4, 45.34 -9.33 C45.31 -8.26, 44.79 -6.25, 44.6 -5.56 C44.4 -4.87, 44.53 -5.39, 44.18 -5.2 C43.83 -5, 42.45 -3.82, 42.5 -4.4 C42.54 -4.98, 43.96 -7.9, 44.43 -8.68 M0.07 1.65 C0.36 1.59, 0.76 -2.25, 1.46 -2.1 C2.16 -1.94, 1.88 1.92, 4.27 2.58 C6.66 3.24, 12.82 1.37, 15.82 1.85 C18.82 2.32, 19.94 5.35, 22.28 5.4 C24.61 5.46, 27.37 2.54, 29.84 2.17 C32.31 1.79, 35.26 3.87, 37.08 3.15 C38.91 2.43, 39.57 -1.58, 40.78 -2.16 C41.99 -2.73, 44.61 -2.16, 44.35 -0.31 C44.09 1.54, 38.7 9.22, 39.24 8.93 C39.78 8.63, 46.68 -0.27, 47.6 -2.08 C48.51 -3.89, 45.01 -0.92, 44.74 -1.96 C44.47 -3, 44.91 -7, 45.99 -8.32 C47.07 -9.64, 50.19 -8.93, 51.21 -9.88 C52.23 -10.84, 51.95 -13.02, 52.12 -14.06 C52.29 -15.11, 52.49 -16.22, 52.21 -16.13 C51.93 -16.05, 51.35 -14.49, 50.43 -13.54 C49.51 -12.58, 46.74 -9.77, 46.67 -10.4 C46.6 -11.04, 50.5 -16.76, 50.03 -17.34 C49.56 -17.93, 44.83 -14.67, 43.84 -13.93 C42.86 -13.19, 43.81 -14, 44.13 -12.89 C44.44 -11.77, 45.71 -8.41, 45.71 -7.24 C45.72 -6.07, 44.69 -6.06, 44.17 -5.88 C43.64 -5.7, 42.58 -6.56, 42.55 -6.17 C42.51 -5.79, 43.44 -3.09, 43.95 -3.59 C44.47 -4.08, 45.71 -8.67, 45.66 -9.15" stroke="#e8590c" stroke-width="1" fill="none"></path></g></g><mask></mask><g stroke-linecap="round" transform="translate(56.214257537270896 79.51772404990334) rotate(0 2.6275836654831437 3.044594150946068)"><path d="M2.79 0.26 C3.35 0.16, 4.1 0.03, 4.51 0.39 C4.92 0.75, 5.21 1.72, 5.26 2.41 C5.3 3.11, 5.1 4.03, 4.8 4.57 C4.49 5.1, 3.91 5.36, 3.44 5.63 C2.98 5.89, 2.5 6.31, 2 6.14 C1.51 5.97, 0.75 5.14, 0.47 4.59 C0.2 4.04, 0.32 3.43, 0.35 2.84 C0.38 2.24, 0.27 1.51, 0.64 1.03 C1.01 0.56, 2.2 0.16, 2.57 -0.03 C2.94 -0.22, 2.84 -0.13, 2.85 -0.11 M2.49 0.31 C2.9 0.33, 3.44 0.36, 3.96 0.7 C4.47 1.04, 5.35 1.68, 5.58 2.34 C5.81 3, 5.63 4.12, 5.32 4.67 C5 5.23, 4.33 5.4, 3.7 5.68 C3.06 5.97, 2 6.56, 1.51 6.38 C1.01 6.2, 1 5.16, 0.73 4.6 C0.45 4.05, -0.16 3.73, -0.13 3.05 C-0.1 2.38, 0.4 1.13, 0.91 0.55 C1.42 -0.03, 2.61 -0.31, 2.94 -0.42 C3.26 -0.54, 2.95 -0.21, 2.86 -0.15" stroke="#e8590c" stroke-width="1" fill="none"></path></g><g stroke-linecap="round" transform="translate(65.4882366483107 79.70579052853282) rotate(0 2.7396216757406364 3.044594150946068)"><path d="M2.95 -0.3 C3.48 -0.4, 4.15 0.16, 4.54 0.64 C4.94 1.11, 5.24 1.93, 5.32 2.54 C5.39 3.15, 5.24 3.7, 5.01 4.29 C4.78 4.89, 4.44 5.86, 3.93 6.13 C3.41 6.4, 2.45 6.11, 1.91 5.9 C1.37 5.69, 1.04 5.37, 0.68 4.86 C0.32 4.35, -0.27 3.52, -0.24 2.82 C-0.21 2.13, 0.35 1.19, 0.87 0.69 C1.39 0.19, 2.56 -0.03, 2.89 -0.17 C3.21 -0.31, 2.85 -0.29, 2.82 -0.15 M2.06 0.11 C2.68 -0.08, 3.95 0.04, 4.56 0.4 C5.16 0.76, 5.56 1.7, 5.7 2.29 C5.83 2.89, 5.69 3.34, 5.36 3.98 C5.03 4.63, 4.2 5.83, 3.72 6.16 C3.25 6.48, 3.06 6.09, 2.51 5.96 C1.96 5.82, 0.85 5.89, 0.44 5.35 C0.03 4.81, -0.06 3.51, 0.05 2.72 C0.17 1.93, 0.67 1.09, 1.11 0.6 C1.54 0.12, 2.49 -0.03, 2.67 -0.18 C2.85 -0.33, 2.26 -0.4, 2.19 -0.32" stroke="#e8590c" stroke-width="1" fill="none"></path></g><g stroke-linecap="round"><g transform="translate(61.775931087879144 87.20358260458306) rotate(0 2.043500018106897 0.6639984725152317)"><path d="M0 0.21 C0.76 0.2, 4.14 -0.15, 4.57 0.05 C5.01 0.25, 3.21 1.2, 2.6 1.42 C1.99 1.64, 1.38 1.67, 0.92 1.39 C0.46 1.1, 0.05 -0.08, -0.18 -0.3 M-0.43 0 C0.31 -0.11, 3.82 -0.76, 4.44 -0.46 C5.06 -0.15, 3.86 1.48, 3.28 1.83 C2.7 2.18, 1.6 1.99, 0.95 1.65 C0.31 1.3, -0.4 0.05, -0.6 -0.24" stroke="#e8590c" stroke-width="1" fill="none"></path></g></g><mask></mask><g stroke-linecap="round"><g transform="translate(58.4772301171688 80.36909802757145) rotate(0 -0.5998813370642893 1.2793517875179532)" fill-rule="evenodd"><path d="M-2.04 2.2 C-2.04 2.2, -2.04 2.2, -2.04 2.2 M-2.04 2.2 C-2.04 2.2, -2.04 2.2, -2.04 2.2 M-1.79 2.05 C-1.79 2.05, -1.79 2.05, -1.79 2.05 M-1.79 2.05 C-1.79 2.05, -1.79 2.05, -1.79 2.05" stroke="#fff4e6" stroke-width="0.5" fill="none"></path><path d="M0.27 0.23 C0.33 0.36, 0.43 0.65, 0.34 1.02 C0.25 1.38, 0.03 2.22, -0.26 2.43 C-0.55 2.64, -1.07 2.31, -1.39 2.28 C-1.7 2.25, -2.11 2.28, -2.15 2.25 M-0.01 0.04 C0.15 0.22, 1.06 1.04, 0.97 1.49 C0.89 1.95, -0.14 2.58, -0.52 2.75 C-0.9 2.93, -1.11 2.59, -1.3 2.55 C-1.49 2.5, -1.51 2.62, -1.65 2.5" stroke="#e8590c" stroke-width="1" fill="none"></path></g></g><mask></mask><g stroke-linecap="round"><g transform="translate(68.15951210922503 80.19535058945621) rotate(0 -0.5998813370642893 1.2793517875179532)" fill-rule="evenodd"><path d="M-2.04 2.2 C-2.04 2.2, -2.04 2.2, -2.04 2.2 M-2.04 2.2 C-2.04 2.2, -2.04 2.2, -2.04 2.2 M-1.79 2.05 C-1.79 2.05, -1.79 2.05, -1.79 2.05 M-1.79 2.05 C-1.79 2.05, -1.79 2.05, -1.79 2.05" stroke="#fff4e6" stroke-width="0.5" fill="none"></path><path d="M-0.32 0.05 C-0.27 0.15, 0.56 0.44, 0.58 0.84 C0.61 1.24, 0.23 2.14, -0.15 2.45 C-0.53 2.75, -1.46 2.72, -1.71 2.66 C-1.95 2.6, -1.59 2.16, -1.62 2.1 M0.16 -0.23 C0.14 -0.1, 0.35 0.73, 0.27 1.23 C0.18 1.73, -0.02 2.64, -0.36 2.77 C-0.7 2.91, -1.52 2.13, -1.78 2.04 C-2.04 1.96, -1.98 2.25, -1.93 2.28" stroke="#e8590c" stroke-width="1" fill="none"></path></g></g><mask></mask><g stroke-linecap="round" transform="translate(151.03943982452984 70.02403965913254) rotate(0 23.55161724651407 10.892765277667422)"><path d="M5.45 0 C16.48 -1.09, 30.35 -1.21, 41.66 0 M5.45 0 C20.83 -0.12, 33.67 0.77, 41.66 0 M41.66 0 C45.58 1.53, 47.75 -0.01, 47.1 5.45 M41.66 0 C46.01 1.68, 45.53 1.46, 47.1 5.45 M47.1 5.45 C47.94 8.05, 47.02 11.25, 47.1 16.34 M47.1 5.45 C46.8 7.57, 47.62 10.23, 47.1 16.34 M47.1 16.34 C45.55 18.9, 44.12 21.63, 41.66 21.79 M47.1 16.34 C47.37 19.84, 45.57 20.65, 41.66 21.79 M41.66 21.79 C32.66 20.21, 23.2 22.09, 5.45 21.79 M41.66 21.79 C32.08 21.9, 23.04 21.94, 5.45 21.79 M5.45 21.79 C1.91 21.17, -1.37 21.61, 0 16.34 M5.45 21.79 C0.51 23.08, -0.91 21.05, 0 16.34 M0 16.34 C-0.79 13.31, 0.87 10.57, 0 5.45 M0 16.34 C-0.08 13.82, -0.08 10.46, 0 5.45 M0 5.45 C1.06 1.93, 2.17 1.89, 5.45 0 M0 5.45 C0.65 2.36, 2.32 -0.56, 5.45 0" stroke="#6741d9" stroke-width="1" fill="none"></path></g><g stroke-linecap="round"><g transform="translate(150.75759458781522 88.28700817708523) rotate(0 23.830106823180813 3.2449859647276753)"><path d="M-0.92 0.95 C-2.65 1.75, -12.78 2.69, -9.18 3.64 C-5.59 4.6, 9.62 6.83, 20.63 6.7 C31.65 6.57, 52.49 4.25, 56.9 2.86 C61.3 1.48, 48.62 -1.08, 47.06 -1.6 M0.79 0.4 C-0.66 0.95, -10.08 0.65, -6.93 1.88 C-3.78 3.11, 8.91 7.45, 19.67 7.79 C30.43 8.12, 52.74 5.45, 57.63 3.87 C62.52 2.29, 50.44 -0.87, 49 -1.71" stroke="#343a40" stroke-width="1" fill="none"></path></g></g><mask></mask><g stroke-linecap="round"><g transform="translate(172.08167737055646 57.399416203399596) rotate(0 0.22340750111152374 5.51610352778971)"><path d="M0.47 -0.05 C0.51 1.73, 0.4 9.04, 0.34 10.88 M0.04 -0.56 C-0.01 1.29, -0.35 9.48, -0.15 11.49" stroke="#1e1e1e" stroke-width="1" fill="none"></path></g></g><mask></mask><g stroke-linecap="round"><g transform="translate(150.25893026960057 75.37024932185159) rotate(0 25.035324316152582 -2.19515055219199)"><path d="M0.53 -1.06 C1.33 -0.48, 2.26 2.79, 4.17 2.71 C6.09 2.64, 8.78 -1.69, 12.02 -1.53 C15.27 -1.37, 19.86 3.66, 23.63 3.65 C27.41 3.64, 30.74 -1.39, 34.69 -1.59 C38.64 -1.79, 44.96 3.02, 47.35 2.45 C49.73 1.87, 51.08 -3.22, 49.01 -5.03 C46.95 -6.84, 42.59 -8.27, 34.94 -8.43 C27.3 -8.6, 9.11 -7.27, 3.13 -6.04 C-2.84 -4.8, -0.46 -1.93, -0.9 -1.03 M-0.65 1 C0.07 1.86, 1.35 4.99, 3.39 4.27 C5.43 3.55, 8.11 -2.84, 11.6 -3.3 C15.08 -3.77, 20.71 1.07, 24.31 1.48 C27.9 1.89, 29.67 -0.85, 33.17 -0.86 C36.68 -0.87, 42.69 2.26, 45.35 1.44 C48 0.62, 50.5 -4.57, 49.1 -5.76 C47.71 -6.95, 44.4 -5.48, 36.98 -5.7 C29.55 -5.93, 10.83 -8.36, 4.57 -7.13 C-1.7 -5.91, -0.03 0.45, -0.61 1.64" stroke="#c2255c" stroke-width="1" fill="none"></path></g></g><mask></mask><g stroke-linecap="round"><g transform="translate(174.96773370843766 57.19220563161434) rotate(0 0.22340750111152374 5.51610352778971)"><path d="M-0.23 0.17 C-0.2 2.08, 0.55 9.18, 0.67 11.04 M0.65 -0.22 C0.59 1.82, 0.44 9.97, 0.35 11.74" stroke="#1e1e1e" stroke-width="1" fill="none"></path></g></g><mask></mask><g stroke-linecap="round"><g transform="translate(174.29527621005218 60.030511102017044) rotate(0 -1.0882472913040147 -5.997410813475653)"><path d="M-0.53 -0.14 C-1.43 -0.97, -5.42 -3.32, -5.29 -5.34 C-5.16 -7.35, -0.68 -11.92, 0.27 -12.2 C1.22 -12.49, -0.16 -8.66, 0.41 -7.05 C0.99 -5.44, 3.77 -3.53, 3.73 -2.52 C3.69 -1.5, 0.7 -1.23, 0.18 -0.97 M0.2 -0.68 C-0.76 -1.65, -5.55 -4.3, -5.61 -6.14 C-5.68 -7.98, -1.21 -11.62, -0.19 -11.71 C0.83 -11.79, -0.05 -8.25, 0.53 -6.65 C1.1 -5.05, 3.22 -3, 3.27 -2.12 C3.31 -1.25, 1.17 -1.51, 0.8 -1.41" stroke="#e8590c" stroke-width="1" fill="none"></path></g></g><mask></mask><g stroke-linecap="round"><g transform="translate(87.59057603902329 16.17132701542323) rotate(22.186782485921018 1.8536368053378283 1.716270166398317)"><path d="M0.06 0.15 C0.65 0.73, 3.13 3.18, 3.71 3.67 M-0.34 -0.07 C0.19 0.39, 2.84 2.61, 3.43 3.17" stroke="#ff8383" stroke-width="1" fill="none"></path></g></g><mask></mask><g stroke-linecap="round"><g transform="translate(52.80558152223966 18.186814605347536) rotate(22.186782485921018 1.8536368053378283 1.716270166398317)"><path d="M-0.06 -0.04 C0.23 0.52, 0.77 2.7, 1.38 3.34 C1.99 3.98, 3.19 3.78, 3.59 3.77 M-0.51 -0.37 C-0.09 0.08, 1.38 2.15, 2.02 2.75 C2.66 3.36, 3 3.13, 3.31 3.26" stroke="#9c36b5" stroke-width="1" fill="none"></path></g></g><mask></mask><g stroke-linecap="round"><g transform="translate(76.40656199463228 43.52633329326454) rotate(22.186782485921018 1.8536368053378283 1.716270166398317)"><path d="M0.26 -0.34 C0.55 0.01, 0.96 1.32, 1.48 2.01 C2 2.69, 3.02 3.55, 3.39 3.75 M-0.03 0.25 C0.23 0.53, 0.53 1.06, 1.21 1.56 C1.9 2.05, 3.65 2.91, 4.08 3.22" stroke="#099268" stroke-width="1" fill="none"></path></g></g><mask></mask><g stroke-linecap="round"><g transform="translate(34.381473993938016 30.92000661399652) rotate(22.186782485921018 1.8536368053378283 1.716270166398317)"><path d="M-0.12 0.1 C0.31 0.18, 2.07 0.21, 2.71 0.76 C3.36 1.31, 3.52 2.98, 3.74 3.39 M0.46 -0.15 C1 -0.02, 2.88 -0.34, 3.39 0.31 C3.9 0.96, 3.39 3.23, 3.53 3.75" stroke="#0c8599" stroke-width="1" fill="none"></path></g></g><mask></mask><g stroke-linecap="round"><g transform="translate(26.06621872456344 52.34408203228304) rotate(22.186782485921018 1.8536368053378283 1.716270166398317)"><path d="M-0.15 0.08 C0.28 0.21, 2.14 0.31, 2.74 0.88 C3.33 1.46, 3.29 3.13, 3.45 3.51 M0.42 -0.19 C0.8 -0.16, 1.93 -0.26, 2.55 0.43 C3.18 1.11, 3.97 3.45, 4.17 3.94" stroke="#1971c2" stroke-width="1" fill="none"></path></g></g><mask></mask><g stroke-linecap="round"><g transform="translate(125.5957008448413 12.41849584794545) rotate(22.186782485921018 1.8536368053378283 1.716270166398317)"><path d="M0.32 0.18 C0.49 0.47, 0.24 1.5, 0.86 2.1 C1.48 2.7, 3.54 3.61, 4.04 3.78 M0.06 -0.03 C0.35 0.3, 0.91 1, 1.56 1.55 C2.22 2.1, 3.58 2.98, 3.99 3.28" stroke="#e8590c" stroke-width="1" fill="none"></path></g></g><mask></mask><g stroke-linecap="round"><g transform="translate(14.539053141500517 10.940264122908047) rotate(22.186782485921018 1.8536368053378283 1.5305997704781475)"><path d="M-0.32 0.07 C-0.06 0.08, 1.13 -0.63, 1.82 -0.1 C2.51 0.43, 3.45 2.72, 3.8 3.25 M0.16 -0.21 C0.36 -0.27, 0.98 -1.21, 1.56 -0.58 C2.14 0.04, 3.2 2.91, 3.63 3.55" stroke="#9c36b5" stroke-width="1" fill="none"></path></g></g><mask></mask><g stroke-linecap="round"><g transform="translate(110.10880646830537 32.08747154824232) rotate(22.186782485921018 1.8536368053378283 1.716270166398317)"><path d="M-0.08 -0.17 C0.2 0.4, 1.15 2.48, 1.82 3.11 C2.48 3.75, 3.58 3.57, 3.93 3.63 M0.52 0.51 C0.77 1.14, 1.12 2.98, 1.67 3.41 C2.22 3.83, 3.42 2.97, 3.81 3.05" stroke="#c2255c" stroke-width="1" fill="none"></path></g></g><mask></mask><g stroke-linecap="round"><g transform="translate(101.30734931184998 53.006927528445885) rotate(22.186782485921018 1.8536368053378283 0.7887484792263422)"><path d="M0.05 -0.27 C0.21 -0.55, 0.73 -2.59, 1.34 -2.02 C1.95 -1.44, 3.3 2.3, 3.69 3.17 M-0.36 0.36 C-0.24 0.15, 0.56 -2.16, 1.2 -1.65 C1.83 -1.14, 3.03 2.57, 3.46 3.43" stroke="#9c36b5" stroke-width="1" fill="none"></path></g></g><mask></mask><g stroke-linecap="round"><g transform="translate(9.237660224739557 36.74779406549533) rotate(22.186782485921018 1.8536368053378283 1.9029428808235025)"><path d="M0.13 -0.01 C0.5 0.57, 1.84 2.93, 2.49 3.55 C3.14 4.17, 3.8 3.74, 4.03 3.69 M-0.23 -0.32 C0.23 0.3, 2.47 3.29, 3.17 3.87 C3.87 4.45, 3.83 3.2, 3.97 3.14" stroke="#9c36b5" stroke-width="1" fill="none"></path></g></g><mask></mask><g stroke-linecap="round"><g transform="translate(175.29850560641898 58.42499224579842) rotate(0 -1.0882472913040147 -7.262369078245683)"><path d="M0.17 -1.01 C-0.75 -2.4, -5.49 -5.28, -5.35 -7.52 C-5.2 -9.77, 0.23 -14.3, 1.04 -14.49 C1.85 -14.69, -1.01 -10.58, -0.51 -8.68 C0 -6.79, 3.87 -4.23, 4.09 -3.12 C4.31 -2.01, 1.32 -2.38, 0.82 -2.02 M-1.2 1.07 C-2.27 -0.25, -6.51 -3.97, -6.22 -6.35 C-5.92 -8.72, -0.34 -12.92, 0.57 -13.16 C1.48 -13.4, -1.15 -9.56, -0.74 -7.78 C-0.33 -6, 3.09 -3.83, 3.02 -2.5 C2.96 -1.17, -0.36 0.14, -1.12 0.19" stroke="#e8590c" stroke-width="1" fill="none"></path></g></g><mask></mask></svg>