<svg version="1.1" xmlns="http://www.w3.org/2000/svg" viewBox="0 0 716.9859654054708 57.24162733547928" width="716.9859654054708" height="57.24162733547928" filter="invert(93%) hue-rotate(180deg)"><!-- svg-source:excalidraw --><metadata></metadata><defs><style class="style-fonts">
      </style></defs><g stroke-linecap="round"><g transform="translate(14.307605568952567 43.30868105318223) rotate(0 3.4797721500690386 -7.5450276965530065)"><path d="M-0.37 1.51 C4.92 -2.67, 7.05 -6.79, 10.41 -11.63 M0.74 0.72 C2.4 -2.76, 6.94 -5.31, 10.44 -11.16 M10.39 -9.38 C7.77 -11.33, 2.68 -10.29, -4.31 -8.47 M11.13 -10.66 C5.27 -9.31, -0.83 -7.63, -3.93 -7.95 M-3.14 -7.08 C0.22 -6.49, 4.91 -4.23, 10.12 -2.18 M-3.73 -7.05 C1 -4.67, 7.17 -3.5, 10.79 -1.75 M9.52 -2.64 C7.87 -5.95, 6.58 -6.6, 2.25 -14.85 M9.97 -1.3 C6.81 -6.36, 3.88 -11.24, 2.48 -14.72 M2.52 -13.83 C1.91 -10.63, 0.66 -8.14, -1.36 0.76 M1.21 -15.18 C1.72 -10.41, 1.34 -6.41, -0.32 0.69" stroke="#5c2304" stroke-width="2" fill="none"></path></g></g><mask></mask><g stroke-linecap="round"><g transform="translate(285.3153102063934 46.2254168243071) rotate(0 3.4797721500690386 -7.5450276965530065)"><path d="M0.85 -0.76 C4.89 -3.12, 7.41 -7.82, 11.02 -9.48 M-0.25 0.71 C2.7 -2.26, 5.27 -4.88, 10.7 -10.03 M10.99 -9.5 C8.28 -10, 3.38 -7.69, -3.58 -7.39 M11.19 -9.96 C5.11 -8.57, -0.88 -7.76, -3.82 -7.17 M-3.76 -9.1 C-0.39 -5.49, 3.53 -4.94, 9.83 -2.69 M-3.83 -7.56 C-0.93 -6.87, 1.8 -4.94, 11.45 -1.73 M11.73 -1.45 C9.86 -5.48, 5.4 -8.97, 2.9 -13.49 M10.62 -0.91 C7.27 -6.57, 5.16 -9.57, 1.65 -15.5 M1.54 -16.52 C0.73 -9.39, 1.48 -6.45, -1.16 0.9 M1.38 -14.79 C1.63 -10.76, 0.19 -6.32, 0.19 -0.28" stroke="#1971c2" stroke-width="2" fill="none"></path></g></g><mask></mask><g stroke-linecap="round"><g transform="translate(142.02547221812165 45.22331590334943) rotate(0 3.4797721500690386 -7.5450276965530065)"><path d="M1.49 0.47 C1.64 -3.07, 6.34 -5.45, 9.95 -9.47 M-0.21 -0.25 C1.75 -1.84, 4.65 -5.04, 10.64 -10.64 M10.39 -11.76 C6.6 -8.86, 0.13 -9.28, -4.59 -8.05 M10.62 -10.79 C7.64 -9.74, 5.39 -9.98, -4.35 -7.81 M-4.97 -6.78 C-0.12 -5.96, 5.24 -4.66, 11.8 -2.56 M-4.18 -6.73 C1.93 -5, 7.41 -2.65, 9.96 -1.09 M11.74 -1.4 C9.14 -5.7, 7.01 -6.35, 1.98 -14.47 M11.26 -1.55 C7.88 -6.21, 4.36 -12.55, 2.07 -15.79 M1.71 -15.3 C-0.01 -10.65, -0.32 -3.01, -0.06 -1.13 M1.95 -15.79 C1.61 -9.93, 0.57 -3.72, 0.02 0.74" stroke="#c2255c" stroke-width="2" fill="none"></path></g></g><mask></mask><g stroke-linecap="round"><g transform="translate(415.10382606093117 45.40378531220267) rotate(0 3.4797721500690386 -7.5450276965530065)"><path d="M0.7 -0.85 C3.86 -5.62, 8.76 -7.69, 10.19 -10.73 M-0.2 -0.09 C2.74 -2.06, 5.18 -5.3, 11.24 -10.89 M10.28 -11.23 C6.41 -9.59, 4.67 -10.81, -4.72 -8.51 M10.48 -11.39 C6.2 -10.23, 2.04 -9.7, -4.19 -8.14 M-4.93 -7.95 C-0.27 -6.14, 2.64 -5.27, 9.38 -2.12 M-3.73 -7.46 C-0.42 -6.14, 2.83 -4.8, 11.07 -0.85 M9.55 -0.88 C9.68 -3.48, 6.31 -8.67, 2.09 -14.76 M11.15 -2.01 C8.19 -6.7, 4.81 -9.94, 1.69 -14.87 M1.31 -14.98 C2.69 -12.03, 1.22 -8.83, -1.48 -0.52 M1.74 -14.82 C1.9 -11.13, 1.74 -7.51, -0.65 0.55" stroke="#9c36b5" stroke-width="2" fill="none"></path></g></g><mask></mask><g stroke-linecap="round"><g transform="translate(72.9473171054542 19.777670733836203) rotate(0 6.706747517014264 0.2543609164622467)"><path d="M0.62 0.8 C4.67 1.36, 9.28 -0.68, 13.93 1.16 M-0.26 0.65 C4.76 -0.54, 7.86 -0.02, 13.26 -0.16" stroke="#2f9e44" stroke-width="2" fill="none"></path></g></g><mask></mask><g stroke-linecap="round"><g transform="translate(79.0717947813464 10.069144638586295) rotate(0 0.9436724575689368 8.264812437431829)"><path d="M1.28 1.1 C0.52 2.75, 1.87 7.94, 0.45 16.08 M0.41 0.8 C-0.33 3.52, 0.6 7.33, 1.3 16.5" stroke="#2f9e44" stroke-width="2" fill="none"></path></g></g><mask></mask><g stroke-linecap="round"><g transform="translate(73.41032359069868 13.192928712820503) rotate(0 6.898192127127913 6.182477572864627)"><path d="M0.11 1.25 C5.51 2.6, 9.27 8.72, 12 11.25 M-0.16 0.91 C4.55 5.14, 9.72 8.61, 14.23 11.48" stroke="#2f9e44" stroke-width="2" fill="none"></path></g></g><mask></mask><g stroke-linecap="round"><g transform="translate(74.51658159858744 25.557883858549758) rotate(0 6.182477572864627 -5.694439144524949)"><path d="M1.36 -0.14 C1.73 -1.48, 6.39 -5.81, 10.98 -10.75 M-0.34 -0.29 C2.27 -2.83, 6.28 -5.46, 11.99 -12.07" stroke="#2f9e44" stroke-width="2" fill="none"></path></g></g><mask></mask><g stroke-linecap="round"><g transform="translate(213.68008602464397 21.3580131375802) rotate(0 6.706747517014264 0.2543609164622467)"><path d="M-0.66 -0.56 C5.8 0.6, 8.46 0.95, 12.41 -0.34 M0.43 -0.25 C4.41 0.05, 8.94 0.94, 13.52 1.06" stroke=" #784600" stroke-width="2" fill="none"></path></g></g><mask></mask><g stroke-linecap="round"><g transform="translate(219.80456370053798 11.649487042332112) rotate(0 0.9436724575689368 8.264812437431829)"><path d="M1.4 0.51 C-0.61 5.62, -0.21 8.71, 2.11 15.27 M0.26 -0.1 C1.38 6.1, 1.44 11.27, 1.59 17.01" stroke=" #784600" stroke-width="2" fill="none"></path></g></g><mask></mask><g stroke-linecap="round"><g transform="translate(214.14309250989027 14.77327111656814) rotate(0 6.898192127127913 6.182477572864627)"><path d="M-1.21 0.82 C2.28 1.98, 7.47 4.94, 14.17 13.56 M0.74 0.89 C3.82 4.03, 6.98 7.06, 13.24 12.27" stroke=" #784600" stroke-width="2" fill="none"></path></g></g><mask></mask><g stroke-linecap="round"><g transform="translate(215.2493505177772 27.138226262295575) rotate(0 6.182477572864627 -5.694439144524949)"><path d="M-1.26 -1.06 C4.39 -5.1, 8.59 -6.5, 11.75 -10.86 M0.13 0.69 C3.17 -2.91, 6.52 -6.76, 12.49 -11.17" stroke=" #784600" stroke-width="2" fill="none"></path></g></g><mask></mask><g stroke-linecap="round"><g transform="translate(340.2523188510677 20.76021410939211) rotate(0 6.706747517014264 0.2543609164622467)"><path d="M0.65 0.65 C4.82 -0.65, 9.03 0.72, 12.83 0.87 M-0.6 -0.09 C2.98 0.61, 5.89 0.22, 13.69 1.03" stroke="#099268" stroke-width="2" fill="none"></path></g></g><mask></mask><g stroke-linecap="round"><g transform="translate(346.3767965269617 11.051688014147658) rotate(0 0.9436724575689368 8.264812437431829)"><path d="M0.6 -0.9 C1.21 6.62, 0.73 12.52, 0.83 16.45 M-0.24 0.65 C-0.1 5.35, 1.41 11.34, 1.58 16.69" stroke="#099268" stroke-width="2" fill="none"></path></g></g><mask></mask><g stroke-linecap="round"><g transform="translate(340.715325336314 14.175472088380047) rotate(0 6.898192127127913 6.182477572864627)"><path d="M0.49 0.66 C4.04 4.88, 8.47 8.59, 14.23 10.71 M-0.63 0.01 C4.3 4.15, 7.53 7.16, 13.04 13.23" stroke="#099268" stroke-width="2" fill="none"></path></g></g><mask></mask><g stroke-linecap="round"><g transform="translate(341.8215833442009 26.540427234107483) rotate(0 6.182477572864627 -5.694439144524949)"><path d="M-0.73 0.45 C1.94 -2.93, 6.44 -7.15, 12.14 -11.88 M0.34 0.65 C4.44 -4.15, 8.74 -7.82, 12.44 -10.58" stroke="#099268" stroke-width="2" fill="none"></path></g></g><mask></mask><g stroke-linecap="round"><g transform="translate(695.5407544955196 46.835085802353206) rotate(0 3.4797721500690386 -7.5450276965530065)"><path d="M-1.43 -1.46 C3.47 -3.45, 7.53 -7.01, 10.54 -10.07 M-0.22 -0.41 C3.31 -3.01, 7.22 -7.73, 10.48 -11.31 M9.52 -10.61 C6.79 -9.45, 3.14 -10.32, -3.94 -7.95 M11.44 -10.2 C6.95 -9.91, 2.81 -8.24, -3.24 -7.03 M-4 -7.48 C-0.73 -6.37, 6.85 -3.61, 10.66 -1.19 M-4.55 -7.97 C1.45 -5.45, 5.31 -3.94, 10.35 -1.57 M11.45 -2.56 C8.04 -4.89, 7.03 -8.41, 2.74 -13.5 M10.15 -1.77 C7.78 -4.61, 5.56 -9.03, 1.87 -15.14 M2.16 -14.82 C1.44 -11.09, 0.1 -3.95, -0.52 0.41 M2.01 -15.08 C1.7 -11.98, 1.12 -7.41, -0.41 -0.59" stroke="#1971c2" stroke-width="2" fill="none"></path></g></g><mask></mask><g stroke-linecap="round"><g transform="translate(552.2509165072479 45.83298488139371) rotate(0 3.4797721500690386 -7.5450276965530065)"><path d="M0.35 -0.41 C3.55 -2.93, 4.22 -3.68, 11.57 -10.85 M-0.45 0.66 C3.07 -3.59, 6.23 -7.06, 10.55 -10.48 M10.53 -10.2 C6.61 -11.02, 2.87 -9.39, -4.22 -6.92 M11.13 -10.7 C7.81 -9.1, 4.85 -8.65, -3.8 -6.92 M-5.49 -8.35 C1.44 -5.86, 4.08 -3.91, 11.18 -0.49 M-3.39 -7.31 C1.27 -5.36, 6.9 -2.89, 10 -1.08 M9.9 -2.14 C7.57 -7.69, 5.35 -9.43, 1.3 -14.1 M10.15 -1.02 C8.14 -5.3, 6.43 -8.26, 2.3 -15.33 M2.16 -16.28 C0.79 -8.72, 0 -3.47, -0.98 -0.5 M2.21 -15.55 C1.45 -9.5, 0.25 -5.61, -0.39 0.54" stroke="#c2255c" stroke-width="2" fill="none"></path></g></g><mask></mask><g stroke-linecap="round"><g transform="translate(483.17276139458045 20.387339711882305) rotate(0 6.706747517014264 0.2543609164622467)"><path d="M1.05 -0.73 C2.42 0.68, 6.07 0.09, 13.47 0.11 M-0.24 -0.35 C2.91 -0.54, 6.27 0.31, 13.21 -0.11" stroke="#2f9e44" stroke-width="2" fill="none"></path></g></g><mask></mask><g stroke-linecap="round"><g transform="translate(489.29723907047446 10.678813616634216) rotate(0 0.9436724575689368 8.264812437431829)"><path d="M-0.4 0.66 C1.36 4.34, 1.23 8.55, 0.98 15.55 M-0.47 -0.68 C0.28 6.63, 1.15 12.04, 1.93 16.32" stroke="#2f9e44" stroke-width="2" fill="none"></path></g></g><mask></mask><g stroke-linecap="round"><g transform="translate(483.6357678798231 13.802597690866605) rotate(0 6.898192127127913 6.182477572864627)"><path d="M0.8 -0.21 C3.43 2.43, 5.74 4.92, 15.41 11.7 M-0.44 0.25 C3.07 2.33, 6.81 6.01, 14.09 12.2" stroke="#2f9e44" stroke-width="2" fill="none"></path></g></g><mask></mask><g stroke-linecap="round"><g transform="translate(484.7420258877137 26.16755283659404) rotate(0 6.182477572864627 -5.694439144524949)"><path d="M0.07 -0.49 C3.24 -4.85, 9.82 -8.33, 11.49 -12.35 M-0.25 -0.77 C2.79 -2.73, 5.72 -5.15, 11.7 -11.38" stroke="#2f9e44" stroke-width="2" fill="none"></path></g></g><mask></mask><g stroke-linecap="round"><g transform="translate(623.905530313772 21.967682115626303) rotate(0 6.706747517014264 0.2543609164622467)"><path d="M-0.73 -0.79 C5.04 -0.3, 7.05 -0.43, 12.32 -0.13 M0.03 -0.17 C4.59 0.17, 8.24 0.46, 13.23 0.39" stroke=" #784600" stroke-width="2" fill="none"></path></g></g><mask></mask><g stroke-linecap="round"><g transform="translate(630.0300079896624 12.259156020378214) rotate(0 0.9436724575689368 8.264812437431829)"><path d="M1.45 -0.6 C-0.45 3.53, -0.43 8.17, 2.33 16.03 M0.26 -0.14 C-0.25 3.46, 0.56 6.75, 2.21 15.94" stroke=" #784600" stroke-width="2" fill="none"></path></g></g><mask></mask><g stroke-linecap="round"><g transform="translate(624.3685367990183 15.382940094614241) rotate(0 6.898192127127913 6.182477572864627)"><path d="M-0.97 -1.06 C1.92 2.15, 7.25 5.45, 12.1 12.45 M-0.73 0.01 C3.57 3.26, 7.99 6.17, 14.44 12.96" stroke=" #784600" stroke-width="2" fill="none"></path></g></g><mask></mask><g stroke-linecap="round"><g transform="translate(625.4747948069053 27.747895240341677) rotate(0 6.182477572864627 -5.694439144524949)"><path d="M-1.37 -0.79 C3.77 -3.44, 5.05 -5.86, 11.95 -10.86 M-0.24 -0.15 C3.92 -3.82, 7.66 -5.9, 12.61 -11.4" stroke=" #784600" stroke-width="2" fill="none"></path></g></g><mask></mask></svg>